%TF.GenerationSoftware,KiCad,Pcbnew,(6.0.7)*%
%TF.CreationDate,2022-08-27T21:19:27-07:00*%
%TF.ProjectId,EB3,4542332e-6b69-4636-9164-5f7063625858,rev?*%
%TF.SameCoordinates,Original*%
%TF.FileFunction,Drillmap*%
%TF.FilePolarity,Positive*%
%FSLAX45Y45*%
G04 Gerber Fmt 4.5, Leading zero omitted, Abs format (unit mm)*
G04 Created by KiCad (PCBNEW (6.0.7)) date 2022-08-27 21:19:27*
%MOMM*%
%LPD*%
G01*
G04 APERTURE LIST*
%ADD10C,0.100000*%
%ADD11C,0.200000*%
%ADD12C,0.400000*%
G04 APERTURE END LIST*
D10*
X16504836Y-18854336D02*
X16502296Y-2738204D01*
X16314336Y-19044836D02*
X7818204Y-19042296D01*
X7627704Y-2738204D02*
X7627704Y-18851796D01*
X16311796Y-2547704D02*
X7818204Y-2547704D01*
X16502296Y-2738204D02*
G75*
G03*
X16311796Y-2547704I-190496J4D01*
G01*
X7627704Y-18851796D02*
G75*
G03*
X7818204Y-19042296I190496J-4D01*
G01*
X16314336Y-19044836D02*
G75*
G03*
X16504836Y-18854336I0J190500D01*
G01*
X7818204Y-2547704D02*
G75*
G03*
X7627704Y-2738204I-4J-190496D01*
G01*
D11*
X10999800Y-7901000D02*
X11199800Y-8101000D01*
X11199800Y-7901000D02*
X10999800Y-8101000D01*
D12*
X9407500Y-9842500D02*
G75*
G03*
X9407500Y-9842500I-200000J0D01*
G01*
X9407500Y-11747500D02*
G75*
G03*
X9407500Y-11747500I-200000J0D01*
G01*
X9407500Y-13652500D02*
G75*
G03*
X9407500Y-13652500I-200000J0D01*
G01*
X9407500Y-15557500D02*
G75*
G03*
X9407500Y-15557500I-200000J0D01*
G01*
X9407500Y-17462500D02*
G75*
G03*
X9407500Y-17462500I-200000J0D01*
G01*
X11312500Y-9842500D02*
G75*
G03*
X11312500Y-9842500I-200000J0D01*
G01*
X11312500Y-11747500D02*
G75*
G03*
X11312500Y-11747500I-200000J0D01*
G01*
X11312500Y-13652500D02*
G75*
G03*
X11312500Y-13652500I-200000J0D01*
G01*
X11312500Y-15557500D02*
G75*
G03*
X11312500Y-15557500I-200000J0D01*
G01*
X11312500Y-17462500D02*
G75*
G03*
X11312500Y-17462500I-200000J0D01*
G01*
X13217500Y-9842500D02*
G75*
G03*
X13217500Y-9842500I-200000J0D01*
G01*
X13217500Y-11747500D02*
G75*
G03*
X13217500Y-11747500I-200000J0D01*
G01*
X13217500Y-13652500D02*
G75*
G03*
X13217500Y-13652500I-200000J0D01*
G01*
X13217500Y-15557500D02*
G75*
G03*
X13217500Y-15557500I-200000J0D01*
G01*
X13217500Y-17462500D02*
G75*
G03*
X13217500Y-17462500I-200000J0D01*
G01*
X15122500Y-9842500D02*
G75*
G03*
X15122500Y-9842500I-200000J0D01*
G01*
X15122500Y-11747500D02*
G75*
G03*
X15122500Y-11747500I-200000J0D01*
G01*
X15122500Y-13652500D02*
G75*
G03*
X15122500Y-13652500I-200000J0D01*
G01*
X15122500Y-15557500D02*
G75*
G03*
X15122500Y-15557500I-200000J0D01*
G01*
X15122500Y-17462500D02*
G75*
G03*
X15122500Y-17462500I-200000J0D01*
G01*
D11*
X7880323Y-19360312D02*
X7880323Y-19160312D01*
X7927942Y-19160312D01*
X7956513Y-19169836D01*
X7975561Y-19188884D01*
X7985085Y-19207931D01*
X7994608Y-19246027D01*
X7994608Y-19274598D01*
X7985085Y-19312693D01*
X7975561Y-19331741D01*
X7956513Y-19350789D01*
X7927942Y-19360312D01*
X7880323Y-19360312D01*
X8080323Y-19360312D02*
X8080323Y-19226979D01*
X8080323Y-19265074D02*
X8089847Y-19246027D01*
X8099370Y-19236503D01*
X8118418Y-19226979D01*
X8137466Y-19226979D01*
X8204132Y-19360312D02*
X8204132Y-19226979D01*
X8204132Y-19160312D02*
X8194608Y-19169836D01*
X8204132Y-19179360D01*
X8213656Y-19169836D01*
X8204132Y-19160312D01*
X8204132Y-19179360D01*
X8327942Y-19360312D02*
X8308894Y-19350789D01*
X8299370Y-19331741D01*
X8299370Y-19160312D01*
X8432704Y-19360312D02*
X8413656Y-19350789D01*
X8404132Y-19331741D01*
X8404132Y-19160312D01*
X8661275Y-19360312D02*
X8661275Y-19160312D01*
X8727942Y-19303170D01*
X8794609Y-19160312D01*
X8794609Y-19360312D01*
X8975561Y-19360312D02*
X8975561Y-19255550D01*
X8966037Y-19236503D01*
X8946990Y-19226979D01*
X8908894Y-19226979D01*
X8889847Y-19236503D01*
X8975561Y-19350789D02*
X8956513Y-19360312D01*
X8908894Y-19360312D01*
X8889847Y-19350789D01*
X8880323Y-19331741D01*
X8880323Y-19312693D01*
X8889847Y-19293646D01*
X8908894Y-19284122D01*
X8956513Y-19284122D01*
X8975561Y-19274598D01*
X9070799Y-19226979D02*
X9070799Y-19426979D01*
X9070799Y-19236503D02*
X9089847Y-19226979D01*
X9127942Y-19226979D01*
X9146990Y-19236503D01*
X9156513Y-19246027D01*
X9166037Y-19265074D01*
X9166037Y-19322217D01*
X9156513Y-19341265D01*
X9146990Y-19350789D01*
X9127942Y-19360312D01*
X9089847Y-19360312D01*
X9070799Y-19350789D01*
X9251751Y-19341265D02*
X9261275Y-19350789D01*
X9251751Y-19360312D01*
X9242228Y-19350789D01*
X9251751Y-19341265D01*
X9251751Y-19360312D01*
X9251751Y-19236503D02*
X9261275Y-19246027D01*
X9251751Y-19255550D01*
X9242228Y-19246027D01*
X9251751Y-19236503D01*
X9251751Y-19255550D01*
X7422704Y-19589836D02*
X7622704Y-19789836D01*
X7622704Y-19589836D02*
X7422704Y-19789836D01*
X7870799Y-19599360D02*
X7880323Y-19589836D01*
X7899370Y-19580312D01*
X7946989Y-19580312D01*
X7966037Y-19589836D01*
X7975561Y-19599360D01*
X7985085Y-19618408D01*
X7985085Y-19637455D01*
X7975561Y-19666027D01*
X7861275Y-19780312D01*
X7985085Y-19780312D01*
X8070799Y-19761265D02*
X8080323Y-19770789D01*
X8070799Y-19780312D01*
X8061275Y-19770789D01*
X8070799Y-19761265D01*
X8070799Y-19780312D01*
X8204132Y-19580312D02*
X8223180Y-19580312D01*
X8242228Y-19589836D01*
X8251751Y-19599360D01*
X8261275Y-19618408D01*
X8270799Y-19656503D01*
X8270799Y-19704122D01*
X8261275Y-19742217D01*
X8251751Y-19761265D01*
X8242228Y-19770789D01*
X8223180Y-19780312D01*
X8204132Y-19780312D01*
X8185085Y-19770789D01*
X8175561Y-19761265D01*
X8166037Y-19742217D01*
X8156513Y-19704122D01*
X8156513Y-19656503D01*
X8166037Y-19618408D01*
X8175561Y-19599360D01*
X8185085Y-19589836D01*
X8204132Y-19580312D01*
X8394609Y-19580312D02*
X8413656Y-19580312D01*
X8432704Y-19589836D01*
X8442228Y-19599360D01*
X8451751Y-19618408D01*
X8461275Y-19656503D01*
X8461275Y-19704122D01*
X8451751Y-19742217D01*
X8442228Y-19761265D01*
X8432704Y-19770789D01*
X8413656Y-19780312D01*
X8394609Y-19780312D01*
X8375561Y-19770789D01*
X8366037Y-19761265D01*
X8356513Y-19742217D01*
X8346989Y-19704122D01*
X8346989Y-19656503D01*
X8356513Y-19618408D01*
X8366037Y-19599360D01*
X8375561Y-19589836D01*
X8394609Y-19580312D01*
X8585085Y-19580312D02*
X8604132Y-19580312D01*
X8623180Y-19589836D01*
X8632704Y-19599360D01*
X8642228Y-19618408D01*
X8651751Y-19656503D01*
X8651751Y-19704122D01*
X8642228Y-19742217D01*
X8632704Y-19761265D01*
X8623180Y-19770789D01*
X8604132Y-19780312D01*
X8585085Y-19780312D01*
X8566037Y-19770789D01*
X8556513Y-19761265D01*
X8546990Y-19742217D01*
X8537466Y-19704122D01*
X8537466Y-19656503D01*
X8546990Y-19618408D01*
X8556513Y-19599360D01*
X8566037Y-19589836D01*
X8585085Y-19580312D01*
X8737466Y-19780312D02*
X8737466Y-19646979D01*
X8737466Y-19666027D02*
X8746990Y-19656503D01*
X8766037Y-19646979D01*
X8794609Y-19646979D01*
X8813656Y-19656503D01*
X8823180Y-19675550D01*
X8823180Y-19780312D01*
X8823180Y-19675550D02*
X8832704Y-19656503D01*
X8851751Y-19646979D01*
X8880323Y-19646979D01*
X8899370Y-19656503D01*
X8908894Y-19675550D01*
X8908894Y-19780312D01*
X9004132Y-19780312D02*
X9004132Y-19646979D01*
X9004132Y-19666027D02*
X9013656Y-19656503D01*
X9032704Y-19646979D01*
X9061275Y-19646979D01*
X9080323Y-19656503D01*
X9089847Y-19675550D01*
X9089847Y-19780312D01*
X9089847Y-19675550D02*
X9099370Y-19656503D01*
X9118418Y-19646979D01*
X9146990Y-19646979D01*
X9166037Y-19656503D01*
X9175561Y-19675550D01*
X9175561Y-19780312D01*
X9566037Y-19570789D02*
X9394609Y-19827931D01*
X9823180Y-19580312D02*
X9842228Y-19580312D01*
X9861275Y-19589836D01*
X9870799Y-19599360D01*
X9880323Y-19618408D01*
X9889847Y-19656503D01*
X9889847Y-19704122D01*
X9880323Y-19742217D01*
X9870799Y-19761265D01*
X9861275Y-19770789D01*
X9842228Y-19780312D01*
X9823180Y-19780312D01*
X9804132Y-19770789D01*
X9794609Y-19761265D01*
X9785085Y-19742217D01*
X9775561Y-19704122D01*
X9775561Y-19656503D01*
X9785085Y-19618408D01*
X9794609Y-19599360D01*
X9804132Y-19589836D01*
X9823180Y-19580312D01*
X9975561Y-19761265D02*
X9985085Y-19770789D01*
X9975561Y-19780312D01*
X9966037Y-19770789D01*
X9975561Y-19761265D01*
X9975561Y-19780312D01*
X10108894Y-19580312D02*
X10127942Y-19580312D01*
X10146990Y-19589836D01*
X10156513Y-19599360D01*
X10166037Y-19618408D01*
X10175561Y-19656503D01*
X10175561Y-19704122D01*
X10166037Y-19742217D01*
X10156513Y-19761265D01*
X10146990Y-19770789D01*
X10127942Y-19780312D01*
X10108894Y-19780312D01*
X10089847Y-19770789D01*
X10080323Y-19761265D01*
X10070799Y-19742217D01*
X10061275Y-19704122D01*
X10061275Y-19656503D01*
X10070799Y-19618408D01*
X10080323Y-19599360D01*
X10089847Y-19589836D01*
X10108894Y-19580312D01*
X10242228Y-19580312D02*
X10375561Y-19580312D01*
X10289847Y-19780312D01*
X10480323Y-19666027D02*
X10461275Y-19656503D01*
X10451751Y-19646979D01*
X10442228Y-19627931D01*
X10442228Y-19618408D01*
X10451751Y-19599360D01*
X10461275Y-19589836D01*
X10480323Y-19580312D01*
X10518418Y-19580312D01*
X10537466Y-19589836D01*
X10546990Y-19599360D01*
X10556513Y-19618408D01*
X10556513Y-19627931D01*
X10546990Y-19646979D01*
X10537466Y-19656503D01*
X10518418Y-19666027D01*
X10480323Y-19666027D01*
X10461275Y-19675550D01*
X10451751Y-19685074D01*
X10442228Y-19704122D01*
X10442228Y-19742217D01*
X10451751Y-19761265D01*
X10461275Y-19770789D01*
X10480323Y-19780312D01*
X10518418Y-19780312D01*
X10537466Y-19770789D01*
X10546990Y-19761265D01*
X10556513Y-19742217D01*
X10556513Y-19704122D01*
X10546990Y-19685074D01*
X10537466Y-19675550D01*
X10518418Y-19666027D01*
X10623180Y-19580312D02*
X10756513Y-19580312D01*
X10670799Y-19780312D01*
X10823180Y-19580312D02*
X10823180Y-19618408D01*
X10899370Y-19580312D02*
X10899370Y-19618408D01*
X11194608Y-19856503D02*
X11185085Y-19846979D01*
X11166037Y-19818408D01*
X11156513Y-19799360D01*
X11146990Y-19770789D01*
X11137466Y-19723170D01*
X11137466Y-19685074D01*
X11146990Y-19637455D01*
X11156513Y-19608884D01*
X11166037Y-19589836D01*
X11185085Y-19561265D01*
X11194608Y-19551741D01*
X11375561Y-19780312D02*
X11261275Y-19780312D01*
X11318418Y-19780312D02*
X11318418Y-19580312D01*
X11299370Y-19608884D01*
X11280323Y-19627931D01*
X11261275Y-19637455D01*
X11613656Y-19780312D02*
X11613656Y-19580312D01*
X11699370Y-19780312D02*
X11699370Y-19675550D01*
X11689847Y-19656503D01*
X11670799Y-19646979D01*
X11642228Y-19646979D01*
X11623180Y-19656503D01*
X11613656Y-19666027D01*
X11823180Y-19780312D02*
X11804132Y-19770789D01*
X11794608Y-19761265D01*
X11785085Y-19742217D01*
X11785085Y-19685074D01*
X11794608Y-19666027D01*
X11804132Y-19656503D01*
X11823180Y-19646979D01*
X11851751Y-19646979D01*
X11870799Y-19656503D01*
X11880323Y-19666027D01*
X11889847Y-19685074D01*
X11889847Y-19742217D01*
X11880323Y-19761265D01*
X11870799Y-19770789D01*
X11851751Y-19780312D01*
X11823180Y-19780312D01*
X12004132Y-19780312D02*
X11985085Y-19770789D01*
X11975561Y-19751741D01*
X11975561Y-19580312D01*
X12156513Y-19770789D02*
X12137466Y-19780312D01*
X12099370Y-19780312D01*
X12080323Y-19770789D01*
X12070799Y-19751741D01*
X12070799Y-19675550D01*
X12080323Y-19656503D01*
X12099370Y-19646979D01*
X12137466Y-19646979D01*
X12156513Y-19656503D01*
X12166037Y-19675550D01*
X12166037Y-19694598D01*
X12070799Y-19713646D01*
X12232704Y-19856503D02*
X12242228Y-19846979D01*
X12261275Y-19818408D01*
X12270799Y-19799360D01*
X12280323Y-19770789D01*
X12289847Y-19723170D01*
X12289847Y-19685074D01*
X12280323Y-19637455D01*
X12270799Y-19608884D01*
X12261275Y-19589836D01*
X12242228Y-19561265D01*
X12232704Y-19551741D01*
X12594608Y-19856503D02*
X12585085Y-19846979D01*
X12566037Y-19818408D01*
X12556513Y-19799360D01*
X12546989Y-19770789D01*
X12537466Y-19723170D01*
X12537466Y-19685074D01*
X12546989Y-19637455D01*
X12556513Y-19608884D01*
X12566037Y-19589836D01*
X12585085Y-19561265D01*
X12594608Y-19551741D01*
X12670799Y-19646979D02*
X12670799Y-19780312D01*
X12670799Y-19666027D02*
X12680323Y-19656503D01*
X12699370Y-19646979D01*
X12727942Y-19646979D01*
X12746989Y-19656503D01*
X12756513Y-19675550D01*
X12756513Y-19780312D01*
X12880323Y-19780312D02*
X12861275Y-19770789D01*
X12851751Y-19761265D01*
X12842228Y-19742217D01*
X12842228Y-19685074D01*
X12851751Y-19666027D01*
X12861275Y-19656503D01*
X12880323Y-19646979D01*
X12908894Y-19646979D01*
X12927942Y-19656503D01*
X12937466Y-19666027D01*
X12946989Y-19685074D01*
X12946989Y-19742217D01*
X12937466Y-19761265D01*
X12927942Y-19770789D01*
X12908894Y-19780312D01*
X12880323Y-19780312D01*
X13004132Y-19646979D02*
X13080323Y-19646979D01*
X13032704Y-19580312D02*
X13032704Y-19751741D01*
X13042228Y-19770789D01*
X13061275Y-19780312D01*
X13080323Y-19780312D01*
X13299370Y-19646979D02*
X13299370Y-19846979D01*
X13299370Y-19656503D02*
X13318418Y-19646979D01*
X13356513Y-19646979D01*
X13375561Y-19656503D01*
X13385085Y-19666027D01*
X13394608Y-19685074D01*
X13394608Y-19742217D01*
X13385085Y-19761265D01*
X13375561Y-19770789D01*
X13356513Y-19780312D01*
X13318418Y-19780312D01*
X13299370Y-19770789D01*
X13508894Y-19780312D02*
X13489847Y-19770789D01*
X13480323Y-19751741D01*
X13480323Y-19580312D01*
X13670799Y-19780312D02*
X13670799Y-19675550D01*
X13661275Y-19656503D01*
X13642228Y-19646979D01*
X13604132Y-19646979D01*
X13585085Y-19656503D01*
X13670799Y-19770789D02*
X13651751Y-19780312D01*
X13604132Y-19780312D01*
X13585085Y-19770789D01*
X13575561Y-19751741D01*
X13575561Y-19732693D01*
X13585085Y-19713646D01*
X13604132Y-19704122D01*
X13651751Y-19704122D01*
X13670799Y-19694598D01*
X13737466Y-19646979D02*
X13813656Y-19646979D01*
X13766037Y-19580312D02*
X13766037Y-19751741D01*
X13775561Y-19770789D01*
X13794608Y-19780312D01*
X13813656Y-19780312D01*
X13956513Y-19770789D02*
X13937466Y-19780312D01*
X13899370Y-19780312D01*
X13880323Y-19770789D01*
X13870799Y-19751741D01*
X13870799Y-19675550D01*
X13880323Y-19656503D01*
X13899370Y-19646979D01*
X13937466Y-19646979D01*
X13956513Y-19656503D01*
X13966037Y-19675550D01*
X13966037Y-19694598D01*
X13870799Y-19713646D01*
X14137466Y-19780312D02*
X14137466Y-19580312D01*
X14137466Y-19770789D02*
X14118418Y-19780312D01*
X14080323Y-19780312D01*
X14061275Y-19770789D01*
X14051751Y-19761265D01*
X14042228Y-19742217D01*
X14042228Y-19685074D01*
X14051751Y-19666027D01*
X14061275Y-19656503D01*
X14080323Y-19646979D01*
X14118418Y-19646979D01*
X14137466Y-19656503D01*
X14213656Y-19856503D02*
X14223180Y-19846979D01*
X14242228Y-19818408D01*
X14251751Y-19799360D01*
X14261275Y-19770789D01*
X14270799Y-19723170D01*
X14270799Y-19685074D01*
X14261275Y-19637455D01*
X14251751Y-19608884D01*
X14242228Y-19589836D01*
X14223180Y-19561265D01*
X14213656Y-19551741D01*
X7622704Y-20009836D02*
G75*
G03*
X7622704Y-20009836I-100000J0D01*
G01*
X7966037Y-19966979D02*
X7966037Y-20100312D01*
X7918418Y-19890789D02*
X7870799Y-20033646D01*
X7994608Y-20033646D01*
X8070799Y-20081265D02*
X8080323Y-20090789D01*
X8070799Y-20100312D01*
X8061275Y-20090789D01*
X8070799Y-20081265D01*
X8070799Y-20100312D01*
X8204132Y-19900312D02*
X8223180Y-19900312D01*
X8242228Y-19909836D01*
X8251751Y-19919360D01*
X8261275Y-19938408D01*
X8270799Y-19976503D01*
X8270799Y-20024122D01*
X8261275Y-20062217D01*
X8251751Y-20081265D01*
X8242228Y-20090789D01*
X8223180Y-20100312D01*
X8204132Y-20100312D01*
X8185085Y-20090789D01*
X8175561Y-20081265D01*
X8166037Y-20062217D01*
X8156513Y-20024122D01*
X8156513Y-19976503D01*
X8166037Y-19938408D01*
X8175561Y-19919360D01*
X8185085Y-19909836D01*
X8204132Y-19900312D01*
X8394609Y-19900312D02*
X8413656Y-19900312D01*
X8432704Y-19909836D01*
X8442228Y-19919360D01*
X8451751Y-19938408D01*
X8461275Y-19976503D01*
X8461275Y-20024122D01*
X8451751Y-20062217D01*
X8442228Y-20081265D01*
X8432704Y-20090789D01*
X8413656Y-20100312D01*
X8394609Y-20100312D01*
X8375561Y-20090789D01*
X8366037Y-20081265D01*
X8356513Y-20062217D01*
X8346989Y-20024122D01*
X8346989Y-19976503D01*
X8356513Y-19938408D01*
X8366037Y-19919360D01*
X8375561Y-19909836D01*
X8394609Y-19900312D01*
X8585085Y-19900312D02*
X8604132Y-19900312D01*
X8623180Y-19909836D01*
X8632704Y-19919360D01*
X8642228Y-19938408D01*
X8651751Y-19976503D01*
X8651751Y-20024122D01*
X8642228Y-20062217D01*
X8632704Y-20081265D01*
X8623180Y-20090789D01*
X8604132Y-20100312D01*
X8585085Y-20100312D01*
X8566037Y-20090789D01*
X8556513Y-20081265D01*
X8546990Y-20062217D01*
X8537466Y-20024122D01*
X8537466Y-19976503D01*
X8546990Y-19938408D01*
X8556513Y-19919360D01*
X8566037Y-19909836D01*
X8585085Y-19900312D01*
X8737466Y-20100312D02*
X8737466Y-19966979D01*
X8737466Y-19986027D02*
X8746990Y-19976503D01*
X8766037Y-19966979D01*
X8794609Y-19966979D01*
X8813656Y-19976503D01*
X8823180Y-19995550D01*
X8823180Y-20100312D01*
X8823180Y-19995550D02*
X8832704Y-19976503D01*
X8851751Y-19966979D01*
X8880323Y-19966979D01*
X8899370Y-19976503D01*
X8908894Y-19995550D01*
X8908894Y-20100312D01*
X9004132Y-20100312D02*
X9004132Y-19966979D01*
X9004132Y-19986027D02*
X9013656Y-19976503D01*
X9032704Y-19966979D01*
X9061275Y-19966979D01*
X9080323Y-19976503D01*
X9089847Y-19995550D01*
X9089847Y-20100312D01*
X9089847Y-19995550D02*
X9099370Y-19976503D01*
X9118418Y-19966979D01*
X9146990Y-19966979D01*
X9166037Y-19976503D01*
X9175561Y-19995550D01*
X9175561Y-20100312D01*
X9566037Y-19890789D02*
X9394609Y-20147931D01*
X9823180Y-19900312D02*
X9842228Y-19900312D01*
X9861275Y-19909836D01*
X9870799Y-19919360D01*
X9880323Y-19938408D01*
X9889847Y-19976503D01*
X9889847Y-20024122D01*
X9880323Y-20062217D01*
X9870799Y-20081265D01*
X9861275Y-20090789D01*
X9842228Y-20100312D01*
X9823180Y-20100312D01*
X9804132Y-20090789D01*
X9794609Y-20081265D01*
X9785085Y-20062217D01*
X9775561Y-20024122D01*
X9775561Y-19976503D01*
X9785085Y-19938408D01*
X9794609Y-19919360D01*
X9804132Y-19909836D01*
X9823180Y-19900312D01*
X9975561Y-20081265D02*
X9985085Y-20090789D01*
X9975561Y-20100312D01*
X9966037Y-20090789D01*
X9975561Y-20081265D01*
X9975561Y-20100312D01*
X10175561Y-20100312D02*
X10061275Y-20100312D01*
X10118418Y-20100312D02*
X10118418Y-19900312D01*
X10099370Y-19928884D01*
X10080323Y-19947931D01*
X10061275Y-19957455D01*
X10356513Y-19900312D02*
X10261275Y-19900312D01*
X10251751Y-19995550D01*
X10261275Y-19986027D01*
X10280323Y-19976503D01*
X10327942Y-19976503D01*
X10346990Y-19986027D01*
X10356513Y-19995550D01*
X10366037Y-20014598D01*
X10366037Y-20062217D01*
X10356513Y-20081265D01*
X10346990Y-20090789D01*
X10327942Y-20100312D01*
X10280323Y-20100312D01*
X10261275Y-20090789D01*
X10251751Y-20081265D01*
X10432704Y-19900312D02*
X10566037Y-19900312D01*
X10480323Y-20100312D01*
X10737466Y-19900312D02*
X10642228Y-19900312D01*
X10632704Y-19995550D01*
X10642228Y-19986027D01*
X10661275Y-19976503D01*
X10708894Y-19976503D01*
X10727942Y-19986027D01*
X10737466Y-19995550D01*
X10746990Y-20014598D01*
X10746990Y-20062217D01*
X10737466Y-20081265D01*
X10727942Y-20090789D01*
X10708894Y-20100312D01*
X10661275Y-20100312D01*
X10642228Y-20090789D01*
X10632704Y-20081265D01*
X10823180Y-19900312D02*
X10823180Y-19938408D01*
X10899370Y-19900312D02*
X10899370Y-19938408D01*
X11194608Y-20176503D02*
X11185085Y-20166979D01*
X11166037Y-20138408D01*
X11156513Y-20119360D01*
X11146990Y-20090789D01*
X11137466Y-20043170D01*
X11137466Y-20005074D01*
X11146990Y-19957455D01*
X11156513Y-19928884D01*
X11166037Y-19909836D01*
X11185085Y-19881265D01*
X11194608Y-19871741D01*
X11261275Y-19919360D02*
X11270799Y-19909836D01*
X11289847Y-19900312D01*
X11337466Y-19900312D01*
X11356513Y-19909836D01*
X11366037Y-19919360D01*
X11375561Y-19938408D01*
X11375561Y-19957455D01*
X11366037Y-19986027D01*
X11251751Y-20100312D01*
X11375561Y-20100312D01*
X11499370Y-19900312D02*
X11518418Y-19900312D01*
X11537466Y-19909836D01*
X11546989Y-19919360D01*
X11556513Y-19938408D01*
X11566037Y-19976503D01*
X11566037Y-20024122D01*
X11556513Y-20062217D01*
X11546989Y-20081265D01*
X11537466Y-20090789D01*
X11518418Y-20100312D01*
X11499370Y-20100312D01*
X11480323Y-20090789D01*
X11470799Y-20081265D01*
X11461275Y-20062217D01*
X11451751Y-20024122D01*
X11451751Y-19976503D01*
X11461275Y-19938408D01*
X11470799Y-19919360D01*
X11480323Y-19909836D01*
X11499370Y-19900312D01*
X11804132Y-20100312D02*
X11804132Y-19900312D01*
X11889847Y-20100312D02*
X11889847Y-19995550D01*
X11880323Y-19976503D01*
X11861275Y-19966979D01*
X11832704Y-19966979D01*
X11813656Y-19976503D01*
X11804132Y-19986027D01*
X12013656Y-20100312D02*
X11994608Y-20090789D01*
X11985085Y-20081265D01*
X11975561Y-20062217D01*
X11975561Y-20005074D01*
X11985085Y-19986027D01*
X11994608Y-19976503D01*
X12013656Y-19966979D01*
X12042228Y-19966979D01*
X12061275Y-19976503D01*
X12070799Y-19986027D01*
X12080323Y-20005074D01*
X12080323Y-20062217D01*
X12070799Y-20081265D01*
X12061275Y-20090789D01*
X12042228Y-20100312D01*
X12013656Y-20100312D01*
X12194608Y-20100312D02*
X12175561Y-20090789D01*
X12166037Y-20071741D01*
X12166037Y-19900312D01*
X12346989Y-20090789D02*
X12327942Y-20100312D01*
X12289847Y-20100312D01*
X12270799Y-20090789D01*
X12261275Y-20071741D01*
X12261275Y-19995550D01*
X12270799Y-19976503D01*
X12289847Y-19966979D01*
X12327942Y-19966979D01*
X12346989Y-19976503D01*
X12356513Y-19995550D01*
X12356513Y-20014598D01*
X12261275Y-20033646D01*
X12432704Y-20090789D02*
X12451751Y-20100312D01*
X12489847Y-20100312D01*
X12508894Y-20090789D01*
X12518418Y-20071741D01*
X12518418Y-20062217D01*
X12508894Y-20043170D01*
X12489847Y-20033646D01*
X12461275Y-20033646D01*
X12442228Y-20024122D01*
X12432704Y-20005074D01*
X12432704Y-19995550D01*
X12442228Y-19976503D01*
X12461275Y-19966979D01*
X12489847Y-19966979D01*
X12508894Y-19976503D01*
X12585085Y-20176503D02*
X12594608Y-20166979D01*
X12613656Y-20138408D01*
X12623180Y-20119360D01*
X12632704Y-20090789D01*
X12642228Y-20043170D01*
X12642228Y-20005074D01*
X12632704Y-19957455D01*
X12623180Y-19928884D01*
X12613656Y-19909836D01*
X12594608Y-19881265D01*
X12585085Y-19871741D01*
X12946989Y-20176503D02*
X12937466Y-20166979D01*
X12918418Y-20138408D01*
X12908894Y-20119360D01*
X12899370Y-20090789D01*
X12889847Y-20043170D01*
X12889847Y-20005074D01*
X12899370Y-19957455D01*
X12908894Y-19928884D01*
X12918418Y-19909836D01*
X12937466Y-19881265D01*
X12946989Y-19871741D01*
X13023180Y-19966979D02*
X13023180Y-20100312D01*
X13023180Y-19986027D02*
X13032704Y-19976503D01*
X13051751Y-19966979D01*
X13080323Y-19966979D01*
X13099370Y-19976503D01*
X13108894Y-19995550D01*
X13108894Y-20100312D01*
X13232704Y-20100312D02*
X13213656Y-20090789D01*
X13204132Y-20081265D01*
X13194608Y-20062217D01*
X13194608Y-20005074D01*
X13204132Y-19986027D01*
X13213656Y-19976503D01*
X13232704Y-19966979D01*
X13261275Y-19966979D01*
X13280323Y-19976503D01*
X13289847Y-19986027D01*
X13299370Y-20005074D01*
X13299370Y-20062217D01*
X13289847Y-20081265D01*
X13280323Y-20090789D01*
X13261275Y-20100312D01*
X13232704Y-20100312D01*
X13356513Y-19966979D02*
X13432704Y-19966979D01*
X13385085Y-19900312D02*
X13385085Y-20071741D01*
X13394608Y-20090789D01*
X13413656Y-20100312D01*
X13432704Y-20100312D01*
X13651751Y-19966979D02*
X13651751Y-20166979D01*
X13651751Y-19976503D02*
X13670799Y-19966979D01*
X13708894Y-19966979D01*
X13727942Y-19976503D01*
X13737466Y-19986027D01*
X13746989Y-20005074D01*
X13746989Y-20062217D01*
X13737466Y-20081265D01*
X13727942Y-20090789D01*
X13708894Y-20100312D01*
X13670799Y-20100312D01*
X13651751Y-20090789D01*
X13861275Y-20100312D02*
X13842228Y-20090789D01*
X13832704Y-20071741D01*
X13832704Y-19900312D01*
X14023180Y-20100312D02*
X14023180Y-19995550D01*
X14013656Y-19976503D01*
X13994608Y-19966979D01*
X13956513Y-19966979D01*
X13937466Y-19976503D01*
X14023180Y-20090789D02*
X14004132Y-20100312D01*
X13956513Y-20100312D01*
X13937466Y-20090789D01*
X13927942Y-20071741D01*
X13927942Y-20052693D01*
X13937466Y-20033646D01*
X13956513Y-20024122D01*
X14004132Y-20024122D01*
X14023180Y-20014598D01*
X14089847Y-19966979D02*
X14166037Y-19966979D01*
X14118418Y-19900312D02*
X14118418Y-20071741D01*
X14127942Y-20090789D01*
X14146989Y-20100312D01*
X14166037Y-20100312D01*
X14308894Y-20090789D02*
X14289847Y-20100312D01*
X14251751Y-20100312D01*
X14232704Y-20090789D01*
X14223180Y-20071741D01*
X14223180Y-19995550D01*
X14232704Y-19976503D01*
X14251751Y-19966979D01*
X14289847Y-19966979D01*
X14308894Y-19976503D01*
X14318418Y-19995550D01*
X14318418Y-20014598D01*
X14223180Y-20033646D01*
X14489847Y-20100312D02*
X14489847Y-19900312D01*
X14489847Y-20090789D02*
X14470799Y-20100312D01*
X14432704Y-20100312D01*
X14413656Y-20090789D01*
X14404132Y-20081265D01*
X14394608Y-20062217D01*
X14394608Y-20005074D01*
X14404132Y-19986027D01*
X14413656Y-19976503D01*
X14432704Y-19966979D01*
X14470799Y-19966979D01*
X14489847Y-19976503D01*
X14566037Y-20176503D02*
X14575561Y-20166979D01*
X14594608Y-20138408D01*
X14604132Y-20119360D01*
X14613656Y-20090789D01*
X14623180Y-20043170D01*
X14623180Y-20005074D01*
X14613656Y-19957455D01*
X14604132Y-19928884D01*
X14594608Y-19909836D01*
X14575561Y-19881265D01*
X14566037Y-19871741D01*
M02*
