%TF.GenerationSoftware,KiCad,Pcbnew,(6.0.7)*%
%TF.CreationDate,2022-08-27T21:19:27-07:00*%
%TF.ProjectId,EB3,4542332e-6b69-4636-9164-5f7063625858,rev?*%
%TF.SameCoordinates,Original*%
%TF.FileFunction,Drillmap*%
%TF.FilePolarity,Positive*%
%FSLAX45Y45*%
G04 Gerber Fmt 4.5, Leading zero omitted, Abs format (unit mm)*
G04 Created by KiCad (PCBNEW (6.0.7)) date 2022-08-27 21:19:27*
%MOMM*%
%LPD*%
G01*
G04 APERTURE LIST*
%ADD10C,0.100000*%
%ADD11C,0.200000*%
%ADD12C,0.040000*%
%ADD13C,0.050000*%
%ADD14C,0.055000*%
%ADD15C,0.075000*%
%ADD16C,0.080000*%
%ADD17C,0.090000*%
%ADD18C,0.120000*%
%ADD19C,0.150000*%
%ADD20C,0.250000*%
G04 APERTURE END LIST*
D10*
X16504836Y-18854336D02*
X16502296Y-2738204D01*
X16314336Y-19044836D02*
X7818204Y-19042296D01*
X7627704Y-2738204D02*
X7627704Y-18851796D01*
X16311796Y-2547704D02*
X7818204Y-2547704D01*
X16502296Y-2738204D02*
G75*
G03*
X16311796Y-2547704I-190496J4D01*
G01*
X7627704Y-18851796D02*
G75*
G03*
X7818204Y-19042296I190496J-4D01*
G01*
X16314336Y-19044836D02*
G75*
G03*
X16504836Y-18854336I0J190500D01*
G01*
X7818204Y-2547704D02*
G75*
G03*
X7627704Y-2738204I-4J-190496D01*
G01*
D11*
D12*
X9499920Y-4231960D02*
X9539920Y-4271960D01*
X9539920Y-4231960D02*
X9499920Y-4271960D01*
X10876600Y-8768400D02*
X10916600Y-8808400D01*
X10916600Y-8768400D02*
X10876600Y-8808400D01*
X12222800Y-7904800D02*
X12262800Y-7944800D01*
X12262800Y-7904800D02*
X12222800Y-7944800D01*
X12307500Y-7337500D02*
X12347500Y-7377500D01*
X12347500Y-7337500D02*
X12307500Y-7377500D01*
D13*
X16376400Y-7841500D02*
G75*
G03*
X16376400Y-7841500I-25000J0D01*
G01*
D11*
X16318900Y-7866500D02*
X16383900Y-7866500D01*
X16318900Y-7816500D02*
X16383900Y-7816500D01*
X16383900Y-7866500D02*
G75*
G03*
X16383900Y-7816500I0J25000D01*
G01*
X16318900Y-7816500D02*
G75*
G03*
X16318900Y-7866500I0J-25000D01*
G01*
D13*
X16376400Y-8541500D02*
G75*
G03*
X16376400Y-8541500I-25000J0D01*
G01*
D11*
X16318900Y-8566500D02*
X16383900Y-8566500D01*
X16318900Y-8516500D02*
X16383900Y-8516500D01*
X16383900Y-8566500D02*
G75*
G03*
X16383900Y-8516500I0J25000D01*
G01*
X16318900Y-8516500D02*
G75*
G03*
X16318900Y-8566500I0J-25000D01*
G01*
D14*
X16081400Y-7914000D02*
X16081400Y-7969000D01*
X16053900Y-7941500D02*
X16108900Y-7941500D01*
D11*
X16108900Y-7956500D02*
X16108900Y-7926500D01*
X16053900Y-7956500D02*
X16053900Y-7926500D01*
X16108900Y-7926500D02*
G75*
G03*
X16053900Y-7926500I-27500J0D01*
G01*
X16053900Y-7956500D02*
G75*
G03*
X16108900Y-7956500I27500J0D01*
G01*
D14*
X16081400Y-8414000D02*
X16081400Y-8469000D01*
X16053900Y-8441500D02*
X16108900Y-8441500D01*
D11*
X16108900Y-8456500D02*
X16108900Y-8426500D01*
X16053900Y-8456500D02*
X16053900Y-8426500D01*
X16108900Y-8426500D02*
G75*
G03*
X16053900Y-8426500I-27500J0D01*
G01*
X16053900Y-8456500D02*
G75*
G03*
X16108900Y-8456500I27500J0D01*
G01*
D15*
X13295917Y-8052917D02*
X13295917Y-7999883D01*
X13242883Y-7999883D01*
X13242883Y-8052917D01*
X13295917Y-8052917D01*
X13295917Y-8179917D02*
X13295917Y-8126883D01*
X13242883Y-8126883D01*
X13242883Y-8179917D01*
X13295917Y-8179917D01*
X13295917Y-8306917D02*
X13295917Y-8253883D01*
X13242883Y-8253883D01*
X13242883Y-8306917D01*
X13295917Y-8306917D01*
D16*
X7960900Y-8549000D02*
X8000900Y-8509000D01*
X7960900Y-8469000D01*
X7920900Y-8509000D01*
X7960900Y-8549000D01*
X8002000Y-6706500D02*
X8042000Y-6666500D01*
X8002000Y-6626500D01*
X7962000Y-6666500D01*
X8002000Y-6706500D01*
X8002000Y-7468500D02*
X8042000Y-7428500D01*
X8002000Y-7388500D01*
X7962000Y-7428500D01*
X8002000Y-7468500D01*
X8214900Y-8549000D02*
X8254900Y-8509000D01*
X8214900Y-8469000D01*
X8174900Y-8509000D01*
X8214900Y-8549000D01*
X8256000Y-6706500D02*
X8296000Y-6666500D01*
X8256000Y-6626500D01*
X8216000Y-6666500D01*
X8256000Y-6706500D01*
X8256000Y-7468500D02*
X8296000Y-7428500D01*
X8256000Y-7388500D01*
X8216000Y-7428500D01*
X8256000Y-7468500D01*
X8510000Y-6706500D02*
X8550000Y-6666500D01*
X8510000Y-6626500D01*
X8470000Y-6666500D01*
X8510000Y-6706500D01*
X8510000Y-7468500D02*
X8550000Y-7428500D01*
X8510000Y-7388500D01*
X8470000Y-7428500D01*
X8510000Y-7468500D01*
X8764000Y-6706500D02*
X8804000Y-6666500D01*
X8764000Y-6626500D01*
X8724000Y-6666500D01*
X8764000Y-6706500D01*
X8764000Y-7468500D02*
X8804000Y-7428500D01*
X8764000Y-7388500D01*
X8724000Y-7428500D01*
X8764000Y-7468500D01*
X9018000Y-6706500D02*
X9058000Y-6666500D01*
X9018000Y-6626500D01*
X8978000Y-6666500D01*
X9018000Y-6706500D01*
X9018000Y-7468500D02*
X9058000Y-7428500D01*
X9018000Y-7388500D01*
X8978000Y-7428500D01*
X9018000Y-7468500D01*
X9272000Y-6706500D02*
X9312000Y-6666500D01*
X9272000Y-6626500D01*
X9232000Y-6666500D01*
X9272000Y-6706500D01*
X9272000Y-7468500D02*
X9312000Y-7428500D01*
X9272000Y-7388500D01*
X9232000Y-7428500D01*
X9272000Y-7468500D01*
X9526000Y-6706500D02*
X9566000Y-6666500D01*
X9526000Y-6626500D01*
X9486000Y-6666500D01*
X9526000Y-6706500D01*
X9526000Y-7468500D02*
X9566000Y-7428500D01*
X9526000Y-7388500D01*
X9486000Y-7428500D01*
X9526000Y-7468500D01*
X9780000Y-6706500D02*
X9820000Y-6666500D01*
X9780000Y-6626500D01*
X9740000Y-6666500D01*
X9780000Y-6706500D01*
X9780000Y-7468500D02*
X9820000Y-7428500D01*
X9780000Y-7388500D01*
X9740000Y-7428500D01*
X9780000Y-7468500D01*
X10034000Y-6706500D02*
X10074000Y-6666500D01*
X10034000Y-6626500D01*
X9994000Y-6666500D01*
X10034000Y-6706500D01*
X10034000Y-7468500D02*
X10074000Y-7428500D01*
X10034000Y-7388500D01*
X9994000Y-7428500D01*
X10034000Y-7468500D01*
X10288000Y-6706500D02*
X10328000Y-6666500D01*
X10288000Y-6626500D01*
X10248000Y-6666500D01*
X10288000Y-6706500D01*
X10288000Y-7468500D02*
X10328000Y-7428500D01*
X10288000Y-7388500D01*
X10248000Y-7428500D01*
X10288000Y-7468500D01*
X10542000Y-6706500D02*
X10582000Y-6666500D01*
X10542000Y-6626500D01*
X10502000Y-6666500D01*
X10542000Y-6706500D01*
X10542000Y-7468500D02*
X10582000Y-7428500D01*
X10542000Y-7388500D01*
X10502000Y-7428500D01*
X10542000Y-7468500D01*
X10796000Y-6706500D02*
X10836000Y-6666500D01*
X10796000Y-6626500D01*
X10756000Y-6666500D01*
X10796000Y-6706500D01*
X10796000Y-7468500D02*
X10836000Y-7428500D01*
X10796000Y-7388500D01*
X10756000Y-7428500D01*
X10796000Y-7468500D01*
X11050000Y-6706500D02*
X11090000Y-6666500D01*
X11050000Y-6626500D01*
X11010000Y-6666500D01*
X11050000Y-6706500D01*
X11050000Y-7468500D02*
X11090000Y-7428500D01*
X11050000Y-7388500D01*
X11010000Y-7428500D01*
X11050000Y-7468500D01*
X11304000Y-6706500D02*
X11344000Y-6666500D01*
X11304000Y-6626500D01*
X11264000Y-6666500D01*
X11304000Y-6706500D01*
X11304000Y-7468500D02*
X11344000Y-7428500D01*
X11304000Y-7388500D01*
X11264000Y-7428500D01*
X11304000Y-7468500D01*
X13677900Y-8066400D02*
X13717900Y-8026400D01*
X13677900Y-7986400D01*
X13637900Y-8026400D01*
X13677900Y-8066400D01*
X13677900Y-8320400D02*
X13717900Y-8280400D01*
X13677900Y-8240400D01*
X13637900Y-8280400D01*
X13677900Y-8320400D01*
X13931900Y-8066400D02*
X13971900Y-8026400D01*
X13931900Y-7986400D01*
X13891900Y-8026400D01*
X13931900Y-8066400D01*
X13931900Y-8320400D02*
X13971900Y-8280400D01*
X13931900Y-8240400D01*
X13891900Y-8280400D01*
X13931900Y-8320400D01*
D17*
X10804800Y-7956000D02*
X10894800Y-8046000D01*
X10894800Y-7956000D02*
X10804800Y-8046000D01*
X10894800Y-8001000D02*
G75*
G03*
X10894800Y-8001000I-45000J0D01*
G01*
X11304800Y-7706000D02*
X11394800Y-7796000D01*
X11394800Y-7706000D02*
X11304800Y-7796000D01*
X11394800Y-7751000D02*
G75*
G03*
X11394800Y-7751000I-45000J0D01*
G01*
X11304800Y-8206000D02*
X11394800Y-8296000D01*
X11394800Y-8206000D02*
X11304800Y-8296000D01*
X11394800Y-8251000D02*
G75*
G03*
X11394800Y-8251000I-45000J0D01*
G01*
X13581150Y-6698550D02*
X13671150Y-6788550D01*
X13671150Y-6698550D02*
X13581150Y-6788550D01*
X13671150Y-6743550D02*
G75*
G03*
X13671150Y-6743550I-45000J0D01*
G01*
X13581150Y-7298550D02*
X13671150Y-7388550D01*
X13671150Y-7298550D02*
X13581150Y-7388550D01*
X13671150Y-7343550D02*
G75*
G03*
X13671150Y-7343550I-45000J0D01*
G01*
X13831150Y-6698550D02*
X13921150Y-6788550D01*
X13921150Y-6698550D02*
X13831150Y-6788550D01*
X13921150Y-6743550D02*
G75*
G03*
X13921150Y-6743550I-45000J0D01*
G01*
X13831150Y-7298550D02*
X13921150Y-7388550D01*
X13921150Y-7298550D02*
X13831150Y-7388550D01*
X13921150Y-7343550D02*
G75*
G03*
X13921150Y-7343550I-45000J0D01*
G01*
X14081150Y-6698550D02*
X14171150Y-6788550D01*
X14171150Y-6698550D02*
X14081150Y-6788550D01*
X14171150Y-6743550D02*
G75*
G03*
X14171150Y-6743550I-45000J0D01*
G01*
X14081150Y-7298550D02*
X14171150Y-7388550D01*
X14171150Y-7298550D02*
X14081150Y-7388550D01*
X14171150Y-7343550D02*
G75*
G03*
X14171150Y-7343550I-45000J0D01*
G01*
D10*
X11758500Y-6678500D02*
X11858500Y-6778500D01*
X11858500Y-6678500D02*
X11758500Y-6778500D01*
X11808500Y-6678500D02*
X11808500Y-6778500D01*
X11758500Y-6728500D02*
X11858500Y-6728500D01*
X11758500Y-6932500D02*
X11858500Y-7032500D01*
X11858500Y-6932500D02*
X11758500Y-7032500D01*
X11808500Y-6932500D02*
X11808500Y-7032500D01*
X11758500Y-6982500D02*
X11858500Y-6982500D01*
X11758500Y-7186500D02*
X11858500Y-7286500D01*
X11858500Y-7186500D02*
X11758500Y-7286500D01*
X11808500Y-7186500D02*
X11808500Y-7286500D01*
X11758500Y-7236500D02*
X11858500Y-7236500D01*
X11758500Y-7440500D02*
X11858500Y-7540500D01*
X11858500Y-7440500D02*
X11758500Y-7540500D01*
X11808500Y-7440500D02*
X11808500Y-7540500D01*
X11758500Y-7490500D02*
X11858500Y-7490500D01*
X11758500Y-7694500D02*
X11858500Y-7794500D01*
X11858500Y-7694500D02*
X11758500Y-7794500D01*
X11808500Y-7694500D02*
X11808500Y-7794500D01*
X11758500Y-7744500D02*
X11858500Y-7744500D01*
X11758500Y-7948500D02*
X11858500Y-8048500D01*
X11858500Y-7948500D02*
X11758500Y-8048500D01*
X11808500Y-7948500D02*
X11808500Y-8048500D01*
X11758500Y-7998500D02*
X11858500Y-7998500D01*
X12119100Y-6682000D02*
X12219100Y-6782000D01*
X12219100Y-6682000D02*
X12119100Y-6782000D01*
X12169100Y-6682000D02*
X12169100Y-6782000D01*
X12119100Y-6732000D02*
X12219100Y-6732000D01*
X12119100Y-6936000D02*
X12219100Y-7036000D01*
X12219100Y-6936000D02*
X12119100Y-7036000D01*
X12169100Y-6936000D02*
X12169100Y-7036000D01*
X12119100Y-6986000D02*
X12219100Y-6986000D01*
X12119100Y-7190000D02*
X12219100Y-7290000D01*
X12219100Y-7190000D02*
X12119100Y-7290000D01*
X12169100Y-7190000D02*
X12169100Y-7290000D01*
X12119100Y-7240000D02*
X12219100Y-7240000D01*
X12119100Y-7444000D02*
X12219100Y-7544000D01*
X12219100Y-7444000D02*
X12119100Y-7544000D01*
X12169100Y-7444000D02*
X12169100Y-7544000D01*
X12119100Y-7494000D02*
X12219100Y-7494000D01*
X12474700Y-6682500D02*
X12574700Y-6782500D01*
X12574700Y-6682500D02*
X12474700Y-6782500D01*
X12524700Y-6682500D02*
X12524700Y-6782500D01*
X12474700Y-6732500D02*
X12574700Y-6732500D01*
X12474700Y-6936500D02*
X12574700Y-7036500D01*
X12574700Y-6936500D02*
X12474700Y-7036500D01*
X12524700Y-6936500D02*
X12524700Y-7036500D01*
X12474700Y-6986500D02*
X12574700Y-6986500D01*
X12474700Y-7190500D02*
X12574700Y-7290500D01*
X12574700Y-7190500D02*
X12474700Y-7290500D01*
X12524700Y-7190500D02*
X12524700Y-7290500D01*
X12474700Y-7240500D02*
X12574700Y-7240500D01*
X15639500Y-6997000D02*
X15739500Y-7097000D01*
X15739500Y-6997000D02*
X15639500Y-7097000D01*
X15689500Y-6997000D02*
X15689500Y-7097000D01*
X15639500Y-7047000D02*
X15739500Y-7047000D01*
D11*
X15639500Y-6937000D02*
X15639500Y-7157000D01*
X15739500Y-6937000D02*
X15739500Y-7157000D01*
X15639500Y-7157000D02*
G75*
G03*
X15739500Y-7157000I50000J0D01*
G01*
X15739500Y-6937000D02*
G75*
G03*
X15639500Y-6937000I-50000J0D01*
G01*
D10*
X15979500Y-7477000D02*
X16079500Y-7577000D01*
X16079500Y-7477000D02*
X15979500Y-7577000D01*
X16029500Y-7477000D02*
X16029500Y-7577000D01*
X15979500Y-7527000D02*
X16079500Y-7527000D01*
D11*
X16139500Y-7477000D02*
X15919500Y-7477000D01*
X16139500Y-7577000D02*
X15919500Y-7577000D01*
X15919500Y-7477000D02*
G75*
G03*
X15919500Y-7577000I0J-50000D01*
G01*
X16139500Y-7577000D02*
G75*
G03*
X16139500Y-7477000I0J50000D01*
G01*
D10*
X16269500Y-6997000D02*
X16369500Y-7097000D01*
X16369500Y-6997000D02*
X16269500Y-7097000D01*
X16319500Y-6997000D02*
X16319500Y-7097000D01*
X16269500Y-7047000D02*
X16369500Y-7047000D01*
D11*
X16269500Y-6917000D02*
X16269500Y-7177000D01*
X16369500Y-6917000D02*
X16369500Y-7177000D01*
X16269500Y-7177000D02*
G75*
G03*
X16369500Y-7177000I50000J0D01*
G01*
X16369500Y-6917000D02*
G75*
G03*
X16269500Y-6917000I-50000J0D01*
G01*
D18*
X8805000Y-2912750D02*
X8925000Y-3032750D01*
X8925000Y-2912750D02*
X8805000Y-3032750D01*
X8907427Y-3015177D02*
X8907427Y-2930323D01*
X8822573Y-2930323D01*
X8822573Y-3015177D01*
X8907427Y-3015177D01*
X9059000Y-2912750D02*
X9179000Y-3032750D01*
X9179000Y-2912750D02*
X9059000Y-3032750D01*
X9161427Y-3015177D02*
X9161427Y-2930323D01*
X9076573Y-2930323D01*
X9076573Y-3015177D01*
X9161427Y-3015177D01*
X9313000Y-2912750D02*
X9433000Y-3032750D01*
X9433000Y-2912750D02*
X9313000Y-3032750D01*
X9415427Y-3015177D02*
X9415427Y-2930323D01*
X9330573Y-2930323D01*
X9330573Y-3015177D01*
X9415427Y-3015177D01*
X9567000Y-2912750D02*
X9687000Y-3032750D01*
X9687000Y-2912750D02*
X9567000Y-3032750D01*
X9669427Y-3015177D02*
X9669427Y-2930323D01*
X9584573Y-2930323D01*
X9584573Y-3015177D01*
X9669427Y-3015177D01*
X9821000Y-2912750D02*
X9941000Y-3032750D01*
X9941000Y-2912750D02*
X9821000Y-3032750D01*
X9923427Y-3015177D02*
X9923427Y-2930323D01*
X9838573Y-2930323D01*
X9838573Y-3015177D01*
X9923427Y-3015177D01*
X10075000Y-2912750D02*
X10195000Y-3032750D01*
X10195000Y-2912750D02*
X10075000Y-3032750D01*
X10177427Y-3015177D02*
X10177427Y-2930323D01*
X10092573Y-2930323D01*
X10092573Y-3015177D01*
X10177427Y-3015177D01*
X10329000Y-2912750D02*
X10449000Y-3032750D01*
X10449000Y-2912750D02*
X10329000Y-3032750D01*
X10431427Y-3015177D02*
X10431427Y-2930323D01*
X10346573Y-2930323D01*
X10346573Y-3015177D01*
X10431427Y-3015177D01*
X10583000Y-2912750D02*
X10703000Y-3032750D01*
X10703000Y-2912750D02*
X10583000Y-3032750D01*
X10685427Y-3015177D02*
X10685427Y-2930323D01*
X10600573Y-2930323D01*
X10600573Y-3015177D01*
X10685427Y-3015177D01*
X10837000Y-2912750D02*
X10957000Y-3032750D01*
X10957000Y-2912750D02*
X10837000Y-3032750D01*
X10939427Y-3015177D02*
X10939427Y-2930323D01*
X10854573Y-2930323D01*
X10854573Y-3015177D01*
X10939427Y-3015177D01*
X11091000Y-2912750D02*
X11211000Y-3032750D01*
X11211000Y-2912750D02*
X11091000Y-3032750D01*
X11193427Y-3015177D02*
X11193427Y-2930323D01*
X11108573Y-2930323D01*
X11108573Y-3015177D01*
X11193427Y-3015177D01*
X11345000Y-2912750D02*
X11465000Y-3032750D01*
X11465000Y-2912750D02*
X11345000Y-3032750D01*
X11447427Y-3015177D02*
X11447427Y-2930323D01*
X11362573Y-2930323D01*
X11362573Y-3015177D01*
X11447427Y-3015177D01*
X11599000Y-2912750D02*
X11719000Y-3032750D01*
X11719000Y-2912750D02*
X11599000Y-3032750D01*
X11701427Y-3015177D02*
X11701427Y-2930323D01*
X11616573Y-2930323D01*
X11616573Y-3015177D01*
X11701427Y-3015177D01*
X11853000Y-2912750D02*
X11973000Y-3032750D01*
X11973000Y-2912750D02*
X11853000Y-3032750D01*
X11955427Y-3015177D02*
X11955427Y-2930323D01*
X11870573Y-2930323D01*
X11870573Y-3015177D01*
X11955427Y-3015177D01*
X12107000Y-2912750D02*
X12227000Y-3032750D01*
X12227000Y-2912750D02*
X12107000Y-3032750D01*
X12209427Y-3015177D02*
X12209427Y-2930323D01*
X12124573Y-2930323D01*
X12124573Y-3015177D01*
X12209427Y-3015177D01*
X12361000Y-2912750D02*
X12481000Y-3032750D01*
X12481000Y-2912750D02*
X12361000Y-3032750D01*
X12463427Y-3015177D02*
X12463427Y-2930323D01*
X12378573Y-2930323D01*
X12378573Y-3015177D01*
X12463427Y-3015177D01*
X12615000Y-2912750D02*
X12735000Y-3032750D01*
X12735000Y-2912750D02*
X12615000Y-3032750D01*
X12717427Y-3015177D02*
X12717427Y-2930323D01*
X12632573Y-2930323D01*
X12632573Y-3015177D01*
X12717427Y-3015177D01*
D19*
X8751500Y-9513500D02*
X8901500Y-9663500D01*
X8901500Y-9513500D02*
X8751500Y-9663500D01*
X8826500Y-9663500D02*
X8901500Y-9588500D01*
X8826500Y-9513500D01*
X8751500Y-9588500D01*
X8826500Y-9663500D01*
X8751500Y-11418500D02*
X8901500Y-11568500D01*
X8901500Y-11418500D02*
X8751500Y-11568500D01*
X8826500Y-11568500D02*
X8901500Y-11493500D01*
X8826500Y-11418500D01*
X8751500Y-11493500D01*
X8826500Y-11568500D01*
X8751500Y-13323500D02*
X8901500Y-13473500D01*
X8901500Y-13323500D02*
X8751500Y-13473500D01*
X8826500Y-13473500D02*
X8901500Y-13398500D01*
X8826500Y-13323500D01*
X8751500Y-13398500D01*
X8826500Y-13473500D01*
X8751500Y-15228500D02*
X8901500Y-15378500D01*
X8901500Y-15228500D02*
X8751500Y-15378500D01*
X8826500Y-15378500D02*
X8901500Y-15303500D01*
X8826500Y-15228500D01*
X8751500Y-15303500D01*
X8826500Y-15378500D01*
X8751500Y-17133500D02*
X8901500Y-17283500D01*
X8901500Y-17133500D02*
X8751500Y-17283500D01*
X8826500Y-17283500D02*
X8901500Y-17208500D01*
X8826500Y-17133500D01*
X8751500Y-17208500D01*
X8826500Y-17283500D01*
X9386500Y-9259500D02*
X9536500Y-9409500D01*
X9536500Y-9259500D02*
X9386500Y-9409500D01*
X9461500Y-9409500D02*
X9536500Y-9334500D01*
X9461500Y-9259500D01*
X9386500Y-9334500D01*
X9461500Y-9409500D01*
X9386500Y-11164500D02*
X9536500Y-11314500D01*
X9536500Y-11164500D02*
X9386500Y-11314500D01*
X9461500Y-11314500D02*
X9536500Y-11239500D01*
X9461500Y-11164500D01*
X9386500Y-11239500D01*
X9461500Y-11314500D01*
X9386500Y-13069500D02*
X9536500Y-13219500D01*
X9536500Y-13069500D02*
X9386500Y-13219500D01*
X9461500Y-13219500D02*
X9536500Y-13144500D01*
X9461500Y-13069500D01*
X9386500Y-13144500D01*
X9461500Y-13219500D01*
X9386500Y-14974500D02*
X9536500Y-15124500D01*
X9536500Y-14974500D02*
X9386500Y-15124500D01*
X9461500Y-15124500D02*
X9536500Y-15049500D01*
X9461500Y-14974500D01*
X9386500Y-15049500D01*
X9461500Y-15124500D01*
X9386500Y-16879500D02*
X9536500Y-17029500D01*
X9536500Y-16879500D02*
X9386500Y-17029500D01*
X9461500Y-17029500D02*
X9536500Y-16954500D01*
X9461500Y-16879500D01*
X9386500Y-16954500D01*
X9461500Y-17029500D01*
X10656500Y-9513500D02*
X10806500Y-9663500D01*
X10806500Y-9513500D02*
X10656500Y-9663500D01*
X10731500Y-9663500D02*
X10806500Y-9588500D01*
X10731500Y-9513500D01*
X10656500Y-9588500D01*
X10731500Y-9663500D01*
X10656500Y-11418500D02*
X10806500Y-11568500D01*
X10806500Y-11418500D02*
X10656500Y-11568500D01*
X10731500Y-11568500D02*
X10806500Y-11493500D01*
X10731500Y-11418500D01*
X10656500Y-11493500D01*
X10731500Y-11568500D01*
X10656500Y-13323500D02*
X10806500Y-13473500D01*
X10806500Y-13323500D02*
X10656500Y-13473500D01*
X10731500Y-13473500D02*
X10806500Y-13398500D01*
X10731500Y-13323500D01*
X10656500Y-13398500D01*
X10731500Y-13473500D01*
X10656500Y-15228500D02*
X10806500Y-15378500D01*
X10806500Y-15228500D02*
X10656500Y-15378500D01*
X10731500Y-15378500D02*
X10806500Y-15303500D01*
X10731500Y-15228500D01*
X10656500Y-15303500D01*
X10731500Y-15378500D01*
X10656500Y-17133500D02*
X10806500Y-17283500D01*
X10806500Y-17133500D02*
X10656500Y-17283500D01*
X10731500Y-17283500D02*
X10806500Y-17208500D01*
X10731500Y-17133500D01*
X10656500Y-17208500D01*
X10731500Y-17283500D01*
X11291500Y-9259500D02*
X11441500Y-9409500D01*
X11441500Y-9259500D02*
X11291500Y-9409500D01*
X11366500Y-9409500D02*
X11441500Y-9334500D01*
X11366500Y-9259500D01*
X11291500Y-9334500D01*
X11366500Y-9409500D01*
X11291500Y-11164500D02*
X11441500Y-11314500D01*
X11441500Y-11164500D02*
X11291500Y-11314500D01*
X11366500Y-11314500D02*
X11441500Y-11239500D01*
X11366500Y-11164500D01*
X11291500Y-11239500D01*
X11366500Y-11314500D01*
X11291500Y-13069500D02*
X11441500Y-13219500D01*
X11441500Y-13069500D02*
X11291500Y-13219500D01*
X11366500Y-13219500D02*
X11441500Y-13144500D01*
X11366500Y-13069500D01*
X11291500Y-13144500D01*
X11366500Y-13219500D01*
X11291500Y-14974500D02*
X11441500Y-15124500D01*
X11441500Y-14974500D02*
X11291500Y-15124500D01*
X11366500Y-15124500D02*
X11441500Y-15049500D01*
X11366500Y-14974500D01*
X11291500Y-15049500D01*
X11366500Y-15124500D01*
X11291500Y-16879500D02*
X11441500Y-17029500D01*
X11441500Y-16879500D02*
X11291500Y-17029500D01*
X11366500Y-17029500D02*
X11441500Y-16954500D01*
X11366500Y-16879500D01*
X11291500Y-16954500D01*
X11366500Y-17029500D01*
X12561500Y-9513500D02*
X12711500Y-9663500D01*
X12711500Y-9513500D02*
X12561500Y-9663500D01*
X12636500Y-9663500D02*
X12711500Y-9588500D01*
X12636500Y-9513500D01*
X12561500Y-9588500D01*
X12636500Y-9663500D01*
X12561500Y-11418500D02*
X12711500Y-11568500D01*
X12711500Y-11418500D02*
X12561500Y-11568500D01*
X12636500Y-11568500D02*
X12711500Y-11493500D01*
X12636500Y-11418500D01*
X12561500Y-11493500D01*
X12636500Y-11568500D01*
X12561500Y-13323500D02*
X12711500Y-13473500D01*
X12711500Y-13323500D02*
X12561500Y-13473500D01*
X12636500Y-13473500D02*
X12711500Y-13398500D01*
X12636500Y-13323500D01*
X12561500Y-13398500D01*
X12636500Y-13473500D01*
X12561500Y-15228500D02*
X12711500Y-15378500D01*
X12711500Y-15228500D02*
X12561500Y-15378500D01*
X12636500Y-15378500D02*
X12711500Y-15303500D01*
X12636500Y-15228500D01*
X12561500Y-15303500D01*
X12636500Y-15378500D01*
X12561500Y-17133500D02*
X12711500Y-17283500D01*
X12711500Y-17133500D02*
X12561500Y-17283500D01*
X12636500Y-17283500D02*
X12711500Y-17208500D01*
X12636500Y-17133500D01*
X12561500Y-17208500D01*
X12636500Y-17283500D01*
X13196500Y-9259500D02*
X13346500Y-9409500D01*
X13346500Y-9259500D02*
X13196500Y-9409500D01*
X13271500Y-9409500D02*
X13346500Y-9334500D01*
X13271500Y-9259500D01*
X13196500Y-9334500D01*
X13271500Y-9409500D01*
X13196500Y-11164500D02*
X13346500Y-11314500D01*
X13346500Y-11164500D02*
X13196500Y-11314500D01*
X13271500Y-11314500D02*
X13346500Y-11239500D01*
X13271500Y-11164500D01*
X13196500Y-11239500D01*
X13271500Y-11314500D01*
X13196500Y-13069500D02*
X13346500Y-13219500D01*
X13346500Y-13069500D02*
X13196500Y-13219500D01*
X13271500Y-13219500D02*
X13346500Y-13144500D01*
X13271500Y-13069500D01*
X13196500Y-13144500D01*
X13271500Y-13219500D01*
X13196500Y-14974500D02*
X13346500Y-15124500D01*
X13346500Y-14974500D02*
X13196500Y-15124500D01*
X13271500Y-15124500D02*
X13346500Y-15049500D01*
X13271500Y-14974500D01*
X13196500Y-15049500D01*
X13271500Y-15124500D01*
X13196500Y-16879500D02*
X13346500Y-17029500D01*
X13346500Y-16879500D02*
X13196500Y-17029500D01*
X13271500Y-17029500D02*
X13346500Y-16954500D01*
X13271500Y-16879500D01*
X13196500Y-16954500D01*
X13271500Y-17029500D01*
X14466500Y-9513500D02*
X14616500Y-9663500D01*
X14616500Y-9513500D02*
X14466500Y-9663500D01*
X14541500Y-9663500D02*
X14616500Y-9588500D01*
X14541500Y-9513500D01*
X14466500Y-9588500D01*
X14541500Y-9663500D01*
X14466500Y-11418500D02*
X14616500Y-11568500D01*
X14616500Y-11418500D02*
X14466500Y-11568500D01*
X14541500Y-11568500D02*
X14616500Y-11493500D01*
X14541500Y-11418500D01*
X14466500Y-11493500D01*
X14541500Y-11568500D01*
X14466500Y-13323500D02*
X14616500Y-13473500D01*
X14616500Y-13323500D02*
X14466500Y-13473500D01*
X14541500Y-13473500D02*
X14616500Y-13398500D01*
X14541500Y-13323500D01*
X14466500Y-13398500D01*
X14541500Y-13473500D01*
X14466500Y-15228500D02*
X14616500Y-15378500D01*
X14616500Y-15228500D02*
X14466500Y-15378500D01*
X14541500Y-15378500D02*
X14616500Y-15303500D01*
X14541500Y-15228500D01*
X14466500Y-15303500D01*
X14541500Y-15378500D01*
X14466500Y-17133500D02*
X14616500Y-17283500D01*
X14616500Y-17133500D02*
X14466500Y-17283500D01*
X14541500Y-17283500D02*
X14616500Y-17208500D01*
X14541500Y-17133500D01*
X14466500Y-17208500D01*
X14541500Y-17283500D01*
X15101500Y-9259500D02*
X15251500Y-9409500D01*
X15251500Y-9259500D02*
X15101500Y-9409500D01*
X15176500Y-9409500D02*
X15251500Y-9334500D01*
X15176500Y-9259500D01*
X15101500Y-9334500D01*
X15176500Y-9409500D01*
X15101500Y-11164500D02*
X15251500Y-11314500D01*
X15251500Y-11164500D02*
X15101500Y-11314500D01*
X15176500Y-11314500D02*
X15251500Y-11239500D01*
X15176500Y-11164500D01*
X15101500Y-11239500D01*
X15176500Y-11314500D01*
X15101500Y-13069500D02*
X15251500Y-13219500D01*
X15251500Y-13069500D02*
X15101500Y-13219500D01*
X15176500Y-13219500D02*
X15251500Y-13144500D01*
X15176500Y-13069500D01*
X15101500Y-13144500D01*
X15176500Y-13219500D01*
X15101500Y-14974500D02*
X15251500Y-15124500D01*
X15251500Y-14974500D02*
X15101500Y-15124500D01*
X15176500Y-15124500D02*
X15251500Y-15049500D01*
X15176500Y-14974500D01*
X15101500Y-15049500D01*
X15176500Y-15124500D01*
X15101500Y-16879500D02*
X15251500Y-17029500D01*
X15251500Y-16879500D02*
X15101500Y-17029500D01*
X15176500Y-17029500D02*
X15251500Y-16954500D01*
X15176500Y-16879500D01*
X15101500Y-16954500D01*
X15176500Y-17029500D01*
D20*
X7937500Y-18607500D02*
X7937500Y-18857500D01*
X7812500Y-18732500D02*
X8062500Y-18732500D01*
X8062500Y-18732500D02*
G75*
G03*
X8062500Y-18732500I-125000J0D01*
G01*
X8315090Y-2847750D02*
X8315090Y-3097750D01*
X8190090Y-2972750D02*
X8440090Y-2972750D01*
X8440090Y-2972750D02*
G75*
G03*
X8440090Y-2972750I-125000J0D01*
G01*
X8315090Y-5947820D02*
X8315090Y-6197820D01*
X8190090Y-6072820D02*
X8440090Y-6072820D01*
X8440090Y-6072820D02*
G75*
G03*
X8440090Y-6072820I-125000J0D01*
G01*
X15814948Y-5947820D02*
X15814948Y-6197820D01*
X15689948Y-6072820D02*
X15939948Y-6072820D01*
X15939948Y-6072820D02*
G75*
G03*
X15939948Y-6072820I-125000J0D01*
G01*
X15815000Y-2847750D02*
X15815000Y-3097750D01*
X15690000Y-2972750D02*
X15940000Y-2972750D01*
X15940000Y-2972750D02*
G75*
G03*
X15940000Y-2972750I-125000J0D01*
G01*
X16192500Y-18607500D02*
X16192500Y-18857500D01*
X16067500Y-18732500D02*
X16317500Y-18732500D01*
X16317500Y-18732500D02*
G75*
G03*
X16317500Y-18732500I-125000J0D01*
G01*
D11*
X7880323Y-19360312D02*
X7880323Y-19160312D01*
X7927942Y-19160312D01*
X7956513Y-19169836D01*
X7975561Y-19188884D01*
X7985085Y-19207931D01*
X7994608Y-19246027D01*
X7994608Y-19274598D01*
X7985085Y-19312693D01*
X7975561Y-19331741D01*
X7956513Y-19350789D01*
X7927942Y-19360312D01*
X7880323Y-19360312D01*
X8080323Y-19360312D02*
X8080323Y-19226979D01*
X8080323Y-19265074D02*
X8089847Y-19246027D01*
X8099370Y-19236503D01*
X8118418Y-19226979D01*
X8137466Y-19226979D01*
X8204132Y-19360312D02*
X8204132Y-19226979D01*
X8204132Y-19160312D02*
X8194608Y-19169836D01*
X8204132Y-19179360D01*
X8213656Y-19169836D01*
X8204132Y-19160312D01*
X8204132Y-19179360D01*
X8327942Y-19360312D02*
X8308894Y-19350789D01*
X8299370Y-19331741D01*
X8299370Y-19160312D01*
X8432704Y-19360312D02*
X8413656Y-19350789D01*
X8404132Y-19331741D01*
X8404132Y-19160312D01*
X8661275Y-19360312D02*
X8661275Y-19160312D01*
X8727942Y-19303170D01*
X8794609Y-19160312D01*
X8794609Y-19360312D01*
X8975561Y-19360312D02*
X8975561Y-19255550D01*
X8966037Y-19236503D01*
X8946990Y-19226979D01*
X8908894Y-19226979D01*
X8889847Y-19236503D01*
X8975561Y-19350789D02*
X8956513Y-19360312D01*
X8908894Y-19360312D01*
X8889847Y-19350789D01*
X8880323Y-19331741D01*
X8880323Y-19312693D01*
X8889847Y-19293646D01*
X8908894Y-19284122D01*
X8956513Y-19284122D01*
X8975561Y-19274598D01*
X9070799Y-19226979D02*
X9070799Y-19426979D01*
X9070799Y-19236503D02*
X9089847Y-19226979D01*
X9127942Y-19226979D01*
X9146990Y-19236503D01*
X9156513Y-19246027D01*
X9166037Y-19265074D01*
X9166037Y-19322217D01*
X9156513Y-19341265D01*
X9146990Y-19350789D01*
X9127942Y-19360312D01*
X9089847Y-19360312D01*
X9070799Y-19350789D01*
X9251751Y-19341265D02*
X9261275Y-19350789D01*
X9251751Y-19360312D01*
X9242228Y-19350789D01*
X9251751Y-19341265D01*
X9251751Y-19360312D01*
X9251751Y-19236503D02*
X9261275Y-19246027D01*
X9251751Y-19255550D01*
X9242228Y-19246027D01*
X9251751Y-19236503D01*
X9251751Y-19255550D01*
D12*
X7582704Y-19669836D02*
X7622704Y-19709836D01*
X7622704Y-19669836D02*
X7582704Y-19709836D01*
D11*
X7918418Y-19580312D02*
X7937466Y-19580312D01*
X7956513Y-19589836D01*
X7966037Y-19599360D01*
X7975561Y-19618408D01*
X7985085Y-19656503D01*
X7985085Y-19704122D01*
X7975561Y-19742217D01*
X7966037Y-19761265D01*
X7956513Y-19770789D01*
X7937466Y-19780312D01*
X7918418Y-19780312D01*
X7899370Y-19770789D01*
X7889847Y-19761265D01*
X7880323Y-19742217D01*
X7870799Y-19704122D01*
X7870799Y-19656503D01*
X7880323Y-19618408D01*
X7889847Y-19599360D01*
X7899370Y-19589836D01*
X7918418Y-19580312D01*
X8070799Y-19761265D02*
X8080323Y-19770789D01*
X8070799Y-19780312D01*
X8061275Y-19770789D01*
X8070799Y-19761265D01*
X8070799Y-19780312D01*
X8251751Y-19646979D02*
X8251751Y-19780312D01*
X8204132Y-19570789D02*
X8156513Y-19713646D01*
X8280323Y-19713646D01*
X8394609Y-19580312D02*
X8413656Y-19580312D01*
X8432704Y-19589836D01*
X8442228Y-19599360D01*
X8451751Y-19618408D01*
X8461275Y-19656503D01*
X8461275Y-19704122D01*
X8451751Y-19742217D01*
X8442228Y-19761265D01*
X8432704Y-19770789D01*
X8413656Y-19780312D01*
X8394609Y-19780312D01*
X8375561Y-19770789D01*
X8366037Y-19761265D01*
X8356513Y-19742217D01*
X8346989Y-19704122D01*
X8346989Y-19656503D01*
X8356513Y-19618408D01*
X8366037Y-19599360D01*
X8375561Y-19589836D01*
X8394609Y-19580312D01*
X8585085Y-19580312D02*
X8604132Y-19580312D01*
X8623180Y-19589836D01*
X8632704Y-19599360D01*
X8642228Y-19618408D01*
X8651751Y-19656503D01*
X8651751Y-19704122D01*
X8642228Y-19742217D01*
X8632704Y-19761265D01*
X8623180Y-19770789D01*
X8604132Y-19780312D01*
X8585085Y-19780312D01*
X8566037Y-19770789D01*
X8556513Y-19761265D01*
X8546990Y-19742217D01*
X8537466Y-19704122D01*
X8537466Y-19656503D01*
X8546990Y-19618408D01*
X8556513Y-19599360D01*
X8566037Y-19589836D01*
X8585085Y-19580312D01*
X8737466Y-19780312D02*
X8737466Y-19646979D01*
X8737466Y-19666027D02*
X8746990Y-19656503D01*
X8766037Y-19646979D01*
X8794609Y-19646979D01*
X8813656Y-19656503D01*
X8823180Y-19675550D01*
X8823180Y-19780312D01*
X8823180Y-19675550D02*
X8832704Y-19656503D01*
X8851751Y-19646979D01*
X8880323Y-19646979D01*
X8899370Y-19656503D01*
X8908894Y-19675550D01*
X8908894Y-19780312D01*
X9004132Y-19780312D02*
X9004132Y-19646979D01*
X9004132Y-19666027D02*
X9013656Y-19656503D01*
X9032704Y-19646979D01*
X9061275Y-19646979D01*
X9080323Y-19656503D01*
X9089847Y-19675550D01*
X9089847Y-19780312D01*
X9089847Y-19675550D02*
X9099370Y-19656503D01*
X9118418Y-19646979D01*
X9146990Y-19646979D01*
X9166037Y-19656503D01*
X9175561Y-19675550D01*
X9175561Y-19780312D01*
X9566037Y-19570789D02*
X9394609Y-19827931D01*
X9823180Y-19580312D02*
X9842228Y-19580312D01*
X9861275Y-19589836D01*
X9870799Y-19599360D01*
X9880323Y-19618408D01*
X9889847Y-19656503D01*
X9889847Y-19704122D01*
X9880323Y-19742217D01*
X9870799Y-19761265D01*
X9861275Y-19770789D01*
X9842228Y-19780312D01*
X9823180Y-19780312D01*
X9804132Y-19770789D01*
X9794609Y-19761265D01*
X9785085Y-19742217D01*
X9775561Y-19704122D01*
X9775561Y-19656503D01*
X9785085Y-19618408D01*
X9794609Y-19599360D01*
X9804132Y-19589836D01*
X9823180Y-19580312D01*
X9975561Y-19761265D02*
X9985085Y-19770789D01*
X9975561Y-19780312D01*
X9966037Y-19770789D01*
X9975561Y-19761265D01*
X9975561Y-19780312D01*
X10108894Y-19580312D02*
X10127942Y-19580312D01*
X10146990Y-19589836D01*
X10156513Y-19599360D01*
X10166037Y-19618408D01*
X10175561Y-19656503D01*
X10175561Y-19704122D01*
X10166037Y-19742217D01*
X10156513Y-19761265D01*
X10146990Y-19770789D01*
X10127942Y-19780312D01*
X10108894Y-19780312D01*
X10089847Y-19770789D01*
X10080323Y-19761265D01*
X10070799Y-19742217D01*
X10061275Y-19704122D01*
X10061275Y-19656503D01*
X10070799Y-19618408D01*
X10080323Y-19599360D01*
X10089847Y-19589836D01*
X10108894Y-19580312D01*
X10366037Y-19780312D02*
X10251751Y-19780312D01*
X10308894Y-19780312D02*
X10308894Y-19580312D01*
X10289847Y-19608884D01*
X10270799Y-19627931D01*
X10251751Y-19637455D01*
X10546990Y-19580312D02*
X10451751Y-19580312D01*
X10442228Y-19675550D01*
X10451751Y-19666027D01*
X10470799Y-19656503D01*
X10518418Y-19656503D01*
X10537466Y-19666027D01*
X10546990Y-19675550D01*
X10556513Y-19694598D01*
X10556513Y-19742217D01*
X10546990Y-19761265D01*
X10537466Y-19770789D01*
X10518418Y-19780312D01*
X10470799Y-19780312D01*
X10451751Y-19770789D01*
X10442228Y-19761265D01*
X10623180Y-19580312D02*
X10756513Y-19580312D01*
X10670799Y-19780312D01*
X10823180Y-19580312D02*
X10823180Y-19618408D01*
X10899370Y-19580312D02*
X10899370Y-19618408D01*
X11194608Y-19856503D02*
X11185085Y-19846979D01*
X11166037Y-19818408D01*
X11156513Y-19799360D01*
X11146990Y-19770789D01*
X11137466Y-19723170D01*
X11137466Y-19685074D01*
X11146990Y-19637455D01*
X11156513Y-19608884D01*
X11166037Y-19589836D01*
X11185085Y-19561265D01*
X11194608Y-19551741D01*
X11356513Y-19646979D02*
X11356513Y-19780312D01*
X11308894Y-19570789D02*
X11261275Y-19713646D01*
X11385085Y-19713646D01*
X11613656Y-19780312D02*
X11613656Y-19580312D01*
X11699370Y-19780312D02*
X11699370Y-19675550D01*
X11689847Y-19656503D01*
X11670799Y-19646979D01*
X11642228Y-19646979D01*
X11623180Y-19656503D01*
X11613656Y-19666027D01*
X11823180Y-19780312D02*
X11804132Y-19770789D01*
X11794608Y-19761265D01*
X11785085Y-19742217D01*
X11785085Y-19685074D01*
X11794608Y-19666027D01*
X11804132Y-19656503D01*
X11823180Y-19646979D01*
X11851751Y-19646979D01*
X11870799Y-19656503D01*
X11880323Y-19666027D01*
X11889847Y-19685074D01*
X11889847Y-19742217D01*
X11880323Y-19761265D01*
X11870799Y-19770789D01*
X11851751Y-19780312D01*
X11823180Y-19780312D01*
X12004132Y-19780312D02*
X11985085Y-19770789D01*
X11975561Y-19751741D01*
X11975561Y-19580312D01*
X12156513Y-19770789D02*
X12137466Y-19780312D01*
X12099370Y-19780312D01*
X12080323Y-19770789D01*
X12070799Y-19751741D01*
X12070799Y-19675550D01*
X12080323Y-19656503D01*
X12099370Y-19646979D01*
X12137466Y-19646979D01*
X12156513Y-19656503D01*
X12166037Y-19675550D01*
X12166037Y-19694598D01*
X12070799Y-19713646D01*
X12242228Y-19770789D02*
X12261275Y-19780312D01*
X12299370Y-19780312D01*
X12318418Y-19770789D01*
X12327942Y-19751741D01*
X12327942Y-19742217D01*
X12318418Y-19723170D01*
X12299370Y-19713646D01*
X12270799Y-19713646D01*
X12251751Y-19704122D01*
X12242228Y-19685074D01*
X12242228Y-19675550D01*
X12251751Y-19656503D01*
X12270799Y-19646979D01*
X12299370Y-19646979D01*
X12318418Y-19656503D01*
X12394608Y-19856503D02*
X12404132Y-19846979D01*
X12423180Y-19818408D01*
X12432704Y-19799360D01*
X12442228Y-19770789D01*
X12451751Y-19723170D01*
X12451751Y-19685074D01*
X12442228Y-19637455D01*
X12432704Y-19608884D01*
X12423180Y-19589836D01*
X12404132Y-19561265D01*
X12394608Y-19551741D01*
D13*
X7622704Y-19953836D02*
G75*
G03*
X7622704Y-19953836I-25000J0D01*
G01*
D11*
X7918418Y-19844312D02*
X7937466Y-19844312D01*
X7956513Y-19853836D01*
X7966037Y-19863360D01*
X7975561Y-19882408D01*
X7985085Y-19920503D01*
X7985085Y-19968122D01*
X7975561Y-20006217D01*
X7966037Y-20025265D01*
X7956513Y-20034789D01*
X7937466Y-20044312D01*
X7918418Y-20044312D01*
X7899370Y-20034789D01*
X7889847Y-20025265D01*
X7880323Y-20006217D01*
X7870799Y-19968122D01*
X7870799Y-19920503D01*
X7880323Y-19882408D01*
X7889847Y-19863360D01*
X7899370Y-19853836D01*
X7918418Y-19844312D01*
X8070799Y-20025265D02*
X8080323Y-20034789D01*
X8070799Y-20044312D01*
X8061275Y-20034789D01*
X8070799Y-20025265D01*
X8070799Y-20044312D01*
X8261275Y-19844312D02*
X8166037Y-19844312D01*
X8156513Y-19939550D01*
X8166037Y-19930027D01*
X8185085Y-19920503D01*
X8232704Y-19920503D01*
X8251751Y-19930027D01*
X8261275Y-19939550D01*
X8270799Y-19958598D01*
X8270799Y-20006217D01*
X8261275Y-20025265D01*
X8251751Y-20034789D01*
X8232704Y-20044312D01*
X8185085Y-20044312D01*
X8166037Y-20034789D01*
X8156513Y-20025265D01*
X8394609Y-19844312D02*
X8413656Y-19844312D01*
X8432704Y-19853836D01*
X8442228Y-19863360D01*
X8451751Y-19882408D01*
X8461275Y-19920503D01*
X8461275Y-19968122D01*
X8451751Y-20006217D01*
X8442228Y-20025265D01*
X8432704Y-20034789D01*
X8413656Y-20044312D01*
X8394609Y-20044312D01*
X8375561Y-20034789D01*
X8366037Y-20025265D01*
X8356513Y-20006217D01*
X8346989Y-19968122D01*
X8346989Y-19920503D01*
X8356513Y-19882408D01*
X8366037Y-19863360D01*
X8375561Y-19853836D01*
X8394609Y-19844312D01*
X8585085Y-19844312D02*
X8604132Y-19844312D01*
X8623180Y-19853836D01*
X8632704Y-19863360D01*
X8642228Y-19882408D01*
X8651751Y-19920503D01*
X8651751Y-19968122D01*
X8642228Y-20006217D01*
X8632704Y-20025265D01*
X8623180Y-20034789D01*
X8604132Y-20044312D01*
X8585085Y-20044312D01*
X8566037Y-20034789D01*
X8556513Y-20025265D01*
X8546990Y-20006217D01*
X8537466Y-19968122D01*
X8537466Y-19920503D01*
X8546990Y-19882408D01*
X8556513Y-19863360D01*
X8566037Y-19853836D01*
X8585085Y-19844312D01*
X8737466Y-20044312D02*
X8737466Y-19910979D01*
X8737466Y-19930027D02*
X8746990Y-19920503D01*
X8766037Y-19910979D01*
X8794609Y-19910979D01*
X8813656Y-19920503D01*
X8823180Y-19939550D01*
X8823180Y-20044312D01*
X8823180Y-19939550D02*
X8832704Y-19920503D01*
X8851751Y-19910979D01*
X8880323Y-19910979D01*
X8899370Y-19920503D01*
X8908894Y-19939550D01*
X8908894Y-20044312D01*
X9004132Y-20044312D02*
X9004132Y-19910979D01*
X9004132Y-19930027D02*
X9013656Y-19920503D01*
X9032704Y-19910979D01*
X9061275Y-19910979D01*
X9080323Y-19920503D01*
X9089847Y-19939550D01*
X9089847Y-20044312D01*
X9089847Y-19939550D02*
X9099370Y-19920503D01*
X9118418Y-19910979D01*
X9146990Y-19910979D01*
X9166037Y-19920503D01*
X9175561Y-19939550D01*
X9175561Y-20044312D01*
X9566037Y-19834789D02*
X9394609Y-20091931D01*
X9823180Y-19844312D02*
X9842228Y-19844312D01*
X9861275Y-19853836D01*
X9870799Y-19863360D01*
X9880323Y-19882408D01*
X9889847Y-19920503D01*
X9889847Y-19968122D01*
X9880323Y-20006217D01*
X9870799Y-20025265D01*
X9861275Y-20034789D01*
X9842228Y-20044312D01*
X9823180Y-20044312D01*
X9804132Y-20034789D01*
X9794609Y-20025265D01*
X9785085Y-20006217D01*
X9775561Y-19968122D01*
X9775561Y-19920503D01*
X9785085Y-19882408D01*
X9794609Y-19863360D01*
X9804132Y-19853836D01*
X9823180Y-19844312D01*
X9975561Y-20025265D02*
X9985085Y-20034789D01*
X9975561Y-20044312D01*
X9966037Y-20034789D01*
X9975561Y-20025265D01*
X9975561Y-20044312D01*
X10108894Y-19844312D02*
X10127942Y-19844312D01*
X10146990Y-19853836D01*
X10156513Y-19863360D01*
X10166037Y-19882408D01*
X10175561Y-19920503D01*
X10175561Y-19968122D01*
X10166037Y-20006217D01*
X10156513Y-20025265D01*
X10146990Y-20034789D01*
X10127942Y-20044312D01*
X10108894Y-20044312D01*
X10089847Y-20034789D01*
X10080323Y-20025265D01*
X10070799Y-20006217D01*
X10061275Y-19968122D01*
X10061275Y-19920503D01*
X10070799Y-19882408D01*
X10080323Y-19863360D01*
X10089847Y-19853836D01*
X10108894Y-19844312D01*
X10366037Y-20044312D02*
X10251751Y-20044312D01*
X10308894Y-20044312D02*
X10308894Y-19844312D01*
X10289847Y-19872884D01*
X10270799Y-19891931D01*
X10251751Y-19901455D01*
X10461275Y-20044312D02*
X10499370Y-20044312D01*
X10518418Y-20034789D01*
X10527942Y-20025265D01*
X10546990Y-19996693D01*
X10556513Y-19958598D01*
X10556513Y-19882408D01*
X10546990Y-19863360D01*
X10537466Y-19853836D01*
X10518418Y-19844312D01*
X10480323Y-19844312D01*
X10461275Y-19853836D01*
X10451751Y-19863360D01*
X10442228Y-19882408D01*
X10442228Y-19930027D01*
X10451751Y-19949074D01*
X10461275Y-19958598D01*
X10480323Y-19968122D01*
X10518418Y-19968122D01*
X10537466Y-19958598D01*
X10546990Y-19949074D01*
X10556513Y-19930027D01*
X10623180Y-19844312D02*
X10756513Y-19844312D01*
X10670799Y-20044312D01*
X10823180Y-19844312D02*
X10823180Y-19882408D01*
X10899370Y-19844312D02*
X10899370Y-19882408D01*
X11194608Y-20120503D02*
X11185085Y-20110979D01*
X11166037Y-20082408D01*
X11156513Y-20063360D01*
X11146990Y-20034789D01*
X11137466Y-19987170D01*
X11137466Y-19949074D01*
X11146990Y-19901455D01*
X11156513Y-19872884D01*
X11166037Y-19853836D01*
X11185085Y-19825265D01*
X11194608Y-19815741D01*
X11308894Y-19844312D02*
X11327942Y-19844312D01*
X11346989Y-19853836D01*
X11356513Y-19863360D01*
X11366037Y-19882408D01*
X11375561Y-19920503D01*
X11375561Y-19968122D01*
X11366037Y-20006217D01*
X11356513Y-20025265D01*
X11346989Y-20034789D01*
X11327942Y-20044312D01*
X11308894Y-20044312D01*
X11289847Y-20034789D01*
X11280323Y-20025265D01*
X11270799Y-20006217D01*
X11261275Y-19968122D01*
X11261275Y-19920503D01*
X11270799Y-19882408D01*
X11280323Y-19863360D01*
X11289847Y-19853836D01*
X11308894Y-19844312D01*
X11613656Y-20044312D02*
X11613656Y-19844312D01*
X11699370Y-20044312D02*
X11699370Y-19939550D01*
X11689847Y-19920503D01*
X11670799Y-19910979D01*
X11642228Y-19910979D01*
X11623180Y-19920503D01*
X11613656Y-19930027D01*
X11823180Y-20044312D02*
X11804132Y-20034789D01*
X11794608Y-20025265D01*
X11785085Y-20006217D01*
X11785085Y-19949074D01*
X11794608Y-19930027D01*
X11804132Y-19920503D01*
X11823180Y-19910979D01*
X11851751Y-19910979D01*
X11870799Y-19920503D01*
X11880323Y-19930027D01*
X11889847Y-19949074D01*
X11889847Y-20006217D01*
X11880323Y-20025265D01*
X11870799Y-20034789D01*
X11851751Y-20044312D01*
X11823180Y-20044312D01*
X12004132Y-20044312D02*
X11985085Y-20034789D01*
X11975561Y-20015741D01*
X11975561Y-19844312D01*
X12156513Y-20034789D02*
X12137466Y-20044312D01*
X12099370Y-20044312D01*
X12080323Y-20034789D01*
X12070799Y-20015741D01*
X12070799Y-19939550D01*
X12080323Y-19920503D01*
X12099370Y-19910979D01*
X12137466Y-19910979D01*
X12156513Y-19920503D01*
X12166037Y-19939550D01*
X12166037Y-19958598D01*
X12070799Y-19977646D01*
X12242228Y-20034789D02*
X12261275Y-20044312D01*
X12299370Y-20044312D01*
X12318418Y-20034789D01*
X12327942Y-20015741D01*
X12327942Y-20006217D01*
X12318418Y-19987170D01*
X12299370Y-19977646D01*
X12270799Y-19977646D01*
X12251751Y-19968122D01*
X12242228Y-19949074D01*
X12242228Y-19939550D01*
X12251751Y-19920503D01*
X12270799Y-19910979D01*
X12299370Y-19910979D01*
X12318418Y-19920503D01*
X12566037Y-19968122D02*
X12718418Y-19968122D01*
X12642228Y-20044312D02*
X12642228Y-19891931D01*
X12956513Y-19863360D02*
X12966037Y-19853836D01*
X12985085Y-19844312D01*
X13032704Y-19844312D01*
X13051751Y-19853836D01*
X13061275Y-19863360D01*
X13070799Y-19882408D01*
X13070799Y-19901455D01*
X13061275Y-19930027D01*
X12946989Y-20044312D01*
X13070799Y-20044312D01*
X13299370Y-20034789D02*
X13318418Y-20044312D01*
X13356513Y-20044312D01*
X13375561Y-20034789D01*
X13385085Y-20015741D01*
X13385085Y-20006217D01*
X13375561Y-19987170D01*
X13356513Y-19977646D01*
X13327942Y-19977646D01*
X13308894Y-19968122D01*
X13299370Y-19949074D01*
X13299370Y-19939550D01*
X13308894Y-19920503D01*
X13327942Y-19910979D01*
X13356513Y-19910979D01*
X13375561Y-19920503D01*
X13499370Y-20044312D02*
X13480323Y-20034789D01*
X13470799Y-20015741D01*
X13470799Y-19844312D01*
X13604132Y-20044312D02*
X13585085Y-20034789D01*
X13575561Y-20025265D01*
X13566037Y-20006217D01*
X13566037Y-19949074D01*
X13575561Y-19930027D01*
X13585085Y-19920503D01*
X13604132Y-19910979D01*
X13632704Y-19910979D01*
X13651751Y-19920503D01*
X13661275Y-19930027D01*
X13670799Y-19949074D01*
X13670799Y-20006217D01*
X13661275Y-20025265D01*
X13651751Y-20034789D01*
X13632704Y-20044312D01*
X13604132Y-20044312D01*
X13727942Y-19910979D02*
X13804132Y-19910979D01*
X13756513Y-19844312D02*
X13756513Y-20015741D01*
X13766037Y-20034789D01*
X13785085Y-20044312D01*
X13804132Y-20044312D01*
X13861275Y-20034789D02*
X13880323Y-20044312D01*
X13918418Y-20044312D01*
X13937466Y-20034789D01*
X13946989Y-20015741D01*
X13946989Y-20006217D01*
X13937466Y-19987170D01*
X13918418Y-19977646D01*
X13889847Y-19977646D01*
X13870799Y-19968122D01*
X13861275Y-19949074D01*
X13861275Y-19939550D01*
X13870799Y-19920503D01*
X13889847Y-19910979D01*
X13918418Y-19910979D01*
X13937466Y-19920503D01*
X14013656Y-20120503D02*
X14023180Y-20110979D01*
X14042228Y-20082408D01*
X14051751Y-20063360D01*
X14061275Y-20034789D01*
X14070799Y-19987170D01*
X14070799Y-19949074D01*
X14061275Y-19901455D01*
X14051751Y-19872884D01*
X14042228Y-19853836D01*
X14023180Y-19825265D01*
X14013656Y-19815741D01*
D14*
X7595204Y-20190336D02*
X7595204Y-20245336D01*
X7567704Y-20217836D02*
X7622704Y-20217836D01*
D11*
X7918418Y-20108312D02*
X7937466Y-20108312D01*
X7956513Y-20117836D01*
X7966037Y-20127360D01*
X7975561Y-20146408D01*
X7985085Y-20184503D01*
X7985085Y-20232122D01*
X7975561Y-20270217D01*
X7966037Y-20289265D01*
X7956513Y-20298789D01*
X7937466Y-20308312D01*
X7918418Y-20308312D01*
X7899370Y-20298789D01*
X7889847Y-20289265D01*
X7880323Y-20270217D01*
X7870799Y-20232122D01*
X7870799Y-20184503D01*
X7880323Y-20146408D01*
X7889847Y-20127360D01*
X7899370Y-20117836D01*
X7918418Y-20108312D01*
X8070799Y-20289265D02*
X8080323Y-20298789D01*
X8070799Y-20308312D01*
X8061275Y-20298789D01*
X8070799Y-20289265D01*
X8070799Y-20308312D01*
X8261275Y-20108312D02*
X8166037Y-20108312D01*
X8156513Y-20203550D01*
X8166037Y-20194027D01*
X8185085Y-20184503D01*
X8232704Y-20184503D01*
X8251751Y-20194027D01*
X8261275Y-20203550D01*
X8270799Y-20222598D01*
X8270799Y-20270217D01*
X8261275Y-20289265D01*
X8251751Y-20298789D01*
X8232704Y-20308312D01*
X8185085Y-20308312D01*
X8166037Y-20298789D01*
X8156513Y-20289265D01*
X8451751Y-20108312D02*
X8356513Y-20108312D01*
X8346989Y-20203550D01*
X8356513Y-20194027D01*
X8375561Y-20184503D01*
X8423180Y-20184503D01*
X8442228Y-20194027D01*
X8451751Y-20203550D01*
X8461275Y-20222598D01*
X8461275Y-20270217D01*
X8451751Y-20289265D01*
X8442228Y-20298789D01*
X8423180Y-20308312D01*
X8375561Y-20308312D01*
X8356513Y-20298789D01*
X8346989Y-20289265D01*
X8585085Y-20108312D02*
X8604132Y-20108312D01*
X8623180Y-20117836D01*
X8632704Y-20127360D01*
X8642228Y-20146408D01*
X8651751Y-20184503D01*
X8651751Y-20232122D01*
X8642228Y-20270217D01*
X8632704Y-20289265D01*
X8623180Y-20298789D01*
X8604132Y-20308312D01*
X8585085Y-20308312D01*
X8566037Y-20298789D01*
X8556513Y-20289265D01*
X8546990Y-20270217D01*
X8537466Y-20232122D01*
X8537466Y-20184503D01*
X8546990Y-20146408D01*
X8556513Y-20127360D01*
X8566037Y-20117836D01*
X8585085Y-20108312D01*
X8737466Y-20308312D02*
X8737466Y-20174979D01*
X8737466Y-20194027D02*
X8746990Y-20184503D01*
X8766037Y-20174979D01*
X8794609Y-20174979D01*
X8813656Y-20184503D01*
X8823180Y-20203550D01*
X8823180Y-20308312D01*
X8823180Y-20203550D02*
X8832704Y-20184503D01*
X8851751Y-20174979D01*
X8880323Y-20174979D01*
X8899370Y-20184503D01*
X8908894Y-20203550D01*
X8908894Y-20308312D01*
X9004132Y-20308312D02*
X9004132Y-20174979D01*
X9004132Y-20194027D02*
X9013656Y-20184503D01*
X9032704Y-20174979D01*
X9061275Y-20174979D01*
X9080323Y-20184503D01*
X9089847Y-20203550D01*
X9089847Y-20308312D01*
X9089847Y-20203550D02*
X9099370Y-20184503D01*
X9118418Y-20174979D01*
X9146990Y-20174979D01*
X9166037Y-20184503D01*
X9175561Y-20203550D01*
X9175561Y-20308312D01*
X9566037Y-20098789D02*
X9394609Y-20355931D01*
X9823180Y-20108312D02*
X9842228Y-20108312D01*
X9861275Y-20117836D01*
X9870799Y-20127360D01*
X9880323Y-20146408D01*
X9889847Y-20184503D01*
X9889847Y-20232122D01*
X9880323Y-20270217D01*
X9870799Y-20289265D01*
X9861275Y-20298789D01*
X9842228Y-20308312D01*
X9823180Y-20308312D01*
X9804132Y-20298789D01*
X9794609Y-20289265D01*
X9785085Y-20270217D01*
X9775561Y-20232122D01*
X9775561Y-20184503D01*
X9785085Y-20146408D01*
X9794609Y-20127360D01*
X9804132Y-20117836D01*
X9823180Y-20108312D01*
X9975561Y-20289265D02*
X9985085Y-20298789D01*
X9975561Y-20308312D01*
X9966037Y-20298789D01*
X9975561Y-20289265D01*
X9975561Y-20308312D01*
X10108894Y-20108312D02*
X10127942Y-20108312D01*
X10146990Y-20117836D01*
X10156513Y-20127360D01*
X10166037Y-20146408D01*
X10175561Y-20184503D01*
X10175561Y-20232122D01*
X10166037Y-20270217D01*
X10156513Y-20289265D01*
X10146990Y-20298789D01*
X10127942Y-20308312D01*
X10108894Y-20308312D01*
X10089847Y-20298789D01*
X10080323Y-20289265D01*
X10070799Y-20270217D01*
X10061275Y-20232122D01*
X10061275Y-20184503D01*
X10070799Y-20146408D01*
X10080323Y-20127360D01*
X10089847Y-20117836D01*
X10108894Y-20108312D01*
X10251751Y-20127360D02*
X10261275Y-20117836D01*
X10280323Y-20108312D01*
X10327942Y-20108312D01*
X10346990Y-20117836D01*
X10356513Y-20127360D01*
X10366037Y-20146408D01*
X10366037Y-20165455D01*
X10356513Y-20194027D01*
X10242228Y-20308312D01*
X10366037Y-20308312D01*
X10556513Y-20308312D02*
X10442228Y-20308312D01*
X10499370Y-20308312D02*
X10499370Y-20108312D01*
X10480323Y-20136884D01*
X10461275Y-20155931D01*
X10442228Y-20165455D01*
X10623180Y-20108312D02*
X10756513Y-20108312D01*
X10670799Y-20308312D01*
X10823180Y-20108312D02*
X10823180Y-20146408D01*
X10899370Y-20108312D02*
X10899370Y-20146408D01*
X11194608Y-20384503D02*
X11185085Y-20374979D01*
X11166037Y-20346408D01*
X11156513Y-20327360D01*
X11146990Y-20298789D01*
X11137466Y-20251170D01*
X11137466Y-20213074D01*
X11146990Y-20165455D01*
X11156513Y-20136884D01*
X11166037Y-20117836D01*
X11185085Y-20089265D01*
X11194608Y-20079741D01*
X11308894Y-20108312D02*
X11327942Y-20108312D01*
X11346989Y-20117836D01*
X11356513Y-20127360D01*
X11366037Y-20146408D01*
X11375561Y-20184503D01*
X11375561Y-20232122D01*
X11366037Y-20270217D01*
X11356513Y-20289265D01*
X11346989Y-20298789D01*
X11327942Y-20308312D01*
X11308894Y-20308312D01*
X11289847Y-20298789D01*
X11280323Y-20289265D01*
X11270799Y-20270217D01*
X11261275Y-20232122D01*
X11261275Y-20184503D01*
X11270799Y-20146408D01*
X11280323Y-20127360D01*
X11289847Y-20117836D01*
X11308894Y-20108312D01*
X11613656Y-20308312D02*
X11613656Y-20108312D01*
X11699370Y-20308312D02*
X11699370Y-20203550D01*
X11689847Y-20184503D01*
X11670799Y-20174979D01*
X11642228Y-20174979D01*
X11623180Y-20184503D01*
X11613656Y-20194027D01*
X11823180Y-20308312D02*
X11804132Y-20298789D01*
X11794608Y-20289265D01*
X11785085Y-20270217D01*
X11785085Y-20213074D01*
X11794608Y-20194027D01*
X11804132Y-20184503D01*
X11823180Y-20174979D01*
X11851751Y-20174979D01*
X11870799Y-20184503D01*
X11880323Y-20194027D01*
X11889847Y-20213074D01*
X11889847Y-20270217D01*
X11880323Y-20289265D01*
X11870799Y-20298789D01*
X11851751Y-20308312D01*
X11823180Y-20308312D01*
X12004132Y-20308312D02*
X11985085Y-20298789D01*
X11975561Y-20279741D01*
X11975561Y-20108312D01*
X12156513Y-20298789D02*
X12137466Y-20308312D01*
X12099370Y-20308312D01*
X12080323Y-20298789D01*
X12070799Y-20279741D01*
X12070799Y-20203550D01*
X12080323Y-20184503D01*
X12099370Y-20174979D01*
X12137466Y-20174979D01*
X12156513Y-20184503D01*
X12166037Y-20203550D01*
X12166037Y-20222598D01*
X12070799Y-20241646D01*
X12242228Y-20298789D02*
X12261275Y-20308312D01*
X12299370Y-20308312D01*
X12318418Y-20298789D01*
X12327942Y-20279741D01*
X12327942Y-20270217D01*
X12318418Y-20251170D01*
X12299370Y-20241646D01*
X12270799Y-20241646D01*
X12251751Y-20232122D01*
X12242228Y-20213074D01*
X12242228Y-20203550D01*
X12251751Y-20184503D01*
X12270799Y-20174979D01*
X12299370Y-20174979D01*
X12318418Y-20184503D01*
X12566037Y-20232122D02*
X12718418Y-20232122D01*
X12642228Y-20308312D02*
X12642228Y-20155931D01*
X12956513Y-20127360D02*
X12966037Y-20117836D01*
X12985085Y-20108312D01*
X13032704Y-20108312D01*
X13051751Y-20117836D01*
X13061275Y-20127360D01*
X13070799Y-20146408D01*
X13070799Y-20165455D01*
X13061275Y-20194027D01*
X12946989Y-20308312D01*
X13070799Y-20308312D01*
X13299370Y-20298789D02*
X13318418Y-20308312D01*
X13356513Y-20308312D01*
X13375561Y-20298789D01*
X13385085Y-20279741D01*
X13385085Y-20270217D01*
X13375561Y-20251170D01*
X13356513Y-20241646D01*
X13327942Y-20241646D01*
X13308894Y-20232122D01*
X13299370Y-20213074D01*
X13299370Y-20203550D01*
X13308894Y-20184503D01*
X13327942Y-20174979D01*
X13356513Y-20174979D01*
X13375561Y-20184503D01*
X13499370Y-20308312D02*
X13480323Y-20298789D01*
X13470799Y-20279741D01*
X13470799Y-20108312D01*
X13604132Y-20308312D02*
X13585085Y-20298789D01*
X13575561Y-20289265D01*
X13566037Y-20270217D01*
X13566037Y-20213074D01*
X13575561Y-20194027D01*
X13585085Y-20184503D01*
X13604132Y-20174979D01*
X13632704Y-20174979D01*
X13651751Y-20184503D01*
X13661275Y-20194027D01*
X13670799Y-20213074D01*
X13670799Y-20270217D01*
X13661275Y-20289265D01*
X13651751Y-20298789D01*
X13632704Y-20308312D01*
X13604132Y-20308312D01*
X13727942Y-20174979D02*
X13804132Y-20174979D01*
X13756513Y-20108312D02*
X13756513Y-20279741D01*
X13766037Y-20298789D01*
X13785085Y-20308312D01*
X13804132Y-20308312D01*
X13861275Y-20298789D02*
X13880323Y-20308312D01*
X13918418Y-20308312D01*
X13937466Y-20298789D01*
X13946989Y-20279741D01*
X13946989Y-20270217D01*
X13937466Y-20251170D01*
X13918418Y-20241646D01*
X13889847Y-20241646D01*
X13870799Y-20232122D01*
X13861275Y-20213074D01*
X13861275Y-20203550D01*
X13870799Y-20184503D01*
X13889847Y-20174979D01*
X13918418Y-20174979D01*
X13937466Y-20184503D01*
X14013656Y-20384503D02*
X14023180Y-20374979D01*
X14042228Y-20346408D01*
X14051751Y-20327360D01*
X14061275Y-20298789D01*
X14070799Y-20251170D01*
X14070799Y-20213074D01*
X14061275Y-20165455D01*
X14051751Y-20136884D01*
X14042228Y-20117836D01*
X14023180Y-20089265D01*
X14013656Y-20079741D01*
D15*
X7611721Y-20508353D02*
X7611721Y-20455319D01*
X7558687Y-20455319D01*
X7558687Y-20508353D01*
X7611721Y-20508353D01*
D11*
X7918418Y-20372312D02*
X7937466Y-20372312D01*
X7956513Y-20381836D01*
X7966037Y-20391360D01*
X7975561Y-20410408D01*
X7985085Y-20448503D01*
X7985085Y-20496122D01*
X7975561Y-20534217D01*
X7966037Y-20553265D01*
X7956513Y-20562789D01*
X7937466Y-20572312D01*
X7918418Y-20572312D01*
X7899370Y-20562789D01*
X7889847Y-20553265D01*
X7880323Y-20534217D01*
X7870799Y-20496122D01*
X7870799Y-20448503D01*
X7880323Y-20410408D01*
X7889847Y-20391360D01*
X7899370Y-20381836D01*
X7918418Y-20372312D01*
X8070799Y-20553265D02*
X8080323Y-20562789D01*
X8070799Y-20572312D01*
X8061275Y-20562789D01*
X8070799Y-20553265D01*
X8070799Y-20572312D01*
X8146989Y-20372312D02*
X8280323Y-20372312D01*
X8194608Y-20572312D01*
X8451751Y-20372312D02*
X8356513Y-20372312D01*
X8346989Y-20467550D01*
X8356513Y-20458027D01*
X8375561Y-20448503D01*
X8423180Y-20448503D01*
X8442228Y-20458027D01*
X8451751Y-20467550D01*
X8461275Y-20486598D01*
X8461275Y-20534217D01*
X8451751Y-20553265D01*
X8442228Y-20562789D01*
X8423180Y-20572312D01*
X8375561Y-20572312D01*
X8356513Y-20562789D01*
X8346989Y-20553265D01*
X8585085Y-20372312D02*
X8604132Y-20372312D01*
X8623180Y-20381836D01*
X8632704Y-20391360D01*
X8642228Y-20410408D01*
X8651751Y-20448503D01*
X8651751Y-20496122D01*
X8642228Y-20534217D01*
X8632704Y-20553265D01*
X8623180Y-20562789D01*
X8604132Y-20572312D01*
X8585085Y-20572312D01*
X8566037Y-20562789D01*
X8556513Y-20553265D01*
X8546990Y-20534217D01*
X8537466Y-20496122D01*
X8537466Y-20448503D01*
X8546990Y-20410408D01*
X8556513Y-20391360D01*
X8566037Y-20381836D01*
X8585085Y-20372312D01*
X8737466Y-20572312D02*
X8737466Y-20438979D01*
X8737466Y-20458027D02*
X8746990Y-20448503D01*
X8766037Y-20438979D01*
X8794609Y-20438979D01*
X8813656Y-20448503D01*
X8823180Y-20467550D01*
X8823180Y-20572312D01*
X8823180Y-20467550D02*
X8832704Y-20448503D01*
X8851751Y-20438979D01*
X8880323Y-20438979D01*
X8899370Y-20448503D01*
X8908894Y-20467550D01*
X8908894Y-20572312D01*
X9004132Y-20572312D02*
X9004132Y-20438979D01*
X9004132Y-20458027D02*
X9013656Y-20448503D01*
X9032704Y-20438979D01*
X9061275Y-20438979D01*
X9080323Y-20448503D01*
X9089847Y-20467550D01*
X9089847Y-20572312D01*
X9089847Y-20467550D02*
X9099370Y-20448503D01*
X9118418Y-20438979D01*
X9146990Y-20438979D01*
X9166037Y-20448503D01*
X9175561Y-20467550D01*
X9175561Y-20572312D01*
X9566037Y-20362789D02*
X9394609Y-20619931D01*
X9823180Y-20372312D02*
X9842228Y-20372312D01*
X9861275Y-20381836D01*
X9870799Y-20391360D01*
X9880323Y-20410408D01*
X9889847Y-20448503D01*
X9889847Y-20496122D01*
X9880323Y-20534217D01*
X9870799Y-20553265D01*
X9861275Y-20562789D01*
X9842228Y-20572312D01*
X9823180Y-20572312D01*
X9804132Y-20562789D01*
X9794609Y-20553265D01*
X9785085Y-20534217D01*
X9775561Y-20496122D01*
X9775561Y-20448503D01*
X9785085Y-20410408D01*
X9794609Y-20391360D01*
X9804132Y-20381836D01*
X9823180Y-20372312D01*
X9975561Y-20553265D02*
X9985085Y-20562789D01*
X9975561Y-20572312D01*
X9966037Y-20562789D01*
X9975561Y-20553265D01*
X9975561Y-20572312D01*
X10108894Y-20372312D02*
X10127942Y-20372312D01*
X10146990Y-20381836D01*
X10156513Y-20391360D01*
X10166037Y-20410408D01*
X10175561Y-20448503D01*
X10175561Y-20496122D01*
X10166037Y-20534217D01*
X10156513Y-20553265D01*
X10146990Y-20562789D01*
X10127942Y-20572312D01*
X10108894Y-20572312D01*
X10089847Y-20562789D01*
X10080323Y-20553265D01*
X10070799Y-20534217D01*
X10061275Y-20496122D01*
X10061275Y-20448503D01*
X10070799Y-20410408D01*
X10080323Y-20391360D01*
X10089847Y-20381836D01*
X10108894Y-20372312D01*
X10251751Y-20391360D02*
X10261275Y-20381836D01*
X10280323Y-20372312D01*
X10327942Y-20372312D01*
X10346990Y-20381836D01*
X10356513Y-20391360D01*
X10366037Y-20410408D01*
X10366037Y-20429455D01*
X10356513Y-20458027D01*
X10242228Y-20572312D01*
X10366037Y-20572312D01*
X10461275Y-20572312D02*
X10499370Y-20572312D01*
X10518418Y-20562789D01*
X10527942Y-20553265D01*
X10546990Y-20524693D01*
X10556513Y-20486598D01*
X10556513Y-20410408D01*
X10546990Y-20391360D01*
X10537466Y-20381836D01*
X10518418Y-20372312D01*
X10480323Y-20372312D01*
X10461275Y-20381836D01*
X10451751Y-20391360D01*
X10442228Y-20410408D01*
X10442228Y-20458027D01*
X10451751Y-20477074D01*
X10461275Y-20486598D01*
X10480323Y-20496122D01*
X10518418Y-20496122D01*
X10537466Y-20486598D01*
X10546990Y-20477074D01*
X10556513Y-20458027D01*
X10737466Y-20372312D02*
X10642228Y-20372312D01*
X10632704Y-20467550D01*
X10642228Y-20458027D01*
X10661275Y-20448503D01*
X10708894Y-20448503D01*
X10727942Y-20458027D01*
X10737466Y-20467550D01*
X10746990Y-20486598D01*
X10746990Y-20534217D01*
X10737466Y-20553265D01*
X10727942Y-20562789D01*
X10708894Y-20572312D01*
X10661275Y-20572312D01*
X10642228Y-20562789D01*
X10632704Y-20553265D01*
X10823180Y-20372312D02*
X10823180Y-20410408D01*
X10899370Y-20372312D02*
X10899370Y-20410408D01*
X11194608Y-20648503D02*
X11185085Y-20638979D01*
X11166037Y-20610408D01*
X11156513Y-20591360D01*
X11146990Y-20562789D01*
X11137466Y-20515170D01*
X11137466Y-20477074D01*
X11146990Y-20429455D01*
X11156513Y-20400884D01*
X11166037Y-20381836D01*
X11185085Y-20353265D01*
X11194608Y-20343741D01*
X11251751Y-20372312D02*
X11375561Y-20372312D01*
X11308894Y-20448503D01*
X11337466Y-20448503D01*
X11356513Y-20458027D01*
X11366037Y-20467550D01*
X11375561Y-20486598D01*
X11375561Y-20534217D01*
X11366037Y-20553265D01*
X11356513Y-20562789D01*
X11337466Y-20572312D01*
X11280323Y-20572312D01*
X11261275Y-20562789D01*
X11251751Y-20553265D01*
X11613656Y-20572312D02*
X11613656Y-20372312D01*
X11699370Y-20572312D02*
X11699370Y-20467550D01*
X11689847Y-20448503D01*
X11670799Y-20438979D01*
X11642228Y-20438979D01*
X11623180Y-20448503D01*
X11613656Y-20458027D01*
X11823180Y-20572312D02*
X11804132Y-20562789D01*
X11794608Y-20553265D01*
X11785085Y-20534217D01*
X11785085Y-20477074D01*
X11794608Y-20458027D01*
X11804132Y-20448503D01*
X11823180Y-20438979D01*
X11851751Y-20438979D01*
X11870799Y-20448503D01*
X11880323Y-20458027D01*
X11889847Y-20477074D01*
X11889847Y-20534217D01*
X11880323Y-20553265D01*
X11870799Y-20562789D01*
X11851751Y-20572312D01*
X11823180Y-20572312D01*
X12004132Y-20572312D02*
X11985085Y-20562789D01*
X11975561Y-20543741D01*
X11975561Y-20372312D01*
X12156513Y-20562789D02*
X12137466Y-20572312D01*
X12099370Y-20572312D01*
X12080323Y-20562789D01*
X12070799Y-20543741D01*
X12070799Y-20467550D01*
X12080323Y-20448503D01*
X12099370Y-20438979D01*
X12137466Y-20438979D01*
X12156513Y-20448503D01*
X12166037Y-20467550D01*
X12166037Y-20486598D01*
X12070799Y-20505646D01*
X12242228Y-20562789D02*
X12261275Y-20572312D01*
X12299370Y-20572312D01*
X12318418Y-20562789D01*
X12327942Y-20543741D01*
X12327942Y-20534217D01*
X12318418Y-20515170D01*
X12299370Y-20505646D01*
X12270799Y-20505646D01*
X12251751Y-20496122D01*
X12242228Y-20477074D01*
X12242228Y-20467550D01*
X12251751Y-20448503D01*
X12270799Y-20438979D01*
X12299370Y-20438979D01*
X12318418Y-20448503D01*
X12394608Y-20648503D02*
X12404132Y-20638979D01*
X12423180Y-20610408D01*
X12432704Y-20591360D01*
X12442228Y-20562789D01*
X12451751Y-20515170D01*
X12451751Y-20477074D01*
X12442228Y-20429455D01*
X12432704Y-20400884D01*
X12423180Y-20381836D01*
X12404132Y-20353265D01*
X12394608Y-20343741D01*
D16*
X7582704Y-20785836D02*
X7622704Y-20745836D01*
X7582704Y-20705836D01*
X7542704Y-20745836D01*
X7582704Y-20785836D01*
D11*
X7918418Y-20636312D02*
X7937466Y-20636312D01*
X7956513Y-20645836D01*
X7966037Y-20655360D01*
X7975561Y-20674408D01*
X7985085Y-20712503D01*
X7985085Y-20760122D01*
X7975561Y-20798217D01*
X7966037Y-20817265D01*
X7956513Y-20826789D01*
X7937466Y-20836312D01*
X7918418Y-20836312D01*
X7899370Y-20826789D01*
X7889847Y-20817265D01*
X7880323Y-20798217D01*
X7870799Y-20760122D01*
X7870799Y-20712503D01*
X7880323Y-20674408D01*
X7889847Y-20655360D01*
X7899370Y-20645836D01*
X7918418Y-20636312D01*
X8070799Y-20817265D02*
X8080323Y-20826789D01*
X8070799Y-20836312D01*
X8061275Y-20826789D01*
X8070799Y-20817265D01*
X8070799Y-20836312D01*
X8194608Y-20722027D02*
X8175561Y-20712503D01*
X8166037Y-20702979D01*
X8156513Y-20683931D01*
X8156513Y-20674408D01*
X8166037Y-20655360D01*
X8175561Y-20645836D01*
X8194608Y-20636312D01*
X8232704Y-20636312D01*
X8251751Y-20645836D01*
X8261275Y-20655360D01*
X8270799Y-20674408D01*
X8270799Y-20683931D01*
X8261275Y-20702979D01*
X8251751Y-20712503D01*
X8232704Y-20722027D01*
X8194608Y-20722027D01*
X8175561Y-20731550D01*
X8166037Y-20741074D01*
X8156513Y-20760122D01*
X8156513Y-20798217D01*
X8166037Y-20817265D01*
X8175561Y-20826789D01*
X8194608Y-20836312D01*
X8232704Y-20836312D01*
X8251751Y-20826789D01*
X8261275Y-20817265D01*
X8270799Y-20798217D01*
X8270799Y-20760122D01*
X8261275Y-20741074D01*
X8251751Y-20731550D01*
X8232704Y-20722027D01*
X8394609Y-20636312D02*
X8413656Y-20636312D01*
X8432704Y-20645836D01*
X8442228Y-20655360D01*
X8451751Y-20674408D01*
X8461275Y-20712503D01*
X8461275Y-20760122D01*
X8451751Y-20798217D01*
X8442228Y-20817265D01*
X8432704Y-20826789D01*
X8413656Y-20836312D01*
X8394609Y-20836312D01*
X8375561Y-20826789D01*
X8366037Y-20817265D01*
X8356513Y-20798217D01*
X8346989Y-20760122D01*
X8346989Y-20712503D01*
X8356513Y-20674408D01*
X8366037Y-20655360D01*
X8375561Y-20645836D01*
X8394609Y-20636312D01*
X8585085Y-20636312D02*
X8604132Y-20636312D01*
X8623180Y-20645836D01*
X8632704Y-20655360D01*
X8642228Y-20674408D01*
X8651751Y-20712503D01*
X8651751Y-20760122D01*
X8642228Y-20798217D01*
X8632704Y-20817265D01*
X8623180Y-20826789D01*
X8604132Y-20836312D01*
X8585085Y-20836312D01*
X8566037Y-20826789D01*
X8556513Y-20817265D01*
X8546990Y-20798217D01*
X8537466Y-20760122D01*
X8537466Y-20712503D01*
X8546990Y-20674408D01*
X8556513Y-20655360D01*
X8566037Y-20645836D01*
X8585085Y-20636312D01*
X8737466Y-20836312D02*
X8737466Y-20702979D01*
X8737466Y-20722027D02*
X8746990Y-20712503D01*
X8766037Y-20702979D01*
X8794609Y-20702979D01*
X8813656Y-20712503D01*
X8823180Y-20731550D01*
X8823180Y-20836312D01*
X8823180Y-20731550D02*
X8832704Y-20712503D01*
X8851751Y-20702979D01*
X8880323Y-20702979D01*
X8899370Y-20712503D01*
X8908894Y-20731550D01*
X8908894Y-20836312D01*
X9004132Y-20836312D02*
X9004132Y-20702979D01*
X9004132Y-20722027D02*
X9013656Y-20712503D01*
X9032704Y-20702979D01*
X9061275Y-20702979D01*
X9080323Y-20712503D01*
X9089847Y-20731550D01*
X9089847Y-20836312D01*
X9089847Y-20731550D02*
X9099370Y-20712503D01*
X9118418Y-20702979D01*
X9146990Y-20702979D01*
X9166037Y-20712503D01*
X9175561Y-20731550D01*
X9175561Y-20836312D01*
X9566037Y-20626789D02*
X9394609Y-20883931D01*
X9823180Y-20636312D02*
X9842228Y-20636312D01*
X9861275Y-20645836D01*
X9870799Y-20655360D01*
X9880323Y-20674408D01*
X9889847Y-20712503D01*
X9889847Y-20760122D01*
X9880323Y-20798217D01*
X9870799Y-20817265D01*
X9861275Y-20826789D01*
X9842228Y-20836312D01*
X9823180Y-20836312D01*
X9804132Y-20826789D01*
X9794609Y-20817265D01*
X9785085Y-20798217D01*
X9775561Y-20760122D01*
X9775561Y-20712503D01*
X9785085Y-20674408D01*
X9794609Y-20655360D01*
X9804132Y-20645836D01*
X9823180Y-20636312D01*
X9975561Y-20817265D02*
X9985085Y-20826789D01*
X9975561Y-20836312D01*
X9966037Y-20826789D01*
X9975561Y-20817265D01*
X9975561Y-20836312D01*
X10108894Y-20636312D02*
X10127942Y-20636312D01*
X10146990Y-20645836D01*
X10156513Y-20655360D01*
X10166037Y-20674408D01*
X10175561Y-20712503D01*
X10175561Y-20760122D01*
X10166037Y-20798217D01*
X10156513Y-20817265D01*
X10146990Y-20826789D01*
X10127942Y-20836312D01*
X10108894Y-20836312D01*
X10089847Y-20826789D01*
X10080323Y-20817265D01*
X10070799Y-20798217D01*
X10061275Y-20760122D01*
X10061275Y-20712503D01*
X10070799Y-20674408D01*
X10080323Y-20655360D01*
X10089847Y-20645836D01*
X10108894Y-20636312D01*
X10242228Y-20636312D02*
X10366037Y-20636312D01*
X10299370Y-20712503D01*
X10327942Y-20712503D01*
X10346990Y-20722027D01*
X10356513Y-20731550D01*
X10366037Y-20750598D01*
X10366037Y-20798217D01*
X10356513Y-20817265D01*
X10346990Y-20826789D01*
X10327942Y-20836312D01*
X10270799Y-20836312D01*
X10251751Y-20826789D01*
X10242228Y-20817265D01*
X10556513Y-20836312D02*
X10442228Y-20836312D01*
X10499370Y-20836312D02*
X10499370Y-20636312D01*
X10480323Y-20664884D01*
X10461275Y-20683931D01*
X10442228Y-20693455D01*
X10737466Y-20636312D02*
X10642228Y-20636312D01*
X10632704Y-20731550D01*
X10642228Y-20722027D01*
X10661275Y-20712503D01*
X10708894Y-20712503D01*
X10727942Y-20722027D01*
X10737466Y-20731550D01*
X10746990Y-20750598D01*
X10746990Y-20798217D01*
X10737466Y-20817265D01*
X10727942Y-20826789D01*
X10708894Y-20836312D01*
X10661275Y-20836312D01*
X10642228Y-20826789D01*
X10632704Y-20817265D01*
X10823180Y-20636312D02*
X10823180Y-20674408D01*
X10899370Y-20636312D02*
X10899370Y-20674408D01*
X11194608Y-20912503D02*
X11185085Y-20902979D01*
X11166037Y-20874408D01*
X11156513Y-20855360D01*
X11146990Y-20826789D01*
X11137466Y-20779170D01*
X11137466Y-20741074D01*
X11146990Y-20693455D01*
X11156513Y-20664884D01*
X11166037Y-20645836D01*
X11185085Y-20617265D01*
X11194608Y-20607741D01*
X11251751Y-20636312D02*
X11375561Y-20636312D01*
X11308894Y-20712503D01*
X11337466Y-20712503D01*
X11356513Y-20722027D01*
X11366037Y-20731550D01*
X11375561Y-20750598D01*
X11375561Y-20798217D01*
X11366037Y-20817265D01*
X11356513Y-20826789D01*
X11337466Y-20836312D01*
X11280323Y-20836312D01*
X11261275Y-20826789D01*
X11251751Y-20817265D01*
X11546989Y-20702979D02*
X11546989Y-20836312D01*
X11499370Y-20626789D02*
X11451751Y-20769646D01*
X11575561Y-20769646D01*
X11804132Y-20836312D02*
X11804132Y-20636312D01*
X11889847Y-20836312D02*
X11889847Y-20731550D01*
X11880323Y-20712503D01*
X11861275Y-20702979D01*
X11832704Y-20702979D01*
X11813656Y-20712503D01*
X11804132Y-20722027D01*
X12013656Y-20836312D02*
X11994608Y-20826789D01*
X11985085Y-20817265D01*
X11975561Y-20798217D01*
X11975561Y-20741074D01*
X11985085Y-20722027D01*
X11994608Y-20712503D01*
X12013656Y-20702979D01*
X12042228Y-20702979D01*
X12061275Y-20712503D01*
X12070799Y-20722027D01*
X12080323Y-20741074D01*
X12080323Y-20798217D01*
X12070799Y-20817265D01*
X12061275Y-20826789D01*
X12042228Y-20836312D01*
X12013656Y-20836312D01*
X12194608Y-20836312D02*
X12175561Y-20826789D01*
X12166037Y-20807741D01*
X12166037Y-20636312D01*
X12346989Y-20826789D02*
X12327942Y-20836312D01*
X12289847Y-20836312D01*
X12270799Y-20826789D01*
X12261275Y-20807741D01*
X12261275Y-20731550D01*
X12270799Y-20712503D01*
X12289847Y-20702979D01*
X12327942Y-20702979D01*
X12346989Y-20712503D01*
X12356513Y-20731550D01*
X12356513Y-20750598D01*
X12261275Y-20769646D01*
X12432704Y-20826789D02*
X12451751Y-20836312D01*
X12489847Y-20836312D01*
X12508894Y-20826789D01*
X12518418Y-20807741D01*
X12518418Y-20798217D01*
X12508894Y-20779170D01*
X12489847Y-20769646D01*
X12461275Y-20769646D01*
X12442228Y-20760122D01*
X12432704Y-20741074D01*
X12432704Y-20731550D01*
X12442228Y-20712503D01*
X12461275Y-20702979D01*
X12489847Y-20702979D01*
X12508894Y-20712503D01*
X12585085Y-20912503D02*
X12594608Y-20902979D01*
X12613656Y-20874408D01*
X12623180Y-20855360D01*
X12632704Y-20826789D01*
X12642228Y-20779170D01*
X12642228Y-20741074D01*
X12632704Y-20693455D01*
X12623180Y-20664884D01*
X12613656Y-20645836D01*
X12594608Y-20617265D01*
X12585085Y-20607741D01*
D17*
X7532704Y-20964836D02*
X7622704Y-21054836D01*
X7622704Y-20964836D02*
X7532704Y-21054836D01*
X7622704Y-21009836D02*
G75*
G03*
X7622704Y-21009836I-45000J0D01*
G01*
D11*
X7918418Y-20900312D02*
X7937466Y-20900312D01*
X7956513Y-20909836D01*
X7966037Y-20919360D01*
X7975561Y-20938408D01*
X7985085Y-20976503D01*
X7985085Y-21024122D01*
X7975561Y-21062217D01*
X7966037Y-21081265D01*
X7956513Y-21090789D01*
X7937466Y-21100312D01*
X7918418Y-21100312D01*
X7899370Y-21090789D01*
X7889847Y-21081265D01*
X7880323Y-21062217D01*
X7870799Y-21024122D01*
X7870799Y-20976503D01*
X7880323Y-20938408D01*
X7889847Y-20919360D01*
X7899370Y-20909836D01*
X7918418Y-20900312D01*
X8070799Y-21081265D02*
X8080323Y-21090789D01*
X8070799Y-21100312D01*
X8061275Y-21090789D01*
X8070799Y-21081265D01*
X8070799Y-21100312D01*
X8175561Y-21100312D02*
X8213656Y-21100312D01*
X8232704Y-21090789D01*
X8242228Y-21081265D01*
X8261275Y-21052693D01*
X8270799Y-21014598D01*
X8270799Y-20938408D01*
X8261275Y-20919360D01*
X8251751Y-20909836D01*
X8232704Y-20900312D01*
X8194608Y-20900312D01*
X8175561Y-20909836D01*
X8166037Y-20919360D01*
X8156513Y-20938408D01*
X8156513Y-20986027D01*
X8166037Y-21005074D01*
X8175561Y-21014598D01*
X8194608Y-21024122D01*
X8232704Y-21024122D01*
X8251751Y-21014598D01*
X8261275Y-21005074D01*
X8270799Y-20986027D01*
X8394609Y-20900312D02*
X8413656Y-20900312D01*
X8432704Y-20909836D01*
X8442228Y-20919360D01*
X8451751Y-20938408D01*
X8461275Y-20976503D01*
X8461275Y-21024122D01*
X8451751Y-21062217D01*
X8442228Y-21081265D01*
X8432704Y-21090789D01*
X8413656Y-21100312D01*
X8394609Y-21100312D01*
X8375561Y-21090789D01*
X8366037Y-21081265D01*
X8356513Y-21062217D01*
X8346989Y-21024122D01*
X8346989Y-20976503D01*
X8356513Y-20938408D01*
X8366037Y-20919360D01*
X8375561Y-20909836D01*
X8394609Y-20900312D01*
X8585085Y-20900312D02*
X8604132Y-20900312D01*
X8623180Y-20909836D01*
X8632704Y-20919360D01*
X8642228Y-20938408D01*
X8651751Y-20976503D01*
X8651751Y-21024122D01*
X8642228Y-21062217D01*
X8632704Y-21081265D01*
X8623180Y-21090789D01*
X8604132Y-21100312D01*
X8585085Y-21100312D01*
X8566037Y-21090789D01*
X8556513Y-21081265D01*
X8546990Y-21062217D01*
X8537466Y-21024122D01*
X8537466Y-20976503D01*
X8546990Y-20938408D01*
X8556513Y-20919360D01*
X8566037Y-20909836D01*
X8585085Y-20900312D01*
X8737466Y-21100312D02*
X8737466Y-20966979D01*
X8737466Y-20986027D02*
X8746990Y-20976503D01*
X8766037Y-20966979D01*
X8794609Y-20966979D01*
X8813656Y-20976503D01*
X8823180Y-20995550D01*
X8823180Y-21100312D01*
X8823180Y-20995550D02*
X8832704Y-20976503D01*
X8851751Y-20966979D01*
X8880323Y-20966979D01*
X8899370Y-20976503D01*
X8908894Y-20995550D01*
X8908894Y-21100312D01*
X9004132Y-21100312D02*
X9004132Y-20966979D01*
X9004132Y-20986027D02*
X9013656Y-20976503D01*
X9032704Y-20966979D01*
X9061275Y-20966979D01*
X9080323Y-20976503D01*
X9089847Y-20995550D01*
X9089847Y-21100312D01*
X9089847Y-20995550D02*
X9099370Y-20976503D01*
X9118418Y-20966979D01*
X9146990Y-20966979D01*
X9166037Y-20976503D01*
X9175561Y-20995550D01*
X9175561Y-21100312D01*
X9566037Y-20890789D02*
X9394609Y-21147931D01*
X9823180Y-20900312D02*
X9842228Y-20900312D01*
X9861275Y-20909836D01*
X9870799Y-20919360D01*
X9880323Y-20938408D01*
X9889847Y-20976503D01*
X9889847Y-21024122D01*
X9880323Y-21062217D01*
X9870799Y-21081265D01*
X9861275Y-21090789D01*
X9842228Y-21100312D01*
X9823180Y-21100312D01*
X9804132Y-21090789D01*
X9794609Y-21081265D01*
X9785085Y-21062217D01*
X9775561Y-21024122D01*
X9775561Y-20976503D01*
X9785085Y-20938408D01*
X9794609Y-20919360D01*
X9804132Y-20909836D01*
X9823180Y-20900312D01*
X9975561Y-21081265D02*
X9985085Y-21090789D01*
X9975561Y-21100312D01*
X9966037Y-21090789D01*
X9975561Y-21081265D01*
X9975561Y-21100312D01*
X10108894Y-20900312D02*
X10127942Y-20900312D01*
X10146990Y-20909836D01*
X10156513Y-20919360D01*
X10166037Y-20938408D01*
X10175561Y-20976503D01*
X10175561Y-21024122D01*
X10166037Y-21062217D01*
X10156513Y-21081265D01*
X10146990Y-21090789D01*
X10127942Y-21100312D01*
X10108894Y-21100312D01*
X10089847Y-21090789D01*
X10080323Y-21081265D01*
X10070799Y-21062217D01*
X10061275Y-21024122D01*
X10061275Y-20976503D01*
X10070799Y-20938408D01*
X10080323Y-20919360D01*
X10089847Y-20909836D01*
X10108894Y-20900312D01*
X10242228Y-20900312D02*
X10366037Y-20900312D01*
X10299370Y-20976503D01*
X10327942Y-20976503D01*
X10346990Y-20986027D01*
X10356513Y-20995550D01*
X10366037Y-21014598D01*
X10366037Y-21062217D01*
X10356513Y-21081265D01*
X10346990Y-21090789D01*
X10327942Y-21100312D01*
X10270799Y-21100312D01*
X10251751Y-21090789D01*
X10242228Y-21081265D01*
X10546990Y-20900312D02*
X10451751Y-20900312D01*
X10442228Y-20995550D01*
X10451751Y-20986027D01*
X10470799Y-20976503D01*
X10518418Y-20976503D01*
X10537466Y-20986027D01*
X10546990Y-20995550D01*
X10556513Y-21014598D01*
X10556513Y-21062217D01*
X10546990Y-21081265D01*
X10537466Y-21090789D01*
X10518418Y-21100312D01*
X10470799Y-21100312D01*
X10451751Y-21090789D01*
X10442228Y-21081265D01*
X10727942Y-20966979D02*
X10727942Y-21100312D01*
X10680323Y-20890789D02*
X10632704Y-21033646D01*
X10756513Y-21033646D01*
X10823180Y-20900312D02*
X10823180Y-20938408D01*
X10899370Y-20900312D02*
X10899370Y-20938408D01*
X11194608Y-21176503D02*
X11185085Y-21166979D01*
X11166037Y-21138408D01*
X11156513Y-21119360D01*
X11146990Y-21090789D01*
X11137466Y-21043170D01*
X11137466Y-21005074D01*
X11146990Y-20957455D01*
X11156513Y-20928884D01*
X11166037Y-20909836D01*
X11185085Y-20881265D01*
X11194608Y-20871741D01*
X11280323Y-21100312D02*
X11318418Y-21100312D01*
X11337466Y-21090789D01*
X11346989Y-21081265D01*
X11366037Y-21052693D01*
X11375561Y-21014598D01*
X11375561Y-20938408D01*
X11366037Y-20919360D01*
X11356513Y-20909836D01*
X11337466Y-20900312D01*
X11299370Y-20900312D01*
X11280323Y-20909836D01*
X11270799Y-20919360D01*
X11261275Y-20938408D01*
X11261275Y-20986027D01*
X11270799Y-21005074D01*
X11280323Y-21014598D01*
X11299370Y-21024122D01*
X11337466Y-21024122D01*
X11356513Y-21014598D01*
X11366037Y-21005074D01*
X11375561Y-20986027D01*
X11613656Y-21100312D02*
X11613656Y-20900312D01*
X11699370Y-21100312D02*
X11699370Y-20995550D01*
X11689847Y-20976503D01*
X11670799Y-20966979D01*
X11642228Y-20966979D01*
X11623180Y-20976503D01*
X11613656Y-20986027D01*
X11823180Y-21100312D02*
X11804132Y-21090789D01*
X11794608Y-21081265D01*
X11785085Y-21062217D01*
X11785085Y-21005074D01*
X11794608Y-20986027D01*
X11804132Y-20976503D01*
X11823180Y-20966979D01*
X11851751Y-20966979D01*
X11870799Y-20976503D01*
X11880323Y-20986027D01*
X11889847Y-21005074D01*
X11889847Y-21062217D01*
X11880323Y-21081265D01*
X11870799Y-21090789D01*
X11851751Y-21100312D01*
X11823180Y-21100312D01*
X12004132Y-21100312D02*
X11985085Y-21090789D01*
X11975561Y-21071741D01*
X11975561Y-20900312D01*
X12156513Y-21090789D02*
X12137466Y-21100312D01*
X12099370Y-21100312D01*
X12080323Y-21090789D01*
X12070799Y-21071741D01*
X12070799Y-20995550D01*
X12080323Y-20976503D01*
X12099370Y-20966979D01*
X12137466Y-20966979D01*
X12156513Y-20976503D01*
X12166037Y-20995550D01*
X12166037Y-21014598D01*
X12070799Y-21033646D01*
X12242228Y-21090789D02*
X12261275Y-21100312D01*
X12299370Y-21100312D01*
X12318418Y-21090789D01*
X12327942Y-21071741D01*
X12327942Y-21062217D01*
X12318418Y-21043170D01*
X12299370Y-21033646D01*
X12270799Y-21033646D01*
X12251751Y-21024122D01*
X12242228Y-21005074D01*
X12242228Y-20995550D01*
X12251751Y-20976503D01*
X12270799Y-20966979D01*
X12299370Y-20966979D01*
X12318418Y-20976503D01*
X12394608Y-21176503D02*
X12404132Y-21166979D01*
X12423180Y-21138408D01*
X12432704Y-21119360D01*
X12442228Y-21090789D01*
X12451751Y-21043170D01*
X12451751Y-21005074D01*
X12442228Y-20957455D01*
X12432704Y-20928884D01*
X12423180Y-20909836D01*
X12404132Y-20881265D01*
X12394608Y-20871741D01*
D10*
X7522704Y-21223836D02*
X7622704Y-21323836D01*
X7622704Y-21223836D02*
X7522704Y-21323836D01*
X7572704Y-21223836D02*
X7572704Y-21323836D01*
X7522704Y-21273836D02*
X7622704Y-21273836D01*
D11*
X7985085Y-21364312D02*
X7870799Y-21364312D01*
X7927942Y-21364312D02*
X7927942Y-21164312D01*
X7908894Y-21192884D01*
X7889847Y-21211931D01*
X7870799Y-21221455D01*
X8070799Y-21345265D02*
X8080323Y-21354789D01*
X8070799Y-21364312D01*
X8061275Y-21354789D01*
X8070799Y-21345265D01*
X8070799Y-21364312D01*
X8204132Y-21164312D02*
X8223180Y-21164312D01*
X8242228Y-21173836D01*
X8251751Y-21183360D01*
X8261275Y-21202408D01*
X8270799Y-21240503D01*
X8270799Y-21288122D01*
X8261275Y-21326217D01*
X8251751Y-21345265D01*
X8242228Y-21354789D01*
X8223180Y-21364312D01*
X8204132Y-21364312D01*
X8185085Y-21354789D01*
X8175561Y-21345265D01*
X8166037Y-21326217D01*
X8156513Y-21288122D01*
X8156513Y-21240503D01*
X8166037Y-21202408D01*
X8175561Y-21183360D01*
X8185085Y-21173836D01*
X8204132Y-21164312D01*
X8394609Y-21164312D02*
X8413656Y-21164312D01*
X8432704Y-21173836D01*
X8442228Y-21183360D01*
X8451751Y-21202408D01*
X8461275Y-21240503D01*
X8461275Y-21288122D01*
X8451751Y-21326217D01*
X8442228Y-21345265D01*
X8432704Y-21354789D01*
X8413656Y-21364312D01*
X8394609Y-21364312D01*
X8375561Y-21354789D01*
X8366037Y-21345265D01*
X8356513Y-21326217D01*
X8346989Y-21288122D01*
X8346989Y-21240503D01*
X8356513Y-21202408D01*
X8366037Y-21183360D01*
X8375561Y-21173836D01*
X8394609Y-21164312D01*
X8585085Y-21164312D02*
X8604132Y-21164312D01*
X8623180Y-21173836D01*
X8632704Y-21183360D01*
X8642228Y-21202408D01*
X8651751Y-21240503D01*
X8651751Y-21288122D01*
X8642228Y-21326217D01*
X8632704Y-21345265D01*
X8623180Y-21354789D01*
X8604132Y-21364312D01*
X8585085Y-21364312D01*
X8566037Y-21354789D01*
X8556513Y-21345265D01*
X8546990Y-21326217D01*
X8537466Y-21288122D01*
X8537466Y-21240503D01*
X8546990Y-21202408D01*
X8556513Y-21183360D01*
X8566037Y-21173836D01*
X8585085Y-21164312D01*
X8737466Y-21364312D02*
X8737466Y-21230979D01*
X8737466Y-21250027D02*
X8746990Y-21240503D01*
X8766037Y-21230979D01*
X8794609Y-21230979D01*
X8813656Y-21240503D01*
X8823180Y-21259550D01*
X8823180Y-21364312D01*
X8823180Y-21259550D02*
X8832704Y-21240503D01*
X8851751Y-21230979D01*
X8880323Y-21230979D01*
X8899370Y-21240503D01*
X8908894Y-21259550D01*
X8908894Y-21364312D01*
X9004132Y-21364312D02*
X9004132Y-21230979D01*
X9004132Y-21250027D02*
X9013656Y-21240503D01*
X9032704Y-21230979D01*
X9061275Y-21230979D01*
X9080323Y-21240503D01*
X9089847Y-21259550D01*
X9089847Y-21364312D01*
X9089847Y-21259550D02*
X9099370Y-21240503D01*
X9118418Y-21230979D01*
X9146990Y-21230979D01*
X9166037Y-21240503D01*
X9175561Y-21259550D01*
X9175561Y-21364312D01*
X9566037Y-21154789D02*
X9394609Y-21411931D01*
X9823180Y-21164312D02*
X9842228Y-21164312D01*
X9861275Y-21173836D01*
X9870799Y-21183360D01*
X9880323Y-21202408D01*
X9889847Y-21240503D01*
X9889847Y-21288122D01*
X9880323Y-21326217D01*
X9870799Y-21345265D01*
X9861275Y-21354789D01*
X9842228Y-21364312D01*
X9823180Y-21364312D01*
X9804132Y-21354789D01*
X9794609Y-21345265D01*
X9785085Y-21326217D01*
X9775561Y-21288122D01*
X9775561Y-21240503D01*
X9785085Y-21202408D01*
X9794609Y-21183360D01*
X9804132Y-21173836D01*
X9823180Y-21164312D01*
X9975561Y-21345265D02*
X9985085Y-21354789D01*
X9975561Y-21364312D01*
X9966037Y-21354789D01*
X9975561Y-21345265D01*
X9975561Y-21364312D01*
X10108894Y-21164312D02*
X10127942Y-21164312D01*
X10146990Y-21173836D01*
X10156513Y-21183360D01*
X10166037Y-21202408D01*
X10175561Y-21240503D01*
X10175561Y-21288122D01*
X10166037Y-21326217D01*
X10156513Y-21345265D01*
X10146990Y-21354789D01*
X10127942Y-21364312D01*
X10108894Y-21364312D01*
X10089847Y-21354789D01*
X10080323Y-21345265D01*
X10070799Y-21326217D01*
X10061275Y-21288122D01*
X10061275Y-21240503D01*
X10070799Y-21202408D01*
X10080323Y-21183360D01*
X10089847Y-21173836D01*
X10108894Y-21164312D01*
X10242228Y-21164312D02*
X10366037Y-21164312D01*
X10299370Y-21240503D01*
X10327942Y-21240503D01*
X10346990Y-21250027D01*
X10356513Y-21259550D01*
X10366037Y-21278598D01*
X10366037Y-21326217D01*
X10356513Y-21345265D01*
X10346990Y-21354789D01*
X10327942Y-21364312D01*
X10270799Y-21364312D01*
X10251751Y-21354789D01*
X10242228Y-21345265D01*
X10461275Y-21364312D02*
X10499370Y-21364312D01*
X10518418Y-21354789D01*
X10527942Y-21345265D01*
X10546990Y-21316693D01*
X10556513Y-21278598D01*
X10556513Y-21202408D01*
X10546990Y-21183360D01*
X10537466Y-21173836D01*
X10518418Y-21164312D01*
X10480323Y-21164312D01*
X10461275Y-21173836D01*
X10451751Y-21183360D01*
X10442228Y-21202408D01*
X10442228Y-21250027D01*
X10451751Y-21269074D01*
X10461275Y-21278598D01*
X10480323Y-21288122D01*
X10518418Y-21288122D01*
X10537466Y-21278598D01*
X10546990Y-21269074D01*
X10556513Y-21250027D01*
X10727942Y-21230979D02*
X10727942Y-21364312D01*
X10680323Y-21154789D02*
X10632704Y-21297646D01*
X10756513Y-21297646D01*
X10823180Y-21164312D02*
X10823180Y-21202408D01*
X10899370Y-21164312D02*
X10899370Y-21202408D01*
X11194608Y-21440503D02*
X11185085Y-21430979D01*
X11166037Y-21402408D01*
X11156513Y-21383360D01*
X11146990Y-21354789D01*
X11137466Y-21307170D01*
X11137466Y-21269074D01*
X11146990Y-21221455D01*
X11156513Y-21192884D01*
X11166037Y-21173836D01*
X11185085Y-21145265D01*
X11194608Y-21135741D01*
X11375561Y-21364312D02*
X11261275Y-21364312D01*
X11318418Y-21364312D02*
X11318418Y-21164312D01*
X11299370Y-21192884D01*
X11280323Y-21211931D01*
X11261275Y-21221455D01*
X11442228Y-21164312D02*
X11566037Y-21164312D01*
X11499370Y-21240503D01*
X11527942Y-21240503D01*
X11546989Y-21250027D01*
X11556513Y-21259550D01*
X11566037Y-21278598D01*
X11566037Y-21326217D01*
X11556513Y-21345265D01*
X11546989Y-21354789D01*
X11527942Y-21364312D01*
X11470799Y-21364312D01*
X11451751Y-21354789D01*
X11442228Y-21345265D01*
X11804132Y-21364312D02*
X11804132Y-21164312D01*
X11889847Y-21364312D02*
X11889847Y-21259550D01*
X11880323Y-21240503D01*
X11861275Y-21230979D01*
X11832704Y-21230979D01*
X11813656Y-21240503D01*
X11804132Y-21250027D01*
X12013656Y-21364312D02*
X11994608Y-21354789D01*
X11985085Y-21345265D01*
X11975561Y-21326217D01*
X11975561Y-21269074D01*
X11985085Y-21250027D01*
X11994608Y-21240503D01*
X12013656Y-21230979D01*
X12042228Y-21230979D01*
X12061275Y-21240503D01*
X12070799Y-21250027D01*
X12080323Y-21269074D01*
X12080323Y-21326217D01*
X12070799Y-21345265D01*
X12061275Y-21354789D01*
X12042228Y-21364312D01*
X12013656Y-21364312D01*
X12194608Y-21364312D02*
X12175561Y-21354789D01*
X12166037Y-21335741D01*
X12166037Y-21164312D01*
X12346989Y-21354789D02*
X12327942Y-21364312D01*
X12289847Y-21364312D01*
X12270799Y-21354789D01*
X12261275Y-21335741D01*
X12261275Y-21259550D01*
X12270799Y-21240503D01*
X12289847Y-21230979D01*
X12327942Y-21230979D01*
X12346989Y-21240503D01*
X12356513Y-21259550D01*
X12356513Y-21278598D01*
X12261275Y-21297646D01*
X12432704Y-21354789D02*
X12451751Y-21364312D01*
X12489847Y-21364312D01*
X12508894Y-21354789D01*
X12518418Y-21335741D01*
X12518418Y-21326217D01*
X12508894Y-21307170D01*
X12489847Y-21297646D01*
X12461275Y-21297646D01*
X12442228Y-21288122D01*
X12432704Y-21269074D01*
X12432704Y-21259550D01*
X12442228Y-21240503D01*
X12461275Y-21230979D01*
X12489847Y-21230979D01*
X12508894Y-21240503D01*
X12756513Y-21288122D02*
X12908894Y-21288122D01*
X12832704Y-21364312D02*
X12832704Y-21211931D01*
X13137466Y-21164312D02*
X13261275Y-21164312D01*
X13194608Y-21240503D01*
X13223180Y-21240503D01*
X13242228Y-21250027D01*
X13251751Y-21259550D01*
X13261275Y-21278598D01*
X13261275Y-21326217D01*
X13251751Y-21345265D01*
X13242228Y-21354789D01*
X13223180Y-21364312D01*
X13166037Y-21364312D01*
X13146989Y-21354789D01*
X13137466Y-21345265D01*
X13489847Y-21354789D02*
X13508894Y-21364312D01*
X13546989Y-21364312D01*
X13566037Y-21354789D01*
X13575561Y-21335741D01*
X13575561Y-21326217D01*
X13566037Y-21307170D01*
X13546989Y-21297646D01*
X13518418Y-21297646D01*
X13499370Y-21288122D01*
X13489847Y-21269074D01*
X13489847Y-21259550D01*
X13499370Y-21240503D01*
X13518418Y-21230979D01*
X13546989Y-21230979D01*
X13566037Y-21240503D01*
X13689847Y-21364312D02*
X13670799Y-21354789D01*
X13661275Y-21335741D01*
X13661275Y-21164312D01*
X13794608Y-21364312D02*
X13775561Y-21354789D01*
X13766037Y-21345265D01*
X13756513Y-21326217D01*
X13756513Y-21269074D01*
X13766037Y-21250027D01*
X13775561Y-21240503D01*
X13794608Y-21230979D01*
X13823180Y-21230979D01*
X13842228Y-21240503D01*
X13851751Y-21250027D01*
X13861275Y-21269074D01*
X13861275Y-21326217D01*
X13851751Y-21345265D01*
X13842228Y-21354789D01*
X13823180Y-21364312D01*
X13794608Y-21364312D01*
X13918418Y-21230979D02*
X13994608Y-21230979D01*
X13946989Y-21164312D02*
X13946989Y-21335741D01*
X13956513Y-21354789D01*
X13975561Y-21364312D01*
X13994608Y-21364312D01*
X14051751Y-21354789D02*
X14070799Y-21364312D01*
X14108894Y-21364312D01*
X14127942Y-21354789D01*
X14137466Y-21335741D01*
X14137466Y-21326217D01*
X14127942Y-21307170D01*
X14108894Y-21297646D01*
X14080323Y-21297646D01*
X14061275Y-21288122D01*
X14051751Y-21269074D01*
X14051751Y-21259550D01*
X14061275Y-21240503D01*
X14080323Y-21230979D01*
X14108894Y-21230979D01*
X14127942Y-21240503D01*
X14204132Y-21440503D02*
X14213656Y-21430979D01*
X14232704Y-21402408D01*
X14242228Y-21383360D01*
X14251751Y-21354789D01*
X14261275Y-21307170D01*
X14261275Y-21269074D01*
X14251751Y-21221455D01*
X14242228Y-21192884D01*
X14232704Y-21173836D01*
X14213656Y-21145265D01*
X14204132Y-21135741D01*
D18*
X7502704Y-21477836D02*
X7622704Y-21597836D01*
X7622704Y-21477836D02*
X7502704Y-21597836D01*
X7605131Y-21580263D02*
X7605131Y-21495409D01*
X7520277Y-21495409D01*
X7520277Y-21580263D01*
X7605131Y-21580263D01*
D11*
X7985085Y-21628312D02*
X7870799Y-21628312D01*
X7927942Y-21628312D02*
X7927942Y-21428312D01*
X7908894Y-21456884D01*
X7889847Y-21475931D01*
X7870799Y-21485455D01*
X8070799Y-21609265D02*
X8080323Y-21618789D01*
X8070799Y-21628312D01*
X8061275Y-21618789D01*
X8070799Y-21609265D01*
X8070799Y-21628312D01*
X8156513Y-21447360D02*
X8166037Y-21437836D01*
X8185085Y-21428312D01*
X8232704Y-21428312D01*
X8251751Y-21437836D01*
X8261275Y-21447360D01*
X8270799Y-21466408D01*
X8270799Y-21485455D01*
X8261275Y-21514027D01*
X8146989Y-21628312D01*
X8270799Y-21628312D01*
X8394609Y-21428312D02*
X8413656Y-21428312D01*
X8432704Y-21437836D01*
X8442228Y-21447360D01*
X8451751Y-21466408D01*
X8461275Y-21504503D01*
X8461275Y-21552122D01*
X8451751Y-21590217D01*
X8442228Y-21609265D01*
X8432704Y-21618789D01*
X8413656Y-21628312D01*
X8394609Y-21628312D01*
X8375561Y-21618789D01*
X8366037Y-21609265D01*
X8356513Y-21590217D01*
X8346989Y-21552122D01*
X8346989Y-21504503D01*
X8356513Y-21466408D01*
X8366037Y-21447360D01*
X8375561Y-21437836D01*
X8394609Y-21428312D01*
X8585085Y-21428312D02*
X8604132Y-21428312D01*
X8623180Y-21437836D01*
X8632704Y-21447360D01*
X8642228Y-21466408D01*
X8651751Y-21504503D01*
X8651751Y-21552122D01*
X8642228Y-21590217D01*
X8632704Y-21609265D01*
X8623180Y-21618789D01*
X8604132Y-21628312D01*
X8585085Y-21628312D01*
X8566037Y-21618789D01*
X8556513Y-21609265D01*
X8546990Y-21590217D01*
X8537466Y-21552122D01*
X8537466Y-21504503D01*
X8546990Y-21466408D01*
X8556513Y-21447360D01*
X8566037Y-21437836D01*
X8585085Y-21428312D01*
X8737466Y-21628312D02*
X8737466Y-21494979D01*
X8737466Y-21514027D02*
X8746990Y-21504503D01*
X8766037Y-21494979D01*
X8794609Y-21494979D01*
X8813656Y-21504503D01*
X8823180Y-21523550D01*
X8823180Y-21628312D01*
X8823180Y-21523550D02*
X8832704Y-21504503D01*
X8851751Y-21494979D01*
X8880323Y-21494979D01*
X8899370Y-21504503D01*
X8908894Y-21523550D01*
X8908894Y-21628312D01*
X9004132Y-21628312D02*
X9004132Y-21494979D01*
X9004132Y-21514027D02*
X9013656Y-21504503D01*
X9032704Y-21494979D01*
X9061275Y-21494979D01*
X9080323Y-21504503D01*
X9089847Y-21523550D01*
X9089847Y-21628312D01*
X9089847Y-21523550D02*
X9099370Y-21504503D01*
X9118418Y-21494979D01*
X9146990Y-21494979D01*
X9166037Y-21504503D01*
X9175561Y-21523550D01*
X9175561Y-21628312D01*
X9566037Y-21418789D02*
X9394609Y-21675931D01*
X9823180Y-21428312D02*
X9842228Y-21428312D01*
X9861275Y-21437836D01*
X9870799Y-21447360D01*
X9880323Y-21466408D01*
X9889847Y-21504503D01*
X9889847Y-21552122D01*
X9880323Y-21590217D01*
X9870799Y-21609265D01*
X9861275Y-21618789D01*
X9842228Y-21628312D01*
X9823180Y-21628312D01*
X9804132Y-21618789D01*
X9794609Y-21609265D01*
X9785085Y-21590217D01*
X9775561Y-21552122D01*
X9775561Y-21504503D01*
X9785085Y-21466408D01*
X9794609Y-21447360D01*
X9804132Y-21437836D01*
X9823180Y-21428312D01*
X9975561Y-21609265D02*
X9985085Y-21618789D01*
X9975561Y-21628312D01*
X9966037Y-21618789D01*
X9975561Y-21609265D01*
X9975561Y-21628312D01*
X10108894Y-21428312D02*
X10127942Y-21428312D01*
X10146990Y-21437836D01*
X10156513Y-21447360D01*
X10166037Y-21466408D01*
X10175561Y-21504503D01*
X10175561Y-21552122D01*
X10166037Y-21590217D01*
X10156513Y-21609265D01*
X10146990Y-21618789D01*
X10127942Y-21628312D01*
X10108894Y-21628312D01*
X10089847Y-21618789D01*
X10080323Y-21609265D01*
X10070799Y-21590217D01*
X10061275Y-21552122D01*
X10061275Y-21504503D01*
X10070799Y-21466408D01*
X10080323Y-21447360D01*
X10089847Y-21437836D01*
X10108894Y-21428312D01*
X10346990Y-21494979D02*
X10346990Y-21628312D01*
X10299370Y-21418789D02*
X10251751Y-21561646D01*
X10375561Y-21561646D01*
X10432704Y-21428312D02*
X10566037Y-21428312D01*
X10480323Y-21628312D01*
X10632704Y-21447360D02*
X10642228Y-21437836D01*
X10661275Y-21428312D01*
X10708894Y-21428312D01*
X10727942Y-21437836D01*
X10737466Y-21447360D01*
X10746990Y-21466408D01*
X10746990Y-21485455D01*
X10737466Y-21514027D01*
X10623180Y-21628312D01*
X10746990Y-21628312D01*
X10823180Y-21428312D02*
X10823180Y-21466408D01*
X10899370Y-21428312D02*
X10899370Y-21466408D01*
X11194608Y-21704503D02*
X11185085Y-21694979D01*
X11166037Y-21666408D01*
X11156513Y-21647360D01*
X11146990Y-21618789D01*
X11137466Y-21571170D01*
X11137466Y-21533074D01*
X11146990Y-21485455D01*
X11156513Y-21456884D01*
X11166037Y-21437836D01*
X11185085Y-21409265D01*
X11194608Y-21399741D01*
X11375561Y-21628312D02*
X11261275Y-21628312D01*
X11318418Y-21628312D02*
X11318418Y-21428312D01*
X11299370Y-21456884D01*
X11280323Y-21475931D01*
X11261275Y-21485455D01*
X11546989Y-21428312D02*
X11508894Y-21428312D01*
X11489847Y-21437836D01*
X11480323Y-21447360D01*
X11461275Y-21475931D01*
X11451751Y-21514027D01*
X11451751Y-21590217D01*
X11461275Y-21609265D01*
X11470799Y-21618789D01*
X11489847Y-21628312D01*
X11527942Y-21628312D01*
X11546989Y-21618789D01*
X11556513Y-21609265D01*
X11566037Y-21590217D01*
X11566037Y-21542598D01*
X11556513Y-21523550D01*
X11546989Y-21514027D01*
X11527942Y-21504503D01*
X11489847Y-21504503D01*
X11470799Y-21514027D01*
X11461275Y-21523550D01*
X11451751Y-21542598D01*
X11804132Y-21628312D02*
X11804132Y-21428312D01*
X11889847Y-21628312D02*
X11889847Y-21523550D01*
X11880323Y-21504503D01*
X11861275Y-21494979D01*
X11832704Y-21494979D01*
X11813656Y-21504503D01*
X11804132Y-21514027D01*
X12013656Y-21628312D02*
X11994608Y-21618789D01*
X11985085Y-21609265D01*
X11975561Y-21590217D01*
X11975561Y-21533074D01*
X11985085Y-21514027D01*
X11994608Y-21504503D01*
X12013656Y-21494979D01*
X12042228Y-21494979D01*
X12061275Y-21504503D01*
X12070799Y-21514027D01*
X12080323Y-21533074D01*
X12080323Y-21590217D01*
X12070799Y-21609265D01*
X12061275Y-21618789D01*
X12042228Y-21628312D01*
X12013656Y-21628312D01*
X12194608Y-21628312D02*
X12175561Y-21618789D01*
X12166037Y-21599741D01*
X12166037Y-21428312D01*
X12346989Y-21618789D02*
X12327942Y-21628312D01*
X12289847Y-21628312D01*
X12270799Y-21618789D01*
X12261275Y-21599741D01*
X12261275Y-21523550D01*
X12270799Y-21504503D01*
X12289847Y-21494979D01*
X12327942Y-21494979D01*
X12346989Y-21504503D01*
X12356513Y-21523550D01*
X12356513Y-21542598D01*
X12261275Y-21561646D01*
X12432704Y-21618789D02*
X12451751Y-21628312D01*
X12489847Y-21628312D01*
X12508894Y-21618789D01*
X12518418Y-21599741D01*
X12518418Y-21590217D01*
X12508894Y-21571170D01*
X12489847Y-21561646D01*
X12461275Y-21561646D01*
X12442228Y-21552122D01*
X12432704Y-21533074D01*
X12432704Y-21523550D01*
X12442228Y-21504503D01*
X12461275Y-21494979D01*
X12489847Y-21494979D01*
X12508894Y-21504503D01*
X12585085Y-21704503D02*
X12594608Y-21694979D01*
X12613656Y-21666408D01*
X12623180Y-21647360D01*
X12632704Y-21618789D01*
X12642228Y-21571170D01*
X12642228Y-21533074D01*
X12632704Y-21485455D01*
X12623180Y-21456884D01*
X12613656Y-21437836D01*
X12594608Y-21409265D01*
X12585085Y-21399741D01*
D19*
X7472704Y-21726836D02*
X7622704Y-21876836D01*
X7622704Y-21726836D02*
X7472704Y-21876836D01*
X7547704Y-21876836D02*
X7622704Y-21801836D01*
X7547704Y-21726836D01*
X7472704Y-21801836D01*
X7547704Y-21876836D01*
D11*
X7985085Y-21892312D02*
X7870799Y-21892312D01*
X7927942Y-21892312D02*
X7927942Y-21692312D01*
X7908894Y-21720884D01*
X7889847Y-21739931D01*
X7870799Y-21749455D01*
X8070799Y-21873265D02*
X8080323Y-21882789D01*
X8070799Y-21892312D01*
X8061275Y-21882789D01*
X8070799Y-21873265D01*
X8070799Y-21892312D01*
X8261275Y-21692312D02*
X8166037Y-21692312D01*
X8156513Y-21787550D01*
X8166037Y-21778027D01*
X8185085Y-21768503D01*
X8232704Y-21768503D01*
X8251751Y-21778027D01*
X8261275Y-21787550D01*
X8270799Y-21806598D01*
X8270799Y-21854217D01*
X8261275Y-21873265D01*
X8251751Y-21882789D01*
X8232704Y-21892312D01*
X8185085Y-21892312D01*
X8166037Y-21882789D01*
X8156513Y-21873265D01*
X8394609Y-21692312D02*
X8413656Y-21692312D01*
X8432704Y-21701836D01*
X8442228Y-21711360D01*
X8451751Y-21730408D01*
X8461275Y-21768503D01*
X8461275Y-21816122D01*
X8451751Y-21854217D01*
X8442228Y-21873265D01*
X8432704Y-21882789D01*
X8413656Y-21892312D01*
X8394609Y-21892312D01*
X8375561Y-21882789D01*
X8366037Y-21873265D01*
X8356513Y-21854217D01*
X8346989Y-21816122D01*
X8346989Y-21768503D01*
X8356513Y-21730408D01*
X8366037Y-21711360D01*
X8375561Y-21701836D01*
X8394609Y-21692312D01*
X8585085Y-21692312D02*
X8604132Y-21692312D01*
X8623180Y-21701836D01*
X8632704Y-21711360D01*
X8642228Y-21730408D01*
X8651751Y-21768503D01*
X8651751Y-21816122D01*
X8642228Y-21854217D01*
X8632704Y-21873265D01*
X8623180Y-21882789D01*
X8604132Y-21892312D01*
X8585085Y-21892312D01*
X8566037Y-21882789D01*
X8556513Y-21873265D01*
X8546990Y-21854217D01*
X8537466Y-21816122D01*
X8537466Y-21768503D01*
X8546990Y-21730408D01*
X8556513Y-21711360D01*
X8566037Y-21701836D01*
X8585085Y-21692312D01*
X8737466Y-21892312D02*
X8737466Y-21758979D01*
X8737466Y-21778027D02*
X8746990Y-21768503D01*
X8766037Y-21758979D01*
X8794609Y-21758979D01*
X8813656Y-21768503D01*
X8823180Y-21787550D01*
X8823180Y-21892312D01*
X8823180Y-21787550D02*
X8832704Y-21768503D01*
X8851751Y-21758979D01*
X8880323Y-21758979D01*
X8899370Y-21768503D01*
X8908894Y-21787550D01*
X8908894Y-21892312D01*
X9004132Y-21892312D02*
X9004132Y-21758979D01*
X9004132Y-21778027D02*
X9013656Y-21768503D01*
X9032704Y-21758979D01*
X9061275Y-21758979D01*
X9080323Y-21768503D01*
X9089847Y-21787550D01*
X9089847Y-21892312D01*
X9089847Y-21787550D02*
X9099370Y-21768503D01*
X9118418Y-21758979D01*
X9146990Y-21758979D01*
X9166037Y-21768503D01*
X9175561Y-21787550D01*
X9175561Y-21892312D01*
X9566037Y-21682789D02*
X9394609Y-21939931D01*
X9823180Y-21692312D02*
X9842228Y-21692312D01*
X9861275Y-21701836D01*
X9870799Y-21711360D01*
X9880323Y-21730408D01*
X9889847Y-21768503D01*
X9889847Y-21816122D01*
X9880323Y-21854217D01*
X9870799Y-21873265D01*
X9861275Y-21882789D01*
X9842228Y-21892312D01*
X9823180Y-21892312D01*
X9804132Y-21882789D01*
X9794609Y-21873265D01*
X9785085Y-21854217D01*
X9775561Y-21816122D01*
X9775561Y-21768503D01*
X9785085Y-21730408D01*
X9794609Y-21711360D01*
X9804132Y-21701836D01*
X9823180Y-21692312D01*
X9975561Y-21873265D02*
X9985085Y-21882789D01*
X9975561Y-21892312D01*
X9966037Y-21882789D01*
X9975561Y-21873265D01*
X9975561Y-21892312D01*
X10108894Y-21692312D02*
X10127942Y-21692312D01*
X10146990Y-21701836D01*
X10156513Y-21711360D01*
X10166037Y-21730408D01*
X10175561Y-21768503D01*
X10175561Y-21816122D01*
X10166037Y-21854217D01*
X10156513Y-21873265D01*
X10146990Y-21882789D01*
X10127942Y-21892312D01*
X10108894Y-21892312D01*
X10089847Y-21882789D01*
X10080323Y-21873265D01*
X10070799Y-21854217D01*
X10061275Y-21816122D01*
X10061275Y-21768503D01*
X10070799Y-21730408D01*
X10080323Y-21711360D01*
X10089847Y-21701836D01*
X10108894Y-21692312D01*
X10356513Y-21692312D02*
X10261275Y-21692312D01*
X10251751Y-21787550D01*
X10261275Y-21778027D01*
X10280323Y-21768503D01*
X10327942Y-21768503D01*
X10346990Y-21778027D01*
X10356513Y-21787550D01*
X10366037Y-21806598D01*
X10366037Y-21854217D01*
X10356513Y-21873265D01*
X10346990Y-21882789D01*
X10327942Y-21892312D01*
X10280323Y-21892312D01*
X10261275Y-21882789D01*
X10251751Y-21873265D01*
X10461275Y-21892312D02*
X10499370Y-21892312D01*
X10518418Y-21882789D01*
X10527942Y-21873265D01*
X10546990Y-21844693D01*
X10556513Y-21806598D01*
X10556513Y-21730408D01*
X10546990Y-21711360D01*
X10537466Y-21701836D01*
X10518418Y-21692312D01*
X10480323Y-21692312D01*
X10461275Y-21701836D01*
X10451751Y-21711360D01*
X10442228Y-21730408D01*
X10442228Y-21778027D01*
X10451751Y-21797074D01*
X10461275Y-21806598D01*
X10480323Y-21816122D01*
X10518418Y-21816122D01*
X10537466Y-21806598D01*
X10546990Y-21797074D01*
X10556513Y-21778027D01*
X10746990Y-21892312D02*
X10632704Y-21892312D01*
X10689847Y-21892312D02*
X10689847Y-21692312D01*
X10670799Y-21720884D01*
X10651751Y-21739931D01*
X10632704Y-21749455D01*
X10823180Y-21692312D02*
X10823180Y-21730408D01*
X10899370Y-21692312D02*
X10899370Y-21730408D01*
X11194608Y-21968503D02*
X11185085Y-21958979D01*
X11166037Y-21930408D01*
X11156513Y-21911360D01*
X11146990Y-21882789D01*
X11137466Y-21835170D01*
X11137466Y-21797074D01*
X11146990Y-21749455D01*
X11156513Y-21720884D01*
X11166037Y-21701836D01*
X11185085Y-21673265D01*
X11194608Y-21663741D01*
X11356513Y-21758979D02*
X11356513Y-21892312D01*
X11308894Y-21682789D02*
X11261275Y-21825646D01*
X11385085Y-21825646D01*
X11499370Y-21692312D02*
X11518418Y-21692312D01*
X11537466Y-21701836D01*
X11546989Y-21711360D01*
X11556513Y-21730408D01*
X11566037Y-21768503D01*
X11566037Y-21816122D01*
X11556513Y-21854217D01*
X11546989Y-21873265D01*
X11537466Y-21882789D01*
X11518418Y-21892312D01*
X11499370Y-21892312D01*
X11480323Y-21882789D01*
X11470799Y-21873265D01*
X11461275Y-21854217D01*
X11451751Y-21816122D01*
X11451751Y-21768503D01*
X11461275Y-21730408D01*
X11470799Y-21711360D01*
X11480323Y-21701836D01*
X11499370Y-21692312D01*
X11804132Y-21892312D02*
X11804132Y-21692312D01*
X11889847Y-21892312D02*
X11889847Y-21787550D01*
X11880323Y-21768503D01*
X11861275Y-21758979D01*
X11832704Y-21758979D01*
X11813656Y-21768503D01*
X11804132Y-21778027D01*
X12013656Y-21892312D02*
X11994608Y-21882789D01*
X11985085Y-21873265D01*
X11975561Y-21854217D01*
X11975561Y-21797074D01*
X11985085Y-21778027D01*
X11994608Y-21768503D01*
X12013656Y-21758979D01*
X12042228Y-21758979D01*
X12061275Y-21768503D01*
X12070799Y-21778027D01*
X12080323Y-21797074D01*
X12080323Y-21854217D01*
X12070799Y-21873265D01*
X12061275Y-21882789D01*
X12042228Y-21892312D01*
X12013656Y-21892312D01*
X12194608Y-21892312D02*
X12175561Y-21882789D01*
X12166037Y-21863741D01*
X12166037Y-21692312D01*
X12346989Y-21882789D02*
X12327942Y-21892312D01*
X12289847Y-21892312D01*
X12270799Y-21882789D01*
X12261275Y-21863741D01*
X12261275Y-21787550D01*
X12270799Y-21768503D01*
X12289847Y-21758979D01*
X12327942Y-21758979D01*
X12346989Y-21768503D01*
X12356513Y-21787550D01*
X12356513Y-21806598D01*
X12261275Y-21825646D01*
X12432704Y-21882789D02*
X12451751Y-21892312D01*
X12489847Y-21892312D01*
X12508894Y-21882789D01*
X12518418Y-21863741D01*
X12518418Y-21854217D01*
X12508894Y-21835170D01*
X12489847Y-21825646D01*
X12461275Y-21825646D01*
X12442228Y-21816122D01*
X12432704Y-21797074D01*
X12432704Y-21787550D01*
X12442228Y-21768503D01*
X12461275Y-21758979D01*
X12489847Y-21758979D01*
X12508894Y-21768503D01*
X12585085Y-21968503D02*
X12594608Y-21958979D01*
X12613656Y-21930408D01*
X12623180Y-21911360D01*
X12632704Y-21882789D01*
X12642228Y-21835170D01*
X12642228Y-21797074D01*
X12632704Y-21749455D01*
X12623180Y-21720884D01*
X12613656Y-21701836D01*
X12594608Y-21673265D01*
X12585085Y-21663741D01*
X7522704Y-21971836D02*
X7522704Y-22171836D01*
X7422704Y-22071836D02*
X7622704Y-22071836D01*
X7622704Y-22071836D02*
G75*
G03*
X7622704Y-22071836I-100000J0D01*
G01*
X7870799Y-21981360D02*
X7880323Y-21971836D01*
X7899370Y-21962312D01*
X7946989Y-21962312D01*
X7966037Y-21971836D01*
X7975561Y-21981360D01*
X7985085Y-22000408D01*
X7985085Y-22019455D01*
X7975561Y-22048027D01*
X7861275Y-22162312D01*
X7985085Y-22162312D01*
X8070799Y-22143265D02*
X8080323Y-22152789D01*
X8070799Y-22162312D01*
X8061275Y-22152789D01*
X8070799Y-22143265D01*
X8070799Y-22162312D01*
X8261275Y-21962312D02*
X8166037Y-21962312D01*
X8156513Y-22057550D01*
X8166037Y-22048027D01*
X8185085Y-22038503D01*
X8232704Y-22038503D01*
X8251751Y-22048027D01*
X8261275Y-22057550D01*
X8270799Y-22076598D01*
X8270799Y-22124217D01*
X8261275Y-22143265D01*
X8251751Y-22152789D01*
X8232704Y-22162312D01*
X8185085Y-22162312D01*
X8166037Y-22152789D01*
X8156513Y-22143265D01*
X8394609Y-21962312D02*
X8413656Y-21962312D01*
X8432704Y-21971836D01*
X8442228Y-21981360D01*
X8451751Y-22000408D01*
X8461275Y-22038503D01*
X8461275Y-22086122D01*
X8451751Y-22124217D01*
X8442228Y-22143265D01*
X8432704Y-22152789D01*
X8413656Y-22162312D01*
X8394609Y-22162312D01*
X8375561Y-22152789D01*
X8366037Y-22143265D01*
X8356513Y-22124217D01*
X8346989Y-22086122D01*
X8346989Y-22038503D01*
X8356513Y-22000408D01*
X8366037Y-21981360D01*
X8375561Y-21971836D01*
X8394609Y-21962312D01*
X8585085Y-21962312D02*
X8604132Y-21962312D01*
X8623180Y-21971836D01*
X8632704Y-21981360D01*
X8642228Y-22000408D01*
X8651751Y-22038503D01*
X8651751Y-22086122D01*
X8642228Y-22124217D01*
X8632704Y-22143265D01*
X8623180Y-22152789D01*
X8604132Y-22162312D01*
X8585085Y-22162312D01*
X8566037Y-22152789D01*
X8556513Y-22143265D01*
X8546990Y-22124217D01*
X8537466Y-22086122D01*
X8537466Y-22038503D01*
X8546990Y-22000408D01*
X8556513Y-21981360D01*
X8566037Y-21971836D01*
X8585085Y-21962312D01*
X8737466Y-22162312D02*
X8737466Y-22028979D01*
X8737466Y-22048027D02*
X8746990Y-22038503D01*
X8766037Y-22028979D01*
X8794609Y-22028979D01*
X8813656Y-22038503D01*
X8823180Y-22057550D01*
X8823180Y-22162312D01*
X8823180Y-22057550D02*
X8832704Y-22038503D01*
X8851751Y-22028979D01*
X8880323Y-22028979D01*
X8899370Y-22038503D01*
X8908894Y-22057550D01*
X8908894Y-22162312D01*
X9004132Y-22162312D02*
X9004132Y-22028979D01*
X9004132Y-22048027D02*
X9013656Y-22038503D01*
X9032704Y-22028979D01*
X9061275Y-22028979D01*
X9080323Y-22038503D01*
X9089847Y-22057550D01*
X9089847Y-22162312D01*
X9089847Y-22057550D02*
X9099370Y-22038503D01*
X9118418Y-22028979D01*
X9146990Y-22028979D01*
X9166037Y-22038503D01*
X9175561Y-22057550D01*
X9175561Y-22162312D01*
X9566037Y-21952789D02*
X9394609Y-22209931D01*
X9823180Y-21962312D02*
X9842228Y-21962312D01*
X9861275Y-21971836D01*
X9870799Y-21981360D01*
X9880323Y-22000408D01*
X9889847Y-22038503D01*
X9889847Y-22086122D01*
X9880323Y-22124217D01*
X9870799Y-22143265D01*
X9861275Y-22152789D01*
X9842228Y-22162312D01*
X9823180Y-22162312D01*
X9804132Y-22152789D01*
X9794609Y-22143265D01*
X9785085Y-22124217D01*
X9775561Y-22086122D01*
X9775561Y-22038503D01*
X9785085Y-22000408D01*
X9794609Y-21981360D01*
X9804132Y-21971836D01*
X9823180Y-21962312D01*
X9975561Y-22143265D02*
X9985085Y-22152789D01*
X9975561Y-22162312D01*
X9966037Y-22152789D01*
X9975561Y-22143265D01*
X9975561Y-22162312D01*
X10108894Y-21962312D02*
X10127942Y-21962312D01*
X10146990Y-21971836D01*
X10156513Y-21981360D01*
X10166037Y-22000408D01*
X10175561Y-22038503D01*
X10175561Y-22086122D01*
X10166037Y-22124217D01*
X10156513Y-22143265D01*
X10146990Y-22152789D01*
X10127942Y-22162312D01*
X10108894Y-22162312D01*
X10089847Y-22152789D01*
X10080323Y-22143265D01*
X10070799Y-22124217D01*
X10061275Y-22086122D01*
X10061275Y-22038503D01*
X10070799Y-22000408D01*
X10080323Y-21981360D01*
X10089847Y-21971836D01*
X10108894Y-21962312D01*
X10270799Y-22162312D02*
X10308894Y-22162312D01*
X10327942Y-22152789D01*
X10337466Y-22143265D01*
X10356513Y-22114693D01*
X10366037Y-22076598D01*
X10366037Y-22000408D01*
X10356513Y-21981360D01*
X10346990Y-21971836D01*
X10327942Y-21962312D01*
X10289847Y-21962312D01*
X10270799Y-21971836D01*
X10261275Y-21981360D01*
X10251751Y-22000408D01*
X10251751Y-22048027D01*
X10261275Y-22067074D01*
X10270799Y-22076598D01*
X10289847Y-22086122D01*
X10327942Y-22086122D01*
X10346990Y-22076598D01*
X10356513Y-22067074D01*
X10366037Y-22048027D01*
X10480323Y-22048027D02*
X10461275Y-22038503D01*
X10451751Y-22028979D01*
X10442228Y-22009931D01*
X10442228Y-22000408D01*
X10451751Y-21981360D01*
X10461275Y-21971836D01*
X10480323Y-21962312D01*
X10518418Y-21962312D01*
X10537466Y-21971836D01*
X10546990Y-21981360D01*
X10556513Y-22000408D01*
X10556513Y-22009931D01*
X10546990Y-22028979D01*
X10537466Y-22038503D01*
X10518418Y-22048027D01*
X10480323Y-22048027D01*
X10461275Y-22057550D01*
X10451751Y-22067074D01*
X10442228Y-22086122D01*
X10442228Y-22124217D01*
X10451751Y-22143265D01*
X10461275Y-22152789D01*
X10480323Y-22162312D01*
X10518418Y-22162312D01*
X10537466Y-22152789D01*
X10546990Y-22143265D01*
X10556513Y-22124217D01*
X10556513Y-22086122D01*
X10546990Y-22067074D01*
X10537466Y-22057550D01*
X10518418Y-22048027D01*
X10727942Y-22028979D02*
X10727942Y-22162312D01*
X10680323Y-21952789D02*
X10632704Y-22095646D01*
X10756513Y-22095646D01*
X10823180Y-21962312D02*
X10823180Y-22000408D01*
X10899370Y-21962312D02*
X10899370Y-22000408D01*
X11194608Y-22238503D02*
X11185085Y-22228979D01*
X11166037Y-22200408D01*
X11156513Y-22181360D01*
X11146990Y-22152789D01*
X11137466Y-22105170D01*
X11137466Y-22067074D01*
X11146990Y-22019455D01*
X11156513Y-21990884D01*
X11166037Y-21971836D01*
X11185085Y-21943265D01*
X11194608Y-21933741D01*
X11356513Y-21962312D02*
X11318418Y-21962312D01*
X11299370Y-21971836D01*
X11289847Y-21981360D01*
X11270799Y-22009931D01*
X11261275Y-22048027D01*
X11261275Y-22124217D01*
X11270799Y-22143265D01*
X11280323Y-22152789D01*
X11299370Y-22162312D01*
X11337466Y-22162312D01*
X11356513Y-22152789D01*
X11366037Y-22143265D01*
X11375561Y-22124217D01*
X11375561Y-22076598D01*
X11366037Y-22057550D01*
X11356513Y-22048027D01*
X11337466Y-22038503D01*
X11299370Y-22038503D01*
X11280323Y-22048027D01*
X11270799Y-22057550D01*
X11261275Y-22076598D01*
X11613656Y-22162312D02*
X11613656Y-21962312D01*
X11699370Y-22162312D02*
X11699370Y-22057550D01*
X11689847Y-22038503D01*
X11670799Y-22028979D01*
X11642228Y-22028979D01*
X11623180Y-22038503D01*
X11613656Y-22048027D01*
X11823180Y-22162312D02*
X11804132Y-22152789D01*
X11794608Y-22143265D01*
X11785085Y-22124217D01*
X11785085Y-22067074D01*
X11794608Y-22048027D01*
X11804132Y-22038503D01*
X11823180Y-22028979D01*
X11851751Y-22028979D01*
X11870799Y-22038503D01*
X11880323Y-22048027D01*
X11889847Y-22067074D01*
X11889847Y-22124217D01*
X11880323Y-22143265D01*
X11870799Y-22152789D01*
X11851751Y-22162312D01*
X11823180Y-22162312D01*
X12004132Y-22162312D02*
X11985085Y-22152789D01*
X11975561Y-22133741D01*
X11975561Y-21962312D01*
X12156513Y-22152789D02*
X12137466Y-22162312D01*
X12099370Y-22162312D01*
X12080323Y-22152789D01*
X12070799Y-22133741D01*
X12070799Y-22057550D01*
X12080323Y-22038503D01*
X12099370Y-22028979D01*
X12137466Y-22028979D01*
X12156513Y-22038503D01*
X12166037Y-22057550D01*
X12166037Y-22076598D01*
X12070799Y-22095646D01*
X12242228Y-22152789D02*
X12261275Y-22162312D01*
X12299370Y-22162312D01*
X12318418Y-22152789D01*
X12327942Y-22133741D01*
X12327942Y-22124217D01*
X12318418Y-22105170D01*
X12299370Y-22095646D01*
X12270799Y-22095646D01*
X12251751Y-22086122D01*
X12242228Y-22067074D01*
X12242228Y-22057550D01*
X12251751Y-22038503D01*
X12270799Y-22028979D01*
X12299370Y-22028979D01*
X12318418Y-22038503D01*
X12394608Y-22238503D02*
X12404132Y-22228979D01*
X12423180Y-22200408D01*
X12432704Y-22181360D01*
X12442228Y-22152789D01*
X12451751Y-22105170D01*
X12451751Y-22067074D01*
X12442228Y-22019455D01*
X12432704Y-21990884D01*
X12423180Y-21971836D01*
X12404132Y-21943265D01*
X12394608Y-21933741D01*
M02*
