%TF.GenerationSoftware,KiCad,Pcbnew,(6.0.7)*%
%TF.CreationDate,2022-08-27T21:19:22-07:00*%
%TF.ProjectId,EB3,4542332e-6b69-4636-9164-5f7063625858,rev?*%
%TF.SameCoordinates,Original*%
%TF.FileFunction,Legend,Bot*%
%TF.FilePolarity,Positive*%
%FSLAX46Y46*%
G04 Gerber Fmt 4.6, Leading zero omitted, Abs format (unit mm)*
G04 Created by KiCad (PCBNEW (6.0.7)) date 2022-08-27 21:19:22*
%MOMM*%
%LPD*%
G01*
G04 APERTURE LIST*
%ADD10C,0.150000*%
G04 APERTURE END LIST*
D10*
X145729285Y-57689523D02*
X145729285Y-53689523D01*
X144776904Y-53689523D01*
X144205476Y-53880000D01*
X143824523Y-54260952D01*
X143634047Y-54641904D01*
X143443571Y-55403809D01*
X143443571Y-55975238D01*
X143634047Y-56737142D01*
X143824523Y-57118095D01*
X144205476Y-57499047D01*
X144776904Y-57689523D01*
X145729285Y-57689523D01*
X141729285Y-57689523D02*
X141729285Y-55022857D01*
X141729285Y-53689523D02*
X141919761Y-53880000D01*
X141729285Y-54070476D01*
X141538809Y-53880000D01*
X141729285Y-53689523D01*
X141729285Y-54070476D01*
X138110238Y-55022857D02*
X138110238Y-58260952D01*
X138300714Y-58641904D01*
X138491190Y-58832380D01*
X138872142Y-59022857D01*
X139443571Y-59022857D01*
X139824523Y-58832380D01*
X138110238Y-57499047D02*
X138491190Y-57689523D01*
X139253095Y-57689523D01*
X139634047Y-57499047D01*
X139824523Y-57308571D01*
X140015000Y-56927619D01*
X140015000Y-55784761D01*
X139824523Y-55403809D01*
X139634047Y-55213333D01*
X139253095Y-55022857D01*
X138491190Y-55022857D01*
X138110238Y-55213333D01*
X136205476Y-57689523D02*
X136205476Y-55022857D01*
X136205476Y-53689523D02*
X136395952Y-53880000D01*
X136205476Y-54070476D01*
X136015000Y-53880000D01*
X136205476Y-53689523D01*
X136205476Y-54070476D01*
X134872142Y-55022857D02*
X133348333Y-55022857D01*
X134300714Y-53689523D02*
X134300714Y-57118095D01*
X134110238Y-57499047D01*
X133729285Y-57689523D01*
X133348333Y-57689523D01*
X130300714Y-57689523D02*
X130300714Y-55594285D01*
X130491190Y-55213333D01*
X130872142Y-55022857D01*
X131634047Y-55022857D01*
X132015000Y-55213333D01*
X130300714Y-57499047D02*
X130681666Y-57689523D01*
X131634047Y-57689523D01*
X132015000Y-57499047D01*
X132205476Y-57118095D01*
X132205476Y-56737142D01*
X132015000Y-56356190D01*
X131634047Y-56165714D01*
X130681666Y-56165714D01*
X130300714Y-55975238D01*
X127824523Y-57689523D02*
X128205476Y-57499047D01*
X128395952Y-57118095D01*
X128395952Y-53689523D01*
X120967380Y-57308571D02*
X121157857Y-57499047D01*
X121729285Y-57689523D01*
X122110238Y-57689523D01*
X122681666Y-57499047D01*
X123062619Y-57118095D01*
X123253095Y-56737142D01*
X123443571Y-55975238D01*
X123443571Y-55403809D01*
X123253095Y-54641904D01*
X123062619Y-54260952D01*
X122681666Y-53880000D01*
X122110238Y-53689523D01*
X121729285Y-53689523D01*
X121157857Y-53880000D01*
X120967380Y-54070476D01*
X117538809Y-57689523D02*
X117538809Y-55594285D01*
X117729285Y-55213333D01*
X118110238Y-55022857D01*
X118872142Y-55022857D01*
X119253095Y-55213333D01*
X117538809Y-57499047D02*
X117919761Y-57689523D01*
X118872142Y-57689523D01*
X119253095Y-57499047D01*
X119443571Y-57118095D01*
X119443571Y-56737142D01*
X119253095Y-56356190D01*
X118872142Y-56165714D01*
X117919761Y-56165714D01*
X117538809Y-55975238D01*
X115062619Y-57689523D02*
X115443571Y-57499047D01*
X115634047Y-57118095D01*
X115634047Y-53689523D01*
X111824523Y-57499047D02*
X112205476Y-57689523D01*
X112967380Y-57689523D01*
X113348333Y-57499047D01*
X113538809Y-57308571D01*
X113729285Y-56927619D01*
X113729285Y-55784761D01*
X113538809Y-55403809D01*
X113348333Y-55213333D01*
X112967380Y-55022857D01*
X112205476Y-55022857D01*
X111824523Y-55213333D01*
X108395952Y-55022857D02*
X108395952Y-57689523D01*
X110110238Y-55022857D02*
X110110238Y-57118095D01*
X109919761Y-57499047D01*
X109538809Y-57689523D01*
X108967380Y-57689523D01*
X108586428Y-57499047D01*
X108395952Y-57308571D01*
X105919761Y-57689523D02*
X106300714Y-57499047D01*
X106491190Y-57118095D01*
X106491190Y-53689523D01*
X102681666Y-57689523D02*
X102681666Y-55594285D01*
X102872142Y-55213333D01*
X103253095Y-55022857D01*
X104015000Y-55022857D01*
X104395952Y-55213333D01*
X102681666Y-57499047D02*
X103062619Y-57689523D01*
X104015000Y-57689523D01*
X104395952Y-57499047D01*
X104586428Y-57118095D01*
X104586428Y-56737142D01*
X104395952Y-56356190D01*
X104015000Y-56165714D01*
X103062619Y-56165714D01*
X102681666Y-55975238D01*
X101348333Y-55022857D02*
X99824523Y-55022857D01*
X100776904Y-53689523D02*
X100776904Y-57118095D01*
X100586428Y-57499047D01*
X100205476Y-57689523D01*
X99824523Y-57689523D01*
X97919761Y-57689523D02*
X98300714Y-57499047D01*
X98491190Y-57308571D01*
X98681666Y-56927619D01*
X98681666Y-55784761D01*
X98491190Y-55403809D01*
X98300714Y-55213333D01*
X97919761Y-55022857D01*
X97348333Y-55022857D01*
X96967380Y-55213333D01*
X96776904Y-55403809D01*
X96586428Y-55784761D01*
X96586428Y-56927619D01*
X96776904Y-57308571D01*
X96967380Y-57499047D01*
X97348333Y-57689523D01*
X97919761Y-57689523D01*
X94872142Y-57689523D02*
X94872142Y-55022857D01*
X94872142Y-55784761D02*
X94681666Y-55403809D01*
X94491190Y-55213333D01*
X94110238Y-55022857D01*
X93729285Y-55022857D01*
X152653571Y-31202142D02*
X153653571Y-29773571D01*
X154367857Y-31202142D02*
X154367857Y-28202142D01*
X153225000Y-28202142D01*
X152939285Y-28345000D01*
X152796428Y-28487857D01*
X152653571Y-28773571D01*
X152653571Y-29202142D01*
X152796428Y-29487857D01*
X152939285Y-29630714D01*
X153225000Y-29773571D01*
X154367857Y-29773571D01*
X150939285Y-31202142D02*
X151225000Y-31059285D01*
X151367857Y-30916428D01*
X151510714Y-30630714D01*
X151510714Y-29773571D01*
X151367857Y-29487857D01*
X151225000Y-29345000D01*
X150939285Y-29202142D01*
X150510714Y-29202142D01*
X150225000Y-29345000D01*
X150082142Y-29487857D01*
X149939285Y-29773571D01*
X149939285Y-30630714D01*
X150082142Y-30916428D01*
X150225000Y-31059285D01*
X150510714Y-31202142D01*
X150939285Y-31202142D01*
X148653571Y-31202142D02*
X148653571Y-28202142D01*
X148653571Y-29630714D02*
X146939285Y-29630714D01*
X146939285Y-31202142D02*
X146939285Y-28202142D01*
X145653571Y-31059285D02*
X145225000Y-31202142D01*
X144510714Y-31202142D01*
X144225000Y-31059285D01*
X144082142Y-30916428D01*
X143939285Y-30630714D01*
X143939285Y-30345000D01*
X144082142Y-30059285D01*
X144225000Y-29916428D01*
X144510714Y-29773571D01*
X145082142Y-29630714D01*
X145367857Y-29487857D01*
X145510714Y-29345000D01*
X145653571Y-29059285D01*
X145653571Y-28773571D01*
X145510714Y-28487857D01*
X145367857Y-28345000D01*
X145082142Y-28202142D01*
X144367857Y-28202142D01*
X143939285Y-28345000D01*
X137840476Y-184302142D02*
X137173809Y-184302142D01*
X136888095Y-185349761D02*
X137840476Y-185349761D01*
X137840476Y-183349761D01*
X136888095Y-183349761D01*
X135364285Y-184302142D02*
X135078571Y-184397380D01*
X134983333Y-184492619D01*
X134888095Y-184683095D01*
X134888095Y-184968809D01*
X134983333Y-185159285D01*
X135078571Y-185254523D01*
X135269047Y-185349761D01*
X136030952Y-185349761D01*
X136030952Y-183349761D01*
X135364285Y-183349761D01*
X135173809Y-183445000D01*
X135078571Y-183540238D01*
X134983333Y-183730714D01*
X134983333Y-183921190D01*
X135078571Y-184111666D01*
X135173809Y-184206904D01*
X135364285Y-184302142D01*
X136030952Y-184302142D01*
X134221428Y-183349761D02*
X132983333Y-183349761D01*
X133650000Y-184111666D01*
X133364285Y-184111666D01*
X133173809Y-184206904D01*
X133078571Y-184302142D01*
X132983333Y-184492619D01*
X132983333Y-184968809D01*
X133078571Y-185159285D01*
X133173809Y-185254523D01*
X133364285Y-185349761D01*
X133935714Y-185349761D01*
X134126190Y-185254523D01*
X134221428Y-185159285D01*
X132126190Y-185159285D02*
X132030952Y-185254523D01*
X132126190Y-185349761D01*
X132221428Y-185254523D01*
X132126190Y-185159285D01*
X132126190Y-185349761D01*
X130792857Y-183349761D02*
X130602380Y-183349761D01*
X130411904Y-183445000D01*
X130316666Y-183540238D01*
X130221428Y-183730714D01*
X130126190Y-184111666D01*
X130126190Y-184587857D01*
X130221428Y-184968809D01*
X130316666Y-185159285D01*
X130411904Y-185254523D01*
X130602380Y-185349761D01*
X130792857Y-185349761D01*
X130983333Y-185254523D01*
X131078571Y-185159285D01*
X131173809Y-184968809D01*
X131269047Y-184587857D01*
X131269047Y-184111666D01*
X131173809Y-183730714D01*
X131078571Y-183540238D01*
X130983333Y-183445000D01*
X130792857Y-183349761D01*
X127745238Y-185349761D02*
X127745238Y-183349761D01*
X127745238Y-184111666D02*
X127554761Y-184016428D01*
X127173809Y-184016428D01*
X126983333Y-184111666D01*
X126888095Y-184206904D01*
X126792857Y-184397380D01*
X126792857Y-184968809D01*
X126888095Y-185159285D01*
X126983333Y-185254523D01*
X127173809Y-185349761D01*
X127554761Y-185349761D01*
X127745238Y-185254523D01*
X126126190Y-184016428D02*
X125650000Y-185349761D01*
X125173809Y-184016428D02*
X125650000Y-185349761D01*
X125840476Y-185825952D01*
X125935714Y-185921190D01*
X126126190Y-186016428D01*
X122888095Y-184302142D02*
X122221428Y-184302142D01*
X121935714Y-185349761D02*
X122888095Y-185349761D01*
X122888095Y-183349761D01*
X121935714Y-183349761D01*
X121269047Y-184016428D02*
X120792857Y-185349761D01*
X120316666Y-184016428D01*
X118697619Y-185349761D02*
X118697619Y-184302142D01*
X118792857Y-184111666D01*
X118983333Y-184016428D01*
X119364285Y-184016428D01*
X119554761Y-184111666D01*
X118697619Y-185254523D02*
X118888095Y-185349761D01*
X119364285Y-185349761D01*
X119554761Y-185254523D01*
X119650000Y-185064047D01*
X119650000Y-184873571D01*
X119554761Y-184683095D01*
X119364285Y-184587857D01*
X118888095Y-184587857D01*
X118697619Y-184492619D01*
X117745238Y-184016428D02*
X117745238Y-185349761D01*
X117745238Y-184206904D02*
X117650000Y-184111666D01*
X117459523Y-184016428D01*
X117173809Y-184016428D01*
X116983333Y-184111666D01*
X116888095Y-184302142D01*
X116888095Y-185349761D01*
X113364285Y-183445000D02*
X113554761Y-183349761D01*
X113840476Y-183349761D01*
X114126190Y-183445000D01*
X114316666Y-183635476D01*
X114411904Y-183825952D01*
X114507142Y-184206904D01*
X114507142Y-184492619D01*
X114411904Y-184873571D01*
X114316666Y-185064047D01*
X114126190Y-185254523D01*
X113840476Y-185349761D01*
X113650000Y-185349761D01*
X113364285Y-185254523D01*
X113269047Y-185159285D01*
X113269047Y-184492619D01*
X113650000Y-184492619D01*
X111554761Y-184016428D02*
X111554761Y-185349761D01*
X112411904Y-184016428D02*
X112411904Y-185064047D01*
X112316666Y-185254523D01*
X112126190Y-185349761D01*
X111840476Y-185349761D01*
X111650000Y-185254523D01*
X111554761Y-185159285D01*
X110602380Y-185349761D02*
X110602380Y-183349761D01*
X110602380Y-184111666D02*
X110411904Y-184016428D01*
X110030952Y-184016428D01*
X109840476Y-184111666D01*
X109745238Y-184206904D01*
X109650000Y-184397380D01*
X109650000Y-184968809D01*
X109745238Y-185159285D01*
X109840476Y-185254523D01*
X110030952Y-185349761D01*
X110411904Y-185349761D01*
X110602380Y-185254523D01*
X107935714Y-185349761D02*
X107935714Y-184302142D01*
X108030952Y-184111666D01*
X108221428Y-184016428D01*
X108602380Y-184016428D01*
X108792857Y-184111666D01*
X107935714Y-185254523D02*
X108126190Y-185349761D01*
X108602380Y-185349761D01*
X108792857Y-185254523D01*
X108888095Y-185064047D01*
X108888095Y-184873571D01*
X108792857Y-184683095D01*
X108602380Y-184587857D01*
X108126190Y-184587857D01*
X107935714Y-184492619D01*
X106983333Y-185349761D02*
X106983333Y-184016428D01*
X106983333Y-184397380D02*
X106888095Y-184206904D01*
X106792857Y-184111666D01*
X106602380Y-184016428D01*
X106411904Y-184016428D01*
X104983333Y-185254523D02*
X105173809Y-185349761D01*
X105554761Y-185349761D01*
X105745238Y-185254523D01*
X105840476Y-185064047D01*
X105840476Y-184302142D01*
X105745238Y-184111666D01*
X105554761Y-184016428D01*
X105173809Y-184016428D01*
X104983333Y-184111666D01*
X104888095Y-184302142D01*
X104888095Y-184492619D01*
X105840476Y-184683095D01*
X104221428Y-184016428D02*
X103745238Y-185349761D01*
X103269047Y-184016428D01*
X125697619Y-187426904D02*
X125888095Y-187331666D01*
X125983333Y-187236428D01*
X126078571Y-187045952D01*
X126078571Y-186950714D01*
X125983333Y-186760238D01*
X125888095Y-186665000D01*
X125697619Y-186569761D01*
X125316666Y-186569761D01*
X125126190Y-186665000D01*
X125030952Y-186760238D01*
X124935714Y-186950714D01*
X124935714Y-187045952D01*
X125030952Y-187236428D01*
X125126190Y-187331666D01*
X125316666Y-187426904D01*
X125697619Y-187426904D01*
X125888095Y-187522142D01*
X125983333Y-187617380D01*
X126078571Y-187807857D01*
X126078571Y-188188809D01*
X125983333Y-188379285D01*
X125888095Y-188474523D01*
X125697619Y-188569761D01*
X125316666Y-188569761D01*
X125126190Y-188474523D01*
X125030952Y-188379285D01*
X124935714Y-188188809D01*
X124935714Y-187807857D01*
X125030952Y-187617380D01*
X125126190Y-187522142D01*
X125316666Y-187426904D01*
X122650000Y-186474523D02*
X124364285Y-189045952D01*
X122078571Y-186760238D02*
X121983333Y-186665000D01*
X121792857Y-186569761D01*
X121316666Y-186569761D01*
X121126190Y-186665000D01*
X121030952Y-186760238D01*
X120935714Y-186950714D01*
X120935714Y-187141190D01*
X121030952Y-187426904D01*
X122173809Y-188569761D01*
X120935714Y-188569761D01*
X119697619Y-186569761D02*
X119507142Y-186569761D01*
X119316666Y-186665000D01*
X119221428Y-186760238D01*
X119126190Y-186950714D01*
X119030952Y-187331666D01*
X119030952Y-187807857D01*
X119126190Y-188188809D01*
X119221428Y-188379285D01*
X119316666Y-188474523D01*
X119507142Y-188569761D01*
X119697619Y-188569761D01*
X119888095Y-188474523D01*
X119983333Y-188379285D01*
X120078571Y-188188809D01*
X120173809Y-187807857D01*
X120173809Y-187331666D01*
X120078571Y-186950714D01*
X119983333Y-186760238D01*
X119888095Y-186665000D01*
X119697619Y-186569761D01*
X118269047Y-186760238D02*
X118173809Y-186665000D01*
X117983333Y-186569761D01*
X117507142Y-186569761D01*
X117316666Y-186665000D01*
X117221428Y-186760238D01*
X117126190Y-186950714D01*
X117126190Y-187141190D01*
X117221428Y-187426904D01*
X118364285Y-188569761D01*
X117126190Y-188569761D01*
X116364285Y-186760238D02*
X116269047Y-186665000D01*
X116078571Y-186569761D01*
X115602380Y-186569761D01*
X115411904Y-186665000D01*
X115316666Y-186760238D01*
X115221428Y-186950714D01*
X115221428Y-187141190D01*
X115316666Y-187426904D01*
X116459523Y-188569761D01*
X115221428Y-188569761D01*
X133481726Y-45005714D02*
X130148392Y-45005714D01*
X129374583Y-50243809D02*
X134136488Y-50243809D01*
X132886488Y-40243809D01*
X128124583Y-40243809D01*
X121100773Y-45005714D02*
X119731726Y-45481904D01*
X119315059Y-45958095D01*
X118957916Y-46910476D01*
X119136488Y-48339047D01*
X119731726Y-49291428D01*
X120267440Y-49767619D01*
X121279345Y-50243809D01*
X125088869Y-50243809D01*
X123838869Y-40243809D01*
X120505535Y-40243809D01*
X119612678Y-40720000D01*
X119196011Y-41196190D01*
X118838869Y-42148571D01*
X118957916Y-43100952D01*
X119553154Y-44053333D01*
X120088869Y-44529523D01*
X121100773Y-45005714D01*
X124434107Y-45005714D01*
X114791250Y-40243809D02*
X108600773Y-40243809D01*
X112410297Y-44053333D01*
X110981726Y-44053333D01*
X110088869Y-44529523D01*
X109672202Y-45005714D01*
X109315059Y-45958095D01*
X109612678Y-48339047D01*
X110207916Y-49291428D01*
X110743630Y-49767619D01*
X111755535Y-50243809D01*
X114612678Y-50243809D01*
X115505535Y-49767619D01*
X115922202Y-49291428D01*
%TO.C,G\u002A\u002A\u002A*%
G36*
X156006841Y-52979853D02*
G01*
X156015635Y-53010512D01*
X156002069Y-53074848D01*
X155930688Y-53117785D01*
X155795501Y-53141760D01*
X155590516Y-53149211D01*
X155248346Y-53149211D01*
X155248346Y-53372761D01*
X155244153Y-53469695D01*
X155227354Y-53580776D01*
X155202095Y-53642564D01*
X155176632Y-53665081D01*
X155132717Y-53688816D01*
X155126690Y-53688533D01*
X155067847Y-53646321D01*
X155030289Y-53538266D01*
X155017087Y-53372761D01*
X155017087Y-53149211D01*
X154886905Y-53149211D01*
X154818778Y-53143388D01*
X154725522Y-53106841D01*
X154684741Y-53046975D01*
X154708741Y-52975766D01*
X154710846Y-52973364D01*
X154783331Y-52934146D01*
X154886905Y-52917951D01*
X155017087Y-52917951D01*
X155017087Y-52530621D01*
X155255454Y-52530621D01*
X155256143Y-52657784D01*
X155267618Y-52898679D01*
X155455711Y-52910632D01*
X155467162Y-52911338D01*
X155574404Y-52913301D01*
X155621203Y-52899574D01*
X155622190Y-52866258D01*
X155599043Y-52819844D01*
X155539947Y-52726617D01*
X155463898Y-52620269D01*
X155385636Y-52520239D01*
X155319901Y-52445966D01*
X155281435Y-52416889D01*
X155265478Y-52444101D01*
X155255454Y-52530621D01*
X155017087Y-52530621D01*
X155017087Y-52440880D01*
X155018050Y-52277251D01*
X155023077Y-52117943D01*
X155033762Y-52012836D01*
X155051612Y-51948910D01*
X155078133Y-51913145D01*
X155140914Y-51886928D01*
X155225182Y-51917148D01*
X155303585Y-52013873D01*
X155333475Y-52061214D01*
X155387259Y-52126926D01*
X155389331Y-52128916D01*
X155436001Y-52183846D01*
X155513508Y-52283921D01*
X155610795Y-52413916D01*
X155716802Y-52558607D01*
X155820469Y-52702771D01*
X155910737Y-52831183D01*
X155934428Y-52866258D01*
X155976548Y-52928618D01*
X156006841Y-52979853D01*
G37*
G36*
X156434316Y-55129317D02*
G01*
X156436566Y-55443715D01*
X156434504Y-55687821D01*
X156427943Y-55863340D01*
X156416724Y-55974479D01*
X156400689Y-56025447D01*
X156391773Y-56032921D01*
X156314869Y-56056988D01*
X156184632Y-56073351D01*
X156019625Y-56082148D01*
X155838412Y-56083516D01*
X155659555Y-56077592D01*
X155501617Y-56064515D01*
X155383162Y-56044423D01*
X155322752Y-56017452D01*
X155294955Y-55968074D01*
X155312507Y-55892186D01*
X155326826Y-55875104D01*
X155372503Y-55850864D01*
X155454462Y-55834563D01*
X155586301Y-55824026D01*
X155781616Y-55817076D01*
X156210306Y-55806185D01*
X156220753Y-55046211D01*
X156231199Y-54286236D01*
X156423915Y-54286236D01*
X156434316Y-55129317D01*
G37*
G36*
X150062267Y-52563206D02*
G01*
X150026158Y-52685422D01*
X150004249Y-52745351D01*
X149917515Y-52896213D01*
X149791043Y-52999163D01*
X149606889Y-53070688D01*
X149537103Y-53088073D01*
X149414786Y-53098579D01*
X149294144Y-53072365D01*
X149231878Y-53053515D01*
X149151676Y-53044838D01*
X149123506Y-53081363D01*
X149136180Y-53170007D01*
X149143979Y-53197281D01*
X149220491Y-53334597D01*
X149335070Y-53422870D01*
X149469942Y-53456951D01*
X149607327Y-53431687D01*
X149729451Y-53341927D01*
X149747602Y-53321696D01*
X149834879Y-53245203D01*
X149903511Y-53233528D01*
X149967234Y-53283283D01*
X149979147Y-53302678D01*
X149980586Y-53386322D01*
X149931958Y-53482655D01*
X149846256Y-53571913D01*
X149736473Y-53634330D01*
X149687267Y-53650618D01*
X149462646Y-53684678D01*
X149262632Y-53647606D01*
X149092899Y-53542617D01*
X148959124Y-53372927D01*
X148866982Y-53141751D01*
X148861523Y-53120744D01*
X148814419Y-52837429D01*
X148818364Y-52584333D01*
X149092320Y-52584333D01*
X149126877Y-52654923D01*
X149208253Y-52744140D01*
X149226557Y-52761965D01*
X149354682Y-52853528D01*
X149480336Y-52875010D01*
X149620273Y-52829901D01*
X149719259Y-52752405D01*
X149789321Y-52614590D01*
X149798896Y-52440140D01*
X149754315Y-52287689D01*
X149654293Y-52178392D01*
X149498754Y-52122397D01*
X149419495Y-52115474D01*
X149335045Y-52138400D01*
X149242574Y-52210352D01*
X149159532Y-52310950D01*
X149098160Y-52464701D01*
X149092384Y-52501409D01*
X149092320Y-52584333D01*
X148818364Y-52584333D01*
X148818462Y-52578051D01*
X148868922Y-52349899D01*
X148961070Y-52160258D01*
X149090173Y-52016416D01*
X149251503Y-51925661D01*
X149440329Y-51895278D01*
X149651920Y-51932555D01*
X149756965Y-51972130D01*
X149878445Y-52046012D01*
X149961867Y-52152336D01*
X150029238Y-52313309D01*
X150050149Y-52377538D01*
X150063190Y-52440140D01*
X150070156Y-52473583D01*
X150062267Y-52563206D01*
G37*
G36*
X151471210Y-53415333D02*
G01*
X151367731Y-53551915D01*
X151239849Y-53636561D01*
X151191664Y-53651084D01*
X151029503Y-53673225D01*
X150842810Y-53672885D01*
X150664687Y-53651312D01*
X150528237Y-53609752D01*
X150495919Y-53591980D01*
X150364291Y-53473342D01*
X150272319Y-53314411D01*
X150243002Y-53169677D01*
X150507527Y-53169677D01*
X150527643Y-53279929D01*
X150609083Y-53377673D01*
X150660502Y-53409393D01*
X150798608Y-53451568D01*
X150954093Y-53460897D01*
X151097984Y-53437243D01*
X151201305Y-53380470D01*
X151259295Y-53293972D01*
X151280151Y-53164723D01*
X151247484Y-53033029D01*
X151170114Y-52916794D01*
X151056858Y-52833924D01*
X150916537Y-52802321D01*
X150904285Y-52802571D01*
X150761370Y-52839062D01*
X150633975Y-52924651D01*
X150542546Y-53040977D01*
X150507527Y-53169677D01*
X150243002Y-53169677D01*
X150237724Y-53143622D01*
X150244216Y-53063825D01*
X150284374Y-52959937D01*
X150373886Y-52844545D01*
X150510048Y-52693830D01*
X150412429Y-52549981D01*
X150332683Y-52390010D01*
X150326004Y-52271043D01*
X150587730Y-52271043D01*
X150594159Y-52374615D01*
X150643707Y-52456493D01*
X150673741Y-52474522D01*
X150781379Y-52505549D01*
X150916333Y-52520666D01*
X151045020Y-52517364D01*
X151133855Y-52493131D01*
X151159035Y-52469321D01*
X151194168Y-52384789D01*
X151203130Y-52279877D01*
X151185371Y-52185341D01*
X151140338Y-52131938D01*
X151127386Y-52127589D01*
X151019268Y-52111410D01*
X150881709Y-52110298D01*
X150749933Y-52123045D01*
X150659166Y-52148442D01*
X150622683Y-52180389D01*
X150587730Y-52271043D01*
X150326004Y-52271043D01*
X150324294Y-52240588D01*
X150386812Y-52087303D01*
X150395214Y-52074445D01*
X150501436Y-51979689D01*
X150653357Y-51916025D01*
X150831724Y-51883714D01*
X151017282Y-51883018D01*
X151190776Y-51914197D01*
X151332953Y-51977514D01*
X151424558Y-52073229D01*
X151434679Y-52095523D01*
X151459012Y-52219928D01*
X151457664Y-52279877D01*
X151455670Y-52368538D01*
X151427558Y-52508380D01*
X151377580Y-52606478D01*
X151347697Y-52643311D01*
X151336685Y-52686782D01*
X151362362Y-52745761D01*
X151429775Y-52843130D01*
X151515232Y-52991035D01*
X151547561Y-53145358D01*
X151545242Y-53164723D01*
X151534858Y-53251440D01*
X151471210Y-53415333D01*
G37*
G36*
X153914496Y-51885945D02*
G01*
X154496753Y-51896555D01*
X154496753Y-51992913D01*
X154495827Y-52025708D01*
X154484867Y-52056991D01*
X154450494Y-52076637D01*
X154379298Y-52088016D01*
X154257863Y-52094500D01*
X154072777Y-52099457D01*
X153928926Y-52103796D01*
X153773082Y-52110761D01*
X153658598Y-52118539D01*
X153603333Y-52126115D01*
X153598454Y-52143673D01*
X153619298Y-52225366D01*
X153674378Y-52370547D01*
X153762575Y-52576359D01*
X153882771Y-52839944D01*
X153907368Y-52892778D01*
X154018471Y-53133323D01*
X154100106Y-53315209D01*
X154155579Y-53447533D01*
X154188197Y-53539389D01*
X154201267Y-53599876D01*
X154198093Y-53638087D01*
X154181983Y-53663120D01*
X154170531Y-53672649D01*
X154096053Y-53685462D01*
X154024581Y-53640637D01*
X154014137Y-53623436D01*
X153972577Y-53542916D01*
X153906743Y-53408499D01*
X153821727Y-53230775D01*
X153722620Y-53020336D01*
X153614516Y-52787771D01*
X153576480Y-52705233D01*
X153461994Y-52453150D01*
X153377926Y-52260371D01*
X153321360Y-52119241D01*
X153289382Y-52022108D01*
X153279076Y-51961315D01*
X153287528Y-51929210D01*
X153289315Y-51927173D01*
X153325312Y-51906369D01*
X153395009Y-51892591D01*
X153509225Y-51885092D01*
X153678780Y-51883125D01*
X153914496Y-51885945D01*
G37*
G36*
X157080310Y-51847260D02*
G01*
X157201305Y-51849981D01*
X157381691Y-51856244D01*
X157504343Y-51865374D01*
X157581988Y-51879162D01*
X157627353Y-51899399D01*
X157653165Y-51927877D01*
X157665022Y-51949860D01*
X157666987Y-52006757D01*
X157609120Y-52068957D01*
X157582758Y-52092508D01*
X157558165Y-52126322D01*
X157541354Y-52176452D01*
X157530847Y-52255050D01*
X157525169Y-52374272D01*
X157522845Y-52546270D01*
X157522398Y-52783200D01*
X157522602Y-52956860D01*
X157524223Y-53146031D01*
X157528583Y-53277215D01*
X157536985Y-53361626D01*
X157550734Y-53410482D01*
X157571133Y-53434997D01*
X157599485Y-53446389D01*
X157610070Y-53450060D01*
X157662616Y-53506309D01*
X157679307Y-53590360D01*
X157650876Y-53663120D01*
X157619882Y-53673967D01*
X157522833Y-53684544D01*
X157378863Y-53690168D01*
X157205414Y-53691193D01*
X157019931Y-53687975D01*
X156839855Y-53680871D01*
X156682630Y-53670234D01*
X156565698Y-53656422D01*
X156506503Y-53639790D01*
X156478640Y-53612144D01*
X156456172Y-53554961D01*
X156447953Y-53457884D01*
X156450957Y-53302536D01*
X156455407Y-53200563D01*
X156464445Y-53094094D01*
X156481876Y-53036837D01*
X156514334Y-53011831D01*
X156568453Y-53002113D01*
X156584000Y-53000561D01*
X156655481Y-53009529D01*
X156677102Y-53059928D01*
X156685650Y-53190818D01*
X156713721Y-53328867D01*
X156768795Y-53410217D01*
X156860544Y-53446593D01*
X156998641Y-53449719D01*
X157194780Y-53438285D01*
X157206038Y-53139575D01*
X157208877Y-53057026D01*
X157209561Y-52938739D01*
X157200454Y-52873823D01*
X157177986Y-52846469D01*
X157138587Y-52840865D01*
X157121434Y-52841661D01*
X157072939Y-52869544D01*
X157059879Y-52951775D01*
X157055586Y-53003694D01*
X157019177Y-53093599D01*
X156957839Y-53133795D01*
X156886434Y-53110667D01*
X156864098Y-53074079D01*
X156840013Y-52970707D01*
X156826999Y-52829267D01*
X156825071Y-52672628D01*
X156834243Y-52523660D01*
X156854529Y-52405231D01*
X156885944Y-52340210D01*
X156911393Y-52322194D01*
X156986678Y-52309516D01*
X157039777Y-52362711D01*
X157059879Y-52473494D01*
X157062515Y-52536235D01*
X157084021Y-52594673D01*
X157136966Y-52609605D01*
X157176706Y-52602880D01*
X157200948Y-52570248D01*
X157211649Y-52494657D01*
X157214052Y-52359074D01*
X157214052Y-52108543D01*
X156715645Y-52108543D01*
X156689645Y-52304541D01*
X156678341Y-52371918D01*
X156637208Y-52486612D01*
X156577728Y-52527365D01*
X156500511Y-52493568D01*
X156473331Y-52446897D01*
X156450334Y-52339431D01*
X156441004Y-52202893D01*
X156445505Y-52063487D01*
X156464002Y-51947417D01*
X156496660Y-51880887D01*
X156529524Y-51866969D01*
X156639627Y-51851949D01*
X156822593Y-51845415D01*
X157080310Y-51847260D01*
G37*
G36*
X155521469Y-50577993D02*
G01*
X155540546Y-50666008D01*
X155537560Y-50720761D01*
X155528901Y-50727279D01*
X155459553Y-50743750D01*
X155339493Y-50755223D01*
X155188257Y-50759529D01*
X154862914Y-50759529D01*
X154862914Y-51023564D01*
X154859372Y-51159467D01*
X154850144Y-51263068D01*
X154837218Y-51311982D01*
X154830470Y-51317652D01*
X154767841Y-51337678D01*
X154744255Y-51335353D01*
X154680278Y-51289214D01*
X154643455Y-51179963D01*
X154631654Y-51002352D01*
X154631654Y-50759529D01*
X154501473Y-50759529D01*
X154433345Y-50753707D01*
X154340089Y-50717160D01*
X154299309Y-50657293D01*
X154323308Y-50586085D01*
X154325414Y-50583682D01*
X154397898Y-50544465D01*
X154501473Y-50528270D01*
X154631654Y-50528270D01*
X154862914Y-50528270D01*
X155036359Y-50528270D01*
X155084339Y-50526787D01*
X155174912Y-50512258D01*
X155209803Y-50486353D01*
X155206885Y-50469863D01*
X155176332Y-50394632D01*
X155121872Y-50288098D01*
X155055165Y-50170322D01*
X154987868Y-50061361D01*
X154931640Y-49981274D01*
X154898140Y-49950121D01*
X154894843Y-49951386D01*
X154878634Y-49998812D01*
X154867227Y-50101025D01*
X154862914Y-50239195D01*
X154862914Y-50528270D01*
X154631654Y-50528270D01*
X154631654Y-49954840D01*
X154631677Y-49919901D01*
X154633555Y-49696704D01*
X154639182Y-49537780D01*
X154649601Y-49431847D01*
X154665853Y-49367625D01*
X154688978Y-49333836D01*
X154764163Y-49304686D01*
X154833018Y-49326399D01*
X154862914Y-49390034D01*
X154866286Y-49417632D01*
X154891821Y-49449203D01*
X154905720Y-49459401D01*
X154945205Y-49521990D01*
X154991997Y-49622648D01*
X155017736Y-49680893D01*
X155062729Y-49763504D01*
X155093813Y-49795948D01*
X155119471Y-49818773D01*
X155147868Y-49889611D01*
X155172262Y-49957063D01*
X155220180Y-50034148D01*
X155235744Y-50053543D01*
X155287111Y-50138284D01*
X155341605Y-50248831D01*
X155365384Y-50299677D01*
X155410248Y-50380685D01*
X155439173Y-50412640D01*
X155456134Y-50424346D01*
X155489593Y-50486353D01*
X155490081Y-50487258D01*
X155521469Y-50577993D01*
G37*
G36*
X159105200Y-51020656D02*
G01*
X159116440Y-51110163D01*
X159133628Y-51144962D01*
X159145113Y-51131688D01*
X159174313Y-51058982D01*
X159211714Y-50937102D01*
X159252020Y-50782274D01*
X159273417Y-50698965D01*
X159321265Y-50542357D01*
X159368233Y-50422296D01*
X159407179Y-50358299D01*
X159462904Y-50326540D01*
X159575449Y-50303975D01*
X159749949Y-50297010D01*
X159875565Y-50298954D01*
X159975531Y-50309155D01*
X160032559Y-50332186D01*
X160065420Y-50372541D01*
X160067838Y-50377936D01*
X160073320Y-50421475D01*
X160066587Y-50497515D01*
X160046133Y-50612991D01*
X160010451Y-50774833D01*
X159958035Y-50989976D01*
X159887378Y-51265353D01*
X159796973Y-51607895D01*
X159760288Y-51745786D01*
X159687086Y-52021776D01*
X159621831Y-52268936D01*
X159566913Y-52478138D01*
X159524724Y-52640252D01*
X159497657Y-52746152D01*
X159488104Y-52786708D01*
X159488756Y-52787981D01*
X159532714Y-52795162D01*
X159632016Y-52797468D01*
X159767542Y-52794374D01*
X160046981Y-52783050D01*
X160231612Y-52127814D01*
X160259071Y-52030388D01*
X160340091Y-51743127D01*
X160426189Y-51438096D01*
X161145463Y-51438096D01*
X161161211Y-51442415D01*
X161238594Y-51448030D01*
X161365915Y-51451879D01*
X161526772Y-51453308D01*
X161565537Y-51453242D01*
X161742178Y-51449190D01*
X161857734Y-51435076D01*
X161925712Y-51405651D01*
X161959618Y-51355663D01*
X161972959Y-51279863D01*
X161976814Y-51260469D01*
X162007485Y-51191295D01*
X162018318Y-51166433D01*
X162017785Y-51086535D01*
X162012363Y-51059204D01*
X162034270Y-51008631D01*
X162049888Y-50997570D01*
X162060180Y-50962002D01*
X161997531Y-50935668D01*
X161864856Y-50919319D01*
X161665071Y-50913702D01*
X161302734Y-50913702D01*
X161224098Y-51168293D01*
X161222546Y-51173323D01*
X161183655Y-51301416D01*
X161155994Y-51396420D01*
X161145463Y-51438096D01*
X160426189Y-51438096D01*
X160426366Y-51437469D01*
X160509182Y-51144282D01*
X160579825Y-50894431D01*
X160743408Y-50316282D01*
X161705665Y-50305435D01*
X161908260Y-50303648D01*
X162162215Y-50302878D01*
X162385585Y-50303860D01*
X162566746Y-50306476D01*
X162694077Y-50310607D01*
X162755955Y-50316134D01*
X162811634Y-50335198D01*
X162867393Y-50381477D01*
X162891888Y-50458396D01*
X162885515Y-50576080D01*
X162848672Y-50744656D01*
X162785326Y-50962002D01*
X162781756Y-50974251D01*
X162728354Y-51146706D01*
X162662479Y-51360559D01*
X162602815Y-51555359D01*
X162557734Y-51703839D01*
X162553637Y-51717322D01*
X162508634Y-51851294D01*
X162467011Y-51953219D01*
X162437307Y-52001959D01*
X162391443Y-52015115D01*
X162288064Y-52026330D01*
X162154626Y-52030866D01*
X162028626Y-52033052D01*
X161955251Y-52042530D01*
X161928889Y-52064390D01*
X161934076Y-52103743D01*
X161951980Y-52152161D01*
X161995300Y-52262607D01*
X162058193Y-52419909D01*
X162135487Y-52611142D01*
X162222011Y-52823380D01*
X162299399Y-53016878D01*
X162371326Y-53206466D01*
X162426179Y-53362063D01*
X162459629Y-53471337D01*
X162467344Y-53521958D01*
X162443744Y-53543321D01*
X162372281Y-53560742D01*
X162244208Y-53570282D01*
X162049381Y-53573186D01*
X161965644Y-53572911D01*
X161799085Y-53568121D01*
X161691155Y-53553560D01*
X161628617Y-53524341D01*
X161598236Y-53475576D01*
X161586775Y-53402378D01*
X161576095Y-53357737D01*
X161536531Y-53311686D01*
X161521182Y-53303675D01*
X161511874Y-53264437D01*
X161513127Y-53216698D01*
X161488139Y-53138057D01*
X161449957Y-53065473D01*
X161413362Y-53033581D01*
X161403169Y-53029988D01*
X161390641Y-52985217D01*
X161389834Y-52970014D01*
X161369367Y-52891302D01*
X161327583Y-52770757D01*
X161271322Y-52624694D01*
X161207423Y-52469426D01*
X161142726Y-52321269D01*
X161084071Y-52196535D01*
X161038295Y-52111540D01*
X161012240Y-52082598D01*
X161010314Y-52083921D01*
X160985917Y-52132710D01*
X160944943Y-52242576D01*
X160891262Y-52402081D01*
X160828747Y-52599783D01*
X160761267Y-52824246D01*
X160547161Y-53553915D01*
X159638791Y-53564232D01*
X159592365Y-53564757D01*
X159314997Y-53567558D01*
X159103332Y-53568442D01*
X158947437Y-53566693D01*
X158837382Y-53561592D01*
X158763235Y-53552424D01*
X158715064Y-53538470D01*
X158682938Y-53519015D01*
X158656926Y-53493340D01*
X158655362Y-53491609D01*
X158634701Y-53466063D01*
X158621105Y-53436114D01*
X158616080Y-53392977D01*
X158621130Y-53327868D01*
X158637762Y-53232001D01*
X158667479Y-53096593D01*
X158711788Y-52912858D01*
X158772193Y-52672011D01*
X158850198Y-52365268D01*
X158857907Y-52335016D01*
X158927515Y-52061765D01*
X158991141Y-51811847D01*
X159046174Y-51595534D01*
X159090000Y-51423099D01*
X159120008Y-51304815D01*
X159133585Y-51250956D01*
X159136868Y-51193849D01*
X159105549Y-51190724D01*
X159044755Y-51244230D01*
X158961306Y-51350432D01*
X158826936Y-51486783D01*
X158650589Y-51572605D01*
X158454706Y-51595778D01*
X158254512Y-51554651D01*
X158065232Y-51447574D01*
X157970083Y-51346367D01*
X158314755Y-51346367D01*
X158339212Y-51381614D01*
X158379764Y-51404297D01*
X158461645Y-51418227D01*
X158509168Y-51364454D01*
X158524522Y-51241320D01*
X158522930Y-51189510D01*
X158510504Y-51102332D01*
X158489786Y-51067875D01*
X158478644Y-51072239D01*
X158430708Y-51121776D01*
X158371927Y-51208759D01*
X158331453Y-51283478D01*
X158314755Y-51346367D01*
X157970083Y-51346367D01*
X157939594Y-51313937D01*
X157850625Y-51132722D01*
X157834470Y-51033635D01*
X157989628Y-51033635D01*
X158044917Y-51174929D01*
X158069467Y-51208281D01*
X158121573Y-51253053D01*
X158169113Y-51232757D01*
X158229582Y-51144513D01*
X158237336Y-51131339D01*
X158275012Y-51054855D01*
X158269428Y-50999812D01*
X158222579Y-50932974D01*
X158717239Y-50932974D01*
X158717984Y-51026071D01*
X158719147Y-51054855D01*
X158724774Y-51194065D01*
X158730659Y-51241320D01*
X158738028Y-51300495D01*
X158756992Y-51337678D01*
X158782390Y-51327034D01*
X158822286Y-51270227D01*
X158839497Y-51233846D01*
X158898162Y-51151844D01*
X158903655Y-51145133D01*
X158928790Y-51077861D01*
X158944217Y-50978835D01*
X158948551Y-50874884D01*
X158940409Y-50792840D01*
X158918405Y-50759529D01*
X158916868Y-50759389D01*
X158883123Y-50723651D01*
X158844667Y-50643899D01*
X158842689Y-50638699D01*
X158797419Y-50545229D01*
X158762279Y-50527829D01*
X158737229Y-50586592D01*
X158722230Y-50721609D01*
X158721398Y-50756848D01*
X158717239Y-50932974D01*
X158222579Y-50932974D01*
X158218621Y-50927327D01*
X158157166Y-50829206D01*
X158151225Y-50773172D01*
X158338303Y-50773172D01*
X158352098Y-50822525D01*
X158425338Y-50836616D01*
X158430293Y-50836585D01*
X158503934Y-50818380D01*
X158524522Y-50756848D01*
X158524522Y-50756494D01*
X158505868Y-50696835D01*
X158438194Y-50689398D01*
X158382997Y-50710906D01*
X158339010Y-50769165D01*
X158338303Y-50773172D01*
X158151225Y-50773172D01*
X158146808Y-50731510D01*
X158203092Y-50637062D01*
X158237950Y-50583927D01*
X158238670Y-50537916D01*
X158224541Y-50535717D01*
X158170398Y-50569861D01*
X158098618Y-50644146D01*
X158052572Y-50710432D01*
X157993022Y-50870473D01*
X157989628Y-51033635D01*
X157834470Y-51033635D01*
X157818554Y-50936009D01*
X157846160Y-50742656D01*
X157936219Y-50571523D01*
X157967486Y-50535816D01*
X158019265Y-50489726D01*
X158370349Y-50489726D01*
X158370358Y-50490206D01*
X158404792Y-50517105D01*
X158485979Y-50528270D01*
X158487418Y-50528267D01*
X158568116Y-50516789D01*
X158601609Y-50489726D01*
X158601600Y-50489247D01*
X158567167Y-50462347D01*
X158485979Y-50451183D01*
X158484541Y-50451186D01*
X158403842Y-50462664D01*
X158370349Y-50489726D01*
X158019265Y-50489726D01*
X158087935Y-50428600D01*
X158218411Y-50343007D01*
X158306207Y-50305429D01*
X158500911Y-50274231D01*
X158686403Y-50308295D01*
X158851003Y-50399740D01*
X158935295Y-50489726D01*
X158983033Y-50540689D01*
X159070815Y-50723263D01*
X159093143Y-50874884D01*
X159102671Y-50939582D01*
X159105200Y-51020656D01*
G37*
G36*
X148186722Y-51934739D02*
G01*
X148338747Y-52036023D01*
X148443238Y-52180695D01*
X148487132Y-52313895D01*
X148477952Y-52419140D01*
X148407303Y-52479890D01*
X148330442Y-52476925D01*
X148262293Y-52421458D01*
X148233475Y-52335083D01*
X148230129Y-52302803D01*
X148176127Y-52205215D01*
X148071743Y-52135295D01*
X147937249Y-52108543D01*
X147827548Y-52123715D01*
X147705971Y-52191401D01*
X147635167Y-52299133D01*
X147623805Y-52431257D01*
X147680550Y-52572121D01*
X147697875Y-52595044D01*
X147768730Y-52677361D01*
X147877262Y-52796289D01*
X148012216Y-52939611D01*
X148162341Y-53095113D01*
X148244192Y-53179570D01*
X148377330Y-53320344D01*
X148483933Y-53437482D01*
X148554708Y-53520662D01*
X148580365Y-53559559D01*
X148574857Y-53582408D01*
X148534113Y-53642564D01*
X148484768Y-53662132D01*
X148367933Y-53677143D01*
X148181625Y-53685944D01*
X147922140Y-53688816D01*
X147890573Y-53688797D01*
X147668601Y-53686951D01*
X147510848Y-53681326D01*
X147405868Y-53670845D01*
X147342214Y-53654430D01*
X147308437Y-53631001D01*
X147279885Y-53577062D01*
X147308437Y-53515371D01*
X147343839Y-53490201D01*
X147420142Y-53470873D01*
X147546820Y-53460588D01*
X147737133Y-53457556D01*
X147844869Y-53456478D01*
X147985579Y-53451150D01*
X148082043Y-53442373D01*
X148117846Y-53431280D01*
X148098010Y-53401595D01*
X148033836Y-53326944D01*
X147935821Y-53220382D01*
X147814850Y-53094027D01*
X147643503Y-52907563D01*
X147479729Y-52695214D01*
X147380427Y-52515321D01*
X147347125Y-52370245D01*
X147353378Y-52318534D01*
X147408403Y-52185594D01*
X147505348Y-52055112D01*
X147626067Y-51954162D01*
X147640984Y-51945419D01*
X147818286Y-51884016D01*
X148006717Y-51882263D01*
X148186722Y-51934739D01*
G37*
G36*
X153005888Y-52594629D02*
G01*
X152998408Y-52600680D01*
X152993566Y-52648148D01*
X152998236Y-52661452D01*
X152974295Y-52705963D01*
X152961641Y-52717016D01*
X152956669Y-52766441D01*
X152961776Y-52779552D01*
X152935752Y-52802321D01*
X152921611Y-52804579D01*
X152913296Y-52835713D01*
X152917349Y-52859487D01*
X152875764Y-52919020D01*
X152777587Y-52987166D01*
X152634303Y-53054900D01*
X152525326Y-53091942D01*
X152426615Y-53099917D01*
X152311581Y-53074437D01*
X152190404Y-53049027D01*
X152122517Y-53065604D01*
X152115362Y-53128908D01*
X152167238Y-53240899D01*
X152198202Y-53289005D01*
X152315818Y-53409905D01*
X152443899Y-53460111D01*
X152573902Y-53437994D01*
X152697281Y-53341927D01*
X152724947Y-53311626D01*
X152812823Y-53240715D01*
X152880210Y-53238433D01*
X152935752Y-53303383D01*
X152957636Y-53359908D01*
X152934833Y-53380470D01*
X152920300Y-53383530D01*
X152916480Y-53419013D01*
X152922343Y-53434078D01*
X152897208Y-53457556D01*
X152883047Y-53459887D01*
X152875238Y-53491733D01*
X152876110Y-53529540D01*
X152814246Y-53584933D01*
X152685220Y-53642055D01*
X152663194Y-53649452D01*
X152450823Y-53682931D01*
X152259190Y-53644918D01*
X152094760Y-53539395D01*
X151963994Y-53370345D01*
X151873355Y-53141751D01*
X151821851Y-52852345D01*
X151823595Y-52584675D01*
X151843798Y-52492620D01*
X152075245Y-52492620D01*
X152077252Y-52554504D01*
X152122444Y-52643356D01*
X152198031Y-52738910D01*
X152291224Y-52820900D01*
X152387093Y-52867655D01*
X152519369Y-52865429D01*
X152654164Y-52786387D01*
X152668780Y-52773534D01*
X152728417Y-52704980D01*
X152755754Y-52622173D01*
X152762307Y-52493975D01*
X152762155Y-52466895D01*
X152752795Y-52348889D01*
X152720637Y-52270824D01*
X152654164Y-52201564D01*
X152644199Y-52193307D01*
X152544576Y-52133175D01*
X152453153Y-52108543D01*
X152447848Y-52108707D01*
X152366200Y-52134982D01*
X152270082Y-52194233D01*
X152180215Y-52269338D01*
X152117321Y-52343173D01*
X152102121Y-52398615D01*
X152106020Y-52421930D01*
X152080049Y-52486309D01*
X152075245Y-52492620D01*
X151843798Y-52492620D01*
X151875513Y-52348106D01*
X151974449Y-52151692D01*
X152117247Y-52004491D01*
X152300750Y-51915557D01*
X152415812Y-51890777D01*
X152517333Y-51895804D01*
X152642039Y-51935375D01*
X152757775Y-51987717D01*
X152893452Y-52090250D01*
X152954988Y-52211156D01*
X152963442Y-52250835D01*
X152976164Y-52291623D01*
X152977914Y-52294333D01*
X152993566Y-52339802D01*
X152995655Y-52347703D01*
X153011232Y-52387981D01*
X153018271Y-52401158D01*
X153028597Y-52469648D01*
X153027210Y-52493975D01*
X153024097Y-52548548D01*
X153005888Y-52594629D01*
G37*
G36*
X151140151Y-50608060D02*
G01*
X151131524Y-50741021D01*
X151114856Y-50842565D01*
X151087643Y-50931157D01*
X151047382Y-51025263D01*
X150975922Y-51158509D01*
X150899854Y-51242661D01*
X150796851Y-51301979D01*
X150623897Y-51360096D01*
X150472936Y-51361815D01*
X150316415Y-51306919D01*
X150220792Y-51245473D01*
X150083382Y-51090122D01*
X149981609Y-50879980D01*
X149918559Y-50625078D01*
X149905270Y-50443884D01*
X150214265Y-50443884D01*
X150254515Y-50700130D01*
X150254643Y-50700674D01*
X150294879Y-50845030D01*
X150339874Y-50965978D01*
X150379912Y-51037383D01*
X150454364Y-51092491D01*
X150559279Y-51102565D01*
X150663406Y-51049564D01*
X150755456Y-50940018D01*
X150824137Y-50780457D01*
X150852573Y-50631696D01*
X150868105Y-50425182D01*
X150867762Y-50201387D01*
X150851675Y-49990569D01*
X150819976Y-49822984D01*
X150783051Y-49723636D01*
X150694757Y-49602583D01*
X150578699Y-49552320D01*
X150436793Y-49574089D01*
X150421886Y-49579944D01*
X150352129Y-49621894D01*
X150308588Y-49691559D01*
X150274650Y-49813466D01*
X150260363Y-49880575D01*
X150216025Y-50179052D01*
X150214265Y-50443884D01*
X149905270Y-50443884D01*
X149897317Y-50335449D01*
X149920968Y-50021123D01*
X149927986Y-49975524D01*
X149987900Y-49715500D01*
X150074825Y-49523047D01*
X150193602Y-49392542D01*
X150349071Y-49318363D01*
X150546070Y-49294886D01*
X150685858Y-49302963D01*
X150835142Y-49347588D01*
X150946709Y-49442014D01*
X151040232Y-49598320D01*
X151069888Y-49662697D01*
X151103493Y-49750469D01*
X151124990Y-49841181D01*
X151137045Y-49953364D01*
X151142324Y-50105553D01*
X151143491Y-50316282D01*
X151143240Y-50425182D01*
X151143240Y-50425217D01*
X151140151Y-50608060D01*
G37*
G36*
X151115549Y-54302398D02*
G01*
X151220364Y-54382183D01*
X151353668Y-54500231D01*
X151403114Y-54545574D01*
X151488565Y-54628816D01*
X151527495Y-54681991D01*
X151528197Y-54719736D01*
X151498964Y-54756690D01*
X151489400Y-54766113D01*
X151443051Y-54799185D01*
X151389552Y-54796097D01*
X151298422Y-54756879D01*
X151162762Y-54692188D01*
X151162762Y-55339091D01*
X151162490Y-55443328D01*
X151158601Y-55691474D01*
X151149856Y-55869141D01*
X151135932Y-55981131D01*
X151116510Y-56032245D01*
X151090071Y-56053778D01*
X151027861Y-56078497D01*
X151006921Y-56077263D01*
X150968735Y-56062767D01*
X150940059Y-56024768D01*
X150919569Y-55954337D01*
X150905939Y-55842547D01*
X150897845Y-55680469D01*
X150893960Y-55459177D01*
X150892959Y-55169742D01*
X150893893Y-54904847D01*
X150899412Y-54650943D01*
X150912952Y-54465047D01*
X150937924Y-54342202D01*
X150977740Y-54277450D01*
X151035811Y-54265835D01*
X151115549Y-54302398D01*
G37*
G36*
X153158098Y-49319011D02*
G01*
X153196200Y-49350075D01*
X153229644Y-49405080D01*
X153230848Y-49414834D01*
X153243844Y-49477966D01*
X153247310Y-49539838D01*
X153250593Y-49564283D01*
X153286008Y-49626560D01*
X153306123Y-49656855D01*
X153301912Y-49680318D01*
X153294276Y-49691521D01*
X153321184Y-49738133D01*
X153343922Y-49772235D01*
X153340456Y-49795948D01*
X153331789Y-49804499D01*
X153354673Y-49847673D01*
X153373458Y-49878274D01*
X153373172Y-49923828D01*
X153368036Y-49948534D01*
X153397498Y-50007004D01*
X153420846Y-50041984D01*
X153417542Y-50065751D01*
X153409905Y-50076954D01*
X153436814Y-50123566D01*
X153459552Y-50157667D01*
X153456085Y-50181380D01*
X153447419Y-50189931D01*
X153470303Y-50233106D01*
X153489088Y-50263706D01*
X153488802Y-50309261D01*
X153483666Y-50333966D01*
X153513127Y-50392437D01*
X153536475Y-50427416D01*
X153533172Y-50451183D01*
X153526881Y-50465153D01*
X153557360Y-50514922D01*
X153587242Y-50555988D01*
X153600623Y-50592008D01*
X153591614Y-50622534D01*
X153590767Y-50694768D01*
X153601377Y-50765873D01*
X153619894Y-50797932D01*
X153621000Y-50797515D01*
X153642340Y-50755117D01*
X153680705Y-50651097D01*
X153732305Y-50496744D01*
X153793351Y-50303353D01*
X153860054Y-50082215D01*
X153865019Y-50065432D01*
X153932970Y-49842289D01*
X153996595Y-49644657D01*
X154051717Y-49484698D01*
X154094154Y-49374575D01*
X154119730Y-49326449D01*
X154185807Y-49303320D01*
X154254086Y-49325266D01*
X154284765Y-49383603D01*
X154280938Y-49402971D01*
X154258919Y-49487198D01*
X154220459Y-49625668D01*
X154169148Y-49806118D01*
X154108576Y-50016286D01*
X154042333Y-50243909D01*
X153974008Y-50476724D01*
X153907192Y-50702469D01*
X153845475Y-50908882D01*
X153792446Y-51083699D01*
X153751695Y-51214659D01*
X153726812Y-51289499D01*
X153715314Y-51308571D01*
X153654731Y-51337678D01*
X153627834Y-51333022D01*
X153562396Y-51289499D01*
X153547843Y-51257699D01*
X153512375Y-51158903D01*
X153461333Y-51004919D01*
X153398141Y-50806362D01*
X153326222Y-50573846D01*
X153249002Y-50317987D01*
X153187513Y-50111028D01*
X153116932Y-49869401D01*
X153065778Y-49686287D01*
X153032083Y-49552754D01*
X153013877Y-49459870D01*
X153009191Y-49398703D01*
X153016056Y-49360319D01*
X153032505Y-49335787D01*
X153088037Y-49299429D01*
X153158098Y-49319011D01*
G37*
G36*
X154651360Y-54275605D02*
G01*
X154849484Y-54334189D01*
X155005653Y-54456035D01*
X155126331Y-54645203D01*
X155158964Y-54723035D01*
X155219856Y-54965509D01*
X155231014Y-55216271D01*
X155195706Y-55459767D01*
X155117197Y-55680446D01*
X154998753Y-55862754D01*
X154843642Y-55991141D01*
X154677743Y-56059595D01*
X154472233Y-56079390D01*
X154280278Y-56027722D01*
X154111789Y-55907663D01*
X153976676Y-55722288D01*
X153928834Y-55629211D01*
X153904072Y-55560871D01*
X153912045Y-55516530D01*
X153950255Y-55472561D01*
X153999977Y-55430654D01*
X154038932Y-55436832D01*
X154092881Y-55500349D01*
X154169992Y-55602085D01*
X154252183Y-55705901D01*
X154312371Y-55767431D01*
X154365502Y-55797715D01*
X154426523Y-55807789D01*
X154510380Y-55808695D01*
X154539532Y-55808040D01*
X154678874Y-55787746D01*
X154781422Y-55745773D01*
X154823368Y-55710766D01*
X154920918Y-55571509D01*
X154985145Y-55388526D01*
X155012592Y-55182373D01*
X154999804Y-54973603D01*
X154943325Y-54782770D01*
X154921625Y-54738025D01*
X154820422Y-54597977D01*
X154688532Y-54521456D01*
X154510380Y-54498224D01*
X154449528Y-54498381D01*
X154382988Y-54504411D01*
X154329000Y-54527206D01*
X154272617Y-54577805D01*
X154198893Y-54667247D01*
X154092881Y-54806570D01*
X154041108Y-54868251D01*
X154002098Y-54877263D01*
X153950255Y-54834358D01*
X153916079Y-54796661D01*
X153903219Y-54753930D01*
X153922589Y-54690846D01*
X153976676Y-54583827D01*
X154005600Y-54533497D01*
X154136377Y-54385069D01*
X154307594Y-54298357D01*
X154527196Y-54268816D01*
X154651360Y-54275605D01*
G37*
G36*
X152331611Y-50336192D02*
G01*
X152532916Y-50339300D01*
X152675812Y-50345745D01*
X152770762Y-50356355D01*
X152828226Y-50371954D01*
X152858665Y-50393368D01*
X152887217Y-50447308D01*
X152858665Y-50508998D01*
X152836754Y-50526295D01*
X152786033Y-50543084D01*
X152700092Y-50554704D01*
X152568471Y-50561982D01*
X152380709Y-50565743D01*
X152126343Y-50566813D01*
X151921075Y-50566175D01*
X151719771Y-50563067D01*
X151576874Y-50556621D01*
X151481925Y-50546011D01*
X151424461Y-50530413D01*
X151394022Y-50508998D01*
X151365470Y-50455058D01*
X151394022Y-50393368D01*
X151415933Y-50376071D01*
X151466654Y-50359283D01*
X151552595Y-50347662D01*
X151684216Y-50340385D01*
X151871978Y-50336624D01*
X152126343Y-50335553D01*
X152331611Y-50336192D01*
G37*
G36*
X157021336Y-54966468D02*
G01*
X157023591Y-55044114D01*
X157031495Y-55273714D01*
X157040354Y-55441338D01*
X157051603Y-55558767D01*
X157066676Y-55637783D01*
X157087007Y-55690166D01*
X157114032Y-55727697D01*
X157131039Y-55744419D01*
X157239417Y-55798794D01*
X157360580Y-55800670D01*
X157461830Y-55748127D01*
X157466116Y-55743526D01*
X157506976Y-55653768D01*
X157522398Y-55521587D01*
X157530626Y-55421553D01*
X157566605Y-55322445D01*
X157624221Y-55281334D01*
X157695843Y-55307632D01*
X157723711Y-55345989D01*
X157749502Y-55457548D01*
X157746207Y-55608920D01*
X157713085Y-55779797D01*
X157706223Y-55802666D01*
X157643868Y-55916573D01*
X157530219Y-55999717D01*
X157519972Y-56005060D01*
X157352724Y-56066489D01*
X157204672Y-56061712D01*
X157055943Y-55990336D01*
X157026224Y-55969833D01*
X156951772Y-55909445D01*
X156896508Y-55841302D01*
X156857613Y-55753853D01*
X156832269Y-55635550D01*
X156817656Y-55474842D01*
X156810955Y-55260180D01*
X156809348Y-54980015D01*
X156809348Y-54286236D01*
X157002064Y-54286236D01*
X157021336Y-54966468D01*
G37*
G36*
X156897461Y-50242168D02*
G01*
X156838946Y-50370955D01*
X156735594Y-50471388D01*
X156576988Y-50561863D01*
X156541076Y-50578908D01*
X156432097Y-50621998D01*
X156351160Y-50630812D01*
X156268188Y-50610042D01*
X156156642Y-50574362D01*
X156092084Y-50574821D01*
X156071816Y-50624007D01*
X156082436Y-50730622D01*
X156090061Y-50772895D01*
X156115218Y-50864658D01*
X156140707Y-50907278D01*
X156148004Y-50911177D01*
X156173384Y-50960844D01*
X156174314Y-50970930D01*
X156217977Y-51034149D01*
X156307701Y-51084175D01*
X156416814Y-51105193D01*
X156430639Y-51105122D01*
X156550887Y-51084968D01*
X156639756Y-51037710D01*
X156674447Y-50974880D01*
X156684188Y-50938569D01*
X156734196Y-50873553D01*
X156737868Y-50870544D01*
X156795071Y-50844833D01*
X156852676Y-50882697D01*
X156877856Y-50925885D01*
X156875414Y-51020523D01*
X156826857Y-51125406D01*
X156743312Y-51219956D01*
X156635903Y-51283597D01*
X156433273Y-51327844D01*
X156246754Y-51303960D01*
X156086968Y-51207788D01*
X155953511Y-51039182D01*
X155923592Y-50987231D01*
X155891401Y-50921865D01*
X155869589Y-50853252D01*
X155856139Y-50766624D01*
X155849031Y-50647213D01*
X155846246Y-50480252D01*
X155845767Y-50250972D01*
X155845767Y-49972068D01*
X156077676Y-49972068D01*
X156078229Y-50039202D01*
X156088291Y-50160220D01*
X156116594Y-50242536D01*
X156170467Y-50313076D01*
X156211274Y-50350990D01*
X156336553Y-50409017D01*
X156468553Y-50391941D01*
X156600325Y-50299975D01*
X156630494Y-50268519D01*
X156683406Y-50193572D01*
X156707364Y-50104251D01*
X156712990Y-49969393D01*
X156712325Y-49910373D01*
X156700932Y-49796639D01*
X156667139Y-49716506D01*
X156600325Y-49638810D01*
X156564959Y-49606046D01*
X156444109Y-49538568D01*
X156323185Y-49546487D01*
X156193306Y-49629602D01*
X156137894Y-49683143D01*
X156098767Y-49746765D01*
X156081685Y-49834215D01*
X156077676Y-49972068D01*
X155845767Y-49972068D01*
X155845767Y-49646057D01*
X155973358Y-49514416D01*
X156005739Y-49483577D01*
X156125900Y-49394413D01*
X156243160Y-49335952D01*
X156254284Y-49332343D01*
X156351842Y-49310415D01*
X156440765Y-49319980D01*
X156558817Y-49364448D01*
X156605539Y-49386726D01*
X156731938Y-49463321D01*
X156827584Y-49542775D01*
X156836857Y-49552956D01*
X156882367Y-49614330D01*
X156908537Y-49686014D01*
X156920639Y-49790241D01*
X156923942Y-49949241D01*
X156923533Y-49969393D01*
X156921559Y-50066629D01*
X156897461Y-50242168D01*
G37*
G36*
X152931224Y-55134332D02*
G01*
X153155323Y-55135906D01*
X153317936Y-55139936D01*
X153429646Y-55147313D01*
X153501039Y-55158924D01*
X153542698Y-55175659D01*
X153565207Y-55198408D01*
X153584979Y-55249703D01*
X153555125Y-55323673D01*
X153555114Y-55323686D01*
X153496511Y-55348287D01*
X153376400Y-55367421D01*
X153210159Y-55381088D01*
X153013167Y-55389287D01*
X152800800Y-55392020D01*
X152588437Y-55389285D01*
X152391455Y-55381083D01*
X152225233Y-55367413D01*
X152105147Y-55348277D01*
X152046576Y-55323673D01*
X152018751Y-55274223D01*
X152036377Y-55198408D01*
X152045303Y-55186824D01*
X152075520Y-55167036D01*
X152129902Y-55152840D01*
X152219032Y-55143346D01*
X152353492Y-55137665D01*
X152543865Y-55134909D01*
X152800733Y-55134188D01*
X152931224Y-55134332D01*
G37*
G36*
X153044472Y-47599527D02*
G01*
X152978435Y-47706789D01*
X152881540Y-47794445D01*
X152756210Y-47857868D01*
X152754640Y-47858426D01*
X152659137Y-47880754D01*
X152544676Y-47890988D01*
X152429681Y-47888488D01*
X152332576Y-47872611D01*
X152327906Y-47871249D01*
X152260482Y-47841985D01*
X152199463Y-47801946D01*
X152139689Y-47751649D01*
X152139689Y-47873479D01*
X151824161Y-47873479D01*
X151824265Y-47320021D01*
X152139689Y-47320021D01*
X152139723Y-47327769D01*
X152149065Y-47428240D01*
X152176634Y-47499358D01*
X152224835Y-47547547D01*
X152227452Y-47549158D01*
X152275731Y-47566359D01*
X152347829Y-47580224D01*
X152429410Y-47589142D01*
X152506139Y-47591497D01*
X152563680Y-47585678D01*
X152592989Y-47578798D01*
X152647994Y-47566541D01*
X152708409Y-47539329D01*
X152754108Y-47482454D01*
X152770118Y-47405117D01*
X152769722Y-47389102D01*
X152760595Y-47328872D01*
X152735936Y-47284644D01*
X152691021Y-47254166D01*
X152621125Y-47235184D01*
X152521524Y-47225447D01*
X152387492Y-47222702D01*
X152139689Y-47222702D01*
X152139689Y-47320021D01*
X151824265Y-47320021D01*
X151824271Y-47286794D01*
X151824555Y-47177163D01*
X151826229Y-47006764D01*
X151829314Y-46862697D01*
X151833702Y-46748236D01*
X151839287Y-46666654D01*
X151845961Y-46621227D01*
X151849576Y-46609300D01*
X151896236Y-46521740D01*
X151971649Y-46440304D01*
X152066531Y-46373318D01*
X152171598Y-46329111D01*
X152236277Y-46314656D01*
X152361410Y-46300045D01*
X152495593Y-46297106D01*
X152623274Y-46305911D01*
X152728900Y-46326532D01*
X152743448Y-46331357D01*
X152805689Y-46360041D01*
X152870862Y-46399611D01*
X152929336Y-46443093D01*
X152971482Y-46483516D01*
X152987670Y-46513906D01*
X152987339Y-46515392D01*
X152968821Y-46537266D01*
X152927561Y-46574395D01*
X152871405Y-46619644D01*
X152854043Y-46632945D01*
X152799907Y-46672404D01*
X152766250Y-46690752D01*
X152745086Y-46691185D01*
X152728431Y-46676903D01*
X152694651Y-46647431D01*
X152618232Y-46613337D01*
X152523204Y-46594663D01*
X152420427Y-46591447D01*
X152320762Y-46603727D01*
X152235066Y-46631543D01*
X152174200Y-46674933D01*
X152163785Y-46689348D01*
X152145407Y-46744136D01*
X152139689Y-46828668D01*
X152139689Y-46942998D01*
X152430566Y-46950077D01*
X152462855Y-46950905D01*
X152575305Y-46954933D01*
X152658252Y-46960656D01*
X152719707Y-46969088D01*
X152767681Y-46981242D01*
X152810186Y-46998133D01*
X152919637Y-47066234D01*
X153005645Y-47161498D01*
X153059410Y-47278435D01*
X153074294Y-47344687D01*
X153075633Y-47405117D01*
X153077232Y-47477284D01*
X153044472Y-47599527D01*
G37*
G36*
X155164075Y-43820916D02*
G01*
X155249306Y-43837626D01*
X155393637Y-43887902D01*
X155505930Y-43961010D01*
X155586078Y-44056838D01*
X155633972Y-44175277D01*
X155649504Y-44316217D01*
X155648468Y-44339965D01*
X155635541Y-44420734D01*
X155612665Y-44491413D01*
X155593905Y-44528082D01*
X155537976Y-44603613D01*
X155463387Y-44661846D01*
X155365113Y-44705279D01*
X155238130Y-44736415D01*
X155077412Y-44757753D01*
X155020863Y-44763653D01*
X154912522Y-44779421D01*
X154836160Y-44799656D01*
X154786536Y-44826792D01*
X154758410Y-44863266D01*
X154746543Y-44911512D01*
X154747010Y-44961020D01*
X154773824Y-45027917D01*
X154833736Y-45075224D01*
X154927334Y-45103327D01*
X155055210Y-45112609D01*
X155060573Y-45112596D01*
X155200676Y-45100481D01*
X155323170Y-45062503D01*
X155443271Y-44994011D01*
X155531979Y-44932979D01*
X155640011Y-45027724D01*
X155646546Y-45033479D01*
X155697968Y-45080580D01*
X155734391Y-45117119D01*
X155748291Y-45135602D01*
X155747491Y-45139537D01*
X155724969Y-45166533D01*
X155677623Y-45204741D01*
X155613733Y-45248416D01*
X155541578Y-45291808D01*
X155469439Y-45329172D01*
X155403288Y-45356843D01*
X155313321Y-45387379D01*
X155235807Y-45406634D01*
X155196079Y-45412691D01*
X155037370Y-45419985D01*
X154884599Y-45401724D01*
X154743942Y-45360191D01*
X154621574Y-45297665D01*
X154523672Y-45216428D01*
X154456410Y-45118761D01*
X154429717Y-45032028D01*
X154421396Y-44919147D01*
X154435071Y-44804282D01*
X154470219Y-44703264D01*
X154474002Y-44696037D01*
X154521513Y-44623954D01*
X154581661Y-44567519D01*
X154659760Y-44524455D01*
X154761125Y-44492485D01*
X154891070Y-44469332D01*
X155054911Y-44452717D01*
X155055233Y-44452693D01*
X155135766Y-44442996D01*
X155208154Y-44428342D01*
X155256760Y-44411894D01*
X155298497Y-44380541D01*
X155328100Y-44324806D01*
X155326520Y-44262564D01*
X155294588Y-44202872D01*
X155233136Y-44154784D01*
X155173121Y-44134427D01*
X155074701Y-44125127D01*
X154964327Y-44133967D01*
X154854342Y-44159743D01*
X154757091Y-44201249D01*
X154647619Y-44263031D01*
X154557163Y-44157151D01*
X154554398Y-44153907D01*
X154510135Y-44099646D01*
X154478736Y-44056908D01*
X154466843Y-44034697D01*
X154468407Y-44029238D01*
X154494088Y-44002234D01*
X154544671Y-43966448D01*
X154611563Y-43927507D01*
X154686175Y-43891038D01*
X154758084Y-43865979D01*
X154862282Y-43841745D01*
X154974722Y-43824683D01*
X155080341Y-43817003D01*
X155164075Y-43820916D01*
G37*
G36*
X159410572Y-44673588D02*
G01*
X159393944Y-44836515D01*
X159355651Y-44989115D01*
X159295599Y-45123907D01*
X159213693Y-45233409D01*
X159140622Y-45294941D01*
X159017345Y-45364103D01*
X158881501Y-45407766D01*
X158793835Y-45417532D01*
X158671962Y-45414236D01*
X158546921Y-45396407D01*
X158436131Y-45365689D01*
X158392059Y-45345770D01*
X158312567Y-45298278D01*
X158243216Y-45244524D01*
X158153338Y-45161910D01*
X158266461Y-45068561D01*
X158292197Y-45047455D01*
X158341865Y-45009184D01*
X158373871Y-44991772D01*
X158396952Y-44991600D01*
X158419846Y-45005052D01*
X158429524Y-45012065D01*
X158548187Y-45076155D01*
X158673964Y-45108464D01*
X158798561Y-45107849D01*
X158913683Y-45073166D01*
X158993169Y-45014449D01*
X159053907Y-44924986D01*
X159089647Y-44811871D01*
X159102812Y-44737920D01*
X158115000Y-44737920D01*
X158115149Y-44614666D01*
X158116710Y-44537802D01*
X158122434Y-44481553D01*
X158450248Y-44481553D01*
X159100038Y-44481553D01*
X159088467Y-44417461D01*
X159066732Y-44337273D01*
X159015568Y-44240229D01*
X158945274Y-44171215D01*
X158894577Y-44146213D01*
X158799536Y-44127120D01*
X158698863Y-44132648D01*
X158608196Y-44163172D01*
X158560755Y-44199396D01*
X158505639Y-44268738D01*
X158465665Y-44349316D01*
X158450248Y-44425493D01*
X158450248Y-44481553D01*
X158122434Y-44481553D01*
X158133890Y-44368962D01*
X158171474Y-44227601D01*
X158231257Y-44108248D01*
X158315035Y-44005431D01*
X158401383Y-43933900D01*
X158530497Y-43866251D01*
X158670365Y-43829244D01*
X158814023Y-43822998D01*
X158954508Y-43847635D01*
X159084854Y-43903278D01*
X159198099Y-43990046D01*
X159262306Y-44068231D01*
X159331402Y-44197655D01*
X159379207Y-44346677D01*
X159401322Y-44481553D01*
X159405628Y-44507815D01*
X159410572Y-44673588D01*
G37*
G36*
X154221864Y-44852154D02*
G01*
X154201905Y-44970362D01*
X154173258Y-45060626D01*
X154100749Y-45180789D01*
X153995260Y-45286682D01*
X153866936Y-45363973D01*
X153721554Y-45408217D01*
X153690674Y-45412656D01*
X153564730Y-45416364D01*
X153437781Y-45400923D01*
X153328495Y-45368231D01*
X153247245Y-45322851D01*
X153147006Y-45240023D01*
X153061903Y-45140572D01*
X153003731Y-45036544D01*
X152991547Y-45004253D01*
X152977448Y-44956736D01*
X152968065Y-44904067D01*
X152962449Y-44837678D01*
X152959655Y-44748997D01*
X152958734Y-44629457D01*
X152958745Y-44619597D01*
X153273618Y-44619597D01*
X153274269Y-44691892D01*
X153279923Y-44801455D01*
X153293325Y-44883321D01*
X153316805Y-44945007D01*
X153352696Y-44994030D01*
X153403327Y-45037905D01*
X153463138Y-45072128D01*
X153567371Y-45095531D01*
X153682637Y-45083375D01*
X153683387Y-45083184D01*
X153764394Y-45055029D01*
X153824933Y-45014096D01*
X153867589Y-44955198D01*
X153894946Y-44873148D01*
X153909588Y-44762759D01*
X153914101Y-44618845D01*
X153913547Y-44525940D01*
X153910274Y-44449094D01*
X153902869Y-44393170D01*
X153889957Y-44348340D01*
X153870163Y-44304776D01*
X153857347Y-44281838D01*
X153790677Y-44205758D01*
X153701406Y-44160972D01*
X153587440Y-44146305D01*
X153585182Y-44146311D01*
X153475774Y-44164429D01*
X153385183Y-44217175D01*
X153314125Y-44304136D01*
X153312228Y-44307399D01*
X153295415Y-44342046D01*
X153284240Y-44382081D01*
X153277610Y-44436012D01*
X153274434Y-44512348D01*
X153273618Y-44619597D01*
X152958745Y-44619597D01*
X152958780Y-44586947D01*
X152962163Y-44444889D01*
X152972144Y-44332560D01*
X152990730Y-44242411D01*
X153019928Y-44166893D01*
X153061743Y-44098458D01*
X153118183Y-44029556D01*
X153220190Y-43938021D01*
X153347084Y-43867493D01*
X153483520Y-43828012D01*
X153623760Y-43818693D01*
X153762065Y-43838650D01*
X153892697Y-43886998D01*
X154009917Y-43962852D01*
X154107987Y-44065327D01*
X154181167Y-44193537D01*
X154187951Y-44211228D01*
X154212882Y-44310898D01*
X154228642Y-44435375D01*
X154235328Y-44574111D01*
X154234609Y-44618845D01*
X154233037Y-44716554D01*
X154221864Y-44852154D01*
G37*
G36*
X160562694Y-47873479D02*
G01*
X160556587Y-47345955D01*
X160555472Y-47252511D01*
X160553497Y-47113978D01*
X160551177Y-47007042D01*
X160548091Y-46926680D01*
X160543819Y-46867866D01*
X160537940Y-46825578D01*
X160530032Y-46794792D01*
X160519674Y-46770482D01*
X160506446Y-46747627D01*
X160504517Y-46744578D01*
X160438769Y-46676141D01*
X160351587Y-46631888D01*
X160253828Y-46613879D01*
X160156348Y-46624174D01*
X160070006Y-46664831D01*
X160037620Y-46690319D01*
X160010055Y-46718869D01*
X159988870Y-46753499D01*
X159973232Y-46798974D01*
X159962306Y-46860060D01*
X159955258Y-46941522D01*
X159951253Y-47048125D01*
X159949457Y-47184634D01*
X159949037Y-47355815D01*
X159949006Y-47873479D01*
X159631864Y-47873479D01*
X159637601Y-47267073D01*
X159637909Y-47234576D01*
X159639803Y-47058739D01*
X159642374Y-46916834D01*
X159646511Y-46804132D01*
X159653105Y-46715903D01*
X159663047Y-46647419D01*
X159677226Y-46593950D01*
X159696534Y-46550766D01*
X159721860Y-46513138D01*
X159754096Y-46476337D01*
X159794130Y-46435634D01*
X159841960Y-46394472D01*
X159954622Y-46332704D01*
X160081184Y-46300021D01*
X160212407Y-46297152D01*
X160339051Y-46324826D01*
X160451879Y-46383772D01*
X160458279Y-46388409D01*
X160503832Y-46420458D01*
X160535691Y-46441374D01*
X160538299Y-46442087D01*
X160544985Y-46432925D01*
X160550259Y-46404324D01*
X160554261Y-46352952D01*
X160557131Y-46275476D01*
X160559007Y-46168562D01*
X160560031Y-46028878D01*
X160560341Y-45853090D01*
X160560341Y-45250250D01*
X160456809Y-45318582D01*
X160408843Y-45346940D01*
X160329280Y-45384459D01*
X160259214Y-45407697D01*
X160161314Y-45419550D01*
X160028641Y-45405154D01*
X159905950Y-45358104D01*
X159799524Y-45282075D01*
X159715647Y-45180738D01*
X159660599Y-45057767D01*
X159658039Y-45048236D01*
X159644924Y-44970649D01*
X159635664Y-44865021D01*
X159630254Y-44740961D01*
X159628943Y-44629457D01*
X159958866Y-44629457D01*
X159960386Y-44750573D01*
X159966644Y-44852071D01*
X159979421Y-44926633D01*
X160000486Y-44980746D01*
X160031608Y-45020892D01*
X160074556Y-45053558D01*
X160128388Y-45078955D01*
X160221340Y-45096771D01*
X160317327Y-45090983D01*
X160403974Y-45062843D01*
X160468910Y-45013606D01*
X160487821Y-44987158D01*
X160526520Y-44897781D01*
X160551094Y-44785378D01*
X160561602Y-44659858D01*
X160558103Y-44531129D01*
X160540658Y-44409097D01*
X160509326Y-44303672D01*
X160464166Y-44224760D01*
X160436232Y-44194051D01*
X160401951Y-44170117D01*
X160355887Y-44157385D01*
X160284212Y-44150120D01*
X160213881Y-44148745D01*
X160117784Y-44165993D01*
X160046201Y-44209684D01*
X159994416Y-44281964D01*
X159979554Y-44318749D01*
X159969322Y-44364260D01*
X159962988Y-44426081D01*
X159959765Y-44511914D01*
X159958866Y-44629457D01*
X159628943Y-44629457D01*
X159628692Y-44608079D01*
X159630975Y-44475984D01*
X159637100Y-44354285D01*
X159647064Y-44252593D01*
X159660864Y-44180515D01*
X159681989Y-44121435D01*
X159749506Y-44008460D01*
X159841247Y-43920440D01*
X159951471Y-43859239D01*
X160074439Y-43826725D01*
X160204408Y-43824763D01*
X160335640Y-43855219D01*
X160462394Y-43919960D01*
X160560341Y-43985873D01*
X160560341Y-43830777D01*
X160875869Y-43830777D01*
X160875869Y-47873479D01*
X160562694Y-47873479D01*
G37*
G36*
X154336043Y-46325420D02*
G01*
X154504908Y-46852558D01*
X154511754Y-46873904D01*
X154555351Y-47008650D01*
X154595118Y-47129580D01*
X154629441Y-47231933D01*
X154656710Y-47310955D01*
X154675311Y-47361886D01*
X154683633Y-47379968D01*
X154688583Y-47369417D01*
X154702892Y-47325786D01*
X154724679Y-47253083D01*
X154752445Y-47156453D01*
X154784693Y-47041041D01*
X154819923Y-46911992D01*
X154844410Y-46821311D01*
X154878923Y-46693545D01*
X154909775Y-46579376D01*
X154935312Y-46484924D01*
X154953880Y-46416308D01*
X154963824Y-46379651D01*
X154981295Y-46315559D01*
X155147992Y-46315559D01*
X155178082Y-46315743D01*
X155247922Y-46317801D01*
X155296484Y-46321661D01*
X155314689Y-46326716D01*
X155314590Y-46327271D01*
X155307411Y-46351638D01*
X155289973Y-46408088D01*
X155263817Y-46491760D01*
X155230487Y-46597793D01*
X155191524Y-46721325D01*
X155148471Y-46857496D01*
X155102870Y-47001445D01*
X155056265Y-47148310D01*
X155010196Y-47293231D01*
X154966208Y-47431346D01*
X154925841Y-47557794D01*
X154890639Y-47667714D01*
X154862144Y-47756246D01*
X154841898Y-47818527D01*
X154831445Y-47849698D01*
X154830907Y-47850998D01*
X154810366Y-47864420D01*
X154761520Y-47870330D01*
X154679042Y-47869418D01*
X154535837Y-47863618D01*
X154379625Y-47336985D01*
X154373884Y-47317664D01*
X154333272Y-47182927D01*
X154295992Y-47062496D01*
X154263577Y-46961085D01*
X154237560Y-46883409D01*
X154219474Y-46834181D01*
X154210853Y-46818115D01*
X154210444Y-46818533D01*
X154200691Y-46842361D01*
X154181542Y-46898615D01*
X154154555Y-46982384D01*
X154121288Y-47088757D01*
X154083300Y-47212826D01*
X154042149Y-47349679D01*
X153886006Y-47873479D01*
X153601634Y-47873479D01*
X153473711Y-47474138D01*
X153435759Y-47355561D01*
X153382986Y-47190430D01*
X153328553Y-47019881D01*
X153277032Y-46858240D01*
X153232993Y-46719829D01*
X153232631Y-46718691D01*
X153196700Y-46605841D01*
X153164533Y-46505227D01*
X153138166Y-46423191D01*
X153119638Y-46366071D01*
X153110986Y-46340210D01*
X153111785Y-46331657D01*
X153133348Y-46322193D01*
X153184212Y-46317088D01*
X153269398Y-46315559D01*
X153276748Y-46315570D01*
X153368609Y-46318392D01*
X153424262Y-46326478D01*
X153446458Y-46340210D01*
X153452582Y-46360402D01*
X153467907Y-46414532D01*
X153490715Y-46496694D01*
X153519527Y-46601538D01*
X153552870Y-46723714D01*
X153589267Y-46857873D01*
X153621838Y-46977272D01*
X153655898Y-47099870D01*
X153685829Y-47205231D01*
X153710124Y-47288136D01*
X153727280Y-47343366D01*
X153735788Y-47365704D01*
X153736765Y-47365719D01*
X153748189Y-47344388D01*
X153769526Y-47290944D01*
X153799148Y-47209943D01*
X153835424Y-47105937D01*
X153876724Y-46983480D01*
X153921419Y-46847124D01*
X154093901Y-46313726D01*
X154336043Y-46325420D01*
G37*
G36*
X157277999Y-43840244D02*
G01*
X157383056Y-43879306D01*
X157464690Y-43939736D01*
X157494046Y-43968633D01*
X157524009Y-43985024D01*
X157539008Y-43965885D01*
X157543105Y-43909659D01*
X157543105Y-43830777D01*
X157858633Y-43830777D01*
X157858633Y-45408416D01*
X157545967Y-45408416D01*
X157539606Y-44880893D01*
X157538172Y-44765755D01*
X157536158Y-44632297D01*
X157533774Y-44529678D01*
X157530577Y-44452852D01*
X157526128Y-44396770D01*
X157519984Y-44356385D01*
X157511703Y-44326650D01*
X157500846Y-44302518D01*
X157486970Y-44278940D01*
X157478101Y-44265274D01*
X157414214Y-44196661D01*
X157332875Y-44158264D01*
X157226669Y-44146305D01*
X157124489Y-44158739D01*
X157041305Y-44199989D01*
X156978814Y-44272231D01*
X156968224Y-44292545D01*
X156959093Y-44319589D01*
X156951914Y-44356798D01*
X156946300Y-44409053D01*
X156941865Y-44481233D01*
X156938223Y-44578215D01*
X156934987Y-44704878D01*
X156931770Y-44866103D01*
X156921910Y-45398556D01*
X156757666Y-45404309D01*
X156593423Y-45410062D01*
X156599902Y-44822554D01*
X156599993Y-44814316D01*
X156601961Y-44647593D01*
X156604010Y-44515181D01*
X156606510Y-44412168D01*
X156609834Y-44333644D01*
X156614353Y-44274697D01*
X156620438Y-44230415D01*
X156628462Y-44195886D01*
X156638795Y-44166200D01*
X156651810Y-44136444D01*
X156710288Y-44033379D01*
X156792150Y-43945555D01*
X156902189Y-43875004D01*
X156927016Y-43863313D01*
X157039505Y-43831042D01*
X157159990Y-43823754D01*
X157277999Y-43840244D01*
G37*
G36*
X157167671Y-46301278D02*
G01*
X157294278Y-46338957D01*
X157405211Y-46409004D01*
X157483944Y-46476397D01*
X157483944Y-46315559D01*
X157799472Y-46315559D01*
X157799472Y-47873479D01*
X157483944Y-47873479D01*
X157483944Y-47364924D01*
X157483927Y-47297686D01*
X157483613Y-47156686D01*
X157482594Y-47047679D01*
X157480474Y-46965358D01*
X157476861Y-46904420D01*
X157471359Y-46859558D01*
X157463573Y-46825467D01*
X157453109Y-46796843D01*
X157439573Y-46768379D01*
X157395477Y-46704556D01*
X157317829Y-46644625D01*
X157225946Y-46613778D01*
X157128993Y-46614702D01*
X157036135Y-46650085D01*
X156972876Y-46688656D01*
X156863581Y-46556982D01*
X156843113Y-46532034D01*
X156797676Y-46474255D01*
X156766111Y-46430584D01*
X156754285Y-46408967D01*
X156764449Y-46397196D01*
X156802037Y-46372987D01*
X156857818Y-46344425D01*
X156900194Y-46326890D01*
X157033580Y-46296934D01*
X157167671Y-46301278D01*
G37*
G36*
X149463374Y-43829010D02*
G01*
X149583627Y-43856796D01*
X149731391Y-43920046D01*
X149851872Y-44011507D01*
X149945481Y-44131621D01*
X150012634Y-44280830D01*
X150053744Y-44459576D01*
X150065702Y-44632505D01*
X150051330Y-44804760D01*
X150011656Y-44964213D01*
X149948457Y-45103794D01*
X149863511Y-45216435D01*
X149843311Y-45235798D01*
X149738860Y-45312696D01*
X149618088Y-45373243D01*
X149498491Y-45408244D01*
X149422844Y-45419370D01*
X149335488Y-45424145D01*
X149255896Y-45415209D01*
X149166625Y-45391689D01*
X149129364Y-45378817D01*
X149018706Y-45327508D01*
X148916619Y-45262761D01*
X148838380Y-45193786D01*
X148814953Y-45165164D01*
X148813224Y-45142150D01*
X148838380Y-45110436D01*
X148849846Y-45098443D01*
X148895955Y-45055499D01*
X148949478Y-45010510D01*
X149023010Y-44952197D01*
X149093843Y-45006224D01*
X149109431Y-45017593D01*
X149216716Y-45072449D01*
X149329932Y-45095834D01*
X149441805Y-45089027D01*
X149545058Y-45053305D01*
X149632418Y-44989949D01*
X149696609Y-44900238D01*
X149699031Y-44895249D01*
X149720971Y-44842088D01*
X149734121Y-44786666D01*
X149740483Y-44716622D01*
X149742060Y-44619597D01*
X149741937Y-44591380D01*
X149739325Y-44504375D01*
X149731678Y-44440953D01*
X149716822Y-44388597D01*
X149692584Y-44334791D01*
X149640107Y-44254606D01*
X149561672Y-44190397D01*
X149461292Y-44156283D01*
X149335203Y-44150321D01*
X149299694Y-44152635D01*
X149228526Y-44162907D01*
X149171899Y-44183942D01*
X149111969Y-44221424D01*
X149021094Y-44285479D01*
X148948520Y-44227925D01*
X148930411Y-44213230D01*
X148877528Y-44167134D01*
X148838193Y-44128550D01*
X148832378Y-44122082D01*
X148812567Y-44094747D01*
X148816887Y-44071980D01*
X148846915Y-44037257D01*
X148855552Y-44028332D01*
X148952710Y-43950498D01*
X149072844Y-43884680D01*
X149201214Y-43839120D01*
X149232975Y-43831328D01*
X149307605Y-43818314D01*
X149377256Y-43817817D01*
X149463374Y-43829010D01*
G37*
G36*
X150831817Y-46300758D02*
G01*
X150964883Y-46335319D01*
X151084683Y-46402995D01*
X151153664Y-46455610D01*
X151153664Y-46315559D01*
X151469192Y-46315559D01*
X151469192Y-47873479D01*
X151153664Y-47873479D01*
X151153634Y-47355815D01*
X151153531Y-47252302D01*
X151152834Y-47114484D01*
X151151222Y-47007999D01*
X151148400Y-46927846D01*
X151144075Y-46869024D01*
X151137950Y-46826532D01*
X151129731Y-46795368D01*
X151119123Y-46770533D01*
X151087870Y-46721852D01*
X151012999Y-46655614D01*
X150921545Y-46619214D01*
X150822109Y-46615342D01*
X150723289Y-46646689D01*
X150646072Y-46686936D01*
X150532211Y-46548531D01*
X150529752Y-46545539D01*
X150476223Y-46478017D01*
X150446441Y-46433498D01*
X150437334Y-46406380D01*
X150445828Y-46391060D01*
X150559475Y-46331605D01*
X150693881Y-46299468D01*
X150831817Y-46300758D01*
G37*
G36*
X159385569Y-47562371D02*
G01*
X159359212Y-47625514D01*
X159285580Y-47726601D01*
X159182525Y-47807937D01*
X159055191Y-47864811D01*
X158975108Y-47881857D01*
X158865522Y-47890666D01*
X158755058Y-47887711D01*
X158662856Y-47872611D01*
X158658186Y-47871249D01*
X158590761Y-47841985D01*
X158529743Y-47801946D01*
X158469969Y-47751649D01*
X158469969Y-47873479D01*
X158131256Y-47873479D01*
X158138596Y-47330616D01*
X158469969Y-47330616D01*
X158471793Y-47375347D01*
X158487949Y-47463804D01*
X158518264Y-47529875D01*
X158559636Y-47565437D01*
X158568168Y-47568239D01*
X158624993Y-47578417D01*
X158703860Y-47585103D01*
X158790725Y-47587784D01*
X158871546Y-47585946D01*
X158932281Y-47579075D01*
X158957704Y-47572374D01*
X159029704Y-47533887D01*
X159078217Y-47477176D01*
X159099978Y-47410508D01*
X159091726Y-47342151D01*
X159050195Y-47280371D01*
X159029313Y-47262489D01*
X159004220Y-47248412D01*
X158969716Y-47239026D01*
X158918294Y-47233040D01*
X158842446Y-47229163D01*
X158734667Y-47226104D01*
X158469969Y-47219646D01*
X158469969Y-47330616D01*
X158138596Y-47330616D01*
X158139322Y-47276933D01*
X158139446Y-47267788D01*
X158142687Y-47076198D01*
X158146705Y-46921165D01*
X158151639Y-46799926D01*
X158157632Y-46709720D01*
X158164824Y-46647788D01*
X158173358Y-46611367D01*
X158215770Y-46524351D01*
X158294128Y-46433130D01*
X158403331Y-46362830D01*
X158432203Y-46349246D01*
X158488143Y-46327802D01*
X158547709Y-46313963D01*
X158622838Y-46305390D01*
X158725467Y-46299746D01*
X158808783Y-46297824D01*
X158946266Y-46304569D01*
X159057967Y-46326731D01*
X159151547Y-46366191D01*
X159234667Y-46424830D01*
X159268513Y-46455105D01*
X159304130Y-46491047D01*
X159317950Y-46511137D01*
X159317482Y-46512839D01*
X159298295Y-46534681D01*
X159256610Y-46571941D01*
X159200168Y-46617622D01*
X159082386Y-46709088D01*
X159032263Y-46662636D01*
X159003850Y-46640027D01*
X158943546Y-46611609D01*
X158862899Y-46596252D01*
X158752817Y-46591646D01*
X158704249Y-46593675D01*
X158609152Y-46610924D01*
X158535289Y-46643177D01*
X158491276Y-46687283D01*
X158483580Y-46708968D01*
X158473795Y-46766218D01*
X158469969Y-46834707D01*
X158469969Y-46942316D01*
X158760846Y-46950603D01*
X158895760Y-46956153D01*
X159005617Y-46965799D01*
X159090316Y-46981208D01*
X159157139Y-47004257D01*
X159213367Y-47036821D01*
X159266282Y-47080775D01*
X159302516Y-47121454D01*
X159357891Y-47219971D01*
X159392318Y-47334883D01*
X159398888Y-47410508D01*
X159402607Y-47453309D01*
X159385569Y-47562371D01*
G37*
G36*
X156722655Y-47378469D02*
G01*
X156719464Y-47446925D01*
X156714046Y-47497245D01*
X156705817Y-47535718D01*
X156694196Y-47568630D01*
X156678600Y-47602269D01*
X156666129Y-47625622D01*
X156592006Y-47724084D01*
X156496253Y-47806512D01*
X156391717Y-47861308D01*
X156374661Y-47866788D01*
X156295951Y-47883950D01*
X156217642Y-47891642D01*
X156181336Y-47890157D01*
X156094303Y-47875042D01*
X156005259Y-47847561D01*
X155928007Y-47812455D01*
X155876349Y-47774463D01*
X155862226Y-47759683D01*
X155830278Y-47738170D01*
X155812932Y-47752733D01*
X155807702Y-47804457D01*
X155807702Y-47873479D01*
X155492174Y-47873479D01*
X155492174Y-47094519D01*
X155817568Y-47094519D01*
X155817570Y-47100213D01*
X155820183Y-47233774D01*
X155829187Y-47334647D01*
X155846803Y-47409137D01*
X155875251Y-47463549D01*
X155916751Y-47504187D01*
X155973525Y-47537358D01*
X156037755Y-47562661D01*
X156134841Y-47574070D01*
X156238233Y-47550878D01*
X156257695Y-47542893D01*
X156323468Y-47496124D01*
X156371198Y-47423400D01*
X156401786Y-47322033D01*
X156416131Y-47189339D01*
X156415132Y-47022629D01*
X156407278Y-46910208D01*
X156392824Y-46815265D01*
X156372057Y-46753468D01*
X156338153Y-46703834D01*
X156265948Y-46646527D01*
X156179050Y-46615970D01*
X156086150Y-46612064D01*
X155995940Y-46634711D01*
X155917112Y-46683812D01*
X155858356Y-46759270D01*
X155855456Y-46764968D01*
X155839025Y-46803603D01*
X155828067Y-46847282D01*
X155821535Y-46904598D01*
X155818384Y-46984146D01*
X155817568Y-47094519D01*
X155492174Y-47094519D01*
X155492174Y-45663124D01*
X155645007Y-45668883D01*
X155797841Y-45674643D01*
X155803188Y-46064123D01*
X155803489Y-46084362D01*
X155806164Y-46201446D01*
X155810034Y-46302854D01*
X155814760Y-46382643D01*
X155820003Y-46434873D01*
X155825424Y-46453603D01*
X155840485Y-46447358D01*
X155869378Y-46420884D01*
X155878382Y-46411152D01*
X155938700Y-46368712D01*
X156021575Y-46331904D01*
X156113214Y-46305940D01*
X156199824Y-46296031D01*
X156229298Y-46296445D01*
X156352885Y-46312371D01*
X156458167Y-46354778D01*
X156557668Y-46428295D01*
X156607867Y-46476284D01*
X156647521Y-46523673D01*
X156677116Y-46575442D01*
X156698095Y-46637433D01*
X156711901Y-46715482D01*
X156719976Y-46815430D01*
X156723763Y-46943116D01*
X156724705Y-47104379D01*
X156724680Y-47162000D01*
X156724574Y-47189339D01*
X156724199Y-47285590D01*
X156722655Y-47378469D01*
G37*
G36*
X152520205Y-43834924D02*
G01*
X152682003Y-43840637D01*
X152681901Y-44422392D01*
X152681897Y-44442666D01*
X152681736Y-44605802D01*
X152681122Y-44734976D01*
X152679727Y-44835122D01*
X152677219Y-44911175D01*
X152673270Y-44968069D01*
X152667551Y-45010739D01*
X152659731Y-45044119D01*
X152649481Y-45073144D01*
X152636473Y-45102749D01*
X152607576Y-45158113D01*
X152518454Y-45272531D01*
X152404403Y-45357050D01*
X152267872Y-45409633D01*
X152237580Y-45415885D01*
X152106241Y-45419046D01*
X151972407Y-45386322D01*
X151843226Y-45319233D01*
X151745279Y-45253320D01*
X151745279Y-45408416D01*
X151429751Y-45408416D01*
X151429751Y-43830777D01*
X151745279Y-43830777D01*
X151745279Y-44339331D01*
X151745296Y-44407008D01*
X151745611Y-44547899D01*
X151746630Y-44656806D01*
X151748750Y-44739030D01*
X151752363Y-44799871D01*
X151757865Y-44844631D01*
X151765651Y-44878609D01*
X151776114Y-44907107D01*
X151789650Y-44935425D01*
X151804321Y-44961947D01*
X151869678Y-45038413D01*
X151955224Y-45082345D01*
X152064621Y-45095881D01*
X152080028Y-45095543D01*
X152167970Y-45080903D01*
X152239364Y-45040174D01*
X152306095Y-44967014D01*
X152312833Y-44957547D01*
X152323512Y-44938271D01*
X152331811Y-44913149D01*
X152338104Y-44877382D01*
X152342766Y-44826172D01*
X152346170Y-44754718D01*
X152348691Y-44658222D01*
X152350703Y-44531884D01*
X152352580Y-44370905D01*
X152358406Y-43829211D01*
X152520205Y-43834924D01*
G37*
G36*
X150408024Y-46982900D02*
G01*
X150411433Y-47158113D01*
X150392716Y-47324909D01*
X150353391Y-47474323D01*
X150294974Y-47597392D01*
X150248106Y-47664898D01*
X150166374Y-47750805D01*
X150067655Y-47815274D01*
X149940854Y-47866744D01*
X149871320Y-47882367D01*
X149757459Y-47890008D01*
X149633828Y-47883308D01*
X149515453Y-47863294D01*
X149417361Y-47830991D01*
X149398147Y-47821717D01*
X149331530Y-47783924D01*
X149266901Y-47740232D01*
X149212374Y-47696921D01*
X149176062Y-47660268D01*
X149166080Y-47636552D01*
X149166310Y-47636049D01*
X149184701Y-47615635D01*
X149224745Y-47578213D01*
X149278210Y-47531493D01*
X149384666Y-47441041D01*
X149442216Y-47489466D01*
X149510153Y-47531987D01*
X149605565Y-47568090D01*
X149705697Y-47588203D01*
X149793217Y-47587486D01*
X149897689Y-47553140D01*
X149986654Y-47489954D01*
X150050660Y-47404976D01*
X150082938Y-47304807D01*
X150093951Y-47222702D01*
X149117490Y-47222702D01*
X149126090Y-46998017D01*
X149126715Y-46982015D01*
X149128519Y-46946615D01*
X149438967Y-46946615D01*
X150093951Y-46946615D01*
X150082938Y-46864510D01*
X150053930Y-46767242D01*
X149992855Y-46683122D01*
X149905796Y-46624622D01*
X149797896Y-46596578D01*
X149738829Y-46595514D01*
X149635993Y-46620050D01*
X149551792Y-46677697D01*
X149489198Y-46766005D01*
X149451181Y-46882524D01*
X149438967Y-46946615D01*
X149128519Y-46946615D01*
X149131676Y-46884661D01*
X149139029Y-46813583D01*
X149151154Y-46757200D01*
X149170433Y-46703932D01*
X149199247Y-46642200D01*
X149268412Y-46529222D01*
X149372728Y-46422320D01*
X149498722Y-46347969D01*
X149645001Y-46306949D01*
X149810173Y-46300039D01*
X149829943Y-46301473D01*
X149982946Y-46332119D01*
X150114552Y-46395309D01*
X150223648Y-46489825D01*
X150309118Y-46614451D01*
X150369848Y-46767970D01*
X150404232Y-46946615D01*
X150404723Y-46949164D01*
X150408024Y-46982900D01*
G37*
G36*
X148710028Y-44596441D02*
G01*
X148708126Y-44714753D01*
X148700356Y-44823121D01*
X148686827Y-44907000D01*
X148647071Y-45029306D01*
X148570118Y-45168052D01*
X148466807Y-45278143D01*
X148338293Y-45358425D01*
X148185729Y-45407744D01*
X148176334Y-45409597D01*
X148006070Y-45422625D01*
X147837786Y-45398530D01*
X147678592Y-45339079D01*
X147535594Y-45246041D01*
X147515148Y-45228485D01*
X147479882Y-45193741D01*
X147465931Y-45172730D01*
X147466028Y-45171970D01*
X147482089Y-45150560D01*
X147520315Y-45112450D01*
X147573012Y-45065359D01*
X147680092Y-44973878D01*
X147751466Y-45022314D01*
X147762668Y-45029652D01*
X147829424Y-45066793D01*
X147892982Y-45093898D01*
X147924085Y-45102002D01*
X148010562Y-45110606D01*
X148103720Y-45105695D01*
X148188562Y-45088656D01*
X148250086Y-45060876D01*
X148299192Y-45010533D01*
X148345543Y-44938086D01*
X148379569Y-44860237D01*
X148392795Y-44792902D01*
X148392795Y-44737920D01*
X147422234Y-44737920D01*
X147430319Y-44516064D01*
X147432760Y-44481553D01*
X147737629Y-44481553D01*
X148392795Y-44481553D01*
X148392795Y-44425493D01*
X148383207Y-44367004D01*
X148347829Y-44286053D01*
X148295238Y-44212897D01*
X148234847Y-44163172D01*
X148232011Y-44161685D01*
X148155621Y-44136202D01*
X148065700Y-44126584D01*
X148044094Y-44127203D01*
X147938053Y-44151151D01*
X147851745Y-44207779D01*
X147788381Y-44294219D01*
X147751174Y-44407601D01*
X147737629Y-44481553D01*
X147432760Y-44481553D01*
X147440430Y-44373098D01*
X147461812Y-44256423D01*
X147497676Y-44160903D01*
X147551368Y-44077689D01*
X147626234Y-43997935D01*
X147744842Y-43908364D01*
X147886227Y-43845535D01*
X148036711Y-43819426D01*
X148191675Y-43831396D01*
X148326045Y-43873340D01*
X148453809Y-43950126D01*
X148557686Y-44057844D01*
X148636968Y-44195741D01*
X148690947Y-44363063D01*
X148695786Y-44388165D01*
X148705824Y-44481553D01*
X148705951Y-44482730D01*
X148710028Y-44596441D01*
G37*
G36*
X150539483Y-43849056D02*
G01*
X150643014Y-43894917D01*
X150722527Y-43962457D01*
X150725000Y-43965418D01*
X150741633Y-43979104D01*
X150751438Y-43965206D01*
X150759254Y-43917848D01*
X150769115Y-43840637D01*
X150931809Y-43834909D01*
X151094503Y-43829182D01*
X151094503Y-45410011D01*
X150931809Y-45404284D01*
X150769115Y-45398556D01*
X150759254Y-44856242D01*
X150757720Y-44772792D01*
X150754511Y-44621187D01*
X150750635Y-44502098D01*
X150745170Y-44410812D01*
X150737191Y-44342617D01*
X150725773Y-44292799D01*
X150709991Y-44256645D01*
X150688923Y-44229442D01*
X150661643Y-44206477D01*
X150627227Y-44183038D01*
X150574877Y-44160214D01*
X150489357Y-44147434D01*
X150398857Y-44153475D01*
X150320193Y-44178580D01*
X150257780Y-44210855D01*
X150182035Y-44124348D01*
X150151203Y-44088521D01*
X150102968Y-44030321D01*
X150067805Y-43985304D01*
X150029322Y-43932766D01*
X150094186Y-43892677D01*
X150180855Y-43852215D01*
X150298796Y-43826638D01*
X150421541Y-43825940D01*
X150539483Y-43849056D01*
G37*
G36*
X155032645Y-32116814D02*
G01*
X155209932Y-32116982D01*
X155353360Y-32117490D01*
X155466649Y-32118517D01*
X155553521Y-32120244D01*
X155617695Y-32122851D01*
X155662894Y-32126517D01*
X155692838Y-32131421D01*
X155711248Y-32137744D01*
X155721845Y-32145666D01*
X155728350Y-32155366D01*
X155729201Y-32157281D01*
X155738384Y-32190613D01*
X155753575Y-32257547D01*
X155773863Y-32353596D01*
X155798336Y-32474276D01*
X155826080Y-32615102D01*
X155856186Y-32771590D01*
X155887741Y-32939255D01*
X155893234Y-32968679D01*
X155924722Y-33134038D01*
X155954841Y-33286918D01*
X155982656Y-33422927D01*
X156007232Y-33537678D01*
X156027632Y-33626780D01*
X156042920Y-33685843D01*
X156052160Y-33710478D01*
X156058771Y-33715293D01*
X156098418Y-33736108D01*
X156166618Y-33767752D01*
X156257511Y-33807826D01*
X156365237Y-33853929D01*
X156483937Y-33903662D01*
X156607750Y-33954624D01*
X156730817Y-34004417D01*
X156847277Y-34050640D01*
X156951272Y-34090893D01*
X157036942Y-34122777D01*
X157098425Y-34143891D01*
X157129864Y-34151837D01*
X157140456Y-34149996D01*
X157180417Y-34132299D01*
X157245777Y-34095211D01*
X157337806Y-34037930D01*
X157457773Y-33959654D01*
X157606949Y-33859582D01*
X157786604Y-33736909D01*
X157841348Y-33699283D01*
X157997249Y-33592183D01*
X158124709Y-33504859D01*
X158226843Y-33435373D01*
X158306762Y-33381785D01*
X158367577Y-33342157D01*
X158412402Y-33314550D01*
X158444348Y-33297024D01*
X158466529Y-33287641D01*
X158482054Y-33284462D01*
X158494038Y-33285548D01*
X158505592Y-33288959D01*
X158522897Y-33300141D01*
X158566038Y-33336774D01*
X158629142Y-33394918D01*
X158708499Y-33470799D01*
X158800404Y-33560643D01*
X158901150Y-33660678D01*
X159007030Y-33767129D01*
X159114336Y-33876223D01*
X159219362Y-33984188D01*
X159318400Y-34087248D01*
X159407744Y-34181631D01*
X159483687Y-34263564D01*
X159542521Y-34329272D01*
X159580540Y-34374983D01*
X159594037Y-34396923D01*
X159593848Y-34398400D01*
X159580257Y-34427168D01*
X159546920Y-34484004D01*
X159496295Y-34565091D01*
X159430838Y-34666612D01*
X159353007Y-34784750D01*
X159265257Y-34915689D01*
X159170046Y-35055613D01*
X159160971Y-35068858D01*
X159035145Y-35253990D01*
X158931683Y-35409257D01*
X158850814Y-35534299D01*
X158792768Y-35628755D01*
X158757772Y-35692264D01*
X158746056Y-35724464D01*
X158749388Y-35743487D01*
X158766481Y-35798020D01*
X158795912Y-35878131D01*
X158835233Y-35978166D01*
X158881993Y-36092467D01*
X158933744Y-36215380D01*
X158988036Y-36341248D01*
X159042419Y-36464414D01*
X159094443Y-36579224D01*
X159141659Y-36680021D01*
X159181617Y-36761150D01*
X159211868Y-36816953D01*
X159229963Y-36841776D01*
X159254984Y-36850551D01*
X159315075Y-36865783D01*
X159404988Y-36886053D01*
X159520054Y-36910376D01*
X159655603Y-36937767D01*
X159806968Y-36967240D01*
X159969481Y-36997811D01*
X160120455Y-37025969D01*
X160273169Y-37054974D01*
X160410580Y-37081610D01*
X160527986Y-37104941D01*
X160620688Y-37124033D01*
X160683985Y-37137951D01*
X160713175Y-37145759D01*
X160757546Y-37164403D01*
X160757546Y-37951536D01*
X160757545Y-37977854D01*
X160757418Y-38170752D01*
X160756971Y-38328301D01*
X160756046Y-38454145D01*
X160754487Y-38551928D01*
X160752138Y-38625294D01*
X160748840Y-38677886D01*
X160744438Y-38713349D01*
X160738774Y-38735326D01*
X160731692Y-38747461D01*
X160723035Y-38753399D01*
X160696846Y-38760188D01*
X160636290Y-38773317D01*
X160546047Y-38791829D01*
X160430693Y-38814812D01*
X160294807Y-38841354D01*
X160142965Y-38870544D01*
X159979742Y-38901470D01*
X159887034Y-38918988D01*
X159706025Y-38953817D01*
X159559697Y-38983049D01*
X159445139Y-39007346D01*
X159359438Y-39027372D01*
X159299682Y-39043790D01*
X159262960Y-39057263D01*
X159246360Y-39068454D01*
X159243549Y-39073160D01*
X159225969Y-39110251D01*
X159196566Y-39177599D01*
X159157376Y-39270350D01*
X159110435Y-39383650D01*
X159057778Y-39512647D01*
X159001439Y-39652486D01*
X158951625Y-39777901D01*
X158889535Y-39938239D01*
X158842797Y-40064906D01*
X158810924Y-40159292D01*
X158793431Y-40222784D01*
X158789830Y-40256772D01*
X158800014Y-40279988D01*
X158830597Y-40333316D01*
X158878868Y-40411307D01*
X158942200Y-40509879D01*
X159017966Y-40624951D01*
X159103538Y-40752440D01*
X159196290Y-40888265D01*
X159279389Y-41009695D01*
X159364927Y-41136403D01*
X159440620Y-41250338D01*
X159503923Y-41347587D01*
X159552290Y-41424235D01*
X159583176Y-41476368D01*
X159594037Y-41500070D01*
X159593100Y-41503007D01*
X159572746Y-41530732D01*
X159528069Y-41582096D01*
X159462082Y-41653906D01*
X159377798Y-41742969D01*
X159278229Y-41846093D01*
X159166387Y-41960083D01*
X159045285Y-42081747D01*
X158956388Y-42170289D01*
X158828968Y-42296416D01*
X158725121Y-42397901D01*
X158642374Y-42476991D01*
X158578255Y-42535935D01*
X158530291Y-42576981D01*
X158496009Y-42602379D01*
X158472937Y-42614376D01*
X158458601Y-42615221D01*
X158440033Y-42604846D01*
X158391285Y-42574027D01*
X158317422Y-42525679D01*
X158222441Y-42462464D01*
X158110339Y-42387046D01*
X157985114Y-42302089D01*
X157850765Y-42210256D01*
X157737090Y-42132794D01*
X157610278Y-42047674D01*
X157495903Y-41972286D01*
X157397948Y-41909191D01*
X157320401Y-41860952D01*
X157267247Y-41830129D01*
X157242473Y-41819286D01*
X157233225Y-41821007D01*
X157190236Y-41837173D01*
X157123019Y-41867635D01*
X157038767Y-41909041D01*
X156944673Y-41958041D01*
X156902817Y-41980108D01*
X156812532Y-42025466D01*
X156735386Y-42061226D01*
X156678484Y-42084188D01*
X156648933Y-42091154D01*
X156642952Y-42087408D01*
X156628569Y-42068002D01*
X156607524Y-42030315D01*
X156578922Y-41972311D01*
X156541867Y-41891959D01*
X156495462Y-41787222D01*
X156438811Y-41656068D01*
X156371019Y-41496461D01*
X156291188Y-41306369D01*
X156198424Y-41083756D01*
X156091829Y-40826588D01*
X156036369Y-40692302D01*
X155951775Y-40486610D01*
X155872546Y-40292923D01*
X155799907Y-40114294D01*
X155735083Y-39953771D01*
X155679299Y-39814406D01*
X155633780Y-39699250D01*
X155599750Y-39611351D01*
X155578433Y-39553762D01*
X155571056Y-39529531D01*
X155572799Y-39519491D01*
X155600028Y-39480565D01*
X155654868Y-39437400D01*
X155666203Y-39430001D01*
X155727925Y-39388059D01*
X155803975Y-39334599D01*
X155880483Y-39279339D01*
X155997297Y-39185242D01*
X156170721Y-39007220D01*
X156313698Y-38807931D01*
X156424736Y-38591230D01*
X156502344Y-38360973D01*
X156545030Y-38121015D01*
X156551303Y-37875210D01*
X156519670Y-37627413D01*
X156504925Y-37563004D01*
X156427269Y-37332333D01*
X156315835Y-37117125D01*
X156173823Y-36920799D01*
X156004433Y-36746773D01*
X155810864Y-36598467D01*
X155596317Y-36479298D01*
X155363990Y-36392685D01*
X155301269Y-36377198D01*
X155147453Y-36354039D01*
X154976453Y-36344008D01*
X154801863Y-36347105D01*
X154637277Y-36363331D01*
X154496288Y-36392685D01*
X154351246Y-36440959D01*
X154152994Y-36533575D01*
X153970971Y-36654896D01*
X153796211Y-36810271D01*
X153770804Y-36835942D01*
X153654876Y-36962434D01*
X153564283Y-37081362D01*
X153491759Y-37203207D01*
X153430036Y-37338448D01*
X153361514Y-37545480D01*
X153317140Y-37789012D01*
X153309622Y-38032288D01*
X153337911Y-38271606D01*
X153400960Y-38503266D01*
X153497721Y-38723570D01*
X153627146Y-38928817D01*
X153788187Y-39115306D01*
X153979796Y-39279339D01*
X153997800Y-39292496D01*
X154075478Y-39348213D01*
X154149305Y-39399753D01*
X154205411Y-39437400D01*
X154225009Y-39450820D01*
X154272007Y-39493488D01*
X154289223Y-39529531D01*
X154286269Y-39540734D01*
X154269973Y-39586322D01*
X154240510Y-39663349D01*
X154199103Y-39768764D01*
X154146979Y-39899517D01*
X154085361Y-40052558D01*
X154015474Y-40224836D01*
X153938544Y-40413300D01*
X153855794Y-40614901D01*
X153768450Y-40826588D01*
X153700484Y-40990694D01*
X153602595Y-41226133D01*
X153517980Y-41428282D01*
X153445741Y-41599176D01*
X153384983Y-41740849D01*
X153334810Y-41855335D01*
X153294325Y-41944668D01*
X153262632Y-42010882D01*
X153238835Y-42056012D01*
X153222039Y-42082091D01*
X153211346Y-42091154D01*
X153202226Y-42090277D01*
X153159824Y-42075912D01*
X153093182Y-42046952D01*
X153009408Y-42006596D01*
X152915606Y-41958041D01*
X152874388Y-41936249D01*
X152783646Y-41890105D01*
X152705840Y-41852995D01*
X152648163Y-41828272D01*
X152617806Y-41819286D01*
X152598889Y-41827046D01*
X152549918Y-41854908D01*
X152475929Y-41900588D01*
X152380908Y-41961525D01*
X152268841Y-42035156D01*
X152143715Y-42118921D01*
X152009514Y-42210256D01*
X151896825Y-42287329D01*
X151769818Y-42373605D01*
X151655274Y-42450782D01*
X151557191Y-42516195D01*
X151479565Y-42567181D01*
X151426395Y-42601078D01*
X151401678Y-42615221D01*
X151393977Y-42615925D01*
X151374690Y-42608651D01*
X151345181Y-42588875D01*
X151302977Y-42554347D01*
X151245606Y-42502820D01*
X151170595Y-42432045D01*
X151075471Y-42339774D01*
X150957762Y-42223757D01*
X150814994Y-42081747D01*
X150782869Y-42049639D01*
X150663879Y-41929658D01*
X150554930Y-41818179D01*
X150459035Y-41718395D01*
X150379207Y-41633499D01*
X150318457Y-41566684D01*
X150279798Y-41521143D01*
X150266242Y-41500070D01*
X150275033Y-41480157D01*
X150303992Y-41430748D01*
X150350690Y-41356423D01*
X150412584Y-41261098D01*
X150487129Y-41148687D01*
X150571779Y-41023105D01*
X150663989Y-40888265D01*
X150745446Y-40769105D01*
X150832063Y-40640346D01*
X150909203Y-40523493D01*
X150974239Y-40422627D01*
X151024543Y-40341831D01*
X151057489Y-40285185D01*
X151070449Y-40256772D01*
X151069593Y-40237490D01*
X151056845Y-40184115D01*
X151029882Y-40100315D01*
X150988217Y-39984703D01*
X150931365Y-39835889D01*
X150858839Y-39652486D01*
X150840408Y-39606538D01*
X150785033Y-39469662D01*
X150733996Y-39345194D01*
X150689330Y-39237985D01*
X150653072Y-39152890D01*
X150627256Y-39094762D01*
X150613919Y-39068454D01*
X150608812Y-39063701D01*
X150583595Y-39051574D01*
X150536957Y-39036869D01*
X150465986Y-39018923D01*
X150367770Y-38997073D01*
X150239398Y-38970657D01*
X150077958Y-38939010D01*
X149880537Y-38901470D01*
X149719411Y-38870944D01*
X149567388Y-38841725D01*
X149431260Y-38815142D01*
X149315606Y-38792106D01*
X149225000Y-38773529D01*
X149164020Y-38760323D01*
X149137243Y-38753399D01*
X149136090Y-38752880D01*
X149127635Y-38746378D01*
X149120735Y-38733229D01*
X149115235Y-38709791D01*
X149110977Y-38672421D01*
X149107805Y-38617472D01*
X149105560Y-38541303D01*
X149104088Y-38440269D01*
X149103230Y-38310725D01*
X149102831Y-38149029D01*
X149102733Y-37951536D01*
X149102733Y-37164403D01*
X149147104Y-37145759D01*
X149172909Y-37138750D01*
X149233843Y-37125252D01*
X149324531Y-37106510D01*
X149440270Y-37083460D01*
X149576362Y-37057037D01*
X149728105Y-37028175D01*
X149890797Y-36997811D01*
X150042078Y-36969387D01*
X150194389Y-36939803D01*
X150331216Y-36912232D01*
X150447891Y-36887659D01*
X150539745Y-36867069D01*
X150602109Y-36851446D01*
X150630316Y-36841776D01*
X150640540Y-36829499D01*
X150666797Y-36783939D01*
X150703623Y-36711067D01*
X150748568Y-36616538D01*
X150799181Y-36506008D01*
X150853014Y-36385134D01*
X150907617Y-36259571D01*
X150960540Y-36134975D01*
X151009334Y-36017003D01*
X151051549Y-35911309D01*
X151084735Y-35823551D01*
X151106443Y-35759384D01*
X151114223Y-35724464D01*
X151114172Y-35723312D01*
X151100914Y-35689037D01*
X151064392Y-35623477D01*
X151004834Y-35526993D01*
X150922468Y-35399948D01*
X150817525Y-35242701D01*
X150690233Y-35055613D01*
X150677549Y-35037093D01*
X150583168Y-34898119D01*
X150496566Y-34768624D01*
X150420200Y-34652426D01*
X150356529Y-34553340D01*
X150308007Y-34475183D01*
X150277093Y-34421772D01*
X150266242Y-34396923D01*
X150274363Y-34382223D01*
X150307110Y-34341607D01*
X150361518Y-34280132D01*
X150433882Y-34201571D01*
X150520492Y-34109698D01*
X150617644Y-34008286D01*
X150721629Y-33901109D01*
X150828741Y-33791940D01*
X150935273Y-33684553D01*
X151037518Y-33582721D01*
X151131768Y-33490218D01*
X151214317Y-33410816D01*
X151281458Y-33348291D01*
X151329483Y-33306414D01*
X151354687Y-33288959D01*
X151359261Y-33287482D01*
X151370241Y-33284639D01*
X151382640Y-33284698D01*
X151399570Y-33289596D01*
X151424143Y-33301273D01*
X151459469Y-33321669D01*
X151508662Y-33352724D01*
X151574832Y-33396375D01*
X151661091Y-33454564D01*
X151770551Y-33529229D01*
X151906323Y-33622310D01*
X152071518Y-33735746D01*
X152166866Y-33801020D01*
X152331024Y-33912132D01*
X152465366Y-34001095D01*
X152571186Y-34068725D01*
X152649775Y-34115838D01*
X152702426Y-34143248D01*
X152730431Y-34151774D01*
X152739590Y-34150184D01*
X152784295Y-34136397D01*
X152856566Y-34110456D01*
X152950552Y-34074759D01*
X153060402Y-34031703D01*
X153180267Y-33983686D01*
X153304296Y-33933106D01*
X153426639Y-33882360D01*
X153541445Y-33833845D01*
X153642863Y-33789960D01*
X153725045Y-33753101D01*
X153782138Y-33725667D01*
X153808293Y-33710054D01*
X153809404Y-33708442D01*
X153819630Y-33677576D01*
X153835768Y-33613047D01*
X153856884Y-33519240D01*
X153882046Y-33400540D01*
X153910319Y-33261331D01*
X153940770Y-33105998D01*
X153972466Y-32938925D01*
X153977661Y-32911141D01*
X154009121Y-32744974D01*
X154038969Y-32590724D01*
X154066294Y-32452871D01*
X154090182Y-32335895D01*
X154109722Y-32244276D01*
X154124000Y-32182497D01*
X154132105Y-32155036D01*
X154134860Y-32150319D01*
X154142900Y-32141545D01*
X154156909Y-32134451D01*
X154180605Y-32128859D01*
X154217708Y-32124591D01*
X154271936Y-32121469D01*
X154347010Y-32119313D01*
X154446648Y-32117947D01*
X154574570Y-32117192D01*
X154734494Y-32116869D01*
X154930139Y-32116802D01*
X155032645Y-32116814D01*
G37*
G36*
X162426863Y-44801877D02*
G01*
X162406353Y-44940827D01*
X162370218Y-45055567D01*
X162316437Y-45152645D01*
X162242994Y-45238608D01*
X162193916Y-45282586D01*
X162064539Y-45364069D01*
X161922624Y-45408777D01*
X161811500Y-45417461D01*
X161683525Y-45409047D01*
X161566087Y-45384304D01*
X161485373Y-45351199D01*
X161368570Y-45272176D01*
X161270527Y-45166681D01*
X161199497Y-45042414D01*
X161185786Y-45001109D01*
X161166890Y-44903307D01*
X161154895Y-44782795D01*
X161149812Y-44649828D01*
X161150233Y-44618845D01*
X161467917Y-44618845D01*
X161469848Y-44710974D01*
X161481208Y-44834592D01*
X161503946Y-44927585D01*
X161539444Y-44994766D01*
X161589085Y-45040946D01*
X161589195Y-45041019D01*
X161683379Y-45082161D01*
X161788141Y-45095415D01*
X161890580Y-45080859D01*
X161977795Y-45038573D01*
X162007636Y-45014649D01*
X162050178Y-44968845D01*
X162079176Y-44913977D01*
X162096979Y-44842506D01*
X162105937Y-44746893D01*
X162108400Y-44619597D01*
X162108395Y-44608044D01*
X162107404Y-44504042D01*
X162103952Y-44430159D01*
X162096944Y-44377885D01*
X162085288Y-44338714D01*
X162067893Y-44304136D01*
X162019077Y-44240264D01*
X161937605Y-44180073D01*
X161844488Y-44148271D01*
X161747540Y-44144849D01*
X161654576Y-44169799D01*
X161573410Y-44223111D01*
X161511855Y-44304776D01*
X161494022Y-44343299D01*
X161480365Y-44387466D01*
X161472379Y-44441560D01*
X161468688Y-44515411D01*
X161467917Y-44618845D01*
X161150233Y-44618845D01*
X161151648Y-44514663D01*
X161160414Y-44387553D01*
X161176117Y-44278756D01*
X161198767Y-44198526D01*
X161228510Y-44137014D01*
X161314484Y-44018247D01*
X161422911Y-43925944D01*
X161548128Y-43861243D01*
X161684470Y-43825282D01*
X161826272Y-43819202D01*
X161967868Y-43844139D01*
X162103595Y-43901235D01*
X162227788Y-43991627D01*
X162257665Y-44020605D01*
X162327061Y-44105378D01*
X162377124Y-44200814D01*
X162410102Y-44313763D01*
X162428241Y-44451074D01*
X162433788Y-44619597D01*
X162433763Y-44632172D01*
X162426863Y-44801877D01*
G37*
%TD*%
M02*
