M48
; DRILL file {KiCad (6.0.7)} date Sat 27 Aug 2022 09:19:26 PM PDT
; FORMAT={-:-/ absolute / inch / decimal}
; #@! TF.CreationDate,2022-08-27T21:19:26-07:00
; #@! TF.GenerationSoftware,Kicad,Pcbnew,(6.0.7)
; #@! TF.FileFunction,Plated,1,2,PTH
FMAT,2
INCH
; #@! TA.AperFunction,Plated,PTH,ViaDrill
T1C0.0157
; #@! TA.AperFunction,Plated,PTH,ComponentDrill
T2C0.0197
; #@! TA.AperFunction,Plated,PTH,ComponentDrill
T3C0.0217
; #@! TA.AperFunction,Plated,PTH,ComponentDrill
T4C0.0295
; #@! TA.AperFunction,Plated,PTH,ComponentDrill
T5C0.0315
; #@! TA.AperFunction,Plated,PTH,ComponentDrill
T6C0.0354
; #@! TA.AperFunction,Plated,PTH,ComponentDrill
T7C0.0394
; #@! TA.AperFunction,Plated,PTH,ComponentDrill
T8C0.0472
; #@! TA.AperFunction,Plated,PTH,ComponentDrill
T9C0.0591
; #@! TA.AperFunction,Plated,PTH,ComponentDrill
T10C0.0984
%
G90
G05
T1
X3.748Y-1.674
X4.29Y-3.46
X4.82Y-3.12
X4.8533Y-2.8967
T4
X5.2242Y-3.16
X5.2242Y-3.21
X5.2242Y-3.26
T5
X3.1342Y-3.35
X3.1504Y-2.6246
X3.1504Y-2.9246
X3.2342Y-3.35
X3.2504Y-2.6246
X3.2504Y-2.9246
X3.3504Y-2.6246
X3.3504Y-2.9246
X3.4504Y-2.6246
X3.4504Y-2.9246
X3.5504Y-2.6246
X3.5504Y-2.9246
X3.6504Y-2.6246
X3.6504Y-2.9246
X3.7504Y-2.6246
X3.7504Y-2.9246
X3.8504Y-2.6246
X3.8504Y-2.9246
X3.9504Y-2.6246
X3.9504Y-2.9246
X4.0504Y-2.6246
X4.0504Y-2.9246
X4.1504Y-2.6246
X4.1504Y-2.9246
X4.2504Y-2.6246
X4.2504Y-2.9246
X4.3504Y-2.6246
X4.3504Y-2.9246
X4.4504Y-2.6246
X4.4504Y-2.9246
X5.385Y-3.16
X5.385Y-3.26
X5.485Y-3.16
X5.485Y-3.26
T6
X4.2716Y-3.15
X4.4684Y-3.0516
X4.4684Y-3.2484
X5.3646Y-2.6549
X5.3646Y-2.8912
X5.4631Y-2.6549
X5.4631Y-2.8912
X5.5615Y-2.6549
X5.5615Y-2.8912
T7
X4.649Y-2.649
X4.649Y-2.749
X4.649Y-2.849
X4.649Y-2.949
X4.649Y-3.049
X4.649Y-3.149
X4.791Y-2.6504
X4.791Y-2.7504
X4.791Y-2.8504
X4.791Y-2.9504
X4.931Y-2.6506
X4.931Y-2.7506
X4.931Y-2.8506
T8
X3.4902Y-1.1704
X3.5902Y-1.1704
X3.6902Y-1.1704
X3.7902Y-1.1704
X3.8902Y-1.1704
X3.9902Y-1.1704
X4.0902Y-1.1704
X4.1902Y-1.1704
X4.2902Y-1.1704
X4.3902Y-1.1704
X4.4902Y-1.1704
X4.5902Y-1.1704
X4.6902Y-1.1704
X4.7902Y-1.1704
X4.8902Y-1.1704
X4.9902Y-1.1704
T9
X3.475Y-3.775
X3.475Y-4.525
X3.475Y-5.275
X3.475Y-6.025
X3.475Y-6.775
X3.725Y-3.675
X3.725Y-4.425
X3.725Y-5.175
X3.725Y-5.925
X3.725Y-6.675
X4.225Y-3.775
X4.225Y-4.525
X4.225Y-5.275
X4.225Y-6.025
X4.225Y-6.775
X4.475Y-3.675
X4.475Y-4.425
X4.475Y-5.175
X4.475Y-5.925
X4.475Y-6.675
X4.975Y-3.775
X4.975Y-4.525
X4.975Y-5.275
X4.975Y-6.025
X4.975Y-6.775
X5.225Y-3.675
X5.225Y-4.425
X5.225Y-5.175
X5.225Y-5.925
X5.225Y-6.675
X5.725Y-3.775
X5.725Y-4.525
X5.725Y-5.275
X5.725Y-6.025
X5.725Y-6.775
X5.975Y-3.675
X5.975Y-4.425
X5.975Y-5.175
X5.975Y-5.925
X5.975Y-6.675
T10
X3.125Y-7.375
X3.2737Y-1.1704
X3.2737Y-2.3909
X6.2264Y-2.3909
X6.2264Y-1.1704
X6.375Y-7.375
T2
G00X6.4248Y-3.0872
M15
G01X6.4504Y-3.0872
M16
G05
G00X6.4248Y-3.3628
M15
G01X6.4504Y-3.3628
M16
G05
T3
G00X6.3313Y-3.1325
M15
G01X6.3313Y-3.1207
M16
G05
G00X6.3313Y-3.3293
M15
G01X6.3313Y-3.3175
M16
G05
T7
G00X6.177Y-2.7311
M15
G01X6.177Y-2.8177
M16
G05
G00X6.3541Y-2.9634
M15
G01X6.2675Y-2.9634
M16
G05
G00X6.425Y-2.7232
M15
G01X6.425Y-2.8256
M16
G05
T0
M30
