%TF.GenerationSoftware,KiCad,Pcbnew,(6.0.7)*%
%TF.CreationDate,2022-08-27T21:19:22-07:00*%
%TF.ProjectId,EB3,4542332e-6b69-4636-9164-5f7063625858,rev?*%
%TF.SameCoordinates,Original*%
%TF.FileFunction,Legend,Top*%
%TF.FilePolarity,Positive*%
%FSLAX46Y46*%
G04 Gerber Fmt 4.6, Leading zero omitted, Abs format (unit mm)*
G04 Created by KiCad (PCBNEW (6.0.7)) date 2022-08-27 21:19:22*
%MOMM*%
%LPD*%
G01*
G04 APERTURE LIST*
%ADD10C,0.150000*%
%ADD11C,0.120000*%
G04 APERTURE END LIST*
D10*
%TO.C,J2*%
X158166380Y-82248333D02*
X158880666Y-82248333D01*
X159023523Y-82295952D01*
X159118761Y-82391190D01*
X159166380Y-82534047D01*
X159166380Y-82629285D01*
X158261619Y-81819761D02*
X158214000Y-81772142D01*
X158166380Y-81676904D01*
X158166380Y-81438809D01*
X158214000Y-81343571D01*
X158261619Y-81295952D01*
X158356857Y-81248333D01*
X158452095Y-81248333D01*
X158594952Y-81295952D01*
X159166380Y-81867380D01*
X159166380Y-81248333D01*
%TO.C,SW1*%
X137428166Y-65090261D02*
X137571023Y-65137880D01*
X137809119Y-65137880D01*
X137904357Y-65090261D01*
X137951976Y-65042642D01*
X137999595Y-64947404D01*
X137999595Y-64852166D01*
X137951976Y-64756928D01*
X137904357Y-64709309D01*
X137809119Y-64661690D01*
X137618642Y-64614071D01*
X137523404Y-64566452D01*
X137475785Y-64518833D01*
X137428166Y-64423595D01*
X137428166Y-64328357D01*
X137475785Y-64233119D01*
X137523404Y-64185500D01*
X137618642Y-64137880D01*
X137856738Y-64137880D01*
X137999595Y-64185500D01*
X138332928Y-64137880D02*
X138571023Y-65137880D01*
X138761500Y-64423595D01*
X138951976Y-65137880D01*
X139190071Y-64137880D01*
X140094833Y-65137880D02*
X139523404Y-65137880D01*
X139809119Y-65137880D02*
X139809119Y-64137880D01*
X139713880Y-64280738D01*
X139618642Y-64375976D01*
X139523404Y-64423595D01*
%TO.C,Y1*%
X101123809Y-83556190D02*
X101123809Y-84032380D01*
X100790476Y-83032380D02*
X101123809Y-83556190D01*
X101457142Y-83032380D01*
X102314285Y-84032380D02*
X101742857Y-84032380D01*
X102028571Y-84032380D02*
X102028571Y-83032380D01*
X101933333Y-83175238D01*
X101838095Y-83270476D01*
X101742857Y-83318095D01*
%TO.C,U2*%
X128586380Y-82295904D02*
X129395904Y-82295904D01*
X129491142Y-82248285D01*
X129538761Y-82200666D01*
X129586380Y-82105428D01*
X129586380Y-81914952D01*
X129538761Y-81819714D01*
X129491142Y-81772095D01*
X129395904Y-81724476D01*
X128586380Y-81724476D01*
X128681619Y-81295904D02*
X128634000Y-81248285D01*
X128586380Y-81153047D01*
X128586380Y-80914952D01*
X128634000Y-80819714D01*
X128681619Y-80772095D01*
X128776857Y-80724476D01*
X128872095Y-80724476D01*
X129014952Y-80772095D01*
X129586380Y-81343523D01*
X129586380Y-80724476D01*
%TO.C,U1*%
X77142380Y-71236904D02*
X77951904Y-71236904D01*
X78047142Y-71189285D01*
X78094761Y-71141666D01*
X78142380Y-71046428D01*
X78142380Y-70855952D01*
X78094761Y-70760714D01*
X78047142Y-70713095D01*
X77951904Y-70665476D01*
X77142380Y-70665476D01*
X78142380Y-69665476D02*
X78142380Y-70236904D01*
X78142380Y-69951190D02*
X77142380Y-69951190D01*
X77285238Y-70046428D01*
X77380476Y-70141666D01*
X77428095Y-70236904D01*
%TO.C,RV1*%
X110402761Y-85022380D02*
X110069428Y-84546190D01*
X109831333Y-85022380D02*
X109831333Y-84022380D01*
X110212285Y-84022380D01*
X110307523Y-84070000D01*
X110355142Y-84117619D01*
X110402761Y-84212857D01*
X110402761Y-84355714D01*
X110355142Y-84450952D01*
X110307523Y-84498571D01*
X110212285Y-84546190D01*
X109831333Y-84546190D01*
X110688476Y-84022380D02*
X111021809Y-85022380D01*
X111355142Y-84022380D01*
X112212285Y-85022380D02*
X111640857Y-85022380D01*
X111926571Y-85022380D02*
X111926571Y-84022380D01*
X111831333Y-84165238D01*
X111736095Y-84260476D01*
X111640857Y-84308095D01*
%TO.C,R3*%
X79843333Y-83128380D02*
X79510000Y-82652190D01*
X79271904Y-83128380D02*
X79271904Y-82128380D01*
X79652857Y-82128380D01*
X79748095Y-82176000D01*
X79795714Y-82223619D01*
X79843333Y-82318857D01*
X79843333Y-82461714D01*
X79795714Y-82556952D01*
X79748095Y-82604571D01*
X79652857Y-82652190D01*
X79271904Y-82652190D01*
X80176666Y-82128380D02*
X80795714Y-82128380D01*
X80462380Y-82509333D01*
X80605238Y-82509333D01*
X80700476Y-82556952D01*
X80748095Y-82604571D01*
X80795714Y-82699809D01*
X80795714Y-82937904D01*
X80748095Y-83033142D01*
X80700476Y-83080761D01*
X80605238Y-83128380D01*
X80319523Y-83128380D01*
X80224285Y-83080761D01*
X80176666Y-83033142D01*
%TO.C,R2*%
X145614380Y-80708166D02*
X145138190Y-81041500D01*
X145614380Y-81279595D02*
X144614380Y-81279595D01*
X144614380Y-80898642D01*
X144662000Y-80803404D01*
X144709619Y-80755785D01*
X144804857Y-80708166D01*
X144947714Y-80708166D01*
X145042952Y-80755785D01*
X145090571Y-80803404D01*
X145138190Y-80898642D01*
X145138190Y-81279595D01*
X144709619Y-80327214D02*
X144662000Y-80279595D01*
X144614380Y-80184357D01*
X144614380Y-79946261D01*
X144662000Y-79851023D01*
X144709619Y-79803404D01*
X144804857Y-79755785D01*
X144900095Y-79755785D01*
X145042952Y-79803404D01*
X145614380Y-80374833D01*
X145614380Y-79755785D01*
%TO.C,R1*%
X147900380Y-80708166D02*
X147424190Y-81041500D01*
X147900380Y-81279595D02*
X146900380Y-81279595D01*
X146900380Y-80898642D01*
X146948000Y-80803404D01*
X146995619Y-80755785D01*
X147090857Y-80708166D01*
X147233714Y-80708166D01*
X147328952Y-80755785D01*
X147376571Y-80803404D01*
X147424190Y-80898642D01*
X147424190Y-81279595D01*
X147900380Y-79755785D02*
X147900380Y-80327214D01*
X147900380Y-80041500D02*
X146900380Y-80041500D01*
X147043238Y-80136738D01*
X147138476Y-80231976D01*
X147186095Y-80327214D01*
%TO.C,JP5*%
X104122380Y-78303333D02*
X104836666Y-78303333D01*
X104979523Y-78350952D01*
X105074761Y-78446190D01*
X105122380Y-78589047D01*
X105122380Y-78684285D01*
X105122380Y-77827142D02*
X104122380Y-77827142D01*
X104122380Y-77446190D01*
X104170000Y-77350952D01*
X104217619Y-77303333D01*
X104312857Y-77255714D01*
X104455714Y-77255714D01*
X104550952Y-77303333D01*
X104598571Y-77350952D01*
X104646190Y-77446190D01*
X104646190Y-77827142D01*
X104122380Y-76350952D02*
X104122380Y-76827142D01*
X104598571Y-76874761D01*
X104550952Y-76827142D01*
X104503333Y-76731904D01*
X104503333Y-76493809D01*
X104550952Y-76398571D01*
X104598571Y-76350952D01*
X104693809Y-76303333D01*
X104931904Y-76303333D01*
X105027142Y-76350952D01*
X105074761Y-76398571D01*
X105122380Y-76493809D01*
X105122380Y-76731904D01*
X105074761Y-76827142D01*
X105027142Y-76874761D01*
%TO.C,JP4*%
X80015666Y-86542380D02*
X80015666Y-87256666D01*
X79968047Y-87399523D01*
X79872809Y-87494761D01*
X79729952Y-87542380D01*
X79634714Y-87542380D01*
X80491857Y-87542380D02*
X80491857Y-86542380D01*
X80872809Y-86542380D01*
X80968047Y-86590000D01*
X81015666Y-86637619D01*
X81063285Y-86732857D01*
X81063285Y-86875714D01*
X81015666Y-86970952D01*
X80968047Y-87018571D01*
X80872809Y-87066190D01*
X80491857Y-87066190D01*
X81920428Y-86875714D02*
X81920428Y-87542380D01*
X81682333Y-86494761D02*
X81444238Y-87209047D01*
X82063285Y-87209047D01*
%TO.C,JP3*%
X101582380Y-78318333D02*
X102296666Y-78318333D01*
X102439523Y-78365952D01*
X102534761Y-78461190D01*
X102582380Y-78604047D01*
X102582380Y-78699285D01*
X102582380Y-77842142D02*
X101582380Y-77842142D01*
X101582380Y-77461190D01*
X101630000Y-77365952D01*
X101677619Y-77318333D01*
X101772857Y-77270714D01*
X101915714Y-77270714D01*
X102010952Y-77318333D01*
X102058571Y-77365952D01*
X102106190Y-77461190D01*
X102106190Y-77842142D01*
X101582380Y-76937380D02*
X101582380Y-76318333D01*
X101963333Y-76651666D01*
X101963333Y-76508809D01*
X102010952Y-76413571D01*
X102058571Y-76365952D01*
X102153809Y-76318333D01*
X102391904Y-76318333D01*
X102487142Y-76365952D01*
X102534761Y-76413571D01*
X102582380Y-76508809D01*
X102582380Y-76794523D01*
X102534761Y-76889761D01*
X102487142Y-76937380D01*
%TO.C,JP2*%
X138231380Y-82397333D02*
X138945666Y-82397333D01*
X139088523Y-82444952D01*
X139183761Y-82540190D01*
X139231380Y-82683047D01*
X139231380Y-82778285D01*
X139231380Y-81921142D02*
X138231380Y-81921142D01*
X138231380Y-81540190D01*
X138279000Y-81444952D01*
X138326619Y-81397333D01*
X138421857Y-81349714D01*
X138564714Y-81349714D01*
X138659952Y-81397333D01*
X138707571Y-81444952D01*
X138755190Y-81540190D01*
X138755190Y-81921142D01*
X138326619Y-80968761D02*
X138279000Y-80921142D01*
X138231380Y-80825904D01*
X138231380Y-80587809D01*
X138279000Y-80492571D01*
X138326619Y-80444952D01*
X138421857Y-80397333D01*
X138517095Y-80397333D01*
X138659952Y-80444952D01*
X139231380Y-81016380D01*
X139231380Y-80397333D01*
%TO.C,JP1*%
X140771380Y-82397333D02*
X141485666Y-82397333D01*
X141628523Y-82444952D01*
X141723761Y-82540190D01*
X141771380Y-82683047D01*
X141771380Y-82778285D01*
X141771380Y-81921142D02*
X140771380Y-81921142D01*
X140771380Y-81540190D01*
X140819000Y-81444952D01*
X140866619Y-81397333D01*
X140961857Y-81349714D01*
X141104714Y-81349714D01*
X141199952Y-81397333D01*
X141247571Y-81444952D01*
X141295190Y-81540190D01*
X141295190Y-81921142D01*
X141771380Y-80397333D02*
X141771380Y-80968761D01*
X141771380Y-80683047D02*
X140771380Y-80683047D01*
X140914238Y-80778285D01*
X141009476Y-80873523D01*
X141057095Y-80968761D01*
%TO.C,J5*%
X121357666Y-64002380D02*
X121357666Y-64716666D01*
X121310047Y-64859523D01*
X121214809Y-64954761D01*
X121071952Y-65002380D01*
X120976714Y-65002380D01*
X122310047Y-64002380D02*
X121833857Y-64002380D01*
X121786238Y-64478571D01*
X121833857Y-64430952D01*
X121929095Y-64383333D01*
X122167190Y-64383333D01*
X122262428Y-64430952D01*
X122310047Y-64478571D01*
X122357666Y-64573809D01*
X122357666Y-64811904D01*
X122310047Y-64907142D01*
X122262428Y-64954761D01*
X122167190Y-65002380D01*
X121929095Y-65002380D01*
X121833857Y-64954761D01*
X121786238Y-64907142D01*
%TO.C,J4*%
X124913666Y-64007380D02*
X124913666Y-64721666D01*
X124866047Y-64864523D01*
X124770809Y-64959761D01*
X124627952Y-65007380D01*
X124532714Y-65007380D01*
X125818428Y-64340714D02*
X125818428Y-65007380D01*
X125580333Y-63959761D02*
X125342238Y-64674047D01*
X125961285Y-64674047D01*
%TO.C,J3*%
X117751666Y-82207380D02*
X117751666Y-82921666D01*
X117704047Y-83064523D01*
X117608809Y-83159761D01*
X117465952Y-83207380D01*
X117370714Y-83207380D01*
X118132619Y-82207380D02*
X118751666Y-82207380D01*
X118418333Y-82588333D01*
X118561190Y-82588333D01*
X118656428Y-82635952D01*
X118704047Y-82683571D01*
X118751666Y-82778809D01*
X118751666Y-83016904D01*
X118704047Y-83112142D01*
X118656428Y-83159761D01*
X118561190Y-83207380D01*
X118275476Y-83207380D01*
X118180238Y-83159761D01*
X118132619Y-83112142D01*
%TO.C,J1*%
X165147380Y-70803333D02*
X165861666Y-70803333D01*
X166004523Y-70850952D01*
X166099761Y-70946190D01*
X166147380Y-71089047D01*
X166147380Y-71184285D01*
X166147380Y-69803333D02*
X166147380Y-70374761D01*
X166147380Y-70089047D02*
X165147380Y-70089047D01*
X165290238Y-70184285D01*
X165385476Y-70279523D01*
X165433095Y-70374761D01*
%TO.C,D1*%
X150186380Y-81279595D02*
X149186380Y-81279595D01*
X149186380Y-81041500D01*
X149234000Y-80898642D01*
X149329238Y-80803404D01*
X149424476Y-80755785D01*
X149614952Y-80708166D01*
X149757809Y-80708166D01*
X149948285Y-80755785D01*
X150043523Y-80803404D01*
X150138761Y-80898642D01*
X150186380Y-81041500D01*
X150186380Y-81279595D01*
X150186380Y-79755785D02*
X150186380Y-80327214D01*
X150186380Y-80041500D02*
X149186380Y-80041500D01*
X149329238Y-80136738D01*
X149424476Y-80231976D01*
X149472095Y-80327214D01*
%TO.C,C7*%
X79843333Y-81031142D02*
X79795714Y-81078761D01*
X79652857Y-81126380D01*
X79557619Y-81126380D01*
X79414761Y-81078761D01*
X79319523Y-80983523D01*
X79271904Y-80888285D01*
X79224285Y-80697809D01*
X79224285Y-80554952D01*
X79271904Y-80364476D01*
X79319523Y-80269238D01*
X79414761Y-80174000D01*
X79557619Y-80126380D01*
X79652857Y-80126380D01*
X79795714Y-80174000D01*
X79843333Y-80221619D01*
X80176666Y-80126380D02*
X80843333Y-80126380D01*
X80414761Y-81126380D01*
%TO.C,C6*%
X104087142Y-81446666D02*
X104134761Y-81494285D01*
X104182380Y-81637142D01*
X104182380Y-81732380D01*
X104134761Y-81875238D01*
X104039523Y-81970476D01*
X103944285Y-82018095D01*
X103753809Y-82065714D01*
X103610952Y-82065714D01*
X103420476Y-82018095D01*
X103325238Y-81970476D01*
X103230000Y-81875238D01*
X103182380Y-81732380D01*
X103182380Y-81637142D01*
X103230000Y-81494285D01*
X103277619Y-81446666D01*
X103182380Y-80589523D02*
X103182380Y-80780000D01*
X103230000Y-80875238D01*
X103277619Y-80922857D01*
X103420476Y-81018095D01*
X103610952Y-81065714D01*
X103991904Y-81065714D01*
X104087142Y-81018095D01*
X104134761Y-80970476D01*
X104182380Y-80875238D01*
X104182380Y-80684761D01*
X104134761Y-80589523D01*
X104087142Y-80541904D01*
X103991904Y-80494285D01*
X103753809Y-80494285D01*
X103658571Y-80541904D01*
X103610952Y-80589523D01*
X103563333Y-80684761D01*
X103563333Y-80875238D01*
X103610952Y-80970476D01*
X103658571Y-81018095D01*
X103753809Y-81065714D01*
%TO.C,C5*%
X96779142Y-78078666D02*
X96826761Y-78126285D01*
X96874380Y-78269142D01*
X96874380Y-78364380D01*
X96826761Y-78507238D01*
X96731523Y-78602476D01*
X96636285Y-78650095D01*
X96445809Y-78697714D01*
X96302952Y-78697714D01*
X96112476Y-78650095D01*
X96017238Y-78602476D01*
X95922000Y-78507238D01*
X95874380Y-78364380D01*
X95874380Y-78269142D01*
X95922000Y-78126285D01*
X95969619Y-78078666D01*
X95874380Y-77173904D02*
X95874380Y-77650095D01*
X96350571Y-77697714D01*
X96302952Y-77650095D01*
X96255333Y-77554857D01*
X96255333Y-77316761D01*
X96302952Y-77221523D01*
X96350571Y-77173904D01*
X96445809Y-77126285D01*
X96683904Y-77126285D01*
X96779142Y-77173904D01*
X96826761Y-77221523D01*
X96874380Y-77316761D01*
X96874380Y-77554857D01*
X96826761Y-77650095D01*
X96779142Y-77697714D01*
%TO.C,C4*%
X94721742Y-78068466D02*
X94769361Y-78116085D01*
X94816980Y-78258942D01*
X94816980Y-78354180D01*
X94769361Y-78497038D01*
X94674123Y-78592276D01*
X94578885Y-78639895D01*
X94388409Y-78687514D01*
X94245552Y-78687514D01*
X94055076Y-78639895D01*
X93959838Y-78592276D01*
X93864600Y-78497038D01*
X93816980Y-78354180D01*
X93816980Y-78258942D01*
X93864600Y-78116085D01*
X93912219Y-78068466D01*
X94150314Y-77211323D02*
X94816980Y-77211323D01*
X93769361Y-77449419D02*
X94483647Y-77687514D01*
X94483647Y-77068466D01*
%TO.C,C3*%
X143203142Y-80684666D02*
X143250761Y-80732285D01*
X143298380Y-80875142D01*
X143298380Y-80970380D01*
X143250761Y-81113238D01*
X143155523Y-81208476D01*
X143060285Y-81256095D01*
X142869809Y-81303714D01*
X142726952Y-81303714D01*
X142536476Y-81256095D01*
X142441238Y-81208476D01*
X142346000Y-81113238D01*
X142298380Y-80970380D01*
X142298380Y-80875142D01*
X142346000Y-80732285D01*
X142393619Y-80684666D01*
X142298380Y-80351333D02*
X142298380Y-79732285D01*
X142679333Y-80065619D01*
X142679333Y-79922761D01*
X142726952Y-79827523D01*
X142774571Y-79779904D01*
X142869809Y-79732285D01*
X143107904Y-79732285D01*
X143203142Y-79779904D01*
X143250761Y-79827523D01*
X143298380Y-79922761D01*
X143298380Y-80208476D01*
X143250761Y-80303714D01*
X143203142Y-80351333D01*
%TO.C,C2*%
X137882333Y-84529142D02*
X137834714Y-84576761D01*
X137691857Y-84624380D01*
X137596619Y-84624380D01*
X137453761Y-84576761D01*
X137358523Y-84481523D01*
X137310904Y-84386285D01*
X137263285Y-84195809D01*
X137263285Y-84052952D01*
X137310904Y-83862476D01*
X137358523Y-83767238D01*
X137453761Y-83672000D01*
X137596619Y-83624380D01*
X137691857Y-83624380D01*
X137834714Y-83672000D01*
X137882333Y-83719619D01*
X138263285Y-83719619D02*
X138310904Y-83672000D01*
X138406142Y-83624380D01*
X138644238Y-83624380D01*
X138739476Y-83672000D01*
X138787095Y-83719619D01*
X138834714Y-83814857D01*
X138834714Y-83910095D01*
X138787095Y-84052952D01*
X138215666Y-84624380D01*
X138834714Y-84624380D01*
%TO.C,C1*%
X96467142Y-81446666D02*
X96514761Y-81494285D01*
X96562380Y-81637142D01*
X96562380Y-81732380D01*
X96514761Y-81875238D01*
X96419523Y-81970476D01*
X96324285Y-82018095D01*
X96133809Y-82065714D01*
X95990952Y-82065714D01*
X95800476Y-82018095D01*
X95705238Y-81970476D01*
X95610000Y-81875238D01*
X95562380Y-81732380D01*
X95562380Y-81637142D01*
X95610000Y-81494285D01*
X95657619Y-81446666D01*
X96562380Y-80494285D02*
X96562380Y-81065714D01*
X96562380Y-80780000D02*
X95562380Y-80780000D01*
X95705238Y-80875238D01*
X95800476Y-80970476D01*
X95848095Y-81065714D01*
%TO.C,DS1*%
X130230714Y-30297380D02*
X130230714Y-29297380D01*
X130468809Y-29297380D01*
X130611666Y-29345000D01*
X130706904Y-29440238D01*
X130754523Y-29535476D01*
X130802142Y-29725952D01*
X130802142Y-29868809D01*
X130754523Y-30059285D01*
X130706904Y-30154523D01*
X130611666Y-30249761D01*
X130468809Y-30297380D01*
X130230714Y-30297380D01*
X131183095Y-30249761D02*
X131325952Y-30297380D01*
X131564047Y-30297380D01*
X131659285Y-30249761D01*
X131706904Y-30202142D01*
X131754523Y-30106904D01*
X131754523Y-30011666D01*
X131706904Y-29916428D01*
X131659285Y-29868809D01*
X131564047Y-29821190D01*
X131373571Y-29773571D01*
X131278333Y-29725952D01*
X131230714Y-29678333D01*
X131183095Y-29583095D01*
X131183095Y-29487857D01*
X131230714Y-29392619D01*
X131278333Y-29345000D01*
X131373571Y-29297380D01*
X131611666Y-29297380D01*
X131754523Y-29345000D01*
X132706904Y-30297380D02*
X132135476Y-30297380D01*
X132421190Y-30297380D02*
X132421190Y-29297380D01*
X132325952Y-29440238D01*
X132230714Y-29535476D01*
X132135476Y-29583095D01*
%TO.C,SW3*%
X90741666Y-90829761D02*
X90884523Y-90877380D01*
X91122619Y-90877380D01*
X91217857Y-90829761D01*
X91265476Y-90782142D01*
X91313095Y-90686904D01*
X91313095Y-90591666D01*
X91265476Y-90496428D01*
X91217857Y-90448809D01*
X91122619Y-90401190D01*
X90932142Y-90353571D01*
X90836904Y-90305952D01*
X90789285Y-90258333D01*
X90741666Y-90163095D01*
X90741666Y-90067857D01*
X90789285Y-89972619D01*
X90836904Y-89925000D01*
X90932142Y-89877380D01*
X91170238Y-89877380D01*
X91313095Y-89925000D01*
X91646428Y-89877380D02*
X91884523Y-90877380D01*
X92075000Y-90163095D01*
X92265476Y-90877380D01*
X92503571Y-89877380D01*
X92789285Y-89877380D02*
X93408333Y-89877380D01*
X93075000Y-90258333D01*
X93217857Y-90258333D01*
X93313095Y-90305952D01*
X93360714Y-90353571D01*
X93408333Y-90448809D01*
X93408333Y-90686904D01*
X93360714Y-90782142D01*
X93313095Y-90829761D01*
X93217857Y-90877380D01*
X92932142Y-90877380D01*
X92836904Y-90829761D01*
X92789285Y-90782142D01*
%TO.C,SW15*%
X128365476Y-128929761D02*
X128508333Y-128977380D01*
X128746428Y-128977380D01*
X128841666Y-128929761D01*
X128889285Y-128882142D01*
X128936904Y-128786904D01*
X128936904Y-128691666D01*
X128889285Y-128596428D01*
X128841666Y-128548809D01*
X128746428Y-128501190D01*
X128555952Y-128453571D01*
X128460714Y-128405952D01*
X128413095Y-128358333D01*
X128365476Y-128263095D01*
X128365476Y-128167857D01*
X128413095Y-128072619D01*
X128460714Y-128025000D01*
X128555952Y-127977380D01*
X128794047Y-127977380D01*
X128936904Y-128025000D01*
X129270238Y-127977380D02*
X129508333Y-128977380D01*
X129698809Y-128263095D01*
X129889285Y-128977380D01*
X130127380Y-127977380D01*
X131032142Y-128977380D02*
X130460714Y-128977380D01*
X130746428Y-128977380D02*
X130746428Y-127977380D01*
X130651190Y-128120238D01*
X130555952Y-128215476D01*
X130460714Y-128263095D01*
X131936904Y-127977380D02*
X131460714Y-127977380D01*
X131413095Y-128453571D01*
X131460714Y-128405952D01*
X131555952Y-128358333D01*
X131794047Y-128358333D01*
X131889285Y-128405952D01*
X131936904Y-128453571D01*
X131984523Y-128548809D01*
X131984523Y-128786904D01*
X131936904Y-128882142D01*
X131889285Y-128929761D01*
X131794047Y-128977380D01*
X131555952Y-128977380D01*
X131460714Y-128929761D01*
X131413095Y-128882142D01*
%TO.C,SW9*%
X109791666Y-109879761D02*
X109934523Y-109927380D01*
X110172619Y-109927380D01*
X110267857Y-109879761D01*
X110315476Y-109832142D01*
X110363095Y-109736904D01*
X110363095Y-109641666D01*
X110315476Y-109546428D01*
X110267857Y-109498809D01*
X110172619Y-109451190D01*
X109982142Y-109403571D01*
X109886904Y-109355952D01*
X109839285Y-109308333D01*
X109791666Y-109213095D01*
X109791666Y-109117857D01*
X109839285Y-109022619D01*
X109886904Y-108975000D01*
X109982142Y-108927380D01*
X110220238Y-108927380D01*
X110363095Y-108975000D01*
X110696428Y-108927380D02*
X110934523Y-109927380D01*
X111125000Y-109213095D01*
X111315476Y-109927380D01*
X111553571Y-108927380D01*
X111982142Y-109927380D02*
X112172619Y-109927380D01*
X112267857Y-109879761D01*
X112315476Y-109832142D01*
X112410714Y-109689285D01*
X112458333Y-109498809D01*
X112458333Y-109117857D01*
X112410714Y-109022619D01*
X112363095Y-108975000D01*
X112267857Y-108927380D01*
X112077380Y-108927380D01*
X111982142Y-108975000D01*
X111934523Y-109022619D01*
X111886904Y-109117857D01*
X111886904Y-109355952D01*
X111934523Y-109451190D01*
X111982142Y-109498809D01*
X112077380Y-109546428D01*
X112267857Y-109546428D01*
X112363095Y-109498809D01*
X112410714Y-109451190D01*
X112458333Y-109355952D01*
%TO.C,SW5*%
X90741666Y-128929761D02*
X90884523Y-128977380D01*
X91122619Y-128977380D01*
X91217857Y-128929761D01*
X91265476Y-128882142D01*
X91313095Y-128786904D01*
X91313095Y-128691666D01*
X91265476Y-128596428D01*
X91217857Y-128548809D01*
X91122619Y-128501190D01*
X90932142Y-128453571D01*
X90836904Y-128405952D01*
X90789285Y-128358333D01*
X90741666Y-128263095D01*
X90741666Y-128167857D01*
X90789285Y-128072619D01*
X90836904Y-128025000D01*
X90932142Y-127977380D01*
X91170238Y-127977380D01*
X91313095Y-128025000D01*
X91646428Y-127977380D02*
X91884523Y-128977380D01*
X92075000Y-128263095D01*
X92265476Y-128977380D01*
X92503571Y-127977380D01*
X93360714Y-127977380D02*
X92884523Y-127977380D01*
X92836904Y-128453571D01*
X92884523Y-128405952D01*
X92979761Y-128358333D01*
X93217857Y-128358333D01*
X93313095Y-128405952D01*
X93360714Y-128453571D01*
X93408333Y-128548809D01*
X93408333Y-128786904D01*
X93360714Y-128882142D01*
X93313095Y-128929761D01*
X93217857Y-128977380D01*
X92979761Y-128977380D01*
X92884523Y-128929761D01*
X92836904Y-128882142D01*
%TO.C,SW10*%
X109315476Y-128929761D02*
X109458333Y-128977380D01*
X109696428Y-128977380D01*
X109791666Y-128929761D01*
X109839285Y-128882142D01*
X109886904Y-128786904D01*
X109886904Y-128691666D01*
X109839285Y-128596428D01*
X109791666Y-128548809D01*
X109696428Y-128501190D01*
X109505952Y-128453571D01*
X109410714Y-128405952D01*
X109363095Y-128358333D01*
X109315476Y-128263095D01*
X109315476Y-128167857D01*
X109363095Y-128072619D01*
X109410714Y-128025000D01*
X109505952Y-127977380D01*
X109744047Y-127977380D01*
X109886904Y-128025000D01*
X110220238Y-127977380D02*
X110458333Y-128977380D01*
X110648809Y-128263095D01*
X110839285Y-128977380D01*
X111077380Y-127977380D01*
X111982142Y-128977380D02*
X111410714Y-128977380D01*
X111696428Y-128977380D02*
X111696428Y-127977380D01*
X111601190Y-128120238D01*
X111505952Y-128215476D01*
X111410714Y-128263095D01*
X112601190Y-127977380D02*
X112696428Y-127977380D01*
X112791666Y-128025000D01*
X112839285Y-128072619D01*
X112886904Y-128167857D01*
X112934523Y-128358333D01*
X112934523Y-128596428D01*
X112886904Y-128786904D01*
X112839285Y-128882142D01*
X112791666Y-128929761D01*
X112696428Y-128977380D01*
X112601190Y-128977380D01*
X112505952Y-128929761D01*
X112458333Y-128882142D01*
X112410714Y-128786904D01*
X112363095Y-128596428D01*
X112363095Y-128358333D01*
X112410714Y-128167857D01*
X112458333Y-128072619D01*
X112505952Y-128025000D01*
X112601190Y-127977380D01*
%TO.C,SW7*%
X90741666Y-167029761D02*
X90884523Y-167077380D01*
X91122619Y-167077380D01*
X91217857Y-167029761D01*
X91265476Y-166982142D01*
X91313095Y-166886904D01*
X91313095Y-166791666D01*
X91265476Y-166696428D01*
X91217857Y-166648809D01*
X91122619Y-166601190D01*
X90932142Y-166553571D01*
X90836904Y-166505952D01*
X90789285Y-166458333D01*
X90741666Y-166363095D01*
X90741666Y-166267857D01*
X90789285Y-166172619D01*
X90836904Y-166125000D01*
X90932142Y-166077380D01*
X91170238Y-166077380D01*
X91313095Y-166125000D01*
X91646428Y-166077380D02*
X91884523Y-167077380D01*
X92075000Y-166363095D01*
X92265476Y-167077380D01*
X92503571Y-166077380D01*
X92789285Y-166077380D02*
X93455952Y-166077380D01*
X93027380Y-167077380D01*
%TO.C,SW12*%
X109315476Y-167029761D02*
X109458333Y-167077380D01*
X109696428Y-167077380D01*
X109791666Y-167029761D01*
X109839285Y-166982142D01*
X109886904Y-166886904D01*
X109886904Y-166791666D01*
X109839285Y-166696428D01*
X109791666Y-166648809D01*
X109696428Y-166601190D01*
X109505952Y-166553571D01*
X109410714Y-166505952D01*
X109363095Y-166458333D01*
X109315476Y-166363095D01*
X109315476Y-166267857D01*
X109363095Y-166172619D01*
X109410714Y-166125000D01*
X109505952Y-166077380D01*
X109744047Y-166077380D01*
X109886904Y-166125000D01*
X110220238Y-166077380D02*
X110458333Y-167077380D01*
X110648809Y-166363095D01*
X110839285Y-167077380D01*
X111077380Y-166077380D01*
X111982142Y-167077380D02*
X111410714Y-167077380D01*
X111696428Y-167077380D02*
X111696428Y-166077380D01*
X111601190Y-166220238D01*
X111505952Y-166315476D01*
X111410714Y-166363095D01*
X112363095Y-166172619D02*
X112410714Y-166125000D01*
X112505952Y-166077380D01*
X112744047Y-166077380D01*
X112839285Y-166125000D01*
X112886904Y-166172619D01*
X112934523Y-166267857D01*
X112934523Y-166363095D01*
X112886904Y-166505952D01*
X112315476Y-167077380D01*
X112934523Y-167077380D01*
%TO.C,SW19*%
X147415476Y-109879761D02*
X147558333Y-109927380D01*
X147796428Y-109927380D01*
X147891666Y-109879761D01*
X147939285Y-109832142D01*
X147986904Y-109736904D01*
X147986904Y-109641666D01*
X147939285Y-109546428D01*
X147891666Y-109498809D01*
X147796428Y-109451190D01*
X147605952Y-109403571D01*
X147510714Y-109355952D01*
X147463095Y-109308333D01*
X147415476Y-109213095D01*
X147415476Y-109117857D01*
X147463095Y-109022619D01*
X147510714Y-108975000D01*
X147605952Y-108927380D01*
X147844047Y-108927380D01*
X147986904Y-108975000D01*
X148320238Y-108927380D02*
X148558333Y-109927380D01*
X148748809Y-109213095D01*
X148939285Y-109927380D01*
X149177380Y-108927380D01*
X150082142Y-109927380D02*
X149510714Y-109927380D01*
X149796428Y-109927380D02*
X149796428Y-108927380D01*
X149701190Y-109070238D01*
X149605952Y-109165476D01*
X149510714Y-109213095D01*
X150558333Y-109927380D02*
X150748809Y-109927380D01*
X150844047Y-109879761D01*
X150891666Y-109832142D01*
X150986904Y-109689285D01*
X151034523Y-109498809D01*
X151034523Y-109117857D01*
X150986904Y-109022619D01*
X150939285Y-108975000D01*
X150844047Y-108927380D01*
X150653571Y-108927380D01*
X150558333Y-108975000D01*
X150510714Y-109022619D01*
X150463095Y-109117857D01*
X150463095Y-109355952D01*
X150510714Y-109451190D01*
X150558333Y-109498809D01*
X150653571Y-109546428D01*
X150844047Y-109546428D01*
X150939285Y-109498809D01*
X150986904Y-109451190D01*
X151034523Y-109355952D01*
%TO.C,SW13*%
X128365476Y-90829761D02*
X128508333Y-90877380D01*
X128746428Y-90877380D01*
X128841666Y-90829761D01*
X128889285Y-90782142D01*
X128936904Y-90686904D01*
X128936904Y-90591666D01*
X128889285Y-90496428D01*
X128841666Y-90448809D01*
X128746428Y-90401190D01*
X128555952Y-90353571D01*
X128460714Y-90305952D01*
X128413095Y-90258333D01*
X128365476Y-90163095D01*
X128365476Y-90067857D01*
X128413095Y-89972619D01*
X128460714Y-89925000D01*
X128555952Y-89877380D01*
X128794047Y-89877380D01*
X128936904Y-89925000D01*
X129270238Y-89877380D02*
X129508333Y-90877380D01*
X129698809Y-90163095D01*
X129889285Y-90877380D01*
X130127380Y-89877380D01*
X131032142Y-90877380D02*
X130460714Y-90877380D01*
X130746428Y-90877380D02*
X130746428Y-89877380D01*
X130651190Y-90020238D01*
X130555952Y-90115476D01*
X130460714Y-90163095D01*
X131365476Y-89877380D02*
X131984523Y-89877380D01*
X131651190Y-90258333D01*
X131794047Y-90258333D01*
X131889285Y-90305952D01*
X131936904Y-90353571D01*
X131984523Y-90448809D01*
X131984523Y-90686904D01*
X131936904Y-90782142D01*
X131889285Y-90829761D01*
X131794047Y-90877380D01*
X131508333Y-90877380D01*
X131413095Y-90829761D01*
X131365476Y-90782142D01*
%TO.C,SW21*%
X147415476Y-147979761D02*
X147558333Y-148027380D01*
X147796428Y-148027380D01*
X147891666Y-147979761D01*
X147939285Y-147932142D01*
X147986904Y-147836904D01*
X147986904Y-147741666D01*
X147939285Y-147646428D01*
X147891666Y-147598809D01*
X147796428Y-147551190D01*
X147605952Y-147503571D01*
X147510714Y-147455952D01*
X147463095Y-147408333D01*
X147415476Y-147313095D01*
X147415476Y-147217857D01*
X147463095Y-147122619D01*
X147510714Y-147075000D01*
X147605952Y-147027380D01*
X147844047Y-147027380D01*
X147986904Y-147075000D01*
X148320238Y-147027380D02*
X148558333Y-148027380D01*
X148748809Y-147313095D01*
X148939285Y-148027380D01*
X149177380Y-147027380D01*
X149510714Y-147122619D02*
X149558333Y-147075000D01*
X149653571Y-147027380D01*
X149891666Y-147027380D01*
X149986904Y-147075000D01*
X150034523Y-147122619D01*
X150082142Y-147217857D01*
X150082142Y-147313095D01*
X150034523Y-147455952D01*
X149463095Y-148027380D01*
X150082142Y-148027380D01*
X151034523Y-148027380D02*
X150463095Y-148027380D01*
X150748809Y-148027380D02*
X150748809Y-147027380D01*
X150653571Y-147170238D01*
X150558333Y-147265476D01*
X150463095Y-147313095D01*
%TO.C,SW20*%
X147415476Y-128929761D02*
X147558333Y-128977380D01*
X147796428Y-128977380D01*
X147891666Y-128929761D01*
X147939285Y-128882142D01*
X147986904Y-128786904D01*
X147986904Y-128691666D01*
X147939285Y-128596428D01*
X147891666Y-128548809D01*
X147796428Y-128501190D01*
X147605952Y-128453571D01*
X147510714Y-128405952D01*
X147463095Y-128358333D01*
X147415476Y-128263095D01*
X147415476Y-128167857D01*
X147463095Y-128072619D01*
X147510714Y-128025000D01*
X147605952Y-127977380D01*
X147844047Y-127977380D01*
X147986904Y-128025000D01*
X148320238Y-127977380D02*
X148558333Y-128977380D01*
X148748809Y-128263095D01*
X148939285Y-128977380D01*
X149177380Y-127977380D01*
X149510714Y-128072619D02*
X149558333Y-128025000D01*
X149653571Y-127977380D01*
X149891666Y-127977380D01*
X149986904Y-128025000D01*
X150034523Y-128072619D01*
X150082142Y-128167857D01*
X150082142Y-128263095D01*
X150034523Y-128405952D01*
X149463095Y-128977380D01*
X150082142Y-128977380D01*
X150701190Y-127977380D02*
X150796428Y-127977380D01*
X150891666Y-128025000D01*
X150939285Y-128072619D01*
X150986904Y-128167857D01*
X151034523Y-128358333D01*
X151034523Y-128596428D01*
X150986904Y-128786904D01*
X150939285Y-128882142D01*
X150891666Y-128929761D01*
X150796428Y-128977380D01*
X150701190Y-128977380D01*
X150605952Y-128929761D01*
X150558333Y-128882142D01*
X150510714Y-128786904D01*
X150463095Y-128596428D01*
X150463095Y-128358333D01*
X150510714Y-128167857D01*
X150558333Y-128072619D01*
X150605952Y-128025000D01*
X150701190Y-127977380D01*
%TO.C,SW8*%
X109791666Y-90829761D02*
X109934523Y-90877380D01*
X110172619Y-90877380D01*
X110267857Y-90829761D01*
X110315476Y-90782142D01*
X110363095Y-90686904D01*
X110363095Y-90591666D01*
X110315476Y-90496428D01*
X110267857Y-90448809D01*
X110172619Y-90401190D01*
X109982142Y-90353571D01*
X109886904Y-90305952D01*
X109839285Y-90258333D01*
X109791666Y-90163095D01*
X109791666Y-90067857D01*
X109839285Y-89972619D01*
X109886904Y-89925000D01*
X109982142Y-89877380D01*
X110220238Y-89877380D01*
X110363095Y-89925000D01*
X110696428Y-89877380D02*
X110934523Y-90877380D01*
X111125000Y-90163095D01*
X111315476Y-90877380D01*
X111553571Y-89877380D01*
X112077380Y-90305952D02*
X111982142Y-90258333D01*
X111934523Y-90210714D01*
X111886904Y-90115476D01*
X111886904Y-90067857D01*
X111934523Y-89972619D01*
X111982142Y-89925000D01*
X112077380Y-89877380D01*
X112267857Y-89877380D01*
X112363095Y-89925000D01*
X112410714Y-89972619D01*
X112458333Y-90067857D01*
X112458333Y-90115476D01*
X112410714Y-90210714D01*
X112363095Y-90258333D01*
X112267857Y-90305952D01*
X112077380Y-90305952D01*
X111982142Y-90353571D01*
X111934523Y-90401190D01*
X111886904Y-90496428D01*
X111886904Y-90686904D01*
X111934523Y-90782142D01*
X111982142Y-90829761D01*
X112077380Y-90877380D01*
X112267857Y-90877380D01*
X112363095Y-90829761D01*
X112410714Y-90782142D01*
X112458333Y-90686904D01*
X112458333Y-90496428D01*
X112410714Y-90401190D01*
X112363095Y-90353571D01*
X112267857Y-90305952D01*
%TO.C,SW11*%
X109315476Y-147979761D02*
X109458333Y-148027380D01*
X109696428Y-148027380D01*
X109791666Y-147979761D01*
X109839285Y-147932142D01*
X109886904Y-147836904D01*
X109886904Y-147741666D01*
X109839285Y-147646428D01*
X109791666Y-147598809D01*
X109696428Y-147551190D01*
X109505952Y-147503571D01*
X109410714Y-147455952D01*
X109363095Y-147408333D01*
X109315476Y-147313095D01*
X109315476Y-147217857D01*
X109363095Y-147122619D01*
X109410714Y-147075000D01*
X109505952Y-147027380D01*
X109744047Y-147027380D01*
X109886904Y-147075000D01*
X110220238Y-147027380D02*
X110458333Y-148027380D01*
X110648809Y-147313095D01*
X110839285Y-148027380D01*
X111077380Y-147027380D01*
X111982142Y-148027380D02*
X111410714Y-148027380D01*
X111696428Y-148027380D02*
X111696428Y-147027380D01*
X111601190Y-147170238D01*
X111505952Y-147265476D01*
X111410714Y-147313095D01*
X112934523Y-148027380D02*
X112363095Y-148027380D01*
X112648809Y-148027380D02*
X112648809Y-147027380D01*
X112553571Y-147170238D01*
X112458333Y-147265476D01*
X112363095Y-147313095D01*
%TO.C,SW16*%
X128365476Y-147979761D02*
X128508333Y-148027380D01*
X128746428Y-148027380D01*
X128841666Y-147979761D01*
X128889285Y-147932142D01*
X128936904Y-147836904D01*
X128936904Y-147741666D01*
X128889285Y-147646428D01*
X128841666Y-147598809D01*
X128746428Y-147551190D01*
X128555952Y-147503571D01*
X128460714Y-147455952D01*
X128413095Y-147408333D01*
X128365476Y-147313095D01*
X128365476Y-147217857D01*
X128413095Y-147122619D01*
X128460714Y-147075000D01*
X128555952Y-147027380D01*
X128794047Y-147027380D01*
X128936904Y-147075000D01*
X129270238Y-147027380D02*
X129508333Y-148027380D01*
X129698809Y-147313095D01*
X129889285Y-148027380D01*
X130127380Y-147027380D01*
X131032142Y-148027380D02*
X130460714Y-148027380D01*
X130746428Y-148027380D02*
X130746428Y-147027380D01*
X130651190Y-147170238D01*
X130555952Y-147265476D01*
X130460714Y-147313095D01*
X131889285Y-147027380D02*
X131698809Y-147027380D01*
X131603571Y-147075000D01*
X131555952Y-147122619D01*
X131460714Y-147265476D01*
X131413095Y-147455952D01*
X131413095Y-147836904D01*
X131460714Y-147932142D01*
X131508333Y-147979761D01*
X131603571Y-148027380D01*
X131794047Y-148027380D01*
X131889285Y-147979761D01*
X131936904Y-147932142D01*
X131984523Y-147836904D01*
X131984523Y-147598809D01*
X131936904Y-147503571D01*
X131889285Y-147455952D01*
X131794047Y-147408333D01*
X131603571Y-147408333D01*
X131508333Y-147455952D01*
X131460714Y-147503571D01*
X131413095Y-147598809D01*
%TO.C,SW18*%
X147415476Y-90829761D02*
X147558333Y-90877380D01*
X147796428Y-90877380D01*
X147891666Y-90829761D01*
X147939285Y-90782142D01*
X147986904Y-90686904D01*
X147986904Y-90591666D01*
X147939285Y-90496428D01*
X147891666Y-90448809D01*
X147796428Y-90401190D01*
X147605952Y-90353571D01*
X147510714Y-90305952D01*
X147463095Y-90258333D01*
X147415476Y-90163095D01*
X147415476Y-90067857D01*
X147463095Y-89972619D01*
X147510714Y-89925000D01*
X147605952Y-89877380D01*
X147844047Y-89877380D01*
X147986904Y-89925000D01*
X148320238Y-89877380D02*
X148558333Y-90877380D01*
X148748809Y-90163095D01*
X148939285Y-90877380D01*
X149177380Y-89877380D01*
X150082142Y-90877380D02*
X149510714Y-90877380D01*
X149796428Y-90877380D02*
X149796428Y-89877380D01*
X149701190Y-90020238D01*
X149605952Y-90115476D01*
X149510714Y-90163095D01*
X150653571Y-90305952D02*
X150558333Y-90258333D01*
X150510714Y-90210714D01*
X150463095Y-90115476D01*
X150463095Y-90067857D01*
X150510714Y-89972619D01*
X150558333Y-89925000D01*
X150653571Y-89877380D01*
X150844047Y-89877380D01*
X150939285Y-89925000D01*
X150986904Y-89972619D01*
X151034523Y-90067857D01*
X151034523Y-90115476D01*
X150986904Y-90210714D01*
X150939285Y-90258333D01*
X150844047Y-90305952D01*
X150653571Y-90305952D01*
X150558333Y-90353571D01*
X150510714Y-90401190D01*
X150463095Y-90496428D01*
X150463095Y-90686904D01*
X150510714Y-90782142D01*
X150558333Y-90829761D01*
X150653571Y-90877380D01*
X150844047Y-90877380D01*
X150939285Y-90829761D01*
X150986904Y-90782142D01*
X151034523Y-90686904D01*
X151034523Y-90496428D01*
X150986904Y-90401190D01*
X150939285Y-90353571D01*
X150844047Y-90305952D01*
%TO.C,SW4*%
X90741666Y-109879761D02*
X90884523Y-109927380D01*
X91122619Y-109927380D01*
X91217857Y-109879761D01*
X91265476Y-109832142D01*
X91313095Y-109736904D01*
X91313095Y-109641666D01*
X91265476Y-109546428D01*
X91217857Y-109498809D01*
X91122619Y-109451190D01*
X90932142Y-109403571D01*
X90836904Y-109355952D01*
X90789285Y-109308333D01*
X90741666Y-109213095D01*
X90741666Y-109117857D01*
X90789285Y-109022619D01*
X90836904Y-108975000D01*
X90932142Y-108927380D01*
X91170238Y-108927380D01*
X91313095Y-108975000D01*
X91646428Y-108927380D02*
X91884523Y-109927380D01*
X92075000Y-109213095D01*
X92265476Y-109927380D01*
X92503571Y-108927380D01*
X93313095Y-109260714D02*
X93313095Y-109927380D01*
X93075000Y-108879761D02*
X92836904Y-109594047D01*
X93455952Y-109594047D01*
%TO.C,SW6*%
X90741666Y-147979761D02*
X90884523Y-148027380D01*
X91122619Y-148027380D01*
X91217857Y-147979761D01*
X91265476Y-147932142D01*
X91313095Y-147836904D01*
X91313095Y-147741666D01*
X91265476Y-147646428D01*
X91217857Y-147598809D01*
X91122619Y-147551190D01*
X90932142Y-147503571D01*
X90836904Y-147455952D01*
X90789285Y-147408333D01*
X90741666Y-147313095D01*
X90741666Y-147217857D01*
X90789285Y-147122619D01*
X90836904Y-147075000D01*
X90932142Y-147027380D01*
X91170238Y-147027380D01*
X91313095Y-147075000D01*
X91646428Y-147027380D02*
X91884523Y-148027380D01*
X92075000Y-147313095D01*
X92265476Y-148027380D01*
X92503571Y-147027380D01*
X93313095Y-147027380D02*
X93122619Y-147027380D01*
X93027380Y-147075000D01*
X92979761Y-147122619D01*
X92884523Y-147265476D01*
X92836904Y-147455952D01*
X92836904Y-147836904D01*
X92884523Y-147932142D01*
X92932142Y-147979761D01*
X93027380Y-148027380D01*
X93217857Y-148027380D01*
X93313095Y-147979761D01*
X93360714Y-147932142D01*
X93408333Y-147836904D01*
X93408333Y-147598809D01*
X93360714Y-147503571D01*
X93313095Y-147455952D01*
X93217857Y-147408333D01*
X93027380Y-147408333D01*
X92932142Y-147455952D01*
X92884523Y-147503571D01*
X92836904Y-147598809D01*
%TO.C,SW22*%
X147415476Y-167029761D02*
X147558333Y-167077380D01*
X147796428Y-167077380D01*
X147891666Y-167029761D01*
X147939285Y-166982142D01*
X147986904Y-166886904D01*
X147986904Y-166791666D01*
X147939285Y-166696428D01*
X147891666Y-166648809D01*
X147796428Y-166601190D01*
X147605952Y-166553571D01*
X147510714Y-166505952D01*
X147463095Y-166458333D01*
X147415476Y-166363095D01*
X147415476Y-166267857D01*
X147463095Y-166172619D01*
X147510714Y-166125000D01*
X147605952Y-166077380D01*
X147844047Y-166077380D01*
X147986904Y-166125000D01*
X148320238Y-166077380D02*
X148558333Y-167077380D01*
X148748809Y-166363095D01*
X148939285Y-167077380D01*
X149177380Y-166077380D01*
X149510714Y-166172619D02*
X149558333Y-166125000D01*
X149653571Y-166077380D01*
X149891666Y-166077380D01*
X149986904Y-166125000D01*
X150034523Y-166172619D01*
X150082142Y-166267857D01*
X150082142Y-166363095D01*
X150034523Y-166505952D01*
X149463095Y-167077380D01*
X150082142Y-167077380D01*
X150463095Y-166172619D02*
X150510714Y-166125000D01*
X150605952Y-166077380D01*
X150844047Y-166077380D01*
X150939285Y-166125000D01*
X150986904Y-166172619D01*
X151034523Y-166267857D01*
X151034523Y-166363095D01*
X150986904Y-166505952D01*
X150415476Y-167077380D01*
X151034523Y-167077380D01*
%TO.C,SW17*%
X128365476Y-167029761D02*
X128508333Y-167077380D01*
X128746428Y-167077380D01*
X128841666Y-167029761D01*
X128889285Y-166982142D01*
X128936904Y-166886904D01*
X128936904Y-166791666D01*
X128889285Y-166696428D01*
X128841666Y-166648809D01*
X128746428Y-166601190D01*
X128555952Y-166553571D01*
X128460714Y-166505952D01*
X128413095Y-166458333D01*
X128365476Y-166363095D01*
X128365476Y-166267857D01*
X128413095Y-166172619D01*
X128460714Y-166125000D01*
X128555952Y-166077380D01*
X128794047Y-166077380D01*
X128936904Y-166125000D01*
X129270238Y-166077380D02*
X129508333Y-167077380D01*
X129698809Y-166363095D01*
X129889285Y-167077380D01*
X130127380Y-166077380D01*
X131032142Y-167077380D02*
X130460714Y-167077380D01*
X130746428Y-167077380D02*
X130746428Y-166077380D01*
X130651190Y-166220238D01*
X130555952Y-166315476D01*
X130460714Y-166363095D01*
X131365476Y-166077380D02*
X132032142Y-166077380D01*
X131603571Y-167077380D01*
%TO.C,SW14*%
X128365476Y-109879761D02*
X128508333Y-109927380D01*
X128746428Y-109927380D01*
X128841666Y-109879761D01*
X128889285Y-109832142D01*
X128936904Y-109736904D01*
X128936904Y-109641666D01*
X128889285Y-109546428D01*
X128841666Y-109498809D01*
X128746428Y-109451190D01*
X128555952Y-109403571D01*
X128460714Y-109355952D01*
X128413095Y-109308333D01*
X128365476Y-109213095D01*
X128365476Y-109117857D01*
X128413095Y-109022619D01*
X128460714Y-108975000D01*
X128555952Y-108927380D01*
X128794047Y-108927380D01*
X128936904Y-108975000D01*
X129270238Y-108927380D02*
X129508333Y-109927380D01*
X129698809Y-109213095D01*
X129889285Y-109927380D01*
X130127380Y-108927380D01*
X131032142Y-109927380D02*
X130460714Y-109927380D01*
X130746428Y-109927380D02*
X130746428Y-108927380D01*
X130651190Y-109070238D01*
X130555952Y-109165476D01*
X130460714Y-109213095D01*
X131889285Y-109260714D02*
X131889285Y-109927380D01*
X131651190Y-108879761D02*
X131413095Y-109594047D01*
X132032142Y-109594047D01*
D11*
%TO.C,J2*%
X159874000Y-83225000D02*
X159874000Y-83675000D01*
X160554000Y-78155000D02*
X160554000Y-78575000D01*
X160324000Y-83675000D02*
X159874000Y-83675000D01*
X164904000Y-85675000D02*
X164504000Y-85675000D01*
X164504000Y-78155000D02*
X164904000Y-78155000D01*
X162534000Y-78155000D02*
X160554000Y-78155000D01*
X162534000Y-85675000D02*
X160554000Y-85675000D01*
X160554000Y-85675000D02*
X160554000Y-85255000D01*
%TO.C,SW1*%
X133491500Y-66465500D02*
X133491500Y-65465500D01*
X133741500Y-75155500D02*
X133741500Y-65715500D01*
X134491500Y-65465500D02*
X133491500Y-65465500D01*
X136811500Y-68735500D02*
X136811500Y-72035500D01*
X140611500Y-68735500D02*
X136811500Y-68735500D01*
X140611500Y-68735500D02*
X140611500Y-72035500D01*
X140611500Y-72035500D02*
X136811500Y-72035500D01*
X143781500Y-65715500D02*
X133741500Y-65715500D01*
X143781500Y-75155500D02*
X133741500Y-75155500D01*
X143781500Y-75155500D02*
X143781500Y-65715500D01*
%TO.C,Y1*%
X102311252Y-79920000D02*
X100888748Y-79920000D01*
X102311252Y-82640000D02*
X100888748Y-82640000D01*
%TO.C,U2*%
X134544000Y-83334000D02*
X134544000Y-79734000D01*
X134532478Y-79695522D02*
G75*
G03*
X130094000Y-81534000I-1838478J-1838478D01*
G01*
X130093999Y-81534000D02*
G75*
G03*
X134532478Y-83372478I2600001J0D01*
G01*
%TO.C,U1*%
X78690000Y-67825000D02*
X78690000Y-69475000D01*
X114370000Y-67825000D02*
X78690000Y-67825000D01*
X78690000Y-71475000D02*
X78690000Y-73125000D01*
X78690000Y-73125000D02*
X114370000Y-73125000D01*
X114370000Y-73125000D02*
X114370000Y-67825000D01*
X78690000Y-71475000D02*
G75*
G03*
X78690000Y-69475000I0J1000000D01*
G01*
%TO.C,RV1*%
X112483000Y-77096000D02*
G75*
G03*
X110941137Y-76739925I-1485000J-2914000D01*
G01*
X113911999Y-81494000D02*
G75*
G03*
X113911387Y-78524798I-2913999J1484000D01*
G01*
X110998000Y-76740000D02*
G75*
G03*
X107906154Y-78945392I0J-3270000D01*
G01*
X107906000Y-81074000D02*
G75*
G03*
X112481968Y-82923829I3092000J1064000D01*
G01*
%TO.C,R3*%
X80237064Y-81761000D02*
X79782936Y-81761000D01*
X80237064Y-80291000D02*
X79782936Y-80291000D01*
%TO.C,R2*%
X147547000Y-80768564D02*
X147547000Y-80314436D01*
X146077000Y-80768564D02*
X146077000Y-80314436D01*
%TO.C,R1*%
X149833000Y-80768564D02*
X149833000Y-80314436D01*
X148363000Y-80768564D02*
X148363000Y-80314436D01*
%TO.C,JP5*%
X101870000Y-78170000D02*
G75*
G03*
X102570000Y-78870000I700000J0D01*
G01*
X102570000Y-76070000D02*
G75*
G03*
X101870000Y-76770000I-1J-699999D01*
G01*
X103870000Y-76770000D02*
G75*
G03*
X103170000Y-76070000I-699999J1D01*
G01*
X103170000Y-78870000D02*
G75*
G03*
X103870000Y-78170000I0J700000D01*
G01*
X102570000Y-76070000D02*
X103170000Y-76070000D01*
X103170000Y-78870000D02*
X102570000Y-78870000D01*
X101870000Y-78170000D02*
X101870000Y-76770000D01*
X103870000Y-76770000D02*
X103870000Y-78170000D01*
D10*
%TO.C,JP4*%
X83179000Y-85490000D02*
X82679000Y-85990000D01*
X78579000Y-84690000D02*
X79079000Y-84190000D01*
X79079000Y-85990000D02*
X78579000Y-85490000D01*
X82679000Y-85990000D02*
X79079000Y-85990000D01*
X82679000Y-84190000D02*
X83179000Y-84690000D01*
X83179000Y-84690000D02*
X83179000Y-85490000D01*
X78579000Y-85490000D02*
X78579000Y-84690000D01*
X79079000Y-84190000D02*
X82679000Y-84190000D01*
D11*
%TO.C,JP3*%
X99330000Y-78185000D02*
G75*
G03*
X100030000Y-78885000I700000J0D01*
G01*
X100030000Y-76085000D02*
G75*
G03*
X99330000Y-76785000I-1J-699999D01*
G01*
X101330000Y-76785000D02*
G75*
G03*
X100630000Y-76085000I-699999J1D01*
G01*
X100630000Y-78885000D02*
G75*
G03*
X101330000Y-78185000I0J700000D01*
G01*
X100030000Y-76085000D02*
X100630000Y-76085000D01*
X100630000Y-78885000D02*
X100030000Y-78885000D01*
X99330000Y-78185000D02*
X99330000Y-76785000D01*
X101330000Y-76785000D02*
X101330000Y-78185000D01*
D10*
%TO.C,JP2*%
X137179000Y-79234000D02*
X137679000Y-79734000D01*
X136379000Y-83834000D02*
X135879000Y-83334000D01*
X137679000Y-83334000D02*
X137179000Y-83834000D01*
X137679000Y-79734000D02*
X137679000Y-83334000D01*
X135879000Y-79734000D02*
X136379000Y-79234000D01*
X136379000Y-79234000D02*
X137179000Y-79234000D01*
X137179000Y-83834000D02*
X136379000Y-83834000D01*
X135879000Y-83334000D02*
X135879000Y-79734000D01*
%TO.C,JP1*%
X138419000Y-83334000D02*
X138419000Y-79734000D01*
X139719000Y-83834000D02*
X138919000Y-83834000D01*
X138919000Y-79234000D02*
X139719000Y-79234000D01*
X138419000Y-79734000D02*
X138919000Y-79234000D01*
X140219000Y-79734000D02*
X140219000Y-83334000D01*
X140219000Y-83334000D02*
X139719000Y-83834000D01*
X138919000Y-83834000D02*
X138419000Y-83334000D01*
X139719000Y-79234000D02*
X140219000Y-79734000D01*
D11*
%TO.C,J5*%
X121691000Y-65990000D02*
X123021000Y-65990000D01*
X123021000Y-65990000D02*
X123021000Y-67320000D01*
X120361000Y-68590000D02*
X120361000Y-76270000D01*
X120361000Y-68590000D02*
X123021000Y-68590000D01*
X123021000Y-68590000D02*
X123021000Y-76270000D01*
X120361000Y-76270000D02*
X123021000Y-76270000D01*
%TO.C,J4*%
X123917000Y-73735000D02*
X126577000Y-73735000D01*
X126577000Y-65995000D02*
X126577000Y-67325000D01*
X123917000Y-68595000D02*
X126577000Y-68595000D01*
X123917000Y-68595000D02*
X123917000Y-73735000D01*
X126577000Y-68595000D02*
X126577000Y-73735000D01*
X125247000Y-65995000D02*
X126577000Y-65995000D01*
%TO.C,J3*%
X119415000Y-65955000D02*
X116755000Y-65955000D01*
X119415000Y-78715000D02*
X119415000Y-65955000D01*
X116755000Y-81315000D02*
X116755000Y-79985000D01*
X116755000Y-78715000D02*
X116755000Y-65955000D01*
X119415000Y-78715000D02*
X116755000Y-78715000D01*
X118085000Y-81315000D02*
X116755000Y-81315000D01*
%TO.C,J1*%
X157995000Y-75070000D02*
X149395000Y-75070000D01*
X149395000Y-65870000D02*
X163895000Y-65870000D01*
X163895000Y-73070000D02*
X163895000Y-75070000D01*
X163895000Y-75070000D02*
X162595000Y-75070000D01*
X164195000Y-67270000D02*
X164195000Y-65570000D01*
X149395000Y-75070000D02*
X149395000Y-65870000D01*
X163895000Y-65870000D02*
X163895000Y-67870000D01*
X164195000Y-65570000D02*
X162895000Y-65570000D01*
%TO.C,D1*%
X150424000Y-79541500D02*
X150424000Y-82226500D01*
X150424000Y-82226500D02*
X152344000Y-82226500D01*
X152344000Y-82226500D02*
X152344000Y-79541500D01*
%TO.C,C7*%
X80271252Y-78259000D02*
X79748748Y-78259000D01*
X80271252Y-79729000D02*
X79748748Y-79729000D01*
%TO.C,C6*%
X106145000Y-81541252D02*
X106145000Y-81018748D01*
X104675000Y-81541252D02*
X104675000Y-81018748D01*
%TO.C,C5*%
X94007000Y-77650748D02*
X94007000Y-78173252D01*
X95477000Y-77650748D02*
X95477000Y-78173252D01*
%TO.C,C4*%
X91949600Y-77640548D02*
X91949600Y-78163052D01*
X93419600Y-77640548D02*
X93419600Y-78163052D01*
%TO.C,C3*%
X143791000Y-80779252D02*
X143791000Y-80256748D01*
X145261000Y-80779252D02*
X145261000Y-80256748D01*
%TO.C,C2*%
X137787748Y-86587000D02*
X138310252Y-86587000D01*
X137787748Y-85117000D02*
X138310252Y-85117000D01*
%TO.C,C1*%
X98525000Y-81541252D02*
X98525000Y-81018748D01*
X97055000Y-81541252D02*
X97055000Y-81018748D01*
%TO.C,DS1*%
X152350660Y-52727500D02*
X88850000Y-52727500D01*
X80520000Y-27087500D02*
X81310000Y-27087500D01*
X83650000Y-32727500D02*
X156650000Y-32727500D01*
X88350280Y-52226820D02*
X88350280Y-38227500D01*
X87150000Y-26727500D02*
X90150000Y-26727500D01*
X88850000Y-37727500D02*
X152350000Y-37727500D01*
X80510000Y-63367500D02*
X160790000Y-63367500D01*
X80510000Y-27087500D02*
X80510000Y-63367500D01*
X156650000Y-57727500D02*
X83650000Y-57727500D01*
X152850000Y-38227500D02*
X152850000Y-52227500D01*
X160790000Y-27087500D02*
X81310000Y-27087500D01*
X156650000Y-32727500D02*
X156650000Y-57727500D01*
X83650000Y-57727500D02*
X83650000Y-32727500D01*
X160790000Y-63367500D02*
X160790000Y-27087500D01*
X152850000Y-38227500D02*
G75*
G03*
X152350000Y-37727500I-500000J0D01*
G01*
X88850660Y-37725960D02*
G75*
G03*
X88350280Y-38226340I0J-500380D01*
G01*
X88350280Y-52226820D02*
G75*
G03*
X88850660Y-52727200I500380J0D01*
G01*
X152350660Y-52727140D02*
G75*
G03*
X152851040Y-52226820I40J500340D01*
G01*
%TO.C,SW3*%
X99175000Y-91325000D02*
X84975000Y-91325000D01*
X99175000Y-105525000D02*
X99175000Y-91325000D01*
X84975000Y-105525000D02*
X99175000Y-105525000D01*
X84975000Y-91325000D02*
X84975000Y-105525000D01*
%TO.C,SW15*%
X137275000Y-143625000D02*
X137275000Y-129425000D01*
X123075000Y-129425000D02*
X123075000Y-143625000D01*
X137275000Y-129425000D02*
X123075000Y-129425000D01*
X123075000Y-143625000D02*
X137275000Y-143625000D01*
%TO.C,SW9*%
X104025000Y-110375000D02*
X104025000Y-124575000D01*
X118225000Y-124575000D02*
X118225000Y-110375000D01*
X104025000Y-124575000D02*
X118225000Y-124575000D01*
X118225000Y-110375000D02*
X104025000Y-110375000D01*
%TO.C,SW5*%
X99175000Y-129425000D02*
X84975000Y-129425000D01*
X84975000Y-143625000D02*
X99175000Y-143625000D01*
X84975000Y-129425000D02*
X84975000Y-143625000D01*
X99175000Y-143625000D02*
X99175000Y-129425000D01*
%TO.C,SW10*%
X118225000Y-129425000D02*
X104025000Y-129425000D01*
X104025000Y-143625000D02*
X118225000Y-143625000D01*
X118225000Y-143625000D02*
X118225000Y-129425000D01*
X104025000Y-129425000D02*
X104025000Y-143625000D01*
%TO.C,SW7*%
X99175000Y-181725000D02*
X99175000Y-167525000D01*
X84975000Y-181725000D02*
X99175000Y-181725000D01*
X84975000Y-167525000D02*
X84975000Y-181725000D01*
X99175000Y-167525000D02*
X84975000Y-167525000D01*
%TO.C,SW12*%
X118225000Y-181725000D02*
X118225000Y-167525000D01*
X118225000Y-167525000D02*
X104025000Y-167525000D01*
X104025000Y-167525000D02*
X104025000Y-181725000D01*
X104025000Y-181725000D02*
X118225000Y-181725000D01*
%TO.C,SW19*%
X142125000Y-124575000D02*
X156325000Y-124575000D01*
X156325000Y-124575000D02*
X156325000Y-110375000D01*
X142125000Y-110375000D02*
X142125000Y-124575000D01*
X156325000Y-110375000D02*
X142125000Y-110375000D01*
%TO.C,SW13*%
X137275000Y-105525000D02*
X137275000Y-91325000D01*
X123075000Y-105525000D02*
X137275000Y-105525000D01*
X137275000Y-91325000D02*
X123075000Y-91325000D01*
X123075000Y-91325000D02*
X123075000Y-105525000D01*
%TO.C,SW21*%
X156325000Y-162675000D02*
X156325000Y-148475000D01*
X142125000Y-162675000D02*
X156325000Y-162675000D01*
X156325000Y-148475000D02*
X142125000Y-148475000D01*
X142125000Y-148475000D02*
X142125000Y-162675000D01*
%TO.C,SW20*%
X142125000Y-129425000D02*
X142125000Y-143625000D01*
X142125000Y-143625000D02*
X156325000Y-143625000D01*
X156325000Y-129425000D02*
X142125000Y-129425000D01*
X156325000Y-143625000D02*
X156325000Y-129425000D01*
%TO.C,SW8*%
X118225000Y-105525000D02*
X118225000Y-91325000D01*
X104025000Y-105525000D02*
X118225000Y-105525000D01*
X118225000Y-91325000D02*
X104025000Y-91325000D01*
X104025000Y-91325000D02*
X104025000Y-105525000D01*
%TO.C,SW11*%
X104025000Y-162675000D02*
X118225000Y-162675000D01*
X118225000Y-162675000D02*
X118225000Y-148475000D01*
X118225000Y-148475000D02*
X104025000Y-148475000D01*
X104025000Y-148475000D02*
X104025000Y-162675000D01*
%TO.C,SW16*%
X137275000Y-162675000D02*
X137275000Y-148475000D01*
X123075000Y-148475000D02*
X123075000Y-162675000D01*
X137275000Y-148475000D02*
X123075000Y-148475000D01*
X123075000Y-162675000D02*
X137275000Y-162675000D01*
%TO.C,SW18*%
X142125000Y-91325000D02*
X142125000Y-105525000D01*
X156325000Y-105525000D02*
X156325000Y-91325000D01*
X156325000Y-91325000D02*
X142125000Y-91325000D01*
X142125000Y-105525000D02*
X156325000Y-105525000D01*
%TO.C,SW4*%
X99175000Y-110375000D02*
X84975000Y-110375000D01*
X99175000Y-124575000D02*
X99175000Y-110375000D01*
X84975000Y-124575000D02*
X99175000Y-124575000D01*
X84975000Y-110375000D02*
X84975000Y-124575000D01*
%TO.C,SW6*%
X99175000Y-148475000D02*
X84975000Y-148475000D01*
X84975000Y-148475000D02*
X84975000Y-162675000D01*
X84975000Y-162675000D02*
X99175000Y-162675000D01*
X99175000Y-162675000D02*
X99175000Y-148475000D01*
%TO.C,SW22*%
X142125000Y-167525000D02*
X142125000Y-181725000D01*
X156325000Y-167525000D02*
X142125000Y-167525000D01*
X142125000Y-181725000D02*
X156325000Y-181725000D01*
X156325000Y-181725000D02*
X156325000Y-167525000D01*
%TO.C,SW17*%
X137275000Y-181725000D02*
X137275000Y-167525000D01*
X123075000Y-181725000D02*
X137275000Y-181725000D01*
X123075000Y-167525000D02*
X123075000Y-181725000D01*
X137275000Y-167525000D02*
X123075000Y-167525000D01*
%TO.C,SW14*%
X137275000Y-124575000D02*
X137275000Y-110375000D01*
X123075000Y-124575000D02*
X137275000Y-124575000D01*
X137275000Y-110375000D02*
X123075000Y-110375000D01*
X123075000Y-110375000D02*
X123075000Y-124575000D01*
%TD*%
M02*
