%TF.GenerationSoftware,KiCad,Pcbnew,(6.0.7)*%
%TF.CreationDate,2022-08-27T21:19:22-07:00*%
%TF.ProjectId,EB3,4542332e-6b69-4636-9164-5f7063625858,rev?*%
%TF.SameCoordinates,Original*%
%TF.FileFunction,Soldermask,Bot*%
%TF.FilePolarity,Negative*%
%FSLAX46Y46*%
G04 Gerber Fmt 4.6, Leading zero omitted, Abs format (unit mm)*
G04 Created by KiCad (PCBNEW (6.0.7)) date 2022-08-27 21:19:22*
%MOMM*%
%LPD*%
G01*
G04 APERTURE LIST*
G04 Aperture macros list*
%AMFreePoly0*
4,1,17,0.442893,0.460355,0.610355,0.292893,0.625000,0.257538,0.625000,-0.257538,0.610355,-0.292893,0.442893,-0.460355,0.407538,-0.475000,-0.407538,-0.475000,-0.442893,-0.460355,-0.610355,-0.292893,-0.625000,-0.257538,-0.625000,0.257538,-0.610355,0.292893,-0.442893,0.460355,-0.407538,0.475000,0.407538,0.475000,0.442893,0.460355,0.442893,0.460355,$1*%
%AMFreePoly1*
4,1,17,0.275320,0.760355,0.430356,0.605320,0.445000,0.569965,0.445000,-0.569965,0.430356,-0.605320,0.275320,-0.760355,0.239965,-0.775000,-0.239965,-0.775000,-0.275320,-0.760356,-0.430355,-0.605320,-0.445000,-0.569965,-0.445000,0.569965,-0.430355,0.605320,-0.275320,0.760356,-0.239965,0.775000,0.239965,0.775000,0.275320,0.760355,0.275320,0.760355,$1*%
%AMFreePoly2*
4,1,13,0.885355,0.885355,0.900000,0.850000,0.900000,-0.850000,0.885355,-0.885355,0.850000,-0.900000,-0.850000,-0.900000,-0.885355,-0.885355,-0.900000,-0.850000,-0.900000,0.850000,-0.885355,0.885355,-0.850000,0.900000,0.850000,0.900000,0.885355,0.885355,0.885355,0.885355,$1*%
%AMFreePoly3*
4,1,17,0.387437,0.885355,0.885355,0.387437,0.900000,0.352082,0.900000,-0.352082,0.885355,-0.387438,0.387437,-0.885355,0.352082,-0.900000,-0.352082,-0.900000,-0.387438,-0.885355,-0.885355,-0.387437,-0.900000,-0.352082,-0.900000,0.352082,-0.885355,0.387437,-0.387438,0.885355,-0.352082,0.900000,0.352082,0.900000,0.387437,0.885355,0.387437,0.885355,$1*%
%AMFreePoly4*
4,1,13,0.510355,0.735355,0.525000,0.700000,0.525000,-0.700000,0.510355,-0.735355,0.475000,-0.750000,-0.475000,-0.750000,-0.510355,-0.735355,-0.525000,-0.700000,-0.525000,0.700000,-0.510355,0.735355,-0.475000,0.750000,0.475000,0.750000,0.510355,0.735355,0.510355,0.735355,$1*%
%AMFreePoly5*
4,1,17,0.322183,0.735355,0.510355,0.547183,0.525000,0.511828,0.525000,-0.511828,0.510355,-0.547184,0.322183,-0.735355,0.286828,-0.750000,-0.286828,-0.750000,-0.322184,-0.735355,-0.510355,-0.547183,-0.525000,-0.511828,-0.525000,0.511828,-0.510355,0.547183,-0.322184,0.735355,-0.286828,0.750000,0.286828,0.750000,0.322183,0.735355,0.322183,0.735355,$1*%
%AMFreePoly6*
4,1,13,0.785355,0.785355,0.800000,0.750000,0.800000,-0.750000,0.785355,-0.785355,0.750000,-0.800000,-0.750000,-0.800000,-0.785355,-0.785355,-0.800000,-0.750000,-0.800000,0.750000,-0.785355,0.785355,-0.750000,0.800000,0.750000,0.800000,0.785355,0.785355,0.785355,0.785355,$1*%
%AMFreePoly7*
4,1,17,0.346016,0.785355,0.785355,0.346016,0.800000,0.310661,0.800000,-0.310661,0.785355,-0.346016,0.346016,-0.785355,0.310661,-0.800000,-0.310661,-0.800000,-0.346016,-0.785355,-0.785355,-0.346016,-0.800000,-0.310661,-0.800000,0.310661,-0.785355,0.346016,-0.346016,0.785355,-0.310661,0.800000,0.310661,0.800000,0.346016,0.785355,0.346016,0.785355,$1*%
%AMFreePoly8*
4,1,17,0.350158,0.795355,0.795356,0.350158,0.810000,0.314803,0.810000,-0.314803,0.795356,-0.350158,0.350158,-0.795355,0.314803,-0.810000,-0.314803,-0.810000,-0.350158,-0.795356,-0.795355,-0.350158,-0.810000,-0.314803,-0.810000,0.314803,-0.795355,0.350158,-0.350158,0.795356,-0.314803,0.810000,0.314803,0.810000,0.350158,0.795355,0.350158,0.795355,$1*%
%AMFreePoly9*
4,1,17,0.304594,0.685355,0.685355,0.304594,0.700000,0.269239,0.700000,-0.269239,0.685355,-0.304595,0.304594,-0.685355,0.269239,-0.700000,-0.269239,-0.700000,-0.304595,-0.685355,-0.685355,-0.304594,-0.700000,-0.269239,-0.700000,0.269239,-0.685355,0.304594,-0.304595,0.685355,-0.269239,0.700000,0.269239,0.700000,0.304594,0.685355,0.304594,0.685355,$1*%
%AMFreePoly10*
4,1,13,0.835355,0.835355,0.850000,0.800000,0.850000,-0.800000,0.835355,-0.835355,0.800000,-0.850000,-0.800000,-0.850000,-0.835355,-0.835355,-0.850000,-0.800000,-0.850000,0.800000,-0.835355,0.835355,-0.800000,0.850000,0.800000,0.850000,0.835355,0.835355,0.835355,0.835355,$1*%
%AMFreePoly11*
4,1,17,0.366726,0.835355,0.835355,0.366726,0.850000,0.331371,0.850000,-0.331371,0.835355,-0.366727,0.366726,-0.835355,0.331371,-0.850000,-0.331371,-0.850000,-0.366727,-0.835355,-0.835355,-0.366726,-0.850000,-0.331371,-0.850000,0.331371,-0.835355,0.366726,-0.366727,0.835355,-0.331371,0.850000,0.331371,0.850000,0.366726,0.835355,0.366726,0.835355,$1*%
%AMFreePoly12*
4,1,13,2.285355,0.985355,2.300000,0.950000,2.300000,-0.950000,2.285355,-0.985355,2.250000,-1.000000,-2.250000,-1.000000,-2.285355,-0.985355,-2.300000,-0.950000,-2.300000,0.950000,-2.285355,0.985355,-2.250000,1.000000,2.250000,1.000000,2.285355,0.985355,2.285355,0.985355,$1*%
%AMFreePoly13*
4,1,17,1.700431,0.985355,2.085356,0.600431,2.100000,0.565076,2.100000,-0.565076,2.085356,-0.600431,1.700431,-0.985355,1.665076,-1.000000,-1.665076,-1.000000,-1.700431,-0.985356,-2.085355,-0.600431,-2.100000,-0.565076,-2.100000,0.565076,-2.085355,0.600431,-1.700431,0.985356,-1.665076,1.000000,1.665076,1.000000,1.700431,0.985355,1.700431,0.985355,$1*%
%AMFreePoly14*
4,1,17,0.600431,2.085355,0.985356,1.700431,1.000000,1.665076,1.000000,-1.665076,0.985356,-1.700431,0.600431,-2.085355,0.565076,-2.100000,-0.565076,-2.100000,-0.600431,-2.085356,-0.985355,-1.700431,-1.000000,-1.665076,-1.000000,1.665076,-0.985355,1.700431,-0.600431,2.085356,-0.565076,2.100000,0.565076,2.100000,0.600431,2.085355,0.600431,2.085355,$1*%
%AMFreePoly15*
4,1,17,1.050179,2.485355,2.485355,1.050179,2.500000,1.014824,2.500000,-1.014824,2.485355,-1.050180,1.050179,-2.485355,1.014824,-2.500000,-1.014824,-2.500000,-1.050180,-2.485355,-2.485355,-1.050179,-2.500000,-1.014824,-2.500000,1.014824,-2.485355,1.050179,-1.050180,2.485355,-1.014824,2.500000,1.014824,2.500000,1.050179,2.485355,1.050179,2.485355,$1*%
%AMFreePoly16*
4,1,17,0.635965,1.485355,1.485355,0.635965,1.500000,0.600610,1.500000,-0.600610,1.485355,-0.635965,0.635965,-1.485355,0.600610,-1.500000,-0.600610,-1.500000,-0.635965,-1.485355,-1.485355,-0.635965,-1.500000,-0.600610,-1.500000,0.600610,-1.485355,0.635965,-0.635965,1.485355,-0.600610,1.500000,0.600610,1.500000,0.635965,1.485355,0.635965,1.485355,$1*%
%AMFreePoly17*
4,1,13,0.885355,1.285355,0.900000,1.250000,0.900000,-1.250000,0.885355,-1.285355,0.850000,-1.300000,-0.850000,-1.300000,-0.885355,-1.285355,-0.900000,-1.250000,-0.900000,1.250000,-0.885355,1.285355,-0.850000,1.300000,0.850000,1.300000,0.885355,1.285355,0.885355,1.285355,$1*%
%AMFreePoly18*
4,1,17,0.541853,1.285355,0.885355,0.941853,0.900000,0.906498,0.900000,-0.906498,0.885355,-0.941853,0.541853,-1.285355,0.506498,-1.300000,-0.506498,-1.300000,-0.541853,-1.285355,-0.885355,-0.941853,-0.900000,-0.906498,-0.900000,0.906498,-0.885355,0.941853,-0.541853,1.285355,-0.506498,1.300000,0.506498,1.300000,0.541853,1.285355,0.541853,1.285355,$1*%
%AMFreePoly19*
4,1,17,0.532412,1.235355,1.235356,0.532412,1.250000,0.497057,1.250000,-0.497057,1.235356,-0.532412,0.532412,-1.235355,0.497057,-1.250000,-0.497057,-1.250000,-0.532412,-1.235356,-1.235355,-0.532412,-1.250000,-0.497057,-1.250000,0.497057,-1.235355,0.532412,-0.532412,1.235356,-0.497057,1.250000,0.497057,1.250000,0.532412,1.235355,0.532412,1.235355,$1*%
G04 Aperture macros list end*
%ADD10FreePoly0,90.000000*%
%ADD11FreePoly1,90.000000*%
%ADD12FreePoly2,0.000000*%
%ADD13FreePoly3,90.000000*%
%ADD14FreePoly3,0.000000*%
%ADD15FreePoly4,90.000000*%
%ADD16FreePoly5,90.000000*%
%ADD17FreePoly6,90.000000*%
%ADD18FreePoly7,90.000000*%
%ADD19C,2.000000*%
%ADD20FreePoly8,180.000000*%
%ADD21FreePoly9,180.000000*%
%ADD22FreePoly9,270.000000*%
%ADD23FreePoly10,0.000000*%
%ADD24FreePoly11,0.000000*%
%ADD25FreePoly10,180.000000*%
%ADD26FreePoly11,180.000000*%
%ADD27FreePoly12,270.000000*%
%ADD28FreePoly13,270.000000*%
%ADD29FreePoly14,270.000000*%
%ADD30FreePoly15,0.000000*%
%ADD31FreePoly16,0.000000*%
%ADD32FreePoly17,0.000000*%
%ADD33FreePoly18,0.000000*%
%ADD34C,4.000000*%
%ADD35FreePoly19,0.000000*%
G04 APERTURE END LIST*
D10*
%TO.C,J2*%
X160814000Y-79415000D03*
D11*
X163514000Y-78415000D03*
D10*
X160814000Y-84415000D03*
D11*
X163514000Y-85415000D03*
%TD*%
D12*
%TO.C,SW1*%
X136261500Y-67435500D03*
D13*
X138761500Y-67435500D03*
D14*
X141261500Y-67435500D03*
X136261500Y-73435500D03*
X138761500Y-73435500D03*
X141261500Y-73435500D03*
%TD*%
D15*
%TO.C,U2*%
X132694000Y-82804000D03*
D16*
X132694000Y-81534000D03*
X132694000Y-80264000D03*
%TD*%
D17*
%TO.C,U1*%
X80020000Y-74285000D03*
D18*
X82560000Y-74285000D03*
X85100000Y-74285000D03*
X87640000Y-74285000D03*
X90180000Y-74285000D03*
X92720000Y-74285000D03*
X95260000Y-74285000D03*
X97800000Y-74285000D03*
X100340000Y-74285000D03*
X102880000Y-74285000D03*
X105420000Y-74285000D03*
X107960000Y-74285000D03*
X110500000Y-74285000D03*
X113040000Y-74285000D03*
X113040000Y-66665000D03*
X110500000Y-66665000D03*
X107960000Y-66665000D03*
X105420000Y-66665000D03*
X102880000Y-66665000D03*
X100340000Y-66665000D03*
X97800000Y-66665000D03*
X95260000Y-66665000D03*
X92720000Y-66665000D03*
X90180000Y-66665000D03*
X87640000Y-66665000D03*
X85100000Y-66665000D03*
X82560000Y-66665000D03*
X80020000Y-66665000D03*
%TD*%
D19*
%TO.C,RV1*%
X110998000Y-80010000D03*
D20*
X113498000Y-77510000D03*
X108498000Y-80010000D03*
X113498000Y-82510000D03*
%TD*%
D21*
%TO.C,JP4*%
X82149000Y-85090000D03*
X79609000Y-85090000D03*
%TD*%
D22*
%TO.C,JP2*%
X136779000Y-80264000D03*
X136779000Y-82804000D03*
%TD*%
%TO.C,JP1*%
X139319000Y-82804000D03*
X139319000Y-80264000D03*
%TD*%
D23*
%TO.C,J5*%
X121691000Y-67320000D03*
D24*
X121691000Y-69860000D03*
X121691000Y-72400000D03*
X121691000Y-74940000D03*
%TD*%
%TO.C,J4*%
X125247000Y-72405000D03*
X125247000Y-69865000D03*
D23*
X125247000Y-67325000D03*
%TD*%
D25*
%TO.C,J3*%
X118085000Y-79985000D03*
D26*
X118085000Y-77445000D03*
X118085000Y-74905000D03*
X118085000Y-72365000D03*
X118085000Y-69825000D03*
X118085000Y-67285000D03*
%TD*%
D27*
%TO.C,J1*%
X163195000Y-70470000D03*
D28*
X156895000Y-70470000D03*
D29*
X160295000Y-75270000D03*
%TD*%
D30*
%TO.C,REF\u002A\u002A*%
X79375000Y-187325000D03*
%TD*%
D31*
%TO.C,DS1*%
X83150900Y-60728200D03*
X158149480Y-60728200D03*
X158150000Y-29727500D03*
X83150900Y-29727500D03*
D32*
X88650000Y-29727500D03*
D33*
X91190000Y-29727500D03*
X93730000Y-29727500D03*
X96270000Y-29727500D03*
X98810000Y-29727500D03*
X101350000Y-29727500D03*
X103890000Y-29727500D03*
X106430000Y-29727500D03*
X108970000Y-29727500D03*
X111510000Y-29727500D03*
X114050000Y-29727500D03*
X116590000Y-29727500D03*
X119130000Y-29727500D03*
X121670000Y-29727500D03*
X124210000Y-29727500D03*
X126750000Y-29727500D03*
%TD*%
D34*
%TO.C,SW3*%
X92075000Y-98425000D03*
D35*
X88265000Y-95885000D03*
X94615000Y-93345000D03*
%TD*%
D34*
%TO.C,SW15*%
X130175000Y-136525000D03*
D35*
X126365000Y-133985000D03*
X132715000Y-131445000D03*
%TD*%
D34*
%TO.C,SW9*%
X111125000Y-117475000D03*
D35*
X107315000Y-114935000D03*
X113665000Y-112395000D03*
%TD*%
D34*
%TO.C,SW5*%
X92075000Y-136525000D03*
D35*
X88265000Y-133985000D03*
X94615000Y-131445000D03*
%TD*%
D34*
%TO.C,SW10*%
X111125000Y-136525000D03*
D35*
X107315000Y-133985000D03*
X113665000Y-131445000D03*
%TD*%
D34*
%TO.C,SW7*%
X92075000Y-174625000D03*
D35*
X88265000Y-172085000D03*
X94615000Y-169545000D03*
%TD*%
D34*
%TO.C,SW12*%
X111125000Y-174625000D03*
D35*
X107315000Y-172085000D03*
X113665000Y-169545000D03*
%TD*%
D34*
%TO.C,SW19*%
X149225000Y-117475000D03*
D35*
X145415000Y-114935000D03*
X151765000Y-112395000D03*
%TD*%
D34*
%TO.C,SW13*%
X130175000Y-98425000D03*
D35*
X126365000Y-95885000D03*
X132715000Y-93345000D03*
%TD*%
D34*
%TO.C,SW21*%
X149225000Y-155575000D03*
D35*
X145415000Y-153035000D03*
X151765000Y-150495000D03*
%TD*%
D34*
%TO.C,SW20*%
X149225000Y-136525000D03*
D35*
X145415000Y-133985000D03*
X151765000Y-131445000D03*
%TD*%
D34*
%TO.C,SW8*%
X111125000Y-98425000D03*
D35*
X107315000Y-95885000D03*
X113665000Y-93345000D03*
%TD*%
D34*
%TO.C,SW11*%
X111125000Y-155575000D03*
D35*
X107315000Y-153035000D03*
X113665000Y-150495000D03*
%TD*%
D34*
%TO.C,SW16*%
X130175000Y-155575000D03*
D35*
X126365000Y-153035000D03*
X132715000Y-150495000D03*
%TD*%
D34*
%TO.C,SW18*%
X149225000Y-98425000D03*
D35*
X145415000Y-95885000D03*
X151765000Y-93345000D03*
%TD*%
D34*
%TO.C,SW4*%
X92075000Y-117475000D03*
D35*
X88265000Y-114935000D03*
X94615000Y-112395000D03*
%TD*%
D34*
%TO.C,SW6*%
X92075000Y-155575000D03*
D35*
X88265000Y-153035000D03*
X94615000Y-150495000D03*
%TD*%
D34*
%TO.C,SW22*%
X149225000Y-174625000D03*
D35*
X145415000Y-172085000D03*
X151765000Y-169545000D03*
%TD*%
D34*
%TO.C,SW17*%
X130175000Y-174625000D03*
D35*
X126365000Y-172085000D03*
X132715000Y-169545000D03*
%TD*%
D34*
%TO.C,SW14*%
X130175000Y-117475000D03*
D35*
X126365000Y-114935000D03*
X132715000Y-112395000D03*
%TD*%
D30*
%TO.C,REF\u002A\u002A*%
X161925000Y-187325000D03*
%TD*%
M02*
