%TF.GenerationSoftware,KiCad,Pcbnew,(6.0.7)*%
%TF.CreationDate,2022-09-05T20:23:25-07:00*%
%TF.ProjectId,EB4,4542342e-6b69-4636-9164-5f7063625858,rev?*%
%TF.SameCoordinates,Original*%
%TF.FileFunction,Legend,Bot*%
%TF.FilePolarity,Positive*%
%FSLAX46Y46*%
G04 Gerber Fmt 4.6, Leading zero omitted, Abs format (unit mm)*
G04 Created by KiCad (PCBNEW (6.0.7)) date 2022-09-05 20:23:25*
%MOMM*%
%LPD*%
G01*
G04 APERTURE LIST*
%ADD10C,0.150000*%
%ADD11C,0.125000*%
%ADD12R,1.700000X1.700000*%
%ADD13O,1.700000X1.700000*%
%ADD14C,0.700000*%
%ADD15C,4.400000*%
%ADD16C,3.000000*%
%ADD17C,2.500000*%
%ADD18C,1.400000*%
G04 APERTURE END LIST*
D10*
X101155500Y-77343000D02*
X101155500Y-77597000D01*
X101155500Y-75311000D02*
X101155500Y-75565000D01*
X101155500Y-78359000D02*
X101155500Y-78613000D01*
X101155500Y-76327000D02*
X101155500Y-76581000D01*
X84836000Y-71120000D02*
X99060000Y-71120000D01*
X99060000Y-71120000D02*
X99060000Y-74676000D01*
X99060000Y-74676000D02*
X84836000Y-74676000D01*
X84836000Y-74676000D02*
X84836000Y-71120000D01*
G36*
X84836000Y-71120000D02*
G01*
X99060000Y-71120000D01*
X99060000Y-74676000D01*
X84836000Y-74676000D01*
X84836000Y-71120000D01*
G37*
X97741785Y-84272380D02*
X97741785Y-83272380D01*
X97360833Y-83272380D01*
X97265595Y-83320000D01*
X97217976Y-83367619D01*
X97170357Y-83462857D01*
X97170357Y-83605714D01*
X97217976Y-83700952D01*
X97265595Y-83748571D01*
X97360833Y-83796190D01*
X97741785Y-83796190D01*
X96741785Y-84272380D02*
X96741785Y-83605714D01*
X96741785Y-83796190D02*
X96694166Y-83700952D01*
X96646547Y-83653333D01*
X96551309Y-83605714D01*
X96456071Y-83605714D01*
X95979880Y-84272380D02*
X96075119Y-84224761D01*
X96122738Y-84177142D01*
X96170357Y-84081904D01*
X96170357Y-83796190D01*
X96122738Y-83700952D01*
X96075119Y-83653333D01*
X95979880Y-83605714D01*
X95837023Y-83605714D01*
X95741785Y-83653333D01*
X95694166Y-83700952D01*
X95646547Y-83796190D01*
X95646547Y-84081904D01*
X95694166Y-84177142D01*
X95741785Y-84224761D01*
X95837023Y-84272380D01*
X95979880Y-84272380D01*
X94789404Y-83605714D02*
X94789404Y-84415238D01*
X94837023Y-84510476D01*
X94884642Y-84558095D01*
X94979880Y-84605714D01*
X95122738Y-84605714D01*
X95217976Y-84558095D01*
X94789404Y-84224761D02*
X94884642Y-84272380D01*
X95075119Y-84272380D01*
X95170357Y-84224761D01*
X95217976Y-84177142D01*
X95265595Y-84081904D01*
X95265595Y-83796190D01*
X95217976Y-83700952D01*
X95170357Y-83653333D01*
X95075119Y-83605714D01*
X94884642Y-83605714D01*
X94789404Y-83653333D01*
X94313214Y-84272380D02*
X94313214Y-83605714D01*
X94313214Y-83796190D02*
X94265595Y-83700952D01*
X94217976Y-83653333D01*
X94122738Y-83605714D01*
X94027500Y-83605714D01*
X93265595Y-84272380D02*
X93265595Y-83748571D01*
X93313214Y-83653333D01*
X93408452Y-83605714D01*
X93598928Y-83605714D01*
X93694166Y-83653333D01*
X93265595Y-84224761D02*
X93360833Y-84272380D01*
X93598928Y-84272380D01*
X93694166Y-84224761D01*
X93741785Y-84129523D01*
X93741785Y-84034285D01*
X93694166Y-83939047D01*
X93598928Y-83891428D01*
X93360833Y-83891428D01*
X93265595Y-83843809D01*
X92789404Y-84272380D02*
X92789404Y-83605714D01*
X92789404Y-83700952D02*
X92741785Y-83653333D01*
X92646547Y-83605714D01*
X92503690Y-83605714D01*
X92408452Y-83653333D01*
X92360833Y-83748571D01*
X92360833Y-84272380D01*
X92360833Y-83748571D02*
X92313214Y-83653333D01*
X92217976Y-83605714D01*
X92075119Y-83605714D01*
X91979880Y-83653333D01*
X91932261Y-83748571D01*
X91932261Y-84272380D01*
X91456071Y-84272380D02*
X91456071Y-83605714D01*
X91456071Y-83700952D02*
X91408452Y-83653333D01*
X91313214Y-83605714D01*
X91170357Y-83605714D01*
X91075119Y-83653333D01*
X91027500Y-83748571D01*
X91027500Y-84272380D01*
X91027500Y-83748571D02*
X90979880Y-83653333D01*
X90884642Y-83605714D01*
X90741785Y-83605714D01*
X90646547Y-83653333D01*
X90598928Y-83748571D01*
X90598928Y-84272380D01*
X90122738Y-84272380D02*
X90122738Y-83605714D01*
X90122738Y-83272380D02*
X90170357Y-83320000D01*
X90122738Y-83367619D01*
X90075119Y-83320000D01*
X90122738Y-83272380D01*
X90122738Y-83367619D01*
X89646547Y-83605714D02*
X89646547Y-84272380D01*
X89646547Y-83700952D02*
X89598928Y-83653333D01*
X89503690Y-83605714D01*
X89360833Y-83605714D01*
X89265595Y-83653333D01*
X89217976Y-83748571D01*
X89217976Y-84272380D01*
X88313214Y-83605714D02*
X88313214Y-84415238D01*
X88360833Y-84510476D01*
X88408452Y-84558095D01*
X88503690Y-84605714D01*
X88646547Y-84605714D01*
X88741785Y-84558095D01*
X88313214Y-84224761D02*
X88408452Y-84272380D01*
X88598928Y-84272380D01*
X88694166Y-84224761D01*
X88741785Y-84177142D01*
X88789404Y-84081904D01*
X88789404Y-83796190D01*
X88741785Y-83700952D01*
X88694166Y-83653333D01*
X88598928Y-83605714D01*
X88408452Y-83605714D01*
X88313214Y-83653333D01*
D11*
X98307500Y-64939904D02*
X97964642Y-64939904D01*
X98136071Y-65739904D02*
X98136071Y-64939904D01*
X97764642Y-65739904D02*
X97764642Y-64939904D01*
X97507500Y-65739904D02*
X97507500Y-65320857D01*
X97536071Y-65244666D01*
X97593214Y-65206571D01*
X97678928Y-65206571D01*
X97736071Y-65244666D01*
X97764642Y-65282761D01*
X97221785Y-65739904D02*
X97221785Y-65206571D01*
X97221785Y-64939904D02*
X97250357Y-64978000D01*
X97221785Y-65016095D01*
X97193214Y-64978000D01*
X97221785Y-64939904D01*
X97221785Y-65016095D01*
X96964642Y-65701809D02*
X96907500Y-65739904D01*
X96793214Y-65739904D01*
X96736071Y-65701809D01*
X96707500Y-65625619D01*
X96707500Y-65587523D01*
X96736071Y-65511333D01*
X96793214Y-65473238D01*
X96878928Y-65473238D01*
X96936071Y-65435142D01*
X96964642Y-65358952D01*
X96964642Y-65320857D01*
X96936071Y-65244666D01*
X96878928Y-65206571D01*
X96793214Y-65206571D01*
X96736071Y-65244666D01*
X95736071Y-65739904D02*
X95736071Y-64939904D01*
X95736071Y-65701809D02*
X95793214Y-65739904D01*
X95907500Y-65739904D01*
X95964642Y-65701809D01*
X95993214Y-65663714D01*
X96021785Y-65587523D01*
X96021785Y-65358952D01*
X95993214Y-65282761D01*
X95964642Y-65244666D01*
X95907500Y-65206571D01*
X95793214Y-65206571D01*
X95736071Y-65244666D01*
X95221785Y-65701809D02*
X95278928Y-65739904D01*
X95393214Y-65739904D01*
X95450357Y-65701809D01*
X95478928Y-65625619D01*
X95478928Y-65320857D01*
X95450357Y-65244666D01*
X95393214Y-65206571D01*
X95278928Y-65206571D01*
X95221785Y-65244666D01*
X95193214Y-65320857D01*
X95193214Y-65397047D01*
X95478928Y-65473238D01*
X94993214Y-65206571D02*
X94850357Y-65739904D01*
X94707500Y-65206571D01*
X94478928Y-65739904D02*
X94478928Y-65206571D01*
X94478928Y-64939904D02*
X94507500Y-64978000D01*
X94478928Y-65016095D01*
X94450357Y-64978000D01*
X94478928Y-64939904D01*
X94478928Y-65016095D01*
X93936071Y-65701809D02*
X93993214Y-65739904D01*
X94107500Y-65739904D01*
X94164642Y-65701809D01*
X94193214Y-65663714D01*
X94221785Y-65587523D01*
X94221785Y-65358952D01*
X94193214Y-65282761D01*
X94164642Y-65244666D01*
X94107500Y-65206571D01*
X93993214Y-65206571D01*
X93936071Y-65244666D01*
X93450357Y-65701809D02*
X93507500Y-65739904D01*
X93621785Y-65739904D01*
X93678928Y-65701809D01*
X93707500Y-65625619D01*
X93707500Y-65320857D01*
X93678928Y-65244666D01*
X93621785Y-65206571D01*
X93507500Y-65206571D01*
X93450357Y-65244666D01*
X93421785Y-65320857D01*
X93421785Y-65397047D01*
X93707500Y-65473238D01*
X92707500Y-65739904D02*
X92707500Y-64939904D01*
X92450357Y-65739904D02*
X92450357Y-65320857D01*
X92478928Y-65244666D01*
X92536071Y-65206571D01*
X92621785Y-65206571D01*
X92678928Y-65244666D01*
X92707500Y-65282761D01*
X91907500Y-65739904D02*
X91907500Y-65320857D01*
X91936071Y-65244666D01*
X91993214Y-65206571D01*
X92107500Y-65206571D01*
X92164642Y-65244666D01*
X91907500Y-65701809D02*
X91964642Y-65739904D01*
X92107500Y-65739904D01*
X92164642Y-65701809D01*
X92193214Y-65625619D01*
X92193214Y-65549428D01*
X92164642Y-65473238D01*
X92107500Y-65435142D01*
X91964642Y-65435142D01*
X91907500Y-65397047D01*
X91650357Y-65701809D02*
X91593214Y-65739904D01*
X91478928Y-65739904D01*
X91421785Y-65701809D01*
X91393214Y-65625619D01*
X91393214Y-65587523D01*
X91421785Y-65511333D01*
X91478928Y-65473238D01*
X91564642Y-65473238D01*
X91621785Y-65435142D01*
X91650357Y-65358952D01*
X91650357Y-65320857D01*
X91621785Y-65244666D01*
X91564642Y-65206571D01*
X91478928Y-65206571D01*
X91421785Y-65244666D01*
X90678928Y-65206571D02*
X90678928Y-65739904D01*
X90678928Y-65282761D02*
X90650357Y-65244666D01*
X90593214Y-65206571D01*
X90507500Y-65206571D01*
X90450357Y-65244666D01*
X90421785Y-65320857D01*
X90421785Y-65739904D01*
X90050357Y-65739904D02*
X90107500Y-65701809D01*
X90136071Y-65663714D01*
X90164642Y-65587523D01*
X90164642Y-65358952D01*
X90136071Y-65282761D01*
X90107500Y-65244666D01*
X90050357Y-65206571D01*
X89964642Y-65206571D01*
X89907500Y-65244666D01*
X89878928Y-65282761D01*
X89850357Y-65358952D01*
X89850357Y-65587523D01*
X89878928Y-65663714D01*
X89907500Y-65701809D01*
X89964642Y-65739904D01*
X90050357Y-65739904D01*
X89678928Y-65206571D02*
X89450357Y-65206571D01*
X89593214Y-64939904D02*
X89593214Y-65625619D01*
X89564642Y-65701809D01*
X89507500Y-65739904D01*
X89450357Y-65739904D01*
X88793214Y-65739904D02*
X88793214Y-64939904D01*
X88793214Y-65244666D02*
X88736071Y-65206571D01*
X88621785Y-65206571D01*
X88564642Y-65244666D01*
X88536071Y-65282761D01*
X88507500Y-65358952D01*
X88507500Y-65587523D01*
X88536071Y-65663714D01*
X88564642Y-65701809D01*
X88621785Y-65739904D01*
X88736071Y-65739904D01*
X88793214Y-65701809D01*
X88021785Y-65701809D02*
X88078928Y-65739904D01*
X88193214Y-65739904D01*
X88250357Y-65701809D01*
X88278928Y-65625619D01*
X88278928Y-65320857D01*
X88250357Y-65244666D01*
X88193214Y-65206571D01*
X88078928Y-65206571D01*
X88021785Y-65244666D01*
X87993214Y-65320857D01*
X87993214Y-65397047D01*
X88278928Y-65473238D01*
X87507500Y-65701809D02*
X87564642Y-65739904D01*
X87678928Y-65739904D01*
X87736071Y-65701809D01*
X87764642Y-65625619D01*
X87764642Y-65320857D01*
X87736071Y-65244666D01*
X87678928Y-65206571D01*
X87564642Y-65206571D01*
X87507500Y-65244666D01*
X87478928Y-65320857D01*
X87478928Y-65397047D01*
X87764642Y-65473238D01*
X87221785Y-65206571D02*
X87221785Y-65739904D01*
X87221785Y-65282761D02*
X87193214Y-65244666D01*
X87136071Y-65206571D01*
X87050357Y-65206571D01*
X86993214Y-65244666D01*
X86964642Y-65320857D01*
X86964642Y-65739904D01*
X85964642Y-65739904D02*
X85964642Y-65320857D01*
X85993214Y-65244666D01*
X86050357Y-65206571D01*
X86164642Y-65206571D01*
X86221785Y-65244666D01*
X85964642Y-65701809D02*
X86021785Y-65739904D01*
X86164642Y-65739904D01*
X86221785Y-65701809D01*
X86250357Y-65625619D01*
X86250357Y-65549428D01*
X86221785Y-65473238D01*
X86164642Y-65435142D01*
X86021785Y-65435142D01*
X85964642Y-65397047D01*
X85421785Y-65206571D02*
X85421785Y-65739904D01*
X85678928Y-65206571D02*
X85678928Y-65625619D01*
X85650357Y-65701809D01*
X85593214Y-65739904D01*
X85507500Y-65739904D01*
X85450357Y-65701809D01*
X85421785Y-65663714D01*
X85221785Y-65206571D02*
X84993214Y-65206571D01*
X85136071Y-64939904D02*
X85136071Y-65625619D01*
X85107500Y-65701809D01*
X85050357Y-65739904D01*
X84993214Y-65739904D01*
X84793214Y-65739904D02*
X84793214Y-64939904D01*
X84536071Y-65739904D02*
X84536071Y-65320857D01*
X84564642Y-65244666D01*
X84621785Y-65206571D01*
X84707500Y-65206571D01*
X84764642Y-65244666D01*
X84793214Y-65282761D01*
X84164642Y-65739904D02*
X84221785Y-65701809D01*
X84250357Y-65663714D01*
X84278928Y-65587523D01*
X84278928Y-65358952D01*
X84250357Y-65282761D01*
X84221785Y-65244666D01*
X84164642Y-65206571D01*
X84078928Y-65206571D01*
X84021785Y-65244666D01*
X83993214Y-65282761D01*
X83964642Y-65358952D01*
X83964642Y-65587523D01*
X83993214Y-65663714D01*
X84021785Y-65701809D01*
X84078928Y-65739904D01*
X84164642Y-65739904D01*
X83707500Y-65739904D02*
X83707500Y-65206571D01*
X83707500Y-65358952D02*
X83678928Y-65282761D01*
X83650357Y-65244666D01*
X83593214Y-65206571D01*
X83536071Y-65206571D01*
X83336071Y-65739904D02*
X83336071Y-65206571D01*
X83336071Y-64939904D02*
X83364642Y-64978000D01*
X83336071Y-65016095D01*
X83307500Y-64978000D01*
X83336071Y-64939904D01*
X83336071Y-65016095D01*
X83107500Y-65206571D02*
X82793214Y-65206571D01*
X83107500Y-65739904D01*
X82793214Y-65739904D01*
X82336071Y-65701809D02*
X82393214Y-65739904D01*
X82507500Y-65739904D01*
X82564642Y-65701809D01*
X82593214Y-65625619D01*
X82593214Y-65320857D01*
X82564642Y-65244666D01*
X82507500Y-65206571D01*
X82393214Y-65206571D01*
X82336071Y-65244666D01*
X82307500Y-65320857D01*
X82307500Y-65397047D01*
X82593214Y-65473238D01*
X81793214Y-65739904D02*
X81793214Y-64939904D01*
X81793214Y-65701809D02*
X81850357Y-65739904D01*
X81964642Y-65739904D01*
X82021785Y-65701809D01*
X82050357Y-65663714D01*
X82078928Y-65587523D01*
X82078928Y-65358952D01*
X82050357Y-65282761D01*
X82021785Y-65244666D01*
X81964642Y-65206571D01*
X81850357Y-65206571D01*
X81793214Y-65244666D01*
X81050357Y-65739904D02*
X81050357Y-64939904D01*
X81050357Y-65244666D02*
X80993214Y-65206571D01*
X80878928Y-65206571D01*
X80821785Y-65244666D01*
X80793214Y-65282761D01*
X80764642Y-65358952D01*
X80764642Y-65587523D01*
X80793214Y-65663714D01*
X80821785Y-65701809D01*
X80878928Y-65739904D01*
X80993214Y-65739904D01*
X81050357Y-65701809D01*
X80564642Y-65206571D02*
X80421785Y-65739904D01*
X80278928Y-65206571D02*
X80421785Y-65739904D01*
X80478928Y-65930380D01*
X80507500Y-65968476D01*
X80564642Y-66006571D01*
X79678928Y-65206571D02*
X79450357Y-65206571D01*
X79593214Y-64939904D02*
X79593214Y-65625619D01*
X79564642Y-65701809D01*
X79507500Y-65739904D01*
X79450357Y-65739904D01*
X79250357Y-65739904D02*
X79250357Y-64939904D01*
X78993214Y-65739904D02*
X78993214Y-65320857D01*
X79021785Y-65244666D01*
X79078928Y-65206571D01*
X79164642Y-65206571D01*
X79221785Y-65244666D01*
X79250357Y-65282761D01*
X78478928Y-65701809D02*
X78536071Y-65739904D01*
X78650357Y-65739904D01*
X78707500Y-65701809D01*
X78736071Y-65625619D01*
X78736071Y-65320857D01*
X78707500Y-65244666D01*
X78650357Y-65206571D01*
X78536071Y-65206571D01*
X78478928Y-65244666D01*
X78450357Y-65320857D01*
X78450357Y-65397047D01*
X78736071Y-65473238D01*
X77736071Y-65739904D02*
X77736071Y-65206571D01*
X77736071Y-65358952D02*
X77707500Y-65282761D01*
X77678928Y-65244666D01*
X77621785Y-65206571D01*
X77564642Y-65206571D01*
X77107500Y-65206571D02*
X77107500Y-65739904D01*
X77364642Y-65206571D02*
X77364642Y-65625619D01*
X77336071Y-65701809D01*
X77278928Y-65739904D01*
X77193214Y-65739904D01*
X77136071Y-65701809D01*
X77107500Y-65663714D01*
X76736071Y-65739904D02*
X76793214Y-65701809D01*
X76821785Y-65625619D01*
X76821785Y-64939904D01*
X76278928Y-65701809D02*
X76336071Y-65739904D01*
X76450357Y-65739904D01*
X76507500Y-65701809D01*
X76536071Y-65625619D01*
X76536071Y-65320857D01*
X76507500Y-65244666D01*
X76450357Y-65206571D01*
X76336071Y-65206571D01*
X76278928Y-65244666D01*
X76250357Y-65320857D01*
X76250357Y-65397047D01*
X76536071Y-65473238D01*
X76021785Y-65701809D02*
X75964642Y-65739904D01*
X75850357Y-65739904D01*
X75793214Y-65701809D01*
X75764642Y-65625619D01*
X75764642Y-65587523D01*
X75793214Y-65511333D01*
X75850357Y-65473238D01*
X75936071Y-65473238D01*
X75993214Y-65435142D01*
X76021785Y-65358952D01*
X76021785Y-65320857D01*
X75993214Y-65244666D01*
X75936071Y-65206571D01*
X75850357Y-65206571D01*
X75793214Y-65244666D01*
X74964642Y-65739904D02*
X75021785Y-65701809D01*
X75050357Y-65663714D01*
X75078928Y-65587523D01*
X75078928Y-65358952D01*
X75050357Y-65282761D01*
X75021785Y-65244666D01*
X74964642Y-65206571D01*
X74878928Y-65206571D01*
X74821785Y-65244666D01*
X74793214Y-65282761D01*
X74764642Y-65358952D01*
X74764642Y-65587523D01*
X74793214Y-65663714D01*
X74821785Y-65701809D01*
X74878928Y-65739904D01*
X74964642Y-65739904D01*
X74593214Y-65206571D02*
X74364642Y-65206571D01*
X74507500Y-65739904D02*
X74507500Y-65054190D01*
X74478928Y-64978000D01*
X74421785Y-64939904D01*
X74364642Y-64939904D01*
X73793214Y-65206571D02*
X73564642Y-65206571D01*
X73707500Y-64939904D02*
X73707500Y-65625619D01*
X73678928Y-65701809D01*
X73621785Y-65739904D01*
X73564642Y-65739904D01*
X73364642Y-65739904D02*
X73364642Y-64939904D01*
X73107500Y-65739904D02*
X73107500Y-65320857D01*
X73136071Y-65244666D01*
X73193214Y-65206571D01*
X73278928Y-65206571D01*
X73336071Y-65244666D01*
X73364642Y-65282761D01*
X72593214Y-65701809D02*
X72650357Y-65739904D01*
X72764642Y-65739904D01*
X72821785Y-65701809D01*
X72850357Y-65625619D01*
X72850357Y-65320857D01*
X72821785Y-65244666D01*
X72764642Y-65206571D01*
X72650357Y-65206571D01*
X72593214Y-65244666D01*
X72564642Y-65320857D01*
X72564642Y-65397047D01*
X72850357Y-65473238D01*
X98150357Y-66608857D02*
X98350357Y-66608857D01*
X98350357Y-67027904D02*
X98350357Y-66227904D01*
X98064642Y-66227904D01*
X97607499Y-66989809D02*
X97664642Y-67027904D01*
X97778928Y-67027904D01*
X97836071Y-66989809D01*
X97864642Y-66913619D01*
X97864642Y-66608857D01*
X97836071Y-66532666D01*
X97778928Y-66494571D01*
X97664642Y-66494571D01*
X97607499Y-66532666D01*
X97578928Y-66608857D01*
X97578928Y-66685047D01*
X97864642Y-66761238D01*
X97064642Y-67027904D02*
X97064642Y-66227904D01*
X97064642Y-66989809D02*
X97121785Y-67027904D01*
X97236071Y-67027904D01*
X97293214Y-66989809D01*
X97321785Y-66951714D01*
X97350357Y-66875523D01*
X97350357Y-66646952D01*
X97321785Y-66570761D01*
X97293214Y-66532666D01*
X97236071Y-66494571D01*
X97121785Y-66494571D01*
X97064642Y-66532666D01*
X96550357Y-66989809D02*
X96607500Y-67027904D01*
X96721785Y-67027904D01*
X96778928Y-66989809D01*
X96807500Y-66913619D01*
X96807500Y-66608857D01*
X96778928Y-66532666D01*
X96721785Y-66494571D01*
X96607500Y-66494571D01*
X96550357Y-66532666D01*
X96521785Y-66608857D01*
X96521785Y-66685047D01*
X96807500Y-66761238D01*
X96264642Y-67027904D02*
X96264642Y-66494571D01*
X96264642Y-66646952D02*
X96236071Y-66570761D01*
X96207500Y-66532666D01*
X96150357Y-66494571D01*
X96093214Y-66494571D01*
X95636071Y-67027904D02*
X95636071Y-66608857D01*
X95664642Y-66532666D01*
X95721785Y-66494571D01*
X95836071Y-66494571D01*
X95893214Y-66532666D01*
X95636071Y-66989809D02*
X95693214Y-67027904D01*
X95836071Y-67027904D01*
X95893214Y-66989809D01*
X95921785Y-66913619D01*
X95921785Y-66837428D01*
X95893214Y-66761238D01*
X95836071Y-66723142D01*
X95693214Y-66723142D01*
X95636071Y-66685047D01*
X95264642Y-67027904D02*
X95321785Y-66989809D01*
X95350357Y-66913619D01*
X95350357Y-66227904D01*
X94236071Y-66951714D02*
X94264642Y-66989809D01*
X94350357Y-67027904D01*
X94407500Y-67027904D01*
X94493214Y-66989809D01*
X94550357Y-66913619D01*
X94578928Y-66837428D01*
X94607500Y-66685047D01*
X94607500Y-66570761D01*
X94578928Y-66418380D01*
X94550357Y-66342190D01*
X94493214Y-66266000D01*
X94407500Y-66227904D01*
X94350357Y-66227904D01*
X94264642Y-66266000D01*
X94236071Y-66304095D01*
X93893214Y-67027904D02*
X93950357Y-66989809D01*
X93978928Y-66951714D01*
X94007500Y-66875523D01*
X94007500Y-66646952D01*
X93978928Y-66570761D01*
X93950357Y-66532666D01*
X93893214Y-66494571D01*
X93807500Y-66494571D01*
X93750357Y-66532666D01*
X93721785Y-66570761D01*
X93693214Y-66646952D01*
X93693214Y-66875523D01*
X93721785Y-66951714D01*
X93750357Y-66989809D01*
X93807500Y-67027904D01*
X93893214Y-67027904D01*
X93436071Y-67027904D02*
X93436071Y-66494571D01*
X93436071Y-66570761D02*
X93407500Y-66532666D01*
X93350357Y-66494571D01*
X93264642Y-66494571D01*
X93207500Y-66532666D01*
X93178928Y-66608857D01*
X93178928Y-67027904D01*
X93178928Y-66608857D02*
X93150357Y-66532666D01*
X93093214Y-66494571D01*
X93007500Y-66494571D01*
X92950357Y-66532666D01*
X92921785Y-66608857D01*
X92921785Y-67027904D01*
X92636071Y-67027904D02*
X92636071Y-66494571D01*
X92636071Y-66570761D02*
X92607500Y-66532666D01*
X92550357Y-66494571D01*
X92464642Y-66494571D01*
X92407500Y-66532666D01*
X92378928Y-66608857D01*
X92378928Y-67027904D01*
X92378928Y-66608857D02*
X92350357Y-66532666D01*
X92293214Y-66494571D01*
X92207500Y-66494571D01*
X92150357Y-66532666D01*
X92121785Y-66608857D01*
X92121785Y-67027904D01*
X91578928Y-66494571D02*
X91578928Y-67027904D01*
X91836071Y-66494571D02*
X91836071Y-66913619D01*
X91807500Y-66989809D01*
X91750357Y-67027904D01*
X91664642Y-67027904D01*
X91607500Y-66989809D01*
X91578928Y-66951714D01*
X91293214Y-66494571D02*
X91293214Y-67027904D01*
X91293214Y-66570761D02*
X91264642Y-66532666D01*
X91207500Y-66494571D01*
X91121785Y-66494571D01*
X91064642Y-66532666D01*
X91036071Y-66608857D01*
X91036071Y-67027904D01*
X90750357Y-67027904D02*
X90750357Y-66494571D01*
X90750357Y-66227904D02*
X90778928Y-66266000D01*
X90750357Y-66304095D01*
X90721785Y-66266000D01*
X90750357Y-66227904D01*
X90750357Y-66304095D01*
X90207500Y-66989809D02*
X90264642Y-67027904D01*
X90378928Y-67027904D01*
X90436071Y-66989809D01*
X90464642Y-66951714D01*
X90493214Y-66875523D01*
X90493214Y-66646952D01*
X90464642Y-66570761D01*
X90436071Y-66532666D01*
X90378928Y-66494571D01*
X90264642Y-66494571D01*
X90207500Y-66532666D01*
X89693214Y-67027904D02*
X89693214Y-66608857D01*
X89721785Y-66532666D01*
X89778928Y-66494571D01*
X89893214Y-66494571D01*
X89950357Y-66532666D01*
X89693214Y-66989809D02*
X89750357Y-67027904D01*
X89893214Y-67027904D01*
X89950357Y-66989809D01*
X89978928Y-66913619D01*
X89978928Y-66837428D01*
X89950357Y-66761238D01*
X89893214Y-66723142D01*
X89750357Y-66723142D01*
X89693214Y-66685047D01*
X89493214Y-66494571D02*
X89264642Y-66494571D01*
X89407500Y-66227904D02*
X89407500Y-66913619D01*
X89378928Y-66989809D01*
X89321785Y-67027904D01*
X89264642Y-67027904D01*
X89064642Y-67027904D02*
X89064642Y-66494571D01*
X89064642Y-66227904D02*
X89093214Y-66266000D01*
X89064642Y-66304095D01*
X89036071Y-66266000D01*
X89064642Y-66227904D01*
X89064642Y-66304095D01*
X88693214Y-67027904D02*
X88750357Y-66989809D01*
X88778928Y-66951714D01*
X88807500Y-66875523D01*
X88807500Y-66646952D01*
X88778928Y-66570761D01*
X88750357Y-66532666D01*
X88693214Y-66494571D01*
X88607500Y-66494571D01*
X88550357Y-66532666D01*
X88521785Y-66570761D01*
X88493214Y-66646952D01*
X88493214Y-66875523D01*
X88521785Y-66951714D01*
X88550357Y-66989809D01*
X88607500Y-67027904D01*
X88693214Y-67027904D01*
X88236071Y-66494571D02*
X88236071Y-67027904D01*
X88236071Y-66570761D02*
X88207500Y-66532666D01*
X88150357Y-66494571D01*
X88064642Y-66494571D01*
X88007500Y-66532666D01*
X87978928Y-66608857D01*
X87978928Y-67027904D01*
X87721785Y-66989809D02*
X87664642Y-67027904D01*
X87550357Y-67027904D01*
X87493214Y-66989809D01*
X87464642Y-66913619D01*
X87464642Y-66875523D01*
X87493214Y-66799333D01*
X87550357Y-66761238D01*
X87636071Y-66761238D01*
X87693214Y-66723142D01*
X87721785Y-66646952D01*
X87721785Y-66608857D01*
X87693214Y-66532666D01*
X87636071Y-66494571D01*
X87550357Y-66494571D01*
X87493214Y-66532666D01*
X86407500Y-66951714D02*
X86436071Y-66989809D01*
X86521785Y-67027904D01*
X86578928Y-67027904D01*
X86664642Y-66989809D01*
X86721785Y-66913619D01*
X86750357Y-66837428D01*
X86778928Y-66685047D01*
X86778928Y-66570761D01*
X86750357Y-66418380D01*
X86721785Y-66342190D01*
X86664642Y-66266000D01*
X86578928Y-66227904D01*
X86521785Y-66227904D01*
X86436071Y-66266000D01*
X86407500Y-66304095D01*
X86064642Y-67027904D02*
X86121785Y-66989809D01*
X86150357Y-66951714D01*
X86178928Y-66875523D01*
X86178928Y-66646952D01*
X86150357Y-66570761D01*
X86121785Y-66532666D01*
X86064642Y-66494571D01*
X85978928Y-66494571D01*
X85921785Y-66532666D01*
X85893214Y-66570761D01*
X85864642Y-66646952D01*
X85864642Y-66875523D01*
X85893214Y-66951714D01*
X85921785Y-66989809D01*
X85978928Y-67027904D01*
X86064642Y-67027904D01*
X85607500Y-67027904D02*
X85607500Y-66494571D01*
X85607500Y-66570761D02*
X85578928Y-66532666D01*
X85521785Y-66494571D01*
X85436071Y-66494571D01*
X85378928Y-66532666D01*
X85350357Y-66608857D01*
X85350357Y-67027904D01*
X85350357Y-66608857D02*
X85321785Y-66532666D01*
X85264642Y-66494571D01*
X85178928Y-66494571D01*
X85121785Y-66532666D01*
X85093214Y-66608857D01*
X85093214Y-67027904D01*
X84807500Y-67027904D02*
X84807500Y-66494571D01*
X84807500Y-66570761D02*
X84778928Y-66532666D01*
X84721785Y-66494571D01*
X84636071Y-66494571D01*
X84578928Y-66532666D01*
X84550357Y-66608857D01*
X84550357Y-67027904D01*
X84550357Y-66608857D02*
X84521785Y-66532666D01*
X84464642Y-66494571D01*
X84378928Y-66494571D01*
X84321785Y-66532666D01*
X84293214Y-66608857D01*
X84293214Y-67027904D01*
X84007500Y-67027904D02*
X84007500Y-66494571D01*
X84007500Y-66227904D02*
X84036071Y-66266000D01*
X84007500Y-66304095D01*
X83978928Y-66266000D01*
X84007500Y-66227904D01*
X84007500Y-66304095D01*
X83750357Y-66989809D02*
X83693214Y-67027904D01*
X83578928Y-67027904D01*
X83521785Y-66989809D01*
X83493214Y-66913619D01*
X83493214Y-66875523D01*
X83521785Y-66799333D01*
X83578928Y-66761238D01*
X83664642Y-66761238D01*
X83721785Y-66723142D01*
X83750357Y-66646952D01*
X83750357Y-66608857D01*
X83721785Y-66532666D01*
X83664642Y-66494571D01*
X83578928Y-66494571D01*
X83521785Y-66532666D01*
X83264642Y-66989809D02*
X83207500Y-67027904D01*
X83093214Y-67027904D01*
X83036071Y-66989809D01*
X83007500Y-66913619D01*
X83007500Y-66875523D01*
X83036071Y-66799333D01*
X83093214Y-66761238D01*
X83178928Y-66761238D01*
X83236071Y-66723142D01*
X83264642Y-66646952D01*
X83264642Y-66608857D01*
X83236071Y-66532666D01*
X83178928Y-66494571D01*
X83093214Y-66494571D01*
X83036071Y-66532666D01*
X82750357Y-67027904D02*
X82750357Y-66494571D01*
X82750357Y-66227904D02*
X82778928Y-66266000D01*
X82750357Y-66304095D01*
X82721785Y-66266000D01*
X82750357Y-66227904D01*
X82750357Y-66304095D01*
X82378928Y-67027904D02*
X82436071Y-66989809D01*
X82464642Y-66951714D01*
X82493214Y-66875523D01*
X82493214Y-66646952D01*
X82464642Y-66570761D01*
X82436071Y-66532666D01*
X82378928Y-66494571D01*
X82293214Y-66494571D01*
X82236071Y-66532666D01*
X82207500Y-66570761D01*
X82178928Y-66646952D01*
X82178928Y-66875523D01*
X82207500Y-66951714D01*
X82236071Y-66989809D01*
X82293214Y-67027904D01*
X82378928Y-67027904D01*
X81921785Y-66494571D02*
X81921785Y-67027904D01*
X81921785Y-66570761D02*
X81893214Y-66532666D01*
X81836071Y-66494571D01*
X81750357Y-66494571D01*
X81693214Y-66532666D01*
X81664642Y-66608857D01*
X81664642Y-67027904D01*
X81378928Y-66951714D02*
X81350357Y-66989809D01*
X81378928Y-67027904D01*
X81407500Y-66989809D01*
X81378928Y-66951714D01*
X81378928Y-67027904D01*
X80721785Y-66227904D02*
X80378928Y-66227904D01*
X80550357Y-67027904D02*
X80550357Y-66227904D01*
X80178928Y-67027904D02*
X80178928Y-66227904D01*
X79921785Y-67027904D02*
X79921785Y-66608857D01*
X79950357Y-66532666D01*
X80007500Y-66494571D01*
X80093214Y-66494571D01*
X80150357Y-66532666D01*
X80178928Y-66570761D01*
X79636071Y-67027904D02*
X79636071Y-66494571D01*
X79636071Y-66227904D02*
X79664642Y-66266000D01*
X79636071Y-66304095D01*
X79607500Y-66266000D01*
X79636071Y-66227904D01*
X79636071Y-66304095D01*
X79378928Y-66989809D02*
X79321785Y-67027904D01*
X79207500Y-67027904D01*
X79150357Y-66989809D01*
X79121785Y-66913619D01*
X79121785Y-66875523D01*
X79150357Y-66799333D01*
X79207500Y-66761238D01*
X79293214Y-66761238D01*
X79350357Y-66723142D01*
X79378928Y-66646952D01*
X79378928Y-66608857D01*
X79350357Y-66532666D01*
X79293214Y-66494571D01*
X79207500Y-66494571D01*
X79150357Y-66532666D01*
X78150357Y-67027904D02*
X78150357Y-66227904D01*
X78150357Y-66989809D02*
X78207500Y-67027904D01*
X78321785Y-67027904D01*
X78378928Y-66989809D01*
X78407500Y-66951714D01*
X78436071Y-66875523D01*
X78436071Y-66646952D01*
X78407500Y-66570761D01*
X78378928Y-66532666D01*
X78321785Y-66494571D01*
X78207500Y-66494571D01*
X78150357Y-66532666D01*
X77636071Y-66989809D02*
X77693214Y-67027904D01*
X77807500Y-67027904D01*
X77864642Y-66989809D01*
X77893214Y-66913619D01*
X77893214Y-66608857D01*
X77864642Y-66532666D01*
X77807500Y-66494571D01*
X77693214Y-66494571D01*
X77636071Y-66532666D01*
X77607500Y-66608857D01*
X77607500Y-66685047D01*
X77893214Y-66761238D01*
X77407500Y-66494571D02*
X77264642Y-67027904D01*
X77121785Y-66494571D01*
X76893214Y-67027904D02*
X76893214Y-66494571D01*
X76893214Y-66227904D02*
X76921785Y-66266000D01*
X76893214Y-66304095D01*
X76864642Y-66266000D01*
X76893214Y-66227904D01*
X76893214Y-66304095D01*
X76350357Y-66989809D02*
X76407500Y-67027904D01*
X76521785Y-67027904D01*
X76578928Y-66989809D01*
X76607500Y-66951714D01*
X76636071Y-66875523D01*
X76636071Y-66646952D01*
X76607500Y-66570761D01*
X76578928Y-66532666D01*
X76521785Y-66494571D01*
X76407500Y-66494571D01*
X76350357Y-66532666D01*
X75864642Y-66989809D02*
X75921785Y-67027904D01*
X76036071Y-67027904D01*
X76093214Y-66989809D01*
X76121785Y-66913619D01*
X76121785Y-66608857D01*
X76093214Y-66532666D01*
X76036071Y-66494571D01*
X75921785Y-66494571D01*
X75864642Y-66532666D01*
X75836071Y-66608857D01*
X75836071Y-66685047D01*
X76121785Y-66761238D01*
X75121785Y-67027904D02*
X75121785Y-66494571D01*
X75121785Y-66227904D02*
X75150357Y-66266000D01*
X75121785Y-66304095D01*
X75093214Y-66266000D01*
X75121785Y-66227904D01*
X75121785Y-66304095D01*
X74864642Y-66989809D02*
X74807500Y-67027904D01*
X74693214Y-67027904D01*
X74636071Y-66989809D01*
X74607500Y-66913619D01*
X74607500Y-66875523D01*
X74636071Y-66799333D01*
X74693214Y-66761238D01*
X74778928Y-66761238D01*
X74836071Y-66723142D01*
X74864642Y-66646952D01*
X74864642Y-66608857D01*
X74836071Y-66532666D01*
X74778928Y-66494571D01*
X74693214Y-66494571D01*
X74636071Y-66532666D01*
X73893214Y-66494571D02*
X73893214Y-67027904D01*
X73893214Y-66570761D02*
X73864642Y-66532666D01*
X73807500Y-66494571D01*
X73721785Y-66494571D01*
X73664642Y-66532666D01*
X73636071Y-66608857D01*
X73636071Y-67027904D01*
X73264642Y-67027904D02*
X73321785Y-66989809D01*
X73350357Y-66951714D01*
X73378928Y-66875523D01*
X73378928Y-66646952D01*
X73350357Y-66570761D01*
X73321785Y-66532666D01*
X73264642Y-66494571D01*
X73178928Y-66494571D01*
X73121785Y-66532666D01*
X73093214Y-66570761D01*
X73064642Y-66646952D01*
X73064642Y-66875523D01*
X73093214Y-66951714D01*
X73121785Y-66989809D01*
X73178928Y-67027904D01*
X73264642Y-67027904D01*
X72893214Y-66494571D02*
X72664642Y-66494571D01*
X72807500Y-66227904D02*
X72807500Y-66913619D01*
X72778928Y-66989809D01*
X72721785Y-67027904D01*
X72664642Y-67027904D01*
X72436071Y-66989809D02*
X72436071Y-67027904D01*
X72464642Y-67104095D01*
X72493214Y-67142190D01*
X97407500Y-68315904D02*
X97407500Y-67896857D01*
X97436071Y-67820666D01*
X97493214Y-67782571D01*
X97607500Y-67782571D01*
X97664642Y-67820666D01*
X97407500Y-68277809D02*
X97464642Y-68315904D01*
X97607500Y-68315904D01*
X97664642Y-68277809D01*
X97693214Y-68201619D01*
X97693214Y-68125428D01*
X97664642Y-68049238D01*
X97607500Y-68011142D01*
X97464642Y-68011142D01*
X97407500Y-67973047D01*
X97121785Y-67782571D02*
X97121785Y-68315904D01*
X97121785Y-67858761D02*
X97093214Y-67820666D01*
X97036071Y-67782571D01*
X96950357Y-67782571D01*
X96893214Y-67820666D01*
X96864642Y-67896857D01*
X96864642Y-68315904D01*
X96321785Y-68315904D02*
X96321785Y-67515904D01*
X96321785Y-68277809D02*
X96378928Y-68315904D01*
X96493214Y-68315904D01*
X96550357Y-68277809D01*
X96578928Y-68239714D01*
X96607500Y-68163523D01*
X96607500Y-67934952D01*
X96578928Y-67858761D01*
X96550357Y-67820666D01*
X96493214Y-67782571D01*
X96378928Y-67782571D01*
X96321785Y-67820666D01*
X95578928Y-68315904D02*
X95578928Y-67782571D01*
X95578928Y-67858761D02*
X95550357Y-67820666D01*
X95493214Y-67782571D01*
X95407500Y-67782571D01*
X95350357Y-67820666D01*
X95321785Y-67896857D01*
X95321785Y-68315904D01*
X95321785Y-67896857D02*
X95293214Y-67820666D01*
X95236071Y-67782571D01*
X95150357Y-67782571D01*
X95093214Y-67820666D01*
X95064642Y-67896857D01*
X95064642Y-68315904D01*
X94521785Y-68315904D02*
X94521785Y-67896857D01*
X94550357Y-67820666D01*
X94607500Y-67782571D01*
X94721785Y-67782571D01*
X94778928Y-67820666D01*
X94521785Y-68277809D02*
X94578928Y-68315904D01*
X94721785Y-68315904D01*
X94778928Y-68277809D01*
X94807500Y-68201619D01*
X94807500Y-68125428D01*
X94778928Y-68049238D01*
X94721785Y-68011142D01*
X94578928Y-68011142D01*
X94521785Y-67973047D01*
X94293214Y-67782571D02*
X94150357Y-68315904D01*
X94007500Y-67782571D02*
X94150357Y-68315904D01*
X94207500Y-68506380D01*
X94236071Y-68544476D01*
X94293214Y-68582571D01*
X93321785Y-67782571D02*
X93321785Y-68315904D01*
X93321785Y-67858761D02*
X93293214Y-67820666D01*
X93236071Y-67782571D01*
X93150357Y-67782571D01*
X93093214Y-67820666D01*
X93064642Y-67896857D01*
X93064642Y-68315904D01*
X92693214Y-68315904D02*
X92750357Y-68277809D01*
X92778928Y-68239714D01*
X92807500Y-68163523D01*
X92807500Y-67934952D01*
X92778928Y-67858761D01*
X92750357Y-67820666D01*
X92693214Y-67782571D01*
X92607500Y-67782571D01*
X92550357Y-67820666D01*
X92521785Y-67858761D01*
X92493214Y-67934952D01*
X92493214Y-68163523D01*
X92521785Y-68239714D01*
X92550357Y-68277809D01*
X92607500Y-68315904D01*
X92693214Y-68315904D01*
X92321785Y-67782571D02*
X92093214Y-67782571D01*
X92236071Y-67515904D02*
X92236071Y-68201619D01*
X92207500Y-68277809D01*
X92150357Y-68315904D01*
X92093214Y-68315904D01*
X91436071Y-68315904D02*
X91436071Y-67515904D01*
X91436071Y-67820666D02*
X91378928Y-67782571D01*
X91264642Y-67782571D01*
X91207500Y-67820666D01*
X91178928Y-67858761D01*
X91150357Y-67934952D01*
X91150357Y-68163523D01*
X91178928Y-68239714D01*
X91207500Y-68277809D01*
X91264642Y-68315904D01*
X91378928Y-68315904D01*
X91436071Y-68277809D01*
X90664642Y-68277809D02*
X90721785Y-68315904D01*
X90836071Y-68315904D01*
X90893214Y-68277809D01*
X90921785Y-68201619D01*
X90921785Y-67896857D01*
X90893214Y-67820666D01*
X90836071Y-67782571D01*
X90721785Y-67782571D01*
X90664642Y-67820666D01*
X90636071Y-67896857D01*
X90636071Y-67973047D01*
X90921785Y-68049238D01*
X90350357Y-68277809D02*
X90350357Y-68315904D01*
X90378928Y-68392095D01*
X90407500Y-68430190D01*
X89550357Y-68315904D02*
X89607500Y-68277809D01*
X89636071Y-68239714D01*
X89664642Y-68163523D01*
X89664642Y-67934952D01*
X89636071Y-67858761D01*
X89607500Y-67820666D01*
X89550357Y-67782571D01*
X89464642Y-67782571D01*
X89407500Y-67820666D01*
X89378928Y-67858761D01*
X89350357Y-67934952D01*
X89350357Y-68163523D01*
X89378928Y-68239714D01*
X89407500Y-68277809D01*
X89464642Y-68315904D01*
X89550357Y-68315904D01*
X89178928Y-67782571D02*
X88950357Y-67782571D01*
X89093214Y-68315904D02*
X89093214Y-67630190D01*
X89064642Y-67554000D01*
X89007500Y-67515904D01*
X88950357Y-67515904D01*
X88836071Y-67782571D02*
X88607500Y-67782571D01*
X88750357Y-68315904D02*
X88750357Y-67630190D01*
X88721785Y-67554000D01*
X88664642Y-67515904D01*
X88607500Y-67515904D01*
X88178928Y-68277809D02*
X88236071Y-68315904D01*
X88350357Y-68315904D01*
X88407500Y-68277809D01*
X88436071Y-68201619D01*
X88436071Y-67896857D01*
X88407500Y-67820666D01*
X88350357Y-67782571D01*
X88236071Y-67782571D01*
X88178928Y-67820666D01*
X88150357Y-67896857D01*
X88150357Y-67973047D01*
X88436071Y-68049238D01*
X87893214Y-68315904D02*
X87893214Y-67782571D01*
X87893214Y-67934952D02*
X87864642Y-67858761D01*
X87836071Y-67820666D01*
X87778928Y-67782571D01*
X87721785Y-67782571D01*
X87293214Y-68277809D02*
X87350357Y-68315904D01*
X87464642Y-68315904D01*
X87521785Y-68277809D01*
X87550357Y-68201619D01*
X87550357Y-67896857D01*
X87521785Y-67820666D01*
X87464642Y-67782571D01*
X87350357Y-67782571D01*
X87293214Y-67820666D01*
X87264642Y-67896857D01*
X87264642Y-67973047D01*
X87550357Y-68049238D01*
X86750357Y-68315904D02*
X86750357Y-67515904D01*
X86750357Y-68277809D02*
X86807500Y-68315904D01*
X86921785Y-68315904D01*
X86978928Y-68277809D01*
X87007500Y-68239714D01*
X87036071Y-68163523D01*
X87036071Y-67934952D01*
X87007500Y-67858761D01*
X86978928Y-67820666D01*
X86921785Y-67782571D01*
X86807500Y-67782571D01*
X86750357Y-67820666D01*
X86093214Y-67782571D02*
X85864642Y-67782571D01*
X86007500Y-68315904D02*
X86007500Y-67630190D01*
X85978928Y-67554000D01*
X85921785Y-67515904D01*
X85864642Y-67515904D01*
X85578928Y-68315904D02*
X85636071Y-68277809D01*
X85664642Y-68239714D01*
X85693214Y-68163523D01*
X85693214Y-67934952D01*
X85664642Y-67858761D01*
X85636071Y-67820666D01*
X85578928Y-67782571D01*
X85493214Y-67782571D01*
X85436071Y-67820666D01*
X85407500Y-67858761D01*
X85378928Y-67934952D01*
X85378928Y-68163523D01*
X85407500Y-68239714D01*
X85436071Y-68277809D01*
X85493214Y-68315904D01*
X85578928Y-68315904D01*
X85121785Y-68315904D02*
X85121785Y-67782571D01*
X85121785Y-67934952D02*
X85093214Y-67858761D01*
X85064642Y-67820666D01*
X85007500Y-67782571D01*
X84950357Y-67782571D01*
X84321785Y-68277809D02*
X84264642Y-68315904D01*
X84150357Y-68315904D01*
X84093214Y-68277809D01*
X84064642Y-68201619D01*
X84064642Y-68163523D01*
X84093214Y-68087333D01*
X84150357Y-68049238D01*
X84236071Y-68049238D01*
X84293214Y-68011142D01*
X84321785Y-67934952D01*
X84321785Y-67896857D01*
X84293214Y-67820666D01*
X84236071Y-67782571D01*
X84150357Y-67782571D01*
X84093214Y-67820666D01*
X83550357Y-68315904D02*
X83550357Y-67896857D01*
X83578928Y-67820666D01*
X83636071Y-67782571D01*
X83750357Y-67782571D01*
X83807500Y-67820666D01*
X83550357Y-68277809D02*
X83607500Y-68315904D01*
X83750357Y-68315904D01*
X83807500Y-68277809D01*
X83836071Y-68201619D01*
X83836071Y-68125428D01*
X83807500Y-68049238D01*
X83750357Y-68011142D01*
X83607500Y-68011142D01*
X83550357Y-67973047D01*
X83178928Y-68315904D02*
X83236071Y-68277809D01*
X83264642Y-68201619D01*
X83264642Y-67515904D01*
X82721785Y-68277809D02*
X82778928Y-68315904D01*
X82893214Y-68315904D01*
X82950357Y-68277809D01*
X82978928Y-68201619D01*
X82978928Y-67896857D01*
X82950357Y-67820666D01*
X82893214Y-67782571D01*
X82778928Y-67782571D01*
X82721785Y-67820666D01*
X82693214Y-67896857D01*
X82693214Y-67973047D01*
X82978928Y-68049238D01*
X81893214Y-68315904D02*
X81950357Y-68277809D01*
X81978928Y-68239714D01*
X82007500Y-68163523D01*
X82007500Y-67934952D01*
X81978928Y-67858761D01*
X81950357Y-67820666D01*
X81893214Y-67782571D01*
X81807500Y-67782571D01*
X81750357Y-67820666D01*
X81721785Y-67858761D01*
X81693214Y-67934952D01*
X81693214Y-68163523D01*
X81721785Y-68239714D01*
X81750357Y-68277809D01*
X81807500Y-68315904D01*
X81893214Y-68315904D01*
X81436071Y-68315904D02*
X81436071Y-67782571D01*
X81436071Y-67934952D02*
X81407500Y-67858761D01*
X81378928Y-67820666D01*
X81321785Y-67782571D01*
X81264642Y-67782571D01*
X80521785Y-68315904D02*
X80578928Y-68277809D01*
X80607500Y-68201619D01*
X80607500Y-67515904D01*
X80064642Y-68277809D02*
X80121785Y-68315904D01*
X80236071Y-68315904D01*
X80293214Y-68277809D01*
X80321785Y-68201619D01*
X80321785Y-67896857D01*
X80293214Y-67820666D01*
X80236071Y-67782571D01*
X80121785Y-67782571D01*
X80064642Y-67820666D01*
X80036071Y-67896857D01*
X80036071Y-67973047D01*
X80321785Y-68049238D01*
X79521785Y-68315904D02*
X79521785Y-67896857D01*
X79550357Y-67820666D01*
X79607500Y-67782571D01*
X79721785Y-67782571D01*
X79778928Y-67820666D01*
X79521785Y-68277809D02*
X79578928Y-68315904D01*
X79721785Y-68315904D01*
X79778928Y-68277809D01*
X79807500Y-68201619D01*
X79807500Y-68125428D01*
X79778928Y-68049238D01*
X79721785Y-68011142D01*
X79578928Y-68011142D01*
X79521785Y-67973047D01*
X79264642Y-68277809D02*
X79207500Y-68315904D01*
X79093214Y-68315904D01*
X79036071Y-68277809D01*
X79007500Y-68201619D01*
X79007500Y-68163523D01*
X79036071Y-68087333D01*
X79093214Y-68049238D01*
X79178928Y-68049238D01*
X79236071Y-68011142D01*
X79264642Y-67934952D01*
X79264642Y-67896857D01*
X79236071Y-67820666D01*
X79178928Y-67782571D01*
X79093214Y-67782571D01*
X79036071Y-67820666D01*
X78521785Y-68277809D02*
X78578928Y-68315904D01*
X78693214Y-68315904D01*
X78750357Y-68277809D01*
X78778928Y-68201619D01*
X78778928Y-67896857D01*
X78750357Y-67820666D01*
X78693214Y-67782571D01*
X78578928Y-67782571D01*
X78521785Y-67820666D01*
X78493214Y-67896857D01*
X78493214Y-67973047D01*
X78778928Y-68049238D01*
X78207500Y-68277809D02*
X78207500Y-68315904D01*
X78236071Y-68392095D01*
X78264642Y-68430190D01*
X77407500Y-68315904D02*
X77464642Y-68277809D01*
X77493214Y-68239714D01*
X77521785Y-68163523D01*
X77521785Y-67934952D01*
X77493214Y-67858761D01*
X77464642Y-67820666D01*
X77407500Y-67782571D01*
X77321785Y-67782571D01*
X77264642Y-67820666D01*
X77236071Y-67858761D01*
X77207500Y-67934952D01*
X77207500Y-68163523D01*
X77236071Y-68239714D01*
X77264642Y-68277809D01*
X77321785Y-68315904D01*
X77407500Y-68315904D01*
X76950357Y-68315904D02*
X76950357Y-67782571D01*
X76950357Y-67934952D02*
X76921785Y-67858761D01*
X76893214Y-67820666D01*
X76836071Y-67782571D01*
X76778928Y-67782571D01*
X76150357Y-68277809D02*
X76093214Y-68315904D01*
X75978928Y-68315904D01*
X75921785Y-68277809D01*
X75893214Y-68201619D01*
X75893214Y-68163523D01*
X75921785Y-68087333D01*
X75978928Y-68049238D01*
X76064642Y-68049238D01*
X76121785Y-68011142D01*
X76150357Y-67934952D01*
X76150357Y-67896857D01*
X76121785Y-67820666D01*
X76064642Y-67782571D01*
X75978928Y-67782571D01*
X75921785Y-67820666D01*
X75550357Y-68315904D02*
X75607500Y-68277809D01*
X75636071Y-68239714D01*
X75664642Y-68163523D01*
X75664642Y-67934952D01*
X75636071Y-67858761D01*
X75607500Y-67820666D01*
X75550357Y-67782571D01*
X75464642Y-67782571D01*
X75407500Y-67820666D01*
X75378928Y-67858761D01*
X75350357Y-67934952D01*
X75350357Y-68163523D01*
X75378928Y-68239714D01*
X75407500Y-68277809D01*
X75464642Y-68315904D01*
X75550357Y-68315904D01*
X75007500Y-68315904D02*
X75064642Y-68277809D01*
X75093214Y-68201619D01*
X75093214Y-67515904D01*
X74521785Y-68315904D02*
X74521785Y-67515904D01*
X74521785Y-68277809D02*
X74578928Y-68315904D01*
X74693214Y-68315904D01*
X74750357Y-68277809D01*
X74778928Y-68239714D01*
X74807500Y-68163523D01*
X74807500Y-67934952D01*
X74778928Y-67858761D01*
X74750357Y-67820666D01*
X74693214Y-67782571D01*
X74578928Y-67782571D01*
X74521785Y-67820666D01*
X73693214Y-68315904D02*
X73750357Y-68277809D01*
X73778928Y-68239714D01*
X73807500Y-68163523D01*
X73807500Y-67934952D01*
X73778928Y-67858761D01*
X73750357Y-67820666D01*
X73693214Y-67782571D01*
X73607500Y-67782571D01*
X73550357Y-67820666D01*
X73521785Y-67858761D01*
X73493214Y-67934952D01*
X73493214Y-68163523D01*
X73521785Y-68239714D01*
X73550357Y-68277809D01*
X73607500Y-68315904D01*
X73693214Y-68315904D01*
X73236071Y-68315904D02*
X73236071Y-67782571D01*
X73236071Y-67934952D02*
X73207500Y-67858761D01*
X73178928Y-67820666D01*
X73121785Y-67782571D01*
X73064642Y-67782571D01*
X94121785Y-69603904D02*
X94178928Y-69565809D01*
X94207500Y-69489619D01*
X94207500Y-68803904D01*
X93664642Y-69565809D02*
X93721785Y-69603904D01*
X93836071Y-69603904D01*
X93893214Y-69565809D01*
X93921785Y-69489619D01*
X93921785Y-69184857D01*
X93893214Y-69108666D01*
X93836071Y-69070571D01*
X93721785Y-69070571D01*
X93664642Y-69108666D01*
X93636071Y-69184857D01*
X93636071Y-69261047D01*
X93921785Y-69337238D01*
X93121785Y-69603904D02*
X93121785Y-69184857D01*
X93150357Y-69108666D01*
X93207500Y-69070571D01*
X93321785Y-69070571D01*
X93378928Y-69108666D01*
X93121785Y-69565809D02*
X93178928Y-69603904D01*
X93321785Y-69603904D01*
X93378928Y-69565809D01*
X93407500Y-69489619D01*
X93407500Y-69413428D01*
X93378928Y-69337238D01*
X93321785Y-69299142D01*
X93178928Y-69299142D01*
X93121785Y-69261047D01*
X92864642Y-69565809D02*
X92807500Y-69603904D01*
X92693214Y-69603904D01*
X92636071Y-69565809D01*
X92607500Y-69489619D01*
X92607500Y-69451523D01*
X92636071Y-69375333D01*
X92693214Y-69337238D01*
X92778928Y-69337238D01*
X92836071Y-69299142D01*
X92864642Y-69222952D01*
X92864642Y-69184857D01*
X92836071Y-69108666D01*
X92778928Y-69070571D01*
X92693214Y-69070571D01*
X92636071Y-69108666D01*
X92121785Y-69565809D02*
X92178928Y-69603904D01*
X92293214Y-69603904D01*
X92350357Y-69565809D01*
X92378928Y-69489619D01*
X92378928Y-69184857D01*
X92350357Y-69108666D01*
X92293214Y-69070571D01*
X92178928Y-69070571D01*
X92121785Y-69108666D01*
X92093214Y-69184857D01*
X92093214Y-69261047D01*
X92378928Y-69337238D01*
X91578928Y-69603904D02*
X91578928Y-68803904D01*
X91578928Y-69565809D02*
X91636071Y-69603904D01*
X91750357Y-69603904D01*
X91807500Y-69565809D01*
X91836071Y-69527714D01*
X91864642Y-69451523D01*
X91864642Y-69222952D01*
X91836071Y-69146761D01*
X91807500Y-69108666D01*
X91750357Y-69070571D01*
X91636071Y-69070571D01*
X91578928Y-69108666D01*
X91264642Y-69565809D02*
X91264642Y-69603904D01*
X91293214Y-69680095D01*
X91321785Y-69718190D01*
X90293214Y-69070571D02*
X90293214Y-69603904D01*
X90550357Y-69070571D02*
X90550357Y-69489619D01*
X90521785Y-69565809D01*
X90464642Y-69603904D01*
X90378928Y-69603904D01*
X90321785Y-69565809D01*
X90293214Y-69527714D01*
X90007500Y-69070571D02*
X90007500Y-69603904D01*
X90007500Y-69146761D02*
X89978928Y-69108666D01*
X89921785Y-69070571D01*
X89836071Y-69070571D01*
X89778928Y-69108666D01*
X89750357Y-69184857D01*
X89750357Y-69603904D01*
X89550357Y-69070571D02*
X89321785Y-69070571D01*
X89464642Y-68803904D02*
X89464642Y-69489619D01*
X89436071Y-69565809D01*
X89378928Y-69603904D01*
X89321785Y-69603904D01*
X89121785Y-69603904D02*
X89121785Y-69070571D01*
X89121785Y-68803904D02*
X89150357Y-68842000D01*
X89121785Y-68880095D01*
X89093214Y-68842000D01*
X89121785Y-68803904D01*
X89121785Y-68880095D01*
X88750357Y-69603904D02*
X88807500Y-69565809D01*
X88836071Y-69489619D01*
X88836071Y-68803904D01*
X87807500Y-69603904D02*
X87807500Y-69184857D01*
X87836071Y-69108666D01*
X87893214Y-69070571D01*
X88007500Y-69070571D01*
X88064642Y-69108666D01*
X87807500Y-69565809D02*
X87864642Y-69603904D01*
X88007500Y-69603904D01*
X88064642Y-69565809D01*
X88093214Y-69489619D01*
X88093214Y-69413428D01*
X88064642Y-69337238D01*
X88007500Y-69299142D01*
X87864642Y-69299142D01*
X87807500Y-69261047D01*
X87264642Y-69070571D02*
X87264642Y-69603904D01*
X87521785Y-69070571D02*
X87521785Y-69489619D01*
X87493214Y-69565809D01*
X87436071Y-69603904D01*
X87350357Y-69603904D01*
X87293214Y-69565809D01*
X87264642Y-69527714D01*
X87064642Y-69070571D02*
X86836071Y-69070571D01*
X86978928Y-68803904D02*
X86978928Y-69489619D01*
X86950357Y-69565809D01*
X86893214Y-69603904D01*
X86836071Y-69603904D01*
X86636071Y-69603904D02*
X86636071Y-68803904D01*
X86378928Y-69603904D02*
X86378928Y-69184857D01*
X86407500Y-69108666D01*
X86464642Y-69070571D01*
X86550357Y-69070571D01*
X86607500Y-69108666D01*
X86636071Y-69146761D01*
X86007500Y-69603904D02*
X86064642Y-69565809D01*
X86093214Y-69527714D01*
X86121785Y-69451523D01*
X86121785Y-69222952D01*
X86093214Y-69146761D01*
X86064642Y-69108666D01*
X86007500Y-69070571D01*
X85921785Y-69070571D01*
X85864642Y-69108666D01*
X85836071Y-69146761D01*
X85807500Y-69222952D01*
X85807500Y-69451523D01*
X85836071Y-69527714D01*
X85864642Y-69565809D01*
X85921785Y-69603904D01*
X86007500Y-69603904D01*
X85550357Y-69603904D02*
X85550357Y-69070571D01*
X85550357Y-69222952D02*
X85521785Y-69146761D01*
X85493214Y-69108666D01*
X85436071Y-69070571D01*
X85378928Y-69070571D01*
X85178928Y-69603904D02*
X85178928Y-69070571D01*
X85178928Y-68803904D02*
X85207500Y-68842000D01*
X85178928Y-68880095D01*
X85150357Y-68842000D01*
X85178928Y-68803904D01*
X85178928Y-68880095D01*
X84950357Y-69070571D02*
X84636071Y-69070571D01*
X84950357Y-69603904D01*
X84636071Y-69603904D01*
X84150357Y-69603904D02*
X84150357Y-69184857D01*
X84178928Y-69108666D01*
X84236071Y-69070571D01*
X84350357Y-69070571D01*
X84407500Y-69108666D01*
X84150357Y-69565809D02*
X84207500Y-69603904D01*
X84350357Y-69603904D01*
X84407500Y-69565809D01*
X84436071Y-69489619D01*
X84436071Y-69413428D01*
X84407500Y-69337238D01*
X84350357Y-69299142D01*
X84207500Y-69299142D01*
X84150357Y-69261047D01*
X83950357Y-69070571D02*
X83721785Y-69070571D01*
X83864642Y-68803904D02*
X83864642Y-69489619D01*
X83836071Y-69565809D01*
X83778928Y-69603904D01*
X83721785Y-69603904D01*
X83521785Y-69603904D02*
X83521785Y-69070571D01*
X83521785Y-68803904D02*
X83550357Y-68842000D01*
X83521785Y-68880095D01*
X83493214Y-68842000D01*
X83521785Y-68803904D01*
X83521785Y-68880095D01*
X83150357Y-69603904D02*
X83207500Y-69565809D01*
X83236071Y-69527714D01*
X83264642Y-69451523D01*
X83264642Y-69222952D01*
X83236071Y-69146761D01*
X83207500Y-69108666D01*
X83150357Y-69070571D01*
X83064642Y-69070571D01*
X83007500Y-69108666D01*
X82978928Y-69146761D01*
X82950357Y-69222952D01*
X82950357Y-69451523D01*
X82978928Y-69527714D01*
X83007500Y-69565809D01*
X83064642Y-69603904D01*
X83150357Y-69603904D01*
X82693214Y-69070571D02*
X82693214Y-69603904D01*
X82693214Y-69146761D02*
X82664642Y-69108666D01*
X82607500Y-69070571D01*
X82521785Y-69070571D01*
X82464642Y-69108666D01*
X82436071Y-69184857D01*
X82436071Y-69603904D01*
X81693214Y-69603904D02*
X81693214Y-69070571D01*
X81693214Y-68803904D02*
X81721785Y-68842000D01*
X81693214Y-68880095D01*
X81664642Y-68842000D01*
X81693214Y-68803904D01*
X81693214Y-68880095D01*
X81436071Y-69565809D02*
X81378928Y-69603904D01*
X81264642Y-69603904D01*
X81207500Y-69565809D01*
X81178928Y-69489619D01*
X81178928Y-69451523D01*
X81207500Y-69375333D01*
X81264642Y-69337238D01*
X81350357Y-69337238D01*
X81407500Y-69299142D01*
X81436071Y-69222952D01*
X81436071Y-69184857D01*
X81407500Y-69108666D01*
X81350357Y-69070571D01*
X81264642Y-69070571D01*
X81207500Y-69108666D01*
X80378928Y-69603904D02*
X80436071Y-69565809D01*
X80464642Y-69527714D01*
X80493214Y-69451523D01*
X80493214Y-69222952D01*
X80464642Y-69146761D01*
X80436071Y-69108666D01*
X80378928Y-69070571D01*
X80293214Y-69070571D01*
X80236071Y-69108666D01*
X80207500Y-69146761D01*
X80178928Y-69222952D01*
X80178928Y-69451523D01*
X80207500Y-69527714D01*
X80236071Y-69565809D01*
X80293214Y-69603904D01*
X80378928Y-69603904D01*
X79921785Y-69603904D02*
X79921785Y-68803904D01*
X79921785Y-69108666D02*
X79864642Y-69070571D01*
X79750357Y-69070571D01*
X79693214Y-69108666D01*
X79664642Y-69146761D01*
X79636071Y-69222952D01*
X79636071Y-69451523D01*
X79664642Y-69527714D01*
X79693214Y-69565809D01*
X79750357Y-69603904D01*
X79864642Y-69603904D01*
X79921785Y-69565809D01*
X79464642Y-69070571D02*
X79236071Y-69070571D01*
X79378928Y-68803904D02*
X79378928Y-69489619D01*
X79350357Y-69565809D01*
X79293214Y-69603904D01*
X79236071Y-69603904D01*
X78778928Y-69603904D02*
X78778928Y-69184857D01*
X78807500Y-69108666D01*
X78864642Y-69070571D01*
X78978928Y-69070571D01*
X79036071Y-69108666D01*
X78778928Y-69565809D02*
X78836071Y-69603904D01*
X78978928Y-69603904D01*
X79036071Y-69565809D01*
X79064642Y-69489619D01*
X79064642Y-69413428D01*
X79036071Y-69337238D01*
X78978928Y-69299142D01*
X78836071Y-69299142D01*
X78778928Y-69261047D01*
X78493214Y-69603904D02*
X78493214Y-69070571D01*
X78493214Y-68803904D02*
X78521785Y-68842000D01*
X78493214Y-68880095D01*
X78464642Y-68842000D01*
X78493214Y-68803904D01*
X78493214Y-68880095D01*
X78207500Y-69070571D02*
X78207500Y-69603904D01*
X78207500Y-69146761D02*
X78178928Y-69108666D01*
X78121785Y-69070571D01*
X78036071Y-69070571D01*
X77978928Y-69108666D01*
X77950357Y-69184857D01*
X77950357Y-69603904D01*
X77436071Y-69565809D02*
X77493214Y-69603904D01*
X77607500Y-69603904D01*
X77664642Y-69565809D01*
X77693214Y-69489619D01*
X77693214Y-69184857D01*
X77664642Y-69108666D01*
X77607500Y-69070571D01*
X77493214Y-69070571D01*
X77436071Y-69108666D01*
X77407500Y-69184857D01*
X77407500Y-69261047D01*
X77693214Y-69337238D01*
X76893214Y-69603904D02*
X76893214Y-68803904D01*
X76893214Y-69565809D02*
X76950357Y-69603904D01*
X77064642Y-69603904D01*
X77121785Y-69565809D01*
X77150357Y-69527714D01*
X77178928Y-69451523D01*
X77178928Y-69222952D01*
X77150357Y-69146761D01*
X77121785Y-69108666D01*
X77064642Y-69070571D01*
X76950357Y-69070571D01*
X76893214Y-69108666D01*
X76607500Y-69527714D02*
X76578928Y-69565809D01*
X76607500Y-69603904D01*
X76636071Y-69565809D01*
X76607500Y-69527714D01*
X76607500Y-69603904D01*
D10*
X80978214Y-84272380D02*
X81311547Y-83796190D01*
X81549642Y-84272380D02*
X81549642Y-83272380D01*
X81168690Y-83272380D01*
X81073452Y-83320000D01*
X81025833Y-83367619D01*
X80978214Y-83462857D01*
X80978214Y-83605714D01*
X81025833Y-83700952D01*
X81073452Y-83748571D01*
X81168690Y-83796190D01*
X81549642Y-83796190D01*
X80121071Y-84272380D02*
X80121071Y-83748571D01*
X80168690Y-83653333D01*
X80263928Y-83605714D01*
X80454404Y-83605714D01*
X80549642Y-83653333D01*
X80121071Y-84224761D02*
X80216309Y-84272380D01*
X80454404Y-84272380D01*
X80549642Y-84224761D01*
X80597261Y-84129523D01*
X80597261Y-84034285D01*
X80549642Y-83939047D01*
X80454404Y-83891428D01*
X80216309Y-83891428D01*
X80121071Y-83843809D01*
X79216309Y-84272380D02*
X79216309Y-83272380D01*
X79216309Y-84224761D02*
X79311547Y-84272380D01*
X79502023Y-84272380D01*
X79597261Y-84224761D01*
X79644880Y-84177142D01*
X79692500Y-84081904D01*
X79692500Y-83796190D01*
X79644880Y-83700952D01*
X79597261Y-83653333D01*
X79502023Y-83605714D01*
X79311547Y-83605714D01*
X79216309Y-83653333D01*
X78740119Y-84272380D02*
X78740119Y-83605714D01*
X78740119Y-83272380D02*
X78787738Y-83320000D01*
X78740119Y-83367619D01*
X78692500Y-83320000D01*
X78740119Y-83272380D01*
X78740119Y-83367619D01*
X78121071Y-84272380D02*
X78216309Y-84224761D01*
X78263928Y-84177142D01*
X78311547Y-84081904D01*
X78311547Y-83796190D01*
X78263928Y-83700952D01*
X78216309Y-83653333D01*
X78121071Y-83605714D01*
X77978214Y-83605714D01*
X77882976Y-83653333D01*
X77835357Y-83700952D01*
X77787738Y-83796190D01*
X77787738Y-84081904D01*
X77835357Y-84177142D01*
X77882976Y-84224761D01*
X77978214Y-84272380D01*
X78121071Y-84272380D01*
X72890119Y-87701190D02*
X73890119Y-87701190D01*
X73890119Y-87320238D01*
X73842500Y-87225000D01*
X73794880Y-87177380D01*
X73699642Y-87129761D01*
X73556785Y-87129761D01*
X73461547Y-87177380D01*
X73413928Y-87225000D01*
X73366309Y-87320238D01*
X73366309Y-87701190D01*
X72890119Y-86558333D02*
X72937738Y-86653571D01*
X72985357Y-86701190D01*
X73080595Y-86748809D01*
X73366309Y-86748809D01*
X73461547Y-86701190D01*
X73509166Y-86653571D01*
X73556785Y-86558333D01*
X73556785Y-86415476D01*
X73509166Y-86320238D01*
X73461547Y-86272619D01*
X73366309Y-86225000D01*
X73080595Y-86225000D01*
X72985357Y-86272619D01*
X72937738Y-86320238D01*
X72890119Y-86415476D01*
X72890119Y-86558333D01*
X73556785Y-85891666D02*
X72890119Y-85701190D01*
X73366309Y-85510714D01*
X72890119Y-85320238D01*
X73556785Y-85129761D01*
X72937738Y-84367857D02*
X72890119Y-84463095D01*
X72890119Y-84653571D01*
X72937738Y-84748809D01*
X73032976Y-84796428D01*
X73413928Y-84796428D01*
X73509166Y-84748809D01*
X73556785Y-84653571D01*
X73556785Y-84463095D01*
X73509166Y-84367857D01*
X73413928Y-84320238D01*
X73318690Y-84320238D01*
X73223452Y-84796428D01*
X72890119Y-83891666D02*
X73556785Y-83891666D01*
X73366309Y-83891666D02*
X73461547Y-83844047D01*
X73509166Y-83796428D01*
X73556785Y-83701190D01*
X73556785Y-83605952D01*
X93232976Y-80403571D02*
X92899642Y-80403571D01*
X92756785Y-80927380D02*
X93232976Y-80927380D01*
X93232976Y-79927380D01*
X92756785Y-79927380D01*
X92423452Y-80260714D02*
X92185357Y-80927380D01*
X91947261Y-80260714D01*
X91137738Y-80927380D02*
X91137738Y-80403571D01*
X91185357Y-80308333D01*
X91280595Y-80260714D01*
X91471071Y-80260714D01*
X91566309Y-80308333D01*
X91137738Y-80879761D02*
X91232976Y-80927380D01*
X91471071Y-80927380D01*
X91566309Y-80879761D01*
X91613928Y-80784523D01*
X91613928Y-80689285D01*
X91566309Y-80594047D01*
X91471071Y-80546428D01*
X91232976Y-80546428D01*
X91137738Y-80498809D01*
X90661547Y-80260714D02*
X90661547Y-80927380D01*
X90661547Y-80355952D02*
X90613928Y-80308333D01*
X90518690Y-80260714D01*
X90375833Y-80260714D01*
X90280595Y-80308333D01*
X90232976Y-80403571D01*
X90232976Y-80927380D01*
X88471071Y-79975000D02*
X88566309Y-79927380D01*
X88709166Y-79927380D01*
X88852023Y-79975000D01*
X88947261Y-80070238D01*
X88994880Y-80165476D01*
X89042500Y-80355952D01*
X89042500Y-80498809D01*
X88994880Y-80689285D01*
X88947261Y-80784523D01*
X88852023Y-80879761D01*
X88709166Y-80927380D01*
X88613928Y-80927380D01*
X88471071Y-80879761D01*
X88423452Y-80832142D01*
X88423452Y-80498809D01*
X88613928Y-80498809D01*
X87566309Y-80260714D02*
X87566309Y-80927380D01*
X87994880Y-80260714D02*
X87994880Y-80784523D01*
X87947261Y-80879761D01*
X87852023Y-80927380D01*
X87709166Y-80927380D01*
X87613928Y-80879761D01*
X87566309Y-80832142D01*
X87090119Y-80927380D02*
X87090119Y-79927380D01*
X87090119Y-80308333D02*
X86994880Y-80260714D01*
X86804404Y-80260714D01*
X86709166Y-80308333D01*
X86661547Y-80355952D01*
X86613928Y-80451190D01*
X86613928Y-80736904D01*
X86661547Y-80832142D01*
X86709166Y-80879761D01*
X86804404Y-80927380D01*
X86994880Y-80927380D01*
X87090119Y-80879761D01*
X85756785Y-80927380D02*
X85756785Y-80403571D01*
X85804404Y-80308333D01*
X85899642Y-80260714D01*
X86090119Y-80260714D01*
X86185357Y-80308333D01*
X85756785Y-80879761D02*
X85852023Y-80927380D01*
X86090119Y-80927380D01*
X86185357Y-80879761D01*
X86232976Y-80784523D01*
X86232976Y-80689285D01*
X86185357Y-80594047D01*
X86090119Y-80546428D01*
X85852023Y-80546428D01*
X85756785Y-80498809D01*
X85280595Y-80927380D02*
X85280595Y-80260714D01*
X85280595Y-80451190D02*
X85232976Y-80355952D01*
X85185357Y-80308333D01*
X85090119Y-80260714D01*
X84994880Y-80260714D01*
X84280595Y-80879761D02*
X84375833Y-80927380D01*
X84566309Y-80927380D01*
X84661547Y-80879761D01*
X84709166Y-80784523D01*
X84709166Y-80403571D01*
X84661547Y-80308333D01*
X84566309Y-80260714D01*
X84375833Y-80260714D01*
X84280595Y-80308333D01*
X84232976Y-80403571D01*
X84232976Y-80498809D01*
X84709166Y-80594047D01*
X83899642Y-80260714D02*
X83661547Y-80927380D01*
X83423452Y-80260714D01*
X82232976Y-80927380D02*
X82042500Y-80927380D01*
X81947261Y-80879761D01*
X81899642Y-80832142D01*
X81804404Y-80689285D01*
X81756785Y-80498809D01*
X81756785Y-80117857D01*
X81804404Y-80022619D01*
X81852023Y-79975000D01*
X81947261Y-79927380D01*
X82137738Y-79927380D01*
X82232976Y-79975000D01*
X82280595Y-80022619D01*
X82328214Y-80117857D01*
X82328214Y-80355952D01*
X82280595Y-80451190D01*
X82232976Y-80498809D01*
X82137738Y-80546428D01*
X81947261Y-80546428D01*
X81852023Y-80498809D01*
X81804404Y-80451190D01*
X81756785Y-80355952D01*
X80613928Y-79879761D02*
X81471071Y-81165476D01*
X80328214Y-80022619D02*
X80280595Y-79975000D01*
X80185357Y-79927380D01*
X79947261Y-79927380D01*
X79852023Y-79975000D01*
X79804404Y-80022619D01*
X79756785Y-80117857D01*
X79756785Y-80213095D01*
X79804404Y-80355952D01*
X80375833Y-80927380D01*
X79756785Y-80927380D01*
X79375833Y-80022619D02*
X79328214Y-79975000D01*
X79232976Y-79927380D01*
X78994880Y-79927380D01*
X78899642Y-79975000D01*
X78852023Y-80022619D01*
X78804404Y-80117857D01*
X78804404Y-80213095D01*
X78852023Y-80355952D01*
X79423452Y-80927380D01*
X78804404Y-80927380D01*
X87185357Y-82537380D02*
X87518690Y-82061190D01*
X87756785Y-82537380D02*
X87756785Y-81537380D01*
X87375833Y-81537380D01*
X87280595Y-81585000D01*
X87232976Y-81632619D01*
X87185357Y-81727857D01*
X87185357Y-81870714D01*
X87232976Y-81965952D01*
X87280595Y-82013571D01*
X87375833Y-82061190D01*
X87756785Y-82061190D01*
X86613928Y-82537380D02*
X86709166Y-82489761D01*
X86756785Y-82442142D01*
X86804404Y-82346904D01*
X86804404Y-82061190D01*
X86756785Y-81965952D01*
X86709166Y-81918333D01*
X86613928Y-81870714D01*
X86471071Y-81870714D01*
X86375833Y-81918333D01*
X86328214Y-81965952D01*
X86280595Y-82061190D01*
X86280595Y-82346904D01*
X86328214Y-82442142D01*
X86375833Y-82489761D01*
X86471071Y-82537380D01*
X86613928Y-82537380D01*
X85852023Y-82537380D02*
X85852023Y-81537380D01*
X85852023Y-82013571D02*
X85280595Y-82013571D01*
X85280595Y-82537380D02*
X85280595Y-81537380D01*
X84852023Y-82489761D02*
X84709166Y-82537380D01*
X84471071Y-82537380D01*
X84375833Y-82489761D01*
X84328214Y-82442142D01*
X84280595Y-82346904D01*
X84280595Y-82251666D01*
X84328214Y-82156428D01*
X84375833Y-82108809D01*
X84471071Y-82061190D01*
X84661547Y-82013571D01*
X84756785Y-81965952D01*
X84804404Y-81918333D01*
X84852023Y-81823095D01*
X84852023Y-81727857D01*
X84804404Y-81632619D01*
X84756785Y-81585000D01*
X84661547Y-81537380D01*
X84423452Y-81537380D01*
X84280595Y-81585000D01*
X112601071Y-86629761D02*
X113267738Y-85677380D01*
X113743928Y-86629761D02*
X113743928Y-84629761D01*
X112982023Y-84629761D01*
X112791547Y-84725000D01*
X112696309Y-84820238D01*
X112601071Y-85010714D01*
X112601071Y-85296428D01*
X112696309Y-85486904D01*
X112791547Y-85582142D01*
X112982023Y-85677380D01*
X113743928Y-85677380D01*
X110982023Y-86534523D02*
X111172500Y-86629761D01*
X111553452Y-86629761D01*
X111743928Y-86534523D01*
X111839166Y-86344047D01*
X111839166Y-85582142D01*
X111743928Y-85391666D01*
X111553452Y-85296428D01*
X111172500Y-85296428D01*
X110982023Y-85391666D01*
X110886785Y-85582142D01*
X110886785Y-85772619D01*
X111839166Y-85963095D01*
X109743928Y-86629761D02*
X109934404Y-86534523D01*
X110029642Y-86344047D01*
X110029642Y-84629761D01*
X108124880Y-86629761D02*
X108124880Y-85582142D01*
X108220119Y-85391666D01*
X108410595Y-85296428D01*
X108791547Y-85296428D01*
X108982023Y-85391666D01*
X108124880Y-86534523D02*
X108315357Y-86629761D01*
X108791547Y-86629761D01*
X108982023Y-86534523D01*
X109077261Y-86344047D01*
X109077261Y-86153571D01*
X108982023Y-85963095D01*
X108791547Y-85867857D01*
X108315357Y-85867857D01*
X108124880Y-85772619D01*
X107362976Y-85296428D02*
X106886785Y-86629761D01*
X106410595Y-85296428D02*
X106886785Y-86629761D01*
X107077261Y-87105952D01*
X107172500Y-87201190D01*
X107362976Y-87296428D01*
%TO.C,G\u002A\u002A\u002A*%
G36*
X104933982Y-75959076D02*
G01*
X105046218Y-75985010D01*
X105184132Y-76044043D01*
X105296580Y-76129406D01*
X105383949Y-76241513D01*
X105446625Y-76380775D01*
X105484995Y-76547604D01*
X105496155Y-76709005D01*
X105482741Y-76869776D01*
X105445712Y-77018599D01*
X105386727Y-77148875D01*
X105307444Y-77254006D01*
X105288590Y-77272078D01*
X105191103Y-77343850D01*
X105078382Y-77400361D01*
X104966758Y-77433028D01*
X104896154Y-77443412D01*
X104814622Y-77447869D01*
X104740336Y-77439528D01*
X104657017Y-77417577D01*
X104622240Y-77405563D01*
X104518959Y-77357674D01*
X104423678Y-77297243D01*
X104350654Y-77232867D01*
X104328789Y-77206153D01*
X104327176Y-77184674D01*
X104350654Y-77155074D01*
X104361356Y-77143881D01*
X104404391Y-77103799D01*
X104454346Y-77061809D01*
X104522976Y-77007384D01*
X104589087Y-77057809D01*
X104603635Y-77068420D01*
X104703768Y-77119620D01*
X104809437Y-77141446D01*
X104913851Y-77135092D01*
X105010221Y-77101752D01*
X105091757Y-77042620D01*
X105151669Y-76958889D01*
X105153929Y-76954232D01*
X105174406Y-76904615D01*
X105186679Y-76852888D01*
X105192618Y-76787514D01*
X105194090Y-76696957D01*
X105193975Y-76670621D01*
X105191536Y-76589417D01*
X105184399Y-76530223D01*
X105170534Y-76481357D01*
X105147911Y-76431138D01*
X105098933Y-76356299D01*
X105025727Y-76296371D01*
X104932040Y-76264531D01*
X104814356Y-76258966D01*
X104781214Y-76261126D01*
X104714791Y-76270713D01*
X104661939Y-76290346D01*
X104606004Y-76325329D01*
X104521187Y-76385114D01*
X104453452Y-76331396D01*
X104436550Y-76317681D01*
X104387192Y-76274658D01*
X104350480Y-76238647D01*
X104345052Y-76232610D01*
X104326562Y-76207097D01*
X104330594Y-76185848D01*
X104358621Y-76153440D01*
X104366682Y-76145110D01*
X104457363Y-76072465D01*
X104569488Y-76011035D01*
X104689300Y-75968512D01*
X104718943Y-75961239D01*
X104788598Y-75949093D01*
X104853605Y-75948629D01*
X104933982Y-75959076D01*
G37*
G36*
X112227632Y-75969561D02*
G01*
X112325686Y-76006019D01*
X112401877Y-76062420D01*
X112429277Y-76089391D01*
X112457242Y-76104689D01*
X112471241Y-76086826D01*
X112475065Y-76034348D01*
X112475065Y-75960725D01*
X112769558Y-75960725D01*
X112769558Y-77433189D01*
X112477736Y-77433189D01*
X112471799Y-76940834D01*
X112470461Y-76833371D01*
X112468581Y-76708810D01*
X112466355Y-76613033D01*
X112463372Y-76541328D01*
X112459219Y-76488985D01*
X112453485Y-76451293D01*
X112445756Y-76423540D01*
X112435623Y-76401017D01*
X112422672Y-76379011D01*
X112414394Y-76366256D01*
X112354766Y-76302217D01*
X112278850Y-76266380D01*
X112179725Y-76255218D01*
X112084357Y-76266823D01*
X112006717Y-76305323D01*
X111948393Y-76372749D01*
X111938509Y-76391709D01*
X111929987Y-76416949D01*
X111923286Y-76451679D01*
X111918046Y-76500450D01*
X111913907Y-76567817D01*
X111910508Y-76658334D01*
X111907487Y-76776553D01*
X111904485Y-76927029D01*
X111895282Y-77423986D01*
X111588694Y-77434724D01*
X111594742Y-76886384D01*
X111594827Y-76878695D01*
X111596664Y-76723086D01*
X111598576Y-76599502D01*
X111600909Y-76503357D01*
X111604012Y-76430068D01*
X111608229Y-76375050D01*
X111613909Y-76333720D01*
X111621398Y-76301494D01*
X111631042Y-76273787D01*
X111643189Y-76246015D01*
X111697769Y-76149821D01*
X111774173Y-76067851D01*
X111876876Y-76002004D01*
X111900049Y-75991092D01*
X112005038Y-75960973D01*
X112117491Y-75954171D01*
X112227632Y-75969561D01*
G37*
G36*
X117033238Y-76867086D02*
G01*
X117014096Y-76996772D01*
X116980370Y-77103862D01*
X116930174Y-77194468D01*
X116861627Y-77274701D01*
X116815821Y-77315747D01*
X116695069Y-77391798D01*
X116562616Y-77433526D01*
X116458900Y-77441630D01*
X116339456Y-77433777D01*
X116229847Y-77410684D01*
X116154515Y-77379786D01*
X116045499Y-77306031D01*
X115953991Y-77207569D01*
X115887697Y-77091587D01*
X115874901Y-77053035D01*
X115857264Y-76961753D01*
X115846069Y-76849275D01*
X115841324Y-76725173D01*
X115841717Y-76696255D01*
X116138223Y-76696255D01*
X116140025Y-76782242D01*
X116150627Y-76897620D01*
X116171849Y-76984413D01*
X116204981Y-77047115D01*
X116251312Y-77090217D01*
X116251416Y-77090284D01*
X116339320Y-77128683D01*
X116437098Y-77141054D01*
X116532708Y-77127469D01*
X116614109Y-77088002D01*
X116641960Y-77065673D01*
X116681666Y-77022922D01*
X116708731Y-76971712D01*
X116725347Y-76905006D01*
X116733707Y-76815767D01*
X116736007Y-76696957D01*
X116736002Y-76686174D01*
X116735077Y-76589106D01*
X116731855Y-76520149D01*
X116725314Y-76471360D01*
X116714436Y-76434800D01*
X116698200Y-76402527D01*
X116652639Y-76342913D01*
X116576598Y-76286735D01*
X116489689Y-76257053D01*
X116399204Y-76253859D01*
X116312438Y-76277146D01*
X116236682Y-76326903D01*
X116179231Y-76403125D01*
X116162587Y-76439079D01*
X116149841Y-76480301D01*
X116142387Y-76530790D01*
X116138942Y-76599717D01*
X116138223Y-76696255D01*
X115841717Y-76696255D01*
X115843038Y-76599019D01*
X115851220Y-76480383D01*
X115865876Y-76378839D01*
X115887015Y-76303957D01*
X115914776Y-76246546D01*
X115995018Y-76135698D01*
X116096217Y-76049548D01*
X116213086Y-75989160D01*
X116340339Y-75955597D01*
X116472687Y-75949922D01*
X116604844Y-75973197D01*
X116731522Y-76026486D01*
X116847435Y-76110852D01*
X116875321Y-76137898D01*
X116940090Y-76217019D01*
X116986816Y-76306093D01*
X117017595Y-76411512D01*
X117034525Y-76539670D01*
X117039702Y-76696957D01*
X117039679Y-76708694D01*
X117033238Y-76867086D01*
G37*
G36*
X115293347Y-79733913D02*
G01*
X115287648Y-79241558D01*
X115286608Y-79154344D01*
X115284764Y-79025046D01*
X115282598Y-78925240D01*
X115279719Y-78850235D01*
X115275731Y-78795342D01*
X115270244Y-78755873D01*
X115262863Y-78727139D01*
X115253196Y-78704450D01*
X115240850Y-78683118D01*
X115239049Y-78680273D01*
X115177684Y-78616398D01*
X115096314Y-78575096D01*
X115005072Y-78558287D01*
X114914092Y-78567896D01*
X114833506Y-78605843D01*
X114803278Y-78629631D01*
X114777551Y-78656278D01*
X114757779Y-78688599D01*
X114743183Y-78731043D01*
X114732986Y-78788056D01*
X114726407Y-78864087D01*
X114722669Y-78963583D01*
X114720993Y-79090992D01*
X114720601Y-79250761D01*
X114720572Y-79733913D01*
X114424573Y-79733913D01*
X114429927Y-79167935D01*
X114430215Y-79137604D01*
X114431983Y-78973489D01*
X114434382Y-78841045D01*
X114438243Y-78735857D01*
X114444398Y-78653510D01*
X114453677Y-78589591D01*
X114466911Y-78539686D01*
X114484932Y-78499382D01*
X114508570Y-78464262D01*
X114538656Y-78429915D01*
X114576021Y-78391925D01*
X114620662Y-78353508D01*
X114725813Y-78295857D01*
X114843938Y-78265353D01*
X114966413Y-78262675D01*
X115084614Y-78288505D01*
X115189920Y-78343520D01*
X115195893Y-78347849D01*
X115238410Y-78377761D01*
X115268145Y-78397282D01*
X115270579Y-78397948D01*
X115276819Y-78389397D01*
X115281742Y-78362703D01*
X115285477Y-78314755D01*
X115288155Y-78242444D01*
X115289907Y-78142658D01*
X115290862Y-78012286D01*
X115291152Y-77848217D01*
X115291152Y-77285566D01*
X115194521Y-77349344D01*
X115149753Y-77375810D01*
X115075494Y-77410828D01*
X115010100Y-77432517D01*
X114918726Y-77443580D01*
X114794898Y-77430143D01*
X114680387Y-77386231D01*
X114581056Y-77315270D01*
X114502770Y-77220689D01*
X114451393Y-77105916D01*
X114449003Y-77097020D01*
X114436763Y-77024606D01*
X114428119Y-76926019D01*
X114423070Y-76810230D01*
X114421847Y-76706160D01*
X114729775Y-76706160D01*
X114731194Y-76819201D01*
X114737034Y-76913933D01*
X114748959Y-76983524D01*
X114768620Y-77034029D01*
X114797667Y-77071500D01*
X114837752Y-77101988D01*
X114887995Y-77125691D01*
X114974751Y-77142320D01*
X115064338Y-77136917D01*
X115145209Y-77110654D01*
X115205816Y-77064699D01*
X115223466Y-77040014D01*
X115259585Y-76956595D01*
X115282521Y-76851687D01*
X115292328Y-76734535D01*
X115289063Y-76614387D01*
X115272781Y-76500491D01*
X115243537Y-76402094D01*
X115201388Y-76328443D01*
X115175316Y-76299781D01*
X115143321Y-76277443D01*
X115100328Y-76265560D01*
X115033431Y-76258779D01*
X114967789Y-76257495D01*
X114878098Y-76273593D01*
X114811287Y-76314372D01*
X114762955Y-76381833D01*
X114749084Y-76416165D01*
X114739533Y-76458642D01*
X114733622Y-76516343D01*
X114730614Y-76596453D01*
X114729775Y-76706160D01*
X114421847Y-76706160D01*
X114421612Y-76686207D01*
X114423743Y-76562918D01*
X114429460Y-76449333D01*
X114438759Y-76354420D01*
X114451640Y-76287148D01*
X114471356Y-76232006D01*
X114534372Y-76126563D01*
X114619997Y-76044410D01*
X114722873Y-75987290D01*
X114837643Y-75956944D01*
X114958948Y-75955112D01*
X115081431Y-75983538D01*
X115199735Y-76043963D01*
X115291152Y-76105482D01*
X115291152Y-75960725D01*
X115585645Y-75960725D01*
X115585645Y-79733913D01*
X115293347Y-79733913D01*
G37*
G36*
X114194697Y-79443546D02*
G01*
X114170098Y-79502480D01*
X114101375Y-79596827D01*
X114005190Y-79672741D01*
X113886344Y-79725824D01*
X113811601Y-79741734D01*
X113709320Y-79749955D01*
X113606221Y-79747197D01*
X113520165Y-79733103D01*
X113515807Y-79731832D01*
X113452877Y-79704520D01*
X113395926Y-79667150D01*
X113340137Y-79620206D01*
X113340137Y-79733913D01*
X113024006Y-79733913D01*
X113030856Y-79227242D01*
X113340137Y-79227242D01*
X113341840Y-79268990D01*
X113356919Y-79351550D01*
X113385213Y-79413216D01*
X113423827Y-79446408D01*
X113431790Y-79449023D01*
X113484827Y-79458522D01*
X113558436Y-79464763D01*
X113639510Y-79467265D01*
X113714943Y-79465550D01*
X113771629Y-79459137D01*
X113795357Y-79452883D01*
X113862557Y-79416961D01*
X113907835Y-79364031D01*
X113928146Y-79301808D01*
X113920444Y-79238008D01*
X113881682Y-79180346D01*
X113862192Y-79163657D01*
X113838772Y-79150518D01*
X113806569Y-79141758D01*
X113758574Y-79136171D01*
X113687783Y-79132552D01*
X113587190Y-79129697D01*
X113340137Y-79123670D01*
X113340137Y-79227242D01*
X113030856Y-79227242D01*
X113031533Y-79177138D01*
X113031650Y-79168602D01*
X113034675Y-78989785D01*
X113038424Y-78845087D01*
X113043030Y-78731931D01*
X113048623Y-78647739D01*
X113055336Y-78589935D01*
X113063300Y-78555942D01*
X113102886Y-78474728D01*
X113176019Y-78389589D01*
X113277942Y-78323975D01*
X113304890Y-78311296D01*
X113357100Y-78291282D01*
X113412695Y-78278366D01*
X113482815Y-78270364D01*
X113578602Y-78265096D01*
X113656364Y-78263302D01*
X113784682Y-78269598D01*
X113888936Y-78290282D01*
X113976277Y-78327111D01*
X114053856Y-78381842D01*
X114085446Y-78410098D01*
X114118688Y-78443644D01*
X114131587Y-78462394D01*
X114131150Y-78463983D01*
X114113242Y-78484369D01*
X114074336Y-78519145D01*
X114021656Y-78561781D01*
X113911726Y-78647149D01*
X113864946Y-78603794D01*
X113838427Y-78582692D01*
X113782143Y-78556169D01*
X113706872Y-78541835D01*
X113604129Y-78537537D01*
X113558799Y-78539430D01*
X113470042Y-78555529D01*
X113401103Y-78585632D01*
X113360025Y-78626797D01*
X113352841Y-78647037D01*
X113343708Y-78700471D01*
X113340137Y-78764393D01*
X113340137Y-78864829D01*
X113611623Y-78872562D01*
X113737542Y-78877743D01*
X113840076Y-78886745D01*
X113919128Y-78901128D01*
X113981496Y-78922640D01*
X114033976Y-78953033D01*
X114083363Y-78994056D01*
X114117181Y-79032024D01*
X114168864Y-79123973D01*
X114200997Y-79231224D01*
X114207129Y-79301808D01*
X114210600Y-79341756D01*
X114194697Y-79443546D01*
G37*
G36*
X112124660Y-78266526D02*
G01*
X112242826Y-78301693D01*
X112346364Y-78367071D01*
X112419847Y-78429970D01*
X112419847Y-78279855D01*
X112714340Y-78279855D01*
X112714340Y-79733913D01*
X112419847Y-79733913D01*
X112419847Y-79259263D01*
X112419832Y-79196507D01*
X112419539Y-79064907D01*
X112418587Y-78963167D01*
X112416609Y-78886334D01*
X112413237Y-78829458D01*
X112408102Y-78787587D01*
X112400835Y-78755769D01*
X112391069Y-78729053D01*
X112378434Y-78702487D01*
X112337279Y-78642919D01*
X112264807Y-78586984D01*
X112179049Y-78558193D01*
X112088560Y-78559056D01*
X112001893Y-78592080D01*
X111942851Y-78628079D01*
X111840842Y-78505183D01*
X111821739Y-78481898D01*
X111779330Y-78427971D01*
X111749870Y-78387212D01*
X111738833Y-78367036D01*
X111748319Y-78356049D01*
X111783401Y-78333455D01*
X111835463Y-78306797D01*
X111875015Y-78290431D01*
X111999508Y-78262472D01*
X112124660Y-78266526D01*
G37*
G36*
X105815655Y-78902706D02*
G01*
X105818837Y-79066239D01*
X105801368Y-79221915D01*
X105764664Y-79361368D01*
X105710142Y-79476232D01*
X105666399Y-79539238D01*
X105590116Y-79619418D01*
X105497978Y-79679589D01*
X105379630Y-79727628D01*
X105314732Y-79742210D01*
X105208462Y-79749341D01*
X105093073Y-79743088D01*
X104982589Y-79724408D01*
X104891037Y-79694258D01*
X104873103Y-79685603D01*
X104810928Y-79650329D01*
X104750608Y-79609550D01*
X104699716Y-79569126D01*
X104665825Y-79534917D01*
X104656508Y-79512782D01*
X104656723Y-79512312D01*
X104673888Y-79493260D01*
X104711262Y-79458332D01*
X104761163Y-79414727D01*
X104860522Y-79330305D01*
X104914235Y-79375502D01*
X104977643Y-79415188D01*
X105066694Y-79448884D01*
X105160151Y-79467656D01*
X105241836Y-79466987D01*
X105339343Y-79434931D01*
X105422377Y-79375958D01*
X105482116Y-79296644D01*
X105512242Y-79203153D01*
X105522520Y-79126522D01*
X104611157Y-79126522D01*
X104619184Y-78916816D01*
X104619767Y-78901881D01*
X104621451Y-78868841D01*
X104911202Y-78868841D01*
X105522520Y-78868841D01*
X105512242Y-78792210D01*
X105485168Y-78701426D01*
X105428165Y-78622914D01*
X105346909Y-78568314D01*
X105246203Y-78542139D01*
X105191073Y-78541146D01*
X105095093Y-78564047D01*
X105016506Y-78617851D01*
X104958084Y-78700272D01*
X104922602Y-78809022D01*
X104911202Y-78868841D01*
X104621451Y-78868841D01*
X104624397Y-78811017D01*
X104631260Y-78744677D01*
X104642577Y-78692053D01*
X104660571Y-78642337D01*
X104687464Y-78584720D01*
X104752017Y-78479274D01*
X104849379Y-78379499D01*
X104966973Y-78310105D01*
X105103501Y-78271819D01*
X105257662Y-78265370D01*
X105276113Y-78266708D01*
X105418916Y-78295311D01*
X105541749Y-78354288D01*
X105643571Y-78442503D01*
X105723343Y-78558821D01*
X105780025Y-78702105D01*
X105812117Y-78868841D01*
X105812575Y-78871220D01*
X105815655Y-78902706D01*
G37*
G36*
X109481807Y-78289058D02*
G01*
X109639414Y-78781054D01*
X109645804Y-78800977D01*
X109686494Y-78926741D01*
X109723610Y-79039608D01*
X109755645Y-79135138D01*
X109781096Y-79208891D01*
X109798457Y-79256427D01*
X109806224Y-79273304D01*
X109810844Y-79263456D01*
X109824199Y-79222734D01*
X109844534Y-79154878D01*
X109870449Y-79064690D01*
X109900547Y-78956972D01*
X109933428Y-78836526D01*
X109956283Y-78751890D01*
X109988494Y-78632643D01*
X110017290Y-78526084D01*
X110041124Y-78437929D01*
X110058454Y-78373888D01*
X110067735Y-78339674D01*
X110084041Y-78279855D01*
X110239626Y-78279855D01*
X110267710Y-78280027D01*
X110332894Y-78281948D01*
X110378218Y-78285551D01*
X110395210Y-78290268D01*
X110395117Y-78290787D01*
X110388417Y-78313529D01*
X110372141Y-78366216D01*
X110347729Y-78444310D01*
X110316621Y-78543274D01*
X110280255Y-78658570D01*
X110240073Y-78785663D01*
X110197512Y-78920015D01*
X110154014Y-79057090D01*
X110111016Y-79192349D01*
X110069960Y-79321256D01*
X110032285Y-79439274D01*
X109999430Y-79541867D01*
X109972834Y-79624496D01*
X109953938Y-79682625D01*
X109944182Y-79711718D01*
X109943679Y-79712932D01*
X109924508Y-79725459D01*
X109878919Y-79730975D01*
X109801939Y-79730124D01*
X109668281Y-79724710D01*
X109522484Y-79233186D01*
X109517125Y-79215153D01*
X109479221Y-79089398D01*
X109444426Y-78976996D01*
X109414172Y-78882346D01*
X109389889Y-78809848D01*
X109373009Y-78763902D01*
X109364963Y-78748908D01*
X109364581Y-78749297D01*
X109355478Y-78771537D01*
X109337606Y-78824041D01*
X109312418Y-78902225D01*
X109281369Y-79001507D01*
X109245914Y-79117304D01*
X109207506Y-79245033D01*
X109061772Y-79733913D01*
X108796358Y-79733913D01*
X108676963Y-79361196D01*
X108641542Y-79250524D01*
X108592286Y-79096401D01*
X108541482Y-78937223D01*
X108493396Y-78786358D01*
X108452294Y-78657174D01*
X108451956Y-78656112D01*
X108418420Y-78550785D01*
X108388397Y-78456879D01*
X108363788Y-78380311D01*
X108346495Y-78327000D01*
X108338420Y-78302863D01*
X108339166Y-78294880D01*
X108359291Y-78286047D01*
X108406764Y-78281282D01*
X108486271Y-78279855D01*
X108493131Y-78279865D01*
X108578868Y-78282500D01*
X108630811Y-78290046D01*
X108651528Y-78302863D01*
X108657243Y-78321709D01*
X108671547Y-78372230D01*
X108692834Y-78448914D01*
X108719726Y-78546769D01*
X108750845Y-78660800D01*
X108784815Y-78786015D01*
X108815215Y-78897454D01*
X108847005Y-79011879D01*
X108874940Y-79110215D01*
X108897616Y-79187594D01*
X108913627Y-79239142D01*
X108921569Y-79259990D01*
X108922481Y-79260005D01*
X108933143Y-79240095D01*
X108953058Y-79190215D01*
X108980705Y-79114614D01*
X109014562Y-79017541D01*
X109053109Y-78903248D01*
X109094825Y-78775983D01*
X109255807Y-78278144D01*
X109481807Y-78289058D01*
G37*
G36*
X109375239Y-76914011D02*
G01*
X109356612Y-77024338D01*
X109329874Y-77108584D01*
X109262199Y-77220736D01*
X109163743Y-77319570D01*
X109043974Y-77391708D01*
X108908283Y-77433003D01*
X108879463Y-77437145D01*
X108761914Y-77440607D01*
X108643429Y-77426195D01*
X108541429Y-77395682D01*
X108465595Y-77353328D01*
X108372039Y-77276022D01*
X108292609Y-77183201D01*
X108238316Y-77086108D01*
X108226944Y-77055970D01*
X108213785Y-77011620D01*
X108205027Y-76962463D01*
X108199786Y-76900499D01*
X108197178Y-76817731D01*
X108196318Y-76706160D01*
X108196328Y-76696957D01*
X108490210Y-76696957D01*
X108490818Y-76764432D01*
X108496095Y-76866691D01*
X108508603Y-76943100D01*
X108530518Y-77000674D01*
X108564016Y-77046428D01*
X108611272Y-77087378D01*
X108667095Y-77119320D01*
X108764380Y-77141163D01*
X108871961Y-77129817D01*
X108872661Y-77129639D01*
X108948268Y-77103361D01*
X109004771Y-77065156D01*
X109044583Y-77010185D01*
X109070116Y-76933605D01*
X109083782Y-76830575D01*
X109087994Y-76696255D01*
X109087477Y-76609544D01*
X109084423Y-76537822D01*
X109077511Y-76485626D01*
X109065460Y-76443784D01*
X109046985Y-76403125D01*
X109035024Y-76381716D01*
X108972798Y-76310708D01*
X108889479Y-76268907D01*
X108783110Y-76255218D01*
X108781003Y-76255224D01*
X108678889Y-76272134D01*
X108594338Y-76321364D01*
X108528016Y-76402527D01*
X108526246Y-76405573D01*
X108510554Y-76437910D01*
X108500124Y-76475276D01*
X108493936Y-76525612D01*
X108490971Y-76596858D01*
X108490210Y-76696957D01*
X108196328Y-76696957D01*
X108196362Y-76666484D01*
X108199519Y-76533896D01*
X108208834Y-76429056D01*
X108226182Y-76344917D01*
X108253433Y-76274434D01*
X108292460Y-76210561D01*
X108345137Y-76146253D01*
X108440344Y-76060820D01*
X108558778Y-75994994D01*
X108686119Y-75958145D01*
X108817009Y-75949447D01*
X108946094Y-75968073D01*
X109068017Y-76013198D01*
X109177423Y-76083995D01*
X109268954Y-76179638D01*
X109337256Y-76299301D01*
X109343587Y-76315813D01*
X109366856Y-76408838D01*
X109381566Y-76525017D01*
X109387806Y-76654504D01*
X109387135Y-76696255D01*
X109385668Y-76787450D01*
X109375239Y-76914011D01*
G37*
G36*
X111709311Y-79271904D02*
G01*
X111706333Y-79335797D01*
X111701276Y-79382762D01*
X111693596Y-79418670D01*
X111682749Y-79449388D01*
X111668193Y-79480784D01*
X111656554Y-79502581D01*
X111587372Y-79594479D01*
X111498003Y-79671412D01*
X111400436Y-79722554D01*
X111384516Y-79727669D01*
X111311054Y-79743687D01*
X111237965Y-79750866D01*
X111204081Y-79749480D01*
X111122850Y-79735372D01*
X111039742Y-79709724D01*
X110967640Y-79676958D01*
X110919426Y-79641499D01*
X110906244Y-79627704D01*
X110876426Y-79607625D01*
X110860236Y-79621217D01*
X110855355Y-79669493D01*
X110855355Y-79733913D01*
X110560862Y-79733913D01*
X110560862Y-79006884D01*
X110864563Y-79006884D01*
X110864566Y-79012199D01*
X110867004Y-79136856D01*
X110875408Y-79231004D01*
X110891849Y-79300528D01*
X110918401Y-79351312D01*
X110957134Y-79389242D01*
X111010123Y-79420201D01*
X111070071Y-79443817D01*
X111160685Y-79454465D01*
X111257184Y-79432820D01*
X111275349Y-79425367D01*
X111336736Y-79381716D01*
X111381285Y-79313840D01*
X111409833Y-79219231D01*
X111423222Y-79095383D01*
X111422290Y-78939787D01*
X111414960Y-78834861D01*
X111401469Y-78746248D01*
X111382087Y-78688570D01*
X111350443Y-78642245D01*
X111283051Y-78588759D01*
X111201946Y-78560239D01*
X111115240Y-78556593D01*
X111031044Y-78577730D01*
X110957471Y-78623558D01*
X110902632Y-78693986D01*
X110899925Y-78699303D01*
X110884590Y-78735363D01*
X110874362Y-78776130D01*
X110868266Y-78829625D01*
X110865325Y-78903869D01*
X110864563Y-79006884D01*
X110560862Y-79006884D01*
X110560862Y-77670916D01*
X110703507Y-77676291D01*
X110846152Y-77681667D01*
X110851142Y-78045182D01*
X110851423Y-78064071D01*
X110853919Y-78173350D01*
X110857532Y-78267997D01*
X110861943Y-78342466D01*
X110866836Y-78391214D01*
X110871896Y-78408696D01*
X110885953Y-78402867D01*
X110912920Y-78378158D01*
X110921323Y-78369075D01*
X110977620Y-78329465D01*
X111054970Y-78295111D01*
X111140499Y-78270878D01*
X111221335Y-78261629D01*
X111248844Y-78262015D01*
X111364192Y-78276880D01*
X111462456Y-78316460D01*
X111555323Y-78385075D01*
X111602176Y-78429865D01*
X111639186Y-78474094D01*
X111666808Y-78522413D01*
X111686388Y-78580271D01*
X111699274Y-78653117D01*
X111706811Y-78746402D01*
X111710345Y-78865575D01*
X111711224Y-79016087D01*
X111711201Y-79069866D01*
X111711102Y-79095383D01*
X111710752Y-79185217D01*
X111709311Y-79271904D01*
G37*
G36*
X110131968Y-65027693D02*
G01*
X110297436Y-65027850D01*
X110431302Y-65028324D01*
X110537039Y-65029283D01*
X110618119Y-65030895D01*
X110678016Y-65033328D01*
X110720201Y-65036749D01*
X110748149Y-65041326D01*
X110765332Y-65047228D01*
X110775222Y-65054622D01*
X110781294Y-65063675D01*
X110782088Y-65065462D01*
X110790658Y-65096573D01*
X110804837Y-65159044D01*
X110823772Y-65248689D01*
X110846613Y-65361324D01*
X110872508Y-65492762D01*
X110900607Y-65638818D01*
X110930058Y-65795305D01*
X110935185Y-65822767D01*
X110964574Y-65977103D01*
X110992685Y-66119790D01*
X111018646Y-66246732D01*
X111041583Y-66353833D01*
X111060623Y-66436994D01*
X111074892Y-66492120D01*
X111083516Y-66515113D01*
X111089686Y-66519607D01*
X111126690Y-66539034D01*
X111190343Y-66568569D01*
X111275177Y-66605971D01*
X111375721Y-66649000D01*
X111486508Y-66695418D01*
X111602066Y-66742983D01*
X111716929Y-66789456D01*
X111825626Y-66832597D01*
X111922687Y-66870167D01*
X112002645Y-66899925D01*
X112060030Y-66919632D01*
X112089373Y-66927048D01*
X112099259Y-66925330D01*
X112136556Y-66908812D01*
X112197559Y-66874197D01*
X112283452Y-66820735D01*
X112395422Y-66747677D01*
X112534653Y-66654276D01*
X112702330Y-66539782D01*
X112753425Y-66504664D01*
X112898932Y-66404704D01*
X113017895Y-66323202D01*
X113113220Y-66258348D01*
X113187811Y-66208333D01*
X113244572Y-66171347D01*
X113286409Y-66145580D01*
X113316225Y-66129223D01*
X113336927Y-66120465D01*
X113351417Y-66117498D01*
X113362602Y-66118511D01*
X113373386Y-66121696D01*
X113389537Y-66132132D01*
X113429802Y-66166323D01*
X113488699Y-66220590D01*
X113562766Y-66291412D01*
X113648544Y-66375267D01*
X113742573Y-66468633D01*
X113841394Y-66567987D01*
X113941547Y-66669809D01*
X114039571Y-66770575D01*
X114132006Y-66866765D01*
X114215394Y-66954856D01*
X114286274Y-67031326D01*
X114341186Y-67092654D01*
X114376671Y-67135318D01*
X114389268Y-67155795D01*
X114389092Y-67157173D01*
X114376406Y-67184024D01*
X114345292Y-67237070D01*
X114298042Y-67312751D01*
X114236949Y-67407504D01*
X114164306Y-67517767D01*
X114082407Y-67639977D01*
X113993543Y-67770572D01*
X113985073Y-67782934D01*
X113867635Y-67955724D01*
X113771071Y-68100640D01*
X113695593Y-68217346D01*
X113641416Y-68305505D01*
X113608754Y-68364779D01*
X113597818Y-68394833D01*
X113600929Y-68412588D01*
X113616882Y-68463485D01*
X113644351Y-68538256D01*
X113681050Y-68631622D01*
X113724694Y-68738303D01*
X113772995Y-68853021D01*
X113823667Y-68970498D01*
X113874424Y-69085453D01*
X113922980Y-69192609D01*
X113967048Y-69286687D01*
X114004343Y-69362407D01*
X114032577Y-69414490D01*
X114049465Y-69437658D01*
X114072818Y-69445848D01*
X114128904Y-69460065D01*
X114212822Y-69478983D01*
X114320217Y-69501685D01*
X114446729Y-69527249D01*
X114588004Y-69554757D01*
X114739683Y-69583290D01*
X114880592Y-69609571D01*
X115023124Y-69636642D01*
X115151374Y-69661502D01*
X115260954Y-69683278D01*
X115347475Y-69701098D01*
X115406552Y-69714088D01*
X115433797Y-69721375D01*
X115475210Y-69738776D01*
X115475210Y-70473434D01*
X115475209Y-70497997D01*
X115475090Y-70678035D01*
X115474673Y-70825081D01*
X115473810Y-70942536D01*
X115472355Y-71033800D01*
X115470162Y-71102274D01*
X115467084Y-71151360D01*
X115462975Y-71184459D01*
X115457689Y-71204971D01*
X115451079Y-71216297D01*
X115443000Y-71221839D01*
X115418557Y-71228176D01*
X115362037Y-71240429D01*
X115277810Y-71257707D01*
X115170147Y-71279158D01*
X115043320Y-71303931D01*
X114901600Y-71331175D01*
X114749259Y-71360039D01*
X114662732Y-71376389D01*
X114493790Y-71408896D01*
X114357218Y-71436179D01*
X114250296Y-71458856D01*
X114170309Y-71477548D01*
X114114537Y-71492871D01*
X114080263Y-71505446D01*
X114064769Y-71515890D01*
X114062146Y-71520283D01*
X114045737Y-71554901D01*
X114018295Y-71617759D01*
X113981718Y-71704327D01*
X113937906Y-71810074D01*
X113888759Y-71930470D01*
X113836177Y-72060987D01*
X113789683Y-72178041D01*
X113731732Y-72327690D01*
X113688110Y-72445912D01*
X113658362Y-72534006D01*
X113642035Y-72593265D01*
X113638675Y-72624987D01*
X113648180Y-72646656D01*
X113676724Y-72696428D01*
X113721776Y-72769220D01*
X113780886Y-72861221D01*
X113851601Y-72968621D01*
X113931469Y-73087611D01*
X114018037Y-73214381D01*
X114095596Y-73327716D01*
X114175432Y-73445976D01*
X114246079Y-73552315D01*
X114305161Y-73643081D01*
X114350303Y-73714619D01*
X114379131Y-73763277D01*
X114389268Y-73785399D01*
X114388394Y-73788140D01*
X114369396Y-73814016D01*
X114327698Y-73861956D01*
X114266110Y-73928979D01*
X114187445Y-74012105D01*
X114094514Y-74108353D01*
X113990128Y-74214744D01*
X113877100Y-74328297D01*
X113794129Y-74410936D01*
X113675203Y-74528655D01*
X113578279Y-74623374D01*
X113501049Y-74697191D01*
X113441205Y-74752206D01*
X113396438Y-74790516D01*
X113364442Y-74814220D01*
X113342907Y-74825417D01*
X113329527Y-74826206D01*
X113312197Y-74816523D01*
X113266700Y-74787759D01*
X113197760Y-74742634D01*
X113109111Y-74683633D01*
X113004483Y-74613243D01*
X112887607Y-74533950D01*
X112762214Y-74448239D01*
X112656117Y-74375941D01*
X112537760Y-74296496D01*
X112431009Y-74226134D01*
X112339585Y-74167245D01*
X112267208Y-74122222D01*
X112217597Y-74093454D01*
X112194475Y-74083334D01*
X112185844Y-74084940D01*
X112145720Y-74100028D01*
X112082984Y-74128459D01*
X112004349Y-74167105D01*
X111916528Y-74212838D01*
X111877462Y-74233434D01*
X111793196Y-74275769D01*
X111721193Y-74309144D01*
X111668085Y-74330575D01*
X111640504Y-74337077D01*
X111634922Y-74333581D01*
X111621497Y-74315469D01*
X111601856Y-74280294D01*
X111575161Y-74226157D01*
X111540576Y-74151161D01*
X111497264Y-74053407D01*
X111444390Y-73930997D01*
X111381117Y-73782031D01*
X111306609Y-73604611D01*
X111220029Y-73396839D01*
X111120540Y-73156816D01*
X111068778Y-73031482D01*
X110989823Y-72839502D01*
X110915876Y-72658728D01*
X110848080Y-72492007D01*
X110787578Y-72342187D01*
X110735513Y-72212113D01*
X110693028Y-72104633D01*
X110661266Y-72022595D01*
X110641371Y-71968844D01*
X110634485Y-71946229D01*
X110636113Y-71936858D01*
X110661526Y-71900528D01*
X110712710Y-71860240D01*
X110723290Y-71853335D01*
X110780897Y-71814188D01*
X110851877Y-71764292D01*
X110923284Y-71712717D01*
X111032311Y-71624893D01*
X111194173Y-71458739D01*
X111327618Y-71272736D01*
X111431254Y-71070482D01*
X111503688Y-70855575D01*
X111543528Y-70631614D01*
X111549382Y-70402196D01*
X111519858Y-70170919D01*
X111506097Y-70110804D01*
X111433618Y-69895511D01*
X111329612Y-69694650D01*
X111197068Y-69511412D01*
X111038971Y-69348989D01*
X110858307Y-69210569D01*
X110658062Y-69099345D01*
X110441224Y-69018506D01*
X110382685Y-69004052D01*
X110239123Y-68982436D01*
X110079522Y-68973074D01*
X109916572Y-68975965D01*
X109762958Y-68991109D01*
X109631369Y-69018506D01*
X109495996Y-69063562D01*
X109310961Y-69150003D01*
X109141073Y-69263236D01*
X108977963Y-69408253D01*
X108954250Y-69432213D01*
X108846051Y-69550272D01*
X108761498Y-69661272D01*
X108693808Y-69774993D01*
X108636200Y-69901218D01*
X108572246Y-70094448D01*
X108530830Y-70321745D01*
X108523813Y-70548802D01*
X108550217Y-70772165D01*
X108609063Y-70988382D01*
X108699373Y-71193999D01*
X108820170Y-71385562D01*
X108970475Y-71559619D01*
X109149309Y-71712717D01*
X109166114Y-71724996D01*
X109238612Y-71776999D01*
X109307518Y-71825103D01*
X109359884Y-71860240D01*
X109378175Y-71872766D01*
X109422040Y-71912589D01*
X109438108Y-71946229D01*
X109435351Y-71956685D01*
X109420142Y-71999234D01*
X109392642Y-72071125D01*
X109353996Y-72169513D01*
X109305347Y-72291549D01*
X109247837Y-72434387D01*
X109182609Y-72595180D01*
X109110807Y-72771080D01*
X109033574Y-72959241D01*
X108952053Y-73156816D01*
X108888618Y-73309981D01*
X108797256Y-73529724D01*
X108718281Y-73718397D01*
X108650858Y-73877898D01*
X108594151Y-74010126D01*
X108547322Y-74116979D01*
X108509536Y-74200357D01*
X108479957Y-74262157D01*
X108457746Y-74304278D01*
X108442069Y-74328618D01*
X108432089Y-74337077D01*
X108423578Y-74336258D01*
X108384002Y-74322851D01*
X108321803Y-74295822D01*
X108243614Y-74258156D01*
X108156065Y-74212838D01*
X108117596Y-74192499D01*
X108032903Y-74149431D01*
X107960284Y-74114796D01*
X107906452Y-74091720D01*
X107878119Y-74083334D01*
X107860463Y-74090576D01*
X107814756Y-74116580D01*
X107745700Y-74159215D01*
X107657014Y-74216090D01*
X107552418Y-74284813D01*
X107435633Y-74362993D01*
X107310379Y-74448239D01*
X107205203Y-74520174D01*
X107086664Y-74600698D01*
X106979756Y-74672730D01*
X106888211Y-74733782D01*
X106815761Y-74781369D01*
X106766135Y-74813006D01*
X106743066Y-74826206D01*
X106735878Y-74826863D01*
X106717877Y-74820074D01*
X106690335Y-74801616D01*
X106650945Y-74769391D01*
X106597399Y-74721299D01*
X106527389Y-74655242D01*
X106438607Y-74569122D01*
X106328744Y-74460840D01*
X106195494Y-74328297D01*
X106165511Y-74298329D01*
X106054453Y-74186348D01*
X105952768Y-74082301D01*
X105863266Y-73989169D01*
X105788760Y-73909933D01*
X105732060Y-73847572D01*
X105695978Y-73805067D01*
X105683326Y-73785399D01*
X105691531Y-73766813D01*
X105718559Y-73720698D01*
X105762144Y-73651328D01*
X105819912Y-73562358D01*
X105889487Y-73457441D01*
X105968493Y-73340231D01*
X106054557Y-73214381D01*
X106130583Y-73103165D01*
X106211425Y-72982990D01*
X106283423Y-72873927D01*
X106344123Y-72779785D01*
X106391073Y-72704375D01*
X106421823Y-72651506D01*
X106433919Y-72624987D01*
X106433120Y-72606991D01*
X106421222Y-72557174D01*
X106396056Y-72478961D01*
X106357169Y-72371056D01*
X106304107Y-72232164D01*
X106236417Y-72060987D01*
X106219214Y-72018102D01*
X106167531Y-71890352D01*
X106119896Y-71774181D01*
X106078208Y-71674119D01*
X106044367Y-71594697D01*
X106020272Y-71540444D01*
X106007824Y-71515890D01*
X106003058Y-71511454D01*
X105979522Y-71500136D01*
X105935993Y-71486411D01*
X105869753Y-71469662D01*
X105778085Y-71449269D01*
X105658271Y-71424613D01*
X105507594Y-71395076D01*
X105323334Y-71360039D01*
X105172950Y-71331548D01*
X105031062Y-71304277D01*
X104904010Y-71279466D01*
X104796065Y-71257966D01*
X104711500Y-71240627D01*
X104654586Y-71228301D01*
X104629594Y-71221839D01*
X104628517Y-71221355D01*
X104620626Y-71215286D01*
X104614186Y-71203014D01*
X104609053Y-71181139D01*
X104605079Y-71146259D01*
X104602118Y-71094974D01*
X104600023Y-71023883D01*
X104598649Y-70929584D01*
X104597848Y-70808677D01*
X104597475Y-70657760D01*
X104597384Y-70473434D01*
X104597384Y-69738776D01*
X104638797Y-69721375D01*
X104662881Y-69714833D01*
X104719753Y-69702235D01*
X104804395Y-69684743D01*
X104912419Y-69663230D01*
X105039438Y-69638568D01*
X105181064Y-69611630D01*
X105332911Y-69583290D01*
X105474106Y-69556761D01*
X105616263Y-69529150D01*
X105743968Y-69503417D01*
X105852865Y-69480482D01*
X105938595Y-69461264D01*
X105996802Y-69446683D01*
X106023128Y-69437658D01*
X106032670Y-69426199D01*
X106057177Y-69383677D01*
X106091548Y-69315662D01*
X106133496Y-69227435D01*
X106180736Y-69124274D01*
X106230980Y-69011458D01*
X106281942Y-68894266D01*
X106331337Y-68777977D01*
X106376878Y-68667869D01*
X106416279Y-68569222D01*
X106447252Y-68487315D01*
X106467513Y-68427425D01*
X106474775Y-68394833D01*
X106474727Y-68393758D01*
X106462353Y-68361768D01*
X106428266Y-68300578D01*
X106372678Y-68210527D01*
X106295804Y-68091951D01*
X106197857Y-67945187D01*
X106079050Y-67770572D01*
X106067213Y-67753287D01*
X105979123Y-67623578D01*
X105898295Y-67502716D01*
X105827020Y-67394264D01*
X105767593Y-67301784D01*
X105722307Y-67228837D01*
X105693453Y-67178987D01*
X105683326Y-67155795D01*
X105690906Y-67142075D01*
X105721469Y-67104166D01*
X105772250Y-67046790D01*
X105839789Y-66973466D01*
X105920626Y-66887718D01*
X106011301Y-66793067D01*
X106108354Y-66693035D01*
X106208325Y-66591144D01*
X106307755Y-66490916D01*
X106403183Y-66395873D01*
X106491150Y-66309537D01*
X106568196Y-66235429D01*
X106630860Y-66177071D01*
X106675684Y-66137986D01*
X106699208Y-66121696D01*
X106703477Y-66120317D01*
X106713724Y-66117664D01*
X106725297Y-66117718D01*
X106741098Y-66122289D01*
X106764033Y-66133188D01*
X106797005Y-66152225D01*
X106842918Y-66181209D01*
X106904677Y-66221951D01*
X106985185Y-66276260D01*
X107087347Y-66345947D01*
X107214068Y-66432823D01*
X107368250Y-66538696D01*
X107457242Y-66599619D01*
X107610455Y-66703323D01*
X107735842Y-66786356D01*
X107834607Y-66849477D01*
X107907957Y-66893448D01*
X107957098Y-66919032D01*
X107983235Y-66926989D01*
X107991784Y-66925505D01*
X108033509Y-66912637D01*
X108100961Y-66888425D01*
X108188681Y-66855108D01*
X108291209Y-66814923D01*
X108403083Y-66770107D01*
X108518843Y-66722899D01*
X108633029Y-66675536D01*
X108740181Y-66630256D01*
X108834839Y-66589296D01*
X108911541Y-66554895D01*
X108964829Y-66529289D01*
X108989240Y-66514717D01*
X108990277Y-66513212D01*
X108999821Y-66484404D01*
X109014883Y-66424177D01*
X109034592Y-66336624D01*
X109058076Y-66225838D01*
X109084464Y-66095909D01*
X109112885Y-65950932D01*
X109142468Y-65794997D01*
X109147317Y-65769065D01*
X109176679Y-65613976D01*
X109204538Y-65470009D01*
X109230041Y-65341346D01*
X109252337Y-65232168D01*
X109270574Y-65146658D01*
X109283900Y-65088997D01*
X109291465Y-65063367D01*
X109294036Y-65058964D01*
X109301540Y-65050775D01*
X109314615Y-65044155D01*
X109336731Y-65038936D01*
X109371360Y-65034952D01*
X109421974Y-65032037D01*
X109492043Y-65030026D01*
X109585038Y-65028751D01*
X109704432Y-65028046D01*
X109853694Y-65027745D01*
X110036297Y-65027682D01*
X110131968Y-65027693D01*
G37*
G36*
X108276341Y-79478225D02*
G01*
X108214706Y-79578337D01*
X108124271Y-79660148D01*
X108007296Y-79719344D01*
X108005831Y-79719864D01*
X107916694Y-79740704D01*
X107809864Y-79750256D01*
X107702536Y-79747922D01*
X107611905Y-79733103D01*
X107607546Y-79731832D01*
X107544616Y-79704520D01*
X107487665Y-79667150D01*
X107431876Y-79620206D01*
X107431876Y-79733913D01*
X107137384Y-79733913D01*
X107137480Y-79217353D01*
X107431876Y-79217353D01*
X107431908Y-79224584D01*
X107440627Y-79318357D01*
X107466359Y-79384734D01*
X107511346Y-79429711D01*
X107513789Y-79431214D01*
X107558849Y-79447268D01*
X107626141Y-79460210D01*
X107702283Y-79468532D01*
X107773896Y-79470731D01*
X107827601Y-79465300D01*
X107854957Y-79458879D01*
X107906294Y-79447439D01*
X107962682Y-79422041D01*
X108005334Y-79368957D01*
X108020277Y-79296776D01*
X108019907Y-79281829D01*
X108011388Y-79225614D01*
X107988374Y-79184335D01*
X107946453Y-79155888D01*
X107881217Y-79138172D01*
X107788256Y-79129084D01*
X107663159Y-79126522D01*
X107431876Y-79126522D01*
X107431876Y-79217353D01*
X107137480Y-79217353D01*
X107137486Y-79186341D01*
X107137751Y-79084019D01*
X107139314Y-78924980D01*
X107142193Y-78790517D01*
X107146289Y-78683687D01*
X107151501Y-78607544D01*
X107157730Y-78565145D01*
X107161104Y-78554014D01*
X107204653Y-78472291D01*
X107275039Y-78396283D01*
X107363595Y-78333763D01*
X107461658Y-78292504D01*
X107522025Y-78279013D01*
X107638816Y-78265376D01*
X107764054Y-78262632D01*
X107883222Y-78270851D01*
X107981806Y-78290097D01*
X107995385Y-78294600D01*
X108053477Y-78321372D01*
X108114304Y-78358303D01*
X108168880Y-78398887D01*
X108208216Y-78436615D01*
X108223326Y-78464979D01*
X108223016Y-78466366D01*
X108205733Y-78486782D01*
X108167224Y-78521435D01*
X108114811Y-78563668D01*
X108098607Y-78576083D01*
X108048080Y-78612911D01*
X108016666Y-78630035D01*
X107996914Y-78630440D01*
X107981369Y-78617110D01*
X107949841Y-78589602D01*
X107878516Y-78557781D01*
X107789823Y-78540352D01*
X107693899Y-78537350D01*
X107600877Y-78548812D01*
X107520895Y-78574774D01*
X107464087Y-78615271D01*
X107454366Y-78628725D01*
X107437213Y-78679860D01*
X107431876Y-78758757D01*
X107431876Y-78865465D01*
X107703362Y-78872072D01*
X107733498Y-78872844D01*
X107838451Y-78876604D01*
X107915868Y-78881946D01*
X107973226Y-78889815D01*
X108018002Y-78901159D01*
X108057674Y-78916924D01*
X108159827Y-78980485D01*
X108240101Y-79069398D01*
X108290283Y-79178540D01*
X108304174Y-79240374D01*
X108305424Y-79296776D01*
X108306917Y-79364132D01*
X108276341Y-79478225D01*
G37*
G36*
X106211195Y-78266041D02*
G01*
X106335391Y-78298298D01*
X106447204Y-78361462D01*
X106511587Y-78410569D01*
X106511587Y-78279855D01*
X106806079Y-78279855D01*
X106806079Y-79733913D01*
X106511587Y-79733913D01*
X106511558Y-79250761D01*
X106511462Y-79154149D01*
X106510811Y-79025518D01*
X106509307Y-78926132D01*
X106506674Y-78851323D01*
X106502636Y-78796422D01*
X106496920Y-78756763D01*
X106489249Y-78727677D01*
X106479348Y-78704497D01*
X106450178Y-78659062D01*
X106380299Y-78597240D01*
X106294942Y-78563266D01*
X106202135Y-78559653D01*
X106109903Y-78588910D01*
X106037834Y-78626474D01*
X105931563Y-78497295D01*
X105929268Y-78494503D01*
X105879308Y-78431482D01*
X105851512Y-78389931D01*
X105843012Y-78364621D01*
X105850939Y-78350323D01*
X105957010Y-78294832D01*
X106082456Y-78264837D01*
X106211195Y-78266041D01*
G37*
G36*
X107787024Y-75964596D02*
G01*
X107938036Y-75969928D01*
X107937941Y-76512899D01*
X107937937Y-76531821D01*
X107937787Y-76684082D01*
X107937214Y-76804644D01*
X107935911Y-76898114D01*
X107933571Y-76969097D01*
X107929885Y-77022198D01*
X107924547Y-77062023D01*
X107917249Y-77093178D01*
X107907682Y-77120268D01*
X107895541Y-77147899D01*
X107868571Y-77199572D01*
X107785390Y-77306362D01*
X107678943Y-77385247D01*
X107551514Y-77434324D01*
X107523241Y-77440159D01*
X107400658Y-77443110D01*
X107275747Y-77412567D01*
X107155178Y-77349951D01*
X107063760Y-77288432D01*
X107063760Y-77433189D01*
X106769268Y-77433189D01*
X106769268Y-75960725D01*
X107063760Y-75960725D01*
X107063760Y-76435376D01*
X107063776Y-76498541D01*
X107064070Y-76630039D01*
X107065022Y-76731686D01*
X107067000Y-76808428D01*
X107070372Y-76865213D01*
X107075508Y-76906989D01*
X107082774Y-76938702D01*
X107092540Y-76965300D01*
X107105174Y-76991730D01*
X107118866Y-77016484D01*
X107179866Y-77087852D01*
X107259709Y-77128855D01*
X107361813Y-77141489D01*
X107376193Y-77141173D01*
X107458272Y-77127509D01*
X107524906Y-77089496D01*
X107587188Y-77021214D01*
X107593477Y-77012378D01*
X107603444Y-76994386D01*
X107611190Y-76970939D01*
X107617064Y-76937557D01*
X107621415Y-76889760D01*
X107624592Y-76823070D01*
X107626945Y-76733007D01*
X107628823Y-76615092D01*
X107630575Y-76464845D01*
X107636012Y-75959263D01*
X107787024Y-75964596D01*
G37*
G36*
X104230859Y-76675345D02*
G01*
X104229084Y-76785770D01*
X104221832Y-76886913D01*
X104209206Y-76965200D01*
X104172099Y-77079353D01*
X104100276Y-77208849D01*
X104003853Y-77311600D01*
X103883906Y-77386530D01*
X103741514Y-77432562D01*
X103732745Y-77434290D01*
X103573832Y-77446450D01*
X103416767Y-77423961D01*
X103268186Y-77368474D01*
X103134721Y-77281638D01*
X103115638Y-77265253D01*
X103082723Y-77232825D01*
X103069702Y-77213215D01*
X103069793Y-77212506D01*
X103084783Y-77192523D01*
X103120461Y-77156954D01*
X103169644Y-77113002D01*
X103269586Y-77027619D01*
X103336202Y-77072826D01*
X103346656Y-77079675D01*
X103408962Y-77114340D01*
X103468283Y-77139639D01*
X103497313Y-77147202D01*
X103578024Y-77155232D01*
X103664972Y-77150649D01*
X103744157Y-77134745D01*
X103801580Y-77108817D01*
X103847412Y-77061831D01*
X103890673Y-76994213D01*
X103922431Y-76921555D01*
X103934775Y-76858709D01*
X103934775Y-76807392D01*
X103028918Y-76807392D01*
X103036464Y-76600326D01*
X103038742Y-76568116D01*
X103323287Y-76568116D01*
X103934775Y-76568116D01*
X103934775Y-76515794D01*
X103925826Y-76461204D01*
X103892807Y-76385649D01*
X103843722Y-76317370D01*
X103787357Y-76270961D01*
X103784710Y-76269572D01*
X103713413Y-76245789D01*
X103629487Y-76236812D01*
X103609321Y-76237390D01*
X103510349Y-76259741D01*
X103429795Y-76312594D01*
X103370656Y-76393271D01*
X103335929Y-76499095D01*
X103323287Y-76568116D01*
X103038742Y-76568116D01*
X103045902Y-76466891D01*
X103065858Y-76357995D01*
X103099331Y-76268842D01*
X103149444Y-76191176D01*
X103219318Y-76116739D01*
X103330019Y-76033140D01*
X103461978Y-75974499D01*
X103602430Y-75950131D01*
X103747064Y-75961303D01*
X103872475Y-76000451D01*
X103991722Y-76072118D01*
X104088674Y-76172654D01*
X104162670Y-76301358D01*
X104213051Y-76457526D01*
X104217567Y-76480954D01*
X104226936Y-76568116D01*
X104227054Y-76569215D01*
X104230859Y-76675345D01*
G37*
G36*
X114218034Y-76747349D02*
G01*
X114202515Y-76899414D01*
X114166774Y-77041841D01*
X114110726Y-77167647D01*
X114034280Y-77269849D01*
X113966080Y-77327279D01*
X113851022Y-77391829D01*
X113724234Y-77432582D01*
X113642413Y-77441697D01*
X113528664Y-77438621D01*
X113411959Y-77421980D01*
X113308556Y-77393310D01*
X113267422Y-77374718D01*
X113193229Y-77330393D01*
X113128502Y-77280223D01*
X113044616Y-77203116D01*
X113150197Y-77115990D01*
X113174217Y-77096291D01*
X113220574Y-77060572D01*
X113250446Y-77044320D01*
X113271989Y-77044160D01*
X113293356Y-77056715D01*
X113302389Y-77063261D01*
X113413141Y-77123078D01*
X113530533Y-77153233D01*
X113646823Y-77152659D01*
X113754271Y-77120289D01*
X113828458Y-77065486D01*
X113885147Y-76981987D01*
X113918504Y-76876413D01*
X113930791Y-76807392D01*
X113008833Y-76807392D01*
X113008972Y-76692355D01*
X113010429Y-76620615D01*
X113015771Y-76568116D01*
X113321731Y-76568116D01*
X113928202Y-76568116D01*
X113917403Y-76508297D01*
X113897117Y-76433455D01*
X113849364Y-76342880D01*
X113783756Y-76278468D01*
X113736439Y-76255133D01*
X113647733Y-76237312D01*
X113553772Y-76242472D01*
X113469149Y-76270961D01*
X113424872Y-76304770D01*
X113373430Y-76369489D01*
X113336121Y-76444695D01*
X113321731Y-76515794D01*
X113321731Y-76568116D01*
X113015771Y-76568116D01*
X113026464Y-76463031D01*
X113061542Y-76331095D01*
X113117340Y-76219698D01*
X113195533Y-76123735D01*
X113276124Y-76056974D01*
X113396630Y-75993835D01*
X113527174Y-75959294D01*
X113661255Y-75953465D01*
X113792374Y-75976460D01*
X113914030Y-76028393D01*
X114019725Y-76109376D01*
X114079652Y-76182349D01*
X114144141Y-76303145D01*
X114188760Y-76442232D01*
X114209401Y-76568116D01*
X114213420Y-76592627D01*
X114218034Y-76747349D01*
G37*
G36*
X105938350Y-75977785D02*
G01*
X106034980Y-76020589D01*
X106109191Y-76083627D01*
X106111500Y-76086390D01*
X106127024Y-76099164D01*
X106136176Y-76086192D01*
X106143471Y-76041992D01*
X106152674Y-75969928D01*
X106304521Y-75964582D01*
X106456369Y-75959236D01*
X106456369Y-77434677D01*
X106304521Y-77429332D01*
X106152674Y-77423986D01*
X106143471Y-76917826D01*
X106142038Y-76839939D01*
X106139043Y-76698441D01*
X106135426Y-76587291D01*
X106130326Y-76502091D01*
X106122878Y-76438442D01*
X106112221Y-76391946D01*
X106097492Y-76358202D01*
X106077828Y-76332813D01*
X106052367Y-76311379D01*
X106020245Y-76289502D01*
X105971385Y-76268200D01*
X105891567Y-76256272D01*
X105807099Y-76261910D01*
X105733680Y-76285341D01*
X105675428Y-76315465D01*
X105604732Y-76234725D01*
X105575956Y-76201286D01*
X105530937Y-76146966D01*
X105498118Y-76104950D01*
X105462200Y-76055915D01*
X105522740Y-76018499D01*
X105603631Y-75980734D01*
X105713709Y-75956862D01*
X105828271Y-75956211D01*
X105938350Y-75977785D01*
G37*
G36*
X110254637Y-75951521D02*
G01*
X110334186Y-75967117D01*
X110468895Y-76014042D01*
X110573702Y-76082276D01*
X110648506Y-76171716D01*
X110693207Y-76282259D01*
X110707704Y-76413802D01*
X110706736Y-76435968D01*
X110694671Y-76511352D01*
X110673321Y-76577319D01*
X110655811Y-76611543D01*
X110603610Y-76682039D01*
X110533994Y-76736389D01*
X110442272Y-76776927D01*
X110323755Y-76805987D01*
X110173751Y-76825903D01*
X110120972Y-76831410D01*
X110019854Y-76846126D01*
X109948582Y-76865012D01*
X109902267Y-76890340D01*
X109876016Y-76924382D01*
X109864940Y-76969412D01*
X109865376Y-77015619D01*
X109890402Y-77078056D01*
X109946320Y-77122209D01*
X110033679Y-77148438D01*
X110153029Y-77157102D01*
X110158035Y-77157090D01*
X110288797Y-77145783D01*
X110403125Y-77110336D01*
X110515220Y-77046411D01*
X110598014Y-76989447D01*
X110698843Y-77077876D01*
X110704943Y-77083247D01*
X110752937Y-77127208D01*
X110786931Y-77161311D01*
X110799905Y-77178562D01*
X110799158Y-77182235D01*
X110778138Y-77207430D01*
X110733948Y-77243092D01*
X110674317Y-77283855D01*
X110606973Y-77324354D01*
X110539643Y-77359227D01*
X110477902Y-77385054D01*
X110393932Y-77413554D01*
X110321587Y-77431525D01*
X110284507Y-77437178D01*
X110136378Y-77443986D01*
X109993792Y-77426943D01*
X109862512Y-77388178D01*
X109748303Y-77329821D01*
X109656927Y-77254000D01*
X109594149Y-77162844D01*
X109569236Y-77081893D01*
X109561469Y-76976537D01*
X109574233Y-76869330D01*
X109607037Y-76775047D01*
X109610569Y-76768301D01*
X109654912Y-76701023D01*
X109711050Y-76648351D01*
X109783942Y-76608158D01*
X109878549Y-76578320D01*
X109999832Y-76556710D01*
X110152750Y-76541203D01*
X110153050Y-76541180D01*
X110228215Y-76532129D01*
X110295777Y-76518453D01*
X110341143Y-76503101D01*
X110380097Y-76473838D01*
X110407727Y-76421819D01*
X110406252Y-76363727D01*
X110376449Y-76308014D01*
X110319094Y-76263132D01*
X110263079Y-76244132D01*
X110171221Y-76235452D01*
X110068205Y-76243703D01*
X109965552Y-76267760D01*
X109874784Y-76306499D01*
X109772611Y-76364162D01*
X109688186Y-76265341D01*
X109685605Y-76262313D01*
X109644292Y-76211669D01*
X109614987Y-76171781D01*
X109603886Y-76151050D01*
X109605346Y-76145956D01*
X109629316Y-76120751D01*
X109676526Y-76087351D01*
X109738959Y-76051007D01*
X109808596Y-76016969D01*
X109875712Y-75993581D01*
X109972963Y-75970962D01*
X110077907Y-75955037D01*
X110176484Y-75947869D01*
X110254637Y-75951521D01*
G37*
G36*
X80337700Y-77407487D02*
G01*
X80074487Y-77407487D01*
X80074487Y-76881062D01*
X80337700Y-76881062D01*
X80337700Y-77407487D01*
G37*
G36*
X80864125Y-78460337D02*
G01*
X80600912Y-78460337D01*
X80600912Y-72669664D01*
X80864125Y-72669664D01*
X80864125Y-78460337D01*
G37*
G36*
X77968788Y-78460337D02*
G01*
X77705575Y-78460337D01*
X77705575Y-77933912D01*
X77968788Y-77933912D01*
X77968788Y-78460337D01*
G37*
G36*
X77968788Y-76354638D02*
G01*
X77705575Y-76354638D01*
X77705575Y-75301788D01*
X77442363Y-75301788D01*
X77442363Y-74775363D01*
X77968788Y-74775363D01*
X77968788Y-76354638D01*
G37*
G36*
X79548062Y-75828213D02*
G01*
X79548062Y-76881062D01*
X79284850Y-76881062D01*
X79284850Y-76354638D01*
X79021638Y-76354638D01*
X79021638Y-75828213D01*
X79284850Y-75828213D01*
X79284850Y-75301788D01*
X79548062Y-75301788D01*
X79811275Y-75301788D01*
X79811275Y-74775363D01*
X79548062Y-74775363D01*
X79548062Y-75301788D01*
X79284850Y-75301788D01*
X79021638Y-75301788D01*
X79021638Y-74775363D01*
X79284850Y-74775363D01*
X79284850Y-74248938D01*
X79811275Y-74248938D01*
X79811275Y-73722513D01*
X80337700Y-73722513D01*
X80337700Y-75301788D01*
X80074487Y-75301788D01*
X80074487Y-75828213D01*
X79548062Y-75828213D01*
G37*
G36*
X73757389Y-77933912D02*
G01*
X74020601Y-77933912D01*
X74020601Y-78460337D01*
X73494176Y-78460337D01*
X73494176Y-72669664D01*
X73757389Y-72669664D01*
X73757389Y-77933912D01*
G37*
G36*
X81916974Y-73722513D02*
G01*
X81653762Y-73722513D01*
X81653762Y-75301788D01*
X81390549Y-75301788D01*
X81390549Y-78460337D01*
X81127337Y-78460337D01*
X81127337Y-72669664D01*
X81916974Y-72669664D01*
X81916974Y-73722513D01*
G37*
G36*
X82706612Y-73196088D02*
G01*
X82443399Y-73196088D01*
X82443399Y-74248938D01*
X82706612Y-74248938D01*
X82706612Y-76354638D01*
X82443399Y-76354638D01*
X82443399Y-77407487D01*
X82180187Y-77407487D01*
X82180187Y-78460337D01*
X81653762Y-78460337D01*
X81653762Y-77933912D01*
X81916974Y-77933912D01*
X81916974Y-76881062D01*
X82180187Y-76881062D01*
X82180187Y-75828213D01*
X82443399Y-75828213D01*
X82443399Y-74775363D01*
X82180187Y-74775363D01*
X82180187Y-72669664D01*
X82706612Y-72669664D01*
X82706612Y-73196088D01*
G37*
G36*
X78758425Y-74248938D02*
G01*
X78758425Y-74775363D01*
X77968788Y-74775363D01*
X77968788Y-73722513D01*
X78232000Y-73722513D01*
X78232000Y-73196088D01*
X77968788Y-73196088D01*
X77968788Y-73722513D01*
X77705575Y-73722513D01*
X77705575Y-73196088D01*
X77968788Y-73196088D01*
X77968788Y-72669664D01*
X78758425Y-72669664D01*
X78758425Y-73196088D01*
X79021638Y-73196088D01*
X79021638Y-73722513D01*
X78495213Y-73722513D01*
X78495213Y-74248938D01*
X78758425Y-74248938D01*
G37*
G36*
X78495213Y-76354638D02*
G01*
X78232000Y-76354638D01*
X78232000Y-75828213D01*
X78495213Y-75828213D01*
X78495213Y-76354638D01*
G37*
G36*
X77705575Y-77933912D02*
G01*
X77442363Y-77933912D01*
X77442363Y-77407487D01*
X77179150Y-77407487D01*
X77179150Y-76881062D01*
X77442363Y-76881062D01*
X77442363Y-76354638D01*
X77705575Y-76354638D01*
X77705575Y-77933912D01*
G37*
G36*
X80074487Y-77933912D02*
G01*
X79811275Y-77933912D01*
X79811275Y-78460337D01*
X79548062Y-78460337D01*
X79548062Y-77933912D01*
X79284850Y-77933912D01*
X79284850Y-77407487D01*
X80074487Y-77407487D01*
X80074487Y-77933912D01*
G37*
G36*
X75336663Y-73196088D02*
G01*
X75073451Y-73196088D01*
X75073451Y-74248938D01*
X75336663Y-74248938D01*
X75336663Y-74775363D01*
X75599876Y-74775363D01*
X75599876Y-76354638D01*
X75336663Y-76354638D01*
X75336663Y-76881062D01*
X75073451Y-76881062D01*
X75073451Y-78460337D01*
X74810239Y-78460337D01*
X74810239Y-75301788D01*
X74547026Y-75301788D01*
X74547026Y-73722513D01*
X74810239Y-73722513D01*
X74810239Y-72669664D01*
X75336663Y-72669664D01*
X75336663Y-73196088D01*
G37*
G36*
X74283814Y-75828213D02*
G01*
X74547026Y-75828213D01*
X74547026Y-78460337D01*
X74283814Y-78460337D01*
X74283814Y-77407487D01*
X74020601Y-77407487D01*
X74020601Y-72669664D01*
X74283814Y-72669664D01*
X74283814Y-75828213D01*
G37*
G36*
X76915938Y-75828213D02*
G01*
X76915938Y-75301788D01*
X76389513Y-75301788D01*
X76389513Y-75828213D01*
X76915938Y-75828213D01*
X76915938Y-76354638D01*
X76652726Y-76354638D01*
X76652726Y-76881062D01*
X76915938Y-76881062D01*
X76915938Y-77933912D01*
X77179150Y-77933912D01*
X77179150Y-78460337D01*
X76126301Y-78460337D01*
X76126301Y-74248938D01*
X76389513Y-74248938D01*
X76652726Y-74248938D01*
X76652726Y-74775363D01*
X76915938Y-74775363D01*
X76915938Y-73722513D01*
X76389513Y-73722513D01*
X76389513Y-74248938D01*
X76126301Y-74248938D01*
X76126301Y-72669664D01*
X76652726Y-72669664D01*
X76652726Y-73196088D01*
X76915938Y-73196088D01*
X76915938Y-72669664D01*
X77442363Y-72669664D01*
X77442363Y-73722513D01*
X77179150Y-73722513D01*
X77179150Y-74248938D01*
X77442363Y-74248938D01*
X77442363Y-74775363D01*
X77179150Y-74775363D01*
X77179150Y-75828213D01*
X76915938Y-75828213D01*
G37*
G36*
X80337700Y-73196088D02*
G01*
X79548062Y-73196088D01*
X79548062Y-73722513D01*
X79284850Y-73722513D01*
X79284850Y-72669664D01*
X80337700Y-72669664D01*
X80337700Y-73196088D01*
G37*
G36*
X79021638Y-77933912D02*
G01*
X79284850Y-77933912D01*
X79284850Y-78460337D01*
X78758425Y-78460337D01*
X78758425Y-77933912D01*
X77968788Y-77933912D01*
X77968788Y-76881062D01*
X78495213Y-76881062D01*
X78495213Y-76354638D01*
X79021638Y-76354638D01*
X79021638Y-77933912D01*
G37*
%TD*%
%LPC*%
D12*
%TO.C,J1*%
X71412500Y-88123000D03*
D13*
X71412500Y-85583000D03*
X71412500Y-83043000D03*
%TD*%
D14*
%TO.C,REF\u002A\u002A*%
X67524226Y-88161726D03*
X65190774Y-88161726D03*
X65190774Y-85828274D03*
X64707500Y-86995000D03*
D15*
X66357500Y-86995000D03*
D14*
X66357500Y-85345000D03*
X66357500Y-88645000D03*
X67524226Y-85828274D03*
X68007500Y-86995000D03*
%TD*%
%TO.C,REF\u002A\u002A*%
X64707500Y-66675000D03*
X68007500Y-66675000D03*
X66357500Y-68325000D03*
X65190774Y-67841726D03*
X66357500Y-65025000D03*
D15*
X66357500Y-66675000D03*
D14*
X67524226Y-67841726D03*
X67524226Y-65508274D03*
X65190774Y-65508274D03*
%TD*%
D12*
%TO.C,J2*%
X98107500Y-88158000D03*
D13*
X98107500Y-85618000D03*
X95567500Y-88158000D03*
X95567500Y-85618000D03*
X93027500Y-88158000D03*
X93027500Y-85618000D03*
X90487500Y-88158000D03*
X90487500Y-85618000D03*
X87947500Y-88158000D03*
X87947500Y-85618000D03*
%TD*%
D16*
%TO.C,K1*%
X110045500Y-82414000D03*
D17*
X116095500Y-80464000D03*
D16*
X116095500Y-68264000D03*
X104045500Y-68214000D03*
D17*
X104095500Y-80464000D03*
%TD*%
D12*
%TO.C,J3*%
X83883500Y-88138000D03*
D13*
X83883500Y-85598000D03*
X81343500Y-88138000D03*
X81343500Y-85598000D03*
X78803500Y-88138000D03*
X78803500Y-85598000D03*
X76263500Y-88138000D03*
X76263500Y-85598000D03*
%TD*%
D12*
%TO.C,J4*%
X116507500Y-88290000D03*
D13*
X113967500Y-88290000D03*
X111427500Y-88290000D03*
%TD*%
D18*
%TO.C,JP1*%
X94932500Y-77363000D03*
X94932500Y-79903000D03*
%TD*%
M02*
