M48
; DRILL file {KiCad (6.0.7)} date Mon 05 Sep 2022 08:23:25 PM PDT
; FORMAT={-:-/ absolute / inch / decimal}
; #@! TF.CreationDate,2022-09-05T20:23:25-07:00
; #@! TF.GenerationSoftware,Kicad,Pcbnew,(6.0.7)
; #@! TF.FileFunction,Plated,1,2,PTH
FMAT,2
INCH
; #@! TA.AperFunction,Plated,PTH,ViaDrill
T1C0.0157
; #@! TA.AperFunction,Plated,PTH,ComponentDrill
T2C0.0157
; #@! TA.AperFunction,Plated,PTH,ComponentDrill
T3C0.0315
; #@! TA.AperFunction,Plated,PTH,ComponentDrill
T4C0.0394
; #@! TA.AperFunction,Plated,PTH,ComponentDrill
T5C0.0512
; #@! TA.AperFunction,Plated,PTH,ComponentDrill
T6C0.0866
%
G90
G05
T1
X2.8021Y-2.7904
X2.8425Y-2.75
X2.8725Y-3.0
X2.9025Y-3.47
X3.0925Y-2.82
X3.1125Y-2.71
X3.1225Y-2.54
X3.1361Y-3.1307
X3.1825Y-2.71
X3.1925Y-2.56
X3.3323Y-2.9698
X3.3325Y-3.13
X3.3625Y-2.61
X3.3625Y-2.9385
X3.3625Y-3.1
X3.3925Y-3.13
X3.4025Y-2.78
X3.4321Y-2.9433
X3.4725Y-3.06
X3.4925Y-2.9669
X3.5125Y-2.92
X3.5125Y-3.07
X3.5371Y-2.8121
X3.62Y-2.54
X3.6525Y-2.83
X3.711Y-2.9602
X3.8325Y-2.849
X3.8506Y-3.1174
X3.925Y-3.1
X4.2825Y-3.46
T2
X2.5475Y-2.625
X2.5475Y-3.425
X2.5666Y-2.5791
X2.5666Y-2.6709
X2.5666Y-3.3791
X2.5666Y-3.4709
X2.6125Y-2.56
X2.6125Y-2.69
X2.6125Y-3.36
X2.6125Y-3.49
X2.6584Y-2.5791
X2.6584Y-2.6709
X2.6584Y-3.3791
X2.6584Y-3.4709
X2.6775Y-2.625
X2.6775Y-3.425
T3
X3.7375Y-3.0458
X3.7375Y-3.1458
T4
X2.8115Y-3.2694
X2.8115Y-3.3694
X2.8115Y-3.4694
X3.0025Y-3.37
X3.0025Y-3.47
X3.1025Y-3.37
X3.1025Y-3.47
X3.2025Y-3.37
X3.2025Y-3.47
X3.3025Y-3.37
X3.3025Y-3.47
X3.4625Y-3.3708
X3.4625Y-3.4708
X3.5625Y-3.3708
X3.5625Y-3.4708
X3.6625Y-3.3708
X3.6625Y-3.4708
X3.7625Y-3.3708
X3.7625Y-3.4708
X3.8625Y-3.3708
X3.8625Y-3.4708
X4.0982Y-3.1679
X4.3869Y-3.476
X4.4869Y-3.476
X4.5707Y-3.1679
X4.5869Y-3.476
T5
X4.0963Y-2.6856
X4.3325Y-3.2446
X4.5707Y-2.6876
T6
X2.6125Y-2.625
X2.6125Y-3.425
T0
M30
