%TF.GenerationSoftware,KiCad,Pcbnew,(6.0.7)*%
%TF.CreationDate,2022-09-05T20:23:25-07:00*%
%TF.ProjectId,EB4,4542342e-6b69-4636-9164-5f7063625858,rev?*%
%TF.SameCoordinates,Original*%
%TF.FileFunction,Copper,L1,Top*%
%TF.FilePolarity,Positive*%
%FSLAX46Y46*%
G04 Gerber Fmt 4.6, Leading zero omitted, Abs format (unit mm)*
G04 Created by KiCad (PCBNEW (6.0.7)) date 2022-09-05 20:23:25*
%MOMM*%
%LPD*%
G01*
G04 APERTURE LIST*
G04 Aperture macros list*
%AMRoundRect*
0 Rectangle with rounded corners*
0 $1 Rounding radius*
0 $2 $3 $4 $5 $6 $7 $8 $9 X,Y pos of 4 corners*
0 Add a 4 corners polygon primitive as box body*
4,1,4,$2,$3,$4,$5,$6,$7,$8,$9,$2,$3,0*
0 Add four circle primitives for the rounded corners*
1,1,$1+$1,$2,$3*
1,1,$1+$1,$4,$5*
1,1,$1+$1,$6,$7*
1,1,$1+$1,$8,$9*
0 Add four rect primitives between the rounded corners*
20,1,$1+$1,$2,$3,$4,$5,0*
20,1,$1+$1,$4,$5,$6,$7,0*
20,1,$1+$1,$6,$7,$8,$9,0*
20,1,$1+$1,$8,$9,$2,$3,0*%
%AMFreePoly0*
4,1,6,1.000000,0.000000,0.500000,-0.750000,-0.500000,-0.750000,-0.500000,0.750000,0.500000,0.750000,1.000000,0.000000,1.000000,0.000000,$1*%
%AMFreePoly1*
4,1,6,0.500000,-0.750000,-0.650000,-0.750000,-0.150000,0.000000,-0.650000,0.750000,0.500000,0.750000,0.500000,-0.750000,0.500000,-0.750000,$1*%
G04 Aperture macros list end*
%TA.AperFunction,SMDPad,CuDef*%
%ADD10R,0.600000X0.450000*%
%TD*%
%TA.AperFunction,SMDPad,CuDef*%
%ADD11RoundRect,0.243750X-0.243750X-0.456250X0.243750X-0.456250X0.243750X0.456250X-0.243750X0.456250X0*%
%TD*%
%TA.AperFunction,ComponentPad*%
%ADD12R,1.700000X1.700000*%
%TD*%
%TA.AperFunction,ComponentPad*%
%ADD13O,1.700000X1.700000*%
%TD*%
%TA.AperFunction,ComponentPad*%
%ADD14C,0.700000*%
%TD*%
%TA.AperFunction,ComponentPad*%
%ADD15C,4.400000*%
%TD*%
%TA.AperFunction,SMDPad,CuDef*%
%ADD16RoundRect,0.140000X0.170000X-0.140000X0.170000X0.140000X-0.170000X0.140000X-0.170000X-0.140000X0*%
%TD*%
%TA.AperFunction,SMDPad,CuDef*%
%ADD17RoundRect,0.075000X-0.662500X-0.075000X0.662500X-0.075000X0.662500X0.075000X-0.662500X0.075000X0*%
%TD*%
%TA.AperFunction,SMDPad,CuDef*%
%ADD18RoundRect,0.075000X-0.075000X-0.662500X0.075000X-0.662500X0.075000X0.662500X-0.075000X0.662500X0*%
%TD*%
%TA.AperFunction,SMDPad,CuDef*%
%ADD19RoundRect,0.135000X-0.135000X-0.185000X0.135000X-0.185000X0.135000X0.185000X-0.135000X0.185000X0*%
%TD*%
%TA.AperFunction,SMDPad,CuDef*%
%ADD20RoundRect,0.140000X0.140000X0.170000X-0.140000X0.170000X-0.140000X-0.170000X0.140000X-0.170000X0*%
%TD*%
%TA.AperFunction,SMDPad,CuDef*%
%ADD21RoundRect,0.150000X0.150000X-0.587500X0.150000X0.587500X-0.150000X0.587500X-0.150000X-0.587500X0*%
%TD*%
%TA.AperFunction,SMDPad,CuDef*%
%ADD22RoundRect,0.140000X-0.140000X-0.170000X0.140000X-0.170000X0.140000X0.170000X-0.140000X0.170000X0*%
%TD*%
%TA.AperFunction,SMDPad,CuDef*%
%ADD23FreePoly0,90.000000*%
%TD*%
%TA.AperFunction,SMDPad,CuDef*%
%ADD24FreePoly1,90.000000*%
%TD*%
%TA.AperFunction,ComponentPad*%
%ADD25C,3.000000*%
%TD*%
%TA.AperFunction,ComponentPad*%
%ADD26C,2.500000*%
%TD*%
%TA.AperFunction,SMDPad,CuDef*%
%ADD27RoundRect,0.135000X0.135000X0.185000X-0.135000X0.185000X-0.135000X-0.185000X0.135000X-0.185000X0*%
%TD*%
%TA.AperFunction,SMDPad,CuDef*%
%ADD28R,1.000000X2.800000*%
%TD*%
%TA.AperFunction,ComponentPad*%
%ADD29C,1.400000*%
%TD*%
%TA.AperFunction,SMDPad,CuDef*%
%ADD30R,2.000000X1.500000*%
%TD*%
%TA.AperFunction,SMDPad,CuDef*%
%ADD31R,2.000000X3.800000*%
%TD*%
%TA.AperFunction,SMDPad,CuDef*%
%ADD32RoundRect,0.225000X-0.225000X-0.250000X0.225000X-0.250000X0.225000X0.250000X-0.225000X0.250000X0*%
%TD*%
%TA.AperFunction,SMDPad,CuDef*%
%ADD33R,2.000000X4.500000*%
%TD*%
%TA.AperFunction,ViaPad*%
%ADD34C,0.800000*%
%TD*%
%TA.AperFunction,Conductor*%
%ADD35C,0.250000*%
%TD*%
G04 APERTURE END LIST*
D10*
%TO.P,D4,1,K*%
%TO.N,/VIN*%
X108995500Y-85344000D03*
%TO.P,D4,2,A*%
%TO.N,Net-(D4-Pad2)*%
X111095500Y-85344000D03*
%TD*%
D11*
%TO.P,D2,1,K*%
%TO.N,GND*%
X75072000Y-66802000D03*
%TO.P,D2,2,A*%
%TO.N,Net-(D2-Pad2)*%
X76947000Y-66802000D03*
%TD*%
D12*
%TO.P,J1,1,Pin_1*%
%TO.N,/VIN*%
X71412500Y-88123000D03*
D13*
%TO.P,J1,2,Pin_2*%
%TO.N,GND*%
X71412500Y-85583000D03*
%TO.P,J1,3,Pin_3*%
%TO.N,+3.3V*%
X71412500Y-83043000D03*
%TD*%
D14*
%TO.P,REF\u002A\u002A,1*%
%TO.N,N/C*%
X67524226Y-88161726D03*
X65190774Y-88161726D03*
X65190774Y-85828274D03*
X64707500Y-86995000D03*
D15*
X66357500Y-86995000D03*
D14*
X66357500Y-85345000D03*
X66357500Y-88645000D03*
X67524226Y-85828274D03*
X68007500Y-86995000D03*
%TD*%
D16*
%TO.P,C6,1*%
%TO.N,+3.3V*%
X80835500Y-78740000D03*
%TO.P,C6,2*%
%TO.N,GND*%
X80835500Y-77780000D03*
%TD*%
D14*
%TO.P,REF\u002A\u002A,1*%
%TO.N,N/C*%
X64707500Y-66675000D03*
X68007500Y-66675000D03*
X66357500Y-68325000D03*
X65190774Y-67841726D03*
X66357500Y-65025000D03*
D15*
X66357500Y-66675000D03*
D14*
X67524226Y-67841726D03*
X67524226Y-65508274D03*
X65190774Y-65508274D03*
%TD*%
D17*
%TO.P,U1,1,VDD*%
%TO.N,+3.3V*%
X82515000Y-74085000D03*
%TO.P,U1,2,PC13*%
%TO.N,unconnected-(U1-Pad2)*%
X82515000Y-74585000D03*
%TO.P,U1,3,PC14*%
%TO.N,unconnected-(U1-Pad3)*%
X82515000Y-75085000D03*
%TO.P,U1,4,PC15*%
%TO.N,unconnected-(U1-Pad4)*%
X82515000Y-75585000D03*
%TO.P,U1,5,PF0*%
%TO.N,Net-(C7-Pad1)*%
X82515000Y-76085000D03*
%TO.P,U1,6,PF1*%
%TO.N,Net-(C8-Pad1)*%
X82515000Y-76585000D03*
%TO.P,U1,7,NRST*%
%TO.N,/NRST*%
X82515000Y-77085000D03*
%TO.P,U1,8,VSSA*%
%TO.N,GND*%
X82515000Y-77585000D03*
%TO.P,U1,9,VDDA*%
%TO.N,+3.3V*%
X82515000Y-78085000D03*
%TO.P,U1,10,PA0*%
%TO.N,unconnected-(U1-Pad10)*%
X82515000Y-78585000D03*
%TO.P,U1,11,PA1*%
%TO.N,unconnected-(U1-Pad11)*%
X82515000Y-79085000D03*
%TO.P,U1,12,PA2*%
%TO.N,unconnected-(U1-Pad12)*%
X82515000Y-79585000D03*
D18*
%TO.P,U1,13,PA3*%
%TO.N,unconnected-(U1-Pad13)*%
X83927500Y-80997500D03*
%TO.P,U1,14,PA4*%
%TO.N,unconnected-(U1-Pad14)*%
X84427500Y-80997500D03*
%TO.P,U1,15,PA5*%
%TO.N,/SCK*%
X84927500Y-80997500D03*
%TO.P,U1,16,PA6*%
%TO.N,/MISO*%
X85427500Y-80997500D03*
%TO.P,U1,17,PA7*%
%TO.N,/MOSI*%
X85927500Y-80997500D03*
%TO.P,U1,18,PB0*%
%TO.N,unconnected-(U1-Pad18)*%
X86427500Y-80997500D03*
%TO.P,U1,19,PB1*%
%TO.N,unconnected-(U1-Pad19)*%
X86927500Y-80997500D03*
%TO.P,U1,20,PB2*%
%TO.N,unconnected-(U1-Pad20)*%
X87427500Y-80997500D03*
%TO.P,U1,21,PB10*%
%TO.N,unconnected-(U1-Pad21)*%
X87927500Y-80997500D03*
%TO.P,U1,22,PB11*%
%TO.N,unconnected-(U1-Pad22)*%
X88427500Y-80997500D03*
%TO.P,U1,23,VSS*%
%TO.N,GND*%
X88927500Y-80997500D03*
%TO.P,U1,24,VDD*%
%TO.N,+3.3V*%
X89427500Y-80997500D03*
D17*
%TO.P,U1,25,PB12*%
%TO.N,unconnected-(U1-Pad25)*%
X90840000Y-79585000D03*
%TO.P,U1,26,PB13*%
%TO.N,unconnected-(U1-Pad26)*%
X90840000Y-79085000D03*
%TO.P,U1,27,PB14*%
%TO.N,unconnected-(U1-Pad27)*%
X90840000Y-78585000D03*
%TO.P,U1,28,PB15*%
%TO.N,unconnected-(U1-Pad28)*%
X90840000Y-78085000D03*
%TO.P,U1,29,PA8*%
%TO.N,/CSN*%
X90840000Y-77585000D03*
%TO.P,U1,30,PA9*%
%TO.N,/CE*%
X90840000Y-77085000D03*
%TO.P,U1,31,PA10*%
%TO.N,/PA10*%
X90840000Y-76585000D03*
%TO.P,U1,32,PA11*%
%TO.N,/PA11*%
X90840000Y-76085000D03*
%TO.P,U1,33,PA12*%
%TO.N,/PA12*%
X90840000Y-75585000D03*
%TO.P,U1,34,PA13*%
%TO.N,/SWDIO*%
X90840000Y-75085000D03*
%TO.P,U1,35,PF6*%
%TO.N,unconnected-(U1-Pad35)*%
X90840000Y-74585000D03*
%TO.P,U1,36,PF7*%
%TO.N,unconnected-(U1-Pad36)*%
X90840000Y-74085000D03*
D18*
%TO.P,U1,37,PA14*%
%TO.N,/SWCLK*%
X89427500Y-72672500D03*
%TO.P,U1,38,PA15*%
%TO.N,/IRQ*%
X88927500Y-72672500D03*
%TO.P,U1,39,PB3*%
%TO.N,unconnected-(U1-Pad39)*%
X88427500Y-72672500D03*
%TO.P,U1,40,PB4*%
%TO.N,unconnected-(U1-Pad40)*%
X87927500Y-72672500D03*
%TO.P,U1,41,PB5*%
%TO.N,unconnected-(U1-Pad41)*%
X87427500Y-72672500D03*
%TO.P,U1,42,PB6*%
%TO.N,unconnected-(U1-Pad42)*%
X86927500Y-72672500D03*
%TO.P,U1,43,PB7*%
%TO.N,unconnected-(U1-Pad43)*%
X86427500Y-72672500D03*
%TO.P,U1,44,BOOT0*%
%TO.N,GND*%
X85927500Y-72672500D03*
%TO.P,U1,45,PB8*%
%TO.N,unconnected-(U1-Pad45)*%
X85427500Y-72672500D03*
%TO.P,U1,46,PB9*%
%TO.N,unconnected-(U1-Pad46)*%
X84927500Y-72672500D03*
%TO.P,U1,47,VSS*%
%TO.N,GND*%
X84427500Y-72672500D03*
%TO.P,U1,48,VDD*%
%TO.N,+3.3V*%
X83927500Y-72672500D03*
%TD*%
D16*
%TO.P,C2,1*%
%TO.N,+3.3V*%
X80073500Y-72898000D03*
%TO.P,C2,2*%
%TO.N,GND*%
X80073500Y-71938000D03*
%TD*%
D19*
%TO.P,R1,1*%
%TO.N,Net-(D1-Pad2)*%
X78674500Y-67818000D03*
%TO.P,R1,2*%
%TO.N,+3.3V*%
X79694500Y-67818000D03*
%TD*%
D20*
%TO.P,C10,1*%
%TO.N,+3.3V*%
X95920500Y-73660000D03*
%TO.P,C10,2*%
%TO.N,GND*%
X94960500Y-73660000D03*
%TD*%
D21*
%TO.P,Q1,1,B*%
%TO.N,Net-(Q1-Pad1)*%
X105285500Y-88489000D03*
%TO.P,Q1,2,E*%
%TO.N,GND*%
X107185500Y-88489000D03*
%TO.P,Q1,3,C*%
%TO.N,Net-(D4-Pad2)*%
X106235500Y-86614000D03*
%TD*%
D20*
%TO.P,C7,1*%
%TO.N,Net-(C7-Pad1)*%
X73187500Y-72390000D03*
%TO.P,C7,2*%
%TO.N,GND*%
X72227500Y-72390000D03*
%TD*%
D22*
%TO.P,C9,1*%
%TO.N,/NRST*%
X79875500Y-81280000D03*
%TO.P,C9,2*%
%TO.N,GND*%
X80835500Y-81280000D03*
%TD*%
D20*
%TO.P,C8,1*%
%TO.N,Net-(C8-Pad1)*%
X73187500Y-80010000D03*
%TO.P,C8,2*%
%TO.N,GND*%
X72227500Y-80010000D03*
%TD*%
D23*
%TO.P,JP2,1,A*%
%TO.N,/VIN*%
X92392500Y-69305000D03*
D24*
%TO.P,JP2,2,B*%
%TO.N,Net-(JP2-Pad2)*%
X92392500Y-67855000D03*
%TD*%
D12*
%TO.P,J2,1,Pin_1*%
%TO.N,/NRST*%
X98107500Y-88158000D03*
D13*
%TO.P,J2,2,Pin_2*%
%TO.N,/SWCLK*%
X98107500Y-85618000D03*
%TO.P,J2,3,Pin_3*%
%TO.N,unconnected-(J2-Pad3)*%
X95567500Y-88158000D03*
%TO.P,J2,4,Pin_4*%
%TO.N,/SWDIO*%
X95567500Y-85618000D03*
%TO.P,J2,5,Pin_5*%
%TO.N,GND*%
X93027500Y-88158000D03*
%TO.P,J2,6,Pin_6*%
X93027500Y-85618000D03*
%TO.P,J2,7,Pin_7*%
%TO.N,+3.3V*%
X90487500Y-88158000D03*
%TO.P,J2,8,Pin_8*%
X90487500Y-85618000D03*
%TO.P,J2,9,Pin_9*%
%TO.N,unconnected-(J2-Pad9)*%
X87947500Y-88158000D03*
%TO.P,J2,10,Pin_10*%
%TO.N,unconnected-(J2-Pad10)*%
X87947500Y-85618000D03*
%TD*%
D25*
%TO.P,K1,1*%
%TO.N,/COM*%
X110045500Y-82414000D03*
D26*
%TO.P,K1,2*%
%TO.N,Net-(D4-Pad2)*%
X116095500Y-80464000D03*
D25*
%TO.P,K1,3*%
%TO.N,/NC*%
X116095500Y-68264000D03*
%TO.P,K1,4*%
%TO.N,/NO*%
X104045500Y-68214000D03*
D26*
%TO.P,K1,5*%
%TO.N,/VIN*%
X104095500Y-80464000D03*
%TD*%
D27*
%TO.P,R4,1*%
%TO.N,Net-(Q1-Pad1)*%
X103697500Y-85344000D03*
%TO.P,R4,2*%
%TO.N,/PA12*%
X102677500Y-85344000D03*
%TD*%
D20*
%TO.P,C3,1*%
%TO.N,+3.3V*%
X91602500Y-81407000D03*
%TO.P,C3,2*%
%TO.N,GND*%
X90642500Y-81407000D03*
%TD*%
D16*
%TO.P,C1,1*%
%TO.N,+3.3V*%
X81089500Y-72870000D03*
%TO.P,C1,2*%
%TO.N,GND*%
X81089500Y-71910000D03*
%TD*%
D11*
%TO.P,D3,1,K*%
%TO.N,GND*%
X75072000Y-64897000D03*
%TO.P,D3,2,A*%
%TO.N,Net-(D3-Pad2)*%
X76947000Y-64897000D03*
%TD*%
D19*
%TO.P,R2,1*%
%TO.N,Net-(D2-Pad2)*%
X78674500Y-66802000D03*
%TO.P,R2,2*%
%TO.N,/PA10*%
X79694500Y-66802000D03*
%TD*%
D12*
%TO.P,J3,1,Pin_1*%
%TO.N,+3.3V*%
X83883500Y-88138000D03*
D13*
%TO.P,J3,2,Pin_2*%
%TO.N,GND*%
X83883500Y-85598000D03*
%TO.P,J3,3,Pin_3*%
%TO.N,/CSN*%
X81343500Y-88138000D03*
%TO.P,J3,4,Pin_4*%
%TO.N,/CE*%
X81343500Y-85598000D03*
%TO.P,J3,5,Pin_5*%
%TO.N,/MOSI*%
X78803500Y-88138000D03*
%TO.P,J3,6,Pin_6*%
%TO.N,/SCK*%
X78803500Y-85598000D03*
%TO.P,J3,7,Pin_7*%
%TO.N,/IRQ*%
X76263500Y-88138000D03*
%TO.P,J3,8,Pin_8*%
%TO.N,/MISO*%
X76263500Y-85598000D03*
%TD*%
D16*
%TO.P,C4,1*%
%TO.N,+3.3V*%
X79819500Y-78740000D03*
%TO.P,C4,2*%
%TO.N,GND*%
X79819500Y-77780000D03*
%TD*%
D28*
%TO.P,SW1,1,A*%
%TO.N,/VIN*%
X95091500Y-65553000D03*
X95091500Y-71353000D03*
%TO.P,SW1,2,B*%
%TO.N,Net-(JP2-Pad2)*%
X99091500Y-71353000D03*
X99091500Y-65553000D03*
%TD*%
D12*
%TO.P,J4,1,Pin_1*%
%TO.N,/COM*%
X116507500Y-88290000D03*
D13*
%TO.P,J4,2,Pin_2*%
%TO.N,/NC*%
X113967500Y-88290000D03*
%TO.P,J4,3,Pin_3*%
%TO.N,/NO*%
X111427500Y-88290000D03*
%TD*%
D29*
%TO.P,JP1,1,A*%
%TO.N,GND*%
X94932500Y-77363000D03*
%TO.P,JP1,2,B*%
%TO.N,/NRST*%
X94932500Y-79903000D03*
%TD*%
D20*
%TO.P,C5,1*%
%TO.N,/VIN*%
X95920500Y-75184000D03*
%TO.P,C5,2*%
%TO.N,GND*%
X94960500Y-75184000D03*
%TD*%
D19*
%TO.P,R3,1*%
%TO.N,Net-(D3-Pad2)*%
X78674500Y-65786000D03*
%TO.P,R3,2*%
%TO.N,/PA11*%
X79694500Y-65786000D03*
%TD*%
D11*
%TO.P,D1,1,K*%
%TO.N,GND*%
X75072000Y-68707000D03*
%TO.P,D1,2,A*%
%TO.N,Net-(D1-Pad2)*%
X76947000Y-68707000D03*
%TD*%
D30*
%TO.P,U2,1,GND*%
%TO.N,GND*%
X83273500Y-65264000D03*
%TO.P,U2,2,VO*%
%TO.N,+3.3V*%
X83273500Y-67564000D03*
D31*
X89573500Y-67564000D03*
D30*
%TO.P,U2,3,VI*%
%TO.N,Net-(JP2-Pad2)*%
X83273500Y-69864000D03*
%TD*%
D32*
%TO.P,C11,1*%
%TO.N,GND*%
X79806500Y-82550000D03*
%TO.P,C11,2*%
%TO.N,+3.3V*%
X81356500Y-82550000D03*
%TD*%
D33*
%TO.P,Y1,1,1*%
%TO.N,Net-(C8-Pad1)*%
X76390500Y-81212000D03*
%TO.P,Y1,2,2*%
%TO.N,Net-(C7-Pad1)*%
X76390500Y-72712000D03*
%TD*%
D34*
%TO.N,+3.3V*%
X78549500Y-71628000D03*
X79655925Y-79519275D03*
X91948000Y-64516000D03*
X79057500Y-68834000D03*
X97805987Y-79180945D03*
X97345500Y-72363500D03*
X71172500Y-70877000D03*
%TO.N,GND*%
X86423500Y-70612000D03*
X72961500Y-76200000D03*
X92773500Y-71882000D03*
X108775500Y-87884000D03*
X73723500Y-88138000D03*
X79311500Y-64516000D03*
X94260000Y-75188299D03*
X72199500Y-69850000D03*
X85407500Y-66294000D03*
X99695000Y-78740000D03*
%TO.N,/NRST*%
X87174693Y-74760775D03*
%TO.N,/SWCLK*%
X89217500Y-74168000D03*
%TO.N,/SWDIO*%
X88709500Y-75360500D03*
%TO.N,/PA10*%
X84641201Y-75433701D03*
X80835500Y-68834000D03*
%TO.N,/PA11*%
X85407500Y-74638500D03*
X81089500Y-65024000D03*
%TO.N,/SCK*%
X84645500Y-79502000D03*
%TO.N,/MISO*%
X85407500Y-78740000D03*
%TO.N,/MOSI*%
X86169500Y-79502000D03*
%TO.N,/CSN*%
X89217500Y-77978000D03*
%TO.N,/CE*%
X88201500Y-77724000D03*
%TO.N,/IRQ*%
X89842551Y-71427491D03*
%TD*%
D35*
%TO.N,+3.3V*%
X80073500Y-72898000D02*
X79819500Y-72898000D01*
X97345500Y-72363500D02*
X97217000Y-72363500D01*
X89573500Y-67564000D02*
X89573500Y-66890500D01*
X85058500Y-85111299D02*
X85058500Y-86963000D01*
X89573500Y-67564000D02*
X83273500Y-67564000D01*
X81300000Y-72870000D02*
X82515000Y-74085000D01*
X84391500Y-63754000D02*
X74710666Y-63754000D01*
X81089500Y-72870000D02*
X81300000Y-72870000D01*
X82515000Y-78085000D02*
X81711815Y-78085000D01*
X80073500Y-72898000D02*
X81061500Y-72898000D01*
X97217000Y-72363500D02*
X95920500Y-73660000D01*
X80835500Y-78740000D02*
X79819500Y-78740000D01*
X91602500Y-84503000D02*
X90487500Y-85618000D01*
X86677500Y-66040000D02*
X84391500Y-63754000D01*
X89573500Y-66890500D02*
X91948000Y-64516000D01*
X85058500Y-86963000D02*
X83883500Y-88138000D01*
X74710666Y-63754000D02*
X71172500Y-67292166D01*
X83273500Y-67564000D02*
X86677500Y-67564000D01*
X80835500Y-79223000D02*
X82497201Y-80884701D01*
X82497201Y-82550000D02*
X85058500Y-85111299D01*
X79819500Y-79355700D02*
X79819500Y-78740000D01*
X79057500Y-68455000D02*
X79694500Y-67818000D01*
X79655925Y-79519275D02*
X79819500Y-79355700D01*
X97805987Y-79180945D02*
X97412555Y-79180945D01*
X91602500Y-81407000D02*
X91602500Y-81399391D01*
X80835500Y-78740000D02*
X80835500Y-79223000D01*
X91602500Y-81407000D02*
X91602500Y-84503000D01*
X95186500Y-81407000D02*
X91602500Y-81407000D01*
X91602500Y-81399391D02*
X90975109Y-80772000D01*
X82497201Y-82550000D02*
X81102500Y-82550000D01*
X86677500Y-67564000D02*
X86677500Y-66040000D01*
X82497201Y-80884701D02*
X82497201Y-82550000D01*
X82515000Y-74085000D02*
X83927500Y-72672500D01*
X97412555Y-79180945D02*
X95186500Y-81407000D01*
X81056815Y-78740000D02*
X80835500Y-78740000D01*
X71172500Y-67292166D02*
X71172500Y-70877000D01*
X90975109Y-80772000D02*
X89653000Y-80772000D01*
X79819500Y-72898000D02*
X78549500Y-71628000D01*
X71172500Y-82803000D02*
X71412500Y-83043000D01*
X81061500Y-72898000D02*
X81089500Y-72870000D01*
X81711815Y-78085000D02*
X81056815Y-78740000D01*
X89653000Y-80772000D02*
X89427500Y-80997500D01*
X71172500Y-70877000D02*
X71172500Y-82803000D01*
X79057500Y-68834000D02*
X79057500Y-68455000D01*
%TO.N,GND*%
X79819500Y-77780000D02*
X80835500Y-77780000D01*
X85668185Y-71610000D02*
X84168185Y-71610000D01*
X80708500Y-80645000D02*
X80835500Y-80772000D01*
X79528500Y-64299000D02*
X79311500Y-64516000D01*
X82515000Y-77585000D02*
X86318185Y-77585000D01*
X86318185Y-77585000D02*
X88927500Y-80194315D01*
X81089500Y-71910000D02*
X80101500Y-71910000D01*
X108170500Y-88489000D02*
X108775500Y-87884000D01*
X88927500Y-81800685D02*
X88927500Y-80997500D01*
X107185500Y-88489000D02*
X108170500Y-88489000D01*
X89989500Y-82060000D02*
X89186815Y-82060000D01*
X81389500Y-71610000D02*
X81089500Y-71910000D01*
X84377500Y-65264000D02*
X85407500Y-66294000D01*
X81030500Y-77585000D02*
X82515000Y-77585000D01*
X90642500Y-81407000D02*
X89989500Y-82060000D01*
X85927500Y-71869315D02*
X85668185Y-71610000D01*
X82308500Y-64299000D02*
X79528500Y-64299000D01*
X79819500Y-77780000D02*
X79811891Y-77780000D01*
X80835500Y-77780000D02*
X81030500Y-77585000D01*
X88927500Y-80194315D02*
X88927500Y-80997500D01*
X78745500Y-78846391D02*
X78745500Y-79698000D01*
X79806500Y-82550000D02*
X79957201Y-82550000D01*
X84427500Y-72672500D02*
X84427500Y-71869315D01*
X84427500Y-71869315D02*
X84168185Y-71610000D01*
X79819500Y-82550000D02*
X80835500Y-81534000D01*
X83005201Y-85598000D02*
X83883500Y-85598000D01*
X80835500Y-81280000D02*
X80835500Y-81534000D01*
X94551500Y-73660000D02*
X92773500Y-71882000D01*
X79692500Y-80645000D02*
X80708500Y-80645000D01*
X83273500Y-65264000D02*
X84377500Y-65264000D01*
X89186815Y-82060000D02*
X88927500Y-81800685D01*
X79811891Y-77780000D02*
X78745500Y-78846391D01*
X85927500Y-71108000D02*
X85927500Y-72672500D01*
X83273500Y-65264000D02*
X82308500Y-64299000D01*
X80101500Y-71910000D02*
X80073500Y-71938000D01*
X94960500Y-73660000D02*
X94551500Y-73660000D01*
X94960500Y-75184000D02*
X94264299Y-75184000D01*
X86423500Y-70612000D02*
X85927500Y-71108000D01*
X84168185Y-71610000D02*
X81389500Y-71610000D01*
X85927500Y-72672500D02*
X85927500Y-71869315D01*
X72961500Y-76200000D02*
X72227500Y-76934000D01*
X94264299Y-75184000D02*
X94260000Y-75188299D01*
X72227500Y-75466000D02*
X72227500Y-72390000D01*
X72961500Y-76200000D02*
X72227500Y-75466000D01*
X79957201Y-82550000D02*
X83005201Y-85598000D01*
X72227500Y-76934000D02*
X72227500Y-80010000D01*
X80835500Y-80772000D02*
X80835500Y-81280000D01*
X78745500Y-79698000D02*
X79692500Y-80645000D01*
%TO.N,/VIN*%
X95091500Y-65553000D02*
X95091500Y-71353000D01*
X86432805Y-69596000D02*
X87448805Y-70612000D01*
X95166109Y-74422000D02*
X93789500Y-74422000D01*
X71622500Y-80449000D02*
X71622500Y-72027391D01*
X92392500Y-69305000D02*
X92392500Y-70485000D01*
X81948500Y-69864000D02*
X81948500Y-70939000D01*
X85407500Y-69596000D02*
X86432805Y-69596000D01*
X71412500Y-88123000D02*
X73048943Y-86486557D01*
X90995500Y-71628000D02*
X90995500Y-70612000D01*
X84598500Y-70939000D02*
X84598500Y-70405000D01*
X95920500Y-75176391D02*
X95166109Y-74422000D01*
X87448805Y-70612000D02*
X90995500Y-70612000D01*
X71622500Y-72027391D02*
X73785891Y-69864000D01*
X73048943Y-86486557D02*
X73048943Y-81875443D01*
X104095500Y-80464000D02*
X104095500Y-77616000D01*
X81948500Y-70939000D02*
X84598500Y-70939000D01*
X95920500Y-75184000D02*
X95920500Y-75176391D01*
X73785891Y-69864000D02*
X81948500Y-69864000D01*
X108975500Y-85344000D02*
X104095500Y-80464000D01*
X95091500Y-71353000D02*
X94350500Y-70612000D01*
X92392500Y-70485000D02*
X92519500Y-70612000D01*
X94350500Y-70612000D02*
X92519500Y-70612000D01*
X108995500Y-85344000D02*
X108975500Y-85344000D01*
X92519500Y-70612000D02*
X90995500Y-70612000D01*
X104095500Y-77616000D02*
X102933500Y-76454000D01*
X102933500Y-76454000D02*
X97317500Y-76454000D01*
X84598500Y-70405000D02*
X85407500Y-69596000D01*
X93789500Y-74422000D02*
X90995500Y-71628000D01*
X97317500Y-76454000D02*
X95920500Y-75057000D01*
X73048943Y-81875443D02*
X71622500Y-80449000D01*
%TO.N,Net-(C7-Pad1)*%
X79763500Y-76085000D02*
X76390500Y-72712000D01*
X73509500Y-72712000D02*
X73187500Y-72390000D01*
X82515000Y-76085000D02*
X79763500Y-76085000D01*
X76390500Y-72712000D02*
X73509500Y-72712000D01*
%TO.N,Net-(C8-Pad1)*%
X78672500Y-76585000D02*
X77787500Y-77470000D01*
X77787500Y-77470000D02*
X77787500Y-78565000D01*
X82515000Y-76585000D02*
X78672500Y-76585000D01*
X77787500Y-78565000D02*
X76390500Y-79962000D01*
X76390500Y-79962000D02*
X76390500Y-81212000D01*
X74389500Y-81212000D02*
X73187500Y-80010000D01*
X76390500Y-81212000D02*
X74389500Y-81212000D01*
%TO.N,/NRST*%
X83883500Y-76519685D02*
X83318185Y-77085000D01*
X85106695Y-73914000D02*
X83883500Y-75137195D01*
X87174693Y-74760775D02*
X86327918Y-73914000D01*
X86327918Y-73914000D02*
X85106695Y-73914000D01*
X79565500Y-81280000D02*
X79875500Y-81280000D01*
X78295500Y-78336391D02*
X78295500Y-80010000D01*
X82515000Y-77085000D02*
X79546891Y-77085000D01*
X78295500Y-80010000D02*
X79565500Y-81280000D01*
X83883500Y-75137195D02*
X83883500Y-76519685D01*
X79546891Y-77085000D02*
X78295500Y-78336391D01*
X83318185Y-77085000D02*
X82515000Y-77085000D01*
%TO.N,Net-(D1-Pad2)*%
X77836000Y-67818000D02*
X76947000Y-68707000D01*
X78674500Y-67818000D02*
X77836000Y-67818000D01*
%TO.N,Net-(D2-Pad2)*%
X78674500Y-66802000D02*
X76947000Y-66802000D01*
%TO.N,Net-(D3-Pad2)*%
X77836000Y-65786000D02*
X76947000Y-64897000D01*
X78674500Y-65786000D02*
X77836000Y-65786000D01*
%TO.N,/SWCLK*%
X89427500Y-73958000D02*
X89217500Y-74168000D01*
X89427500Y-72672500D02*
X89427500Y-73958000D01*
%TO.N,/SWDIO*%
X88985000Y-75085000D02*
X88709500Y-75360500D01*
X90840000Y-75085000D02*
X88985000Y-75085000D01*
%TO.N,/PA10*%
X85792500Y-76585000D02*
X90840000Y-76585000D01*
X84641201Y-75433701D02*
X85792500Y-76585000D01*
X80835500Y-67943000D02*
X79694500Y-66802000D01*
X80835500Y-68834000D02*
X80835500Y-67943000D01*
%TO.N,/PA11*%
X81089500Y-65024000D02*
X80456500Y-65024000D01*
X85407500Y-74638500D02*
X86854000Y-76085000D01*
X80456500Y-65024000D02*
X79694500Y-65786000D01*
X86854000Y-76085000D02*
X90840000Y-76085000D01*
%TO.N,/SCK*%
X84927500Y-80997500D02*
X84927500Y-79784000D01*
X84927500Y-79784000D02*
X84645500Y-79502000D01*
%TO.N,/MISO*%
X85427500Y-80997500D02*
X85427500Y-78760000D01*
X85427500Y-78760000D02*
X85407500Y-78740000D01*
%TO.N,/MOSI*%
X85927500Y-80997500D02*
X85927500Y-79744000D01*
X85927500Y-79744000D02*
X86169500Y-79502000D01*
%TO.N,/CSN*%
X90840000Y-77585000D02*
X89610500Y-77585000D01*
X89610500Y-77585000D02*
X89217500Y-77978000D01*
%TO.N,/CE*%
X90840000Y-77085000D02*
X88840500Y-77085000D01*
X88840500Y-77085000D02*
X88201500Y-77724000D01*
%TO.N,Net-(JP2-Pad2)*%
X90898500Y-69693000D02*
X90727500Y-69864000D01*
X92392500Y-67855000D02*
X91854500Y-67855000D01*
X90727500Y-69864000D02*
X88229500Y-69864000D01*
X87199500Y-68834000D02*
X84303500Y-68834000D01*
X90898500Y-66899000D02*
X90898500Y-69693000D01*
X88229500Y-69864000D02*
X87199500Y-68834000D01*
X97366500Y-63828000D02*
X93969500Y-63828000D01*
X99091500Y-68548000D02*
X99091500Y-71353000D01*
X99091500Y-65553000D02*
X97366500Y-63828000D01*
X91854500Y-67855000D02*
X90898500Y-66899000D01*
X99091500Y-65553000D02*
X99091500Y-68548000D01*
X93969500Y-63828000D02*
X90898500Y-66899000D01*
X84303500Y-68834000D02*
X83273500Y-69864000D01*
%TO.N,/IRQ*%
X88927500Y-72672500D02*
X88927500Y-71869315D01*
X89186815Y-71610000D02*
X89660042Y-71610000D01*
X89660042Y-71610000D02*
X89842551Y-71427491D01*
X88927500Y-71869315D02*
X89186815Y-71610000D01*
%TO.N,/PA12*%
X91693185Y-75585000D02*
X90840000Y-75585000D01*
X96251302Y-76024198D02*
X92132383Y-76024198D01*
X102425500Y-77724000D02*
X101917500Y-77216000D01*
X102425500Y-85092000D02*
X102425500Y-77724000D01*
X97443104Y-77216000D02*
X96251302Y-76024198D01*
X102677500Y-85344000D02*
X102425500Y-85092000D01*
X101917500Y-77216000D02*
X97443104Y-77216000D01*
X92132383Y-76024198D02*
X91693185Y-75585000D01*
%TO.N,Net-(D4-Pad2)*%
X106235500Y-86614000D02*
X109825500Y-86614000D01*
X111095500Y-85344000D02*
X111215500Y-85344000D01*
X109825500Y-86614000D02*
X111095500Y-85344000D01*
X111215500Y-85344000D02*
X116095500Y-80464000D01*
%TO.N,Net-(Q1-Pad1)*%
X103697500Y-85344000D02*
X103697500Y-86901000D01*
X103697500Y-86901000D02*
X105285500Y-88489000D01*
%TD*%
%TA.AperFunction,Conductor*%
%TO.N,GND*%
G36*
X90728636Y-81425502D02*
G01*
X90749610Y-81442405D01*
X90777095Y-81469890D01*
X90811121Y-81532202D01*
X90814000Y-81558985D01*
X90814000Y-81642484D01*
X90814193Y-81644932D01*
X90814193Y-81644940D01*
X90816167Y-81670012D01*
X90816894Y-81679254D01*
X90837216Y-81749203D01*
X90856818Y-81816673D01*
X90862606Y-81836597D01*
X90866641Y-81843419D01*
X90866641Y-81843420D01*
X90878954Y-81864240D01*
X90896500Y-81928379D01*
X90896500Y-82200558D01*
X90900975Y-82215797D01*
X90925513Y-82237060D01*
X90963896Y-82296786D01*
X90969000Y-82332284D01*
X90969000Y-84173384D01*
X90948998Y-84241505D01*
X90895342Y-84287998D01*
X90820904Y-84297431D01*
X90620873Y-84261800D01*
X90620867Y-84261799D01*
X90615784Y-84260894D01*
X90541952Y-84259992D01*
X90397581Y-84258228D01*
X90397579Y-84258228D01*
X90392411Y-84258165D01*
X90171591Y-84291955D01*
X89959256Y-84361357D01*
X89901287Y-84391534D01*
X89797581Y-84445520D01*
X89761107Y-84464507D01*
X89756974Y-84467610D01*
X89756971Y-84467612D01*
X89586804Y-84595377D01*
X89582465Y-84598635D01*
X89564671Y-84617255D01*
X89438948Y-84748817D01*
X89428129Y-84760138D01*
X89320701Y-84917621D01*
X89265793Y-84962621D01*
X89195268Y-84970792D01*
X89131521Y-84939538D01*
X89110824Y-84915054D01*
X89030322Y-84790617D01*
X89030320Y-84790614D01*
X89027514Y-84786277D01*
X88877170Y-84621051D01*
X88873119Y-84617852D01*
X88873115Y-84617848D01*
X88705914Y-84485800D01*
X88705910Y-84485798D01*
X88701859Y-84482598D01*
X88671430Y-84465800D01*
X88612077Y-84433036D01*
X88506289Y-84374638D01*
X88501420Y-84372914D01*
X88501416Y-84372912D01*
X88300587Y-84301795D01*
X88300583Y-84301794D01*
X88295712Y-84300069D01*
X88290619Y-84299162D01*
X88290616Y-84299161D01*
X88080873Y-84261800D01*
X88080867Y-84261799D01*
X88075784Y-84260894D01*
X88001952Y-84259992D01*
X87857581Y-84258228D01*
X87857579Y-84258228D01*
X87852411Y-84258165D01*
X87631591Y-84291955D01*
X87419256Y-84361357D01*
X87361287Y-84391534D01*
X87257581Y-84445520D01*
X87221107Y-84464507D01*
X87216974Y-84467610D01*
X87216971Y-84467612D01*
X87046804Y-84595377D01*
X87042465Y-84598635D01*
X87024671Y-84617255D01*
X86898948Y-84748817D01*
X86888129Y-84760138D01*
X86762243Y-84944680D01*
X86715215Y-85045993D01*
X86677472Y-85127305D01*
X86668188Y-85147305D01*
X86608489Y-85362570D01*
X86584751Y-85584695D01*
X86585048Y-85589848D01*
X86585048Y-85589851D01*
X86593395Y-85734611D01*
X86597610Y-85807715D01*
X86598747Y-85812761D01*
X86598748Y-85812767D01*
X86620892Y-85911023D01*
X86646722Y-86025639D01*
X86705395Y-86170134D01*
X86727330Y-86224153D01*
X86730766Y-86232616D01*
X86772106Y-86300077D01*
X86844791Y-86418688D01*
X86847487Y-86423088D01*
X86993750Y-86591938D01*
X87165626Y-86734632D01*
X87204719Y-86757476D01*
X87238945Y-86777476D01*
X87287669Y-86829114D01*
X87300740Y-86898897D01*
X87274009Y-86964669D01*
X87233555Y-86998027D01*
X87221107Y-87004507D01*
X87216974Y-87007610D01*
X87216971Y-87007612D01*
X87048481Y-87134118D01*
X87042465Y-87138635D01*
X86982196Y-87201703D01*
X86894902Y-87293051D01*
X86888129Y-87300138D01*
X86885220Y-87304403D01*
X86885214Y-87304411D01*
X86825556Y-87391866D01*
X86762243Y-87484680D01*
X86715215Y-87585993D01*
X86673712Y-87675405D01*
X86668188Y-87687305D01*
X86608489Y-87902570D01*
X86584751Y-88124695D01*
X86585048Y-88129848D01*
X86585048Y-88129851D01*
X86595172Y-88305428D01*
X86597610Y-88347715D01*
X86598747Y-88352761D01*
X86598748Y-88352767D01*
X86609531Y-88400614D01*
X86646722Y-88565639D01*
X86700321Y-88697639D01*
X86724242Y-88756548D01*
X86730766Y-88772616D01*
X86768185Y-88833678D01*
X86844791Y-88958688D01*
X86847487Y-88963088D01*
X86993750Y-89131938D01*
X87089339Y-89211297D01*
X87144385Y-89256997D01*
X87165626Y-89274632D01*
X87358500Y-89387338D01*
X87363325Y-89389180D01*
X87363326Y-89389181D01*
X87438246Y-89417790D01*
X87494749Y-89460777D01*
X87519042Y-89527489D01*
X87503412Y-89596743D01*
X87452821Y-89646554D01*
X87393297Y-89661500D01*
X85061028Y-89661500D01*
X84992907Y-89641498D01*
X84946414Y-89587842D01*
X84936310Y-89517568D01*
X84965804Y-89452988D01*
X84985463Y-89434674D01*
X84995471Y-89427174D01*
X85096761Y-89351261D01*
X85184115Y-89234705D01*
X85235245Y-89098316D01*
X85242000Y-89036134D01*
X85242000Y-87727595D01*
X85262002Y-87659474D01*
X85278905Y-87638500D01*
X85450753Y-87466652D01*
X85459039Y-87459112D01*
X85465518Y-87455000D01*
X85512144Y-87405348D01*
X85514898Y-87402507D01*
X85534635Y-87382770D01*
X85537115Y-87379573D01*
X85544820Y-87370551D01*
X85545265Y-87370077D01*
X85575086Y-87338321D01*
X85578905Y-87331375D01*
X85578907Y-87331372D01*
X85584848Y-87320566D01*
X85595699Y-87304047D01*
X85601262Y-87296875D01*
X85608114Y-87288041D01*
X85611259Y-87280772D01*
X85611262Y-87280768D01*
X85625674Y-87247463D01*
X85630891Y-87236813D01*
X85652195Y-87198060D01*
X85657233Y-87178437D01*
X85663637Y-87159734D01*
X85668533Y-87148420D01*
X85668533Y-87148419D01*
X85671681Y-87141145D01*
X85672920Y-87133322D01*
X85672923Y-87133312D01*
X85678599Y-87097476D01*
X85681005Y-87085856D01*
X85690028Y-87050711D01*
X85690028Y-87050710D01*
X85692000Y-87043030D01*
X85692000Y-87022776D01*
X85693551Y-87003065D01*
X85695480Y-86990886D01*
X85696720Y-86983057D01*
X85695596Y-86971161D01*
X85692559Y-86939039D01*
X85692000Y-86927181D01*
X85692000Y-85190067D01*
X85692527Y-85178884D01*
X85694202Y-85171391D01*
X85693298Y-85142610D01*
X85692062Y-85103301D01*
X85692000Y-85099343D01*
X85692000Y-85071443D01*
X85691496Y-85067452D01*
X85690563Y-85055610D01*
X85689423Y-85019335D01*
X85689174Y-85011410D01*
X85686962Y-85003796D01*
X85686961Y-85003791D01*
X85683523Y-84991958D01*
X85679512Y-84972594D01*
X85677967Y-84960363D01*
X85676974Y-84952502D01*
X85674057Y-84945135D01*
X85674056Y-84945130D01*
X85660698Y-84911391D01*
X85656854Y-84900164D01*
X85654732Y-84892860D01*
X85644518Y-84857706D01*
X85634207Y-84840271D01*
X85625512Y-84822523D01*
X85618052Y-84803682D01*
X85592064Y-84767912D01*
X85585548Y-84757992D01*
X85567080Y-84726764D01*
X85567078Y-84726761D01*
X85563042Y-84719937D01*
X85548721Y-84705616D01*
X85535880Y-84690582D01*
X85523972Y-84674192D01*
X85489895Y-84646001D01*
X85481116Y-84638011D01*
X83167606Y-82324500D01*
X83133580Y-82262188D01*
X83130701Y-82235405D01*
X83130701Y-82049020D01*
X83150703Y-81980899D01*
X83204359Y-81934406D01*
X83274633Y-81924302D01*
X83339213Y-81953796D01*
X83356657Y-81972309D01*
X83436343Y-82076157D01*
X83442893Y-82081183D01*
X83442894Y-82081184D01*
X83470841Y-82102628D01*
X83558233Y-82169686D01*
X83700176Y-82228481D01*
X83752769Y-82235405D01*
X83810169Y-82242962D01*
X83810170Y-82242962D01*
X83814256Y-82243500D01*
X84040744Y-82243500D01*
X84044830Y-82242962D01*
X84044831Y-82242962D01*
X84154824Y-82228481D01*
X84155027Y-82230026D01*
X84199973Y-82230026D01*
X84200176Y-82228481D01*
X84310169Y-82242962D01*
X84310170Y-82242962D01*
X84314256Y-82243500D01*
X84540744Y-82243500D01*
X84544830Y-82242962D01*
X84544831Y-82242962D01*
X84654824Y-82228481D01*
X84655027Y-82230026D01*
X84699973Y-82230026D01*
X84700176Y-82228481D01*
X84810169Y-82242962D01*
X84810170Y-82242962D01*
X84814256Y-82243500D01*
X85040744Y-82243500D01*
X85044830Y-82242962D01*
X85044831Y-82242962D01*
X85154824Y-82228481D01*
X85155027Y-82230026D01*
X85199973Y-82230026D01*
X85200176Y-82228481D01*
X85310169Y-82242962D01*
X85310170Y-82242962D01*
X85314256Y-82243500D01*
X85540744Y-82243500D01*
X85544830Y-82242962D01*
X85544831Y-82242962D01*
X85654824Y-82228481D01*
X85655027Y-82230026D01*
X85699973Y-82230026D01*
X85700176Y-82228481D01*
X85810169Y-82242962D01*
X85810170Y-82242962D01*
X85814256Y-82243500D01*
X86040744Y-82243500D01*
X86044830Y-82242962D01*
X86044831Y-82242962D01*
X86154824Y-82228481D01*
X86155027Y-82230026D01*
X86199973Y-82230026D01*
X86200176Y-82228481D01*
X86310169Y-82242962D01*
X86310170Y-82242962D01*
X86314256Y-82243500D01*
X86540744Y-82243500D01*
X86544830Y-82242962D01*
X86544831Y-82242962D01*
X86654824Y-82228481D01*
X86655027Y-82230026D01*
X86699973Y-82230026D01*
X86700176Y-82228481D01*
X86810169Y-82242962D01*
X86810170Y-82242962D01*
X86814256Y-82243500D01*
X87040744Y-82243500D01*
X87044830Y-82242962D01*
X87044831Y-82242962D01*
X87154824Y-82228481D01*
X87155027Y-82230026D01*
X87199973Y-82230026D01*
X87200176Y-82228481D01*
X87310169Y-82242962D01*
X87310170Y-82242962D01*
X87314256Y-82243500D01*
X87540744Y-82243500D01*
X87544830Y-82242962D01*
X87544831Y-82242962D01*
X87654824Y-82228481D01*
X87655027Y-82230026D01*
X87699973Y-82230026D01*
X87700176Y-82228481D01*
X87810169Y-82242962D01*
X87810170Y-82242962D01*
X87814256Y-82243500D01*
X88040744Y-82243500D01*
X88044830Y-82242962D01*
X88044831Y-82242962D01*
X88154824Y-82228481D01*
X88155027Y-82230026D01*
X88199973Y-82230026D01*
X88200176Y-82228481D01*
X88310169Y-82242962D01*
X88310170Y-82242962D01*
X88314256Y-82243500D01*
X88540744Y-82243500D01*
X88544830Y-82242962D01*
X88544831Y-82242962D01*
X88654824Y-82228481D01*
X88654993Y-82229766D01*
X88700073Y-82229765D01*
X88700306Y-82227994D01*
X88759540Y-82235792D01*
X88773722Y-82233581D01*
X88779283Y-82214216D01*
X88817311Y-82154263D01*
X88823684Y-82149033D01*
X88850796Y-82128229D01*
X88917016Y-82102628D01*
X88986565Y-82116892D01*
X89004205Y-82128229D01*
X89031408Y-82149103D01*
X89073275Y-82206442D01*
X89075599Y-82213567D01*
X89081544Y-82233813D01*
X89095083Y-82235842D01*
X89154694Y-82227994D01*
X89154927Y-82229765D01*
X89200007Y-82229766D01*
X89200176Y-82228481D01*
X89310169Y-82242962D01*
X89310170Y-82242962D01*
X89314256Y-82243500D01*
X89540744Y-82243500D01*
X89544830Y-82242962D01*
X89544831Y-82242962D01*
X89602231Y-82235405D01*
X89654824Y-82228481D01*
X89662451Y-82225322D01*
X89662454Y-82225321D01*
X89731524Y-82196711D01*
X89796768Y-82169686D01*
X89918657Y-82076157D01*
X89919444Y-82077182D01*
X89974407Y-82047169D01*
X90045222Y-82052234D01*
X90090285Y-82081195D01*
X90096574Y-82087484D01*
X90109001Y-82097124D01*
X90236280Y-82172396D01*
X90250716Y-82178643D01*
X90371105Y-82213619D01*
X90385205Y-82213579D01*
X90388500Y-82206309D01*
X90388500Y-81531500D01*
X90408502Y-81463379D01*
X90462158Y-81416886D01*
X90514500Y-81405500D01*
X90660515Y-81405500D01*
X90728636Y-81425502D01*
G37*
%TD.AperFunction*%
%TA.AperFunction,Conductor*%
G36*
X93798848Y-76677700D02*
G01*
X93845341Y-76731356D01*
X93855445Y-76801630D01*
X93844922Y-76836947D01*
X93795341Y-76943277D01*
X93791593Y-76953571D01*
X93739731Y-77147122D01*
X93737829Y-77157909D01*
X93720365Y-77357525D01*
X93720365Y-77368475D01*
X93737829Y-77568091D01*
X93739731Y-77578878D01*
X93791593Y-77772429D01*
X93795341Y-77782723D01*
X93880021Y-77964323D01*
X93885499Y-77973811D01*
X93906811Y-78004248D01*
X93917288Y-78012623D01*
X93930736Y-78005554D01*
X94843405Y-77092885D01*
X94905717Y-77058859D01*
X94976532Y-77063924D01*
X95021595Y-77092885D01*
X95934986Y-78006276D01*
X95946761Y-78012706D01*
X95958776Y-78003410D01*
X95979501Y-77973811D01*
X95984979Y-77964323D01*
X96069659Y-77782723D01*
X96073407Y-77772429D01*
X96125269Y-77578878D01*
X96127171Y-77568091D01*
X96144635Y-77368475D01*
X96144635Y-77357525D01*
X96127171Y-77157909D01*
X96125268Y-77147115D01*
X96117750Y-77119059D01*
X96119438Y-77048082D01*
X96159232Y-76989286D01*
X96224496Y-76961337D01*
X96294510Y-76973110D01*
X96328551Y-76997351D01*
X96939447Y-77608247D01*
X96946991Y-77616537D01*
X96951104Y-77623018D01*
X96956881Y-77628443D01*
X97000771Y-77669658D01*
X97003613Y-77672413D01*
X97023335Y-77692135D01*
X97026459Y-77694558D01*
X97026463Y-77694562D01*
X97026528Y-77694612D01*
X97035549Y-77702317D01*
X97067783Y-77732586D01*
X97074731Y-77736405D01*
X97074733Y-77736407D01*
X97085536Y-77742346D01*
X97102063Y-77753202D01*
X97111802Y-77760757D01*
X97111804Y-77760758D01*
X97118064Y-77765614D01*
X97158644Y-77783174D01*
X97169292Y-77788391D01*
X97195435Y-77802763D01*
X97208044Y-77809695D01*
X97215720Y-77811666D01*
X97215723Y-77811667D01*
X97227666Y-77814733D01*
X97246371Y-77821137D01*
X97264959Y-77829181D01*
X97272782Y-77830420D01*
X97272792Y-77830423D01*
X97308628Y-77836099D01*
X97320248Y-77838505D01*
X97355393Y-77847528D01*
X97363074Y-77849500D01*
X97383328Y-77849500D01*
X97403038Y-77851051D01*
X97423047Y-77854220D01*
X97430939Y-77853474D01*
X97467065Y-77850059D01*
X97478923Y-77849500D01*
X101602906Y-77849500D01*
X101671027Y-77869502D01*
X101692001Y-77886405D01*
X101755095Y-77949499D01*
X101789121Y-78011811D01*
X101792000Y-78038594D01*
X101792000Y-78856631D01*
X101771998Y-78924752D01*
X101718342Y-78971245D01*
X101648068Y-78981349D01*
X101612069Y-78970118D01*
X101610534Y-78969168D01*
X101605099Y-78967062D01*
X101605096Y-78967061D01*
X101484585Y-78920375D01*
X101434870Y-78901115D01*
X101249693Y-78866500D01*
X101061307Y-78866500D01*
X100876130Y-78901115D01*
X100700466Y-78969168D01*
X100540297Y-79068340D01*
X100401079Y-79195254D01*
X100364160Y-79244143D01*
X100304224Y-79323512D01*
X100287552Y-79345589D01*
X100203581Y-79514225D01*
X100201988Y-79519825D01*
X100154414Y-79687030D01*
X100152027Y-79695418D01*
X100151490Y-79701211D01*
X100151488Y-79701223D01*
X100137669Y-79850351D01*
X100136707Y-79858108D01*
X100136442Y-79859811D01*
X100133809Y-79876724D01*
X100134973Y-79885626D01*
X100134973Y-79885630D01*
X100137917Y-79908140D01*
X100138981Y-79924536D01*
X100137997Y-82029256D01*
X100134513Y-89481500D01*
X100134511Y-89485542D01*
X100133010Y-89504872D01*
X100130677Y-89519852D01*
X100130677Y-89519856D01*
X100129296Y-89528724D01*
X100130052Y-89534508D01*
X100109680Y-89600867D01*
X100055459Y-89646699D01*
X100014123Y-89655161D01*
X100014273Y-89656309D01*
X99982699Y-89660437D01*
X99966365Y-89661500D01*
X99311714Y-89661500D01*
X99243593Y-89641498D01*
X99197100Y-89587842D01*
X99186996Y-89517568D01*
X99216490Y-89452988D01*
X99236149Y-89434674D01*
X99246157Y-89427174D01*
X99320761Y-89371261D01*
X99408115Y-89254705D01*
X99459245Y-89118316D01*
X99466000Y-89056134D01*
X99466000Y-87259866D01*
X99459245Y-87197684D01*
X99408115Y-87061295D01*
X99320761Y-86944739D01*
X99204205Y-86857385D01*
X99168829Y-86844123D01*
X99085703Y-86812960D01*
X99028939Y-86770318D01*
X99004239Y-86703756D01*
X99019447Y-86634408D01*
X99040993Y-86605727D01*
X99082881Y-86563985D01*
X99145596Y-86501489D01*
X99159968Y-86481489D01*
X99272935Y-86324277D01*
X99275953Y-86320077D01*
X99283408Y-86304994D01*
X99372636Y-86124453D01*
X99372637Y-86124451D01*
X99374930Y-86119811D01*
X99439870Y-85906069D01*
X99469029Y-85684590D01*
X99469518Y-85664590D01*
X99470574Y-85621365D01*
X99470574Y-85621361D01*
X99470656Y-85618000D01*
X99452352Y-85395361D01*
X99397931Y-85178702D01*
X99308854Y-84973840D01*
X99233724Y-84857706D01*
X99190322Y-84790617D01*
X99190320Y-84790614D01*
X99187514Y-84786277D01*
X99037170Y-84621051D01*
X99033119Y-84617852D01*
X99033115Y-84617848D01*
X98865914Y-84485800D01*
X98865910Y-84485798D01*
X98861859Y-84482598D01*
X98831430Y-84465800D01*
X98772077Y-84433036D01*
X98666289Y-84374638D01*
X98661420Y-84372914D01*
X98661416Y-84372912D01*
X98460587Y-84301795D01*
X98460583Y-84301794D01*
X98455712Y-84300069D01*
X98450619Y-84299162D01*
X98450616Y-84299161D01*
X98240873Y-84261800D01*
X98240867Y-84261799D01*
X98235784Y-84260894D01*
X98161952Y-84259992D01*
X98017581Y-84258228D01*
X98017579Y-84258228D01*
X98012411Y-84258165D01*
X97791591Y-84291955D01*
X97579256Y-84361357D01*
X97521287Y-84391534D01*
X97417581Y-84445520D01*
X97381107Y-84464507D01*
X97376974Y-84467610D01*
X97376971Y-84467612D01*
X97206804Y-84595377D01*
X97202465Y-84598635D01*
X97184671Y-84617255D01*
X97058948Y-84748817D01*
X97048129Y-84760138D01*
X96940701Y-84917621D01*
X96885793Y-84962621D01*
X96815268Y-84970792D01*
X96751521Y-84939538D01*
X96730824Y-84915054D01*
X96650322Y-84790617D01*
X96650320Y-84790614D01*
X96647514Y-84786277D01*
X96497170Y-84621051D01*
X96493119Y-84617852D01*
X96493115Y-84617848D01*
X96325914Y-84485800D01*
X96325910Y-84485798D01*
X96321859Y-84482598D01*
X96291430Y-84465800D01*
X96232077Y-84433036D01*
X96126289Y-84374638D01*
X96121420Y-84372914D01*
X96121416Y-84372912D01*
X95920587Y-84301795D01*
X95920583Y-84301794D01*
X95915712Y-84300069D01*
X95910619Y-84299162D01*
X95910616Y-84299161D01*
X95700873Y-84261800D01*
X95700867Y-84261799D01*
X95695784Y-84260894D01*
X95621952Y-84259992D01*
X95477581Y-84258228D01*
X95477579Y-84258228D01*
X95472411Y-84258165D01*
X95251591Y-84291955D01*
X95039256Y-84361357D01*
X94981287Y-84391534D01*
X94877581Y-84445520D01*
X94841107Y-84464507D01*
X94836974Y-84467610D01*
X94836971Y-84467612D01*
X94666804Y-84595377D01*
X94662465Y-84598635D01*
X94644671Y-84617255D01*
X94518948Y-84748817D01*
X94508129Y-84760138D01*
X94400704Y-84917618D01*
X94400398Y-84918066D01*
X94345487Y-84963069D01*
X94274962Y-84971240D01*
X94211215Y-84939986D01*
X94190518Y-84915502D01*
X94109926Y-84790926D01*
X94103636Y-84782757D01*
X93960306Y-84625240D01*
X93952773Y-84618215D01*
X93785639Y-84486222D01*
X93777052Y-84480517D01*
X93590617Y-84377599D01*
X93581205Y-84373369D01*
X93380459Y-84302280D01*
X93370488Y-84299646D01*
X93299337Y-84286972D01*
X93286040Y-84288432D01*
X93281500Y-84302989D01*
X93281500Y-88286000D01*
X93261498Y-88354121D01*
X93207842Y-88400614D01*
X93155500Y-88412000D01*
X92899500Y-88412000D01*
X92831379Y-88391998D01*
X92784886Y-88338342D01*
X92773500Y-88286000D01*
X92773500Y-84301102D01*
X92769582Y-84287758D01*
X92755306Y-84285771D01*
X92716824Y-84291660D01*
X92706788Y-84294051D01*
X92504368Y-84360212D01*
X92494868Y-84364205D01*
X92420180Y-84403085D01*
X92350520Y-84416797D01*
X92284505Y-84390672D01*
X92243094Y-84333003D01*
X92236000Y-84291321D01*
X92236000Y-82166500D01*
X92256002Y-82098379D01*
X92309658Y-82051886D01*
X92362000Y-82040500D01*
X95107733Y-82040500D01*
X95118916Y-82041027D01*
X95126409Y-82042702D01*
X95134335Y-82042453D01*
X95134336Y-82042453D01*
X95194486Y-82040562D01*
X95198445Y-82040500D01*
X95226356Y-82040500D01*
X95230291Y-82040003D01*
X95230356Y-82039995D01*
X95242193Y-82039062D01*
X95274451Y-82038048D01*
X95278470Y-82037922D01*
X95286389Y-82037673D01*
X95305843Y-82032021D01*
X95325200Y-82028013D01*
X95337430Y-82026468D01*
X95337431Y-82026468D01*
X95345297Y-82025474D01*
X95352668Y-82022555D01*
X95352670Y-82022555D01*
X95386412Y-82009196D01*
X95397642Y-82005351D01*
X95432483Y-81995229D01*
X95432484Y-81995229D01*
X95440093Y-81993018D01*
X95446912Y-81988985D01*
X95446917Y-81988983D01*
X95457528Y-81982707D01*
X95475276Y-81974012D01*
X95494117Y-81966552D01*
X95511675Y-81953796D01*
X95529887Y-81940564D01*
X95539807Y-81934048D01*
X95571035Y-81915580D01*
X95571038Y-81915578D01*
X95577862Y-81911542D01*
X95592183Y-81897221D01*
X95607217Y-81884380D01*
X95617194Y-81877131D01*
X95623607Y-81872472D01*
X95651798Y-81838395D01*
X95659788Y-81829616D01*
X97406223Y-80083181D01*
X97468535Y-80049155D01*
X97523240Y-80051896D01*
X97523699Y-80049739D01*
X97704043Y-80088073D01*
X97704048Y-80088073D01*
X97710500Y-80089445D01*
X97901474Y-80089445D01*
X97907926Y-80088073D01*
X97907931Y-80088073D01*
X97994875Y-80069592D01*
X98088275Y-80049739D01*
X98146421Y-80023851D01*
X98256709Y-79974748D01*
X98256711Y-79974747D01*
X98262739Y-79972063D01*
X98278217Y-79960818D01*
X98355793Y-79904455D01*
X98417240Y-79859811D01*
X98453128Y-79819953D01*
X98540608Y-79722797D01*
X98540609Y-79722796D01*
X98545027Y-79717889D01*
X98640514Y-79552501D01*
X98699529Y-79370873D01*
X98700938Y-79357473D01*
X98718801Y-79187510D01*
X98719491Y-79180945D01*
X98710026Y-79090889D01*
X98700219Y-78997580D01*
X98700219Y-78997578D01*
X98699529Y-78991017D01*
X98640514Y-78809389D01*
X98617264Y-78769118D01*
X98591043Y-78723703D01*
X98545027Y-78644001D01*
X98534672Y-78632500D01*
X98421662Y-78506990D01*
X98421661Y-78506989D01*
X98417240Y-78502079D01*
X98262739Y-78389827D01*
X98256711Y-78387143D01*
X98256709Y-78387142D01*
X98094306Y-78314836D01*
X98094305Y-78314836D01*
X98088275Y-78312151D01*
X97994874Y-78292298D01*
X97907931Y-78273817D01*
X97907926Y-78273817D01*
X97901474Y-78272445D01*
X97710500Y-78272445D01*
X97704048Y-78273817D01*
X97704043Y-78273817D01*
X97617100Y-78292298D01*
X97523699Y-78312151D01*
X97517669Y-78314836D01*
X97517668Y-78314836D01*
X97355265Y-78387142D01*
X97355263Y-78387143D01*
X97349235Y-78389827D01*
X97194734Y-78502079D01*
X97190313Y-78506989D01*
X97190312Y-78506990D01*
X97069560Y-78641099D01*
X97040062Y-78665243D01*
X97028015Y-78672367D01*
X97028010Y-78672371D01*
X97021192Y-78676403D01*
X97006868Y-78690727D01*
X96991836Y-78703566D01*
X96975448Y-78715473D01*
X96957423Y-78737262D01*
X96947267Y-78749538D01*
X96939277Y-78758318D01*
X96243281Y-79454314D01*
X96180969Y-79488340D01*
X96110154Y-79483275D01*
X96053318Y-79440728D01*
X96039991Y-79418469D01*
X95985412Y-79301423D01*
X95985410Y-79301420D01*
X95983089Y-79296442D01*
X95861801Y-79123224D01*
X95712276Y-78973699D01*
X95539058Y-78852411D01*
X95534080Y-78850090D01*
X95534077Y-78850088D01*
X95352392Y-78765367D01*
X95352391Y-78765366D01*
X95347410Y-78763044D01*
X95342103Y-78761622D01*
X95342092Y-78761618D01*
X95315329Y-78754447D01*
X95254707Y-78717496D01*
X95223685Y-78653635D01*
X95232114Y-78583140D01*
X95277318Y-78528394D01*
X95315330Y-78511034D01*
X95341926Y-78503908D01*
X95352223Y-78500159D01*
X95533823Y-78415479D01*
X95543311Y-78410001D01*
X95573748Y-78388689D01*
X95582123Y-78378212D01*
X95575054Y-78364764D01*
X94945312Y-77735022D01*
X94931368Y-77727408D01*
X94929535Y-77727539D01*
X94922920Y-77731790D01*
X94289224Y-78365486D01*
X94282794Y-78377261D01*
X94292090Y-78389276D01*
X94321689Y-78410001D01*
X94331177Y-78415479D01*
X94512777Y-78500159D01*
X94523074Y-78503908D01*
X94549670Y-78511034D01*
X94610293Y-78547986D01*
X94641314Y-78611846D01*
X94632886Y-78682341D01*
X94587683Y-78737088D01*
X94549671Y-78754447D01*
X94522908Y-78761618D01*
X94522897Y-78761622D01*
X94517590Y-78763044D01*
X94512609Y-78765366D01*
X94512608Y-78765367D01*
X94330923Y-78850088D01*
X94330920Y-78850090D01*
X94325942Y-78852411D01*
X94152724Y-78973699D01*
X94003199Y-79123224D01*
X93881911Y-79296442D01*
X93879590Y-79301420D01*
X93879588Y-79301423D01*
X93797295Y-79477902D01*
X93792544Y-79488090D01*
X93791122Y-79493398D01*
X93791121Y-79493400D01*
X93746636Y-79659422D01*
X93737814Y-79692345D01*
X93719384Y-79903000D01*
X93737814Y-80113655D01*
X93739238Y-80118968D01*
X93739238Y-80118970D01*
X93768582Y-80228481D01*
X93792544Y-80317910D01*
X93794866Y-80322891D01*
X93794867Y-80322892D01*
X93860851Y-80464394D01*
X93881911Y-80509558D01*
X93927896Y-80575231D01*
X93950583Y-80642503D01*
X93933298Y-80711364D01*
X93881528Y-80759948D01*
X93824682Y-80773500D01*
X92248307Y-80773500D01*
X92180186Y-80753498D01*
X92159212Y-80736595D01*
X92143129Y-80720512D01*
X92106720Y-80698980D01*
X92008920Y-80641141D01*
X92008919Y-80641141D01*
X92002097Y-80637106D01*
X91994486Y-80634895D01*
X91994484Y-80634894D01*
X91943505Y-80620084D01*
X91844754Y-80591394D01*
X91838349Y-80590890D01*
X91838344Y-80590889D01*
X91810440Y-80588693D01*
X91810432Y-80588693D01*
X91807984Y-80588500D01*
X91739704Y-80588500D01*
X91671583Y-80568498D01*
X91650609Y-80551595D01*
X91546243Y-80447229D01*
X91512217Y-80384917D01*
X91517282Y-80314102D01*
X91559829Y-80257266D01*
X91618890Y-80233212D01*
X91646637Y-80229559D01*
X91646638Y-80229559D01*
X91654824Y-80228481D01*
X91662451Y-80225322D01*
X91662454Y-80225321D01*
X91728071Y-80198141D01*
X91796768Y-80169686D01*
X91918657Y-80076157D01*
X91937876Y-80051111D01*
X91998531Y-79972063D01*
X92012186Y-79954267D01*
X92070981Y-79812324D01*
X92083985Y-79713553D01*
X92085462Y-79702331D01*
X92085462Y-79702330D01*
X92086000Y-79698244D01*
X92086000Y-79471756D01*
X92070981Y-79357676D01*
X92072526Y-79357473D01*
X92072526Y-79312527D01*
X92070981Y-79312324D01*
X92085462Y-79202331D01*
X92085462Y-79202330D01*
X92086000Y-79198244D01*
X92086000Y-78971756D01*
X92070981Y-78857676D01*
X92072526Y-78857473D01*
X92072526Y-78812527D01*
X92070981Y-78812324D01*
X92085462Y-78702331D01*
X92085462Y-78702330D01*
X92086000Y-78698244D01*
X92086000Y-78471756D01*
X92070981Y-78357676D01*
X92072526Y-78357473D01*
X92072526Y-78312527D01*
X92070981Y-78312324D01*
X92085462Y-78202331D01*
X92085462Y-78202330D01*
X92086000Y-78198244D01*
X92086000Y-77971756D01*
X92070981Y-77857676D01*
X92072526Y-77857473D01*
X92072526Y-77812527D01*
X92070981Y-77812324D01*
X92085462Y-77702331D01*
X92085462Y-77702330D01*
X92086000Y-77698244D01*
X92086000Y-77471756D01*
X92076277Y-77397899D01*
X92070981Y-77357676D01*
X92072526Y-77357473D01*
X92072526Y-77312527D01*
X92070981Y-77312324D01*
X92085462Y-77202331D01*
X92085462Y-77202330D01*
X92086000Y-77198244D01*
X92086000Y-76971756D01*
X92081748Y-76939455D01*
X92070981Y-76857676D01*
X92072526Y-76857473D01*
X92072526Y-76812526D01*
X92070981Y-76812323D01*
X92073460Y-76793498D01*
X92076915Y-76767251D01*
X92105638Y-76702324D01*
X92164903Y-76663233D01*
X92201837Y-76657698D01*
X93730727Y-76657698D01*
X93798848Y-76677700D01*
G37*
%TD.AperFunction*%
%TA.AperFunction,Conductor*%
G36*
X117860573Y-81177838D02*
G01*
X117907342Y-81231253D01*
X117919000Y-81284186D01*
X117919000Y-86973420D01*
X117898998Y-87041541D01*
X117845342Y-87088034D01*
X117775068Y-87098138D01*
X117717435Y-87074246D01*
X117611392Y-86994771D01*
X117611390Y-86994770D01*
X117604205Y-86989385D01*
X117467816Y-86938255D01*
X117405634Y-86931500D01*
X115609366Y-86931500D01*
X115547184Y-86938255D01*
X115410795Y-86989385D01*
X115294239Y-87076739D01*
X115206885Y-87193295D01*
X115203733Y-87201703D01*
X115162419Y-87311907D01*
X115119777Y-87368671D01*
X115053216Y-87393371D01*
X114983867Y-87378163D01*
X114951243Y-87352476D01*
X114900651Y-87296875D01*
X114900642Y-87296866D01*
X114897170Y-87293051D01*
X114893119Y-87289852D01*
X114893115Y-87289848D01*
X114725914Y-87157800D01*
X114725910Y-87157798D01*
X114721859Y-87154598D01*
X114708065Y-87146983D01*
X114630601Y-87104221D01*
X114526289Y-87046638D01*
X114521420Y-87044914D01*
X114521416Y-87044912D01*
X114320587Y-86973795D01*
X114320583Y-86973794D01*
X114315712Y-86972069D01*
X114310619Y-86971162D01*
X114310616Y-86971161D01*
X114100873Y-86933800D01*
X114100867Y-86933799D01*
X114095784Y-86932894D01*
X114015979Y-86931919D01*
X113877581Y-86930228D01*
X113877579Y-86930228D01*
X113872411Y-86930165D01*
X113651591Y-86963955D01*
X113439256Y-87033357D01*
X113403578Y-87051930D01*
X113247245Y-87133312D01*
X113241107Y-87136507D01*
X113236974Y-87139610D01*
X113236971Y-87139612D01*
X113066600Y-87267530D01*
X113062465Y-87270635D01*
X113023025Y-87311907D01*
X112968780Y-87368671D01*
X112908129Y-87432138D01*
X112800701Y-87589621D01*
X112745793Y-87634621D01*
X112675268Y-87642792D01*
X112611521Y-87611538D01*
X112590824Y-87587054D01*
X112510322Y-87462617D01*
X112510320Y-87462614D01*
X112507514Y-87458277D01*
X112357170Y-87293051D01*
X112353119Y-87289852D01*
X112353115Y-87289848D01*
X112185914Y-87157800D01*
X112185910Y-87157798D01*
X112181859Y-87154598D01*
X112168065Y-87146983D01*
X112090601Y-87104221D01*
X111986289Y-87046638D01*
X111981420Y-87044914D01*
X111981416Y-87044912D01*
X111780587Y-86973795D01*
X111780583Y-86973794D01*
X111775712Y-86972069D01*
X111770619Y-86971162D01*
X111770616Y-86971161D01*
X111560873Y-86933800D01*
X111560867Y-86933799D01*
X111555784Y-86932894D01*
X111475979Y-86931919D01*
X111337581Y-86930228D01*
X111337579Y-86930228D01*
X111332411Y-86930165D01*
X111111591Y-86963955D01*
X110899256Y-87033357D01*
X110863578Y-87051930D01*
X110707245Y-87133312D01*
X110701107Y-87136507D01*
X110696974Y-87139610D01*
X110696971Y-87139612D01*
X110526600Y-87267530D01*
X110522465Y-87270635D01*
X110483025Y-87311907D01*
X110428780Y-87368671D01*
X110368129Y-87432138D01*
X110365220Y-87436403D01*
X110365214Y-87436411D01*
X110312396Y-87513840D01*
X110242243Y-87616680D01*
X110209460Y-87687305D01*
X110152208Y-87810645D01*
X110148188Y-87819305D01*
X110088489Y-88034570D01*
X110064751Y-88256695D01*
X110065048Y-88261848D01*
X110065048Y-88261851D01*
X110069701Y-88342547D01*
X110077610Y-88479715D01*
X110078747Y-88484761D01*
X110078748Y-88484767D01*
X110096974Y-88565639D01*
X110126722Y-88697639D01*
X110210766Y-88904616D01*
X110248185Y-88965678D01*
X110324791Y-89090688D01*
X110327487Y-89095088D01*
X110473750Y-89263938D01*
X110645626Y-89406632D01*
X110672480Y-89422324D01*
X110679989Y-89426712D01*
X110728713Y-89478350D01*
X110741784Y-89548133D01*
X110715053Y-89613905D01*
X110657006Y-89654784D01*
X110616419Y-89661500D01*
X107974891Y-89661500D01*
X107906770Y-89641498D01*
X107860277Y-89587842D01*
X107850173Y-89517568D01*
X107866437Y-89471361D01*
X107940148Y-89346721D01*
X107946393Y-89332290D01*
X107988769Y-89186435D01*
X107991070Y-89173833D01*
X107993307Y-89145416D01*
X107993500Y-89140486D01*
X107993500Y-88761115D01*
X107989025Y-88745876D01*
X107987635Y-88744671D01*
X107979952Y-88743000D01*
X106395616Y-88743000D01*
X106380377Y-88747475D01*
X106379172Y-88748865D01*
X106377501Y-88756548D01*
X106377501Y-89140484D01*
X106377695Y-89145420D01*
X106379930Y-89173836D01*
X106382230Y-89186431D01*
X106424607Y-89332290D01*
X106430852Y-89346721D01*
X106504563Y-89471361D01*
X106522022Y-89540178D01*
X106499505Y-89607509D01*
X106444160Y-89651978D01*
X106396109Y-89661500D01*
X106075471Y-89661500D01*
X106007350Y-89641498D01*
X105960857Y-89587842D01*
X105950753Y-89517568D01*
X105967018Y-89471361D01*
X106040608Y-89346927D01*
X106044645Y-89340101D01*
X106046915Y-89332290D01*
X106067907Y-89260031D01*
X106091062Y-89180331D01*
X106091574Y-89173836D01*
X106093807Y-89145458D01*
X106093807Y-89145450D01*
X106094000Y-89143002D01*
X106094000Y-87986000D01*
X106114002Y-87917879D01*
X106167658Y-87871386D01*
X106220000Y-87860000D01*
X106251500Y-87860000D01*
X106319621Y-87880002D01*
X106366114Y-87933658D01*
X106377500Y-87986000D01*
X106377500Y-88216885D01*
X106381975Y-88232124D01*
X106383365Y-88233329D01*
X106391048Y-88235000D01*
X107975384Y-88235000D01*
X107990623Y-88230525D01*
X107991828Y-88229135D01*
X107993499Y-88221452D01*
X107993499Y-87837517D01*
X107993305Y-87832580D01*
X107991070Y-87804164D01*
X107988770Y-87791569D01*
X107946393Y-87645710D01*
X107940148Y-87631279D01*
X107863589Y-87501822D01*
X107853949Y-87489396D01*
X107827148Y-87462595D01*
X107793122Y-87400283D01*
X107798187Y-87329468D01*
X107840734Y-87272632D01*
X107907254Y-87247821D01*
X107916243Y-87247500D01*
X109746733Y-87247500D01*
X109757916Y-87248027D01*
X109765409Y-87249702D01*
X109773335Y-87249453D01*
X109773336Y-87249453D01*
X109833486Y-87247562D01*
X109837445Y-87247500D01*
X109865356Y-87247500D01*
X109869291Y-87247003D01*
X109869356Y-87246995D01*
X109881193Y-87246062D01*
X109913451Y-87245048D01*
X109917470Y-87244922D01*
X109925389Y-87244673D01*
X109944843Y-87239021D01*
X109964200Y-87235013D01*
X109976430Y-87233468D01*
X109976431Y-87233468D01*
X109984297Y-87232474D01*
X109991668Y-87229555D01*
X109991670Y-87229555D01*
X110025412Y-87216196D01*
X110036642Y-87212351D01*
X110071483Y-87202229D01*
X110071484Y-87202229D01*
X110079093Y-87200018D01*
X110085912Y-87195985D01*
X110085917Y-87195983D01*
X110096528Y-87189707D01*
X110114276Y-87181012D01*
X110133117Y-87173552D01*
X110150324Y-87161051D01*
X110168887Y-87147564D01*
X110178807Y-87141048D01*
X110210035Y-87122580D01*
X110210038Y-87122578D01*
X110216862Y-87118542D01*
X110231183Y-87104221D01*
X110246217Y-87091380D01*
X110256194Y-87084131D01*
X110262607Y-87079472D01*
X110290798Y-87045395D01*
X110298788Y-87036616D01*
X111220999Y-86114405D01*
X111283311Y-86080379D01*
X111310094Y-86077500D01*
X111443634Y-86077500D01*
X111505816Y-86070745D01*
X111642205Y-86019615D01*
X111758761Y-85932261D01*
X111846115Y-85815705D01*
X111897245Y-85679316D01*
X111904000Y-85617134D01*
X111904000Y-85603594D01*
X111924002Y-85535473D01*
X111940905Y-85514499D01*
X115322973Y-82132431D01*
X115385285Y-82098405D01*
X115453609Y-82102571D01*
X115631401Y-82164659D01*
X115639090Y-82167344D01*
X115643683Y-82168216D01*
X115891285Y-82215224D01*
X115891288Y-82215224D01*
X115895874Y-82216095D01*
X116026459Y-82221226D01*
X116152375Y-82226174D01*
X116152381Y-82226174D01*
X116157043Y-82226357D01*
X116236477Y-82217657D01*
X116412207Y-82198412D01*
X116412212Y-82198411D01*
X116416860Y-82197902D01*
X116421384Y-82196711D01*
X116665094Y-82132548D01*
X116665096Y-82132547D01*
X116669617Y-82131357D01*
X116696268Y-82119907D01*
X116859226Y-82049894D01*
X116909762Y-82028182D01*
X116920399Y-82021600D01*
X117128047Y-81893104D01*
X117128048Y-81893104D01*
X117132019Y-81890646D01*
X117135582Y-81887629D01*
X117135587Y-81887626D01*
X117327939Y-81724787D01*
X117327940Y-81724786D01*
X117331505Y-81721768D01*
X117368789Y-81679254D01*
X117500757Y-81528774D01*
X117500761Y-81528769D01*
X117503839Y-81525259D01*
X117510127Y-81515484D01*
X117642705Y-81309367D01*
X117645233Y-81305437D01*
X117678118Y-81232435D01*
X117724334Y-81178541D01*
X117792350Y-81158188D01*
X117860573Y-81177838D01*
G37*
%TD.AperFunction*%
%TA.AperFunction,Conductor*%
G36*
X70137149Y-83572887D02*
G01*
X70184933Y-83630938D01*
X70193820Y-83652825D01*
X70193823Y-83652831D01*
X70195766Y-83657616D01*
X70221921Y-83700297D01*
X70298499Y-83825261D01*
X70312487Y-83848088D01*
X70458750Y-84016938D01*
X70630626Y-84159632D01*
X70654160Y-84173384D01*
X70704455Y-84202774D01*
X70753179Y-84254412D01*
X70766250Y-84324195D01*
X70739519Y-84389967D01*
X70699062Y-84423327D01*
X70690957Y-84427546D01*
X70682238Y-84433036D01*
X70511933Y-84560905D01*
X70504226Y-84567748D01*
X70357090Y-84721717D01*
X70350604Y-84729727D01*
X70230598Y-84905649D01*
X70225500Y-84914623D01*
X70135838Y-85107783D01*
X70132275Y-85117470D01*
X70076889Y-85317183D01*
X70078412Y-85325607D01*
X70090792Y-85329000D01*
X71540500Y-85329000D01*
X71608621Y-85349002D01*
X71655114Y-85402658D01*
X71666500Y-85455000D01*
X71666500Y-85711000D01*
X71646498Y-85779121D01*
X71592842Y-85825614D01*
X71540500Y-85837000D01*
X70095725Y-85837000D01*
X70082194Y-85840973D01*
X70080757Y-85850966D01*
X70111065Y-85985446D01*
X70114145Y-85995275D01*
X70194270Y-86192603D01*
X70198913Y-86201794D01*
X70310194Y-86383388D01*
X70316277Y-86391699D01*
X70455713Y-86552667D01*
X70463077Y-86559879D01*
X70468022Y-86563985D01*
X70507656Y-86622889D01*
X70509153Y-86693870D01*
X70472037Y-86754392D01*
X70431764Y-86778910D01*
X70324205Y-86819232D01*
X70324204Y-86819233D01*
X70315795Y-86822385D01*
X70199239Y-86909739D01*
X70111885Y-87026295D01*
X70060755Y-87162684D01*
X70054000Y-87224866D01*
X70054000Y-89021134D01*
X70060755Y-89083316D01*
X70111885Y-89219705D01*
X70199239Y-89336261D01*
X70315795Y-89423615D01*
X70321837Y-89425880D01*
X70371084Y-89475239D01*
X70386098Y-89544630D01*
X70361212Y-89611122D01*
X70304329Y-89653605D01*
X70260429Y-89661500D01*
X67625016Y-89661500D01*
X67556895Y-89641498D01*
X67510402Y-89587842D01*
X67500298Y-89517568D01*
X67529792Y-89452988D01*
X67570339Y-89423345D01*
X67569825Y-89422324D01*
X67573220Y-89420616D01*
X67576705Y-89419119D01*
X67859101Y-89255091D01*
X68058588Y-89104493D01*
X68116721Y-89060607D01*
X68116722Y-89060606D01*
X68119745Y-89058324D01*
X68244951Y-88937625D01*
X68352132Y-88834303D01*
X68352135Y-88834300D01*
X68354863Y-88831670D01*
X68561049Y-88578410D01*
X68706607Y-88347715D01*
X68733288Y-88305428D01*
X68733290Y-88305425D01*
X68735315Y-88302215D01*
X68775742Y-88216885D01*
X68821850Y-88119562D01*
X68875138Y-88007084D01*
X68908293Y-87907707D01*
X68977290Y-87700897D01*
X68977292Y-87700891D01*
X68978492Y-87697293D01*
X69043881Y-87377329D01*
X69044433Y-87370551D01*
X69066094Y-87104221D01*
X69070356Y-87051826D01*
X69070838Y-87005800D01*
X69070928Y-86997221D01*
X69070928Y-86997214D01*
X69070951Y-86995000D01*
X69070613Y-86989385D01*
X69051526Y-86672793D01*
X69051526Y-86672789D01*
X69051298Y-86669015D01*
X69050511Y-86664702D01*
X68993305Y-86351473D01*
X68993304Y-86351469D01*
X68992625Y-86347751D01*
X68984328Y-86321028D01*
X68920170Y-86114405D01*
X68895782Y-86035863D01*
X68762170Y-85737869D01*
X68593726Y-85458084D01*
X68591399Y-85455100D01*
X68591394Y-85455093D01*
X68395226Y-85203558D01*
X68395224Y-85203556D01*
X68392890Y-85200563D01*
X68162570Y-84969034D01*
X67906103Y-84766852D01*
X67627205Y-84596945D01*
X67623761Y-84595379D01*
X67623757Y-84595377D01*
X67575849Y-84573595D01*
X67566185Y-84569201D01*
X67512452Y-84522797D01*
X67492336Y-84454710D01*
X67512225Y-84386556D01*
X67565803Y-84339974D01*
X67618336Y-84328500D01*
X68844250Y-84328500D01*
X68865155Y-84330246D01*
X68880156Y-84332770D01*
X68880159Y-84332770D01*
X68884948Y-84333576D01*
X68891187Y-84333652D01*
X68892640Y-84333670D01*
X68892643Y-84333670D01*
X68897500Y-84333729D01*
X68909537Y-84332005D01*
X68916378Y-84331216D01*
X68984354Y-84325269D01*
X69091344Y-84315909D01*
X69091349Y-84315908D01*
X69096825Y-84315429D01*
X69102138Y-84314005D01*
X69102140Y-84314005D01*
X69284784Y-84265066D01*
X69284786Y-84265065D01*
X69290094Y-84263643D01*
X69295076Y-84261320D01*
X69466447Y-84181409D01*
X69466452Y-84181406D01*
X69471434Y-84179083D01*
X69562973Y-84114986D01*
X69630824Y-84067477D01*
X69630827Y-84067475D01*
X69635335Y-84064318D01*
X69776818Y-83922835D01*
X69785740Y-83910094D01*
X69888426Y-83763442D01*
X69891583Y-83758934D01*
X69893906Y-83753952D01*
X69893909Y-83753947D01*
X69953995Y-83625091D01*
X70000912Y-83571806D01*
X70069190Y-83552345D01*
X70137149Y-83572887D01*
G37*
%TD.AperFunction*%
%TA.AperFunction,Conductor*%
G36*
X78107512Y-80718370D02*
G01*
X78114095Y-80724499D01*
X79028156Y-81638560D01*
X79062182Y-81700872D01*
X79057117Y-81771687D01*
X79028234Y-81816673D01*
X79007514Y-81837429D01*
X78998502Y-81848840D01*
X78916496Y-81981880D01*
X78910349Y-81995061D01*
X78861009Y-82143814D01*
X78858142Y-82157190D01*
X78848828Y-82248097D01*
X78848500Y-82254514D01*
X78848500Y-82277885D01*
X78852975Y-82293124D01*
X78854365Y-82294329D01*
X78862048Y-82296000D01*
X79934500Y-82296000D01*
X80002621Y-82316002D01*
X80049114Y-82369658D01*
X80060500Y-82422000D01*
X80060500Y-83514885D01*
X80064975Y-83530124D01*
X80066365Y-83531329D01*
X80074048Y-83533000D01*
X80076938Y-83533000D01*
X80083453Y-83532663D01*
X80175557Y-83523106D01*
X80188956Y-83520212D01*
X80337607Y-83470619D01*
X80350786Y-83464445D01*
X80483673Y-83382212D01*
X80500811Y-83368629D01*
X80502341Y-83370559D01*
X80554380Y-83342097D01*
X80625199Y-83347113D01*
X80662117Y-83370799D01*
X80662872Y-83369843D01*
X80668618Y-83374381D01*
X80673798Y-83379552D01*
X80680028Y-83383392D01*
X80680029Y-83383393D01*
X80811520Y-83464445D01*
X80819399Y-83469302D01*
X80981743Y-83523149D01*
X80988580Y-83523849D01*
X80988582Y-83523850D01*
X81029901Y-83528083D01*
X81082768Y-83533500D01*
X81630232Y-83533500D01*
X81633478Y-83533163D01*
X81633482Y-83533163D01*
X81667583Y-83529625D01*
X81732519Y-83522887D01*
X81886226Y-83471606D01*
X81887824Y-83471073D01*
X81887826Y-83471072D01*
X81894768Y-83468756D01*
X82040213Y-83378752D01*
X82045386Y-83373570D01*
X82045391Y-83373566D01*
X82145866Y-83272915D01*
X82208148Y-83238835D01*
X82278968Y-83243838D01*
X82324132Y-83272835D01*
X83258711Y-84207414D01*
X83292736Y-84269726D01*
X83287671Y-84340542D01*
X83245124Y-84397377D01*
X83227796Y-84408272D01*
X83161958Y-84442545D01*
X83153238Y-84448036D01*
X82982933Y-84575905D01*
X82975226Y-84582748D01*
X82828090Y-84736717D01*
X82821609Y-84744722D01*
X82716998Y-84898074D01*
X82662087Y-84943076D01*
X82591562Y-84951247D01*
X82527815Y-84919993D01*
X82507118Y-84895509D01*
X82426322Y-84770617D01*
X82426320Y-84770614D01*
X82423514Y-84766277D01*
X82273170Y-84601051D01*
X82269119Y-84597852D01*
X82269115Y-84597848D01*
X82101914Y-84465800D01*
X82101910Y-84465798D01*
X82097859Y-84462598D01*
X82078174Y-84451731D01*
X82021053Y-84420199D01*
X81902289Y-84354638D01*
X81897420Y-84352914D01*
X81897416Y-84352912D01*
X81696587Y-84281795D01*
X81696583Y-84281794D01*
X81691712Y-84280069D01*
X81686619Y-84279162D01*
X81686616Y-84279161D01*
X81476873Y-84241800D01*
X81476867Y-84241799D01*
X81471784Y-84240894D01*
X81397952Y-84239992D01*
X81253581Y-84238228D01*
X81253579Y-84238228D01*
X81248411Y-84238165D01*
X81027591Y-84271955D01*
X80815256Y-84341357D01*
X80768780Y-84365551D01*
X80639143Y-84433036D01*
X80617107Y-84444507D01*
X80612974Y-84447610D01*
X80612971Y-84447612D01*
X80442600Y-84575530D01*
X80438465Y-84578635D01*
X80405920Y-84612691D01*
X80296910Y-84726764D01*
X80284129Y-84740138D01*
X80176701Y-84897621D01*
X80121793Y-84942621D01*
X80051268Y-84950792D01*
X79987521Y-84919538D01*
X79966824Y-84895054D01*
X79886322Y-84770617D01*
X79886320Y-84770614D01*
X79883514Y-84766277D01*
X79733170Y-84601051D01*
X79729119Y-84597852D01*
X79729115Y-84597848D01*
X79561914Y-84465800D01*
X79561910Y-84465798D01*
X79557859Y-84462598D01*
X79538174Y-84451731D01*
X79481053Y-84420199D01*
X79362289Y-84354638D01*
X79357420Y-84352914D01*
X79357416Y-84352912D01*
X79156587Y-84281795D01*
X79156583Y-84281794D01*
X79151712Y-84280069D01*
X79146619Y-84279162D01*
X79146616Y-84279161D01*
X78936873Y-84241800D01*
X78936867Y-84241799D01*
X78931784Y-84240894D01*
X78857952Y-84239992D01*
X78713581Y-84238228D01*
X78713579Y-84238228D01*
X78708411Y-84238165D01*
X78487591Y-84271955D01*
X78275256Y-84341357D01*
X78228780Y-84365551D01*
X78099143Y-84433036D01*
X78077107Y-84444507D01*
X78072974Y-84447610D01*
X78072971Y-84447612D01*
X77902600Y-84575530D01*
X77898465Y-84578635D01*
X77865920Y-84612691D01*
X77756910Y-84726764D01*
X77744129Y-84740138D01*
X77636701Y-84897621D01*
X77581793Y-84942621D01*
X77511268Y-84950792D01*
X77447521Y-84919538D01*
X77426824Y-84895054D01*
X77346322Y-84770617D01*
X77346320Y-84770614D01*
X77343514Y-84766277D01*
X77193170Y-84601051D01*
X77189119Y-84597852D01*
X77189115Y-84597848D01*
X77021914Y-84465800D01*
X77021910Y-84465798D01*
X77017859Y-84462598D01*
X76998174Y-84451731D01*
X76941053Y-84420199D01*
X76822289Y-84354638D01*
X76817420Y-84352914D01*
X76817416Y-84352912D01*
X76616587Y-84281795D01*
X76616583Y-84281794D01*
X76611712Y-84280069D01*
X76606619Y-84279162D01*
X76606616Y-84279161D01*
X76396873Y-84241800D01*
X76396867Y-84241799D01*
X76391784Y-84240894D01*
X76317952Y-84239992D01*
X76173581Y-84238228D01*
X76173579Y-84238228D01*
X76168411Y-84238165D01*
X75947591Y-84271955D01*
X75735256Y-84341357D01*
X75688780Y-84365551D01*
X75559143Y-84433036D01*
X75537107Y-84444507D01*
X75532974Y-84447610D01*
X75532971Y-84447612D01*
X75362600Y-84575530D01*
X75358465Y-84578635D01*
X75325920Y-84612691D01*
X75216910Y-84726764D01*
X75204129Y-84740138D01*
X75201220Y-84744403D01*
X75201214Y-84744411D01*
X75169484Y-84790926D01*
X75078243Y-84924680D01*
X75058742Y-84966691D01*
X74993250Y-85107783D01*
X74984188Y-85127305D01*
X74924489Y-85342570D01*
X74900751Y-85564695D01*
X74901048Y-85569848D01*
X74901048Y-85569851D01*
X74910736Y-85737869D01*
X74913610Y-85787715D01*
X74914747Y-85792761D01*
X74914748Y-85792767D01*
X74921537Y-85822891D01*
X74962722Y-86005639D01*
X75016584Y-86138287D01*
X75042372Y-86201794D01*
X75046766Y-86212616D01*
X75086442Y-86277362D01*
X75160791Y-86398688D01*
X75163487Y-86403088D01*
X75309750Y-86571938D01*
X75421485Y-86664702D01*
X75464720Y-86700596D01*
X75481626Y-86714632D01*
X75515852Y-86734632D01*
X75554945Y-86757476D01*
X75603669Y-86809114D01*
X75616740Y-86878897D01*
X75590009Y-86944669D01*
X75549555Y-86978027D01*
X75537107Y-86984507D01*
X75532974Y-86987610D01*
X75532971Y-86987612D01*
X75366062Y-87112931D01*
X75358465Y-87118635D01*
X75302036Y-87177684D01*
X75235794Y-87247003D01*
X75204129Y-87280138D01*
X75201220Y-87284403D01*
X75201214Y-87284411D01*
X75168960Y-87331694D01*
X75078243Y-87464680D01*
X75055424Y-87513840D01*
X74994152Y-87645840D01*
X74984188Y-87667305D01*
X74924489Y-87882570D01*
X74900751Y-88104695D01*
X74913610Y-88327715D01*
X74914747Y-88332761D01*
X74914748Y-88332767D01*
X74919561Y-88354121D01*
X74962722Y-88545639D01*
X75046766Y-88752616D01*
X75084185Y-88813678D01*
X75160791Y-88938688D01*
X75163487Y-88943088D01*
X75166867Y-88946990D01*
X75176740Y-88958388D01*
X75309750Y-89111938D01*
X75481626Y-89254632D01*
X75674500Y-89367338D01*
X75679325Y-89369180D01*
X75679326Y-89369181D01*
X75806620Y-89417790D01*
X75863123Y-89460778D01*
X75887416Y-89527489D01*
X75871786Y-89596744D01*
X75821195Y-89646554D01*
X75761671Y-89661500D01*
X72564571Y-89661500D01*
X72496450Y-89641498D01*
X72449957Y-89587842D01*
X72439853Y-89517568D01*
X72469347Y-89452988D01*
X72502757Y-89426032D01*
X72509205Y-89423615D01*
X72625761Y-89336261D01*
X72713115Y-89219705D01*
X72764245Y-89083316D01*
X72771000Y-89021134D01*
X72771000Y-87712595D01*
X72791002Y-87644474D01*
X72807905Y-87623500D01*
X73441196Y-86990209D01*
X73449482Y-86982669D01*
X73455961Y-86978557D01*
X73502587Y-86928905D01*
X73505341Y-86926064D01*
X73525078Y-86906327D01*
X73527558Y-86903130D01*
X73535263Y-86894108D01*
X73539311Y-86889797D01*
X73565529Y-86861878D01*
X73569348Y-86854932D01*
X73569350Y-86854929D01*
X73575291Y-86844123D01*
X73586142Y-86827604D01*
X73590308Y-86822233D01*
X73598557Y-86811598D01*
X73601702Y-86804329D01*
X73601705Y-86804325D01*
X73616117Y-86771020D01*
X73621334Y-86760370D01*
X73642638Y-86721617D01*
X73647676Y-86701994D01*
X73654080Y-86683291D01*
X73658976Y-86671977D01*
X73658976Y-86671976D01*
X73662124Y-86664702D01*
X73663363Y-86656879D01*
X73663366Y-86656869D01*
X73669042Y-86621033D01*
X73671448Y-86609413D01*
X73680471Y-86574268D01*
X73680471Y-86574267D01*
X73682443Y-86566587D01*
X73682443Y-86546333D01*
X73683994Y-86526622D01*
X73685923Y-86514443D01*
X73687163Y-86506614D01*
X73683002Y-86462595D01*
X73682443Y-86450738D01*
X73682443Y-81954210D01*
X73682970Y-81943027D01*
X73684645Y-81935534D01*
X73683715Y-81905931D01*
X73682505Y-81867457D01*
X73682443Y-81863498D01*
X73682443Y-81835587D01*
X73681938Y-81831587D01*
X73681005Y-81819744D01*
X73680909Y-81816673D01*
X73679616Y-81775554D01*
X73673964Y-81756100D01*
X73669956Y-81736743D01*
X73668925Y-81728586D01*
X73667417Y-81716646D01*
X73666370Y-81714001D01*
X73668728Y-81645305D01*
X73709137Y-81586930D01*
X73774692Y-81559670D01*
X73844578Y-81572178D01*
X73877430Y-81595834D01*
X73885843Y-81604247D01*
X73893387Y-81612537D01*
X73897500Y-81619018D01*
X73903277Y-81624443D01*
X73947167Y-81665658D01*
X73950009Y-81668413D01*
X73969731Y-81688135D01*
X73972873Y-81690572D01*
X73972933Y-81690619D01*
X73981945Y-81698317D01*
X74001053Y-81716260D01*
X74014179Y-81728586D01*
X74029017Y-81736743D01*
X74031931Y-81738345D01*
X74048453Y-81749198D01*
X74064459Y-81761614D01*
X74071737Y-81764764D01*
X74071738Y-81764764D01*
X74105037Y-81779174D01*
X74115687Y-81784391D01*
X74154440Y-81805695D01*
X74162115Y-81807666D01*
X74162116Y-81807666D01*
X74174062Y-81810733D01*
X74192766Y-81817137D01*
X74198791Y-81819744D01*
X74211355Y-81825181D01*
X74219178Y-81826420D01*
X74219188Y-81826423D01*
X74255024Y-81832099D01*
X74266644Y-81834505D01*
X74301789Y-81843528D01*
X74309470Y-81845500D01*
X74329724Y-81845500D01*
X74349434Y-81847051D01*
X74369443Y-81850220D01*
X74377335Y-81849474D01*
X74413461Y-81846059D01*
X74425319Y-81845500D01*
X74756000Y-81845500D01*
X74824121Y-81865502D01*
X74870614Y-81919158D01*
X74882000Y-81971500D01*
X74882000Y-83510134D01*
X74888755Y-83572316D01*
X74939885Y-83708705D01*
X75027239Y-83825261D01*
X75143795Y-83912615D01*
X75280184Y-83963745D01*
X75342366Y-83970500D01*
X77438634Y-83970500D01*
X77500816Y-83963745D01*
X77637205Y-83912615D01*
X77753761Y-83825261D01*
X77841115Y-83708705D01*
X77892245Y-83572316D01*
X77899000Y-83510134D01*
X77899000Y-82845438D01*
X78848500Y-82845438D01*
X78848837Y-82851953D01*
X78858394Y-82944057D01*
X78861288Y-82957456D01*
X78910881Y-83106107D01*
X78917055Y-83119286D01*
X78999288Y-83252173D01*
X79008324Y-83263574D01*
X79118929Y-83373986D01*
X79130340Y-83382998D01*
X79263380Y-83465004D01*
X79276561Y-83471151D01*
X79425314Y-83520491D01*
X79438690Y-83523358D01*
X79529597Y-83532672D01*
X79534626Y-83532929D01*
X79549624Y-83528525D01*
X79550829Y-83527135D01*
X79552500Y-83519452D01*
X79552500Y-82822115D01*
X79548025Y-82806876D01*
X79546635Y-82805671D01*
X79538952Y-82804000D01*
X78866615Y-82804000D01*
X78851376Y-82808475D01*
X78850171Y-82809865D01*
X78848500Y-82817548D01*
X78848500Y-82845438D01*
X77899000Y-82845438D01*
X77899000Y-80813594D01*
X77919002Y-80745473D01*
X77972658Y-80698980D01*
X78042932Y-80688876D01*
X78107512Y-80718370D01*
G37*
%TD.AperFunction*%
%TA.AperFunction,Conductor*%
G36*
X80638172Y-79922835D02*
G01*
X80649379Y-79932783D01*
X81061445Y-80344849D01*
X81095471Y-80407161D01*
X81090406Y-80477976D01*
X81089500Y-80480172D01*
X81089500Y-81408000D01*
X81069498Y-81476121D01*
X81015842Y-81522614D01*
X80963500Y-81534000D01*
X80790000Y-81534000D01*
X80721879Y-81513998D01*
X80675386Y-81460342D01*
X80664000Y-81408000D01*
X80664000Y-81044516D01*
X80661106Y-81007746D01*
X80632416Y-80908995D01*
X80617606Y-80858016D01*
X80617605Y-80858014D01*
X80615394Y-80850403D01*
X80599046Y-80822760D01*
X80581500Y-80758621D01*
X80581500Y-80486442D01*
X80577527Y-80472911D01*
X80569629Y-80471776D01*
X80443716Y-80508357D01*
X80429278Y-80514605D01*
X80420128Y-80520016D01*
X80351312Y-80537474D01*
X80291853Y-80520015D01*
X80282704Y-80514605D01*
X80275097Y-80510106D01*
X80267486Y-80507895D01*
X80267484Y-80507894D01*
X80209696Y-80491105D01*
X80149860Y-80452892D01*
X80120183Y-80388395D01*
X80130087Y-80318093D01*
X80170787Y-80268174D01*
X80232480Y-80223350D01*
X80261834Y-80202024D01*
X80261836Y-80202022D01*
X80267178Y-80198141D01*
X80299325Y-80162438D01*
X80390546Y-80061127D01*
X80390547Y-80061126D01*
X80394965Y-80056219D01*
X80451165Y-79958878D01*
X80502548Y-79909885D01*
X80572261Y-79896449D01*
X80638172Y-79922835D01*
G37*
%TD.AperFunction*%
%TA.AperFunction,Conductor*%
G36*
X72771147Y-73149985D02*
G01*
X72772419Y-73150737D01*
X72787903Y-73159894D01*
X72795514Y-73162105D01*
X72795516Y-73162106D01*
X72821924Y-73169778D01*
X72945246Y-73205606D01*
X72951651Y-73206110D01*
X72951656Y-73206111D01*
X72979560Y-73208307D01*
X72979568Y-73208307D01*
X72982016Y-73208500D01*
X73067282Y-73208500D01*
X73133411Y-73229986D01*
X73134180Y-73228587D01*
X73151934Y-73238348D01*
X73168453Y-73249199D01*
X73184459Y-73261614D01*
X73191728Y-73264759D01*
X73191732Y-73264762D01*
X73225037Y-73279174D01*
X73235687Y-73284391D01*
X73274440Y-73305695D01*
X73282115Y-73307666D01*
X73282116Y-73307666D01*
X73294062Y-73310733D01*
X73312767Y-73317137D01*
X73331355Y-73325181D01*
X73339178Y-73326420D01*
X73339188Y-73326423D01*
X73375024Y-73332099D01*
X73386644Y-73334505D01*
X73421789Y-73343528D01*
X73429470Y-73345500D01*
X73449724Y-73345500D01*
X73469434Y-73347051D01*
X73489443Y-73350220D01*
X73497335Y-73349474D01*
X73533461Y-73346059D01*
X73545319Y-73345500D01*
X74756000Y-73345500D01*
X74824121Y-73365502D01*
X74870614Y-73419158D01*
X74882000Y-73471500D01*
X74882000Y-75010134D01*
X74888755Y-75072316D01*
X74939885Y-75208705D01*
X75027239Y-75325261D01*
X75143795Y-75412615D01*
X75280184Y-75463745D01*
X75342366Y-75470500D01*
X77438634Y-75470500D01*
X77500816Y-75463745D01*
X77637205Y-75412615D01*
X77753761Y-75325261D01*
X77818297Y-75239151D01*
X77875157Y-75196637D01*
X77945975Y-75191612D01*
X78008218Y-75225622D01*
X78546715Y-75764119D01*
X78580741Y-75826431D01*
X78575676Y-75897246D01*
X78533129Y-75954082D01*
X78504003Y-75970366D01*
X78472588Y-75982804D01*
X78461358Y-75986649D01*
X78426517Y-75996771D01*
X78426516Y-75996771D01*
X78418907Y-75998982D01*
X78412088Y-76003015D01*
X78412083Y-76003017D01*
X78401472Y-76009293D01*
X78383724Y-76017988D01*
X78364883Y-76025448D01*
X78358467Y-76030110D01*
X78358466Y-76030110D01*
X78329113Y-76051436D01*
X78319193Y-76057952D01*
X78287965Y-76076420D01*
X78287962Y-76076422D01*
X78281138Y-76080458D01*
X78266817Y-76094779D01*
X78251784Y-76107619D01*
X78235393Y-76119528D01*
X78230342Y-76125633D01*
X78230337Y-76125638D01*
X78207201Y-76153604D01*
X78199213Y-76162382D01*
X77395247Y-76966348D01*
X77386961Y-76973888D01*
X77380482Y-76978000D01*
X77375057Y-76983777D01*
X77333857Y-77027651D01*
X77331102Y-77030493D01*
X77311365Y-77050230D01*
X77308885Y-77053427D01*
X77301182Y-77062447D01*
X77270914Y-77094679D01*
X77267095Y-77101625D01*
X77267093Y-77101628D01*
X77261152Y-77112434D01*
X77250301Y-77128953D01*
X77237886Y-77144959D01*
X77234741Y-77152228D01*
X77234738Y-77152232D01*
X77220326Y-77185537D01*
X77215109Y-77196187D01*
X77193805Y-77234940D01*
X77191834Y-77242615D01*
X77191834Y-77242616D01*
X77188767Y-77254562D01*
X77182363Y-77273266D01*
X77174319Y-77291855D01*
X77173080Y-77299678D01*
X77173077Y-77299688D01*
X77167401Y-77335524D01*
X77164995Y-77347144D01*
X77161070Y-77362432D01*
X77154000Y-77389970D01*
X77154000Y-77410224D01*
X77152449Y-77429934D01*
X77149280Y-77449943D01*
X77150026Y-77457835D01*
X77153441Y-77493961D01*
X77154000Y-77505819D01*
X77154000Y-78250405D01*
X77133998Y-78318526D01*
X77117095Y-78339500D01*
X77040000Y-78416595D01*
X76977688Y-78450621D01*
X76950905Y-78453500D01*
X75342366Y-78453500D01*
X75280184Y-78460255D01*
X75143795Y-78511385D01*
X75027239Y-78598739D01*
X74939885Y-78715295D01*
X74888755Y-78851684D01*
X74882000Y-78913866D01*
X74882000Y-80452500D01*
X74861998Y-80520621D01*
X74808342Y-80567114D01*
X74756000Y-80578500D01*
X74704095Y-80578500D01*
X74635974Y-80558498D01*
X74614999Y-80541595D01*
X74012904Y-79939499D01*
X73978879Y-79877187D01*
X73976000Y-79850404D01*
X73976000Y-79774516D01*
X73975270Y-79765235D01*
X73973611Y-79744156D01*
X73973610Y-79744151D01*
X73973106Y-79737746D01*
X73927394Y-79580403D01*
X73888257Y-79514225D01*
X73848022Y-79446192D01*
X73843988Y-79439371D01*
X73728129Y-79323512D01*
X73721308Y-79319478D01*
X73593920Y-79244141D01*
X73593919Y-79244141D01*
X73587097Y-79240106D01*
X73579486Y-79237895D01*
X73579484Y-79237894D01*
X73528505Y-79223084D01*
X73429754Y-79194394D01*
X73423349Y-79193890D01*
X73423344Y-79193889D01*
X73395440Y-79191693D01*
X73395432Y-79191693D01*
X73392984Y-79191500D01*
X72982016Y-79191500D01*
X72979568Y-79191693D01*
X72979560Y-79191693D01*
X72951656Y-79193889D01*
X72951651Y-79193890D01*
X72945246Y-79194394D01*
X72846495Y-79223084D01*
X72795516Y-79237894D01*
X72795514Y-79237895D01*
X72787903Y-79240106D01*
X72781076Y-79244143D01*
X72781077Y-79244143D01*
X72771147Y-79250015D01*
X72702330Y-79267474D01*
X72642872Y-79250016D01*
X72633722Y-79244605D01*
X72619284Y-79238357D01*
X72475859Y-79196688D01*
X72463256Y-79194386D01*
X72435398Y-79192193D01*
X72430469Y-79192000D01*
X72382000Y-79192000D01*
X72313879Y-79171998D01*
X72267386Y-79118342D01*
X72256000Y-79066000D01*
X72256000Y-73334000D01*
X72276002Y-73265879D01*
X72329658Y-73219386D01*
X72382000Y-73208000D01*
X72430469Y-73208000D01*
X72435398Y-73207807D01*
X72463256Y-73205614D01*
X72475859Y-73203312D01*
X72619284Y-73161643D01*
X72633722Y-73155395D01*
X72642872Y-73149984D01*
X72711688Y-73132526D01*
X72771147Y-73149985D01*
G37*
%TD.AperFunction*%
%TA.AperFunction,Conductor*%
G36*
X84718871Y-76409713D02*
G01*
X84734781Y-76423185D01*
X85288843Y-76977247D01*
X85296387Y-76985537D01*
X85300500Y-76992018D01*
X85306277Y-76997443D01*
X85350167Y-77038658D01*
X85353009Y-77041413D01*
X85372731Y-77061135D01*
X85375855Y-77063558D01*
X85375859Y-77063562D01*
X85375924Y-77063612D01*
X85384945Y-77071317D01*
X85417179Y-77101586D01*
X85424127Y-77105405D01*
X85424129Y-77105407D01*
X85434932Y-77111346D01*
X85451459Y-77122202D01*
X85461198Y-77129757D01*
X85461200Y-77129758D01*
X85467460Y-77134614D01*
X85508040Y-77152174D01*
X85518688Y-77157391D01*
X85548609Y-77173840D01*
X85557440Y-77178695D01*
X85565116Y-77180666D01*
X85565119Y-77180667D01*
X85577062Y-77183733D01*
X85595767Y-77190137D01*
X85614355Y-77198181D01*
X85622178Y-77199420D01*
X85622188Y-77199423D01*
X85658024Y-77205099D01*
X85669644Y-77207505D01*
X85704789Y-77216528D01*
X85712470Y-77218500D01*
X85732724Y-77218500D01*
X85752434Y-77220051D01*
X85772443Y-77223220D01*
X85780335Y-77222474D01*
X85816461Y-77219059D01*
X85828319Y-77218500D01*
X87237070Y-77218500D01*
X87305191Y-77238502D01*
X87351684Y-77292158D01*
X87361788Y-77362432D01*
X87356903Y-77383436D01*
X87307958Y-77534072D01*
X87307268Y-77540633D01*
X87307268Y-77540635D01*
X87293567Y-77670999D01*
X87287996Y-77724000D01*
X87288686Y-77730565D01*
X87306895Y-77903811D01*
X87307958Y-77913928D01*
X87366973Y-78095556D01*
X87462460Y-78260944D01*
X87466878Y-78265851D01*
X87466879Y-78265852D01*
X87578507Y-78389827D01*
X87590247Y-78402866D01*
X87660446Y-78453869D01*
X87735272Y-78508233D01*
X87744748Y-78515118D01*
X87750776Y-78517802D01*
X87750778Y-78517803D01*
X87913181Y-78590109D01*
X87919212Y-78592794D01*
X88008844Y-78611846D01*
X88099556Y-78631128D01*
X88099561Y-78631128D01*
X88106013Y-78632500D01*
X88296987Y-78632500D01*
X88303440Y-78631128D01*
X88303453Y-78631127D01*
X88466995Y-78596364D01*
X88537785Y-78601765D01*
X88586828Y-78635300D01*
X88601822Y-78651953D01*
X88601829Y-78651959D01*
X88606247Y-78656866D01*
X88611589Y-78660747D01*
X88611591Y-78660749D01*
X88735425Y-78750720D01*
X88760748Y-78769118D01*
X88766776Y-78771802D01*
X88766778Y-78771803D01*
X88908722Y-78835000D01*
X88935212Y-78846794D01*
X89018611Y-78864521D01*
X89115556Y-78885128D01*
X89115561Y-78885128D01*
X89122013Y-78886500D01*
X89312987Y-78886500D01*
X89319439Y-78885128D01*
X89319444Y-78885128D01*
X89416389Y-78864521D01*
X89441804Y-78859119D01*
X89512594Y-78864521D01*
X89569226Y-78907338D01*
X89593720Y-78973975D01*
X89594000Y-78982366D01*
X89594000Y-79198244D01*
X89594538Y-79202330D01*
X89594538Y-79202331D01*
X89609019Y-79312324D01*
X89607474Y-79312527D01*
X89607474Y-79357473D01*
X89609019Y-79357676D01*
X89594000Y-79471756D01*
X89594000Y-79625500D01*
X89573998Y-79693621D01*
X89520342Y-79740114D01*
X89468000Y-79751500D01*
X89314256Y-79751500D01*
X89310170Y-79752038D01*
X89310169Y-79752038D01*
X89200176Y-79766519D01*
X89200007Y-79765234D01*
X89154927Y-79765235D01*
X89154694Y-79767006D01*
X89095460Y-79759208D01*
X89081278Y-79761419D01*
X89075717Y-79780784D01*
X89037689Y-79840737D01*
X89031316Y-79845967D01*
X89004204Y-79866771D01*
X88937984Y-79892372D01*
X88868435Y-79878108D01*
X88850795Y-79866771D01*
X88823592Y-79845897D01*
X88781725Y-79788558D01*
X88779401Y-79781433D01*
X88773456Y-79761187D01*
X88759917Y-79759158D01*
X88700306Y-79767006D01*
X88700073Y-79765235D01*
X88654993Y-79765234D01*
X88654824Y-79766519D01*
X88544831Y-79752038D01*
X88544830Y-79752038D01*
X88540744Y-79751500D01*
X88314256Y-79751500D01*
X88310170Y-79752038D01*
X88310169Y-79752038D01*
X88200176Y-79766519D01*
X88199973Y-79764974D01*
X88155027Y-79764974D01*
X88154824Y-79766519D01*
X88044831Y-79752038D01*
X88044830Y-79752038D01*
X88040744Y-79751500D01*
X87814256Y-79751500D01*
X87810170Y-79752038D01*
X87810169Y-79752038D01*
X87700176Y-79766519D01*
X87699973Y-79764974D01*
X87655027Y-79764974D01*
X87654824Y-79766519D01*
X87544831Y-79752038D01*
X87544830Y-79752038D01*
X87540744Y-79751500D01*
X87314256Y-79751500D01*
X87310170Y-79752038D01*
X87310169Y-79752038D01*
X87294720Y-79754072D01*
X87211631Y-79765011D01*
X87141483Y-79754072D01*
X87088384Y-79706944D01*
X87069194Y-79638590D01*
X87069875Y-79626919D01*
X87082314Y-79508565D01*
X87083004Y-79502000D01*
X87080471Y-79477902D01*
X87063732Y-79318635D01*
X87063732Y-79318633D01*
X87063042Y-79312072D01*
X87004027Y-79130444D01*
X86979381Y-79087755D01*
X86927318Y-78997580D01*
X86908540Y-78965056D01*
X86888241Y-78942511D01*
X86785175Y-78828045D01*
X86785174Y-78828044D01*
X86780753Y-78823134D01*
X86640979Y-78721582D01*
X86631594Y-78714763D01*
X86631593Y-78714762D01*
X86626252Y-78710882D01*
X86620224Y-78708198D01*
X86620222Y-78708197D01*
X86457819Y-78635891D01*
X86457818Y-78635891D01*
X86451788Y-78633206D01*
X86390029Y-78620079D01*
X86327557Y-78586351D01*
X86296394Y-78535768D01*
X86295988Y-78534516D01*
X86242027Y-78368444D01*
X86146540Y-78203056D01*
X86018753Y-78061134D01*
X85890110Y-77967669D01*
X85869594Y-77952763D01*
X85869593Y-77952762D01*
X85864252Y-77948882D01*
X85858224Y-77946198D01*
X85858222Y-77946197D01*
X85695819Y-77873891D01*
X85695818Y-77873891D01*
X85689788Y-77871206D01*
X85587670Y-77849500D01*
X85509444Y-77832872D01*
X85509439Y-77832872D01*
X85502987Y-77831500D01*
X85312013Y-77831500D01*
X85305561Y-77832872D01*
X85305556Y-77832872D01*
X85227330Y-77849500D01*
X85125212Y-77871206D01*
X85119182Y-77873891D01*
X85119181Y-77873891D01*
X84956778Y-77946197D01*
X84956776Y-77946198D01*
X84950748Y-77948882D01*
X84945407Y-77952762D01*
X84945406Y-77952763D01*
X84924890Y-77967669D01*
X84796247Y-78061134D01*
X84668460Y-78203056D01*
X84572973Y-78368444D01*
X84519013Y-78534516D01*
X84518606Y-78535768D01*
X84478532Y-78594374D01*
X84424971Y-78620078D01*
X84363212Y-78633206D01*
X84357182Y-78635891D01*
X84357181Y-78635891D01*
X84194778Y-78708197D01*
X84194776Y-78708198D01*
X84188748Y-78710882D01*
X84183407Y-78714762D01*
X84183406Y-78714763D01*
X84174021Y-78721582D01*
X84034247Y-78823134D01*
X84029826Y-78828044D01*
X84029825Y-78828045D01*
X83966471Y-78898407D01*
X83906025Y-78935647D01*
X83835042Y-78934295D01*
X83776057Y-78894782D01*
X83747799Y-78829651D01*
X83747913Y-78797651D01*
X83760462Y-78702331D01*
X83760462Y-78702330D01*
X83761000Y-78698244D01*
X83761000Y-78471756D01*
X83745981Y-78357676D01*
X83747526Y-78357473D01*
X83747526Y-78312527D01*
X83745981Y-78312324D01*
X83760462Y-78202331D01*
X83760462Y-78202330D01*
X83761000Y-78198244D01*
X83761000Y-77971756D01*
X83745981Y-77857676D01*
X83747266Y-77857507D01*
X83747265Y-77812427D01*
X83745494Y-77812194D01*
X83753292Y-77752960D01*
X83750846Y-77737268D01*
X83743105Y-77728547D01*
X83712846Y-77664321D01*
X83722113Y-77593932D01*
X83750403Y-77554024D01*
X83755292Y-77550472D01*
X83783483Y-77516395D01*
X83791473Y-77507616D01*
X84275747Y-77023342D01*
X84284037Y-77015798D01*
X84290518Y-77011685D01*
X84337159Y-76962017D01*
X84339913Y-76959176D01*
X84359634Y-76939455D01*
X84362112Y-76936260D01*
X84369818Y-76927238D01*
X84394658Y-76900786D01*
X84400086Y-76895006D01*
X84409846Y-76877253D01*
X84420699Y-76860730D01*
X84428253Y-76850991D01*
X84433113Y-76844726D01*
X84450676Y-76804142D01*
X84455883Y-76793512D01*
X84477195Y-76754745D01*
X84479166Y-76747068D01*
X84479168Y-76747063D01*
X84482232Y-76735127D01*
X84488638Y-76716415D01*
X84493533Y-76705104D01*
X84496681Y-76697830D01*
X84497921Y-76690002D01*
X84497923Y-76689995D01*
X84503599Y-76654161D01*
X84506005Y-76642541D01*
X84515028Y-76607396D01*
X84515028Y-76607395D01*
X84517000Y-76599715D01*
X84517000Y-76579461D01*
X84518551Y-76559750D01*
X84520480Y-76547571D01*
X84521720Y-76539742D01*
X84520245Y-76524138D01*
X84533748Y-76454437D01*
X84582790Y-76403101D01*
X84651801Y-76386428D01*
X84718871Y-76409713D01*
G37*
%TD.AperFunction*%
%TA.AperFunction,Conductor*%
G36*
X80557997Y-77738502D02*
G01*
X80604490Y-77792158D01*
X80614594Y-77862432D01*
X80585100Y-77927012D01*
X80525029Y-77965497D01*
X80413516Y-77997894D01*
X80413514Y-77997895D01*
X80405903Y-78000106D01*
X80391639Y-78008541D01*
X80322825Y-78026001D01*
X80263361Y-78008542D01*
X80249097Y-78000106D01*
X80241486Y-77997895D01*
X80241484Y-77997894D01*
X80129971Y-77965497D01*
X80070136Y-77927284D01*
X80040458Y-77862788D01*
X80050361Y-77792486D01*
X80096701Y-77738697D01*
X80165124Y-77718500D01*
X80489876Y-77718500D01*
X80557997Y-77738502D01*
G37*
%TD.AperFunction*%
%TA.AperFunction,Conductor*%
G36*
X92274569Y-73806606D02*
G01*
X92294287Y-73822691D01*
X93285843Y-74814247D01*
X93293387Y-74822537D01*
X93297500Y-74829018D01*
X93303277Y-74834443D01*
X93347167Y-74875658D01*
X93350009Y-74878413D01*
X93369731Y-74898135D01*
X93372873Y-74900572D01*
X93372933Y-74900619D01*
X93381945Y-74908317D01*
X93407536Y-74932347D01*
X93414179Y-74938586D01*
X93421122Y-74942403D01*
X93431931Y-74948345D01*
X93448453Y-74959198D01*
X93464459Y-74971614D01*
X93471737Y-74974764D01*
X93471738Y-74974764D01*
X93505037Y-74989174D01*
X93515687Y-74994391D01*
X93554440Y-75015695D01*
X93562115Y-75017666D01*
X93562116Y-75017666D01*
X93574062Y-75020733D01*
X93592767Y-75027137D01*
X93611355Y-75035181D01*
X93619178Y-75036420D01*
X93619188Y-75036423D01*
X93655024Y-75042099D01*
X93666644Y-75044505D01*
X93701789Y-75053528D01*
X93709470Y-75055500D01*
X93729724Y-75055500D01*
X93749434Y-75057051D01*
X93769443Y-75060220D01*
X93777335Y-75059474D01*
X93802967Y-75057051D01*
X93813462Y-75056059D01*
X93825319Y-75055500D01*
X94851514Y-75055500D01*
X94919635Y-75075502D01*
X94940610Y-75092405D01*
X95023807Y-75175603D01*
X95057832Y-75237916D01*
X95052766Y-75308731D01*
X95010219Y-75365567D01*
X94943699Y-75390377D01*
X94934711Y-75390698D01*
X92446978Y-75390698D01*
X92378857Y-75370696D01*
X92357882Y-75353793D01*
X92287886Y-75283796D01*
X92196831Y-75192741D01*
X92189298Y-75184463D01*
X92185185Y-75177982D01*
X92135547Y-75131370D01*
X92132702Y-75128613D01*
X92122900Y-75118810D01*
X92088878Y-75056496D01*
X92086000Y-75029719D01*
X92086000Y-74971756D01*
X92078100Y-74911746D01*
X92070981Y-74857676D01*
X92072526Y-74857473D01*
X92072526Y-74812527D01*
X92070981Y-74812324D01*
X92085462Y-74702331D01*
X92085462Y-74702330D01*
X92086000Y-74698244D01*
X92086000Y-74471756D01*
X92079450Y-74422000D01*
X92070981Y-74357676D01*
X92072526Y-74357473D01*
X92072526Y-74312527D01*
X92070981Y-74312324D01*
X92085462Y-74202331D01*
X92085462Y-74202330D01*
X92086000Y-74198244D01*
X92086000Y-73971756D01*
X92080935Y-73933280D01*
X92080270Y-73928232D01*
X92091209Y-73858083D01*
X92138338Y-73804985D01*
X92206691Y-73785795D01*
X92274569Y-73806606D01*
G37*
%TD.AperFunction*%
%TA.AperFunction,Conductor*%
G36*
X92479434Y-71247051D02*
G01*
X92499443Y-71250220D01*
X92507335Y-71249474D01*
X92543461Y-71246059D01*
X92555319Y-71245500D01*
X93957000Y-71245500D01*
X94025121Y-71265502D01*
X94071614Y-71319158D01*
X94083000Y-71371500D01*
X94083000Y-72801134D01*
X94089755Y-72863316D01*
X94140885Y-72999705D01*
X94169180Y-73037459D01*
X94211900Y-73094460D01*
X94236748Y-73160966D01*
X94226712Y-73220064D01*
X94218857Y-73238216D01*
X94177188Y-73381641D01*
X94175732Y-73389609D01*
X94178552Y-73403031D01*
X94190013Y-73406000D01*
X95006000Y-73406000D01*
X95074121Y-73426002D01*
X95120614Y-73479658D01*
X95132000Y-73532000D01*
X95132000Y-73662500D01*
X95111998Y-73730621D01*
X95058342Y-73777114D01*
X95006000Y-73788500D01*
X94104094Y-73788500D01*
X94035973Y-73768498D01*
X94014999Y-73751595D01*
X91724000Y-71460595D01*
X91689974Y-71398283D01*
X91695039Y-71327467D01*
X91737586Y-71270632D01*
X91804106Y-71245821D01*
X91813095Y-71245500D01*
X92459724Y-71245500D01*
X92479434Y-71247051D01*
G37*
%TD.AperFunction*%
%TA.AperFunction,Conductor*%
G36*
X81257121Y-70517502D02*
G01*
X81303614Y-70571158D01*
X81315000Y-70623500D01*
X81315000Y-70867207D01*
X81312768Y-70890816D01*
X81311225Y-70898906D01*
X81311723Y-70906817D01*
X81314751Y-70954951D01*
X81315000Y-70962862D01*
X81315000Y-70978856D01*
X81317006Y-70994730D01*
X81317748Y-71002590D01*
X81321275Y-71058650D01*
X81323725Y-71066191D01*
X81323821Y-71066487D01*
X81328994Y-71089631D01*
X81329032Y-71089935D01*
X81329033Y-71089940D01*
X81330026Y-71097797D01*
X81332943Y-71105163D01*
X81332943Y-71105165D01*
X81334652Y-71109482D01*
X81343500Y-71155865D01*
X81343500Y-71637885D01*
X81347975Y-71653124D01*
X81349365Y-71654329D01*
X81357048Y-71656000D01*
X81883058Y-71656000D01*
X81898297Y-71651525D01*
X81914051Y-71633345D01*
X81921977Y-71615988D01*
X81981703Y-71577604D01*
X82017202Y-71572500D01*
X83213571Y-71572500D01*
X83281692Y-71592502D01*
X83328185Y-71646158D01*
X83338289Y-71716432D01*
X83329982Y-71746713D01*
X83284019Y-71857676D01*
X83269000Y-71971756D01*
X83269000Y-72382905D01*
X83248998Y-72451026D01*
X83232095Y-72472000D01*
X82604095Y-73100000D01*
X82541783Y-73134026D01*
X82470968Y-73128961D01*
X82425905Y-73100000D01*
X81908103Y-72582198D01*
X81876201Y-72528255D01*
X81875168Y-72524699D01*
X81859394Y-72470403D01*
X81849485Y-72453647D01*
X81832026Y-72384830D01*
X81849484Y-72325372D01*
X81854895Y-72316222D01*
X81861143Y-72301784D01*
X81896119Y-72181395D01*
X81896079Y-72167295D01*
X81888809Y-72164000D01*
X81610879Y-72164000D01*
X81546740Y-72146454D01*
X81525920Y-72134141D01*
X81525919Y-72134141D01*
X81519097Y-72130106D01*
X81511486Y-72127895D01*
X81511484Y-72127894D01*
X81448170Y-72109500D01*
X81361754Y-72084394D01*
X81355349Y-72083890D01*
X81355344Y-72083889D01*
X81327440Y-72081693D01*
X81327432Y-72081693D01*
X81324984Y-72081500D01*
X80854016Y-72081500D01*
X80851568Y-72081693D01*
X80851560Y-72081693D01*
X80823656Y-72083889D01*
X80823651Y-72083890D01*
X80817246Y-72084394D01*
X80730830Y-72109500D01*
X80667516Y-72127894D01*
X80667514Y-72127895D01*
X80659903Y-72130106D01*
X80632798Y-72146136D01*
X80620508Y-72153404D01*
X80551692Y-72170863D01*
X80507891Y-72160941D01*
X80503097Y-72158106D01*
X80495484Y-72155894D01*
X80495481Y-72155893D01*
X80407074Y-72130209D01*
X80345754Y-72112394D01*
X80339349Y-72111890D01*
X80339344Y-72111889D01*
X80311440Y-72109693D01*
X80311432Y-72109693D01*
X80308984Y-72109500D01*
X79979095Y-72109500D01*
X79910974Y-72089498D01*
X79890000Y-72072595D01*
X79856405Y-72039000D01*
X79822379Y-71976688D01*
X79819500Y-71949905D01*
X79819500Y-71637885D01*
X80327500Y-71637885D01*
X80331975Y-71653124D01*
X80333365Y-71654329D01*
X80341048Y-71656000D01*
X80817385Y-71656000D01*
X80832624Y-71651525D01*
X80833829Y-71650135D01*
X80835500Y-71642452D01*
X80835500Y-71141576D01*
X80831156Y-71126781D01*
X80820725Y-71124937D01*
X80811141Y-71126688D01*
X80667716Y-71168357D01*
X80653280Y-71174604D01*
X80620539Y-71193967D01*
X80551723Y-71211426D01*
X80506358Y-71201150D01*
X80495280Y-71196356D01*
X80351859Y-71154688D01*
X80343891Y-71153232D01*
X80330469Y-71156052D01*
X80327500Y-71167513D01*
X80327500Y-71637885D01*
X79819500Y-71637885D01*
X79819500Y-71169576D01*
X79815156Y-71154781D01*
X79804725Y-71152937D01*
X79795141Y-71154688D01*
X79651716Y-71196357D01*
X79637274Y-71202607D01*
X79534911Y-71263144D01*
X79466095Y-71280604D01*
X79398764Y-71258087D01*
X79361653Y-71217691D01*
X79333170Y-71168357D01*
X79288540Y-71091056D01*
X79266866Y-71066984D01*
X79165175Y-70954045D01*
X79165174Y-70954044D01*
X79160753Y-70949134D01*
X79047991Y-70867207D01*
X79011594Y-70840763D01*
X79011593Y-70840762D01*
X79006252Y-70836882D01*
X79000224Y-70834198D01*
X79000222Y-70834197D01*
X78837819Y-70761891D01*
X78837818Y-70761891D01*
X78831788Y-70759206D01*
X78773173Y-70746747D01*
X78710700Y-70713019D01*
X78676378Y-70650869D01*
X78681106Y-70580030D01*
X78723382Y-70522992D01*
X78789783Y-70497865D01*
X78799370Y-70497500D01*
X81189000Y-70497500D01*
X81257121Y-70517502D01*
G37*
%TD.AperFunction*%
%TA.AperFunction,Conductor*%
G36*
X86186331Y-70249502D02*
G01*
X86207305Y-70266404D01*
X86582332Y-70641432D01*
X86945158Y-71004258D01*
X86952692Y-71012537D01*
X86956805Y-71019018D01*
X86990583Y-71050737D01*
X87006456Y-71065643D01*
X87009298Y-71068398D01*
X87029035Y-71088135D01*
X87032232Y-71090615D01*
X87041252Y-71098318D01*
X87073484Y-71128586D01*
X87080430Y-71132405D01*
X87080433Y-71132407D01*
X87091239Y-71138348D01*
X87107758Y-71149199D01*
X87123764Y-71161614D01*
X87131033Y-71164759D01*
X87131037Y-71164762D01*
X87164342Y-71179174D01*
X87175000Y-71184395D01*
X87209172Y-71203181D01*
X87259230Y-71253524D01*
X87274124Y-71322941D01*
X87249124Y-71389390D01*
X87192168Y-71431775D01*
X87132025Y-71438517D01*
X87044831Y-71427038D01*
X87044830Y-71427038D01*
X87040744Y-71426500D01*
X86814256Y-71426500D01*
X86810170Y-71427038D01*
X86810169Y-71427038D01*
X86700176Y-71441519D01*
X86699973Y-71439974D01*
X86655027Y-71439974D01*
X86654824Y-71441519D01*
X86544831Y-71427038D01*
X86544830Y-71427038D01*
X86540744Y-71426500D01*
X86314256Y-71426500D01*
X86310170Y-71427038D01*
X86310169Y-71427038D01*
X86200176Y-71441519D01*
X86200007Y-71440234D01*
X86154927Y-71440235D01*
X86154694Y-71442006D01*
X86095460Y-71434208D01*
X86081278Y-71436419D01*
X86075717Y-71455784D01*
X86037689Y-71515737D01*
X86031316Y-71520967D01*
X86004204Y-71541771D01*
X85937984Y-71567372D01*
X85868435Y-71553108D01*
X85850795Y-71541771D01*
X85823592Y-71520897D01*
X85781725Y-71463558D01*
X85779401Y-71456433D01*
X85773456Y-71436187D01*
X85759917Y-71434158D01*
X85700306Y-71442006D01*
X85700073Y-71440235D01*
X85654993Y-71440234D01*
X85654824Y-71441519D01*
X85544831Y-71427038D01*
X85544830Y-71427038D01*
X85540744Y-71426500D01*
X85314256Y-71426500D01*
X85310171Y-71427038D01*
X85310168Y-71427038D01*
X85281699Y-71430786D01*
X85211550Y-71419846D01*
X85158452Y-71372718D01*
X85139262Y-71304364D01*
X85151246Y-71252214D01*
X85152185Y-71250220D01*
X85161548Y-71230322D01*
X85165129Y-71223292D01*
X85192195Y-71174060D01*
X85194165Y-71166385D01*
X85194168Y-71166379D01*
X85194244Y-71166081D01*
X85202276Y-71143772D01*
X85202406Y-71143497D01*
X85202409Y-71143489D01*
X85205783Y-71136318D01*
X85216306Y-71081151D01*
X85218032Y-71073429D01*
X85219702Y-71066928D01*
X85232000Y-71019030D01*
X85232000Y-71010793D01*
X85234232Y-70987184D01*
X85234290Y-70986881D01*
X85234290Y-70986877D01*
X85235775Y-70979094D01*
X85232249Y-70923049D01*
X85232000Y-70915138D01*
X85232000Y-70719595D01*
X85252002Y-70651474D01*
X85268905Y-70630499D01*
X85633001Y-70266404D01*
X85695313Y-70232379D01*
X85722096Y-70229500D01*
X86118210Y-70229500D01*
X86186331Y-70249502D01*
G37*
%TD.AperFunction*%
%TA.AperFunction,Conductor*%
G36*
X75268121Y-64663002D02*
G01*
X75314614Y-64716658D01*
X75326000Y-64769000D01*
X75326000Y-68835000D01*
X75305998Y-68903121D01*
X75252342Y-68949614D01*
X75200000Y-68961000D01*
X74094616Y-68961000D01*
X74079377Y-68965475D01*
X74078172Y-68966865D01*
X74076501Y-68974548D01*
X74076501Y-69104500D01*
X74056499Y-69172621D01*
X74002843Y-69219114D01*
X73950501Y-69230500D01*
X73864658Y-69230500D01*
X73853475Y-69229973D01*
X73845982Y-69228298D01*
X73838056Y-69228547D01*
X73838055Y-69228547D01*
X73777892Y-69230438D01*
X73773934Y-69230500D01*
X73746035Y-69230500D01*
X73742045Y-69231004D01*
X73730211Y-69231936D01*
X73686002Y-69233326D01*
X73678388Y-69235538D01*
X73678383Y-69235539D01*
X73666550Y-69238977D01*
X73647187Y-69242988D01*
X73627094Y-69245526D01*
X73619727Y-69248443D01*
X73619722Y-69248444D01*
X73585983Y-69261802D01*
X73574756Y-69265646D01*
X73532298Y-69277982D01*
X73525472Y-69282019D01*
X73514863Y-69288293D01*
X73497115Y-69296988D01*
X73478274Y-69304448D01*
X73471858Y-69309110D01*
X73471857Y-69309110D01*
X73442504Y-69330436D01*
X73432584Y-69336952D01*
X73401356Y-69355420D01*
X73401353Y-69355422D01*
X73394529Y-69359458D01*
X73380208Y-69373779D01*
X73365175Y-69386619D01*
X73348784Y-69398528D01*
X73340386Y-69408680D01*
X73320593Y-69432605D01*
X73312603Y-69441384D01*
X72210542Y-70543444D01*
X72148230Y-70577470D01*
X72077414Y-70572405D01*
X72020579Y-70529858D01*
X72007991Y-70508412D01*
X72007027Y-70505444D01*
X71911540Y-70340056D01*
X71838363Y-70258785D01*
X71807647Y-70194779D01*
X71806000Y-70174476D01*
X71806000Y-68434885D01*
X74076500Y-68434885D01*
X74080975Y-68450124D01*
X74082365Y-68451329D01*
X74090048Y-68453000D01*
X74799885Y-68453000D01*
X74815124Y-68448525D01*
X74816329Y-68447135D01*
X74818000Y-68439452D01*
X74818000Y-67074115D01*
X74813525Y-67058876D01*
X74812135Y-67057671D01*
X74804452Y-67056000D01*
X74094616Y-67056000D01*
X74079377Y-67060475D01*
X74078172Y-67061865D01*
X74076501Y-67069548D01*
X74076501Y-67304933D01*
X74076838Y-67311452D01*
X74086666Y-67406170D01*
X74089558Y-67419564D01*
X74140536Y-67572365D01*
X74146710Y-67585543D01*
X74210191Y-67688128D01*
X74229029Y-67756580D01*
X74210307Y-67820546D01*
X74146137Y-67924650D01*
X74139991Y-67937832D01*
X74089273Y-68090740D01*
X74086407Y-68104106D01*
X74076828Y-68197601D01*
X74076500Y-68204016D01*
X74076500Y-68434885D01*
X71806000Y-68434885D01*
X71806000Y-67606760D01*
X71826002Y-67538639D01*
X71842905Y-67517665D01*
X73884513Y-65476057D01*
X73946825Y-65442031D01*
X74017640Y-65447096D01*
X74074476Y-65489643D01*
X74093132Y-65525276D01*
X74140536Y-65667365D01*
X74146710Y-65680543D01*
X74210191Y-65783128D01*
X74229029Y-65851580D01*
X74210307Y-65915546D01*
X74146137Y-66019650D01*
X74139991Y-66032832D01*
X74089273Y-66185740D01*
X74086407Y-66199106D01*
X74076828Y-66292601D01*
X74076500Y-66299016D01*
X74076500Y-66529885D01*
X74080975Y-66545124D01*
X74082365Y-66546329D01*
X74090048Y-66548000D01*
X74799885Y-66548000D01*
X74815124Y-66543525D01*
X74816329Y-66542135D01*
X74818000Y-66534452D01*
X74818000Y-64769000D01*
X74838002Y-64700879D01*
X74891658Y-64654386D01*
X74944000Y-64643000D01*
X75200000Y-64643000D01*
X75268121Y-64663002D01*
G37*
%TD.AperFunction*%
%TA.AperFunction,Conductor*%
G36*
X84767527Y-65030002D02*
G01*
X84788501Y-65046905D01*
X86007095Y-66265499D01*
X86041121Y-66327811D01*
X86044000Y-66354594D01*
X86044000Y-66804500D01*
X86023998Y-66872621D01*
X85970342Y-66919114D01*
X85918000Y-66930500D01*
X84908000Y-66930500D01*
X84839879Y-66910498D01*
X84793386Y-66856842D01*
X84782000Y-66804500D01*
X84782000Y-66765866D01*
X84775245Y-66703684D01*
X84724115Y-66567295D01*
X84665547Y-66489148D01*
X84640699Y-66422642D01*
X84655752Y-66353259D01*
X84665547Y-66338018D01*
X84718286Y-66267648D01*
X84726824Y-66252054D01*
X84771978Y-66131606D01*
X84775605Y-66116351D01*
X84781131Y-66065486D01*
X84781500Y-66058672D01*
X84781500Y-65536115D01*
X84777025Y-65520876D01*
X84775635Y-65519671D01*
X84767952Y-65518000D01*
X83145500Y-65518000D01*
X83077379Y-65497998D01*
X83030886Y-65444342D01*
X83019500Y-65392000D01*
X83019500Y-65136000D01*
X83039502Y-65067879D01*
X83093158Y-65021386D01*
X83145500Y-65010000D01*
X84699406Y-65010000D01*
X84767527Y-65030002D01*
G37*
%TD.AperFunction*%
%TA.AperFunction,Conductor*%
G36*
X79961027Y-64407502D02*
G01*
X80007520Y-64461158D01*
X80017624Y-64531432D01*
X79988130Y-64596012D01*
X79982001Y-64602595D01*
X79664000Y-64920596D01*
X79601688Y-64954622D01*
X79574905Y-64957501D01*
X79494512Y-64957501D01*
X79458034Y-64960371D01*
X79361230Y-64988495D01*
X79309517Y-65003519D01*
X79309515Y-65003520D01*
X79301904Y-65005731D01*
X79295079Y-65009767D01*
X79295075Y-65009769D01*
X79248639Y-65037231D01*
X79179823Y-65054691D01*
X79120361Y-65037231D01*
X79073925Y-65009769D01*
X79073921Y-65009767D01*
X79067096Y-65005731D01*
X79059485Y-65003520D01*
X79059483Y-65003519D01*
X78917144Y-64962166D01*
X78917145Y-64962166D01*
X78910966Y-64960371D01*
X78904559Y-64959867D01*
X78904555Y-64959866D01*
X78876944Y-64957693D01*
X78876938Y-64957693D01*
X78874489Y-64957500D01*
X78674622Y-64957500D01*
X78474512Y-64957501D01*
X78438034Y-64960371D01*
X78341230Y-64988495D01*
X78289517Y-65003519D01*
X78289515Y-65003520D01*
X78281904Y-65005731D01*
X78275079Y-65009767D01*
X78275075Y-65009769D01*
X78158495Y-65078714D01*
X78089679Y-65096174D01*
X78022348Y-65073657D01*
X78005261Y-65059356D01*
X77979905Y-65034000D01*
X77945879Y-64971688D01*
X77943000Y-64944905D01*
X77943000Y-64769000D01*
X77942999Y-64513499D01*
X77963001Y-64445380D01*
X78016656Y-64398886D01*
X78068999Y-64387500D01*
X79892906Y-64387500D01*
X79961027Y-64407502D01*
G37*
%TD.AperFunction*%
%TD*%
M02*
