%TF.GenerationSoftware,KiCad,Pcbnew,(6.0.7)*%
%TF.CreationDate,2022-09-05T20:23:25-07:00*%
%TF.ProjectId,EB4,4542342e-6b69-4636-9164-5f7063625858,rev?*%
%TF.SameCoordinates,Original*%
%TF.FileFunction,Profile,NP*%
%FSLAX46Y46*%
G04 Gerber Fmt 4.6, Leading zero omitted, Abs format (unit mm)*
G04 Created by KiCad (PCBNEW (6.0.7)) date 2022-09-05 20:23:25*
%MOMM*%
%LPD*%
G01*
G04 APERTURE LIST*
%TA.AperFunction,Profile*%
%ADD10C,0.100000*%
%TD*%
G04 APERTURE END LIST*
D10*
X100007987Y-90169987D02*
G75*
G03*
X100642987Y-89535000I13J634987D01*
G01*
X100642987Y-89535000D02*
X100647500Y-79883000D01*
X63817500Y-90170000D02*
X69532500Y-90170000D01*
X63817500Y-69850000D02*
X68897500Y-69850000D01*
X69532500Y-63500000D02*
X100007987Y-63500000D01*
X100007987Y-90170000D02*
X69532500Y-90170000D01*
X100643000Y-64135000D02*
G75*
G03*
X100007987Y-63500000I-635000J0D01*
G01*
X63817500Y-83820000D02*
G75*
G03*
X63182500Y-84455000I0J-635000D01*
G01*
X69532500Y-63500000D02*
X63817500Y-63500000D01*
X63182500Y-89535000D02*
G75*
G03*
X63817500Y-90170000I635000J0D01*
G01*
X101663500Y-79883000D02*
G75*
G03*
X100647500Y-79883000I-508000J0D01*
G01*
X69532500Y-83185000D02*
X69532500Y-70485000D01*
X101663500Y-79883000D02*
X101663500Y-90170000D01*
X63182500Y-69215000D02*
G75*
G03*
X63817500Y-69850000I635000J0D01*
G01*
X68897500Y-83820000D02*
G75*
G03*
X69532500Y-83185000I0J635000D01*
G01*
X63182500Y-84455000D02*
X63182500Y-89535000D01*
X69532500Y-70485000D02*
G75*
G03*
X68897500Y-69850000I-635000J0D01*
G01*
X118427500Y-63500000D02*
X101663500Y-63500000D01*
X100647500Y-73660000D02*
G75*
G03*
X101663500Y-73660000I508000J0D01*
G01*
X100647500Y-73660000D02*
X100642987Y-64135000D01*
X118427500Y-90170000D02*
X118427500Y-63500000D01*
X68897500Y-83820000D02*
X63817500Y-83820000D01*
X101663500Y-63754000D02*
X101663500Y-63500000D01*
X63817500Y-63500000D02*
G75*
G03*
X63182500Y-64135000I0J-635000D01*
G01*
X101663500Y-90170000D02*
X118427500Y-90170000D01*
X63182500Y-64135000D02*
X63182500Y-69215000D01*
X101663500Y-63754000D02*
X101663500Y-73660000D01*
M02*
