%TF.GenerationSoftware,KiCad,Pcbnew,(6.0.7)*%
%TF.CreationDate,2022-09-05T20:23:25-07:00*%
%TF.ProjectId,EB4,4542342e-6b69-4636-9164-5f7063625858,rev?*%
%TF.SameCoordinates,Original*%
%TF.FileFunction,Soldermask,Top*%
%TF.FilePolarity,Negative*%
%FSLAX46Y46*%
G04 Gerber Fmt 4.6, Leading zero omitted, Abs format (unit mm)*
G04 Created by KiCad (PCBNEW (6.0.7)) date 2022-09-05 20:23:25*
%MOMM*%
%LPD*%
G01*
G04 APERTURE LIST*
G04 Aperture macros list*
%AMRoundRect*
0 Rectangle with rounded corners*
0 $1 Rounding radius*
0 $2 $3 $4 $5 $6 $7 $8 $9 X,Y pos of 4 corners*
0 Add a 4 corners polygon primitive as box body*
4,1,4,$2,$3,$4,$5,$6,$7,$8,$9,$2,$3,0*
0 Add four circle primitives for the rounded corners*
1,1,$1+$1,$2,$3*
1,1,$1+$1,$4,$5*
1,1,$1+$1,$6,$7*
1,1,$1+$1,$8,$9*
0 Add four rect primitives between the rounded corners*
20,1,$1+$1,$2,$3,$4,$5,0*
20,1,$1+$1,$4,$5,$6,$7,0*
20,1,$1+$1,$6,$7,$8,$9,0*
20,1,$1+$1,$8,$9,$2,$3,0*%
%AMFreePoly0*
4,1,6,1.000000,0.000000,0.500000,-0.750000,-0.500000,-0.750000,-0.500000,0.750000,0.500000,0.750000,1.000000,0.000000,1.000000,0.000000,$1*%
%AMFreePoly1*
4,1,6,0.500000,-0.750000,-0.650000,-0.750000,-0.150000,0.000000,-0.650000,0.750000,0.500000,0.750000,0.500000,-0.750000,0.500000,-0.750000,$1*%
G04 Aperture macros list end*
%ADD10R,0.600000X0.450000*%
%ADD11RoundRect,0.243750X-0.243750X-0.456250X0.243750X-0.456250X0.243750X0.456250X-0.243750X0.456250X0*%
%ADD12R,1.700000X1.700000*%
%ADD13O,1.700000X1.700000*%
%ADD14C,0.700000*%
%ADD15C,4.400000*%
%ADD16RoundRect,0.140000X0.170000X-0.140000X0.170000X0.140000X-0.170000X0.140000X-0.170000X-0.140000X0*%
%ADD17RoundRect,0.075000X-0.662500X-0.075000X0.662500X-0.075000X0.662500X0.075000X-0.662500X0.075000X0*%
%ADD18RoundRect,0.075000X-0.075000X-0.662500X0.075000X-0.662500X0.075000X0.662500X-0.075000X0.662500X0*%
%ADD19RoundRect,0.135000X-0.135000X-0.185000X0.135000X-0.185000X0.135000X0.185000X-0.135000X0.185000X0*%
%ADD20RoundRect,0.140000X0.140000X0.170000X-0.140000X0.170000X-0.140000X-0.170000X0.140000X-0.170000X0*%
%ADD21RoundRect,0.150000X0.150000X-0.587500X0.150000X0.587500X-0.150000X0.587500X-0.150000X-0.587500X0*%
%ADD22RoundRect,0.140000X-0.140000X-0.170000X0.140000X-0.170000X0.140000X0.170000X-0.140000X0.170000X0*%
%ADD23FreePoly0,90.000000*%
%ADD24FreePoly1,90.000000*%
%ADD25C,3.000000*%
%ADD26C,2.500000*%
%ADD27RoundRect,0.135000X0.135000X0.185000X-0.135000X0.185000X-0.135000X-0.185000X0.135000X-0.185000X0*%
%ADD28R,1.000000X2.800000*%
%ADD29C,1.400000*%
%ADD30R,2.000000X1.500000*%
%ADD31R,2.000000X3.800000*%
%ADD32RoundRect,0.225000X-0.225000X-0.250000X0.225000X-0.250000X0.225000X0.250000X-0.225000X0.250000X0*%
%ADD33R,2.000000X4.500000*%
G04 APERTURE END LIST*
D10*
%TO.C,D4*%
X108995500Y-85344000D03*
X111095500Y-85344000D03*
%TD*%
D11*
%TO.C,D2*%
X75072000Y-66802000D03*
X76947000Y-66802000D03*
%TD*%
D12*
%TO.C,J1*%
X71412500Y-88123000D03*
D13*
X71412500Y-85583000D03*
X71412500Y-83043000D03*
%TD*%
D14*
%TO.C,REF\u002A\u002A*%
X67524226Y-88161726D03*
X65190774Y-88161726D03*
X65190774Y-85828274D03*
X64707500Y-86995000D03*
D15*
X66357500Y-86995000D03*
D14*
X66357500Y-85345000D03*
X66357500Y-88645000D03*
X67524226Y-85828274D03*
X68007500Y-86995000D03*
%TD*%
D16*
%TO.C,C6*%
X80835500Y-78740000D03*
X80835500Y-77780000D03*
%TD*%
D14*
%TO.C,REF\u002A\u002A*%
X64707500Y-66675000D03*
X68007500Y-66675000D03*
X66357500Y-68325000D03*
X65190774Y-67841726D03*
X66357500Y-65025000D03*
D15*
X66357500Y-66675000D03*
D14*
X67524226Y-67841726D03*
X67524226Y-65508274D03*
X65190774Y-65508274D03*
%TD*%
D17*
%TO.C,U1*%
X82515000Y-74085000D03*
X82515000Y-74585000D03*
X82515000Y-75085000D03*
X82515000Y-75585000D03*
X82515000Y-76085000D03*
X82515000Y-76585000D03*
X82515000Y-77085000D03*
X82515000Y-77585000D03*
X82515000Y-78085000D03*
X82515000Y-78585000D03*
X82515000Y-79085000D03*
X82515000Y-79585000D03*
D18*
X83927500Y-80997500D03*
X84427500Y-80997500D03*
X84927500Y-80997500D03*
X85427500Y-80997500D03*
X85927500Y-80997500D03*
X86427500Y-80997500D03*
X86927500Y-80997500D03*
X87427500Y-80997500D03*
X87927500Y-80997500D03*
X88427500Y-80997500D03*
X88927500Y-80997500D03*
X89427500Y-80997500D03*
D17*
X90840000Y-79585000D03*
X90840000Y-79085000D03*
X90840000Y-78585000D03*
X90840000Y-78085000D03*
X90840000Y-77585000D03*
X90840000Y-77085000D03*
X90840000Y-76585000D03*
X90840000Y-76085000D03*
X90840000Y-75585000D03*
X90840000Y-75085000D03*
X90840000Y-74585000D03*
X90840000Y-74085000D03*
D18*
X89427500Y-72672500D03*
X88927500Y-72672500D03*
X88427500Y-72672500D03*
X87927500Y-72672500D03*
X87427500Y-72672500D03*
X86927500Y-72672500D03*
X86427500Y-72672500D03*
X85927500Y-72672500D03*
X85427500Y-72672500D03*
X84927500Y-72672500D03*
X84427500Y-72672500D03*
X83927500Y-72672500D03*
%TD*%
D16*
%TO.C,C2*%
X80073500Y-72898000D03*
X80073500Y-71938000D03*
%TD*%
D19*
%TO.C,R1*%
X78674500Y-67818000D03*
X79694500Y-67818000D03*
%TD*%
D20*
%TO.C,C10*%
X95920500Y-73660000D03*
X94960500Y-73660000D03*
%TD*%
D21*
%TO.C,Q1*%
X105285500Y-88489000D03*
X107185500Y-88489000D03*
X106235500Y-86614000D03*
%TD*%
D20*
%TO.C,C7*%
X73187500Y-72390000D03*
X72227500Y-72390000D03*
%TD*%
D22*
%TO.C,C9*%
X79875500Y-81280000D03*
X80835500Y-81280000D03*
%TD*%
D20*
%TO.C,C8*%
X73187500Y-80010000D03*
X72227500Y-80010000D03*
%TD*%
D23*
%TO.C,JP2*%
X92392500Y-69305000D03*
D24*
X92392500Y-67855000D03*
%TD*%
D12*
%TO.C,J2*%
X98107500Y-88158000D03*
D13*
X98107500Y-85618000D03*
X95567500Y-88158000D03*
X95567500Y-85618000D03*
X93027500Y-88158000D03*
X93027500Y-85618000D03*
X90487500Y-88158000D03*
X90487500Y-85618000D03*
X87947500Y-88158000D03*
X87947500Y-85618000D03*
%TD*%
D25*
%TO.C,K1*%
X110045500Y-82414000D03*
D26*
X116095500Y-80464000D03*
D25*
X116095500Y-68264000D03*
X104045500Y-68214000D03*
D26*
X104095500Y-80464000D03*
%TD*%
D27*
%TO.C,R4*%
X103697500Y-85344000D03*
X102677500Y-85344000D03*
%TD*%
D20*
%TO.C,C3*%
X91602500Y-81407000D03*
X90642500Y-81407000D03*
%TD*%
D16*
%TO.C,C1*%
X81089500Y-72870000D03*
X81089500Y-71910000D03*
%TD*%
D11*
%TO.C,D3*%
X75072000Y-64897000D03*
X76947000Y-64897000D03*
%TD*%
D19*
%TO.C,R2*%
X78674500Y-66802000D03*
X79694500Y-66802000D03*
%TD*%
D12*
%TO.C,J3*%
X83883500Y-88138000D03*
D13*
X83883500Y-85598000D03*
X81343500Y-88138000D03*
X81343500Y-85598000D03*
X78803500Y-88138000D03*
X78803500Y-85598000D03*
X76263500Y-88138000D03*
X76263500Y-85598000D03*
%TD*%
D16*
%TO.C,C4*%
X79819500Y-78740000D03*
X79819500Y-77780000D03*
%TD*%
D28*
%TO.C,SW1*%
X95091500Y-65553000D03*
X95091500Y-71353000D03*
X99091500Y-71353000D03*
X99091500Y-65553000D03*
%TD*%
D12*
%TO.C,J4*%
X116507500Y-88290000D03*
D13*
X113967500Y-88290000D03*
X111427500Y-88290000D03*
%TD*%
D29*
%TO.C,JP1*%
X94932500Y-77363000D03*
X94932500Y-79903000D03*
%TD*%
D20*
%TO.C,C5*%
X95920500Y-75184000D03*
X94960500Y-75184000D03*
%TD*%
D19*
%TO.C,R3*%
X78674500Y-65786000D03*
X79694500Y-65786000D03*
%TD*%
D11*
%TO.C,D1*%
X75072000Y-68707000D03*
X76947000Y-68707000D03*
%TD*%
D30*
%TO.C,U2*%
X83273500Y-65264000D03*
X83273500Y-67564000D03*
D31*
X89573500Y-67564000D03*
D30*
X83273500Y-69864000D03*
%TD*%
D32*
%TO.C,C11*%
X79806500Y-82550000D03*
X81356500Y-82550000D03*
%TD*%
D33*
%TO.C,Y1*%
X76390500Y-81212000D03*
X76390500Y-72712000D03*
%TD*%
M02*
