%TF.GenerationSoftware,KiCad,Pcbnew,(6.0.7)*%
%TF.CreationDate,2022-09-05T20:23:25-07:00*%
%TF.ProjectId,EB4,4542342e-6b69-4636-9164-5f7063625858,rev?*%
%TF.SameCoordinates,Original*%
%TF.FileFunction,Copper,L2,Bot*%
%TF.FilePolarity,Positive*%
%FSLAX46Y46*%
G04 Gerber Fmt 4.6, Leading zero omitted, Abs format (unit mm)*
G04 Created by KiCad (PCBNEW (6.0.7)) date 2022-09-05 20:23:25*
%MOMM*%
%LPD*%
G01*
G04 APERTURE LIST*
%TA.AperFunction,ComponentPad*%
%ADD10R,1.700000X1.700000*%
%TD*%
%TA.AperFunction,ComponentPad*%
%ADD11O,1.700000X1.700000*%
%TD*%
%TA.AperFunction,ComponentPad*%
%ADD12C,0.700000*%
%TD*%
%TA.AperFunction,ComponentPad*%
%ADD13C,4.400000*%
%TD*%
%TA.AperFunction,ComponentPad*%
%ADD14C,3.000000*%
%TD*%
%TA.AperFunction,ComponentPad*%
%ADD15C,2.500000*%
%TD*%
%TA.AperFunction,ComponentPad*%
%ADD16C,1.400000*%
%TD*%
%TA.AperFunction,ViaPad*%
%ADD17C,0.800000*%
%TD*%
%TA.AperFunction,Conductor*%
%ADD18C,0.250000*%
%TD*%
G04 APERTURE END LIST*
D10*
%TO.P,J1,1,Pin_1*%
%TO.N,/VIN*%
X71412500Y-88123000D03*
D11*
%TO.P,J1,2,Pin_2*%
%TO.N,GND*%
X71412500Y-85583000D03*
%TO.P,J1,3,Pin_3*%
%TO.N,+3.3V*%
X71412500Y-83043000D03*
%TD*%
D12*
%TO.P,REF\u002A\u002A,1*%
%TO.N,N/C*%
X67524226Y-88161726D03*
X65190774Y-88161726D03*
X65190774Y-85828274D03*
X64707500Y-86995000D03*
D13*
X66357500Y-86995000D03*
D12*
X66357500Y-85345000D03*
X66357500Y-88645000D03*
X67524226Y-85828274D03*
X68007500Y-86995000D03*
%TD*%
%TO.P,REF\u002A\u002A,1*%
%TO.N,N/C*%
X64707500Y-66675000D03*
X68007500Y-66675000D03*
X66357500Y-68325000D03*
X65190774Y-67841726D03*
X66357500Y-65025000D03*
D13*
X66357500Y-66675000D03*
D12*
X67524226Y-67841726D03*
X67524226Y-65508274D03*
X65190774Y-65508274D03*
%TD*%
D10*
%TO.P,J2,1,Pin_1*%
%TO.N,/NRST*%
X98107500Y-88158000D03*
D11*
%TO.P,J2,2,Pin_2*%
%TO.N,/SWCLK*%
X98107500Y-85618000D03*
%TO.P,J2,3,Pin_3*%
%TO.N,unconnected-(J2-Pad3)*%
X95567500Y-88158000D03*
%TO.P,J2,4,Pin_4*%
%TO.N,/SWDIO*%
X95567500Y-85618000D03*
%TO.P,J2,5,Pin_5*%
%TO.N,GND*%
X93027500Y-88158000D03*
%TO.P,J2,6,Pin_6*%
X93027500Y-85618000D03*
%TO.P,J2,7,Pin_7*%
%TO.N,+3.3V*%
X90487500Y-88158000D03*
%TO.P,J2,8,Pin_8*%
X90487500Y-85618000D03*
%TO.P,J2,9,Pin_9*%
%TO.N,unconnected-(J2-Pad9)*%
X87947500Y-88158000D03*
%TO.P,J2,10,Pin_10*%
%TO.N,unconnected-(J2-Pad10)*%
X87947500Y-85618000D03*
%TD*%
D14*
%TO.P,K1,1*%
%TO.N,/COM*%
X110045500Y-82414000D03*
D15*
%TO.P,K1,2*%
%TO.N,Net-(D4-Pad2)*%
X116095500Y-80464000D03*
D14*
%TO.P,K1,3*%
%TO.N,/NC*%
X116095500Y-68264000D03*
%TO.P,K1,4*%
%TO.N,/NO*%
X104045500Y-68214000D03*
D15*
%TO.P,K1,5*%
%TO.N,/VIN*%
X104095500Y-80464000D03*
%TD*%
D10*
%TO.P,J3,1,Pin_1*%
%TO.N,+3.3V*%
X83883500Y-88138000D03*
D11*
%TO.P,J3,2,Pin_2*%
%TO.N,GND*%
X83883500Y-85598000D03*
%TO.P,J3,3,Pin_3*%
%TO.N,/CSN*%
X81343500Y-88138000D03*
%TO.P,J3,4,Pin_4*%
%TO.N,/CE*%
X81343500Y-85598000D03*
%TO.P,J3,5,Pin_5*%
%TO.N,/MOSI*%
X78803500Y-88138000D03*
%TO.P,J3,6,Pin_6*%
%TO.N,/SCK*%
X78803500Y-85598000D03*
%TO.P,J3,7,Pin_7*%
%TO.N,/IRQ*%
X76263500Y-88138000D03*
%TO.P,J3,8,Pin_8*%
%TO.N,/MISO*%
X76263500Y-85598000D03*
%TD*%
D10*
%TO.P,J4,1,Pin_1*%
%TO.N,/COM*%
X116507500Y-88290000D03*
D11*
%TO.P,J4,2,Pin_2*%
%TO.N,/NC*%
X113967500Y-88290000D03*
%TO.P,J4,3,Pin_3*%
%TO.N,/NO*%
X111427500Y-88290000D03*
%TD*%
D16*
%TO.P,JP1,1,A*%
%TO.N,GND*%
X94932500Y-77363000D03*
%TO.P,JP1,2,B*%
%TO.N,/NRST*%
X94932500Y-79903000D03*
%TD*%
D17*
%TO.N,+3.3V*%
X78549500Y-71628000D03*
X79655925Y-79519275D03*
X91948000Y-64516000D03*
X79057500Y-68834000D03*
X97805987Y-79180945D03*
X97345500Y-72363500D03*
X71172500Y-70877000D03*
%TO.N,GND*%
X86423500Y-70612000D03*
X72961500Y-76200000D03*
X92773500Y-71882000D03*
X108775500Y-87884000D03*
X73723500Y-88138000D03*
X79311500Y-64516000D03*
X94260000Y-75188299D03*
X72199500Y-69850000D03*
X85407500Y-66294000D03*
X99695000Y-78740000D03*
%TO.N,/NRST*%
X87174693Y-74760775D03*
%TO.N,/SWCLK*%
X89217500Y-74168000D03*
%TO.N,/SWDIO*%
X88709500Y-75360500D03*
%TO.N,/PA10*%
X84641201Y-75433701D03*
X80835500Y-68834000D03*
%TO.N,/PA11*%
X85407500Y-74638500D03*
X81089500Y-65024000D03*
%TO.N,/SCK*%
X84645500Y-79502000D03*
%TO.N,/MISO*%
X85407500Y-78740000D03*
%TO.N,/MOSI*%
X86169500Y-79502000D03*
%TO.N,/CSN*%
X89217500Y-77978000D03*
%TO.N,/CE*%
X88201500Y-77724000D03*
%TO.N,/IRQ*%
X89842551Y-71427491D03*
%TD*%
D18*
%TO.N,+3.3V*%
X78549500Y-71628000D02*
X78549500Y-69342000D01*
X89312500Y-89333000D02*
X85078500Y-89333000D01*
X97805987Y-79180945D02*
X97345500Y-78720458D01*
X78549500Y-78412850D02*
X78549500Y-71628000D01*
X97345500Y-78720458D02*
X97345500Y-72363500D01*
X90487500Y-88158000D02*
X89312500Y-89333000D01*
X78549500Y-69342000D02*
X79057500Y-68834000D01*
X96557000Y-73152000D02*
X97345500Y-72363500D01*
X91948000Y-64516000D02*
X91948000Y-72136000D01*
X85078500Y-89333000D02*
X83883500Y-88138000D01*
X91948000Y-72136000D02*
X92964000Y-73152000D01*
X79655925Y-79519275D02*
X78549500Y-78412850D01*
X71172500Y-70877000D02*
X77798500Y-70877000D01*
X92964000Y-73152000D02*
X96557000Y-73152000D01*
X90487500Y-85618000D02*
X90487500Y-88158000D01*
X77798500Y-70877000D02*
X78549500Y-71628000D01*
%TO.N,GND*%
X97381305Y-71374000D02*
X93281500Y-71374000D01*
X106235500Y-85344000D02*
X106235500Y-77724000D01*
X70421500Y-73660000D02*
X72961500Y-76200000D01*
X70929500Y-69850000D02*
X70421500Y-70358000D01*
X99568000Y-75692000D02*
X98070500Y-74194500D01*
X94518299Y-74930000D02*
X94260000Y-75188299D01*
X108775500Y-87884000D02*
X106235500Y-85344000D01*
X104203500Y-75692000D02*
X99568000Y-75692000D01*
X93281500Y-71374000D02*
X92773500Y-71882000D01*
X70421500Y-70358000D02*
X70421500Y-73660000D01*
X106235500Y-77724000D02*
X104203500Y-75692000D01*
X98070500Y-72063195D02*
X97381305Y-71374000D01*
X98070500Y-74194500D02*
X98070500Y-72063195D01*
X72199500Y-69850000D02*
X70929500Y-69850000D01*
%TO.N,/NRST*%
X97746500Y-79903000D02*
X99631500Y-81788000D01*
X93535500Y-74676000D02*
X93535500Y-78506000D01*
X93535500Y-78506000D02*
X94932500Y-79903000D01*
X92011500Y-73152000D02*
X93535500Y-74676000D01*
X87174693Y-74760775D02*
X88783468Y-73152000D01*
X99631500Y-81788000D02*
X99631500Y-86634000D01*
X88783468Y-73152000D02*
X92011500Y-73152000D01*
X99631500Y-86634000D02*
X98107500Y-88158000D01*
X94932500Y-79903000D02*
X97746500Y-79903000D01*
%TO.N,/SWCLK*%
X93027500Y-77978000D02*
X89217500Y-74168000D01*
X98107500Y-85618000D02*
X93027500Y-80538000D01*
X93027500Y-80538000D02*
X93027500Y-77978000D01*
%TO.N,/SWDIO*%
X91503500Y-78154500D02*
X88709500Y-75360500D01*
X95567500Y-85618000D02*
X95567500Y-83820000D01*
X95567500Y-83820000D02*
X91503500Y-79756000D01*
X91503500Y-79756000D02*
X91503500Y-78154500D01*
%TO.N,/PA10*%
X80835500Y-71628000D02*
X84641201Y-75433701D01*
X80835500Y-68834000D02*
X80835500Y-71628000D01*
%TO.N,/PA11*%
X81851500Y-71082500D02*
X85407500Y-74638500D01*
X81851500Y-65786000D02*
X81851500Y-71082500D01*
X81089500Y-65024000D02*
X81851500Y-65786000D01*
%TO.N,/SCK*%
X84645500Y-79756000D02*
X78803500Y-85598000D01*
X84645500Y-79502000D02*
X84645500Y-79756000D01*
%TO.N,/MISO*%
X82867500Y-78740000D02*
X82359500Y-79248000D01*
X82359500Y-79502000D02*
X76263500Y-85598000D01*
X82359500Y-79248000D02*
X82359500Y-79502000D01*
X85407500Y-78740000D02*
X82867500Y-78740000D01*
%TO.N,/MOSI*%
X79978500Y-86963000D02*
X78803500Y-88138000D01*
X85777799Y-79502000D02*
X79978500Y-85301299D01*
X79978500Y-85301299D02*
X79978500Y-86963000D01*
X86169500Y-79502000D02*
X85777799Y-79502000D01*
%TO.N,/CSN*%
X82613500Y-86868000D02*
X81343500Y-88138000D01*
X89217500Y-78602299D02*
X82613500Y-85206299D01*
X82613500Y-85206299D02*
X82613500Y-86868000D01*
X89217500Y-77978000D02*
X89217500Y-78602299D01*
%TO.N,/CE*%
X88201500Y-77724000D02*
X88201500Y-78740000D01*
X88201500Y-78740000D02*
X81343500Y-85598000D01*
%TO.N,/IRQ*%
X86460500Y-73867695D02*
X86460500Y-74639000D01*
X89842551Y-71427491D02*
X88900704Y-71427491D01*
X74739500Y-85460299D02*
X74739500Y-86614000D01*
X86460500Y-74639000D02*
X82809500Y-78290000D01*
X74739500Y-86614000D02*
X76263500Y-88138000D01*
X82809500Y-78290000D02*
X81909799Y-78290000D01*
X88900704Y-71427491D02*
X86460500Y-73867695D01*
X81909799Y-78290000D02*
X74739500Y-85460299D01*
%TO.N,/COM*%
X113480799Y-89465000D02*
X112792500Y-88776701D01*
X116507500Y-88290000D02*
X115897500Y-88900000D01*
X115019201Y-88900000D02*
X114454201Y-89465000D01*
X112792500Y-88776701D02*
X112792500Y-85161000D01*
X112792500Y-85161000D02*
X110045500Y-82414000D01*
X115897500Y-88900000D02*
X115019201Y-88900000D01*
X114454201Y-89465000D02*
X113480799Y-89465000D01*
%TO.N,/NC*%
X113967500Y-70392000D02*
X116095500Y-68264000D01*
X113967500Y-88290000D02*
X113967500Y-70392000D01*
%TO.N,/NO*%
X104045500Y-68214000D02*
X106997500Y-71166000D01*
X106997500Y-83860000D02*
X111427500Y-88290000D01*
X106997500Y-71166000D02*
X106997500Y-83860000D01*
%TD*%
%TA.AperFunction,Conductor*%
%TO.N,GND*%
G36*
X70249512Y-71034877D02*
G01*
X70286833Y-71091163D01*
X70337973Y-71248556D01*
X70433460Y-71413944D01*
X70437878Y-71418851D01*
X70437879Y-71418852D01*
X70445658Y-71427491D01*
X70561247Y-71555866D01*
X70636934Y-71610856D01*
X70694537Y-71652707D01*
X70715748Y-71668118D01*
X70721776Y-71670802D01*
X70721778Y-71670803D01*
X70867084Y-71735497D01*
X70890212Y-71745794D01*
X70983613Y-71765647D01*
X71070556Y-71784128D01*
X71070561Y-71784128D01*
X71077013Y-71785500D01*
X71267987Y-71785500D01*
X71274439Y-71784128D01*
X71274444Y-71784128D01*
X71361387Y-71765647D01*
X71454788Y-71745794D01*
X71477916Y-71735497D01*
X71623222Y-71670803D01*
X71623224Y-71670802D01*
X71629252Y-71668118D01*
X71650464Y-71652707D01*
X71776559Y-71561093D01*
X71783753Y-71555866D01*
X71788168Y-71550963D01*
X71793080Y-71546540D01*
X71794205Y-71547789D01*
X71847514Y-71514949D01*
X71880700Y-71510500D01*
X77483906Y-71510500D01*
X77552027Y-71530502D01*
X77573001Y-71547405D01*
X77602378Y-71576782D01*
X77636404Y-71639094D01*
X77638592Y-71652703D01*
X77642465Y-71689545D01*
X77653974Y-71799047D01*
X77655958Y-71817928D01*
X77714973Y-71999556D01*
X77718276Y-72005278D01*
X77718277Y-72005279D01*
X77734676Y-72033683D01*
X77810460Y-72164944D01*
X77883637Y-72246215D01*
X77914353Y-72310221D01*
X77916000Y-72330524D01*
X77916000Y-78334083D01*
X77915473Y-78345266D01*
X77913798Y-78352759D01*
X77914047Y-78360685D01*
X77914047Y-78360686D01*
X77915938Y-78420836D01*
X77916000Y-78424795D01*
X77916000Y-78452706D01*
X77916497Y-78456640D01*
X77916497Y-78456641D01*
X77916505Y-78456706D01*
X77917438Y-78468543D01*
X77918827Y-78512739D01*
X77924478Y-78532189D01*
X77928487Y-78551550D01*
X77931026Y-78571647D01*
X77933945Y-78579018D01*
X77933945Y-78579020D01*
X77947304Y-78612762D01*
X77951149Y-78623992D01*
X77959761Y-78653635D01*
X77963482Y-78666443D01*
X77967515Y-78673262D01*
X77967517Y-78673267D01*
X77973793Y-78683878D01*
X77982488Y-78701626D01*
X77989948Y-78720467D01*
X77994610Y-78726883D01*
X77994610Y-78726884D01*
X78015936Y-78756237D01*
X78022452Y-78766157D01*
X78026273Y-78772617D01*
X78044958Y-78804212D01*
X78059279Y-78818533D01*
X78072119Y-78833566D01*
X78084028Y-78849957D01*
X78090134Y-78855008D01*
X78118105Y-78878148D01*
X78126884Y-78886138D01*
X78708803Y-79468057D01*
X78742829Y-79530369D01*
X78745017Y-79543978D01*
X78749017Y-79582030D01*
X78761283Y-79698734D01*
X78762383Y-79709203D01*
X78821398Y-79890831D01*
X78824701Y-79896553D01*
X78824702Y-79896554D01*
X78841543Y-79925723D01*
X78916885Y-80056219D01*
X78993606Y-80141426D01*
X79024323Y-80205434D01*
X79015558Y-80275887D01*
X78989064Y-80314831D01*
X76641862Y-82662032D01*
X74347247Y-84956647D01*
X74338961Y-84964187D01*
X74332482Y-84968299D01*
X74327057Y-84974076D01*
X74285857Y-85017950D01*
X74283102Y-85020792D01*
X74263365Y-85040529D01*
X74260885Y-85043726D01*
X74253182Y-85052746D01*
X74222914Y-85084978D01*
X74219095Y-85091924D01*
X74219093Y-85091927D01*
X74213152Y-85102733D01*
X74202301Y-85119252D01*
X74189886Y-85135258D01*
X74186741Y-85142527D01*
X74186738Y-85142531D01*
X74172326Y-85175836D01*
X74167109Y-85186486D01*
X74145805Y-85225239D01*
X74143834Y-85232914D01*
X74143834Y-85232915D01*
X74140767Y-85244861D01*
X74134363Y-85263565D01*
X74126319Y-85282154D01*
X74125080Y-85289977D01*
X74125077Y-85289987D01*
X74119401Y-85325823D01*
X74116995Y-85337443D01*
X74111823Y-85357588D01*
X74106000Y-85380269D01*
X74106000Y-85400523D01*
X74104449Y-85420233D01*
X74101280Y-85440242D01*
X74102026Y-85448134D01*
X74105441Y-85484260D01*
X74106000Y-85496118D01*
X74106000Y-86535233D01*
X74105473Y-86546416D01*
X74103798Y-86553909D01*
X74104047Y-86561835D01*
X74104047Y-86561836D01*
X74105938Y-86621986D01*
X74106000Y-86625945D01*
X74106000Y-86653856D01*
X74106497Y-86657790D01*
X74106497Y-86657791D01*
X74106505Y-86657856D01*
X74107438Y-86669693D01*
X74108827Y-86713889D01*
X74114478Y-86733339D01*
X74118487Y-86752700D01*
X74121026Y-86772797D01*
X74123945Y-86780168D01*
X74123945Y-86780170D01*
X74137304Y-86813912D01*
X74141149Y-86825142D01*
X74149601Y-86854233D01*
X74153482Y-86867593D01*
X74157515Y-86874412D01*
X74157517Y-86874417D01*
X74163793Y-86885028D01*
X74172488Y-86902776D01*
X74179948Y-86921617D01*
X74184610Y-86928033D01*
X74184610Y-86928034D01*
X74205936Y-86957387D01*
X74212452Y-86967307D01*
X74228830Y-86995000D01*
X74234958Y-87005362D01*
X74249279Y-87019683D01*
X74262119Y-87034716D01*
X74274028Y-87051107D01*
X74301998Y-87074246D01*
X74308105Y-87079298D01*
X74316884Y-87087288D01*
X74913278Y-87683682D01*
X74947304Y-87745994D01*
X74945600Y-87806448D01*
X74924489Y-87882570D01*
X74923941Y-87887700D01*
X74923940Y-87887704D01*
X74919687Y-87927504D01*
X74900751Y-88104695D01*
X74913610Y-88327715D01*
X74914747Y-88332761D01*
X74914748Y-88332767D01*
X74919561Y-88354121D01*
X74962722Y-88545639D01*
X75046766Y-88752616D01*
X75084185Y-88813678D01*
X75160791Y-88938688D01*
X75163487Y-88943088D01*
X75309750Y-89111938D01*
X75481626Y-89254632D01*
X75674500Y-89367338D01*
X75679325Y-89369180D01*
X75679326Y-89369181D01*
X75806620Y-89417790D01*
X75863123Y-89460778D01*
X75887416Y-89527489D01*
X75871786Y-89596744D01*
X75821195Y-89646554D01*
X75761671Y-89661500D01*
X72564571Y-89661500D01*
X72496450Y-89641498D01*
X72449957Y-89587842D01*
X72439853Y-89517568D01*
X72469347Y-89452988D01*
X72502757Y-89426032D01*
X72509205Y-89423615D01*
X72625761Y-89336261D01*
X72713115Y-89219705D01*
X72764245Y-89083316D01*
X72771000Y-89021134D01*
X72771000Y-87224866D01*
X72764245Y-87162684D01*
X72713115Y-87026295D01*
X72625761Y-86909739D01*
X72509205Y-86822385D01*
X72414573Y-86786909D01*
X72390187Y-86777767D01*
X72333423Y-86735125D01*
X72308723Y-86668564D01*
X72323930Y-86599215D01*
X72345477Y-86570535D01*
X72446552Y-86469812D01*
X72453230Y-86461965D01*
X72577503Y-86289020D01*
X72582813Y-86280183D01*
X72677170Y-86089267D01*
X72680969Y-86079672D01*
X72742877Y-85875910D01*
X72745055Y-85865837D01*
X72746486Y-85854962D01*
X72744275Y-85840778D01*
X72731117Y-85837000D01*
X70095725Y-85837000D01*
X70082194Y-85840973D01*
X70080757Y-85850966D01*
X70111065Y-85985446D01*
X70114145Y-85995275D01*
X70194270Y-86192603D01*
X70198913Y-86201794D01*
X70310194Y-86383388D01*
X70316277Y-86391699D01*
X70455713Y-86552667D01*
X70463077Y-86559879D01*
X70468022Y-86563985D01*
X70507656Y-86622889D01*
X70509153Y-86693870D01*
X70472037Y-86754392D01*
X70431764Y-86778910D01*
X70324205Y-86819232D01*
X70324204Y-86819233D01*
X70315795Y-86822385D01*
X70199239Y-86909739D01*
X70111885Y-87026295D01*
X70060755Y-87162684D01*
X70054000Y-87224866D01*
X70054000Y-89021134D01*
X70060755Y-89083316D01*
X70111885Y-89219705D01*
X70199239Y-89336261D01*
X70315795Y-89423615D01*
X70321837Y-89425880D01*
X70371084Y-89475239D01*
X70386098Y-89544630D01*
X70361212Y-89611122D01*
X70304329Y-89653605D01*
X70260429Y-89661500D01*
X67625016Y-89661500D01*
X67556895Y-89641498D01*
X67510402Y-89587842D01*
X67500298Y-89517568D01*
X67529792Y-89452988D01*
X67570339Y-89423345D01*
X67569825Y-89422324D01*
X67573220Y-89420616D01*
X67576705Y-89419119D01*
X67859101Y-89255091D01*
X68058588Y-89104493D01*
X68116721Y-89060607D01*
X68116722Y-89060606D01*
X68119745Y-89058324D01*
X68243849Y-88938688D01*
X68352132Y-88834303D01*
X68352135Y-88834300D01*
X68354863Y-88831670D01*
X68468087Y-88692596D01*
X68558655Y-88581351D01*
X68558658Y-88581347D01*
X68561049Y-88578410D01*
X68706607Y-88347715D01*
X68733288Y-88305428D01*
X68733290Y-88305425D01*
X68735315Y-88302215D01*
X68875138Y-88007084D01*
X68908293Y-87907707D01*
X68977290Y-87700897D01*
X68977292Y-87700891D01*
X68978492Y-87697293D01*
X69043881Y-87377329D01*
X69044586Y-87368671D01*
X69067814Y-87083077D01*
X69070356Y-87051826D01*
X69070843Y-87005362D01*
X69070928Y-86997221D01*
X69070928Y-86997214D01*
X69070951Y-86995000D01*
X69070613Y-86989385D01*
X69051526Y-86672793D01*
X69051526Y-86672789D01*
X69051298Y-86669015D01*
X69050339Y-86663760D01*
X68993305Y-86351473D01*
X68993304Y-86351469D01*
X68992625Y-86347751D01*
X68984328Y-86321028D01*
X68921848Y-86119811D01*
X68895782Y-86035863D01*
X68762170Y-85737869D01*
X68593726Y-85458084D01*
X68591399Y-85455100D01*
X68591394Y-85455093D01*
X68395226Y-85203558D01*
X68395224Y-85203556D01*
X68392890Y-85200563D01*
X68162570Y-84969034D01*
X67906103Y-84766852D01*
X67627205Y-84596945D01*
X67623761Y-84595379D01*
X67623757Y-84595377D01*
X67581744Y-84576275D01*
X67566185Y-84569201D01*
X67512452Y-84522797D01*
X67492336Y-84454710D01*
X67512225Y-84386556D01*
X67565803Y-84339974D01*
X67618336Y-84328500D01*
X68844250Y-84328500D01*
X68865155Y-84330246D01*
X68880156Y-84332770D01*
X68880159Y-84332770D01*
X68884948Y-84333576D01*
X68891187Y-84333652D01*
X68892640Y-84333670D01*
X68892643Y-84333670D01*
X68897500Y-84333729D01*
X68909537Y-84332005D01*
X68916378Y-84331216D01*
X68984354Y-84325269D01*
X69091344Y-84315909D01*
X69091349Y-84315908D01*
X69096825Y-84315429D01*
X69102138Y-84314005D01*
X69102140Y-84314005D01*
X69284784Y-84265066D01*
X69284786Y-84265065D01*
X69290094Y-84263643D01*
X69295076Y-84261320D01*
X69466447Y-84181409D01*
X69466452Y-84181406D01*
X69471434Y-84179083D01*
X69602698Y-84087171D01*
X69630824Y-84067477D01*
X69630827Y-84067475D01*
X69635335Y-84064318D01*
X69776818Y-83922835D01*
X69785974Y-83909760D01*
X69862892Y-83799909D01*
X69891583Y-83758934D01*
X69893906Y-83753952D01*
X69893909Y-83753947D01*
X69953995Y-83625091D01*
X70000912Y-83571806D01*
X70069190Y-83552345D01*
X70137149Y-83572887D01*
X70184933Y-83630938D01*
X70193820Y-83652825D01*
X70193823Y-83652831D01*
X70195766Y-83657616D01*
X70232258Y-83717165D01*
X70287821Y-83807836D01*
X70312487Y-83848088D01*
X70458750Y-84016938D01*
X70630626Y-84159632D01*
X70658510Y-84175926D01*
X70704455Y-84202774D01*
X70753179Y-84254412D01*
X70766250Y-84324195D01*
X70739519Y-84389967D01*
X70699062Y-84423327D01*
X70690957Y-84427546D01*
X70682238Y-84433036D01*
X70511933Y-84560905D01*
X70504226Y-84567748D01*
X70357090Y-84721717D01*
X70350604Y-84729727D01*
X70230598Y-84905649D01*
X70225500Y-84914623D01*
X70135838Y-85107783D01*
X70132275Y-85117470D01*
X70076889Y-85317183D01*
X70078412Y-85325607D01*
X70090792Y-85329000D01*
X72730844Y-85329000D01*
X72744375Y-85325027D01*
X72745680Y-85315947D01*
X72703714Y-85148875D01*
X72700394Y-85139124D01*
X72615472Y-84943814D01*
X72610605Y-84934739D01*
X72494926Y-84755926D01*
X72488636Y-84747757D01*
X72345306Y-84590240D01*
X72337773Y-84583215D01*
X72170639Y-84451222D01*
X72162056Y-84445520D01*
X72125102Y-84425120D01*
X72075131Y-84374687D01*
X72060359Y-84305245D01*
X72085475Y-84238839D01*
X72112827Y-84212232D01*
X72179769Y-84164483D01*
X72292360Y-84084173D01*
X72309115Y-84067477D01*
X72446935Y-83930137D01*
X72450596Y-83926489D01*
X72458350Y-83915699D01*
X72577935Y-83749277D01*
X72580953Y-83745077D01*
X72620782Y-83664490D01*
X72677636Y-83549453D01*
X72677637Y-83549451D01*
X72679930Y-83544811D01*
X72744870Y-83331069D01*
X72774029Y-83109590D01*
X72775656Y-83043000D01*
X72757352Y-82820361D01*
X72702931Y-82603702D01*
X72613854Y-82398840D01*
X72574406Y-82337862D01*
X72495322Y-82215617D01*
X72495320Y-82215614D01*
X72492514Y-82211277D01*
X72342170Y-82046051D01*
X72338119Y-82042852D01*
X72338115Y-82042848D01*
X72170914Y-81910800D01*
X72170910Y-81910798D01*
X72166859Y-81907598D01*
X72136151Y-81890646D01*
X72059471Y-81848317D01*
X71971289Y-81799638D01*
X71966420Y-81797914D01*
X71966416Y-81797912D01*
X71765587Y-81726795D01*
X71765583Y-81726794D01*
X71760712Y-81725069D01*
X71755619Y-81724162D01*
X71755616Y-81724161D01*
X71545873Y-81686800D01*
X71545867Y-81686799D01*
X71540784Y-81685894D01*
X71466952Y-81684992D01*
X71322581Y-81683228D01*
X71322579Y-81683228D01*
X71317411Y-81683165D01*
X71096591Y-81716955D01*
X70884256Y-81786357D01*
X70854907Y-81801635D01*
X70710500Y-81876809D01*
X70686107Y-81889507D01*
X70681974Y-81892610D01*
X70681971Y-81892612D01*
X70511600Y-82020530D01*
X70507465Y-82023635D01*
X70353129Y-82185138D01*
X70350215Y-82189410D01*
X70350214Y-82189411D01*
X70271088Y-82305406D01*
X70216177Y-82350409D01*
X70145652Y-82358580D01*
X70081905Y-82327326D01*
X70045175Y-82266569D01*
X70041000Y-82234402D01*
X70041000Y-71130101D01*
X70061002Y-71061980D01*
X70114658Y-71015487D01*
X70184932Y-71005383D01*
X70249512Y-71034877D01*
G37*
%TD.AperFunction*%
%TA.AperFunction,Conductor*%
G36*
X99978014Y-64010000D02*
G01*
X99992849Y-64012310D01*
X99992852Y-64012310D01*
X100001722Y-64013691D01*
X100007498Y-64012936D01*
X100073851Y-64033303D01*
X100119685Y-64087523D01*
X100128152Y-64128874D01*
X100129296Y-64128724D01*
X100132397Y-64152432D01*
X100133443Y-64160434D01*
X100134507Y-64176711D01*
X100135226Y-65694036D01*
X100138976Y-73610726D01*
X100137476Y-73630170D01*
X100135190Y-73644851D01*
X100135190Y-73644855D01*
X100133809Y-73653724D01*
X100134682Y-73660402D01*
X100138118Y-73697481D01*
X100149271Y-73817837D01*
X100152027Y-73847582D01*
X100153621Y-73853183D01*
X100153621Y-73853185D01*
X100157685Y-73867468D01*
X100203581Y-74028775D01*
X100287552Y-74197411D01*
X100291063Y-74202060D01*
X100291064Y-74202062D01*
X100323720Y-74245305D01*
X100401079Y-74347746D01*
X100540297Y-74474660D01*
X100545248Y-74477726D01*
X100545250Y-74477727D01*
X100621709Y-74525068D01*
X100700466Y-74573832D01*
X100876130Y-74641885D01*
X101061307Y-74676500D01*
X101249693Y-74676500D01*
X101434870Y-74641885D01*
X101610534Y-74573832D01*
X101689291Y-74525068D01*
X101765750Y-74477727D01*
X101765752Y-74477726D01*
X101770703Y-74474660D01*
X101909921Y-74347746D01*
X101987280Y-74245305D01*
X102019936Y-74202062D01*
X102019937Y-74202060D01*
X102023448Y-74197411D01*
X102107419Y-74028775D01*
X102153315Y-73867468D01*
X102157379Y-73853185D01*
X102157379Y-73853183D01*
X102158973Y-73847582D01*
X102172452Y-73702118D01*
X102173655Y-73692886D01*
X102177076Y-73672552D01*
X102177229Y-73660000D01*
X102173273Y-73632376D01*
X102172000Y-73614514D01*
X102172000Y-69439923D01*
X102192002Y-69371802D01*
X102245658Y-69325309D01*
X102315932Y-69315205D01*
X102380512Y-69344699D01*
X102401840Y-69368556D01*
X102467774Y-69464490D01*
X102470661Y-69467663D01*
X102470662Y-69467664D01*
X102649192Y-69663867D01*
X102652082Y-69667043D01*
X102862175Y-69842707D01*
X102865816Y-69844991D01*
X103090524Y-69985951D01*
X103090528Y-69985953D01*
X103094164Y-69988234D01*
X103172553Y-70023628D01*
X103339845Y-70099164D01*
X103339849Y-70099166D01*
X103343757Y-70100930D01*
X103347877Y-70102150D01*
X103347876Y-70102150D01*
X103602223Y-70177491D01*
X103602227Y-70177492D01*
X103606336Y-70178709D01*
X103610570Y-70179357D01*
X103610575Y-70179358D01*
X103872798Y-70219483D01*
X103872800Y-70219483D01*
X103877040Y-70220132D01*
X104016412Y-70222322D01*
X104146571Y-70224367D01*
X104146577Y-70224367D01*
X104150862Y-70224434D01*
X104422735Y-70191534D01*
X104687627Y-70122041D01*
X104871484Y-70045885D01*
X104942071Y-70038296D01*
X105008795Y-70073199D01*
X106327095Y-71391499D01*
X106361121Y-71453811D01*
X106364000Y-71480594D01*
X106364000Y-83781233D01*
X106363473Y-83792416D01*
X106361798Y-83799909D01*
X106362047Y-83807835D01*
X106362047Y-83807836D01*
X106363938Y-83867986D01*
X106364000Y-83871945D01*
X106364000Y-83899856D01*
X106364497Y-83903790D01*
X106364497Y-83903791D01*
X106364505Y-83903856D01*
X106365438Y-83915693D01*
X106366827Y-83959889D01*
X106372478Y-83979339D01*
X106376487Y-83998700D01*
X106379026Y-84018797D01*
X106381945Y-84026168D01*
X106381945Y-84026170D01*
X106395304Y-84059912D01*
X106399149Y-84071142D01*
X106411482Y-84113593D01*
X106415515Y-84120412D01*
X106415517Y-84120417D01*
X106421793Y-84131028D01*
X106430488Y-84148776D01*
X106437948Y-84167617D01*
X106442610Y-84174033D01*
X106442610Y-84174034D01*
X106463936Y-84203387D01*
X106470452Y-84213307D01*
X106486730Y-84240831D01*
X106492958Y-84251362D01*
X106507279Y-84265683D01*
X106520119Y-84280716D01*
X106532028Y-84297107D01*
X106560186Y-84320401D01*
X106566105Y-84325298D01*
X106574884Y-84333288D01*
X110077277Y-87835682D01*
X110111303Y-87897994D01*
X110109600Y-87958446D01*
X110088489Y-88034570D01*
X110064751Y-88256695D01*
X110065048Y-88261848D01*
X110065048Y-88261851D01*
X110069701Y-88342547D01*
X110077610Y-88479715D01*
X110078747Y-88484761D01*
X110078748Y-88484767D01*
X110084757Y-88511429D01*
X110126722Y-88697639D01*
X110210766Y-88904616D01*
X110243901Y-88958688D01*
X110303345Y-89055691D01*
X110327487Y-89095088D01*
X110473750Y-89263938D01*
X110645626Y-89406632D01*
X110672480Y-89422324D01*
X110679989Y-89426712D01*
X110728713Y-89478350D01*
X110741784Y-89548133D01*
X110715053Y-89613905D01*
X110657006Y-89654784D01*
X110616419Y-89661500D01*
X102298000Y-89661500D01*
X102229879Y-89641498D01*
X102183386Y-89587842D01*
X102172000Y-89535500D01*
X102172000Y-81034608D01*
X102192002Y-80966487D01*
X102245658Y-80919994D01*
X102315932Y-80909890D01*
X102380512Y-80939384D01*
X102416588Y-80992030D01*
X102484526Y-81181252D01*
X102499692Y-81209478D01*
X102588793Y-81375303D01*
X102608237Y-81411491D01*
X102611032Y-81415234D01*
X102611034Y-81415237D01*
X102761830Y-81617177D01*
X102761835Y-81617183D01*
X102764622Y-81620915D01*
X102767931Y-81624195D01*
X102767936Y-81624201D01*
X102946926Y-81801635D01*
X102950243Y-81804923D01*
X102954005Y-81807681D01*
X102954008Y-81807684D01*
X103090274Y-81907598D01*
X103161024Y-81959474D01*
X103165167Y-81961654D01*
X103165169Y-81961655D01*
X103388184Y-82078989D01*
X103388189Y-82078991D01*
X103392334Y-82081172D01*
X103639090Y-82167344D01*
X103643683Y-82168216D01*
X103891285Y-82215224D01*
X103891288Y-82215224D01*
X103895874Y-82216095D01*
X104026459Y-82221226D01*
X104152375Y-82226174D01*
X104152381Y-82226174D01*
X104157043Y-82226357D01*
X104236477Y-82217657D01*
X104412207Y-82198412D01*
X104412212Y-82198411D01*
X104416860Y-82197902D01*
X104421384Y-82196711D01*
X104665094Y-82132548D01*
X104665096Y-82132547D01*
X104669617Y-82131357D01*
X104696268Y-82119907D01*
X104905472Y-82030025D01*
X104909762Y-82028182D01*
X104920399Y-82021600D01*
X105128047Y-81893104D01*
X105128048Y-81893104D01*
X105132019Y-81890646D01*
X105135582Y-81887629D01*
X105135587Y-81887626D01*
X105327939Y-81724787D01*
X105327940Y-81724786D01*
X105331505Y-81721768D01*
X105375541Y-81671555D01*
X105500757Y-81528774D01*
X105500761Y-81528769D01*
X105503839Y-81525259D01*
X105645233Y-81305437D01*
X105752583Y-81067129D01*
X105794080Y-80919994D01*
X105822260Y-80820076D01*
X105822261Y-80820073D01*
X105823530Y-80815572D01*
X105839928Y-80686671D01*
X105856116Y-80559421D01*
X105856116Y-80559417D01*
X105856514Y-80556291D01*
X105857033Y-80536500D01*
X105858848Y-80467160D01*
X105858931Y-80464000D01*
X105857271Y-80441658D01*
X105839907Y-80208000D01*
X105839906Y-80207996D01*
X105839561Y-80203348D01*
X105831721Y-80168697D01*
X105784820Y-79961431D01*
X105781877Y-79948423D01*
X105780184Y-79944069D01*
X105688840Y-79709176D01*
X105688839Y-79709173D01*
X105687147Y-79704823D01*
X105677533Y-79688001D01*
X105599720Y-79551858D01*
X105557451Y-79477902D01*
X105395638Y-79272643D01*
X105205263Y-79093557D01*
X105046473Y-78983400D01*
X104994351Y-78947241D01*
X104994348Y-78947239D01*
X104990509Y-78944576D01*
X104968262Y-78933605D01*
X104760281Y-78831040D01*
X104760278Y-78831039D01*
X104756093Y-78828975D01*
X104714541Y-78815674D01*
X104511623Y-78750720D01*
X104507165Y-78749293D01*
X104249193Y-78707279D01*
X104135442Y-78705790D01*
X103992522Y-78703919D01*
X103992519Y-78703919D01*
X103987845Y-78703858D01*
X103728862Y-78739104D01*
X103724376Y-78740412D01*
X103724374Y-78740412D01*
X103656836Y-78760098D01*
X103477933Y-78812243D01*
X103473680Y-78814203D01*
X103473679Y-78814204D01*
X103440116Y-78829677D01*
X103240572Y-78921668D01*
X103201567Y-78947241D01*
X103025904Y-79062410D01*
X103025899Y-79062414D01*
X103021991Y-79064976D01*
X102826994Y-79239018D01*
X102659863Y-79439970D01*
X102657434Y-79443973D01*
X102547672Y-79624856D01*
X102524271Y-79663419D01*
X102423197Y-79904455D01*
X102422047Y-79908985D01*
X102421754Y-79909859D01*
X102381170Y-79968113D01*
X102315535Y-79995177D01*
X102245686Y-79982460D01*
X102193802Y-79933999D01*
X102178018Y-79882888D01*
X102177229Y-79883001D01*
X102175196Y-79868804D01*
X102174462Y-79862569D01*
X102159511Y-79701221D01*
X102159510Y-79701218D01*
X102158973Y-79695418D01*
X102157174Y-79689093D01*
X102118309Y-79552501D01*
X102107419Y-79514225D01*
X102023448Y-79345589D01*
X101909921Y-79195254D01*
X101770703Y-79068340D01*
X101763444Y-79063845D01*
X101615494Y-78972239D01*
X101615493Y-78972239D01*
X101610534Y-78969168D01*
X101434870Y-78901115D01*
X101249693Y-78866500D01*
X101061307Y-78866500D01*
X100876130Y-78901115D01*
X100700466Y-78969168D01*
X100695507Y-78972239D01*
X100695506Y-78972239D01*
X100547557Y-79063845D01*
X100540297Y-79068340D01*
X100401079Y-79195254D01*
X100287552Y-79345589D01*
X100203581Y-79514225D01*
X100192691Y-79552501D01*
X100153827Y-79689093D01*
X100152027Y-79695418D01*
X100151490Y-79701211D01*
X100151488Y-79701223D01*
X100137669Y-79850351D01*
X100136707Y-79858108D01*
X100136013Y-79862569D01*
X100133809Y-79876724D01*
X100134973Y-79885626D01*
X100134973Y-79885630D01*
X100137917Y-79908140D01*
X100138981Y-79924536D01*
X100138853Y-80198141D01*
X100138458Y-81044379D01*
X100138434Y-81094899D01*
X100118400Y-81163010D01*
X100064723Y-81209478D01*
X99994444Y-81219549D01*
X99929877Y-81190026D01*
X99923339Y-81183935D01*
X98581279Y-79841875D01*
X98547253Y-79779563D01*
X98552318Y-79708748D01*
X98561249Y-79689792D01*
X98640514Y-79552501D01*
X98699529Y-79370873D01*
X98701639Y-79350803D01*
X98718801Y-79187510D01*
X98719491Y-79180945D01*
X98712226Y-79111820D01*
X98700219Y-78997580D01*
X98700219Y-78997578D01*
X98699529Y-78991017D01*
X98640514Y-78809389D01*
X98633584Y-78797385D01*
X98587459Y-78717496D01*
X98545027Y-78644001D01*
X98497101Y-78590773D01*
X98421662Y-78506990D01*
X98421661Y-78506989D01*
X98417240Y-78502079D01*
X98262739Y-78389827D01*
X98256711Y-78387143D01*
X98256709Y-78387142D01*
X98094306Y-78314836D01*
X98094305Y-78314836D01*
X98088275Y-78312151D01*
X98081817Y-78310778D01*
X98081813Y-78310777D01*
X98078807Y-78310138D01*
X98077235Y-78309289D01*
X98075535Y-78308737D01*
X98075636Y-78308426D01*
X98016333Y-78276413D01*
X97982009Y-78214264D01*
X97979000Y-78186891D01*
X97979000Y-73066024D01*
X97999002Y-72997903D01*
X98011358Y-72981721D01*
X98084540Y-72900444D01*
X98180027Y-72735056D01*
X98239042Y-72553428D01*
X98242482Y-72520704D01*
X98258314Y-72370065D01*
X98259004Y-72363500D01*
X98257285Y-72347140D01*
X98239732Y-72180135D01*
X98239732Y-72180133D01*
X98239042Y-72173572D01*
X98180027Y-71991944D01*
X98168159Y-71971387D01*
X98133005Y-71910499D01*
X98084540Y-71826556D01*
X98041658Y-71778930D01*
X97961175Y-71689545D01*
X97961174Y-71689544D01*
X97956753Y-71684634D01*
X97802252Y-71572382D01*
X97796224Y-71569698D01*
X97796222Y-71569697D01*
X97633819Y-71497391D01*
X97633818Y-71497391D01*
X97627788Y-71494706D01*
X97534387Y-71474853D01*
X97447444Y-71456372D01*
X97447439Y-71456372D01*
X97440987Y-71455000D01*
X97250013Y-71455000D01*
X97243561Y-71456372D01*
X97243556Y-71456372D01*
X97156613Y-71474853D01*
X97063212Y-71494706D01*
X97057182Y-71497391D01*
X97057181Y-71497391D01*
X96894778Y-71569697D01*
X96894776Y-71569698D01*
X96888748Y-71572382D01*
X96734247Y-71684634D01*
X96729826Y-71689544D01*
X96729825Y-71689545D01*
X96649343Y-71778930D01*
X96606460Y-71826556D01*
X96557995Y-71910499D01*
X96522842Y-71971387D01*
X96510973Y-71991944D01*
X96451958Y-72173572D01*
X96451268Y-72180133D01*
X96451268Y-72180135D01*
X96445408Y-72235889D01*
X96436214Y-72323373D01*
X96434593Y-72338792D01*
X96407580Y-72404449D01*
X96398378Y-72414717D01*
X96331500Y-72481595D01*
X96269188Y-72515621D01*
X96242405Y-72518500D01*
X93278595Y-72518500D01*
X93210474Y-72498498D01*
X93189499Y-72481595D01*
X92618404Y-71910499D01*
X92584379Y-71848187D01*
X92581500Y-71821404D01*
X92581500Y-65218524D01*
X92601502Y-65150403D01*
X92613858Y-65134221D01*
X92687040Y-65052944D01*
X92782527Y-64887556D01*
X92841542Y-64705928D01*
X92847240Y-64651720D01*
X92860814Y-64522565D01*
X92861504Y-64516000D01*
X92844062Y-64350045D01*
X92842232Y-64332635D01*
X92842232Y-64332633D01*
X92841542Y-64326072D01*
X92791947Y-64173435D01*
X92789919Y-64102469D01*
X92826582Y-64041671D01*
X92890294Y-64010345D01*
X92911780Y-64008500D01*
X99958631Y-64008500D01*
X99978014Y-64010000D01*
G37*
%TD.AperFunction*%
%TA.AperFunction,Conductor*%
G36*
X90338826Y-77886184D02*
G01*
X90345409Y-77892313D01*
X90833095Y-78379999D01*
X90867121Y-78442311D01*
X90870000Y-78469094D01*
X90870000Y-79677233D01*
X90869473Y-79688416D01*
X90867798Y-79695909D01*
X90868047Y-79703835D01*
X90868047Y-79703836D01*
X90869938Y-79763986D01*
X90870000Y-79767945D01*
X90870000Y-79795856D01*
X90870497Y-79799790D01*
X90870497Y-79799791D01*
X90870505Y-79799856D01*
X90871438Y-79811693D01*
X90872827Y-79855889D01*
X90877035Y-79870372D01*
X90878478Y-79875339D01*
X90882487Y-79894700D01*
X90885026Y-79914797D01*
X90887945Y-79922168D01*
X90887945Y-79922170D01*
X90901304Y-79955912D01*
X90905149Y-79967142D01*
X90912952Y-79994000D01*
X90917482Y-80009593D01*
X90921515Y-80016412D01*
X90921517Y-80016417D01*
X90927793Y-80027028D01*
X90936488Y-80044776D01*
X90943948Y-80063617D01*
X90948610Y-80070033D01*
X90948610Y-80070034D01*
X90969936Y-80099387D01*
X90976452Y-80109307D01*
X90998958Y-80147362D01*
X91013279Y-80161683D01*
X91026119Y-80176716D01*
X91038028Y-80193107D01*
X91052929Y-80205434D01*
X91072105Y-80221298D01*
X91080884Y-80229288D01*
X94897095Y-84045500D01*
X94931121Y-84107812D01*
X94934000Y-84134595D01*
X94934000Y-84339692D01*
X94913998Y-84407813D01*
X94866183Y-84451453D01*
X94841107Y-84464507D01*
X94836974Y-84467610D01*
X94836971Y-84467612D01*
X94666804Y-84595377D01*
X94662465Y-84598635D01*
X94658893Y-84602373D01*
X94518948Y-84748817D01*
X94508129Y-84760138D01*
X94505220Y-84764403D01*
X94505214Y-84764411D01*
X94500770Y-84770926D01*
X94400704Y-84917618D01*
X94400398Y-84918066D01*
X94345487Y-84963069D01*
X94274962Y-84971240D01*
X94211215Y-84939986D01*
X94190518Y-84915502D01*
X94109926Y-84790926D01*
X94103636Y-84782757D01*
X93960306Y-84625240D01*
X93952773Y-84618215D01*
X93785639Y-84486222D01*
X93777052Y-84480517D01*
X93590617Y-84377599D01*
X93581205Y-84373369D01*
X93380459Y-84302280D01*
X93370488Y-84299646D01*
X93299337Y-84286972D01*
X93286040Y-84288432D01*
X93281500Y-84302989D01*
X93281500Y-88286000D01*
X93261498Y-88354121D01*
X93207842Y-88400614D01*
X93155500Y-88412000D01*
X92899500Y-88412000D01*
X92831379Y-88391998D01*
X92784886Y-88338342D01*
X92773500Y-88286000D01*
X92773500Y-84301102D01*
X92769582Y-84287758D01*
X92755306Y-84285771D01*
X92716824Y-84291660D01*
X92706788Y-84294051D01*
X92504368Y-84360212D01*
X92494859Y-84364209D01*
X92305963Y-84462542D01*
X92297238Y-84468036D01*
X92126933Y-84595905D01*
X92119226Y-84602748D01*
X91972090Y-84756717D01*
X91965609Y-84764722D01*
X91860998Y-84918074D01*
X91806087Y-84963076D01*
X91735562Y-84971247D01*
X91671815Y-84939993D01*
X91651118Y-84915509D01*
X91570322Y-84790617D01*
X91570320Y-84790614D01*
X91567514Y-84786277D01*
X91417170Y-84621051D01*
X91413119Y-84617852D01*
X91413115Y-84617848D01*
X91245914Y-84485800D01*
X91245910Y-84485798D01*
X91241859Y-84482598D01*
X91205528Y-84462542D01*
X91152077Y-84433036D01*
X91046289Y-84374638D01*
X91041420Y-84372914D01*
X91041416Y-84372912D01*
X90840587Y-84301795D01*
X90840583Y-84301794D01*
X90835712Y-84300069D01*
X90830619Y-84299162D01*
X90830616Y-84299161D01*
X90620873Y-84261800D01*
X90620867Y-84261799D01*
X90615784Y-84260894D01*
X90541952Y-84259992D01*
X90397581Y-84258228D01*
X90397579Y-84258228D01*
X90392411Y-84258165D01*
X90171591Y-84291955D01*
X89959256Y-84361357D01*
X89910849Y-84386556D01*
X89768772Y-84460517D01*
X89761107Y-84464507D01*
X89756974Y-84467610D01*
X89756971Y-84467612D01*
X89586804Y-84595377D01*
X89582465Y-84598635D01*
X89578893Y-84602373D01*
X89438948Y-84748817D01*
X89428129Y-84760138D01*
X89320701Y-84917621D01*
X89265793Y-84962621D01*
X89195268Y-84970792D01*
X89131521Y-84939538D01*
X89110824Y-84915054D01*
X89030322Y-84790617D01*
X89030320Y-84790614D01*
X89027514Y-84786277D01*
X88877170Y-84621051D01*
X88873119Y-84617852D01*
X88873115Y-84617848D01*
X88705914Y-84485800D01*
X88705910Y-84485798D01*
X88701859Y-84482598D01*
X88665528Y-84462542D01*
X88612077Y-84433036D01*
X88506289Y-84374638D01*
X88501420Y-84372914D01*
X88501416Y-84372912D01*
X88300587Y-84301795D01*
X88300583Y-84301794D01*
X88295712Y-84300069D01*
X88290619Y-84299162D01*
X88290616Y-84299161D01*
X88080873Y-84261800D01*
X88080867Y-84261799D01*
X88075784Y-84260894D01*
X88001952Y-84259992D01*
X87857581Y-84258228D01*
X87857579Y-84258228D01*
X87852411Y-84258165D01*
X87631591Y-84291955D01*
X87419256Y-84361357D01*
X87370849Y-84386556D01*
X87228772Y-84460517D01*
X87221107Y-84464507D01*
X87216974Y-84467610D01*
X87216971Y-84467612D01*
X87046804Y-84595377D01*
X87042465Y-84598635D01*
X87038893Y-84602373D01*
X86898948Y-84748817D01*
X86888129Y-84760138D01*
X86885220Y-84764403D01*
X86885214Y-84764411D01*
X86880770Y-84770926D01*
X86762243Y-84944680D01*
X86726913Y-85020792D01*
X86681210Y-85119252D01*
X86668188Y-85147305D01*
X86608489Y-85362570D01*
X86584751Y-85584695D01*
X86585048Y-85589848D01*
X86585048Y-85589851D01*
X86592898Y-85726000D01*
X86597610Y-85807715D01*
X86598747Y-85812761D01*
X86598748Y-85812767D01*
X86614089Y-85880837D01*
X86646722Y-86025639D01*
X86679223Y-86105680D01*
X86718251Y-86201794D01*
X86730766Y-86232616D01*
X86769107Y-86295183D01*
X86844791Y-86418688D01*
X86847487Y-86423088D01*
X86993750Y-86591938D01*
X87165626Y-86734632D01*
X87204719Y-86757476D01*
X87238945Y-86777476D01*
X87287669Y-86829114D01*
X87300740Y-86898897D01*
X87274009Y-86964669D01*
X87233555Y-86998027D01*
X87221107Y-87004507D01*
X87216974Y-87007610D01*
X87216971Y-87007612D01*
X87064124Y-87122373D01*
X87042465Y-87138635D01*
X86997098Y-87186109D01*
X86894902Y-87293051D01*
X86888129Y-87300138D01*
X86885220Y-87304403D01*
X86885214Y-87304411D01*
X86872904Y-87322457D01*
X86762243Y-87484680D01*
X86715215Y-87585993D01*
X86701928Y-87614619D01*
X86668188Y-87687305D01*
X86608489Y-87902570D01*
X86584751Y-88124695D01*
X86585048Y-88129848D01*
X86585048Y-88129851D01*
X86595172Y-88305428D01*
X86597610Y-88347715D01*
X86598747Y-88352761D01*
X86598748Y-88352767D01*
X86642251Y-88545799D01*
X86637715Y-88616650D01*
X86595593Y-88673802D01*
X86529260Y-88699108D01*
X86519334Y-88699500D01*
X85393095Y-88699500D01*
X85324974Y-88679498D01*
X85304000Y-88662595D01*
X85278905Y-88637500D01*
X85244879Y-88575188D01*
X85242000Y-88548405D01*
X85242000Y-87239866D01*
X85235245Y-87177684D01*
X85184115Y-87041295D01*
X85096761Y-86924739D01*
X84980205Y-86837385D01*
X84931782Y-86819232D01*
X84861187Y-86792767D01*
X84804423Y-86750125D01*
X84779723Y-86683564D01*
X84794930Y-86614215D01*
X84816477Y-86585535D01*
X84917552Y-86484812D01*
X84924230Y-86476965D01*
X85048503Y-86304020D01*
X85053813Y-86295183D01*
X85148170Y-86104267D01*
X85151969Y-86094672D01*
X85213877Y-85890910D01*
X85216055Y-85880837D01*
X85217486Y-85869962D01*
X85215275Y-85855778D01*
X85202117Y-85852000D01*
X83755500Y-85852000D01*
X83687379Y-85831998D01*
X83640886Y-85778342D01*
X83629500Y-85726000D01*
X83629500Y-85470000D01*
X83649502Y-85401879D01*
X83703158Y-85355386D01*
X83755500Y-85344000D01*
X85201844Y-85344000D01*
X85215375Y-85340027D01*
X85216680Y-85330947D01*
X85174714Y-85163875D01*
X85171394Y-85154124D01*
X85086472Y-84958814D01*
X85081605Y-84949739D01*
X84965926Y-84770926D01*
X84959636Y-84762757D01*
X84816306Y-84605240D01*
X84808773Y-84598215D01*
X84641639Y-84466222D01*
X84633052Y-84460517D01*
X84536236Y-84407071D01*
X84486266Y-84356638D01*
X84471494Y-84287196D01*
X84496611Y-84220790D01*
X84508035Y-84207668D01*
X89609747Y-79105956D01*
X89618037Y-79098412D01*
X89624518Y-79094299D01*
X89638548Y-79079359D01*
X89671158Y-79044632D01*
X89673913Y-79041790D01*
X89693634Y-79022069D01*
X89696112Y-79018874D01*
X89703818Y-79009852D01*
X89728658Y-78983400D01*
X89734086Y-78977620D01*
X89743846Y-78959867D01*
X89754699Y-78943344D01*
X89762253Y-78933605D01*
X89767113Y-78927340D01*
X89784676Y-78886756D01*
X89789883Y-78876126D01*
X89811195Y-78837359D01*
X89813166Y-78829682D01*
X89813168Y-78829677D01*
X89816232Y-78817741D01*
X89822638Y-78799029D01*
X89823350Y-78797385D01*
X89830681Y-78780444D01*
X89833870Y-78760314D01*
X89837597Y-78736780D01*
X89840004Y-78725159D01*
X89849028Y-78690010D01*
X89849028Y-78690009D01*
X89851000Y-78682329D01*
X89851000Y-78674400D01*
X89851993Y-78666539D01*
X89854995Y-78666918D01*
X89871002Y-78612403D01*
X89883358Y-78596220D01*
X89956540Y-78514944D01*
X90026536Y-78393708D01*
X90048723Y-78355279D01*
X90048724Y-78355278D01*
X90052027Y-78349556D01*
X90111042Y-78167928D01*
X90121418Y-78069211D01*
X90130314Y-77984565D01*
X90131004Y-77978000D01*
X90131305Y-77978032D01*
X90150316Y-77913287D01*
X90203972Y-77866794D01*
X90274246Y-77856690D01*
X90338826Y-77886184D01*
G37*
%TD.AperFunction*%
%TA.AperFunction,Conductor*%
G36*
X96489416Y-73786027D02*
G01*
X96496909Y-73787702D01*
X96504835Y-73787453D01*
X96504836Y-73787453D01*
X96564986Y-73785562D01*
X96568945Y-73785500D01*
X96586000Y-73785500D01*
X96654121Y-73805502D01*
X96700614Y-73859158D01*
X96712000Y-73911500D01*
X96712000Y-78641691D01*
X96711473Y-78652874D01*
X96709798Y-78660367D01*
X96710047Y-78668293D01*
X96710047Y-78668294D01*
X96711938Y-78728444D01*
X96712000Y-78732403D01*
X96712000Y-78760314D01*
X96712497Y-78764248D01*
X96712497Y-78764249D01*
X96712505Y-78764314D01*
X96713438Y-78776151D01*
X96714827Y-78820347D01*
X96720478Y-78839797D01*
X96724487Y-78859158D01*
X96727026Y-78879255D01*
X96729945Y-78886626D01*
X96729945Y-78886628D01*
X96743304Y-78920370D01*
X96747149Y-78931600D01*
X96750318Y-78942508D01*
X96759482Y-78974051D01*
X96763515Y-78980870D01*
X96763517Y-78980875D01*
X96769793Y-78991486D01*
X96778488Y-79009234D01*
X96785948Y-79028075D01*
X96790610Y-79034491D01*
X96790610Y-79034492D01*
X96811936Y-79063845D01*
X96818451Y-79073764D01*
X96821760Y-79079359D01*
X96839221Y-79148175D01*
X96816705Y-79215507D01*
X96761362Y-79259977D01*
X96713308Y-79269500D01*
X96029815Y-79269500D01*
X95961694Y-79249498D01*
X95926602Y-79215770D01*
X95902217Y-79180945D01*
X95861801Y-79123224D01*
X95712276Y-78973699D01*
X95539058Y-78852411D01*
X95534080Y-78850090D01*
X95534077Y-78850088D01*
X95352392Y-78765367D01*
X95352391Y-78765366D01*
X95347410Y-78763044D01*
X95342103Y-78761622D01*
X95342092Y-78761618D01*
X95315329Y-78754447D01*
X95254707Y-78717496D01*
X95223685Y-78653635D01*
X95232114Y-78583140D01*
X95277318Y-78528394D01*
X95315330Y-78511034D01*
X95341926Y-78503908D01*
X95352223Y-78500159D01*
X95533823Y-78415479D01*
X95543311Y-78410001D01*
X95573748Y-78388689D01*
X95582123Y-78378212D01*
X95575054Y-78364764D01*
X94662385Y-77452095D01*
X94628359Y-77389783D01*
X94630194Y-77364132D01*
X95296908Y-77364132D01*
X95297039Y-77365965D01*
X95301290Y-77372580D01*
X95934986Y-78006276D01*
X95946761Y-78012706D01*
X95958776Y-78003410D01*
X95979501Y-77973811D01*
X95984979Y-77964323D01*
X96069659Y-77782723D01*
X96073407Y-77772429D01*
X96125269Y-77578878D01*
X96127171Y-77568091D01*
X96144635Y-77368475D01*
X96144635Y-77357525D01*
X96127171Y-77157909D01*
X96125269Y-77147122D01*
X96073407Y-76953571D01*
X96069659Y-76943277D01*
X95984979Y-76761677D01*
X95979501Y-76752189D01*
X95958189Y-76721752D01*
X95947712Y-76713377D01*
X95934264Y-76720446D01*
X95304522Y-77350188D01*
X95296908Y-77364132D01*
X94630194Y-77364132D01*
X94633424Y-77318968D01*
X94662385Y-77273905D01*
X95575776Y-76360514D01*
X95582206Y-76348739D01*
X95572910Y-76336724D01*
X95543311Y-76315999D01*
X95533823Y-76310521D01*
X95352223Y-76225841D01*
X95341929Y-76222093D01*
X95148378Y-76170231D01*
X95137591Y-76168329D01*
X94937975Y-76150865D01*
X94927025Y-76150865D01*
X94727409Y-76168329D01*
X94716622Y-76170231D01*
X94523071Y-76222093D01*
X94512777Y-76225841D01*
X94348249Y-76302560D01*
X94278058Y-76313221D01*
X94213245Y-76284241D01*
X94174389Y-76224821D01*
X94169000Y-76188365D01*
X94169000Y-74754763D01*
X94169527Y-74743579D01*
X94171201Y-74736091D01*
X94169062Y-74668032D01*
X94169000Y-74664075D01*
X94169000Y-74636144D01*
X94168494Y-74632138D01*
X94167561Y-74620292D01*
X94166422Y-74584037D01*
X94166173Y-74576110D01*
X94160522Y-74556658D01*
X94156514Y-74537306D01*
X94154968Y-74525068D01*
X94154967Y-74525066D01*
X94153974Y-74517203D01*
X94137694Y-74476086D01*
X94133859Y-74464885D01*
X94121518Y-74422406D01*
X94117485Y-74415587D01*
X94117483Y-74415582D01*
X94111207Y-74404971D01*
X94102510Y-74387221D01*
X94095052Y-74368383D01*
X94069071Y-74332623D01*
X94062553Y-74322701D01*
X94044078Y-74291460D01*
X94044074Y-74291455D01*
X94040042Y-74284637D01*
X94025718Y-74270313D01*
X94012876Y-74255278D01*
X94000972Y-74238893D01*
X93966906Y-74210711D01*
X93958127Y-74202722D01*
X93756000Y-74000595D01*
X93721974Y-73938283D01*
X93727039Y-73867468D01*
X93769586Y-73810632D01*
X93836106Y-73785821D01*
X93845095Y-73785500D01*
X96478233Y-73785500D01*
X96489416Y-73786027D01*
G37*
%TD.AperFunction*%
%TA.AperFunction,Conductor*%
G36*
X91052341Y-64028502D02*
G01*
X91098834Y-64082158D01*
X91108938Y-64152432D01*
X91104054Y-64173432D01*
X91054458Y-64326072D01*
X91053768Y-64332633D01*
X91053768Y-64332635D01*
X91051938Y-64350045D01*
X91034496Y-64516000D01*
X91035186Y-64522565D01*
X91048761Y-64651720D01*
X91054458Y-64705928D01*
X91113473Y-64887556D01*
X91208960Y-65052944D01*
X91282137Y-65134215D01*
X91312853Y-65198221D01*
X91314500Y-65218524D01*
X91314500Y-72057233D01*
X91313973Y-72068416D01*
X91312298Y-72075909D01*
X91312547Y-72083835D01*
X91312547Y-72083836D01*
X91314438Y-72143986D01*
X91314500Y-72147945D01*
X91314500Y-72175856D01*
X91314997Y-72179790D01*
X91314997Y-72179791D01*
X91315005Y-72179856D01*
X91315938Y-72191693D01*
X91317327Y-72235889D01*
X91322978Y-72255339D01*
X91326987Y-72274700D01*
X91329526Y-72294797D01*
X91332445Y-72302168D01*
X91332445Y-72302170D01*
X91345804Y-72335912D01*
X91349648Y-72347140D01*
X91352613Y-72357345D01*
X91352412Y-72428342D01*
X91313859Y-72487958D01*
X91249194Y-72517268D01*
X91231617Y-72518500D01*
X90218520Y-72518500D01*
X90150399Y-72498498D01*
X90103906Y-72444842D01*
X90093802Y-72374568D01*
X90123296Y-72309988D01*
X90167271Y-72277393D01*
X90293273Y-72221294D01*
X90293275Y-72221293D01*
X90299303Y-72218609D01*
X90453804Y-72106357D01*
X90474082Y-72083836D01*
X90577172Y-71969343D01*
X90577173Y-71969342D01*
X90581591Y-71964435D01*
X90661196Y-71826556D01*
X90673774Y-71804770D01*
X90673775Y-71804769D01*
X90677078Y-71799047D01*
X90736093Y-71617419D01*
X90740464Y-71575836D01*
X90755365Y-71434056D01*
X90756055Y-71427491D01*
X90738738Y-71262729D01*
X90736783Y-71244126D01*
X90736783Y-71244124D01*
X90736093Y-71237563D01*
X90677078Y-71055935D01*
X90581591Y-70890547D01*
X90565432Y-70872600D01*
X90458226Y-70753536D01*
X90458225Y-70753535D01*
X90453804Y-70748625D01*
X90335726Y-70662836D01*
X90304645Y-70640254D01*
X90304644Y-70640253D01*
X90299303Y-70636373D01*
X90293275Y-70633689D01*
X90293273Y-70633688D01*
X90130870Y-70561382D01*
X90130869Y-70561382D01*
X90124839Y-70558697D01*
X90028644Y-70538250D01*
X89944495Y-70520363D01*
X89944490Y-70520363D01*
X89938038Y-70518991D01*
X89747064Y-70518991D01*
X89740612Y-70520363D01*
X89740607Y-70520363D01*
X89656458Y-70538250D01*
X89560263Y-70558697D01*
X89554233Y-70561382D01*
X89554232Y-70561382D01*
X89391829Y-70633688D01*
X89391827Y-70633689D01*
X89385799Y-70636373D01*
X89380458Y-70640253D01*
X89380457Y-70640254D01*
X89297244Y-70700712D01*
X89231298Y-70748625D01*
X89226883Y-70753528D01*
X89221971Y-70757951D01*
X89220846Y-70756702D01*
X89167537Y-70789542D01*
X89134351Y-70793991D01*
X88979472Y-70793991D01*
X88968289Y-70793464D01*
X88960796Y-70791789D01*
X88952870Y-70792038D01*
X88952869Y-70792038D01*
X88892706Y-70793929D01*
X88888748Y-70793991D01*
X88860848Y-70793991D01*
X88856858Y-70794495D01*
X88845024Y-70795427D01*
X88800815Y-70796817D01*
X88793199Y-70799030D01*
X88793197Y-70799030D01*
X88781356Y-70802470D01*
X88761997Y-70806479D01*
X88760687Y-70806645D01*
X88741907Y-70809017D01*
X88734541Y-70811933D01*
X88734535Y-70811935D01*
X88700802Y-70825291D01*
X88689572Y-70829136D01*
X88654721Y-70839261D01*
X88647111Y-70841472D01*
X88640288Y-70845507D01*
X88629670Y-70851786D01*
X88611917Y-70860483D01*
X88604272Y-70863510D01*
X88593087Y-70867939D01*
X88586672Y-70872600D01*
X88557316Y-70893928D01*
X88547399Y-70900442D01*
X88509342Y-70922949D01*
X88495021Y-70937270D01*
X88479988Y-70950110D01*
X88463597Y-70962019D01*
X88458546Y-70968125D01*
X88435406Y-70996096D01*
X88427416Y-71004875D01*
X86068247Y-73364043D01*
X86059961Y-73371583D01*
X86053482Y-73375695D01*
X86048057Y-73381472D01*
X86006857Y-73425346D01*
X86004102Y-73428188D01*
X85984365Y-73447925D01*
X85981885Y-73451122D01*
X85974182Y-73460142D01*
X85943914Y-73492374D01*
X85940095Y-73499320D01*
X85940093Y-73499323D01*
X85934152Y-73510129D01*
X85923301Y-73526648D01*
X85910886Y-73542654D01*
X85907741Y-73549923D01*
X85907738Y-73549927D01*
X85893326Y-73583232D01*
X85888109Y-73593882D01*
X85866805Y-73632635D01*
X85864834Y-73640310D01*
X85864834Y-73640311D01*
X85861767Y-73652257D01*
X85855363Y-73670961D01*
X85847319Y-73689550D01*
X85847073Y-73689443D01*
X85811265Y-73745510D01*
X85746768Y-73775186D01*
X85691638Y-73770530D01*
X85689788Y-73769706D01*
X85683336Y-73768334D01*
X85683331Y-73768333D01*
X85509444Y-73731372D01*
X85509439Y-73731372D01*
X85502987Y-73730000D01*
X85447095Y-73730000D01*
X85378974Y-73709998D01*
X85358000Y-73693095D01*
X82521905Y-70857000D01*
X82487879Y-70794688D01*
X82485000Y-70767905D01*
X82485000Y-65864768D01*
X82485527Y-65853585D01*
X82487202Y-65846092D01*
X82485062Y-65778001D01*
X82485000Y-65774044D01*
X82485000Y-65746144D01*
X82484496Y-65742153D01*
X82483563Y-65730311D01*
X82483001Y-65712406D01*
X82482174Y-65686111D01*
X82479962Y-65678497D01*
X82479961Y-65678492D01*
X82476523Y-65666659D01*
X82472512Y-65647295D01*
X82470967Y-65635064D01*
X82469974Y-65627203D01*
X82467057Y-65619836D01*
X82467056Y-65619831D01*
X82453698Y-65586092D01*
X82449854Y-65574865D01*
X82444148Y-65555226D01*
X82437518Y-65532407D01*
X82427207Y-65514972D01*
X82418512Y-65497224D01*
X82411052Y-65478383D01*
X82402935Y-65467210D01*
X82385064Y-65442613D01*
X82378548Y-65432693D01*
X82360080Y-65401465D01*
X82360078Y-65401462D01*
X82356042Y-65394638D01*
X82341721Y-65380317D01*
X82328880Y-65365283D01*
X82321632Y-65355307D01*
X82316972Y-65348893D01*
X82282901Y-65320707D01*
X82274122Y-65312718D01*
X82036622Y-65075218D01*
X82002596Y-65012906D01*
X82000407Y-64999293D01*
X81983732Y-64840635D01*
X81983732Y-64840633D01*
X81983042Y-64834072D01*
X81924027Y-64652444D01*
X81920706Y-64646691D01*
X81845251Y-64516000D01*
X81828540Y-64487056D01*
X81776102Y-64428817D01*
X81705175Y-64350045D01*
X81705174Y-64350044D01*
X81700753Y-64345134D01*
X81551144Y-64236436D01*
X81507790Y-64180213D01*
X81501715Y-64109477D01*
X81534847Y-64046686D01*
X81596667Y-64011774D01*
X81625205Y-64008500D01*
X90984220Y-64008500D01*
X91052341Y-64028502D01*
G37*
%TD.AperFunction*%
%TA.AperFunction,Conductor*%
G36*
X80621916Y-64028502D02*
G01*
X80668409Y-64082158D01*
X80678513Y-64152432D01*
X80649019Y-64217012D01*
X80627856Y-64236436D01*
X80478247Y-64345134D01*
X80473826Y-64350044D01*
X80473825Y-64350045D01*
X80402899Y-64428817D01*
X80350460Y-64487056D01*
X80333749Y-64516000D01*
X80258295Y-64646691D01*
X80254973Y-64652444D01*
X80195958Y-64834072D01*
X80195268Y-64840633D01*
X80195268Y-64840635D01*
X80190997Y-64881271D01*
X80175996Y-65024000D01*
X80176686Y-65030565D01*
X80191358Y-65170158D01*
X80195958Y-65213928D01*
X80254973Y-65395556D01*
X80258276Y-65401278D01*
X80258277Y-65401279D01*
X80265974Y-65414611D01*
X80350460Y-65560944D01*
X80354878Y-65565851D01*
X80354879Y-65565852D01*
X80470296Y-65694036D01*
X80478247Y-65702866D01*
X80632748Y-65815118D01*
X80638776Y-65817802D01*
X80638778Y-65817803D01*
X80744264Y-65864768D01*
X80807212Y-65892794D01*
X80900612Y-65912647D01*
X80987556Y-65931128D01*
X80987561Y-65931128D01*
X80994013Y-65932500D01*
X81049905Y-65932500D01*
X81118026Y-65952502D01*
X81139000Y-65969405D01*
X81181095Y-66011500D01*
X81215121Y-66073812D01*
X81218000Y-66100595D01*
X81218000Y-67830909D01*
X81197998Y-67899030D01*
X81144342Y-67945523D01*
X81074068Y-67955627D01*
X81065803Y-67954156D01*
X80937444Y-67926872D01*
X80937439Y-67926872D01*
X80930987Y-67925500D01*
X80740013Y-67925500D01*
X80733561Y-67926872D01*
X80733556Y-67926872D01*
X80648014Y-67945055D01*
X80553212Y-67965206D01*
X80547182Y-67967891D01*
X80547181Y-67967891D01*
X80384778Y-68040197D01*
X80384776Y-68040198D01*
X80378748Y-68042882D01*
X80224247Y-68155134D01*
X80219826Y-68160044D01*
X80219825Y-68160045D01*
X80131062Y-68258627D01*
X80096460Y-68297056D01*
X80093159Y-68302774D01*
X80055619Y-68367795D01*
X80004237Y-68416788D01*
X79934523Y-68430224D01*
X79868612Y-68403838D01*
X79837381Y-68367795D01*
X79799841Y-68302774D01*
X79796540Y-68297056D01*
X79761939Y-68258627D01*
X79673175Y-68160045D01*
X79673174Y-68160044D01*
X79668753Y-68155134D01*
X79514252Y-68042882D01*
X79508224Y-68040198D01*
X79508222Y-68040197D01*
X79345819Y-67967891D01*
X79345818Y-67967891D01*
X79339788Y-67965206D01*
X79244986Y-67945055D01*
X79159444Y-67926872D01*
X79159439Y-67926872D01*
X79152987Y-67925500D01*
X78962013Y-67925500D01*
X78955561Y-67926872D01*
X78955556Y-67926872D01*
X78870014Y-67945055D01*
X78775212Y-67965206D01*
X78769182Y-67967891D01*
X78769181Y-67967891D01*
X78606778Y-68040197D01*
X78606776Y-68040198D01*
X78600748Y-68042882D01*
X78446247Y-68155134D01*
X78441826Y-68160044D01*
X78441825Y-68160045D01*
X78353062Y-68258627D01*
X78318460Y-68297056D01*
X78315159Y-68302774D01*
X78249333Y-68416788D01*
X78222973Y-68462444D01*
X78163958Y-68644072D01*
X78163268Y-68650633D01*
X78163268Y-68650635D01*
X78159977Y-68681953D01*
X78148715Y-68789108D01*
X78146726Y-68808030D01*
X78119713Y-68873687D01*
X78113273Y-68881105D01*
X78106031Y-68888817D01*
X78095855Y-68899653D01*
X78093102Y-68902493D01*
X78073365Y-68922230D01*
X78070885Y-68925427D01*
X78063182Y-68934447D01*
X78032914Y-68966679D01*
X78029095Y-68973625D01*
X78029093Y-68973628D01*
X78023152Y-68984434D01*
X78012301Y-69000953D01*
X77999886Y-69016959D01*
X77996741Y-69024228D01*
X77996738Y-69024232D01*
X77982326Y-69057537D01*
X77977109Y-69068187D01*
X77955805Y-69106940D01*
X77953834Y-69114615D01*
X77953834Y-69114616D01*
X77950767Y-69126562D01*
X77944363Y-69145266D01*
X77936319Y-69163855D01*
X77935080Y-69171678D01*
X77935077Y-69171688D01*
X77929401Y-69207524D01*
X77926995Y-69219144D01*
X77921949Y-69238799D01*
X77916000Y-69261970D01*
X77916000Y-69282224D01*
X77914449Y-69301934D01*
X77911280Y-69321943D01*
X77915372Y-69365226D01*
X77915441Y-69365961D01*
X77916000Y-69377819D01*
X77916000Y-70114918D01*
X77895998Y-70183039D01*
X77842342Y-70229532D01*
X77801858Y-70240359D01*
X77783981Y-70242048D01*
X77774537Y-70242941D01*
X77762681Y-70243500D01*
X71880700Y-70243500D01*
X71812579Y-70223498D01*
X71793353Y-70207157D01*
X71793080Y-70207460D01*
X71788168Y-70203037D01*
X71783753Y-70198134D01*
X71680519Y-70123130D01*
X71634594Y-70089763D01*
X71634593Y-70089762D01*
X71629252Y-70085882D01*
X71623224Y-70083198D01*
X71623222Y-70083197D01*
X71460819Y-70010891D01*
X71460818Y-70010891D01*
X71454788Y-70008206D01*
X71343021Y-69984449D01*
X71274444Y-69969872D01*
X71274439Y-69969872D01*
X71267987Y-69968500D01*
X71077013Y-69968500D01*
X71070561Y-69969872D01*
X71070556Y-69969872D01*
X71001979Y-69984449D01*
X70890212Y-70008206D01*
X70884182Y-70010891D01*
X70884181Y-70010891D01*
X70721778Y-70083197D01*
X70721776Y-70083198D01*
X70715748Y-70085882D01*
X70710407Y-70089762D01*
X70710406Y-70089763D01*
X70671269Y-70118198D01*
X70561247Y-70198134D01*
X70556826Y-70203044D01*
X70556825Y-70203045D01*
X70492607Y-70274367D01*
X70433460Y-70340056D01*
X70337973Y-70505444D01*
X70319798Y-70561382D01*
X70286833Y-70662836D01*
X70246759Y-70721441D01*
X70181363Y-70749078D01*
X70111406Y-70736971D01*
X70059100Y-70688965D01*
X70041000Y-70623899D01*
X70041000Y-70538250D01*
X70042746Y-70517345D01*
X70045270Y-70502344D01*
X70045270Y-70502341D01*
X70046076Y-70497552D01*
X70046229Y-70485000D01*
X70044505Y-70472963D01*
X70043715Y-70466111D01*
X70041133Y-70436591D01*
X70034415Y-70359813D01*
X70028409Y-70291156D01*
X70028408Y-70291151D01*
X70027929Y-70285675D01*
X70023764Y-70270132D01*
X69977566Y-70097716D01*
X69977565Y-70097714D01*
X69976143Y-70092406D01*
X69971849Y-70083197D01*
X69893909Y-69916053D01*
X69893906Y-69916048D01*
X69891583Y-69911066D01*
X69792830Y-69770032D01*
X69779977Y-69751676D01*
X69779975Y-69751673D01*
X69776818Y-69747165D01*
X69635335Y-69605682D01*
X69630827Y-69602525D01*
X69630824Y-69602523D01*
X69528371Y-69530785D01*
X69471434Y-69490917D01*
X69466452Y-69488594D01*
X69466447Y-69488591D01*
X69295076Y-69408680D01*
X69295075Y-69408680D01*
X69290094Y-69406357D01*
X69284786Y-69404935D01*
X69284784Y-69404934D01*
X69102140Y-69355995D01*
X69102138Y-69355995D01*
X69096825Y-69354571D01*
X68937398Y-69340623D01*
X68927485Y-69339357D01*
X68920251Y-69338140D01*
X68914844Y-69337230D01*
X68914841Y-69337230D01*
X68910052Y-69336424D01*
X68903776Y-69336348D01*
X68902360Y-69336330D01*
X68902357Y-69336330D01*
X68897500Y-69336271D01*
X68879401Y-69338863D01*
X68869876Y-69340227D01*
X68852014Y-69341500D01*
X67625016Y-69341500D01*
X67556895Y-69321498D01*
X67510402Y-69267842D01*
X67500298Y-69197568D01*
X67529792Y-69132988D01*
X67570339Y-69103345D01*
X67569825Y-69102324D01*
X67573220Y-69100616D01*
X67576705Y-69099119D01*
X67859101Y-68935091D01*
X68119745Y-68738324D01*
X68332615Y-68533117D01*
X68352132Y-68514303D01*
X68352135Y-68514300D01*
X68354863Y-68511670D01*
X68561049Y-68258410D01*
X68735315Y-67982215D01*
X68747912Y-67955627D01*
X68865930Y-67706520D01*
X68875138Y-67687084D01*
X68878566Y-67676809D01*
X68977290Y-67380897D01*
X68977292Y-67380891D01*
X68978492Y-67377293D01*
X69043881Y-67057329D01*
X69048499Y-67000562D01*
X69062298Y-66830899D01*
X69070356Y-66731826D01*
X69070951Y-66675000D01*
X69067816Y-66622990D01*
X69051526Y-66352793D01*
X69051526Y-66352789D01*
X69051298Y-66349015D01*
X69045753Y-66318650D01*
X68993305Y-66031473D01*
X68993304Y-66031469D01*
X68992625Y-66027751D01*
X68895782Y-65715863D01*
X68762170Y-65417869D01*
X68593726Y-65138084D01*
X68591399Y-65135100D01*
X68591394Y-65135093D01*
X68395226Y-64883558D01*
X68395224Y-64883556D01*
X68392890Y-64880563D01*
X68162570Y-64649034D01*
X67906103Y-64446852D01*
X67627205Y-64276945D01*
X67623761Y-64275379D01*
X67623757Y-64275377D01*
X67581744Y-64256275D01*
X67566185Y-64249201D01*
X67512452Y-64202797D01*
X67492336Y-64134710D01*
X67512225Y-64066556D01*
X67565803Y-64019974D01*
X67618336Y-64008500D01*
X80553795Y-64008500D01*
X80621916Y-64028502D01*
G37*
%TD.AperFunction*%
%TD*%
M02*
