%TF.GenerationSoftware,KiCad,Pcbnew,(6.0.7)*%
%TF.CreationDate,2022-09-05T20:23:25-07:00*%
%TF.ProjectId,EB4,4542342e-6b69-4636-9164-5f7063625858,rev?*%
%TF.SameCoordinates,Original*%
%TF.FileFunction,Legend,Top*%
%TF.FilePolarity,Positive*%
%FSLAX46Y46*%
G04 Gerber Fmt 4.6, Leading zero omitted, Abs format (unit mm)*
G04 Created by KiCad (PCBNEW (6.0.7)) date 2022-09-05 20:23:25*
%MOMM*%
%LPD*%
G01*
G04 APERTURE LIST*
G04 Aperture macros list*
%AMRoundRect*
0 Rectangle with rounded corners*
0 $1 Rounding radius*
0 $2 $3 $4 $5 $6 $7 $8 $9 X,Y pos of 4 corners*
0 Add a 4 corners polygon primitive as box body*
4,1,4,$2,$3,$4,$5,$6,$7,$8,$9,$2,$3,0*
0 Add four circle primitives for the rounded corners*
1,1,$1+$1,$2,$3*
1,1,$1+$1,$4,$5*
1,1,$1+$1,$6,$7*
1,1,$1+$1,$8,$9*
0 Add four rect primitives between the rounded corners*
20,1,$1+$1,$2,$3,$4,$5,0*
20,1,$1+$1,$4,$5,$6,$7,0*
20,1,$1+$1,$6,$7,$8,$9,0*
20,1,$1+$1,$8,$9,$2,$3,0*%
%AMFreePoly0*
4,1,6,1.000000,0.000000,0.500000,-0.750000,-0.500000,-0.750000,-0.500000,0.750000,0.500000,0.750000,1.000000,0.000000,1.000000,0.000000,$1*%
%AMFreePoly1*
4,1,6,0.500000,-0.750000,-0.650000,-0.750000,-0.150000,0.000000,-0.650000,0.750000,0.500000,0.750000,0.500000,-0.750000,0.500000,-0.750000,$1*%
G04 Aperture macros list end*
%ADD10C,0.150000*%
%ADD11C,0.275000*%
%ADD12C,0.125000*%
%ADD13C,0.120000*%
%ADD14R,0.600000X0.450000*%
%ADD15RoundRect,0.243750X-0.243750X-0.456250X0.243750X-0.456250X0.243750X0.456250X-0.243750X0.456250X0*%
%ADD16R,1.700000X1.700000*%
%ADD17O,1.700000X1.700000*%
%ADD18C,0.700000*%
%ADD19C,4.400000*%
%ADD20RoundRect,0.140000X0.170000X-0.140000X0.170000X0.140000X-0.170000X0.140000X-0.170000X-0.140000X0*%
%ADD21RoundRect,0.075000X-0.662500X-0.075000X0.662500X-0.075000X0.662500X0.075000X-0.662500X0.075000X0*%
%ADD22RoundRect,0.075000X-0.075000X-0.662500X0.075000X-0.662500X0.075000X0.662500X-0.075000X0.662500X0*%
%ADD23RoundRect,0.135000X-0.135000X-0.185000X0.135000X-0.185000X0.135000X0.185000X-0.135000X0.185000X0*%
%ADD24RoundRect,0.140000X0.140000X0.170000X-0.140000X0.170000X-0.140000X-0.170000X0.140000X-0.170000X0*%
%ADD25RoundRect,0.150000X0.150000X-0.587500X0.150000X0.587500X-0.150000X0.587500X-0.150000X-0.587500X0*%
%ADD26RoundRect,0.140000X-0.140000X-0.170000X0.140000X-0.170000X0.140000X0.170000X-0.140000X0.170000X0*%
%ADD27FreePoly0,90.000000*%
%ADD28FreePoly1,90.000000*%
%ADD29C,3.000000*%
%ADD30C,2.500000*%
%ADD31RoundRect,0.135000X0.135000X0.185000X-0.135000X0.185000X-0.135000X-0.185000X0.135000X-0.185000X0*%
%ADD32R,1.000000X2.800000*%
%ADD33C,1.400000*%
%ADD34R,2.000000X1.500000*%
%ADD35R,2.000000X3.800000*%
%ADD36RoundRect,0.225000X-0.225000X-0.250000X0.225000X-0.250000X0.225000X0.250000X-0.225000X0.250000X0*%
%ADD37R,2.000000X4.500000*%
G04 APERTURE END LIST*
D10*
X101155500Y-76962000D02*
X101155500Y-77216000D01*
D11*
X82751000Y-72898000D02*
G75*
G03*
X82751000Y-72898000I-137500J0D01*
G01*
D10*
X101155500Y-77978000D02*
X101155500Y-78232000D01*
X101155500Y-75946000D02*
X101155500Y-76200000D01*
X101155500Y-74930000D02*
X101155500Y-75184000D01*
X86198928Y-83099285D02*
X86598928Y-83099285D01*
X86770357Y-83727857D02*
X86198928Y-83727857D01*
X86198928Y-82527857D01*
X86770357Y-82527857D01*
X87684642Y-83099285D02*
X87856071Y-83156428D01*
X87913214Y-83213571D01*
X87970357Y-83327857D01*
X87970357Y-83499285D01*
X87913214Y-83613571D01*
X87856071Y-83670714D01*
X87741785Y-83727857D01*
X87284642Y-83727857D01*
X87284642Y-82527857D01*
X87684642Y-82527857D01*
X87798928Y-82585000D01*
X87856071Y-82642142D01*
X87913214Y-82756428D01*
X87913214Y-82870714D01*
X87856071Y-82985000D01*
X87798928Y-83042142D01*
X87684642Y-83099285D01*
X87284642Y-83099285D01*
X88998928Y-82927857D02*
X88998928Y-83727857D01*
X88713214Y-82470714D02*
X88427500Y-83327857D01*
X89170357Y-83327857D01*
X89627500Y-83613571D02*
X89684642Y-83670714D01*
X89627500Y-83727857D01*
X89570357Y-83670714D01*
X89627500Y-83613571D01*
X89627500Y-83727857D01*
X90427500Y-82527857D02*
X90541785Y-82527857D01*
X90656071Y-82585000D01*
X90713214Y-82642142D01*
X90770357Y-82756428D01*
X90827500Y-82985000D01*
X90827500Y-83270714D01*
X90770357Y-83499285D01*
X90713214Y-83613571D01*
X90656071Y-83670714D01*
X90541785Y-83727857D01*
X90427500Y-83727857D01*
X90313214Y-83670714D01*
X90256071Y-83613571D01*
X90198928Y-83499285D01*
X90141785Y-83270714D01*
X90141785Y-82985000D01*
X90198928Y-82756428D01*
X90256071Y-82642142D01*
X90313214Y-82585000D01*
X90427500Y-82527857D01*
X92941785Y-83727857D02*
X92541785Y-83156428D01*
X92256071Y-83727857D02*
X92256071Y-82527857D01*
X92713214Y-82527857D01*
X92827500Y-82585000D01*
X92884642Y-82642142D01*
X92941785Y-82756428D01*
X92941785Y-82927857D01*
X92884642Y-83042142D01*
X92827500Y-83099285D01*
X92713214Y-83156428D01*
X92256071Y-83156428D01*
X94141785Y-83613571D02*
X94084642Y-83670714D01*
X93913214Y-83727857D01*
X93798928Y-83727857D01*
X93627500Y-83670714D01*
X93513214Y-83556428D01*
X93456071Y-83442142D01*
X93398928Y-83213571D01*
X93398928Y-83042142D01*
X93456071Y-82813571D01*
X93513214Y-82699285D01*
X93627500Y-82585000D01*
X93798928Y-82527857D01*
X93913214Y-82527857D01*
X94084642Y-82585000D01*
X94141785Y-82642142D01*
X96256071Y-83727857D02*
X95856071Y-83156428D01*
X95570357Y-83727857D02*
X95570357Y-82527857D01*
X96027500Y-82527857D01*
X96141785Y-82585000D01*
X96198928Y-82642142D01*
X96256071Y-82756428D01*
X96256071Y-82927857D01*
X96198928Y-83042142D01*
X96141785Y-83099285D01*
X96027500Y-83156428D01*
X95570357Y-83156428D01*
X97227500Y-83670714D02*
X97113214Y-83727857D01*
X96884642Y-83727857D01*
X96770357Y-83670714D01*
X96713214Y-83556428D01*
X96713214Y-83099285D01*
X96770357Y-82985000D01*
X96884642Y-82927857D01*
X97113214Y-82927857D01*
X97227500Y-82985000D01*
X97284642Y-83099285D01*
X97284642Y-83213571D01*
X96713214Y-83327857D01*
X97970357Y-83727857D02*
X97856071Y-83670714D01*
X97798928Y-83556428D01*
X97798928Y-82527857D01*
X98941785Y-83727857D02*
X98941785Y-83099285D01*
X98884642Y-82985000D01*
X98770357Y-82927857D01*
X98541785Y-82927857D01*
X98427500Y-82985000D01*
X98941785Y-83670714D02*
X98827500Y-83727857D01*
X98541785Y-83727857D01*
X98427500Y-83670714D01*
X98370357Y-83556428D01*
X98370357Y-83442142D01*
X98427500Y-83327857D01*
X98541785Y-83270714D01*
X98827500Y-83270714D01*
X98941785Y-83213571D01*
X99398928Y-82927857D02*
X99684642Y-83727857D01*
X99970357Y-82927857D02*
X99684642Y-83727857D01*
X99570357Y-84013571D01*
X99513214Y-84070714D01*
X99398928Y-84127857D01*
X105426452Y-64730380D02*
X105426452Y-65444666D01*
X105378833Y-65587523D01*
X105283595Y-65682761D01*
X105140738Y-65730380D01*
X105045500Y-65730380D01*
X106378833Y-65730380D02*
X105902642Y-65730380D01*
X105902642Y-64730380D01*
X107283595Y-65635142D02*
X107235976Y-65682761D01*
X107093119Y-65730380D01*
X106997880Y-65730380D01*
X106855023Y-65682761D01*
X106759785Y-65587523D01*
X106712166Y-65492285D01*
X106664547Y-65301809D01*
X106664547Y-65158952D01*
X106712166Y-64968476D01*
X106759785Y-64873238D01*
X106855023Y-64778000D01*
X106997880Y-64730380D01*
X107093119Y-64730380D01*
X107235976Y-64778000D01*
X107283595Y-64825619D01*
X107997880Y-64730380D02*
X107997880Y-65444666D01*
X107950261Y-65587523D01*
X107855023Y-65682761D01*
X107712166Y-65730380D01*
X107616928Y-65730380D01*
X108950261Y-65730380D02*
X108474071Y-65730380D01*
X108474071Y-64730380D01*
X109855023Y-65635142D02*
X109807404Y-65682761D01*
X109664547Y-65730380D01*
X109569309Y-65730380D01*
X109426452Y-65682761D01*
X109331214Y-65587523D01*
X109283595Y-65492285D01*
X109235976Y-65301809D01*
X109235976Y-65158952D01*
X109283595Y-64968476D01*
X109331214Y-64873238D01*
X109426452Y-64778000D01*
X109569309Y-64730380D01*
X109664547Y-64730380D01*
X109807404Y-64778000D01*
X109855023Y-64825619D01*
X110569309Y-64730380D02*
X110569309Y-65444666D01*
X110521690Y-65587523D01*
X110426452Y-65682761D01*
X110283595Y-65730380D01*
X110188357Y-65730380D01*
X111521690Y-65730380D02*
X111045500Y-65730380D01*
X111045500Y-64730380D01*
X112426452Y-65635142D02*
X112378833Y-65682761D01*
X112235976Y-65730380D01*
X112140738Y-65730380D01*
X111997880Y-65682761D01*
X111902642Y-65587523D01*
X111855023Y-65492285D01*
X111807404Y-65301809D01*
X111807404Y-65158952D01*
X111855023Y-64968476D01*
X111902642Y-64873238D01*
X111997880Y-64778000D01*
X112140738Y-64730380D01*
X112235976Y-64730380D01*
X112378833Y-64778000D01*
X112426452Y-64825619D01*
X113140738Y-64730380D02*
X113140738Y-65444666D01*
X113093119Y-65587523D01*
X112997880Y-65682761D01*
X112855023Y-65730380D01*
X112759785Y-65730380D01*
X114093119Y-65730380D02*
X113616928Y-65730380D01*
X113616928Y-64730380D01*
X114997880Y-65635142D02*
X114950261Y-65682761D01*
X114807404Y-65730380D01*
X114712166Y-65730380D01*
X114569309Y-65682761D01*
X114474071Y-65587523D01*
X114426452Y-65492285D01*
X114378833Y-65301809D01*
X114378833Y-65158952D01*
X114426452Y-64968476D01*
X114474071Y-64873238D01*
X114569309Y-64778000D01*
X114712166Y-64730380D01*
X114807404Y-64730380D01*
X114950261Y-64778000D01*
X114997880Y-64825619D01*
%TO.C,D4*%
X112101404Y-85796380D02*
X112101404Y-84796380D01*
X112339500Y-84796380D01*
X112482357Y-84844000D01*
X112577595Y-84939238D01*
X112625214Y-85034476D01*
X112672833Y-85224952D01*
X112672833Y-85367809D01*
X112625214Y-85558285D01*
X112577595Y-85653523D01*
X112482357Y-85748761D01*
X112339500Y-85796380D01*
X112101404Y-85796380D01*
X113529976Y-85129714D02*
X113529976Y-85796380D01*
X113291880Y-84748761D02*
X113053785Y-85463047D01*
X113672833Y-85463047D01*
%TO.C,D2*%
X72223404Y-67254380D02*
X72223404Y-66254380D01*
X72461500Y-66254380D01*
X72604357Y-66302000D01*
X72699595Y-66397238D01*
X72747214Y-66492476D01*
X72794833Y-66682952D01*
X72794833Y-66825809D01*
X72747214Y-67016285D01*
X72699595Y-67111523D01*
X72604357Y-67206761D01*
X72461500Y-67254380D01*
X72223404Y-67254380D01*
X73175785Y-66349619D02*
X73223404Y-66302000D01*
X73318642Y-66254380D01*
X73556738Y-66254380D01*
X73651976Y-66302000D01*
X73699595Y-66349619D01*
X73747214Y-66444857D01*
X73747214Y-66540095D01*
X73699595Y-66682952D01*
X73128166Y-67254380D01*
X73747214Y-67254380D01*
%TO.C,C6*%
X81121214Y-76366666D02*
X81159309Y-76414285D01*
X81197404Y-76557142D01*
X81197404Y-76652380D01*
X81159309Y-76795238D01*
X81083119Y-76890476D01*
X81006928Y-76938095D01*
X80854547Y-76985714D01*
X80740261Y-76985714D01*
X80587880Y-76938095D01*
X80511690Y-76890476D01*
X80435500Y-76795238D01*
X80397404Y-76652380D01*
X80397404Y-76557142D01*
X80435500Y-76414285D01*
X80473595Y-76366666D01*
X80397404Y-75509523D02*
X80397404Y-75700000D01*
X80435500Y-75795238D01*
X80473595Y-75842857D01*
X80587880Y-75938095D01*
X80740261Y-75985714D01*
X81045023Y-75985714D01*
X81121214Y-75938095D01*
X81159309Y-75890476D01*
X81197404Y-75795238D01*
X81197404Y-75604761D01*
X81159309Y-75509523D01*
X81121214Y-75461904D01*
X81045023Y-75414285D01*
X80854547Y-75414285D01*
X80778357Y-75461904D01*
X80740261Y-75509523D01*
X80702166Y-75604761D01*
X80702166Y-75795238D01*
X80740261Y-75890476D01*
X80778357Y-75938095D01*
X80854547Y-75985714D01*
%TO.C,U1*%
X92225880Y-77469904D02*
X93035404Y-77469904D01*
X93130642Y-77422285D01*
X93178261Y-77374666D01*
X93225880Y-77279428D01*
X93225880Y-77088952D01*
X93178261Y-76993714D01*
X93130642Y-76946095D01*
X93035404Y-76898476D01*
X92225880Y-76898476D01*
X93225880Y-75898476D02*
X93225880Y-76469904D01*
X93225880Y-76184190D02*
X92225880Y-76184190D01*
X92368738Y-76279428D01*
X92463976Y-76374666D01*
X92511595Y-76469904D01*
%TO.C,C2*%
X80249214Y-70552666D02*
X80287309Y-70600285D01*
X80325404Y-70743142D01*
X80325404Y-70838380D01*
X80287309Y-70981238D01*
X80211119Y-71076476D01*
X80134928Y-71124095D01*
X79982547Y-71171714D01*
X79868261Y-71171714D01*
X79715880Y-71124095D01*
X79639690Y-71076476D01*
X79563500Y-70981238D01*
X79525404Y-70838380D01*
X79525404Y-70743142D01*
X79563500Y-70600285D01*
X79601595Y-70552666D01*
X79601595Y-70171714D02*
X79563500Y-70124095D01*
X79525404Y-70028857D01*
X79525404Y-69790761D01*
X79563500Y-69695523D01*
X79601595Y-69647904D01*
X79677785Y-69600285D01*
X79753976Y-69600285D01*
X79868261Y-69647904D01*
X80325404Y-70219333D01*
X80325404Y-69600285D01*
D12*
%TO.C,R1*%
X80922833Y-68044190D02*
X80589500Y-67806095D01*
X80351404Y-68044190D02*
X80351404Y-67544190D01*
X80732357Y-67544190D01*
X80827595Y-67568000D01*
X80875214Y-67591809D01*
X80922833Y-67639428D01*
X80922833Y-67710857D01*
X80875214Y-67758476D01*
X80827595Y-67782285D01*
X80732357Y-67806095D01*
X80351404Y-67806095D01*
X81875214Y-68044190D02*
X81303785Y-68044190D01*
X81589500Y-68044190D02*
X81589500Y-67544190D01*
X81494261Y-67615619D01*
X81399023Y-67663238D01*
X81303785Y-67687047D01*
D10*
%TO.C,C10*%
X97210642Y-74144142D02*
X97163023Y-74191761D01*
X97020166Y-74239380D01*
X96924928Y-74239380D01*
X96782071Y-74191761D01*
X96686833Y-74096523D01*
X96639214Y-74001285D01*
X96591595Y-73810809D01*
X96591595Y-73667952D01*
X96639214Y-73477476D01*
X96686833Y-73382238D01*
X96782071Y-73287000D01*
X96924928Y-73239380D01*
X97020166Y-73239380D01*
X97163023Y-73287000D01*
X97210642Y-73334619D01*
X98163023Y-74239380D02*
X97591595Y-74239380D01*
X97877309Y-74239380D02*
X97877309Y-73239380D01*
X97782071Y-73382238D01*
X97686833Y-73477476D01*
X97591595Y-73525095D01*
X98782071Y-73239380D02*
X98877309Y-73239380D01*
X98972547Y-73287000D01*
X99020166Y-73334619D01*
X99067785Y-73429857D01*
X99115404Y-73620333D01*
X99115404Y-73858428D01*
X99067785Y-74048904D01*
X99020166Y-74144142D01*
X98972547Y-74191761D01*
X98877309Y-74239380D01*
X98782071Y-74239380D01*
X98686833Y-74191761D01*
X98639214Y-74144142D01*
X98591595Y-74048904D01*
X98543976Y-73858428D01*
X98543976Y-73620333D01*
X98591595Y-73429857D01*
X98639214Y-73334619D01*
X98686833Y-73287000D01*
X98782071Y-73239380D01*
%TO.C,Q1*%
X103346261Y-89193619D02*
X103251023Y-89146000D01*
X103155785Y-89050761D01*
X103012928Y-88907904D01*
X102917690Y-88860285D01*
X102822452Y-88860285D01*
X102870071Y-89098380D02*
X102774833Y-89050761D01*
X102679595Y-88955523D01*
X102631976Y-88765047D01*
X102631976Y-88431714D01*
X102679595Y-88241238D01*
X102774833Y-88146000D01*
X102870071Y-88098380D01*
X103060547Y-88098380D01*
X103155785Y-88146000D01*
X103251023Y-88241238D01*
X103298642Y-88431714D01*
X103298642Y-88765047D01*
X103251023Y-88955523D01*
X103155785Y-89050761D01*
X103060547Y-89098380D01*
X102870071Y-89098380D01*
X104251023Y-89098380D02*
X103679595Y-89098380D01*
X103965309Y-89098380D02*
X103965309Y-88098380D01*
X103870071Y-88241238D01*
X103774833Y-88336476D01*
X103679595Y-88384095D01*
%TO.C,C7*%
X70508833Y-72747142D02*
X70461214Y-72794761D01*
X70318357Y-72842380D01*
X70223119Y-72842380D01*
X70080261Y-72794761D01*
X69985023Y-72699523D01*
X69937404Y-72604285D01*
X69889785Y-72413809D01*
X69889785Y-72270952D01*
X69937404Y-72080476D01*
X69985023Y-71985238D01*
X70080261Y-71890000D01*
X70223119Y-71842380D01*
X70318357Y-71842380D01*
X70461214Y-71890000D01*
X70508833Y-71937619D01*
X70842166Y-71842380D02*
X71508833Y-71842380D01*
X71080261Y-72842380D01*
%TO.C,C9*%
X82192833Y-81637142D02*
X82145214Y-81684761D01*
X82002357Y-81732380D01*
X81907119Y-81732380D01*
X81764261Y-81684761D01*
X81669023Y-81589523D01*
X81621404Y-81494285D01*
X81573785Y-81303809D01*
X81573785Y-81160952D01*
X81621404Y-80970476D01*
X81669023Y-80875238D01*
X81764261Y-80780000D01*
X81907119Y-80732380D01*
X82002357Y-80732380D01*
X82145214Y-80780000D01*
X82192833Y-80827619D01*
X82669023Y-81732380D02*
X82859500Y-81732380D01*
X82954738Y-81684761D01*
X83002357Y-81637142D01*
X83097595Y-81494285D01*
X83145214Y-81303809D01*
X83145214Y-80922857D01*
X83097595Y-80827619D01*
X83049976Y-80780000D01*
X82954738Y-80732380D01*
X82764261Y-80732380D01*
X82669023Y-80780000D01*
X82621404Y-80827619D01*
X82573785Y-80922857D01*
X82573785Y-81160952D01*
X82621404Y-81256190D01*
X82669023Y-81303809D01*
X82764261Y-81351428D01*
X82954738Y-81351428D01*
X83049976Y-81303809D01*
X83097595Y-81256190D01*
X83145214Y-81160952D01*
%TO.C,C8*%
X70508833Y-80367142D02*
X70461214Y-80414761D01*
X70318357Y-80462380D01*
X70223119Y-80462380D01*
X70080261Y-80414761D01*
X69985023Y-80319523D01*
X69937404Y-80224285D01*
X69889785Y-80033809D01*
X69889785Y-79890952D01*
X69937404Y-79700476D01*
X69985023Y-79605238D01*
X70080261Y-79510000D01*
X70223119Y-79462380D01*
X70318357Y-79462380D01*
X70461214Y-79510000D01*
X70508833Y-79557619D01*
X71080261Y-79890952D02*
X70985023Y-79843333D01*
X70937404Y-79795714D01*
X70889785Y-79700476D01*
X70889785Y-79652857D01*
X70937404Y-79557619D01*
X70985023Y-79510000D01*
X71080261Y-79462380D01*
X71270738Y-79462380D01*
X71365976Y-79510000D01*
X71413595Y-79557619D01*
X71461214Y-79652857D01*
X71461214Y-79700476D01*
X71413595Y-79795714D01*
X71365976Y-79843333D01*
X71270738Y-79890952D01*
X71080261Y-79890952D01*
X70985023Y-79938571D01*
X70937404Y-79986190D01*
X70889785Y-80081428D01*
X70889785Y-80271904D01*
X70937404Y-80367142D01*
X70985023Y-80414761D01*
X71080261Y-80462380D01*
X71270738Y-80462380D01*
X71365976Y-80414761D01*
X71413595Y-80367142D01*
X71461214Y-80271904D01*
X71461214Y-80081428D01*
X71413595Y-79986190D01*
X71365976Y-79938571D01*
X71270738Y-79890952D01*
%TO.C,K1*%
X109307404Y-68016380D02*
X109307404Y-67016380D01*
X109878833Y-68016380D02*
X109450261Y-67444952D01*
X109878833Y-67016380D02*
X109307404Y-67587809D01*
X110831214Y-68016380D02*
X110259785Y-68016380D01*
X110545500Y-68016380D02*
X110545500Y-67016380D01*
X110450261Y-67159238D01*
X110355023Y-67254476D01*
X110259785Y-67302095D01*
%TO.C,R4*%
X105052833Y-85288380D02*
X104719500Y-84812190D01*
X104481404Y-85288380D02*
X104481404Y-84288380D01*
X104862357Y-84288380D01*
X104957595Y-84336000D01*
X105005214Y-84383619D01*
X105052833Y-84478857D01*
X105052833Y-84621714D01*
X105005214Y-84716952D01*
X104957595Y-84764571D01*
X104862357Y-84812190D01*
X104481404Y-84812190D01*
X105909976Y-84621714D02*
X105909976Y-85288380D01*
X105671880Y-84240761D02*
X105433785Y-84955047D01*
X106052833Y-84955047D01*
%TO.C,C3*%
X92860833Y-81637142D02*
X92813214Y-81684761D01*
X92670357Y-81732380D01*
X92575119Y-81732380D01*
X92432261Y-81684761D01*
X92337023Y-81589523D01*
X92289404Y-81494285D01*
X92241785Y-81303809D01*
X92241785Y-81160952D01*
X92289404Y-80970476D01*
X92337023Y-80875238D01*
X92432261Y-80780000D01*
X92575119Y-80732380D01*
X92670357Y-80732380D01*
X92813214Y-80780000D01*
X92860833Y-80827619D01*
X93194166Y-80732380D02*
X93813214Y-80732380D01*
X93479880Y-81113333D01*
X93622738Y-81113333D01*
X93717976Y-81160952D01*
X93765595Y-81208571D01*
X93813214Y-81303809D01*
X93813214Y-81541904D01*
X93765595Y-81637142D01*
X93717976Y-81684761D01*
X93622738Y-81732380D01*
X93337023Y-81732380D01*
X93241785Y-81684761D01*
X93194166Y-81637142D01*
%TO.C,C1*%
X81375214Y-70524666D02*
X81413309Y-70572285D01*
X81451404Y-70715142D01*
X81451404Y-70810380D01*
X81413309Y-70953238D01*
X81337119Y-71048476D01*
X81260928Y-71096095D01*
X81108547Y-71143714D01*
X80994261Y-71143714D01*
X80841880Y-71096095D01*
X80765690Y-71048476D01*
X80689500Y-70953238D01*
X80651404Y-70810380D01*
X80651404Y-70715142D01*
X80689500Y-70572285D01*
X80727595Y-70524666D01*
X81451404Y-69572285D02*
X81451404Y-70143714D01*
X81451404Y-69858000D02*
X80651404Y-69858000D01*
X80765690Y-69953238D01*
X80841880Y-70048476D01*
X80879976Y-70143714D01*
%TO.C,D3*%
X72223404Y-65476380D02*
X72223404Y-64476380D01*
X72461500Y-64476380D01*
X72604357Y-64524000D01*
X72699595Y-64619238D01*
X72747214Y-64714476D01*
X72794833Y-64904952D01*
X72794833Y-65047809D01*
X72747214Y-65238285D01*
X72699595Y-65333523D01*
X72604357Y-65428761D01*
X72461500Y-65476380D01*
X72223404Y-65476380D01*
X73128166Y-64476380D02*
X73747214Y-64476380D01*
X73413880Y-64857333D01*
X73556738Y-64857333D01*
X73651976Y-64904952D01*
X73699595Y-64952571D01*
X73747214Y-65047809D01*
X73747214Y-65285904D01*
X73699595Y-65381142D01*
X73651976Y-65428761D01*
X73556738Y-65476380D01*
X73271023Y-65476380D01*
X73175785Y-65428761D01*
X73128166Y-65381142D01*
D12*
%TO.C,R2*%
X80922833Y-67028190D02*
X80589500Y-66790095D01*
X80351404Y-67028190D02*
X80351404Y-66528190D01*
X80732357Y-66528190D01*
X80827595Y-66552000D01*
X80875214Y-66575809D01*
X80922833Y-66623428D01*
X80922833Y-66694857D01*
X80875214Y-66742476D01*
X80827595Y-66766285D01*
X80732357Y-66790095D01*
X80351404Y-66790095D01*
X81303785Y-66575809D02*
X81351404Y-66552000D01*
X81446642Y-66528190D01*
X81684738Y-66528190D01*
X81779976Y-66552000D01*
X81827595Y-66575809D01*
X81875214Y-66623428D01*
X81875214Y-66671047D01*
X81827595Y-66742476D01*
X81256166Y-67028190D01*
X81875214Y-67028190D01*
D10*
%TO.C,C4*%
X80105214Y-76366666D02*
X80143309Y-76414285D01*
X80181404Y-76557142D01*
X80181404Y-76652380D01*
X80143309Y-76795238D01*
X80067119Y-76890476D01*
X79990928Y-76938095D01*
X79838547Y-76985714D01*
X79724261Y-76985714D01*
X79571880Y-76938095D01*
X79495690Y-76890476D01*
X79419500Y-76795238D01*
X79381404Y-76652380D01*
X79381404Y-76557142D01*
X79419500Y-76414285D01*
X79457595Y-76366666D01*
X79648071Y-75509523D02*
X80181404Y-75509523D01*
X79343309Y-75747619D02*
X79914738Y-75985714D01*
X79914738Y-75366666D01*
%TO.C,SW1*%
X97289880Y-70762523D02*
X96289880Y-70762523D01*
X96289880Y-70381571D01*
X96337500Y-70286333D01*
X96385119Y-70238714D01*
X96480357Y-70191095D01*
X96623214Y-70191095D01*
X96718452Y-70238714D01*
X96766071Y-70286333D01*
X96813690Y-70381571D01*
X96813690Y-70762523D01*
X96289880Y-69572047D02*
X96289880Y-69381571D01*
X96337500Y-69286333D01*
X96432738Y-69191095D01*
X96623214Y-69143476D01*
X96956547Y-69143476D01*
X97147023Y-69191095D01*
X97242261Y-69286333D01*
X97289880Y-69381571D01*
X97289880Y-69572047D01*
X97242261Y-69667285D01*
X97147023Y-69762523D01*
X96956547Y-69810142D01*
X96623214Y-69810142D01*
X96432738Y-69762523D01*
X96337500Y-69667285D01*
X96289880Y-69572047D01*
X96289880Y-68810142D02*
X97289880Y-68572047D01*
X96575595Y-68381571D01*
X97289880Y-68191095D01*
X96289880Y-67953000D01*
X96766071Y-67572047D02*
X96766071Y-67238714D01*
X97289880Y-67095857D02*
X97289880Y-67572047D01*
X96289880Y-67572047D01*
X96289880Y-67095857D01*
X97289880Y-66095857D02*
X96813690Y-66429190D01*
X97289880Y-66667285D02*
X96289880Y-66667285D01*
X96289880Y-66286333D01*
X96337500Y-66191095D01*
X96385119Y-66143476D01*
X96480357Y-66095857D01*
X96623214Y-66095857D01*
X96718452Y-66143476D01*
X96766071Y-66191095D01*
X96813690Y-66286333D01*
X96813690Y-66667285D01*
%TO.C,JP1*%
X97289880Y-80192380D02*
X96813690Y-80525714D01*
X97289880Y-80763809D02*
X96289880Y-80763809D01*
X96289880Y-80382857D01*
X96337500Y-80287619D01*
X96385119Y-80240000D01*
X96480357Y-80192380D01*
X96623214Y-80192380D01*
X96718452Y-80240000D01*
X96766071Y-80287619D01*
X96813690Y-80382857D01*
X96813690Y-80763809D01*
X96766071Y-79763809D02*
X96766071Y-79430476D01*
X97289880Y-79287619D02*
X97289880Y-79763809D01*
X96289880Y-79763809D01*
X96289880Y-79287619D01*
X97242261Y-78906666D02*
X97289880Y-78763809D01*
X97289880Y-78525714D01*
X97242261Y-78430476D01*
X97194642Y-78382857D01*
X97099404Y-78335238D01*
X97004166Y-78335238D01*
X96908928Y-78382857D01*
X96861309Y-78430476D01*
X96813690Y-78525714D01*
X96766071Y-78716190D01*
X96718452Y-78811428D01*
X96670833Y-78859047D01*
X96575595Y-78906666D01*
X96480357Y-78906666D01*
X96385119Y-78859047D01*
X96337500Y-78811428D01*
X96289880Y-78716190D01*
X96289880Y-78478095D01*
X96337500Y-78335238D01*
X96766071Y-77906666D02*
X96766071Y-77573333D01*
X97289880Y-77430476D02*
X97289880Y-77906666D01*
X96289880Y-77906666D01*
X96289880Y-77430476D01*
X96289880Y-77144761D02*
X96289880Y-76573333D01*
X97289880Y-76859047D02*
X96289880Y-76859047D01*
%TO.C,C5*%
X97432833Y-75668142D02*
X97385214Y-75715761D01*
X97242357Y-75763380D01*
X97147119Y-75763380D01*
X97004261Y-75715761D01*
X96909023Y-75620523D01*
X96861404Y-75525285D01*
X96813785Y-75334809D01*
X96813785Y-75191952D01*
X96861404Y-75001476D01*
X96909023Y-74906238D01*
X97004261Y-74811000D01*
X97147119Y-74763380D01*
X97242357Y-74763380D01*
X97385214Y-74811000D01*
X97432833Y-74858619D01*
X98337595Y-74763380D02*
X97861404Y-74763380D01*
X97813785Y-75239571D01*
X97861404Y-75191952D01*
X97956642Y-75144333D01*
X98194738Y-75144333D01*
X98289976Y-75191952D01*
X98337595Y-75239571D01*
X98385214Y-75334809D01*
X98385214Y-75572904D01*
X98337595Y-75668142D01*
X98289976Y-75715761D01*
X98194738Y-75763380D01*
X97956642Y-75763380D01*
X97861404Y-75715761D01*
X97813785Y-75668142D01*
D12*
%TO.C,R3*%
X80922833Y-66012190D02*
X80589500Y-65774095D01*
X80351404Y-66012190D02*
X80351404Y-65512190D01*
X80732357Y-65512190D01*
X80827595Y-65536000D01*
X80875214Y-65559809D01*
X80922833Y-65607428D01*
X80922833Y-65678857D01*
X80875214Y-65726476D01*
X80827595Y-65750285D01*
X80732357Y-65774095D01*
X80351404Y-65774095D01*
X81256166Y-65512190D02*
X81875214Y-65512190D01*
X81541880Y-65702666D01*
X81684738Y-65702666D01*
X81779976Y-65726476D01*
X81827595Y-65750285D01*
X81875214Y-65797904D01*
X81875214Y-65916952D01*
X81827595Y-65964571D01*
X81779976Y-65988380D01*
X81684738Y-66012190D01*
X81399023Y-66012190D01*
X81303785Y-65988380D01*
X81256166Y-65964571D01*
D10*
%TO.C,D1*%
X72223404Y-69032380D02*
X72223404Y-68032380D01*
X72461500Y-68032380D01*
X72604357Y-68080000D01*
X72699595Y-68175238D01*
X72747214Y-68270476D01*
X72794833Y-68460952D01*
X72794833Y-68603809D01*
X72747214Y-68794285D01*
X72699595Y-68889523D01*
X72604357Y-68984761D01*
X72461500Y-69032380D01*
X72223404Y-69032380D01*
X73747214Y-69032380D02*
X73175785Y-69032380D01*
X73461500Y-69032380D02*
X73461500Y-68032380D01*
X73366261Y-68175238D01*
X73271023Y-68270476D01*
X73175785Y-68318095D01*
%TO.C,U2*%
X88963595Y-64222380D02*
X88963595Y-65031904D01*
X89011214Y-65127142D01*
X89058833Y-65174761D01*
X89154071Y-65222380D01*
X89344547Y-65222380D01*
X89439785Y-65174761D01*
X89487404Y-65127142D01*
X89535023Y-65031904D01*
X89535023Y-64222380D01*
X89963595Y-64317619D02*
X90011214Y-64270000D01*
X90106452Y-64222380D01*
X90344547Y-64222380D01*
X90439785Y-64270000D01*
X90487404Y-64317619D01*
X90535023Y-64412857D01*
X90535023Y-64508095D01*
X90487404Y-64650952D01*
X89915976Y-65222380D01*
X90535023Y-65222380D01*
%TO.C,C11*%
X82986642Y-83161142D02*
X82939023Y-83208761D01*
X82796166Y-83256380D01*
X82700928Y-83256380D01*
X82558071Y-83208761D01*
X82462833Y-83113523D01*
X82415214Y-83018285D01*
X82367595Y-82827809D01*
X82367595Y-82684952D01*
X82415214Y-82494476D01*
X82462833Y-82399238D01*
X82558071Y-82304000D01*
X82700928Y-82256380D01*
X82796166Y-82256380D01*
X82939023Y-82304000D01*
X82986642Y-82351619D01*
X83939023Y-83256380D02*
X83367595Y-83256380D01*
X83653309Y-83256380D02*
X83653309Y-82256380D01*
X83558071Y-82399238D01*
X83462833Y-82494476D01*
X83367595Y-82542095D01*
X84891404Y-83256380D02*
X84319976Y-83256380D01*
X84605690Y-83256380D02*
X84605690Y-82256380D01*
X84510452Y-82399238D01*
X84415214Y-82494476D01*
X84319976Y-82542095D01*
%TO.C,Y1*%
X73128190Y-78200190D02*
X73604380Y-78200190D01*
X72604380Y-78533523D02*
X73128190Y-78200190D01*
X72604380Y-77866857D01*
X73604380Y-77009714D02*
X73604380Y-77581142D01*
X73604380Y-77295428D02*
X72604380Y-77295428D01*
X72747238Y-77390666D01*
X72842476Y-77485904D01*
X72890095Y-77581142D01*
D13*
%TO.C,D4*%
X108545500Y-84494000D02*
X111095500Y-84494000D01*
X108545500Y-86194000D02*
X111095500Y-86194000D01*
X108545500Y-84494000D02*
X108545500Y-86194000D01*
%TO.C,D2*%
X74324500Y-67762000D02*
X77009500Y-67762000D01*
X74324500Y-65842000D02*
X74324500Y-67762000D01*
X77009500Y-65842000D02*
X74324500Y-65842000D01*
%TO.C,J1*%
X70082500Y-86853000D02*
X70082500Y-81713000D01*
X72742500Y-86853000D02*
X70082500Y-86853000D01*
X72742500Y-81713000D02*
X70082500Y-81713000D01*
X71412500Y-89453000D02*
X70082500Y-89453000D01*
X72742500Y-86853000D02*
X72742500Y-81713000D01*
X70082500Y-89453000D02*
X70082500Y-88123000D01*
%TO.C,C6*%
X80475500Y-78367836D02*
X80475500Y-78152164D01*
X81195500Y-78367836D02*
X81195500Y-78152164D01*
%TO.C,U1*%
X83517500Y-80445000D02*
X83067500Y-80445000D01*
X89837500Y-80445000D02*
X90287500Y-80445000D01*
X90287500Y-73225000D02*
X90287500Y-73675000D01*
X83067500Y-73225000D02*
X83067500Y-73675000D01*
X83067500Y-80445000D02*
X83067500Y-79995000D01*
X83517500Y-73225000D02*
X83067500Y-73225000D01*
X83067500Y-73675000D02*
X81777500Y-73675000D01*
X90287500Y-80445000D02*
X90287500Y-79995000D01*
X89837500Y-73225000D02*
X90287500Y-73225000D01*
%TO.C,C2*%
X80433500Y-72525836D02*
X80433500Y-72310164D01*
X79713500Y-72525836D02*
X79713500Y-72310164D01*
%TO.C,R1*%
X79030859Y-68198000D02*
X79338141Y-68198000D01*
X79030859Y-67438000D02*
X79338141Y-67438000D01*
%TO.C,C10*%
X95548336Y-74020000D02*
X95332664Y-74020000D01*
X95548336Y-73300000D02*
X95332664Y-73300000D01*
%TO.C,Q1*%
X104675500Y-87551500D02*
X104675500Y-89226500D01*
X107795500Y-87551500D02*
X107795500Y-88201500D01*
X104675500Y-87551500D02*
X104675500Y-86901500D01*
X107795500Y-87551500D02*
X107795500Y-86901500D01*
%TO.C,C7*%
X72815336Y-72750000D02*
X72599664Y-72750000D01*
X72815336Y-72030000D02*
X72599664Y-72030000D01*
%TO.C,C9*%
X80247664Y-81640000D02*
X80463336Y-81640000D01*
X80247664Y-80920000D02*
X80463336Y-80920000D01*
%TO.C,C8*%
X72815336Y-79650000D02*
X72599664Y-79650000D01*
X72815336Y-80370000D02*
X72599664Y-80370000D01*
%TO.C,JP2*%
X91392500Y-67180000D02*
X93392500Y-67180000D01*
X91392500Y-69980000D02*
X91392500Y-67180000D01*
X93392500Y-67180000D02*
X93392500Y-69980000D01*
X93392500Y-69980000D02*
X91392500Y-69980000D01*
%TO.C,J2*%
X99437500Y-88158000D02*
X99437500Y-89488000D01*
X99437500Y-84288000D02*
X99437500Y-86888000D01*
X96837500Y-89488000D02*
X86617500Y-89488000D01*
X96837500Y-86888000D02*
X96837500Y-89488000D01*
X99437500Y-84288000D02*
X86617500Y-84288000D01*
X99437500Y-89488000D02*
X98107500Y-89488000D01*
X99437500Y-86888000D02*
X96837500Y-86888000D01*
X86617500Y-84288000D02*
X86617500Y-89488000D01*
%TO.C,K1*%
X108295500Y-78364000D02*
X108295500Y-74364000D01*
X111895500Y-74364000D02*
X108295500Y-78364000D01*
X114245500Y-68264000D02*
X111795500Y-68264000D01*
X104095500Y-76364000D02*
X104095500Y-78864000D01*
X110095500Y-72964000D02*
X113695500Y-72964000D01*
X110095500Y-71464000D02*
X107595500Y-66864000D01*
X116095500Y-78864000D02*
X116095500Y-76364000D01*
X110095500Y-79764000D02*
X110095500Y-80564000D01*
X111895500Y-78364000D02*
X108295500Y-78364000D01*
X105845500Y-68264000D02*
X108345500Y-68264000D01*
X117845500Y-64014000D02*
X117845500Y-83814000D01*
X104095500Y-76364000D02*
X108295500Y-76364000D01*
X111895500Y-76364000D02*
X116095500Y-76364000D01*
X102245500Y-83814000D02*
X108845500Y-83814000D01*
X111895500Y-74364000D02*
X111895500Y-78364000D01*
X102245500Y-64014000D02*
X117845500Y-64014000D01*
X113695500Y-72964000D02*
X113695500Y-79764000D01*
X108295500Y-74364000D02*
X111895500Y-74364000D01*
X111245500Y-83814000D02*
X117845500Y-83814000D01*
X102245500Y-83814000D02*
X102245500Y-64014000D01*
X110095500Y-79764000D02*
X113695500Y-79764000D01*
X110095500Y-72964000D02*
X110095500Y-71464000D01*
%TO.C,R4*%
X103341141Y-85724000D02*
X103033859Y-85724000D01*
X103341141Y-84964000D02*
X103033859Y-84964000D01*
%TO.C,C3*%
X91230336Y-81767000D02*
X91014664Y-81767000D01*
X91230336Y-81047000D02*
X91014664Y-81047000D01*
%TO.C,C1*%
X81449500Y-72497836D02*
X81449500Y-72282164D01*
X80729500Y-72497836D02*
X80729500Y-72282164D01*
%TO.C,D3*%
X77009500Y-63937000D02*
X74324500Y-63937000D01*
X74324500Y-65857000D02*
X77009500Y-65857000D01*
X74324500Y-63937000D02*
X74324500Y-65857000D01*
%TO.C,R2*%
X79030859Y-67182000D02*
X79338141Y-67182000D01*
X79030859Y-66422000D02*
X79338141Y-66422000D01*
%TO.C,J3*%
X85213500Y-89468000D02*
X83883500Y-89468000D01*
X85213500Y-84268000D02*
X85213500Y-86868000D01*
X74933500Y-84268000D02*
X74933500Y-89468000D01*
X85213500Y-86868000D02*
X82613500Y-86868000D01*
X82613500Y-89468000D02*
X74933500Y-89468000D01*
X85213500Y-88138000D02*
X85213500Y-89468000D01*
X85213500Y-84268000D02*
X74933500Y-84268000D01*
X82613500Y-86868000D02*
X82613500Y-89468000D01*
%TO.C,C4*%
X80179500Y-78367836D02*
X80179500Y-78152164D01*
X79459500Y-78367836D02*
X79459500Y-78152164D01*
%TO.C,SW1*%
X95891500Y-71663000D02*
X98291500Y-71663000D01*
X100301500Y-71663000D02*
X100301500Y-65243000D01*
X98291500Y-65243000D02*
X95891500Y-65243000D01*
X100301500Y-65243000D02*
X100021500Y-65243000D01*
X94291500Y-65243000D02*
X93881500Y-65243000D01*
X99891500Y-71663000D02*
X100301500Y-71663000D01*
X93881500Y-65243000D02*
X93881500Y-71663000D01*
X93881500Y-71663000D02*
X94291500Y-71663000D01*
%TO.C,J4*%
X117837500Y-89620000D02*
X116507500Y-89620000D01*
X115237500Y-89620000D02*
X110097500Y-89620000D01*
X117837500Y-88290000D02*
X117837500Y-89620000D01*
X115237500Y-86960000D02*
X110097500Y-86960000D01*
X110097500Y-86960000D02*
X110097500Y-89620000D01*
X115237500Y-86960000D02*
X115237500Y-89620000D01*
D10*
%TO.C,JP1*%
X94032500Y-80433000D02*
X94032500Y-76833000D01*
X95332500Y-80933000D02*
X94532500Y-80933000D01*
X95832500Y-80433000D02*
X95332500Y-80933000D01*
X95332500Y-76333000D02*
X95832500Y-76833000D01*
X94532500Y-80933000D02*
X94032500Y-80433000D01*
X94532500Y-76333000D02*
X95332500Y-76333000D01*
X95832500Y-76833000D02*
X95832500Y-80433000D01*
X94032500Y-76833000D02*
X94532500Y-76333000D01*
D13*
%TO.C,C5*%
X95548336Y-74824000D02*
X95332664Y-74824000D01*
X95548336Y-75544000D02*
X95332664Y-75544000D01*
%TO.C,R3*%
X79030859Y-65406000D02*
X79338141Y-65406000D01*
X79030859Y-66166000D02*
X79338141Y-66166000D01*
%TO.C,D1*%
X74324500Y-69667000D02*
X77009500Y-69667000D01*
X77009500Y-67747000D02*
X74324500Y-67747000D01*
X74324500Y-67747000D02*
X74324500Y-69667000D01*
%TO.C,U2*%
X82323500Y-64154000D02*
X88333500Y-64154000D01*
X84573500Y-70974000D02*
X88333500Y-70974000D01*
X88333500Y-70974000D02*
X88333500Y-69714000D01*
X88333500Y-64154000D02*
X88333500Y-65414000D01*
%TO.C,C11*%
X80440920Y-82040000D02*
X80722080Y-82040000D01*
X80440920Y-83060000D02*
X80722080Y-83060000D01*
%TO.C,Y1*%
X73840500Y-71062000D02*
X73840500Y-83662000D01*
X78940500Y-83662000D02*
X78940500Y-71062000D01*
X73840500Y-83662000D02*
X78940500Y-83662000D01*
%TD*%
%LPC*%
D14*
%TO.C,D4*%
X108995500Y-85344000D03*
X111095500Y-85344000D03*
%TD*%
D15*
%TO.C,D2*%
X75072000Y-66802000D03*
X76947000Y-66802000D03*
%TD*%
D16*
%TO.C,J1*%
X71412500Y-88123000D03*
D17*
X71412500Y-85583000D03*
X71412500Y-83043000D03*
%TD*%
D18*
%TO.C,REF\u002A\u002A*%
X67524226Y-88161726D03*
X65190774Y-88161726D03*
X65190774Y-85828274D03*
X64707500Y-86995000D03*
D19*
X66357500Y-86995000D03*
D18*
X66357500Y-85345000D03*
X66357500Y-88645000D03*
X67524226Y-85828274D03*
X68007500Y-86995000D03*
%TD*%
D20*
%TO.C,C6*%
X80835500Y-78740000D03*
X80835500Y-77780000D03*
%TD*%
D18*
%TO.C,REF\u002A\u002A*%
X64707500Y-66675000D03*
X68007500Y-66675000D03*
X66357500Y-68325000D03*
X65190774Y-67841726D03*
X66357500Y-65025000D03*
D19*
X66357500Y-66675000D03*
D18*
X67524226Y-67841726D03*
X67524226Y-65508274D03*
X65190774Y-65508274D03*
%TD*%
D21*
%TO.C,U1*%
X82515000Y-74085000D03*
X82515000Y-74585000D03*
X82515000Y-75085000D03*
X82515000Y-75585000D03*
X82515000Y-76085000D03*
X82515000Y-76585000D03*
X82515000Y-77085000D03*
X82515000Y-77585000D03*
X82515000Y-78085000D03*
X82515000Y-78585000D03*
X82515000Y-79085000D03*
X82515000Y-79585000D03*
D22*
X83927500Y-80997500D03*
X84427500Y-80997500D03*
X84927500Y-80997500D03*
X85427500Y-80997500D03*
X85927500Y-80997500D03*
X86427500Y-80997500D03*
X86927500Y-80997500D03*
X87427500Y-80997500D03*
X87927500Y-80997500D03*
X88427500Y-80997500D03*
X88927500Y-80997500D03*
X89427500Y-80997500D03*
D21*
X90840000Y-79585000D03*
X90840000Y-79085000D03*
X90840000Y-78585000D03*
X90840000Y-78085000D03*
X90840000Y-77585000D03*
X90840000Y-77085000D03*
X90840000Y-76585000D03*
X90840000Y-76085000D03*
X90840000Y-75585000D03*
X90840000Y-75085000D03*
X90840000Y-74585000D03*
X90840000Y-74085000D03*
D22*
X89427500Y-72672500D03*
X88927500Y-72672500D03*
X88427500Y-72672500D03*
X87927500Y-72672500D03*
X87427500Y-72672500D03*
X86927500Y-72672500D03*
X86427500Y-72672500D03*
X85927500Y-72672500D03*
X85427500Y-72672500D03*
X84927500Y-72672500D03*
X84427500Y-72672500D03*
X83927500Y-72672500D03*
%TD*%
D20*
%TO.C,C2*%
X80073500Y-72898000D03*
X80073500Y-71938000D03*
%TD*%
D23*
%TO.C,R1*%
X78674500Y-67818000D03*
X79694500Y-67818000D03*
%TD*%
D24*
%TO.C,C10*%
X95920500Y-73660000D03*
X94960500Y-73660000D03*
%TD*%
D25*
%TO.C,Q1*%
X105285500Y-88489000D03*
X107185500Y-88489000D03*
X106235500Y-86614000D03*
%TD*%
D24*
%TO.C,C7*%
X73187500Y-72390000D03*
X72227500Y-72390000D03*
%TD*%
D26*
%TO.C,C9*%
X79875500Y-81280000D03*
X80835500Y-81280000D03*
%TD*%
D24*
%TO.C,C8*%
X73187500Y-80010000D03*
X72227500Y-80010000D03*
%TD*%
D27*
%TO.C,JP2*%
X92392500Y-69305000D03*
D28*
X92392500Y-67855000D03*
%TD*%
D16*
%TO.C,J2*%
X98107500Y-88158000D03*
D17*
X98107500Y-85618000D03*
X95567500Y-88158000D03*
X95567500Y-85618000D03*
X93027500Y-88158000D03*
X93027500Y-85618000D03*
X90487500Y-88158000D03*
X90487500Y-85618000D03*
X87947500Y-88158000D03*
X87947500Y-85618000D03*
%TD*%
D29*
%TO.C,K1*%
X110045500Y-82414000D03*
D30*
X116095500Y-80464000D03*
D29*
X116095500Y-68264000D03*
X104045500Y-68214000D03*
D30*
X104095500Y-80464000D03*
%TD*%
D31*
%TO.C,R4*%
X103697500Y-85344000D03*
X102677500Y-85344000D03*
%TD*%
D24*
%TO.C,C3*%
X91602500Y-81407000D03*
X90642500Y-81407000D03*
%TD*%
D20*
%TO.C,C1*%
X81089500Y-72870000D03*
X81089500Y-71910000D03*
%TD*%
D15*
%TO.C,D3*%
X75072000Y-64897000D03*
X76947000Y-64897000D03*
%TD*%
D23*
%TO.C,R2*%
X78674500Y-66802000D03*
X79694500Y-66802000D03*
%TD*%
D16*
%TO.C,J3*%
X83883500Y-88138000D03*
D17*
X83883500Y-85598000D03*
X81343500Y-88138000D03*
X81343500Y-85598000D03*
X78803500Y-88138000D03*
X78803500Y-85598000D03*
X76263500Y-88138000D03*
X76263500Y-85598000D03*
%TD*%
D20*
%TO.C,C4*%
X79819500Y-78740000D03*
X79819500Y-77780000D03*
%TD*%
D32*
%TO.C,SW1*%
X95091500Y-65553000D03*
X95091500Y-71353000D03*
X99091500Y-71353000D03*
X99091500Y-65553000D03*
%TD*%
D16*
%TO.C,J4*%
X116507500Y-88290000D03*
D17*
X113967500Y-88290000D03*
X111427500Y-88290000D03*
%TD*%
D33*
%TO.C,JP1*%
X94932500Y-77363000D03*
X94932500Y-79903000D03*
%TD*%
D24*
%TO.C,C5*%
X95920500Y-75184000D03*
X94960500Y-75184000D03*
%TD*%
D23*
%TO.C,R3*%
X78674500Y-65786000D03*
X79694500Y-65786000D03*
%TD*%
D15*
%TO.C,D1*%
X75072000Y-68707000D03*
X76947000Y-68707000D03*
%TD*%
D34*
%TO.C,U2*%
X83273500Y-65264000D03*
X83273500Y-67564000D03*
D35*
X89573500Y-67564000D03*
D34*
X83273500Y-69864000D03*
%TD*%
D36*
%TO.C,C11*%
X79806500Y-82550000D03*
X81356500Y-82550000D03*
%TD*%
D37*
%TO.C,Y1*%
X76390500Y-81212000D03*
X76390500Y-72712000D03*
%TD*%
M02*
