%TF.GenerationSoftware,KiCad,Pcbnew,(6.0.7)*%
%TF.CreationDate,2022-09-05T20:23:25-07:00*%
%TF.ProjectId,EB4,4542342e-6b69-4636-9164-5f7063625858,rev?*%
%TF.SameCoordinates,Original*%
%TF.FileFunction,Soldermask,Bot*%
%TF.FilePolarity,Negative*%
%FSLAX46Y46*%
G04 Gerber Fmt 4.6, Leading zero omitted, Abs format (unit mm)*
G04 Created by KiCad (PCBNEW (6.0.7)) date 2022-09-05 20:23:25*
%MOMM*%
%LPD*%
G01*
G04 APERTURE LIST*
%ADD10R,1.700000X1.700000*%
%ADD11O,1.700000X1.700000*%
%ADD12C,0.700000*%
%ADD13C,4.400000*%
%ADD14C,3.000000*%
%ADD15C,2.500000*%
%ADD16C,1.400000*%
G04 APERTURE END LIST*
D10*
%TO.C,J1*%
X71412500Y-88123000D03*
D11*
X71412500Y-85583000D03*
X71412500Y-83043000D03*
%TD*%
D12*
%TO.C,REF\u002A\u002A*%
X67524226Y-88161726D03*
X65190774Y-88161726D03*
X65190774Y-85828274D03*
X64707500Y-86995000D03*
D13*
X66357500Y-86995000D03*
D12*
X66357500Y-85345000D03*
X66357500Y-88645000D03*
X67524226Y-85828274D03*
X68007500Y-86995000D03*
%TD*%
%TO.C,REF\u002A\u002A*%
X64707500Y-66675000D03*
X68007500Y-66675000D03*
X66357500Y-68325000D03*
X65190774Y-67841726D03*
X66357500Y-65025000D03*
D13*
X66357500Y-66675000D03*
D12*
X67524226Y-67841726D03*
X67524226Y-65508274D03*
X65190774Y-65508274D03*
%TD*%
D10*
%TO.C,J2*%
X98107500Y-88158000D03*
D11*
X98107500Y-85618000D03*
X95567500Y-88158000D03*
X95567500Y-85618000D03*
X93027500Y-88158000D03*
X93027500Y-85618000D03*
X90487500Y-88158000D03*
X90487500Y-85618000D03*
X87947500Y-88158000D03*
X87947500Y-85618000D03*
%TD*%
D14*
%TO.C,K1*%
X110045500Y-82414000D03*
D15*
X116095500Y-80464000D03*
D14*
X116095500Y-68264000D03*
X104045500Y-68214000D03*
D15*
X104095500Y-80464000D03*
%TD*%
D10*
%TO.C,J3*%
X83883500Y-88138000D03*
D11*
X83883500Y-85598000D03*
X81343500Y-88138000D03*
X81343500Y-85598000D03*
X78803500Y-88138000D03*
X78803500Y-85598000D03*
X76263500Y-88138000D03*
X76263500Y-85598000D03*
%TD*%
D10*
%TO.C,J4*%
X116507500Y-88290000D03*
D11*
X113967500Y-88290000D03*
X111427500Y-88290000D03*
%TD*%
D16*
%TO.C,JP1*%
X94932500Y-77363000D03*
X94932500Y-79903000D03*
%TD*%
M02*
